<svg width="18" height="18" viewBox="0 0 18 18" fill="none" xmlns="http://www.w3.org/2000/svg">
<g id="AI White">
<rect id="Rectangle 4" width="18" height="18" fill="#F4F7FB" fill-opacity="0.01"/>
<g id="artificial-intelligence (3) copy 2">
<path id="Shape" d="M8.98483 1.00042H7.65408C4.89934 1.00354 2.66695 3.23593 2.66383 5.99068V6.54993L1.04168 9.4895C1.01467 9.53875 1.00048 9.59402 1.00042 9.65019C0.99986 9.66909 0.99986 9.68802 1.00042 9.70692C1.01608 10.2425 1.46292 10.6639 1.99847 10.6482C2.24044 10.6617 2.47255 10.7486 2.66383 10.8974V11.979C2.66308 12.0044 2.66308 12.0298 2.66383 12.0553C2.68491 12.7691 3.28069 13.3308 3.99457 13.3097H5.99067C6.00957 13.3103 6.02851 13.3103 6.04741 13.3097C6.58296 13.294 7.00441 12.8472 6.98873 12.3116V10.3155H6.32337V12.3116C6.3253 12.3314 6.3253 12.3513 6.32337 12.3711C6.30693 12.5385 6.158 12.6607 5.99067 12.6443H3.99457C3.96803 12.646 3.9414 12.646 3.91485 12.6443C3.5694 12.6223 3.3072 12.3244 3.32922 11.979V10.7387C3.32925 10.6435 3.28842 10.5527 3.21709 10.4896C2.88343 10.1821 2.45174 10.0027 1.99847 9.98291C1.99701 9.9831 1.99551 9.98325 1.99404 9.98341C1.83364 10.0004 1.68979 9.88417 1.67276 9.72373L3.28795 6.7961C3.31496 6.74686 3.32915 6.69159 3.32922 6.63542V5.99068C3.33196 3.60325 5.26668 1.66853 7.65411 1.66578H8.98087C9.00111 1.66363 9.02154 1.6635 9.04181 1.66541C9.20992 1.68122 9.33336 1.83033 9.31755 1.99844V3.66185H9.98291V1.99847C9.98347 1.97957 9.98347 1.96064 9.98291 1.94174C9.96722 1.40619 9.52037 0.984736 8.98483 1.00042Z" fill="white" stroke="white" stroke-width="0.2"/>
<path id="Shape_2" d="M14.6403 10.9809H10.9808V11.6462H14.6403C14.6601 11.6443 14.68 11.6443 14.6998 11.6462C14.8671 11.6627 14.9894 11.8116 14.973 11.9789V12.6077C14.9251 12.8063 14.6044 13.975 13.6423 13.975C13.4585 13.975 13.3096 14.124 13.3096 14.3077V16.3038H6.9886V15.3058H6.32324V16.6365C6.32324 16.8203 6.4722 16.9692 6.65594 16.9692H13.6423C13.826 16.9692 13.975 16.8203 13.975 16.6365V14.6111C15.015 14.4145 15.5106 13.3173 15.6317 12.7109C15.6362 12.689 15.6384 12.6667 15.6384 12.6443V11.979C15.639 11.9601 15.639 11.9411 15.6384 11.9222C15.6227 11.3867 15.1759 10.9652 14.6403 10.9809Z" fill="white" stroke="white" stroke-width="0.2"/>
<path id="Shape_3" d="M16.6364 4.9926H15.7977C15.7625 4.89376 15.7222 4.79682 15.677 4.70216L16.2705 4.10867C16.4003 3.97876 16.4003 3.76818 16.2705 3.63824L15.3293 2.69708C15.1994 2.56721 14.9888 2.56721 14.8589 2.69708L14.2654 3.29058C14.1707 3.24551 14.0737 3.20534 13.9749 3.17016V2.33111C13.9749 2.14737 13.826 1.99841 13.6422 1.99841H12.3115C12.1278 1.99841 11.9788 2.14737 11.9788 2.33111V3.17012C11.7977 3.23409 11.6232 3.31553 11.4579 3.41331L11.7959 3.98619C11.9829 3.87606 12.1845 3.79263 12.3947 3.73833C12.5416 3.7004 12.6442 3.56797 12.6442 3.4163V2.6638H13.3096V3.41633C13.3094 3.56794 13.4117 3.7005 13.5584 3.7387C13.7686 3.793 13.9702 3.87643 14.1572 3.98656C14.288 4.06382 14.4544 4.04273 14.5618 3.93532L15.0941 3.40301L15.5648 3.87275L15.0325 4.40506C14.925 4.51232 14.9038 4.6788 14.981 4.80961C15.0913 4.99665 15.175 5.19823 15.2295 5.40844C15.2674 5.55519 15.3997 5.65777 15.5512 5.65795H16.3037V6.323H15.5519C15.4003 6.32318 15.268 6.42577 15.2301 6.57251C15.1756 6.78273 15.092 6.9843 14.9816 7.17134C14.9045 7.30215 14.9257 7.4686 15.0332 7.57589L15.5655 8.1082L15.0951 8.57862L14.5628 8.04632C14.4554 7.9389 14.289 7.91782 14.1582 7.99508C13.9711 8.1052 13.7696 8.18864 13.5594 8.24294C13.4125 8.28086 13.3099 8.41329 13.3099 8.56496V9.31749H12.6445V8.56531C12.6445 8.41363 12.5419 8.28117 12.395 8.24328C12.1848 8.18898 11.9832 8.10555 11.7962 7.99542C11.6654 7.91816 11.499 7.93925 11.3916 8.04666L10.8594 8.5789L10.3889 8.10848L10.9213 7.57618C11.0288 7.46892 11.05 7.30243 10.9728 7.17162C10.8625 6.98458 10.7788 6.78301 10.7243 6.57279C10.6864 6.42605 10.5541 6.32347 10.4026 6.32328H9.31738V6.98864H10.1564C10.1915 7.08747 10.2317 7.18441 10.2768 7.27907L9.68332 7.87257C9.55345 8.00247 9.55345 8.21306 9.68332 8.34299L10.6245 9.28415C10.7544 9.41402 10.965 9.41402 11.0949 9.28415L11.6884 8.69065C11.7831 8.73572 11.88 8.77589 11.9788 8.81108V9.65009C11.9788 9.83383 12.1278 9.98279 12.3115 9.98279H13.6423C13.826 9.98279 13.975 9.83383 13.975 9.65009V8.81139C14.0738 8.77621 14.1707 8.736 14.2654 8.69097L14.8589 9.28415C14.9888 9.41402 15.1994 9.41402 15.3293 9.28415L16.2705 8.34299C16.4004 8.21309 16.4004 8.0025 16.2705 7.87257L15.6767 7.27907C15.7219 7.18441 15.7622 7.08747 15.7974 6.98864H16.6364C16.8202 6.98864 16.9691 6.83968 16.9691 6.65594V5.32526C16.9691 5.14152 16.8202 4.9926 16.6364 4.9926Z" fill="white" stroke="white" stroke-width="0.2"/>
<g id="Shape_4">
<path fill-rule="evenodd" clip-rule="evenodd" d="M11.6462 5.9906C11.6462 5.25574 12.2419 4.65991 12.9771 4.65991C13.7119 4.65991 14.3076 5.25574 14.3076 5.9906C14.3076 6.72559 13.7119 7.32141 12.9771 7.32141C12.2419 7.32141 11.6462 6.72559 11.6462 5.9906ZM12.3115 5.99072C12.3115 6.35815 12.6094 6.65601 12.9768 6.65601C13.3445 6.65601 13.6423 6.35815 13.6423 5.99072C13.6423 5.62317 13.3442 5.32532 12.9768 5.32532C12.7239 5.32532 12.5039 5.46631 12.3916 5.67407C12.3406 5.76831 12.3115 5.8761 12.3115 5.99072Z" fill="white"/>
<path d="M12.3916 5.67407L12.4795 5.72169L12.4796 5.72162L12.3916 5.67407ZM12.9771 4.55991C12.1867 4.55991 11.5462 5.20051 11.5462 5.9906H11.7462C11.7462 5.31097 12.2972 4.75991 12.9771 4.75991V4.55991ZM14.4076 5.9906C14.4076 5.20052 13.7672 4.55991 12.9771 4.55991V4.75991C13.6567 4.75991 14.2076 5.31095 14.2076 5.9906H14.4076ZM12.9771 7.42141C13.7672 7.42141 14.4076 6.7808 14.4076 5.9906H14.2076C14.2076 6.67038 13.6567 7.22141 12.9771 7.22141V7.42141ZM11.5462 5.9906C11.5462 6.78081 12.1867 7.42141 12.9771 7.42141V7.22141C12.2972 7.22141 11.7462 6.67036 11.7462 5.9906H11.5462ZM12.9768 6.55601C12.6646 6.55601 12.4115 6.30293 12.4115 5.99072H12.2115C12.2115 6.41338 12.5541 6.75601 12.9768 6.75601V6.55601ZM13.5423 5.99072C13.5423 6.3029 13.2893 6.55601 12.9768 6.55601V6.75601C13.3997 6.75601 13.7423 6.41341 13.7423 5.99072H13.5423ZM12.9768 5.42532C13.289 5.42532 13.5423 5.67843 13.5423 5.99072H13.7423C13.7423 5.5679 13.3994 5.22532 12.9768 5.22532V5.42532ZM12.4796 5.72162C12.5751 5.54496 12.762 5.42532 12.9768 5.42532V5.22532C12.6858 5.22532 12.4327 5.38766 12.3036 5.62652L12.4796 5.72162ZM12.4115 5.99072C12.4115 5.89321 12.4362 5.80173 12.4795 5.72169L12.3037 5.62646C12.245 5.73489 12.2115 5.85899 12.2115 5.99072H12.4115Z" fill="white"/>
</g>
<path id="Shape_5" d="M5.9907 6.32336V6.65606H4.99265V6.32336H4.32729V6.65606C4.3271 6.66526 4.3271 6.67443 4.32729 6.68363C4.3349 7.04349 4.63279 7.32903 4.99265 7.32141H5.9907C5.9999 7.3216 6.00907 7.3216 6.01827 7.32141C6.37813 7.3138 6.66366 7.01592 6.65605 6.65606V6.32336H5.9907Z" fill="white" stroke="white" stroke-width="0.2"/>
<g id="Shape_6">
<path fill-rule="evenodd" clip-rule="evenodd" d="M9.31738 11.3136C9.31738 10.7625 9.76416 10.3156 10.3154 10.3156C10.8667 10.3156 11.3135 10.7625 11.3135 11.3136C11.3135 11.8647 10.8667 12.3116 10.3154 12.3116C9.76416 12.3116 9.31738 11.8647 9.31738 11.3136ZM9.98267 11.3136C9.98267 11.4974 10.1316 11.6464 10.3154 11.6464C10.3938 11.6464 10.4658 11.6193 10.5225 11.574C10.5989 11.5131 10.6479 11.4191 10.6479 11.3136C10.6479 11.1299 10.499 10.981 10.3154 10.981C10.1316 10.981 9.98267 11.1299 9.98267 11.3136Z" fill="white"/>
<path d="M10.5225 11.574L10.4601 11.4958L10.46 11.4959L10.5225 11.574ZM10.3154 10.2156C9.70892 10.2156 9.21738 10.7072 9.21738 11.3136H9.41738C9.41738 10.8177 9.8194 10.4156 10.3154 10.4156V10.2156ZM11.4135 11.3136C11.4135 10.7072 10.9219 10.2156 10.3154 10.2156V10.4156C10.8115 10.4156 11.2135 10.8177 11.2135 11.3136H11.4135ZM10.3154 12.4116C10.9219 12.4116 11.4135 11.92 11.4135 11.3136H11.2135C11.2135 11.8095 10.8115 12.2116 10.3154 12.2116V12.4116ZM9.21738 11.3136C9.21738 11.92 9.70892 12.4116 10.3154 12.4116V12.2116C9.8194 12.2116 9.41738 11.8095 9.41738 11.3136H9.21738ZM10.3154 11.5464C10.1868 11.5464 10.0827 11.4422 10.0827 11.3136H9.88267C9.88267 11.5527 10.0764 11.7464 10.3154 11.7464V11.5464ZM10.46 11.4959C10.4205 11.5274 10.3704 11.5464 10.3154 11.5464V11.7464C10.4172 11.7464 10.5111 11.7111 10.5849 11.6521L10.46 11.4959ZM10.5479 11.3136C10.5479 11.3873 10.5138 11.453 10.4601 11.4958L10.5848 11.6522C10.684 11.5731 10.7479 11.4508 10.7479 11.3136H10.5479ZM10.3154 11.081C10.4438 11.081 10.5479 11.1851 10.5479 11.3136H10.7479C10.7479 11.0747 10.5543 10.881 10.3154 10.881V11.081ZM10.0827 11.3136C10.0827 11.1851 10.1868 11.081 10.3154 11.081V10.881C10.0764 10.881 9.88267 11.0746 9.88267 11.3136H10.0827Z" fill="white"/>
</g>
<g id="Shape_7">
<path fill-rule="evenodd" clip-rule="evenodd" d="M5.65796 9.65015C5.65796 9.099 6.10474 8.6521 6.65601 8.6521C7.20728 8.6521 7.65405 9.099 7.65405 9.65015C7.65405 10.2014 7.20728 10.6482 6.65601 10.6482C6.10474 10.6482 5.65796 10.2014 5.65796 9.65015ZM6.32324 9.65015C6.32324 9.83398 6.47217 9.98291 6.65601 9.98291C6.8396 9.98291 6.98853 9.83398 6.98853 9.65015C6.98853 9.46643 6.8396 9.3175 6.65601 9.3175C6.47217 9.3175 6.32324 9.46643 6.32324 9.65015Z" fill="white"/>
<path d="M6.65601 8.5521C6.0495 8.5521 5.55796 9.04378 5.55796 9.65015H5.75796C5.75796 9.15422 6.15997 8.7521 6.65601 8.7521V8.5521ZM7.75405 9.65015C7.75405 9.04378 7.26251 8.5521 6.65601 8.5521V8.7521C7.15204 8.7521 7.55405 9.15422 7.55405 9.65015H7.75405ZM6.65601 10.7482C7.2625 10.7482 7.75405 10.2566 7.75405 9.65015H7.55405C7.55405 10.1462 7.15205 10.5482 6.65601 10.5482V10.7482ZM5.55796 9.65015C5.55796 10.2566 6.04951 10.7482 6.65601 10.7482V10.5482C6.15996 10.5482 5.75796 10.1462 5.75796 9.65015H5.55796ZM6.65601 9.88291C6.5274 9.88291 6.42324 9.77876 6.42324 9.65015H6.22324C6.22324 9.88921 6.41694 10.0829 6.65601 10.0829V9.88291ZM6.88853 9.65015C6.88853 9.7788 6.78432 9.88291 6.65601 9.88291V10.0829C6.89488 10.0829 7.08853 9.88917 7.08853 9.65015H6.88853ZM6.65601 9.4175C6.78435 9.4175 6.88853 9.52164 6.88853 9.65015H7.08853C7.08853 9.41123 6.89485 9.2175 6.65601 9.2175V9.4175ZM6.42324 9.65015C6.42324 9.52168 6.52737 9.4175 6.65601 9.4175V9.2175C6.41696 9.2175 6.22324 9.41118 6.22324 9.65015H6.42324Z" fill="white"/>
</g>
<g id="Shape_8">
<path fill-rule="evenodd" clip-rule="evenodd" d="M8.6521 4.32727C8.6521 3.77612 9.09888 3.32922 9.65015 3.32922C10.2014 3.32922 10.6482 3.77612 10.6482 4.32727C10.6482 4.87842 10.2014 5.32532 9.65015 5.32532C9.09888 5.32532 8.6521 4.87842 8.6521 4.32727ZM9.31738 4.32727C9.31738 4.51111 9.46631 4.66003 9.65015 4.66003C9.83374 4.66003 9.98267 4.51111 9.98267 4.32727C9.98267 4.14355 9.83374 3.99463 9.65015 3.99463C9.46631 3.99463 9.31738 4.14355 9.31738 4.32727Z" fill="white"/>
<path d="M9.65015 3.22922C9.04364 3.22922 8.5521 3.7209 8.5521 4.32727H8.7521C8.7521 3.83134 9.15411 3.42922 9.65015 3.42922V3.22922ZM10.7482 4.32727C10.7482 3.7209 10.2567 3.22922 9.65015 3.22922V3.42922C10.1462 3.42922 10.5482 3.83134 10.5482 4.32727H10.7482ZM9.65015 5.42532C10.2567 5.42532 10.7482 4.93364 10.7482 4.32727H10.5482C10.5482 4.8232 10.1462 5.22532 9.65015 5.22532V5.42532ZM8.5521 4.32727C8.5521 4.93364 9.04364 5.42532 9.65015 5.42532V5.22532C9.15411 5.22532 8.7521 4.8232 8.7521 4.32727H8.5521ZM9.65015 4.56003C9.52154 4.56003 9.41738 4.45588 9.41738 4.32727H9.21738C9.21738 4.56634 9.41108 4.76003 9.65015 4.76003V4.56003ZM9.88267 4.32727C9.88267 4.45593 9.77846 4.56003 9.65015 4.56003V4.76003C9.88902 4.76003 10.0827 4.56629 10.0827 4.32727H9.88267ZM9.65015 4.09463C9.77849 4.09463 9.88267 4.19876 9.88267 4.32727H10.0827C10.0827 4.08835 9.88899 3.89463 9.65015 3.89463V4.09463ZM9.41738 4.32727C9.41738 4.19881 9.52151 4.09463 9.65015 4.09463V3.89463C9.4111 3.89463 9.21738 4.0883 9.21738 4.32727H9.41738Z" fill="white"/>
</g>
<rect id="Rectangle-path" x="7.98682" y="6.32336" width="0.665357" height="0.665357" fill="white" stroke="white" stroke-width="0.2"/>
<rect id="Rectangle-path_2" x="7.98682" y="7.65405" width="0.665357" height="0.665357" fill="white" stroke="white" stroke-width="0.2"/>
<rect id="Rectangle-path_3" x="6.32324" y="13.9751" width="0.665357" height="0.665357" fill="white" stroke="white" stroke-width="0.2"/>
</g>
</g>
</svg>
