<svg width="18" height="18" viewBox="0 0 18 18" fill="none" xmlns="http://www.w3.org/2000/svg">
<g id="AI">
<rect id="Rectangle 4" width="18" height="18" fill="#F4F7FB" fill-opacity="0.01"/>
<g id="artificial-intelligence (3) copy 2">
<path id="Shape" d="M8.98483 1.00042H7.65408C4.89934 1.00354 2.66695 3.23593 2.66383 5.99068V6.54993L1.04168 9.4895C1.01467 9.53875 1.00048 9.59402 1.00042 9.65019C0.99986 9.66909 0.99986 9.68802 1.00042 9.70692C1.01608 10.2425 1.46292 10.6639 1.99847 10.6482C2.24044 10.6617 2.47255 10.7486 2.66383 10.8974V11.979C2.66308 12.0044 2.66308 12.0298 2.66383 12.0553C2.68491 12.7691 3.28069 13.3308 3.99457 13.3097H5.99067C6.00957 13.3103 6.02851 13.3103 6.04741 13.3097C6.58296 13.294 7.00441 12.8472 6.98873 12.3116V10.3155H6.32337V12.3116C6.3253 12.3314 6.3253 12.3513 6.32337 12.3711C6.30693 12.5385 6.158 12.6607 5.99067 12.6443H3.99457C3.96803 12.646 3.9414 12.646 3.91485 12.6443C3.5694 12.6223 3.3072 12.3244 3.32922 11.979V10.7387C3.32925 10.6435 3.28842 10.5527 3.21709 10.4896C2.88343 10.1821 2.45174 10.0027 1.99847 9.98291C1.99701 9.9831 1.99551 9.98325 1.99404 9.98341C1.83364 10.0004 1.68979 9.88417 1.67276 9.72373L3.28795 6.7961C3.31496 6.74686 3.32915 6.69159 3.32922 6.63542V5.99068C3.33196 3.60325 5.26668 1.66853 7.65411 1.66578H8.98087C9.00111 1.66363 9.02154 1.6635 9.04181 1.66541C9.20992 1.68122 9.33336 1.83033 9.31755 1.99844V3.66185H9.98291V1.99847C9.98347 1.97957 9.98347 1.96064 9.98291 1.94174C9.96722 1.40619 9.52037 0.984736 8.98483 1.00042Z" fill="#0C49CD" stroke="#0C49CD" stroke-width="0.2"/>
<path id="Shape_2" d="M14.6405 10.9809H10.9809V11.6462H14.6404C14.6602 11.6443 14.6801 11.6443 14.6999 11.6462C14.8672 11.6627 14.9896 11.8116 14.9731 11.9789V12.6077C14.9252 12.8063 14.6045 13.975 13.6424 13.975C13.4586 13.975 13.3097 14.124 13.3097 14.3077V16.3038H6.98872V15.3058H6.32336V16.6365C6.32336 16.8203 6.47232 16.9692 6.65606 16.9692H13.6424C13.8261 16.9692 13.9751 16.8203 13.9751 16.6365V14.6111C15.0151 14.4145 15.5108 13.3173 15.6319 12.7109C15.6363 12.689 15.6385 12.6667 15.6385 12.6443V11.979C15.6391 11.9601 15.6391 11.9411 15.6385 11.9222C15.6229 11.3867 15.176 10.9652 14.6405 10.9809Z" fill="#0C49CD" stroke="#0C49CD" stroke-width="0.2"/>
<path id="Shape_3" d="M16.6366 4.9926H15.7978C15.7626 4.89376 15.7223 4.79682 15.6771 4.70216L16.2706 4.10867C16.4005 3.97876 16.4005 3.76818 16.2706 3.63824L15.3294 2.69708C15.1995 2.56721 14.9889 2.56721 14.859 2.69708L14.2655 3.29058C14.1708 3.24551 14.0739 3.20534 13.9751 3.17016V2.33111C13.9751 2.14737 13.8261 1.99841 13.6424 1.99841H12.3117C12.1279 1.99841 11.979 2.14737 11.979 2.33111V3.17012C11.7978 3.23409 11.6233 3.31553 11.458 3.41331L11.796 3.98619C11.983 3.87606 12.1846 3.79263 12.3948 3.73833C12.5417 3.7004 12.6443 3.56797 12.6443 3.4163V2.6638H13.3097V3.41633C13.3095 3.56794 13.4118 3.7005 13.5585 3.7387C13.7687 3.793 13.9703 3.87643 14.1574 3.98656C14.2881 4.06382 14.4546 4.04273 14.5619 3.93532L15.0942 3.40301L15.565 3.87275L15.0327 4.40506C14.9251 4.51232 14.9039 4.6788 14.9811 4.80961C15.0914 4.99665 15.1751 5.19823 15.2296 5.40844C15.2675 5.55519 15.3998 5.65777 15.5513 5.65795H16.3039V6.323H15.552C15.4004 6.32318 15.2682 6.42577 15.2303 6.57251C15.1758 6.78273 15.0921 6.9843 14.9818 7.17134C14.9046 7.30215 14.9258 7.4686 15.0333 7.57589L15.5656 8.1082L15.0952 8.57862L14.5629 8.04632C14.4555 7.9389 14.2891 7.91782 14.1583 7.99508C13.9713 8.1052 13.7697 8.18864 13.5595 8.24294C13.4126 8.28086 13.31 8.41329 13.31 8.56496V9.31749H12.6446V8.56531C12.6446 8.41363 12.542 8.28117 12.3951 8.24328C12.1849 8.18898 11.9834 8.10555 11.7963 7.99542C11.6655 7.91816 11.4991 7.93925 11.3917 8.04666L10.8595 8.5789L10.3891 8.10848L10.9214 7.57618C11.0289 7.46892 11.0501 7.30243 10.9729 7.17162C10.8626 6.98458 10.7789 6.78301 10.7244 6.57279C10.6865 6.42605 10.5542 6.32347 10.4027 6.32328H9.3175V6.98864H10.1565C10.1916 7.08747 10.2318 7.18441 10.2769 7.27907L9.68345 7.87257C9.55358 8.00247 9.55358 8.21306 9.68345 8.34299L10.6246 9.28415C10.7545 9.41402 10.9651 9.41402 11.095 9.28415L11.6885 8.69065C11.7832 8.73572 11.8802 8.77589 11.979 8.81108V9.65009C11.979 9.83383 12.1279 9.98279 12.3117 9.98279H13.6424C13.8261 9.98279 13.9751 9.83383 13.9751 9.65009V8.81139C14.0739 8.77621 14.1708 8.736 14.2655 8.69097L14.859 9.28415C14.9889 9.41402 15.1995 9.41402 15.3295 9.28415L16.2706 8.34299C16.4005 8.21309 16.4005 8.0025 16.2706 7.87257L15.6768 7.27907C15.722 7.18441 15.7623 7.08747 15.7975 6.98864H16.6366C16.8203 6.98864 16.9692 6.83968 16.9692 6.65594V5.32526C16.9692 5.14152 16.8203 4.9926 16.6366 4.9926Z" fill="#0C49CD" stroke="#0C49CD" stroke-width="0.2"/>
<g id="Shape_4">
<path fill-rule="evenodd" clip-rule="evenodd" d="M11.6462 5.9906C11.6462 5.25574 12.2421 4.65991 12.9769 4.65991C13.7119 4.65991 14.3077 5.25574 14.3077 5.9906C14.3077 6.72559 13.7119 7.32141 12.9769 7.32141C12.2421 7.32141 11.6462 6.72559 11.6462 5.9906ZM12.3116 5.99072C12.3116 6.35815 12.6095 6.65601 12.9771 6.65601C13.3445 6.65601 13.6423 6.35815 13.6423 5.99072C13.6423 5.62317 13.3445 5.32532 12.9771 5.32532C12.6095 5.32532 12.3116 5.62317 12.3116 5.99072Z" fill="#0C49CD"/>
<path d="M12.9769 4.55991C12.1868 4.55991 11.5462 5.20051 11.5462 5.9906H11.7462C11.7462 5.31097 12.2973 4.75991 12.9769 4.75991V4.55991ZM14.4077 5.9906C14.4077 5.2005 13.7671 4.55991 12.9769 4.55991V4.75991C13.6567 4.75991 14.2077 5.31097 14.2077 5.9906H14.4077ZM12.9769 7.42141C13.7671 7.42141 14.4077 6.78081 14.4077 5.9906H14.2077C14.2077 6.67036 13.6567 7.22141 12.9769 7.22141V7.42141ZM11.5462 5.9906C11.5462 6.78081 12.1868 7.42141 12.9769 7.42141V7.22141C12.2973 7.22141 11.7462 6.67036 11.7462 5.9906H11.5462ZM12.9771 6.55601C12.6647 6.55601 12.4116 6.30291 12.4116 5.99072H12.2116C12.2116 6.41339 12.5543 6.75601 12.9771 6.75601V6.55601ZM13.5423 5.99072C13.5423 6.30293 13.2893 6.55601 12.9771 6.55601V6.75601C13.3997 6.75601 13.7423 6.41338 13.7423 5.99072H13.5423ZM12.9771 5.42532C13.2892 5.42532 13.5423 5.67839 13.5423 5.99072H13.7423C13.7423 5.56795 13.3997 5.22532 12.9771 5.22532V5.42532ZM12.4116 5.99072C12.4116 5.6784 12.6647 5.42532 12.9771 5.42532V5.22532C12.5543 5.22532 12.2116 5.56794 12.2116 5.99072H12.4116Z" fill="#0C49CD"/>
</g>
<path id="Shape_5" d="M5.9907 6.32336V6.65606H4.99265V6.32336H4.32729V6.65606C4.3271 6.66526 4.3271 6.67443 4.32729 6.68363C4.3349 7.04349 4.63279 7.32903 4.99265 7.32141H5.9907C5.9999 7.3216 6.00907 7.3216 6.01827 7.32141C6.37813 7.3138 6.66366 7.01592 6.65605 6.65606V6.32336H5.9907Z" fill="#0C49CD" stroke="#0C49CD" stroke-width="0.2"/>
<g id="Shape_6">
<path fill-rule="evenodd" clip-rule="evenodd" d="M9.3175 11.3136C9.3175 10.7625 9.7644 10.3156 10.3156 10.3156C10.8667 10.3156 11.3136 10.7625 11.3136 11.3136C11.3136 11.8647 10.8667 12.3116 10.3156 12.3116C9.7644 12.3116 9.3175 11.8647 9.3175 11.3136ZM9.98291 11.3136C9.98291 11.4974 10.1318 11.6464 10.3156 11.6464C10.4994 11.6464 10.6483 11.4974 10.6483 11.3136C10.6483 11.1299 10.4994 10.981 10.3156 10.981C10.1318 10.981 9.98291 11.1299 9.98291 11.3136Z" fill="#0C49CD"/>
<path d="M10.3156 10.2156C9.70918 10.2156 9.2175 10.7072 9.2175 11.3136H9.4175C9.4175 10.8177 9.81963 10.4156 10.3156 10.4156V10.2156ZM11.4136 11.3136C11.4136 10.7072 10.9219 10.2156 10.3156 10.2156V10.4156C10.8115 10.4156 11.2136 10.8177 11.2136 11.3136H11.4136ZM10.3156 12.4116C10.9219 12.4116 11.4136 11.92 11.4136 11.3136H11.2136C11.2136 11.8095 10.8115 12.2116 10.3156 12.2116V12.4116ZM9.2175 11.3136C9.2175 11.92 9.70918 12.4116 10.3156 12.4116V12.2116C9.81963 12.2116 9.4175 11.8095 9.4175 11.3136H9.2175ZM10.3156 11.5464C10.1871 11.5464 10.0829 11.4422 10.0829 11.3136H9.88291C9.88291 11.5526 10.0766 11.7464 10.3156 11.7464V11.5464ZM10.5483 11.3136C10.5483 11.4422 10.4442 11.5464 10.3156 11.5464V11.7464C10.5546 11.7464 10.7483 11.5527 10.7483 11.3136H10.5483ZM10.3156 11.081C10.4442 11.081 10.5483 11.1851 10.5483 11.3136H10.7483C10.7483 11.0746 10.5546 10.881 10.3156 10.881V11.081ZM10.0829 11.3136C10.0829 11.1851 10.1871 11.081 10.3156 11.081V10.881C10.0766 10.881 9.88291 11.0747 9.88291 11.3136H10.0829Z" fill="#0C49CD"/>
</g>
<g id="Shape_7">
<path fill-rule="evenodd" clip-rule="evenodd" d="M5.65796 9.65015C5.65796 9.099 6.10486 8.6521 6.65601 8.6521C7.20728 8.6521 7.65405 9.099 7.65405 9.65015C7.65405 10.2014 7.20728 10.6482 6.65601 10.6482C6.10486 10.6482 5.65796 10.2014 5.65796 9.65015ZM6.32336 9.65015C6.32336 9.83398 6.47229 9.98291 6.65601 9.98291C6.83984 9.98291 6.98877 9.83398 6.98877 9.65015C6.98877 9.46643 6.83984 9.3175 6.65601 9.3175C6.47229 9.3175 6.32336 9.46643 6.32336 9.65015Z" fill="#0C49CD"/>
<path d="M6.65601 8.5521C6.04963 8.5521 5.55796 9.04377 5.55796 9.65015H5.75796C5.75796 9.15423 6.16009 8.7521 6.65601 8.7521V8.5521ZM7.75405 9.65015C7.75405 9.04378 7.26251 8.5521 6.65601 8.5521V8.7521C7.15204 8.7521 7.55405 9.15422 7.55405 9.65015H7.75405ZM6.65601 10.7482C7.2625 10.7482 7.75405 10.2566 7.75405 9.65015H7.55405C7.55405 10.1462 7.15205 10.5482 6.65601 10.5482V10.7482ZM5.55796 9.65015C5.55796 10.2567 6.04964 10.7482 6.65601 10.7482V10.5482C6.16008 10.5482 5.75796 10.1462 5.75796 9.65015H5.55796ZM6.65601 9.88291C6.52754 9.88291 6.42336 9.77878 6.42336 9.65015H6.22336C6.22336 9.88919 6.41704 10.0829 6.65601 10.0829V9.88291ZM6.88877 9.65015C6.88877 9.77876 6.78462 9.88291 6.65601 9.88291V10.0829C6.89507 10.0829 7.08877 9.88921 7.08877 9.65015H6.88877ZM6.65601 9.4175C6.78464 9.4175 6.88877 9.52168 6.88877 9.65015H7.08877C7.08877 9.41118 6.89505 9.2175 6.65601 9.2175V9.4175ZM6.42336 9.65015C6.42336 9.52166 6.52752 9.4175 6.65601 9.4175V9.2175C6.41706 9.2175 6.22336 9.4112 6.22336 9.65015H6.42336Z" fill="#0C49CD"/>
</g>
<g id="Shape_8">
<path fill-rule="evenodd" clip-rule="evenodd" d="M8.6521 4.32727C8.6521 3.77612 9.099 3.32922 9.65015 3.32922C10.2014 3.32922 10.6482 3.77612 10.6482 4.32727C10.6482 4.87842 10.2014 5.32532 9.65015 5.32532C9.099 5.32532 8.6521 4.87842 8.6521 4.32727ZM9.3175 4.32727C9.3175 4.51111 9.46643 4.66003 9.65015 4.66003C9.83398 4.66003 9.98291 4.51111 9.98291 4.32727C9.98291 4.14355 9.83398 3.99463 9.65015 3.99463C9.46643 3.99463 9.3175 4.14355 9.3175 4.32727Z" fill="#0C49CD"/>
<path d="M9.65015 3.22922C9.04377 3.22922 8.5521 3.72089 8.5521 4.32727H8.7521C8.7521 3.83135 9.15423 3.42922 9.65015 3.42922V3.22922ZM10.7482 4.32727C10.7482 3.7209 10.2567 3.22922 9.65015 3.22922V3.42922C10.1462 3.42922 10.5482 3.83134 10.5482 4.32727H10.7482ZM9.65015 5.42532C10.2567 5.42532 10.7482 4.93364 10.7482 4.32727H10.5482C10.5482 4.8232 10.1462 5.22532 9.65015 5.22532V5.42532ZM8.5521 4.32727C8.5521 4.93365 9.04377 5.42532 9.65015 5.42532V5.22532C9.15423 5.22532 8.7521 4.82319 8.7521 4.32727H8.5521ZM9.65015 4.56003C9.52168 4.56003 9.4175 4.4559 9.4175 4.32727H9.2175C9.2175 4.56631 9.41118 4.76003 9.65015 4.76003V4.56003ZM9.88291 4.32727C9.88291 4.45588 9.77876 4.56003 9.65015 4.56003V4.76003C9.88921 4.76003 10.0829 4.56634 10.0829 4.32727H9.88291ZM9.65015 4.09463C9.77878 4.09463 9.88291 4.19881 9.88291 4.32727H10.0829C10.0829 4.0883 9.88919 3.89463 9.65015 3.89463V4.09463ZM9.4175 4.32727C9.4175 4.19878 9.52166 4.09463 9.65015 4.09463V3.89463C9.4112 3.89463 9.2175 4.08833 9.2175 4.32727H9.4175Z" fill="#0C49CD"/>
</g>
<rect id="Rectangle-path" x="7.98682" y="6.32336" width="0.665357" height="0.665357" fill="#0C49CD" stroke="#0C49CD" stroke-width="0.2"/>
<rect id="Rectangle-path_2" x="7.98682" y="7.65405" width="0.665357" height="0.665357" fill="#0C49CD" stroke="#0C49CD" stroke-width="0.2"/>
<rect id="Rectangle-path_3" x="6.32336" y="13.9751" width="0.665357" height="0.665357" fill="#0C49CD" stroke="#0C49CD" stroke-width="0.2"/>
</g>
</g>
</svg>
