<svg width="18" height="18" viewBox="0 0 18 18" fill="none" xmlns="http://www.w3.org/2000/svg">
<g id="Analytics">
<rect id="Rectangle 4 Copy" width="18" height="18" fill="#F4F7FB" fill-opacity="0.01"/>
<g id="report copy 3">
<g id="Shape">
<path fill-rule="evenodd" clip-rule="evenodd" d="M16.6666 8.65173H9.49329C9.45508 8.65173 9.41992 8.63831 9.39246 8.61597C9.35632 8.58667 9.33325 8.54211 9.33325 8.49207V1.33264C9.33325 1.14893 9.18408 1 8.99988 1C6.78235 1.00366 4.66516 1.92236 3.1499 3.53833C0.13623 6.76306 0.312378 11.8154 3.54321 14.8232C4.88159 16.0692 6.60767 16.8195 8.43323 16.9489C8.62439 16.9622 8.81323 16.9689 8.99988 16.9689C11.0245 16.9749 12.9747 16.207 14.45 14.823C16.0715 13.312 16.9945 11.1986 16.9999 8.9845C16.9999 8.80066 16.8507 8.65173 16.6666 8.65173ZM13.9999 14.3374C12.5146 15.7323 10.5103 16.4398 8.47656 16.2869C4.43347 16.0491 1.34912 12.5852 1.58728 8.55005C1.81018 4.77429 4.87891 1.78992 8.66663 1.66541V8.49207C8.66138 8.54517 8.66138 8.59863 8.66663 8.65173H7.66663V9.31714H9.22656L14.8599 13.3759C14.6023 13.7212 14.3146 14.0428 13.9999 14.3374ZM15.23 12.8269H15.2333C15.8923 11.769 16.2709 10.5613 16.3333 9.31714H10.3633L15.23 12.8269Z" fill="#0C49CD"/>
<path d="M9.39246 8.61597L9.45555 8.53839L9.45544 8.53829L9.39246 8.61597ZM8.99988 1V0.9L8.99971 0.9L8.99988 1ZM3.1499 3.53833L3.07696 3.46993L3.07684 3.47005L3.1499 3.53833ZM3.54321 14.8232L3.47507 14.8964L3.47507 14.8964L3.54321 14.8232ZM8.43323 16.9489L8.42616 17.0486L8.42628 17.0486L8.43323 16.9489ZM8.99988 16.9689L9.00017 16.8689H8.99988V16.9689ZM14.45 14.823L14.3818 14.7498L14.3815 14.7501L14.45 14.823ZM16.9999 8.9845L17.0999 8.98474V8.9845H16.9999ZM8.47656 16.2869L8.48406 16.1871L8.48243 16.187L8.47656 16.2869ZM13.9999 14.3374L13.9315 14.2644L13.9314 14.2645L13.9999 14.3374ZM1.58728 8.55005L1.48745 8.54416L1.48745 8.54416L1.58728 8.55005ZM8.66663 1.66541H8.76663V1.56206L8.66334 1.56546L8.66663 1.66541ZM8.66663 8.49207L8.76663 8.50195V8.49207H8.66663ZM8.66663 8.65173V8.75173H8.777L8.76614 8.6419L8.66663 8.65173ZM7.66663 8.65173V8.55173H7.56663V8.65173H7.66663ZM7.66663 9.31714H7.56663V9.41714H7.66663V9.31714ZM9.22656 9.31714L9.28502 9.236L9.25883 9.21714H9.22656V9.31714ZM14.8599 13.3759L14.94 13.4356L15.0008 13.3541L14.9183 13.2947L14.8599 13.3759ZM15.2333 12.8269V12.9269H15.2888L15.3182 12.8798L15.2333 12.8269ZM15.23 12.8269L15.1715 12.908L15.1977 12.9269H15.23V12.8269ZM16.3333 9.31714L16.4331 9.32215L16.4384 9.21714H16.3333V9.31714ZM10.3633 9.31714V9.21714H10.0537L10.3048 9.39825L10.3633 9.31714ZM9.49329 8.75173H16.6666V8.55173H9.49329V8.75173ZM9.32936 8.69355C9.37402 8.72987 9.43129 8.75173 9.49329 8.75173V8.55173C9.47886 8.55173 9.46582 8.54674 9.45555 8.53839L9.32936 8.69355ZM9.23325 8.49207C9.23325 8.57366 9.27104 8.64626 9.32948 8.69364L9.45544 8.53829C9.44161 8.52708 9.43325 8.51056 9.43325 8.49207H9.23325ZM9.23325 1.33264V8.49207H9.43325V1.33264H9.23325ZM8.99988 1.1C9.12904 1.1 9.23325 1.20435 9.23325 1.33264H9.43325C9.43325 1.09351 9.23912 0.9 8.99988 0.9V1.1ZM3.22285 3.60673C4.71922 2.01091 6.81006 1.10362 9.00004 1.1L8.99971 0.9C6.75463 0.903708 4.6111 1.83382 3.07696 3.46993L3.22285 3.60673ZM3.61135 14.7501C0.420986 11.7799 0.247061 6.79093 3.22296 3.60661L3.07684 3.47005C0.0254001 6.7352 0.20377 11.8509 3.47507 14.8964L3.61135 14.7501ZM8.4403 16.8491C6.6375 16.7213 4.93299 15.9804 3.61135 14.75L3.47507 14.8964C4.83019 16.158 6.57783 16.9176 8.42616 17.0486L8.4403 16.8491ZM8.99988 16.8689C8.81563 16.8689 8.62911 16.8622 8.44017 16.8491L8.42628 17.0486C8.61967 17.0621 8.81083 17.0689 8.99988 17.0689V16.8689ZM14.3815 14.7501C12.9249 16.1166 10.9993 16.8748 9.00017 16.8689L8.99958 17.0689C11.0497 17.0749 13.0245 16.2974 14.5184 14.8959L14.3815 14.7501ZM16.8999 8.98425C16.8946 11.1707 15.9831 13.2577 14.3818 14.7498L14.5181 14.8962C16.1599 13.3663 17.0944 11.2265 17.0999 8.98474L16.8999 8.98425ZM16.6666 8.75173C16.7956 8.75173 16.8999 8.85603 16.8999 8.9845H17.0999C17.0999 8.74529 16.9058 8.55173 16.6666 8.55173V8.75173ZM8.46906 16.3866C10.5307 16.5416 12.5626 15.8244 14.0683 14.4103L13.9314 14.2645C12.4666 15.6402 10.4898 16.338 8.48406 16.1871L8.46906 16.3866ZM1.48745 8.54416C1.24603 12.6346 4.37264 16.1457 8.47069 16.3867L8.48243 16.187C4.4943 15.9525 1.45221 12.5358 1.68711 8.55594L1.48745 8.54416ZM8.66334 1.56546C4.82413 1.69166 1.71341 4.71665 1.48745 8.54416L1.68711 8.55594C1.90695 4.83193 4.93368 1.88817 8.66991 1.76535L8.66334 1.56546ZM8.76663 8.49207V1.66541H8.56663V8.49207H8.76663ZM8.76614 8.6419C8.76154 8.59534 8.76154 8.54846 8.76614 8.5019L8.56711 8.48223C8.56122 8.54187 8.56122 8.60193 8.56711 8.66157L8.76614 8.6419ZM7.66663 8.75173H8.66663V8.55173H7.66663V8.75173ZM7.76663 9.31714V8.65173H7.56663V9.31714H7.76663ZM9.22656 9.21714H7.66663V9.41714H9.22656V9.21714ZM14.9183 13.2947L9.28502 9.236L9.16811 9.39827L14.8014 13.457L14.9183 13.2947ZM14.0682 14.4104C14.3872 14.1118 14.6789 13.7857 14.94 13.4356L14.7797 13.3161C14.5257 13.6566 14.2419 13.9739 13.9315 14.2644L14.0682 14.4104ZM15.2333 12.7269H15.23V12.9269H15.2333V12.7269ZM16.2334 9.31213C16.1719 10.5393 15.7985 11.7306 15.1484 12.774L15.3182 12.8798C15.9862 11.8075 16.3699 10.5833 16.4331 9.32215L16.2334 9.31213ZM10.3633 9.41714H16.3333V9.21714H10.3633V9.41714ZM15.2885 12.7458L10.4218 9.23603L10.3048 9.39825L15.1715 12.908L15.2885 12.7458Z" fill="#0C49CD"/>
</g>
<g id="Shape_2">
<path fill-rule="evenodd" clip-rule="evenodd" d="M16.6666 7.65369H11.1266C10.6892 7.65186 10.3351 7.29846 10.3333 6.86194V1.33264C10.3333 1.14893 10.4825 1 10.6666 1C14.1644 1 16.9999 3.82996 17 7.32092C17 7.50476 16.8507 7.65369 16.6666 7.65369ZM16.3333 6.9884C16.1686 4.11938 13.8744 1.82971 10.9999 1.66541V6.86194C11.0017 6.93103 11.0574 6.98657 11.1266 6.9884H16.3333Z" fill="#0C49CD"/>
<path d="M11.1266 7.65369L11.1262 7.75369H11.1266V7.65369ZM10.3333 6.86194H10.2333L10.2333 6.86236L10.3333 6.86194ZM17 7.32092H17.1V7.32092L17 7.32092ZM10.9999 1.66541L11.0056 1.56557L10.8999 1.55953V1.66541H10.9999ZM16.3333 6.9884V7.0884H16.4392L16.4331 6.98267L16.3333 6.9884ZM10.9999 6.86194H10.8998L10.8999 6.86459L10.9999 6.86194ZM11.1266 6.9884L11.1239 7.0884H11.1266V6.9884ZM11.1266 7.75369H16.6666V7.55369H11.1266V7.75369ZM10.2333 6.86236C10.2353 7.35397 10.6341 7.75163 11.1262 7.75369L11.127 7.55369C10.7443 7.55209 10.4349 7.24295 10.4333 6.86152L10.2333 6.86236ZM10.2333 1.33264V6.86194H10.4333V1.33264H10.2333ZM10.6666 0.9C10.4275 0.9 10.2333 1.09348 10.2333 1.33264H10.4333C10.4333 1.20437 10.5376 1.1 10.6666 1.1V0.9ZM17.1 7.32092C17.0999 3.77454 14.2195 0.9 10.6666 0.9V1.1C14.1094 1.1 16.8999 3.88537 16.9 7.32093L17.1 7.32092ZM16.6666 7.75369C16.9057 7.75369 17.1 7.56018 17.1 7.32092H16.9C16.9 7.44934 16.7957 7.55369 16.6666 7.55369V7.75369ZM10.9942 1.76524C13.8181 1.92666 16.0717 4.176 16.2334 6.99413L16.4331 6.98267C16.2655 4.06277 13.9307 1.73277 11.0056 1.56557L10.9942 1.76524ZM11.0999 6.86194V1.66541H10.8999V6.86194H11.0999ZM11.1292 6.88844C11.113 6.88801 11.1003 6.87505 11.0998 6.85929L10.8999 6.86459C10.9032 6.98701 11.0018 7.08514 11.1239 7.08837L11.1292 6.88844ZM16.3333 6.8884H11.1266V7.0884H16.3333V6.8884Z" fill="#0C49CD"/>
</g>
<rect id="Rectangle-path" x="6.33325" y="8.65173" width="0.666656" height="0.665357" fill="#0C49CD" stroke="#0C49CD" stroke-width="0.2"/>
</g>
</g>
</svg>
