<svg width="18" height="18" viewBox="0 0 18 18" fill="none" xmlns="http://www.w3.org/2000/svg">
<g id="Analytics White">
<rect id="Rectangle 4 Copy" width="18" height="18" fill="#F4F7FB" fill-opacity="0.01"/>
<g id="report copy 3">
<g id="Shape">
<path fill-rule="evenodd" clip-rule="evenodd" d="M16.6665 8.65173H9.49316C9.40479 8.65173 9.33325 8.5802 9.33325 8.49207V1.33264C9.33325 1.14893 9.18408 1 9 1C6.78247 1.00366 4.66504 1.92236 3.1499 3.53833C0.13623 6.76306 0.312256 11.8154 3.54321 14.8232C4.88159 16.0692 6.60767 16.8195 8.43335 16.9489C8.62451 16.9622 8.81323 16.9689 9 16.9689C11.0247 16.9749 12.9746 16.207 14.45 14.823C16.0715 13.312 16.9946 11.1986 17 8.9845C17 8.80066 16.8508 8.65173 16.6665 8.65173ZM14 14.3374C12.5149 15.7323 10.5105 16.4398 8.47681 16.2869C4.43359 16.0491 1.34912 12.5852 1.5874 8.55005C1.8103 4.77429 4.87915 1.78992 8.66675 1.66541V8.49207C8.66162 8.54517 8.66162 8.59863 8.66675 8.65173H7.66675V9.31714H9.22681L14.8601 13.3759C14.6025 13.7212 14.3147 14.0428 14 14.3374ZM15.23 12.8269H15.2334C15.8923 11.769 16.271 10.5613 16.3333 9.31714H10.3633L15.23 12.8269Z" fill="white"/>
<path d="M9 1V0.9L8.99984 0.9L9 1ZM3.1499 3.53833L3.07695 3.46993L3.07684 3.47005L3.1499 3.53833ZM3.54321 14.8232L3.61135 14.75H3.61135L3.54321 14.8232ZM8.43335 16.9489L8.42628 17.0486L8.42641 17.0486L8.43335 16.9489ZM9 16.9689L9.0003 16.8689H9V16.9689ZM14.45 14.823L14.3818 14.7498L14.3815 14.7501L14.45 14.823ZM17 8.9845L17.1 8.98474V8.9845H17ZM8.47681 16.2869L8.48431 16.1871L8.48268 16.187L8.47681 16.2869ZM14 14.3374L13.9317 14.2644L13.9315 14.2645L14 14.3374ZM1.5874 8.55005L1.68723 8.55594L1.68723 8.55594L1.5874 8.55005ZM8.66675 1.66541H8.76675V1.56206L8.66346 1.56546L8.66675 1.66541ZM8.66675 8.49207L8.76675 8.50172V8.49207H8.66675ZM8.66675 8.65173V8.75173H8.77687L8.76628 8.64212L8.66675 8.65173ZM7.66675 8.65173V8.55173H7.56675V8.65173H7.66675ZM7.66675 9.31714H7.56675V9.41714H7.66675V9.31714ZM9.22681 9.31714L9.28526 9.236L9.25908 9.21714H9.22681V9.31714ZM14.8601 13.3759L14.9403 13.4356L15.001 13.3541L14.9186 13.2947L14.8601 13.3759ZM15.2334 12.8269V12.9269H15.2889L15.3183 12.8798L15.2334 12.8269ZM15.23 12.8269L15.1715 12.908L15.1977 12.9269H15.23V12.8269ZM16.3333 9.31714L16.4331 9.32214L16.4384 9.21714H16.3333V9.31714ZM10.3633 9.31714V9.21714H10.0537L10.3048 9.39825L10.3633 9.31714ZM9.49316 8.75173H16.6665V8.55173H9.49316V8.75173ZM9.23325 8.49207C9.23325 8.63553 9.34966 8.75173 9.49316 8.75173V8.55173C9.45991 8.55173 9.43325 8.52487 9.43325 8.49207H9.23325ZM9.23325 1.33264V8.49207H9.43325V1.33264H9.23325ZM9 1.1C9.12902 1.1 9.23325 1.20432 9.23325 1.33264H9.43325C9.43325 1.09353 9.23914 0.9 9 0.9V1.1ZM3.22285 3.60673C4.7191 2.01091 6.81018 1.10362 9.00016 1.1L8.99984 0.9C6.75476 0.903708 4.61098 1.83382 3.07695 3.46993L3.22285 3.60673ZM3.61135 14.75C0.420866 11.7799 0.247059 6.79093 3.22296 3.60661L3.07684 3.47005C0.0254018 6.73519 0.203646 11.8509 3.47508 14.8964L3.61135 14.75ZM8.44042 16.8491C6.6375 16.7213 4.93299 15.9804 3.61135 14.75L3.47507 14.8964C4.8302 16.158 6.57783 16.9176 8.42628 17.0486L8.44042 16.8491ZM9 16.8689C8.81563 16.8689 8.62923 16.8622 8.44029 16.8491L8.42641 17.0486C8.61979 17.0621 8.81083 17.0689 9 17.0689V16.8689ZM14.3815 14.7501C12.9248 16.1166 10.9995 16.8748 9.0003 16.8689L8.9997 17.0689C11.0499 17.0749 13.0244 16.2974 14.5184 14.8959L14.3815 14.7501ZM16.9 8.98425C16.8947 11.1707 15.9831 13.2577 14.3818 14.7498L14.5181 14.8962C16.1599 13.3663 17.0946 11.2265 17.1 8.98474L16.9 8.98425ZM16.6665 8.75173C16.7958 8.75173 16.9 8.85608 16.9 8.9845H17.1C17.1 8.74524 16.9059 8.55173 16.6665 8.55173V8.75173ZM8.46931 16.3866C10.5309 16.5416 12.5629 15.8244 14.0685 14.4103L13.9315 14.2645C12.4669 15.6402 10.4901 16.338 8.48431 16.1871L8.46931 16.3866ZM1.48758 8.54415C1.24603 12.6346 4.37277 16.1457 8.47094 16.3867L8.48268 16.187C4.49442 15.9525 1.45221 12.5358 1.68723 8.55594L1.48758 8.54415ZM8.66346 1.56546C4.82438 1.69166 1.71353 4.71665 1.48758 8.54416L1.68723 8.55594C1.90707 4.83193 4.93392 1.88817 8.67003 1.76535L8.66346 1.56546ZM8.76675 8.49207V1.66541H8.56675V8.49207H8.76675ZM8.76628 8.64212C8.76178 8.59541 8.76178 8.54838 8.76628 8.50168L8.56721 8.48245C8.56147 8.54195 8.56147 8.60185 8.56721 8.66134L8.76628 8.64212ZM7.66675 8.75173H8.66675V8.55173H7.66675V8.75173ZM7.76675 9.31714V8.65173H7.56675V9.31714H7.76675ZM9.22681 9.21714H7.66675V9.41714H9.22681V9.21714ZM14.9186 13.2947L9.28526 9.236L9.16835 9.39827L14.8017 13.457L14.9186 13.2947ZM14.0683 14.4104C14.3873 14.1118 14.6791 13.7857 14.9403 13.4356L14.7799 13.3161C14.5259 13.6566 14.2421 13.9739 13.9317 14.2644L14.0683 14.4104ZM15.2334 12.7269H15.23V12.9269H15.2334V12.7269ZM16.2334 9.31214C16.172 10.5393 15.7985 11.7306 15.1485 12.774L15.3183 12.8798C15.9862 11.8075 16.37 10.5833 16.4331 9.32214L16.2334 9.31214ZM10.3633 9.41714H16.3333V9.21714H10.3633V9.41714ZM15.2885 12.7458L10.4218 9.23603L10.3048 9.39825L15.1715 12.908L15.2885 12.7458Z" fill="white"/>
</g>
<g id="Shape_2">
<path fill-rule="evenodd" clip-rule="evenodd" d="M16.6665 7.65369H11.1267C10.6892 7.65186 10.3352 7.29846 10.3333 6.86194V1.33264C10.3333 1.14893 10.4824 1 10.6665 1C14.1643 1 17 3.82996 17 7.32092C17 7.50476 16.8506 7.65369 16.6665 7.65369ZM16.3333 6.9884C16.1687 4.11938 13.8745 1.82971 11 1.66541V6.86194C11.0017 6.93103 11.0574 6.98657 11.1267 6.9884H16.3333Z" fill="white"/>
<path d="M11.1267 7.65369L11.1263 7.75369H11.1267V7.65369ZM10.3333 6.86194H10.2333L10.2333 6.86239L10.3333 6.86194ZM11 1.66541L11.0057 1.56557L10.9 1.55953V1.66541H11ZM16.3333 6.9884V7.0884H16.4392L16.4331 6.98268L16.3333 6.9884ZM11 6.86194H10.9L10.9 6.86441L11 6.86194ZM11.1267 6.9884L11.1241 7.0884H11.1267V6.9884ZM11.1267 7.75369H16.6665V7.55369H11.1267V7.75369ZM10.2333 6.86239C10.2355 7.35396 10.6341 7.75163 11.1263 7.75369L11.1271 7.55369C10.7444 7.55209 10.435 7.24296 10.4333 6.86149L10.2333 6.86239ZM10.2333 1.33264V6.86194H10.4333V1.33264H10.2333ZM10.6665 0.9C10.4274 0.9 10.2333 1.09353 10.2333 1.33264H10.4333C10.4333 1.20432 10.5375 1.1 10.6665 1.1V0.9ZM17.1 7.32092C17.1 3.77454 14.2193 0.9 10.6665 0.9V1.1C14.1093 1.1 16.9 3.88537 16.9 7.32092H17.1ZM16.6665 7.75369C16.9056 7.75369 17.1 7.56023 17.1 7.32092H16.9C16.9 7.44929 16.7956 7.55369 16.6665 7.55369V7.75369ZM10.9943 1.76524C13.8182 1.92666 16.0718 4.176 16.2334 6.99413L16.4331 6.98268C16.2656 4.06277 13.9308 1.73277 11.0057 1.56557L10.9943 1.76524ZM11.1 6.86194V1.66541H10.9V6.86194H11.1ZM11.1293 6.88844C11.1129 6.888 11.1004 6.87499 11.1 6.85947L10.9 6.86441C10.9031 6.98707 11.0018 7.08514 11.1241 7.08837L11.1293 6.88844ZM16.3333 6.8884H11.1267V7.0884H16.3333V6.8884Z" fill="white"/>
</g>
<rect id="Rectangle-path" x="6.33325" y="8.65173" width="0.666656" height="0.665357" fill="white" stroke="white" stroke-width="0.2"/>
</g>
</g>
</svg>
