<svg width="18" height="18" viewBox="0 0 18 18" fill="none" xmlns="http://www.w3.org/2000/svg">
<g id="AR White">
<rect id="Rectangle 4 Copy" width="18" height="18" fill="#F4F7FB" fill-opacity="0.01"/>
<g id="glasses copy 3">
<g id="Shape">
<path fill-rule="evenodd" clip-rule="evenodd" d="M2.7373 10.1479H1.28564C1.12793 10.1479 1 10.0201 1 9.8623V7.57654C1 7.41882 1.12793 7.29089 1.28564 7.29089H2.71533V7.00513V6.99976C2.71631 6.96667 2.72266 6.93396 2.73486 6.9032C2.73804 6.8949 2.74219 6.88806 2.74609 6.88L2.74854 6.87415L2.75391 6.86218L2.76221 6.84656L3.90527 5.13232C3.93652 5.08508 3.98071 5.04907 4.03149 5.02771C4.06616 5.01306 4.104 5.00513 4.14282 5.00513H7.28564C7.34766 5.00513 7.40771 5.02515 7.45703 5.06226L8.52368 5.8623H9.47949L10.5474 5.0946C10.561 5.08484 10.5752 5.07629 10.5901 5.06921C10.606 5.06152 10.6226 5.0553 10.6396 5.05066C10.6509 5.04761 10.6624 5.04529 10.6738 5.0437C10.686 5.04199 10.6985 5.04102 10.7109 5.04089L13.8538 5.00513C13.9512 5.00195 14.0432 5.05017 14.0959 5.13232L15.2388 6.84656C15.2451 6.85742 15.2505 6.86853 15.2551 6.88L15.2573 6.8844C15.2605 6.89062 15.2637 6.89673 15.2661 6.9032C15.2783 6.93396 15.2852 6.96667 15.2856 6.99976V7.00513V7.29089H16.7144C16.8721 7.29089 17 7.41882 17 7.57654V9.8623C17 9.90039 16.9924 9.93677 16.979 9.96997C16.9626 10.0101 16.9375 10.0457 16.906 10.0742C16.8552 10.12 16.7881 10.1479 16.7144 10.1479H15.2627C15.1211 11.1311 14.2791 11.8611 13.2856 11.8623H10.8857C10.2021 11.8627 9.55713 11.546 9.1394 11.0051H8.83252L8.62305 11.2148C8.20947 11.6307 7.64648 11.8638 7.05957 11.8623H4.71436C3.72095 11.8611 2.87891 11.1311 2.7373 10.1479ZM10.8857 11.2909H13.2856C14.0742 11.2899 14.7134 10.6509 14.7144 9.8623V7.29089H14.1426V9.57654C14.1426 10.2078 13.6311 10.7195 13 10.7195H10.9019C10.5229 10.7205 10.1589 10.5699 9.8916 10.3011L9.45312 9.8623H8.54688L8.10815 10.3011C7.84082 10.5699 7.47705 10.7205 7.0979 10.7195H5C4.36865 10.7195 3.85693 10.2078 3.85693 9.57654V7.29089H3.28564V9.8623C3.28662 10.6509 3.92554 11.2899 4.71436 11.2909H7.05957C7.33057 11.2916 7.59473 11.2247 7.82959 11.0997C7.97192 11.024 8.10327 10.9271 8.21899 10.8109L8.51221 10.5175C8.56592 10.4639 8.63843 10.4337 8.71411 10.4337H9.28564C9.38062 10.4342 9.46924 10.4818 9.52197 10.5609C9.8252 11.0173 10.3374 11.2915 10.8857 11.2909ZM4.42871 7.29089H13.5715V9.57654C13.5715 9.89221 13.3157 10.1479 13 10.1479H10.9021C10.6748 10.1487 10.4563 10.0583 10.2959 9.89722L9.77344 9.37463C9.74829 9.34937 9.71875 9.32935 9.68677 9.31519C9.65088 9.29932 9.61182 9.29089 9.57153 9.29089H8.42871C8.35278 9.29089 8.28027 9.32104 8.22656 9.37463L7.70459 9.89722C7.60205 10 7.47607 10.074 7.33936 10.1139C7.26172 10.1366 7.18042 10.1483 7.09814 10.1481H5C4.68457 10.1481 4.42871 9.89221 4.42871 9.57654V7.29089ZM16.4285 9.57654V7.8623H15.2856V9.57654H16.4285ZM4.29565 5.57654H7.19043L8.25708 6.37659C8.30664 6.4137 8.3667 6.43372 8.42871 6.43372H9.57129C9.63135 6.43372 9.6897 6.41492 9.73828 6.38L10.8076 5.61145L13.7056 5.57825L14.4663 6.71948H3.53369L4.29565 5.57654ZM2.71411 7.8623H1.57129V9.57654H2.71411V7.8623Z" fill="white"/>
<path d="M2.7373 10.1479L2.83628 10.1337L2.82393 10.0479H2.7373V10.1479ZM2.71533 7.29089V7.39089H2.81533V7.29089H2.71533ZM2.71533 6.99976L2.61533 6.9968V6.99976H2.71533ZM2.73486 6.9032L2.82782 6.94009L2.82827 6.93891L2.73486 6.9032ZM2.74609 6.88L2.83622 6.9237L2.8384 6.91847L2.74609 6.88ZM2.74854 6.87415L2.65727 6.83317L2.65623 6.83568L2.74854 6.87415ZM2.75391 6.86218L2.6654 6.81516L2.66268 6.82122L2.75391 6.86218ZM2.76221 6.84656L2.67859 6.7908L2.6739 6.79964L2.76221 6.84656ZM3.90527 5.13232L3.98847 5.1878L3.98868 5.1875L3.90527 5.13232ZM4.03149 5.02771L4.07027 5.11989L4.07042 5.11982L4.03149 5.02771ZM7.45703 5.06226L7.3969 5.14216L7.39703 5.14225L7.45703 5.06226ZM8.52368 5.8623L8.46368 5.9423L8.49035 5.9623H8.52368V5.8623ZM9.47949 5.8623V5.9623H9.51171L9.53786 5.9435L9.47949 5.8623ZM10.5474 5.0946L10.4892 5.01323L10.489 5.01341L10.5474 5.0946ZM10.5901 5.06921L10.633 5.15953L10.6337 5.1592L10.5901 5.06921ZM10.6396 5.05066L10.6658 5.14717L10.6659 5.14716L10.6396 5.05066ZM10.6738 5.0437L10.6875 5.14276L10.6877 5.14274L10.6738 5.0437ZM10.7109 5.04089L10.7119 5.14089L10.7121 5.14089L10.7109 5.04089ZM13.8538 5.00513L13.8549 5.10514L13.857 5.10507L13.8538 5.00513ZM14.0959 5.13232L14.0118 5.18635L14.0127 5.18779L14.0959 5.13232ZM15.2388 6.84656L15.3253 6.79602L15.322 6.79109L15.2388 6.84656ZM15.2551 6.88L15.1621 6.9176L15.1657 6.92473L15.2551 6.88ZM15.2573 6.8844L15.1679 6.92912L15.1682 6.92982L15.2573 6.8844ZM15.2661 6.9032L15.1725 6.93851L15.1732 6.94008L15.2661 6.9032ZM15.2856 6.99976H15.3857L15.3856 6.99828L15.2856 6.99976ZM15.2856 7.29089H15.1856V7.39089H15.2856V7.29089ZM16.979 9.96997L17.0716 10.0077L17.0717 10.0075L16.979 9.96997ZM16.906 10.0742L16.973 10.1485L16.9732 10.1483L16.906 10.0742ZM15.2627 10.1479V10.0479H15.1761L15.1637 10.1337L15.2627 10.1479ZM13.2856 11.8623V11.9623H13.2858L13.2856 11.8623ZM10.8857 11.8623V11.7623H10.8857L10.8857 11.8623ZM9.1394 11.0051L9.21855 10.944L9.18853 10.9051H9.1394V11.0051ZM8.83252 11.0051V10.9051H8.79106L8.76177 10.9345L8.83252 11.0051ZM8.62305 11.2148L8.55229 11.1442L8.55214 11.1443L8.62305 11.2148ZM7.05957 11.8623L7.05982 11.7623H7.05957V11.8623ZM4.71436 11.8623L4.71423 11.9623H4.71436V11.8623ZM13.2856 11.2909V11.3909H13.2858L13.2856 11.2909ZM10.8857 11.2909V11.1909H10.8856L10.8857 11.2909ZM14.7144 9.8623L14.8144 9.86243V9.8623H14.7144ZM14.7144 7.29089H14.8144V7.19089H14.7144V7.29089ZM14.1426 7.29089V7.19089H14.0426V7.29089H14.1426ZM10.9019 10.7195V10.6195L10.9016 10.6195L10.9019 10.7195ZM9.8916 10.3011L9.96251 10.2306L9.96234 10.2305L9.8916 10.3011ZM9.45312 9.8623L9.52386 9.79162L9.49457 9.7623H9.45312V9.8623ZM8.54688 9.8623V9.7623H8.50545L8.47615 9.7916L8.54688 9.8623ZM8.10815 10.3011L8.03743 10.2304L8.03725 10.2306L8.10815 10.3011ZM7.0979 10.7195L7.09816 10.6195H7.0979V10.7195ZM3.85693 7.29089H3.95693V7.19089H3.85693V7.29089ZM3.28564 7.29089V7.19089H3.18564V7.29089H3.28564ZM3.28564 9.8623H3.18564L3.18564 9.86243L3.28564 9.8623ZM4.71436 11.2909L4.71423 11.3909H4.71436V11.2909ZM7.05957 11.2909L7.05984 11.1909H7.05957V11.2909ZM7.82959 11.0997L7.78264 11.0114L7.78261 11.0115L7.82959 11.0997ZM8.21899 10.8109L8.14825 10.7402L8.14813 10.7404L8.21899 10.8109ZM8.51221 10.5175L8.44158 10.4467L8.44147 10.4468L8.51221 10.5175ZM9.28564 10.4337L9.28616 10.3337H9.28564V10.4337ZM9.52197 10.5609L9.60527 10.5056L9.60518 10.5054L9.52197 10.5609ZM13.5715 7.29089H13.6715V7.19089H13.5715V7.29089ZM4.42871 7.29089V7.19089H4.32871V7.29089H4.42871ZM10.9021 10.1479V10.0479L10.9018 10.0479L10.9021 10.1479ZM10.2959 9.89722L10.3668 9.82667L10.3666 9.82651L10.2959 9.89722ZM9.77344 9.37463L9.70256 9.44517L9.70272 9.44534L9.77344 9.37463ZM9.68677 9.31519L9.72725 9.22375L9.72721 9.22373L9.68677 9.31519ZM8.22656 9.37463L8.15593 9.30384L8.15581 9.30396L8.22656 9.37463ZM7.70459 9.89722L7.63384 9.82655L7.6338 9.82659L7.70459 9.89722ZM7.33936 10.1139L7.31133 10.0179L7.31129 10.0179L7.33936 10.1139ZM7.09814 10.1481L7.09844 10.0481H7.09814V10.1481ZM16.4285 7.8623H16.5285V7.7623H16.4285V7.8623ZM16.4285 9.57654V9.67654H16.5285V9.57654H16.4285ZM15.2856 7.8623V7.7623H15.1856V7.8623H15.2856ZM15.2856 9.57654H15.1856V9.67654H15.2856V9.57654ZM7.19043 5.57654L7.25043 5.49654L7.22376 5.47654H7.19043V5.57654ZM4.29565 5.57654V5.47654H4.24214L4.21245 5.52107L4.29565 5.57654ZM8.25708 6.37659L8.19708 6.45658L8.19714 6.45663L8.25708 6.37659ZM9.73828 6.38L9.79664 6.46121L9.79664 6.46121L9.73828 6.38ZM10.8076 5.61145L10.8065 5.51146L10.7749 5.51182L10.7493 5.53025L10.8076 5.61145ZM13.7056 5.57825L13.7888 5.52278L13.7587 5.47763L13.7044 5.47825L13.7056 5.57825ZM14.4663 6.71948V6.81948H14.6531L14.5495 6.66402L14.4663 6.71948ZM3.53369 6.71948L3.45049 6.66401L3.34684 6.81948H3.53369V6.71948ZM1.57129 7.8623V7.7623H1.47129V7.8623H1.57129ZM2.71411 7.8623H2.81411V7.7623H2.71411V7.8623ZM1.57129 9.57654H1.47129V9.67654H1.57129V9.57654ZM2.71411 9.57654V9.67654H2.81411V9.57654H2.71411ZM1.28564 10.2479H2.7373V10.0479H1.28564V10.2479ZM0.9 9.8623C0.9 10.0754 1.07273 10.2479 1.28564 10.2479V10.0479C1.18313 10.0479 1.1 9.96489 1.1 9.8623H0.9ZM0.9 7.57654V9.8623H1.1V7.57654H0.9ZM1.28564 7.19089C1.0727 7.19089 0.9 7.36359 0.9 7.57654H1.1C1.1 7.47405 1.18316 7.39089 1.28564 7.39089V7.19089ZM2.71533 7.19089H1.28564V7.39089H2.71533V7.19089ZM2.61533 7.00513V7.29089H2.81533V7.00513H2.61533ZM2.61533 6.99976V7.00513H2.81533V6.99976H2.61533ZM2.64191 6.86631C2.62512 6.90864 2.61667 6.95293 2.61538 6.99681L2.81529 7.00271C2.81595 6.98042 2.8202 6.95928 2.82781 6.94008L2.64191 6.86631ZM2.65611 6.83638C2.65472 6.83925 2.65453 6.83943 2.6512 6.84592C2.64865 6.85089 2.64494 6.85838 2.64146 6.86748L2.82827 6.93891C2.82796 6.93972 2.82791 6.93963 2.82921 6.9371C2.83003 6.93549 2.83052 6.93458 2.83189 6.93193C2.83303 6.92973 2.83451 6.92686 2.83608 6.92363L2.65611 6.83638ZM2.65623 6.83568L2.65379 6.84154L2.8384 6.91847L2.84084 6.91261L2.65623 6.83568ZM2.66268 6.82122L2.65731 6.83319L2.83976 6.9151L2.84513 6.90314L2.66268 6.82122ZM2.6739 6.79964L2.66559 6.81527L2.84222 6.9091L2.85052 6.89347L2.6739 6.79964ZM3.82207 5.07685L2.67901 6.79108L2.84541 6.90204L3.98847 5.1878L3.82207 5.07685ZM3.99272 4.93553C3.92404 4.96443 3.8642 5.01317 3.82187 5.07715L3.98868 5.1875C4.00885 5.157 4.03739 5.13372 4.07027 5.11989L3.99272 4.93553ZM4.14282 4.90513C4.09037 4.90513 4.03932 4.91584 3.99257 4.9356L4.07042 5.11982C4.09301 5.11028 4.11763 5.10513 4.14282 5.10513V4.90513ZM7.28564 4.90513H4.14282V5.10513H7.28564V4.90513ZM7.51716 4.98235C7.45042 4.93213 7.36924 4.90513 7.28564 4.90513V5.10513C7.32608 5.10513 7.36501 5.11816 7.3969 5.14216L7.51716 4.98235ZM8.58368 5.78231L7.51703 4.98226L7.39703 5.14225L8.46368 5.9423L8.58368 5.78231ZM9.47949 5.7623H8.52368V5.9623H9.47949V5.7623ZM10.489 5.01341L9.42112 5.78111L9.53786 5.9435L10.6057 5.1758L10.489 5.01341ZM10.5472 4.9789C10.5263 4.98883 10.507 5.00052 10.4892 5.01323L10.6055 5.17598C10.615 5.16916 10.6241 5.16375 10.633 5.15953L10.5472 4.9789ZM10.6135 4.95415C10.5903 4.96042 10.5679 4.96884 10.5465 4.97922L10.6337 5.1592C10.644 5.15421 10.6548 5.15017 10.6658 5.14717L10.6135 4.95415ZM10.6601 4.94464C10.6445 4.9468 10.6289 4.94996 10.6134 4.95416L10.6659 5.14716C10.6729 5.14526 10.6802 5.14378 10.6875 5.14276L10.6601 4.94464ZM10.71 4.9409C10.693 4.94106 10.6762 4.94239 10.66 4.94467L10.6877 5.14274C10.6959 5.14159 10.704 5.14097 10.7119 5.14089L10.71 4.9409ZM13.8526 4.90513L10.7098 4.9409L10.7121 5.14089L13.8549 5.10512L13.8526 4.90513ZM14.1801 5.07831C14.1083 4.96646 13.983 4.90086 13.8505 4.90518L13.857 5.10507C13.9193 5.10304 13.9781 5.13388 14.0118 5.18634L14.1801 5.07831ZM15.322 6.79109L14.1792 5.07685L14.0127 5.18779L15.1556 6.90203L15.322 6.79109ZM15.3478 6.84253C15.3415 6.82693 15.3341 6.81145 15.3251 6.79611L15.1524 6.89701C15.1562 6.9034 15.1594 6.91013 15.1624 6.91748L15.3478 6.84253ZM15.3468 6.83968L15.3446 6.83528L15.1657 6.92473L15.1679 6.92912L15.3468 6.83968ZM15.3597 6.86789C15.3549 6.85515 15.3488 6.84364 15.3464 6.83898L15.1682 6.92982C15.1701 6.93349 15.171 6.93524 15.1719 6.93701C15.1726 6.93853 15.1727 6.93887 15.1726 6.9385L15.3597 6.86789ZM15.3856 6.99828C15.385 6.95241 15.3755 6.90772 15.3591 6.86631L15.1732 6.94008C15.1811 6.9602 15.1854 6.98094 15.1857 7.00123L15.3856 6.99828ZM15.3856 7.00513V6.99976H15.1856V7.00513H15.3856ZM15.3856 7.29089V7.00513H15.1856V7.29089H15.3856ZM16.7144 7.19089H15.2856V7.39089H16.7144V7.19089ZM17.1 7.57654C17.1 7.36359 16.9273 7.19089 16.7144 7.19089V7.39089C16.8168 7.39089 16.9 7.47405 16.9 7.57654H17.1ZM17.1 9.8623V7.57654H16.9V9.8623H17.1ZM17.0717 10.0075C17.0898 9.96281 17.1 9.91373 17.1 9.8623H16.9C16.9 9.88705 16.8951 9.91073 16.8863 9.93248L17.0717 10.0075ZM16.9732 10.1483C17.0156 10.1098 17.0495 10.0619 17.0716 10.0077L16.8864 9.93225C16.8758 9.95832 16.8594 9.98148 16.8388 10.0001L16.9732 10.1483ZM16.7144 10.2479C16.8139 10.2479 16.9046 10.2101 16.973 10.1485L16.8391 9.99994C16.8058 10.0299 16.7623 10.0479 16.7144 10.0479V10.2479ZM15.2627 10.2479H16.7144V10.0479H15.2627V10.2479ZM13.2858 11.9623C14.3288 11.961 15.213 11.1946 15.3617 10.1622L15.1637 10.1337C15.0292 11.0677 14.2293 11.7611 13.2855 11.7623L13.2858 11.9623ZM10.8857 11.9623H13.2856V11.7623H10.8857V11.9623ZM9.06026 11.0662C9.49693 11.6317 10.1712 11.9627 10.8858 11.9623L10.8857 11.7623C10.2331 11.7627 9.61733 11.4604 9.21855 10.944L9.06026 11.0662ZM8.83252 11.1051H9.1394V10.9051H8.83252V11.1051ZM8.6938 11.2855L8.90327 11.0758L8.76177 10.9345L8.5523 11.1442L8.6938 11.2855ZM7.05932 11.9623C7.6729 11.9638 8.26152 11.7202 8.69395 11.2854L8.55214 11.1443C8.15742 11.5413 7.62007 11.7637 7.05982 11.7623L7.05932 11.9623ZM4.71436 11.9623H7.05957V11.7623H4.71436V11.9623ZM2.63833 10.1622C2.78701 11.1946 3.67118 11.961 4.71423 11.9623L4.71448 11.7623C3.77071 11.7611 2.9708 11.0677 2.83628 10.1337L2.63833 10.1622ZM13.2856 11.1909H10.8857V11.3909H13.2856V11.1909ZM14.6144 9.86218C14.6134 10.5956 14.019 11.19 13.2855 11.1909L13.2858 11.3909C14.1295 11.3898 14.8133 10.7061 14.8144 9.86243L14.6144 9.86218ZM14.6144 7.29089V9.8623H14.8144V7.29089H14.6144ZM14.1426 7.39089H14.7144V7.19089H14.1426V7.39089ZM14.2426 9.57654V7.29089H14.0426V9.57654H14.2426ZM13 10.8195C13.6864 10.8195 14.2426 10.263 14.2426 9.57654H14.0426C14.0426 10.1526 13.5758 10.6195 13 10.6195V10.8195ZM10.9019 10.8195H13V10.6195H10.9019V10.8195ZM9.8207 10.3717C10.1069 10.6594 10.4965 10.8205 10.9021 10.8195L10.9016 10.6195C10.5494 10.6204 10.211 10.4805 9.96251 10.2306L9.8207 10.3717ZM9.38239 9.93299L9.82086 10.3718L9.96234 10.2305L9.52386 9.79162L9.38239 9.93299ZM8.54688 9.9623H9.45312V9.7623H8.54688V9.9623ZM8.17887 10.3718L8.6176 9.93301L8.47615 9.7916L8.03743 10.2304L8.17887 10.3718ZM7.09764 10.8195C7.50346 10.8205 7.89287 10.6594 8.17906 10.3717L8.03725 10.2306C7.78877 10.4805 7.45064 10.6204 7.09816 10.6195L7.09764 10.8195ZM5 10.8195H7.0979V10.6195H5V10.8195ZM3.75693 9.57654C3.75693 10.263 4.31343 10.8195 5 10.8195V10.6195C4.42387 10.6195 3.95693 10.1525 3.95693 9.57654H3.75693ZM3.75693 7.29089V9.57654H3.95693V7.29089H3.75693ZM3.28564 7.39089H3.85693V7.19089H3.28564V7.39089ZM3.38564 9.8623V7.29089H3.18564V9.8623H3.38564ZM4.71448 11.1909C3.98079 11.19 3.38655 10.5956 3.38564 9.86218L3.18564 9.86243C3.18669 10.7061 3.87028 11.3898 4.71423 11.3909L4.71448 11.1909ZM7.05957 11.1909H4.71436V11.3909H7.05957V11.1909ZM7.78261 11.0115C7.56213 11.1288 7.31418 11.1916 7.05984 11.1909L7.0593 11.3909C7.34696 11.3917 7.62733 11.3207 7.87657 11.188L7.78261 11.0115ZM8.14813 10.7404C8.03951 10.8494 7.91623 10.9404 7.78264 11.0114L7.87654 11.188C8.02762 11.1077 8.16704 11.0048 8.28985 10.8815L8.14813 10.7404ZM8.44147 10.4468L8.14825 10.7402L8.28973 10.8816L8.58295 10.5881L8.44147 10.4468ZM8.71411 10.3337C8.61176 10.3337 8.51391 10.3745 8.44158 10.4467L8.58284 10.5882C8.61793 10.5532 8.66509 10.5337 8.71411 10.5337V10.3337ZM9.28564 10.3337H8.71411V10.5337H9.28564V10.3337ZM9.60518 10.5054C9.53396 10.3986 9.41432 10.3344 9.28616 10.3337L9.28513 10.5337C9.34691 10.534 9.40451 10.565 9.43877 10.6164L9.60518 10.5054ZM10.8856 11.1909C10.3708 11.1915 9.88992 10.934 9.60527 10.5056L9.43868 10.6162C9.76047 11.1006 10.304 11.3915 10.8859 11.3909L10.8856 11.1909ZM13.5715 7.19089H4.42871V7.39089H13.5715V7.19089ZM13.6715 9.57654V7.29089H13.4715V9.57654H13.6715ZM13 10.2479C13.3709 10.2479 13.6715 9.94747 13.6715 9.57654H13.4715C13.4715 9.83696 13.2605 10.0479 13 10.0479V10.2479ZM10.9021 10.2479H13V10.0479H10.9021V10.2479ZM10.225 9.96777C10.4043 10.1478 10.6484 10.2488 10.9024 10.2479L10.9018 10.0479C10.7012 10.0486 10.5083 9.96886 10.3668 9.82667L10.225 9.96777ZM9.70272 9.44534L10.2252 9.96792L10.3666 9.82651L9.84416 9.30393L9.70272 9.44534ZM9.64628 9.40662C9.66724 9.4159 9.6864 9.42894 9.70256 9.44517L9.84432 9.30409C9.81018 9.26979 9.77026 9.24279 9.72725 9.22375L9.64628 9.40662ZM9.57153 9.39089C9.59778 9.39089 9.62308 9.39636 9.64633 9.40664L9.72721 9.22373C9.67868 9.20227 9.62585 9.19089 9.57153 9.19089V9.39089ZM8.42871 9.39089H9.57153V9.19089H8.42871V9.39089ZM8.29719 9.44543C8.33225 9.41044 8.3794 9.39089 8.42871 9.39089V9.19089C8.32616 9.19089 8.22829 9.23165 8.15593 9.30384L8.29719 9.44543ZM7.77534 9.96789L8.29731 9.4453L8.15581 9.30396L7.63384 9.82655L7.77534 9.96789ZM7.36738 10.2099C7.52013 10.1653 7.66085 10.0826 7.77538 9.96784L7.6338 9.82659C7.54325 9.91735 7.43202 9.98266 7.31133 10.0179L7.36738 10.2099ZM7.09785 10.2481C7.1898 10.2483 7.28065 10.2352 7.36742 10.2099L7.31129 10.0179C7.24279 10.0379 7.17104 10.0483 7.09844 10.0481L7.09785 10.2481ZM5 10.2481H7.09814V10.0481H5V10.2481ZM4.32871 9.57654C4.32871 9.94741 4.62931 10.2481 5 10.2481V10.0481C4.73983 10.0481 4.52871 9.83701 4.52871 9.57654H4.32871ZM4.32871 7.29089V9.57654H4.52871V7.29089H4.32871ZM16.3285 7.8623V9.57654H16.5285V7.8623H16.3285ZM15.2856 7.9623H16.4285V7.7623H15.2856V7.9623ZM15.3856 9.57654V7.8623H15.1856V9.57654H15.3856ZM16.4285 9.47654H15.2856V9.67654H16.4285V9.47654ZM7.19043 5.47654H4.29565V5.67654H7.19043V5.47654ZM8.31708 6.29659L7.25043 5.49654L7.13043 5.65654L8.19708 6.45658L8.31708 6.29659ZM8.42871 6.33372C8.38832 6.33372 8.34929 6.3207 8.31702 6.29654L8.19714 6.45663C8.26399 6.50669 8.34508 6.53372 8.42871 6.53372V6.33372ZM9.57129 6.33372H8.42871V6.53372H9.57129V6.33372ZM9.67993 6.2988C9.64837 6.32147 9.61044 6.33372 9.57129 6.33372V6.53372C9.65225 6.53372 9.73102 6.50836 9.79664 6.46121L9.67993 6.2988ZM10.7493 5.53025L9.67992 6.2988L9.79664 6.46121L10.866 5.69265L10.7493 5.53025ZM13.7044 5.47825L10.8065 5.51146L10.8088 5.71144L13.7067 5.67824L13.7044 5.47825ZM14.5495 6.66402L13.7888 5.52278L13.6224 5.63371L14.3831 6.77495L14.5495 6.66402ZM3.53369 6.81948H14.4663V6.61948H3.53369V6.81948ZM4.21245 5.52107L3.45049 6.66401L3.6169 6.77495L4.37886 5.63201L4.21245 5.52107ZM1.57129 7.9623H2.71411V7.7623H1.57129V7.9623ZM1.67129 9.57654V7.8623H1.47129V9.57654H1.67129ZM2.71411 9.47654H1.57129V9.67654H2.71411V9.47654ZM2.61411 7.8623V9.57654H2.81411V7.8623H2.61411Z" fill="white"/>
</g>
</g>
</g>
</svg>
