<svg width="18" height="18" viewBox="0 0 18 18" fill="none" xmlns="http://www.w3.org/2000/svg">
<g id="AR">
<rect id="Rectangle 4 Copy" width="18" height="18" fill="#F4F7FB" fill-opacity="0.01"/>
<g id="glasses copy 3">
<g id="Shape">
<path fill-rule="evenodd" clip-rule="evenodd" d="M2.73718 10.1479H1.28577C1.229 10.1479 1.17603 10.1313 1.13147 10.1028C1.05237 10.052 1 9.96338 1 9.8623V7.57654C1 7.41882 1.12793 7.29089 1.28577 7.29089H2.71545V7.00513V6.99976C2.71619 6.96667 2.72278 6.93396 2.73486 6.9032L2.73669 6.8988L2.74146 6.88916L2.74597 6.88C2.75061 6.86853 2.7561 6.8573 2.76233 6.84656L3.90515 5.13232C3.93823 5.08276 3.98535 5.04553 4.03931 5.02454C4.0719 5.01184 4.10693 5.00513 4.14282 5.00513H7.28577C7.34753 5.00513 7.40771 5.02515 7.45715 5.06226L8.52368 5.8623H9.47937L10.5475 5.0946C10.5951 5.0603 10.6521 5.0415 10.7108 5.04089L13.8538 5.00513C13.918 5.00305 13.9799 5.02319 14.0297 5.06091C14.0554 5.08032 14.078 5.10437 14.0959 5.13232L15.2389 6.84656C15.245 6.85742 15.2504 6.86853 15.2551 6.88L15.2584 6.8866L15.2628 6.89539C15.264 6.89795 15.2653 6.90051 15.2662 6.9032C15.2784 6.93396 15.285 6.96667 15.2858 6.99976V7.00513V7.29089H16.7142C16.8721 7.29089 17 7.41882 17 7.57654V9.8623C17 10.0201 16.8721 10.1479 16.7142 10.1479H15.2628C15.121 11.1311 14.2791 11.8611 13.2858 11.8623H10.8857C10.2023 11.8627 9.55725 11.546 9.1394 11.0051H8.83252L8.62317 11.2148C8.20935 11.6307 7.64636 11.8638 7.05969 11.8623H4.71423C3.72095 11.8611 2.87903 11.1311 2.73718 10.1479ZM10.8857 11.2909H13.2858C14.0743 11.2899 14.7134 10.6509 14.7144 9.8623V7.29089H14.1428V9.57654C14.1428 10.2078 13.6312 10.7195 13 10.7195H10.902C10.5229 10.7205 10.1591 10.5699 9.89172 10.3011L9.45312 9.8623H8.54688L8.10828 10.3011C7.84094 10.5699 7.47717 10.7205 7.09802 10.7195H5C4.36877 10.7195 3.85718 10.2078 3.85718 9.57654V7.29089H3.28577V9.8623C3.28662 10.6509 3.92566 11.2899 4.71436 11.2909H7.05969C7.49475 11.292 7.91223 11.1191 8.21912 10.8109L8.51233 10.5175C8.56592 10.4639 8.63855 10.4337 8.71423 10.4337H9.28577C9.32971 10.434 9.37219 10.4442 9.41052 10.463C9.42627 10.4708 9.44128 10.48 9.45532 10.4905C9.46985 10.5015 9.48352 10.5138 9.49597 10.5275C9.50537 10.5378 9.51404 10.5491 9.52197 10.5609C9.82544 11.0173 10.3375 11.2915 10.8857 11.2909ZM4.42859 7.29089H13.5714V9.57654C13.5714 9.89221 13.3156 10.1479 13 10.1479H10.902C10.6746 10.1487 10.4563 10.0583 10.2957 9.89722L9.77344 9.37463C9.71985 9.32104 9.64722 9.29089 9.57141 9.29089H8.42859C8.35278 9.29089 8.28015 9.32104 8.22656 9.37463L7.70435 9.89722C7.61011 9.99182 7.49597 10.062 7.37183 10.1038C7.31689 10.1222 7.26013 10.1351 7.20215 10.1421C7.16772 10.1461 7.13293 10.1482 7.09802 10.1481H5C4.68445 10.1481 4.42859 9.89221 4.42859 9.57654V7.29089ZM16.4286 9.57654V7.8623H15.2858V9.57654H16.4286ZM4.29565 5.57654H7.19055L8.25708 6.37659C8.30664 6.4137 8.3667 6.43372 8.42859 6.43372H9.57141C9.58728 6.43372 9.60315 6.43237 9.61865 6.42981C9.64148 6.42603 9.6637 6.41943 9.68481 6.41028C9.70361 6.40222 9.72156 6.39209 9.73828 6.38L10.8077 5.61145L13.7054 5.57825L14.4663 6.71948H3.53369L4.29565 5.57654ZM2.71423 7.8623H1.57141V9.57654H2.71423V7.8623Z" fill="#0C49CD"/>
<path d="M2.73718 10.1479L2.83616 10.1337L2.82379 10.0479H2.73718V10.1479ZM1.13147 10.1028L1.07745 10.1869L1.0775 10.187L1.13147 10.1028ZM2.71545 7.29089V7.39089H2.81545V7.29089H2.71545ZM2.71545 6.99976L2.61545 6.99754V6.99976H2.71545ZM2.73486 6.9032L2.64254 6.86473L2.64179 6.86663L2.73486 6.9032ZM2.73669 6.8988L2.64684 6.85445L2.64439 6.86034L2.73669 6.8988ZM2.74146 6.88916L2.83112 6.93343L2.83114 6.9334L2.74146 6.88916ZM2.74597 6.88L2.8359 6.92437L2.83868 6.91748L2.74597 6.88ZM2.76233 6.84656L2.67896 6.79098L2.67581 6.79642L2.76233 6.84656ZM3.90515 5.13232L3.82198 5.07681L3.82195 5.07685L3.90515 5.13232ZM4.03931 5.02454L4.07557 5.11773L4.0756 5.11772L4.03931 5.02454ZM7.45715 5.06226L7.39712 5.14223L7.39715 5.14225L7.45715 5.06226ZM8.52368 5.8623L8.46367 5.9423L8.49034 5.9623H8.52368V5.8623ZM9.47937 5.8623V5.9623H9.51158L9.53773 5.94351L9.47937 5.8623ZM10.5475 5.0946L10.6058 5.17581L10.6059 5.17574L10.5475 5.0946ZM10.7108 5.04089L10.7119 5.14089L10.712 5.14089L10.7108 5.04089ZM13.8538 5.00513L13.8549 5.10514L13.857 5.10507L13.8538 5.00513ZM14.0297 5.06091L13.9693 5.14063L13.9695 5.14078L14.0297 5.06091ZM14.0959 5.13232L14.0118 5.18635L14.0127 5.1878L14.0959 5.13232ZM15.2389 6.84656L15.3263 6.79744L15.3221 6.79108L15.2389 6.84656ZM15.2551 6.88L15.1625 6.91842L15.1657 6.92473L15.2551 6.88ZM15.2628 6.89539L15.3531 6.85238L15.3523 6.85066L15.2628 6.89539ZM15.2662 6.9032L15.1722 6.93739L15.1733 6.94008L15.2662 6.9032ZM15.2858 6.99976H15.3858L15.3857 6.99754L15.2858 6.99976ZM15.2858 7.29089H15.1858V7.39089H15.2858V7.29089ZM15.2628 10.1479V10.0479H15.1762L15.1638 10.1337L15.2628 10.1479ZM13.2858 11.8623V11.9623H13.2859L13.2858 11.8623ZM10.8857 11.8623V11.7623H10.8857L10.8857 11.8623ZM9.1394 11.0051L9.21854 10.944L9.18852 10.9051H9.1394V11.0051ZM8.83252 11.0051V10.9051H8.79105L8.76175 10.9345L8.83252 11.0051ZM8.62317 11.2148L8.5524 11.1442L8.55228 11.1443L8.62317 11.2148ZM7.05969 11.8623L7.05994 11.7623H7.05969V11.8623ZM4.71423 11.8623L4.71411 11.9623H4.71423V11.8623ZM13.2858 11.2909V11.3909H13.2859L13.2858 11.2909ZM10.8857 11.2909V11.1909H10.8856L10.8857 11.2909ZM14.7144 9.8623L14.8144 9.86243V9.8623H14.7144ZM14.7144 7.29089H14.8144V7.19089H14.7144V7.29089ZM14.1428 7.29089V7.19089H14.0428V7.29089H14.1428ZM10.902 10.7195V10.6195L10.9017 10.6195L10.902 10.7195ZM9.89172 10.3011L9.96263 10.2306L9.96245 10.2305L9.89172 10.3011ZM9.45312 9.8623L9.52386 9.79161L9.49456 9.7623H9.45312V9.8623ZM8.54688 9.8623V9.7623H8.50544L8.47614 9.79161L8.54688 9.8623ZM8.10828 10.3011L8.03755 10.2305L8.03737 10.2306L8.10828 10.3011ZM7.09802 10.7195L7.09828 10.6195H7.09802V10.7195ZM3.85718 7.29089H3.95718V7.19089H3.85718V7.29089ZM3.28577 7.29089V7.19089H3.18577V7.29089H3.28577ZM3.28577 9.8623H3.18577L3.18577 9.86241L3.28577 9.8623ZM4.71436 11.2909L4.71423 11.3909H4.71436V11.2909ZM7.05969 11.2909L7.05995 11.1909H7.05969V11.2909ZM8.21912 10.8109L8.14838 10.7402L8.14825 10.7404L8.21912 10.8109ZM8.51233 10.5175L8.44162 10.4467L8.44159 10.4468L8.51233 10.5175ZM9.28577 10.4337L9.28632 10.3337H9.28577V10.4337ZM9.41052 10.463L9.45497 10.3734L9.45456 10.3732L9.41052 10.463ZM9.45532 10.4905L9.51564 10.4107L9.51521 10.4104L9.45532 10.4905ZM9.49597 10.5275L9.57008 10.4603L9.56991 10.4601L9.49597 10.5275ZM9.52197 10.5609L9.60525 10.5055L9.60505 10.5052L9.52197 10.5609ZM13.5714 7.29089H13.6714V7.19089H13.5714V7.29089ZM4.42859 7.29089V7.19089H4.32859V7.29089H4.42859ZM10.902 10.1479V10.0479L10.9017 10.0479L10.902 10.1479ZM10.2957 9.89722L10.3665 9.82661L10.3664 9.82653L10.2957 9.89722ZM9.77344 9.37463L9.84417 9.30395L9.84415 9.30392L9.77344 9.37463ZM8.22656 9.37463L8.15585 9.30392L8.15583 9.30395L8.22656 9.37463ZM7.70435 9.89722L7.63361 9.82653L7.6335 9.82664L7.70435 9.89722ZM7.37183 10.1038L7.40364 10.1986L7.4037 10.1985L7.37183 10.1038ZM7.20215 10.1421L7.21377 10.2414L7.21406 10.2414L7.20215 10.1421ZM7.09802 10.1481L7.09837 10.0481H7.09802V10.1481ZM16.4286 7.8623H16.5286V7.7623H16.4286V7.8623ZM16.4286 9.57654V9.67654H16.5286V9.57654H16.4286ZM15.2858 7.8623V7.7623H15.1858V7.8623H15.2858ZM15.2858 9.57654H15.1858V9.67654H15.2858V9.57654ZM7.19055 5.57654L7.25056 5.49654L7.22389 5.47654H7.19055V5.57654ZM4.29565 5.57654V5.47654H4.24214L4.21245 5.52107L4.29565 5.57654ZM8.25708 6.37659L8.19707 6.45658L8.19714 6.45663L8.25708 6.37659ZM9.61865 6.42981L9.63497 6.52847L9.63501 6.52846L9.61865 6.42981ZM9.68481 6.41028L9.64542 6.31836L9.64504 6.31853L9.68481 6.41028ZM9.73828 6.38L9.67992 6.2988L9.67971 6.29895L9.73828 6.38ZM10.8077 5.61145L10.8066 5.51146L10.775 5.51182L10.7494 5.53024L10.8077 5.61145ZM13.7054 5.57825L13.7886 5.52277L13.7586 5.47763L13.7043 5.47825L13.7054 5.57825ZM14.4663 6.71948V6.81948H14.6532L14.5495 6.66401L14.4663 6.71948ZM3.53369 6.71948L3.45049 6.66401L3.34684 6.81948H3.53369V6.71948ZM1.57141 7.8623V7.7623H1.47141V7.8623H1.57141ZM2.71423 7.8623H2.81423V7.7623H2.71423V7.8623ZM1.57141 9.57654H1.47141V9.67654H1.57141V9.57654ZM2.71423 9.57654V9.67654H2.81423V9.57654H2.71423ZM1.28577 10.2479H2.73718V10.0479H1.28577V10.2479ZM1.0775 10.187C1.13762 10.2255 1.20924 10.2479 1.28577 10.2479V10.0479C1.24877 10.0479 1.21443 10.0372 1.18544 10.0186L1.0775 10.187ZM0.9 9.8623C0.9 9.99884 0.970903 10.1185 1.07745 10.1869L1.18549 10.0186C1.13383 9.98547 1.1 9.92792 1.1 9.8623H0.9ZM0.9 7.57654V9.8623H1.1V7.57654H0.9ZM1.28577 7.19089C1.07273 7.19089 0.9 7.36357 0.9 7.57654H1.1C1.1 7.47408 1.18313 7.39089 1.28577 7.39089V7.19089ZM2.71545 7.19089H1.28577V7.39089H2.71545V7.19089ZM2.61545 7.00513V7.29089H2.81545V7.00513H2.61545ZM2.61545 6.99976V7.00513H2.81545V6.99976H2.61545ZM2.64179 6.86663C2.62541 6.90832 2.61647 6.95266 2.61548 6.99754L2.81543 7.00197C2.8159 6.98069 2.82014 6.9596 2.82794 6.93976L2.64179 6.86663ZM2.64439 6.86034L2.64256 6.86474L2.82717 6.94166L2.829 6.93727L2.64439 6.86034ZM2.65179 6.84489L2.64703 6.85454L2.82636 6.94307L2.83112 6.93343L2.65179 6.84489ZM2.65629 6.83576L2.65177 6.84492L2.83114 6.9334L2.83565 6.92425L2.65629 6.83576ZM2.67581 6.79642C2.66724 6.81121 2.65967 6.82667 2.65326 6.84253L2.83868 6.91748C2.84155 6.91039 2.84497 6.90339 2.84885 6.8967L2.67581 6.79642ZM3.82195 5.07685L2.67912 6.79109L2.84553 6.90203L3.98836 5.18779L3.82195 5.07685ZM4.00304 4.93134C3.93021 4.95969 3.86661 5.00995 3.82198 5.07681L3.98832 5.18784C4.00986 5.15558 4.0405 5.13138 4.07557 5.11773L4.00304 4.93134ZM4.14282 4.90513C4.09443 4.90513 4.04709 4.91418 4.00301 4.93136L4.0756 5.11772C4.09671 5.1095 4.11944 5.10513 4.14282 5.10513V4.90513ZM7.28577 4.90513H4.14282V5.10513H7.28577V4.90513ZM7.51718 4.98228C7.45039 4.93214 7.36913 4.90513 7.28577 4.90513V5.10513C7.32593 5.10513 7.36504 5.11815 7.39712 5.14223L7.51718 4.98228ZM8.58369 5.78231L7.51716 4.98226L7.39715 5.14225L8.46367 5.9423L8.58369 5.78231ZM9.47937 5.7623H8.52368V5.9623H9.47937V5.7623ZM10.4891 5.0134L9.42101 5.7811L9.53773 5.94351L10.6058 5.17581L10.4891 5.0134ZM10.7098 4.9409C10.6304 4.94172 10.5533 4.96716 10.489 5.01347L10.6059 5.17574C10.6369 5.15345 10.6738 5.14128 10.7119 5.14089L10.7098 4.9409ZM13.8526 4.90513L10.7097 4.9409L10.712 5.14089L13.8549 5.10512L13.8526 4.90513ZM14.09 4.9812C14.0221 4.92974 13.9378 4.90236 13.8505 4.90518L13.857 5.10507C13.8981 5.10374 13.9376 5.11664 13.9693 5.14063L14.09 4.9812ZM14.1801 5.0783C14.1556 5.04018 14.1249 5.00744 14.0898 4.98105L13.9695 5.14078C13.986 5.15321 14.0004 5.16856 14.0118 5.18634L14.1801 5.0783ZM15.3221 6.79108L14.1791 5.07685L14.0127 5.1878L15.1557 6.90203L15.3221 6.79108ZM15.3475 6.84168C15.3413 6.82669 15.3342 6.81201 15.3261 6.79758L15.1517 6.89554C15.1558 6.90283 15.1595 6.91037 15.1628 6.91833L15.3475 6.84168ZM15.3479 6.84188L15.3446 6.83528L15.1657 6.92473L15.169 6.93132L15.3479 6.84188ZM15.3523 6.85066L15.3479 6.84188L15.169 6.93132L15.1734 6.94011L15.3523 6.85066ZM15.3602 6.86902C15.3573 6.8611 15.354 6.85425 15.3531 6.85239L15.1725 6.93838C15.1741 6.94165 15.1732 6.93993 15.1723 6.93737L15.3602 6.86902ZM15.3857 6.99754C15.3847 6.95265 15.3758 6.90819 15.3592 6.86631L15.1733 6.94008C15.1811 6.95973 15.1853 6.9807 15.1858 7.00197L15.3857 6.99754ZM15.3858 7.00513V6.99976H15.1858V7.00513H15.3858ZM15.3858 7.29089V7.00513H15.1858V7.29089H15.3858ZM16.7142 7.19089H15.2858V7.39089H16.7142V7.19089ZM17.1 7.57654C17.1 7.36357 16.9273 7.19089 16.7142 7.19089V7.39089C16.8169 7.39089 16.9 7.47408 16.9 7.57654H17.1ZM17.1 9.8623V7.57654H16.9V9.8623H17.1ZM16.7142 10.2479C16.9272 10.2479 17.1 10.0754 17.1 9.8623H16.9C16.9 9.96486 16.8169 10.0479 16.7142 10.0479V10.2479ZM15.2628 10.2479H16.7142V10.0479H15.2628V10.2479ZM13.2859 11.9623C14.3288 11.961 15.2129 11.1945 15.3618 10.1622L15.1638 10.1337C15.0291 11.0677 14.2293 11.7611 13.2856 11.7623L13.2859 11.9623ZM10.8857 11.9623H13.2858V11.7623H10.8857V11.9623ZM9.06027 11.0663C9.49706 11.6317 10.1713 11.9627 10.8858 11.9623L10.8857 11.7623C10.2332 11.7627 9.61744 11.4604 9.21854 10.944L9.06027 11.0663ZM8.83252 11.1051H9.1394V10.9051H8.83252V11.1051ZM8.69394 11.2855L8.90329 11.0758L8.76175 10.9345L8.5524 11.1442L8.69394 11.2855ZM7.05944 11.9623C7.67279 11.9638 8.2614 11.7202 8.69406 11.2854L8.55228 11.1443C8.15731 11.5413 7.61994 11.7637 7.05994 11.7623L7.05944 11.9623ZM4.71423 11.9623H7.05969V11.7623H4.71423V11.9623ZM2.63821 10.1622C2.78715 11.1945 3.67116 11.961 4.71411 11.9623L4.71436 11.7623C3.77073 11.7611 2.97091 11.0677 2.83616 10.1337L2.63821 10.1622ZM13.2858 11.1909H10.8857V11.3909H13.2858V11.1909ZM14.6144 9.86218C14.6134 10.5956 14.0191 11.19 13.2856 11.1909L13.2859 11.3909C14.1296 11.3898 14.8133 10.7061 14.8144 9.86243L14.6144 9.86218ZM14.6144 7.29089V9.8623H14.8144V7.29089H14.6144ZM14.1428 7.39089H14.7144V7.19089H14.1428V7.39089ZM14.2428 9.57654V7.29089H14.0428V9.57654H14.2428ZM13 10.8195C13.6865 10.8195 14.2428 10.263 14.2428 9.57654H14.0428C14.0428 10.1525 13.576 10.6195 13 10.6195V10.8195ZM10.902 10.8195H13V10.6195H10.902V10.8195ZM9.82082 10.3717C10.107 10.6594 10.4965 10.8205 10.9022 10.8195L10.9017 10.6195C10.5494 10.6204 10.2111 10.4805 9.96263 10.2306L9.82082 10.3717ZM9.38239 9.933L9.82099 10.3718L9.96245 10.2305L9.52386 9.79161L9.38239 9.933ZM8.54688 9.9623H9.45312V9.7623H8.54688V9.9623ZM8.17901 10.3718L8.61761 9.933L8.47614 9.79161L8.03755 10.2305L8.17901 10.3718ZM7.09776 10.8195C7.50358 10.8205 7.89299 10.6594 8.17918 10.3717L8.03737 10.2306C7.7889 10.4805 7.45076 10.6204 7.09828 10.6195L7.09776 10.8195ZM5 10.8195H7.09802V10.6195H5V10.8195ZM3.75718 9.57654C3.75718 10.263 4.31353 10.8195 5 10.8195V10.6195C4.42402 10.6195 3.95718 10.1525 3.95718 9.57654H3.75718ZM3.75718 7.29089V9.57654H3.95718V7.29089H3.75718ZM3.28577 7.39089H3.85718V7.19089H3.28577V7.39089ZM3.38577 9.8623V7.29089H3.18577V9.8623H3.38577ZM4.71448 11.1909C3.98091 11.19 3.38656 10.5956 3.38577 9.8622L3.18577 9.86241C3.18668 10.7061 3.87041 11.3898 4.71423 11.3909L4.71448 11.1909ZM7.05969 11.1909H4.71436V11.3909H7.05969V11.1909ZM8.14825 10.7404C7.8602 11.0297 7.46832 11.1919 7.05995 11.1909L7.05944 11.3909C7.52118 11.3921 7.96427 11.2086 8.28998 10.8815L8.14825 10.7404ZM8.44159 10.4468L8.14838 10.7402L8.28986 10.8816L8.58307 10.5881L8.44159 10.4468ZM8.71423 10.3337C8.61195 10.3337 8.51391 10.3745 8.44162 10.4467L8.58304 10.5882C8.61793 10.5533 8.66515 10.5337 8.71423 10.5337V10.3337ZM9.28577 10.3337H8.71423V10.5337H9.28577V10.3337ZM9.45456 10.3732C9.40287 10.3479 9.34554 10.334 9.28632 10.3337L9.28521 10.5337C9.31388 10.5339 9.34152 10.5405 9.36649 10.5528L9.45456 10.3732ZM9.51521 10.4104C9.49612 10.3961 9.4759 10.3838 9.45497 10.3734L9.36608 10.5526C9.37664 10.5578 9.38645 10.5638 9.39543 10.5706L9.51521 10.4104ZM9.56991 10.4601C9.55307 10.4416 9.53479 10.4252 9.51564 10.4107L9.395 10.5702C9.40491 10.5777 9.41397 10.5859 9.42204 10.5948L9.56991 10.4601ZM9.60505 10.5052C9.59466 10.4897 9.58304 10.4746 9.57008 10.4603L9.42186 10.5946C9.42771 10.6011 9.43342 10.6084 9.4389 10.6166L9.60505 10.5052ZM10.8856 11.1909C10.3709 11.1915 9.89016 10.9341 9.60525 10.5055L9.4387 10.6163C9.76072 11.1006 10.3041 11.3915 10.8859 11.3909L10.8856 11.1909ZM13.5714 7.19089H4.42859V7.39089H13.5714V7.19089ZM13.6714 9.57654V7.29089H13.4714V9.57654H13.6714ZM13 10.2479C13.3708 10.2479 13.6714 9.94745 13.6714 9.57654H13.4714C13.4714 9.83697 13.2603 10.0479 13 10.0479V10.2479ZM10.902 10.2479H13V10.0479H10.902V10.2479ZM10.2248 9.96782C10.4043 10.1478 10.6481 10.2488 10.9023 10.2479L10.9017 10.0479C10.701 10.0486 10.5083 9.96888 10.3665 9.82661L10.2248 9.96782ZM9.7027 9.44532L10.2249 9.9679L10.3664 9.82653L9.84417 9.30395L9.7027 9.44532ZM9.57141 9.39089C9.62064 9.39089 9.66785 9.41047 9.70273 9.44534L9.84415 9.30392C9.77184 9.23162 9.67379 9.19089 9.57141 9.19089V9.39089ZM8.42859 9.39089H9.57141V9.19089H8.42859V9.39089ZM8.29727 9.44534C8.33215 9.41047 8.37936 9.39089 8.42859 9.39089V9.19089C8.32621 9.19089 8.22815 9.23162 8.15585 9.30392L8.29727 9.44534ZM7.77508 9.9679L8.2973 9.44532L8.15583 9.30395L7.63361 9.82653L7.77508 9.9679ZM7.4037 10.1985C7.54238 10.1519 7.6699 10.0735 7.77519 9.96779L7.6335 9.82664C7.55031 9.91015 7.44956 9.97212 7.33995 10.009L7.4037 10.1985ZM7.21406 10.2414C7.27896 10.2336 7.34238 10.2191 7.40364 10.1986L7.34001 10.009C7.29141 10.0253 7.24131 10.0367 7.19023 10.0428L7.21406 10.2414ZM7.09767 10.2481C7.13678 10.2482 7.17557 10.2459 7.21377 10.2414L7.19053 10.0428C7.15988 10.0464 7.12909 10.0482 7.09837 10.0481L7.09767 10.2481ZM5 10.2481H7.09802V10.0481H5V10.2481ZM4.32859 9.57654C4.32859 9.94743 4.62921 10.2481 5 10.2481V10.0481C4.73969 10.0481 4.52859 9.837 4.52859 9.57654H4.32859ZM4.32859 7.29089V9.57654H4.52859V7.29089H4.32859ZM16.3286 7.8623V9.57654H16.5286V7.8623H16.3286ZM15.2858 7.9623H16.4286V7.7623H15.2858V7.9623ZM15.3858 9.57654V7.8623H15.1858V9.57654H15.3858ZM16.4286 9.47654H15.2858V9.67654H16.4286V9.47654ZM7.19055 5.47654H4.29565V5.67654H7.19055V5.47654ZM8.31709 6.29659L7.25056 5.49654L7.13054 5.65653L8.19707 6.45658L8.31709 6.29659ZM8.42859 6.33372C8.38834 6.33372 8.34931 6.32072 8.31702 6.29654L8.19714 6.45663C8.26398 6.50668 8.34506 6.53372 8.42859 6.53372V6.33372ZM9.57141 6.33372H8.42859V6.53372H9.57141V6.33372ZM9.60234 6.33115C9.59209 6.33284 9.58168 6.33372 9.57141 6.33372V6.53372C9.59289 6.53372 9.61421 6.5319 9.63497 6.52847L9.60234 6.33115ZM9.64504 6.31853C9.63133 6.32447 9.61697 6.32872 9.6023 6.33116L9.63501 6.52846C9.66599 6.52333 9.69606 6.51439 9.72459 6.50203L9.64504 6.31853ZM9.67971 6.29895C9.66901 6.30669 9.6575 6.31319 9.64542 6.31836L9.72421 6.50219C9.74973 6.49126 9.77411 6.47749 9.79685 6.46106L9.67971 6.29895ZM10.7494 5.53024L9.67992 6.2988L9.79664 6.46121L10.8661 5.69266L10.7494 5.53024ZM13.7043 5.47825L10.8066 5.51146L10.8089 5.71144L13.7066 5.67824L13.7043 5.47825ZM14.5495 6.66401L13.7886 5.52277L13.6222 5.63372L14.3831 6.77495L14.5495 6.66401ZM3.53369 6.81948H14.4663V6.61948H3.53369V6.81948ZM4.21245 5.52107L3.45049 6.66401L3.6169 6.77495L4.37886 5.63201L4.21245 5.52107ZM1.57141 7.9623H2.71423V7.7623H1.57141V7.9623ZM1.67141 9.57654V7.8623H1.47141V9.57654H1.67141ZM2.71423 9.47654H1.57141V9.67654H2.71423V9.47654ZM2.61423 7.8623V9.57654H2.81423V7.8623H2.61423Z" fill="#0C49CD"/>
</g>
</g>
</g>
</svg>
