<svg width="16" height="20" viewBox="0 0 16 20" fill="none" xmlns="http://www.w3.org/2000/svg">
<path d="M8.09583 11.7578C8.88636 11.7578 9.52954 10.9692 9.52954 10C9.52954 9.03076 8.88636 8.24219 8.09583 8.24219C7.30517 8.24219 6.66211 9.03076 6.66211 10C6.66211 10.9692 7.30517 11.7578 8.09583 11.7578Z" fill="white"/>
<path fill-rule="evenodd" clip-rule="evenodd" d="M2.75502 16.1284C1.98695 16.0156 1.38148 15.6641 1.05971 14.9805C0.313613 13.395 1.58754 11.3169 2.62758 10C1.58656 8.68213 0.313613 6.60449 1.05971 5.01953C1.69154 3.67822 3.38246 3.56885 5.35609 4.18311C5.47523 3.66553 5.61146 3.14209 5.76478 2.69727C5.735 2.58398 5.70619 2.46924 5.70619 2.34375C5.70619 1.7998 6.01625 1.36182 6.42689 1.23047C6.68519 0.804199 6.97133 0.472168 7.28578 0.260742L7.3185 0.239746L7.34926 0.220215L7.39125 0.194824L7.42494 0.17627C7.46107 0.156738 7.49721 0.138672 7.53383 0.12207C7.57289 0.104492 7.61195 0.0893555 7.6515 0.0756836L7.68959 0.0629883C7.69887 0.0595703 7.70863 0.0566406 7.7184 0.0541992L7.73451 0.0498047C7.74574 0.0463867 7.75697 0.0429688 7.76869 0.0405273C7.79848 0.0332031 7.82826 0.0263672 7.85853 0.0209961C7.88295 0.0166016 7.90785 0.0126953 7.93275 0.00976562C7.98646 0.00341797 8.04066 0 8.09584 0C9.35951 0 10.2824 1.78027 10.8356 4.18311C12.8097 3.56885 14.5006 3.67773 15.132 5.01953C15.8781 6.60498 14.6041 8.68311 13.5641 10L13.6461 10.1025C13.7257 10.2036 13.8053 10.3047 13.8829 10.4053C13.9811 10.5332 14.0753 10.6611 14.1613 10.7891C14.2204 10.8774 14.2731 10.9639 14.3253 11.0503L14.3327 11.063L14.3869 11.1523C14.4845 11.1777 14.5822 11.2085 14.671 11.2715C15.0568 11.5449 15.2106 12.0962 15.0958 12.5986C15.4166 13.521 15.4347 14.3369 15.132 14.9805C14.3829 16.5708 12.2946 16.2686 10.8361 15.8149C10.2829 18.2188 9.36 20 8.09584 20C6.83168 20 5.90883 18.2188 5.35561 15.8149C4.93178 15.9468 4.52064 16.0474 4.13051 16.1069C4.04066 16.2285 3.94545 16.3262 3.83461 16.394C3.81215 16.4077 3.7892 16.4204 3.76527 16.4316C3.72816 16.4497 3.68861 16.4644 3.6476 16.4756C3.58217 16.4937 3.51088 16.5029 3.43373 16.5029C3.15102 16.5029 2.94447 16.3701 2.75502 16.1284ZM14.3283 13.4365C14.2824 13.4443 14.237 13.4585 14.1915 13.4585C13.778 13.4585 13.3859 13.1211 13.2702 12.5898C13.1964 12.2539 13.2311 11.9277 13.4523 11.5791C13.2872 11.3306 13.1788 11.1934 12.9718 10.9326L12.8742 10.8091C12.6657 11.0381 12.4484 11.2651 12.2218 11.4897C11.945 11.7637 11.6549 12.0332 11.3502 12.2979C11.2872 13.1172 11.1915 13.9185 11.0621 14.6782C12.6403 15.166 14.7697 15.3511 14.3283 13.4365ZM11.4293 9.22949C11.6959 9.4834 11.9406 9.74023 12.1793 10C11.9406 10.2598 11.6959 10.5166 11.4293 10.7705C11.4357 10.5332 11.4396 10.3369 11.4406 10.1494C11.4425 9.86182 11.4386 9.59424 11.4293 9.22949ZM12.8742 9.19092C13.5133 8.38135 14.7628 6.57861 14.3038 5.60547C13.8468 4.63428 11.9489 5.04688 11.0621 5.3208C11.1915 6.08105 11.2872 6.88232 11.3502 7.70215C11.9044 8.18311 12.4108 8.68213 12.8742 9.19092ZM5.88051 13.1348C6.02211 13.2422 6.10316 13.3071 6.16859 13.3599L6.17348 13.3643C6.27602 13.4463 6.34096 13.498 6.54652 13.6372L6.64809 13.7056L6.76723 13.7852L6.97816 13.9243C6.84193 13.9917 6.70717 14.0566 6.57387 14.1187C6.39564 14.2012 6.21986 14.2783 6.0475 14.3486C5.98353 13.9634 5.92836 13.5562 5.88051 13.1348ZM6.27504 15.4883C6.74721 17.5244 7.44301 18.8281 8.09584 18.8281C8.74867 18.8281 9.44496 17.5244 9.91664 15.4883C9.31703 15.2461 8.70473 14.9526 8.09584 14.6108C7.48695 14.9526 6.87465 15.2461 6.27504 15.4883ZM9.52455 14.0757C9.42152 14.0269 9.31752 13.9766 9.21254 13.9243C9.79701 13.54 9.86195 13.4883 10.0221 13.3599L10.0954 13.3013C10.1496 13.2583 10.2174 13.2056 10.3107 13.1348C10.2912 13.3057 10.2706 13.4741 10.2487 13.6396C10.2169 13.8833 10.1823 14.1201 10.1437 14.3491C9.94154 14.2666 9.735 14.1748 9.52455 14.0757ZM9.2184 6.0752C9.964 6.56543 9.96107 6.59961 10.3107 6.86523C10.2882 6.66846 10.2643 6.4751 10.2389 6.28564C10.2096 6.06934 10.1779 5.85791 10.1437 5.65332C10.0934 5.67383 10.0431 5.69482 9.99232 5.7168C9.92934 5.74365 9.86586 5.771 9.80238 5.79932L9.64125 5.87256L9.48109 5.94727C9.39418 5.98877 9.30629 6.03125 9.2184 6.0752ZM6.54018 3.52441C6.92396 3.5874 7.23695 3.38037 7.42494 3.06348C7.4474 3.02588 7.46791 2.98682 7.48646 2.94629C7.51869 2.87695 7.54555 2.80371 7.56605 2.72803C7.58217 2.66895 7.59486 2.60791 7.60365 2.54639C7.61293 2.47949 7.61781 2.41162 7.61781 2.34375C7.61781 2.22607 7.6017 2.11475 7.57289 2.01025C7.53432 1.87061 7.47377 1.74316 7.40004 1.62891C7.62953 1.33643 7.86537 1.17188 8.09584 1.17188C8.74867 1.17188 9.44496 2.47559 9.91664 4.51221C9.55336 4.65869 9.18519 4.82617 8.81605 5.01123C8.69398 5.07227 8.57143 5.13574 8.44936 5.20117C8.33168 5.26367 8.214 5.32764 8.09633 5.39355C7.48744 5.05176 6.87465 4.75391 6.27504 4.51172L6.30971 4.36572L6.33803 4.25049C6.36195 4.15576 6.38588 4.06299 6.41029 3.97217C6.45228 3.81738 6.49574 3.66797 6.54018 3.52441ZM6.97328 6.0752C6.65687 5.91797 6.3473 5.77539 6.04799 5.65332C5.98353 6.0376 5.92885 6.44434 5.881 6.86523C6.23256 6.59863 6.22426 6.56738 6.97328 6.0752ZM5.75502 8.34375C6.00062 8.1416 6.22963 7.95996 6.45082 7.79248C6.64711 7.64355 6.83754 7.50586 7.02797 7.37402C7.37123 7.13672 7.71498 6.91846 8.09584 6.69092C8.91664 7.18213 9.5724 7.63184 10.4367 8.34375C10.443 8.45117 10.4484 8.55762 10.4533 8.66357C10.4616 8.84473 10.4684 9.02393 10.4733 9.20215C10.4791 9.40723 10.483 9.61084 10.4845 9.81494C10.4884 10.4175 10.4728 11.02 10.4367 11.6562C9.66615 12.2915 8.96107 12.7964 8.09535 13.314C7.69936 13.0771 7.33607 12.8423 6.98402 12.5957C6.80336 12.4692 6.62562 12.3398 6.44838 12.2056C6.29848 12.0918 6.14857 11.9746 5.99672 11.853C5.91664 11.7886 5.83607 11.7231 5.75502 11.6562C5.69057 10.5303 5.68959 9.49219 5.75502 8.34375ZM5.12953 5.3208C4.23744 5.04541 2.34389 4.63623 1.88783 5.60547C1.42836 6.57959 2.6808 8.38477 3.31752 9.19092C3.7809 8.68213 4.28725 8.18311 4.84144 7.70215C4.86488 7.39453 4.8932 7.08984 4.92592 6.78857C4.96254 6.45605 5.00453 6.12842 5.05189 5.80664C5.07631 5.64307 5.10219 5.48096 5.12953 5.3208ZM4.76186 10.7705C4.70473 10.7158 4.64857 10.6611 4.59291 10.6064C4.39027 10.4062 4.19936 10.2036 4.01186 10C4.25062 9.74023 4.49525 9.4834 4.76186 9.22949C4.74672 9.83105 4.74672 10.168 4.76186 10.7705ZM3.75111 11.269C3.60268 11.1167 3.45814 10.9634 3.31752 10.8091C2.67836 11.6182 1.42885 13.4214 1.88783 14.3945C2.00307 14.6392 2.23695 14.8071 2.55824 14.9048C2.76137 14.2798 3.24867 14.0576 3.67934 14.1987C3.8268 14.2476 3.95766 14.3281 4.06801 14.457C4.1598 14.5645 4.23793 14.7056 4.29945 14.8896C4.41518 14.8667 4.53383 14.8403 4.65492 14.8101C4.80873 14.772 4.96693 14.7275 5.12953 14.6772C5.00014 13.918 4.90443 13.1172 4.84144 12.2979C4.45521 11.9624 4.09242 11.6187 3.75111 11.269Z" fill="white"/>
</svg>
