<?xml version="1.0" encoding="UTF-8" standalone="no"?>
<svg width="22px" height="24px" viewBox="0 0 22 24" version="1.1" xmlns="http://www.w3.org/2000/svg" xmlns:xlink="http://www.w3.org/1999/xlink">
    <!-- Generator: Sketch 50.2 (55047) - http://www.bohemiancoding.com/sketch -->
    <title>atom_white</title>
    <desc>Created with Sketch.</desc>
    <defs></defs>
    <g id="Symbols" stroke="none" stroke-width="1" fill="none" fill-rule="evenodd">
        <g id="Elements-/-Buttons-/-Dropdown-/-Technology-Active" transform="translate(-13.000000, -12.000000)" fill="#FFFFFF" fill-rule="nonzero">
            <g id="atom_white" transform="translate(13.000000, 12.000000)">
                <path d="M10.6810913,14.109375 C11.8441772,14.109375 12.7904663,13.1630859 12.7904663,12 C12.7904663,10.8369141 11.8441772,9.890625 10.6810913,9.890625 C9.51782227,9.890625 8.5717163,10.8369141 8.5717163,12 C8.5717163,13.1630859 9.51782227,14.109375 10.6810913,14.109375 Z" id="Shape"></path>
                <path d="M0.329223656,17.9765625 C0.802734375,18.796875 1.69299319,19.21875 2.82366942,19.3538818 C3.10198973,19.644104 3.40576172,19.803772 3.82214353,19.803772 C4.27679442,19.803772 4.57910156,19.6248779 4.84716797,19.328064 C5.42102053,19.2566528 6.02563477,19.1363526 6.6496582,18.9781494 C7.46337891,21.862793 8.82110597,24 10.6810913,24 C12.5408935,24 13.8986206,21.862793 14.7123413,18.9781494 C16.8583374,19.5223388 19.9312134,19.8848877 21.032959,17.9765625 C21.4786377,17.2040405 21.4519043,16.2249756 20.9798584,15.1186523 C21.1484985,14.5155029 20.9225464,13.854126 20.3551026,13.5258179 C20.2241821,13.4501953 20.0808105,13.4133911 19.9370728,13.3829956 C19.828125,13.2379761 19.7259521,13.0944214 19.6047363,12.9468384 C19.3450927,12.6315308 19.0319824,12.3156738 18.7263794,12 C20.2564087,10.4196167 22.1306763,7.92608644 21.032959,6.0234375 C20.104248,4.41357422 17.6162109,4.2826538 14.711792,5.01983644 C13.8980713,2.13610838 12.5405273,0 10.6810913,0 C9.72857667,0 8.90991211,0.555725109 8.22564698,1.47637941 C7.62176512,1.6340332 7.1654663,2.15991211 7.1654663,2.8125 C7.1654663,2.96282958 7.20739744,3.10089112 7.25134275,3.2369385 C7.02593995,3.77050781 6.82543945,4.39892578 6.65039062,5.0194702 C3.74670412,4.28283694 1.25885011,4.41375731 0.329223656,6.0234375 C-0.768310547,7.92553711 1.10449219,10.4185181 2.63562009,12 C1.10559084,13.5803833 -0.768676781,16.0739136 0.329223656,17.9765625 Z M19.649231,16.1500854 C19.7164307,16.1500854 19.7832642,16.1332397 19.8504638,16.1237183 C20.5001221,18.4211426 17.3673706,18.1990357 15.0452271,17.6140137 C15.2352905,16.7023315 15.3762817,15.7408448 15.46875,14.7572021 C16.2844849,14.1798706 17.0293579,13.5812988 17.7110596,12.9708252 C18.1142578,13.3870239 18.2834473,13.5534668 18.5614013,13.8949585 C18.236206,14.3133545 18.185669,14.7044677 18.2938843,15.1078491 C18.4639893,15.7450561 19.0409546,16.1500854 19.649231,16.1500854 Z M15.5857544,11.0755005 C15.9779663,11.380188 16.3379517,11.6885376 16.6895142,12 C16.3379517,12.3116455 15.9779663,12.619812 15.5857544,12.9244995 C15.6084595,12.2028809 15.6086426,11.798584 15.5857544,11.0755005 Z M19.8147583,6.7265625 C20.489685,7.8945923 18.6514893,10.0579834 17.7110596,11.0291748 C17.0293579,10.4187012 16.2844849,9.82012941 15.4689331,9.24279787 C15.3762817,8.25897216 15.2352905,7.29730223 15.045044,6.385437 C16.3494873,6.05676272 19.1422119,5.56146239 19.8147583,6.7265625 Z M7.42218019,15.7619018 C8.13006591,16.2000732 7.8112793,16.0523071 9.03717042,16.7092896 C8.56915284,16.8988037 8.11083984,17.071106 7.66809084,17.2183228 C7.57342528,16.7565307 7.49249269,16.2678223 7.42218019,15.7619018 Z M10.6810913,22.59375 C9.72033694,22.59375 8.69641116,21.02948 8.00207522,18.5859375 C8.88409425,18.2955323 9.78533934,17.9436035 10.6810913,17.5332642 C11.5766602,17.9436035 12.4779052,18.2955323 13.3599243,18.5859375 C12.6655884,21.02948 11.6416626,22.59375 10.6810913,22.59375 Z M13.6937256,17.2190552 C13.2509766,17.0716552 12.7921143,16.899353 12.3239136,16.7096557 C13.5368042,16.0594482 13.2284546,16.2022705 13.9396362,15.7619018 C13.8693237,16.2681885 13.7885742,16.7570801 13.6937256,17.2190552 Z M13.9398193,8.23809816 C13.4254761,7.91967773 13.4300537,7.87829588 12.3328857,7.28997802 C12.7981567,7.10174559 13.2540893,6.93035887 13.694458,6.7838745 C13.7889404,7.24511719 13.8695068,7.73291016 13.9398193,8.23809816 Z M8.39190675,4.229187 C9.32739258,4.35461428 9.9779663,3.59033203 9.9779663,2.8125 C9.9779663,2.48382567 9.84704588,2.19433594 9.65716552,1.95465089 C9.99517823,1.60345458 10.34198,1.40625 10.6810913,1.40625 C11.6416626,1.40625 12.6657715,2.97088622 13.3601074,5.41461183 C12.4779053,5.70483398 11.5772095,6.06243895 10.6814575,6.47241211 C9.78552244,6.06225586 8.88446044,5.70465089 8.00207522,5.4140625 C8.12274169,4.98925781 8.25329588,4.59466552 8.39190675,4.229187 Z M7.66772461,6.7838745 C8.10809325,6.93035887 8.56384275,7.10174559 9.02947997,7.28997802 C7.92718505,7.88085938 7.93927003,7.9180298 7.42236328,8.23809816 C7.49249269,7.73291016 7.57305909,7.24511719 7.66772461,6.7838745 Z M7.23706055,10.0123901 C8.49682617,9.16571044 9.45959475,8.62463381 10.6810913,8.02899169 C11.8890381,8.61822511 12.8536377,9.15802003 14.1251221,10.0123901 C14.2194214,11.3637085 14.2214355,12.6097412 14.1251221,13.9876099 C12.991333,14.7495117 11.9545898,15.3555908 10.680542,15.9768677 C9.41235352,15.3579712 8.37432862,14.7518921 7.23706055,13.9876099 C7.14257812,12.6362915 7.14074709,11.3902588 7.23706055,10.0123901 Z M1.54724119,6.7265625 C2.21868895,5.56347656 5.00463867,6.05456541 6.31695558,6.385437 C6.12689208,7.29711914 5.98590089,8.25897216 5.8932495,9.24279787 C5.07769777,9.82012941 4.33282472,10.4187012 3.65093995,11.0293579 C2.71417237,10.0618286 0.871582031,7.89569091 1.54724119,6.7265625 Z M5.77624509,12.9244995 C5.3840332,12.619812 5.02404787,12.3114624 4.67248537,12 C5.02404787,11.6883545 5.3840332,11.380188 5.77624509,11.0755005 C5.75354006,11.7971191 5.75354006,12.201416 5.77624509,12.9244995 Z M3.65093995,12.9708252 C4.33282472,13.5812988 5.07769777,14.1798706 5.8932495,14.7572021 C5.98571775,15.7404785 6.12670898,16.7017822 6.31658934,17.6129151 C5.88848878,17.7207642 5.48162841,17.8049927 5.09582522,17.8676147 C4.895874,17.3811035 4.58129883,17.1454468 4.18322756,17.0386963 C3.5494995,16.8689575 2.83245848,17.1355591 2.53399659,17.8855591 C2.06103516,17.7685547 1.71679687,17.5669556 1.54724119,17.2734375 C0.872314453,16.1054077 2.71051027,13.9420166 3.65093995,12.9708252 Z" id="Shape"></path>
            </g>
        </g>
    </g>
</svg>