<svg width="24" height="24" viewBox="0 0 24 24" fill="none" xmlns="http://www.w3.org/2000/svg">
<path fill-rule="evenodd" clip-rule="evenodd" d="M8.55408 16H15.446L14 12.3852L14.0198 10H10.017L10 12.3852L8.55408 16ZM7.75405 18L6.95404 20L17.0519 20.015L16.2459 18H7.75405ZM16 10V12L19.257 20.1425C19.6674 21.1684 19.1055 22 17.9979 22H6.00214C4.8964 22 4.33417 21.1646 4.74301 20.1425L8.00002 12V10H7.49559C6.94575 10 6.50002 9.55614 6.50002 9C6.50002 8.44772 6.94485 8 7.49559 8H16.5044C17.0543 8 17.5 8.44386 17.5 9C17.5 9.55228 17.0552 10 16.5044 10H16ZM14 4C13.4477 4 13 3.55228 13 3C13 2.44772 13.4477 2 14 2C14.5523 2 15 2.44772 15 3C15 3.55228 14.5523 4 14 4ZM10.5 7C9.67157 7 9 6.32843 9 5.5C9 4.67157 9.67157 4 10.5 4C11.3284 4 12 4.67157 12 5.5C12 6.32843 11.3284 7 10.5 7Z" fill="#0A6FE4"/>
</svg>
