<svg width="18" height="18" viewBox="0 0 18 18" fill="none" xmlns="http://www.w3.org/2000/svg">
<g id="Biotechno White">
<rect id="Rectangle 4 Copy 2" width="18" height="18" fill="#F4F7FB" fill-opacity="0.01"/>
<g id="leaf (1) copy 3">
<path id="Shape" fill-rule="evenodd" clip-rule="evenodd" d="M8.22778 1.18542C8.41675 0.938232 8.83252 0.938232 9.02173 1.18542C9.30591 1.55566 15.9519 10.3064 13.8079 14.6517C13.0388 16.2097 11.2957 16.9998 8.625 16.9998C5.95435 16.9998 4.21118 16.2097 3.44214 14.6517C1.2981 10.3064 7.94409 1.55566 8.22778 1.18542ZM9.12524 15.9816C11.0911 15.8955 12.3694 15.3046 12.9104 14.2089C14.3601 11.2705 10.6172 5.07947 8.625 2.32812C6.63257 5.08044 2.89062 11.2729 4.3396 14.2094C4.88062 15.3052 6.15894 15.8955 8.12451 15.9816V13.9978C8.12451 12.5853 6.87231 12.4998 6.62109 12.4967L6.62354 11.4961C7.03589 11.4961 7.6228 11.6172 8.12451 11.9559V9.99512C8.12451 8.58264 6.87231 8.49707 6.62109 8.49414L6.62354 7.49341C7.03589 7.49341 7.6228 7.6145 8.12451 7.95325V4.98132H9.12524V7.95325C9.6272 7.61511 10.2141 7.49341 10.6262 7.49341L10.6287 8.49414C10.3777 8.49707 9.12524 8.58264 9.12524 9.99512V11.9559C9.6272 11.6177 10.2141 11.4961 10.6262 11.4961L10.6287 12.4967C10.3777 12.4998 9.12524 12.5853 9.12524 13.9978V15.9816Z" fill="white"/>
</g>
</g>
</svg>
