<svg width="18" height="18" viewBox="0 0 18 18" fill="none" xmlns="http://www.w3.org/2000/svg">
<g id="Blockchain White">
<rect id="Rectangle 4 Copy 5" width="18" height="18" fill="#F4F7FB" fill-opacity="0.01"/>
<g id="cryptocurrency">
<g id="Shape">
<path fill-rule="evenodd" clip-rule="evenodd" d="M7.26221 8.98438C7.26221 8.02612 8.04175 7.24658 9 7.24658C9.95825 7.24658 10.7378 8.02612 10.7378 8.98438C10.7378 9.94263 9.95825 10.7222 9 10.7222C8.04175 10.7222 7.26221 9.9425 7.26221 8.98438ZM7.73193 8.98438C7.73193 9.68359 8.30078 10.2524 9 10.2524C9.69922 10.2524 10.2681 9.68359 10.2681 8.98438C10.2681 8.28516 9.69922 7.71631 9 7.71631C8.30078 7.71631 7.73193 8.28516 7.73193 8.98438Z" fill="white"/>
<path d="M9 7.14658C7.98652 7.14658 7.16221 7.97089 7.16221 8.98438H7.36221C7.36221 8.08135 8.09698 7.34658 9 7.34658V7.14658ZM10.8378 8.98438C10.8378 7.97089 10.0135 7.14658 9 7.14658V7.34658C9.90302 7.34658 10.6378 8.08135 10.6378 8.98438H10.8378ZM9 10.8222C10.0135 10.8222 10.8378 9.99786 10.8378 8.98438H10.6378C10.6378 9.8874 9.90302 10.6222 9 10.6222V10.8222ZM7.16221 8.98438C7.16221 9.99773 7.98651 10.8222 9 10.8222V10.6222C8.09698 10.6222 7.36221 9.88728 7.36221 8.98438H7.16221ZM9 10.1524C8.35601 10.1524 7.83193 9.62837 7.83193 8.98438H7.63193C7.63193 9.73882 8.24555 10.3524 9 10.3524V10.1524ZM10.1681 8.98438C10.1681 9.62837 9.64399 10.1524 9 10.1524V10.3524C9.75445 10.3524 10.3681 9.73882 10.3681 8.98438H10.1681ZM9 7.81631C9.64399 7.81631 10.1681 8.34038 10.1681 8.98438H10.3681C10.3681 8.22993 9.75445 7.61631 9 7.61631V7.81631ZM7.83193 8.98438C7.83193 8.34038 8.35601 7.81631 9 7.81631V7.61631C8.24555 7.61631 7.63193 8.22993 7.63193 8.98438H7.83193Z" fill="white"/>
</g>
<g id="Shape_2">
<path fill-rule="evenodd" clip-rule="evenodd" d="M16.2642 7.00391C15.9407 7.00391 15.6653 7.19958 15.5669 7.51282H13.0078V9.51672H11.6907C11.7046 9.43457 11.7144 9.35767 11.7207 9.28247C11.729 9.18567 11.7319 9.09155 11.7319 8.99219C11.7319 7.56067 10.6282 6.37427 9.21924 6.25488V4.47559H12.8118C12.9099 4.75745 13.1853 4.96875 13.5088 4.96875C13.9146 4.96875 14.2446 4.63477 14.2446 4.229C14.2446 3.82324 13.9146 3.49902 13.5088 3.49902C13.1853 3.49902 12.9099 3.69275 12.8118 4.00586H8.74951V6.25488C8.18579 6.30457 7.65356 6.53687 7.21533 6.89429V6.26038H4.20947V4.17078C4.52246 4.07251 4.71826 3.79724 4.71826 3.47363C4.71826 3.06787 4.39209 2.73779 3.98633 2.73779C3.58057 2.73779 3.24463 3.06787 3.24463 3.47363C3.24463 3.79724 3.45801 4.07251 3.73975 4.17078V6.72998H6.74561V7.40686C6.7019 7.48242 6.65625 7.56519 6.61182 7.651L6.58472 7.70422L6.55566 7.76331H2.43311C2.33472 7.4502 2.05957 7.25439 1.73584 7.25439C1.33008 7.25439 1 7.58057 1 7.98633C1 8.39209 1.33008 8.72803 1.73584 8.72803C2.05933 8.72803 2.33472 8.51477 2.43311 8.23291H6.36963C6.3396 8.32568 6.31543 8.42957 6.29761 8.5387C6.28418 8.62012 6.27441 8.70447 6.26807 8.78931C6.26294 8.85974 6.26025 8.93042 6.26025 9C6.26025 9.3595 6.33008 9.67322 6.4563 10.0177H4.43677C4.33862 9.70459 4.06323 9.50891 3.73975 9.50891C3.33398 9.50891 3.00391 9.83496 3.00391 10.2407C3.00391 10.6465 3.33398 10.9824 3.73975 10.9824C4.06323 10.9824 4.33862 10.7692 4.43677 10.4873H6.7002C6.96313 10.863 7.34058 11.2086 7.74756 11.4286V13.775H6.19043C6.09204 13.4619 5.81689 13.2662 5.49316 13.2662C5.0874 13.2662 4.75732 13.5924 4.75732 13.998C4.75732 14.4038 5.0874 14.7397 5.49316 14.7397C5.81665 14.7397 6.09204 14.5265 6.19043 14.2446H8.21729V11.6146C8.46777 11.6858 8.71802 11.7241 8.98438 11.7241C9.13892 11.7241 9.29077 11.7113 9.43872 11.6865C9.72876 11.6381 10.0037 11.5442 10.2524 11.4125V13.9941H11.8096C11.908 14.276 12.1831 14.4873 12.5068 14.4873C12.9126 14.4873 13.2427 14.1533 13.2427 13.7477C13.2427 13.3419 12.9126 13.0177 12.5068 13.0177C12.1831 13.0177 11.908 13.2114 11.8096 13.5245H10.7222V11.101C11.0979 10.8033 11.384 10.4248 11.5559 9.98633H13.4775V7.98242H15.5669C15.6653 8.26428 15.9404 8.47559 16.2642 8.47559C16.6699 8.47559 17 8.14551 17 7.73987C17 7.33398 16.6699 7.00391 16.2642 7.00391ZM13.5088 3.95898C13.6555 3.95898 13.7749 4.07837 13.7749 4.2251C13.7749 4.37195 13.6555 4.49133 13.5088 4.49133C13.3621 4.49133 13.2427 4.37195 13.2427 4.2251C13.2427 4.07837 13.3621 3.95898 13.5088 3.95898ZM3.72412 3.47351C3.72412 3.62036 3.84351 3.73975 3.99023 3.73975C4.13696 3.73975 4.25635 3.62036 4.25635 3.47351C4.25635 3.32678 4.13696 3.2074 3.99023 3.2074C3.84351 3.2074 3.72412 3.32678 3.72412 3.47351ZM1.73584 8.24866C1.58911 8.24866 1.46973 8.12927 1.46973 7.98242C1.46973 7.92029 1.49121 7.86316 1.52686 7.81787C1.53369 7.80945 1.54077 7.80139 1.54858 7.79382C1.55444 7.78784 1.56055 7.78223 1.56714 7.77686C1.58447 7.76257 1.60352 7.75049 1.62402 7.74097C1.63159 7.73743 1.6394 7.73425 1.64722 7.73145C1.65576 7.72839 1.66431 7.72583 1.67334 7.72363C1.69336 7.71887 1.71436 7.71631 1.73584 7.71631C1.88257 7.71631 2.00195 7.83569 2.00195 7.98242C2.00195 8.12927 1.88257 8.24866 1.73584 8.24866ZM3.47363 10.2368C3.47363 10.3837 3.59302 10.5031 3.73975 10.5031C3.88647 10.5031 4.00586 10.3835 4.00586 10.2368C4.00586 10.1976 3.99731 10.1604 3.98193 10.127C3.96509 10.0897 3.9397 10.057 3.90845 10.0312C3.86255 9.99341 3.80371 9.9707 3.73975 9.9707C3.67896 9.9707 3.62305 9.99121 3.57812 10.0256C3.51465 10.0742 3.47363 10.1509 3.47363 10.2368ZM5.49316 14.2604C5.34644 14.2604 5.22705 14.141 5.22705 13.9941C5.22705 13.8474 5.34644 13.728 5.49316 13.728C5.63989 13.728 5.75928 13.8474 5.75928 13.9941C5.75928 14.141 5.63989 14.2604 5.49316 14.2604ZM12.7046 13.5657C12.679 13.5374 12.6475 13.5145 12.6121 13.4991C12.5913 13.4902 12.5691 13.4839 12.5461 13.4805C12.5334 13.4785 12.5203 13.4775 12.5068 13.4775C12.4463 13.4775 12.3904 13.4979 12.3457 13.5321C12.282 13.5808 12.2407 13.6575 12.2407 13.7437C12.2407 13.8905 12.3601 14.0099 12.5068 14.0099C12.6536 14.0099 12.7729 13.8904 12.7729 13.7437C12.7729 13.7063 12.7651 13.6707 12.7512 13.6383C12.7397 13.6116 12.7239 13.587 12.7046 13.5657ZM9 11.2545C7.74829 11.2545 6.72998 10.2361 6.72998 8.98438C6.72998 7.73267 7.74829 6.71436 9 6.71436C10.2517 6.71436 11.27 7.73267 11.27 8.98438C11.27 10.2361 10.2517 11.2545 9 11.2545ZM15.998 7.73193C15.998 7.87878 16.1174 7.99817 16.2642 7.99817C16.4109 7.99817 16.5303 7.87878 16.5303 7.73193C16.5303 7.58521 16.4109 7.46582 16.2642 7.46582C16.1174 7.46582 15.998 7.58521 15.998 7.73193Z" fill="white"/>
<path d="M15.5669 7.51282V7.61282H15.6403L15.6623 7.54278L15.5669 7.51282ZM13.0078 7.51282V7.41282H12.9078V7.51282H13.0078ZM13.0078 9.51672V9.61672H13.1078V9.51672H13.0078ZM11.6907 9.51672L11.5921 9.50002L11.5723 9.61672H11.6907V9.51672ZM11.7207 9.28247L11.6211 9.27393L11.6211 9.27406L11.7207 9.28247ZM9.21924 6.25488H9.11924V6.34677L9.2108 6.35453L9.21924 6.25488ZM9.21924 4.47559V4.37559H9.11924V4.47559H9.21924ZM12.8118 4.47559L12.9062 4.4427L12.8828 4.37559H12.8118V4.47559ZM12.8118 4.00586V4.10586H12.8852L12.9072 4.03577L12.8118 4.00586ZM8.74951 4.00586V3.90586H8.64951V4.00586H8.74951ZM8.74951 6.25488L8.75829 6.3545L8.84951 6.34646V6.25488H8.74951ZM7.21533 6.89429H7.11533V7.10489L7.27854 6.97178L7.21533 6.89429ZM7.21533 6.26038H7.31533V6.16038H7.21533V6.26038ZM4.20947 6.26038H4.10947V6.36038H4.20947V6.26038ZM4.20947 4.17078L4.17952 4.07537L4.10947 4.09736V4.17078H4.20947ZM3.73975 4.17078H3.83975V4.09975L3.77268 4.07635L3.73975 4.17078ZM3.73975 6.72998H3.63975V6.82998H3.73975V6.72998ZM6.74561 6.72998H6.84561V6.62998H6.74561V6.72998ZM6.74561 7.40686L6.83217 7.45693L6.84561 7.4337V7.40686H6.74561ZM6.61182 7.651L6.52301 7.60502L6.5227 7.60563L6.61182 7.651ZM6.58472 7.70422L6.49559 7.65884L6.49498 7.6601L6.58472 7.70422ZM6.55566 7.76331V7.86331H6.61793L6.6454 7.80743L6.55566 7.76331ZM2.43311 7.76331L2.3377 7.79328L2.35971 7.86331H2.43311V7.76331ZM2.43311 8.23291V8.13291H2.36209L2.33869 8.19995L2.43311 8.23291ZM6.36963 8.23291L6.46477 8.26371L6.50711 8.13291H6.36963V8.23291ZM6.29761 8.5387L6.39627 8.55497L6.3963 8.55481L6.29761 8.5387ZM6.26807 8.78931L6.16834 8.78185L6.16833 8.78205L6.26807 8.78931ZM6.4563 10.0177V10.1177H6.59944L6.55019 9.9833L6.4563 10.0177ZM4.43677 10.0177L4.34135 10.0476L4.36332 10.1177H4.43677V10.0177ZM4.43677 10.4873V10.3873H4.3657L4.34233 10.4544L4.43677 10.4873ZM6.7002 10.4873L6.78213 10.43L6.75227 10.3873H6.7002V10.4873ZM7.74756 11.4286H7.84756V11.369L7.79511 11.3406L7.74756 11.4286ZM7.74756 13.775V13.875H7.84756V13.775H7.74756ZM6.19043 13.775L6.09503 13.805L6.11703 13.875H6.19043V13.775ZM6.19043 14.2446V14.1446H6.11942L6.09602 14.2117L6.19043 14.2446ZM8.21729 14.2446V14.3446H8.31729V14.2446H8.21729ZM8.21729 11.6146L8.24461 11.5184L8.11729 11.4823V11.6146H8.21729ZM9.43872 11.6865L9.42224 11.5879L9.4222 11.5879L9.43872 11.6865ZM10.2524 11.4125H10.3524V11.2464L10.2057 11.3241L10.2524 11.4125ZM10.2524 13.9941H10.1524V14.0941H10.2524V13.9941ZM11.8096 13.9941L11.904 13.9612L11.8806 13.8941H11.8096V13.9941ZM11.8096 13.5245V13.6245H11.883L11.905 13.5545L11.8096 13.5245ZM10.7222 13.5245H10.6222V13.6245H10.7222V13.5245ZM10.7222 11.101L10.6601 11.0226L10.6222 11.0526V11.101H10.7222ZM11.5559 9.98633V9.88633H11.4877L11.4628 9.94983L11.5559 9.98633ZM13.4775 9.98633V10.0863H13.5775V9.98633H13.4775ZM13.4775 7.98242V7.88242H13.3775V7.98242H13.4775ZM15.5669 7.98242L15.6613 7.94947L15.6379 7.88242H15.5669V7.98242ZM1.52686 7.81787L1.4492 7.75485L1.44828 7.75602L1.52686 7.81787ZM1.54858 7.79382L1.61819 7.86567L1.62002 7.8638L1.54858 7.79382ZM1.56714 7.77686L1.63031 7.85438L1.63073 7.85403L1.56714 7.77686ZM1.62402 7.74097L1.66613 7.83167L1.66639 7.83155L1.62402 7.74097ZM1.64722 7.73145L1.61358 7.63727L1.6134 7.63734L1.64722 7.73145ZM1.67334 7.72363L1.6502 7.62634L1.6497 7.62647L1.67334 7.72363ZM3.98193 10.127L3.89082 10.1682L3.89108 10.1687L3.98193 10.127ZM3.90845 10.0312L3.84483 10.1084L3.84484 10.1084L3.90845 10.0312ZM3.57812 10.0256L3.6389 10.105L3.63895 10.105L3.57812 10.0256ZM12.6121 13.4991L12.6519 13.4074L12.6515 13.4073L12.6121 13.4991ZM12.7046 13.5657L12.7788 13.4987L12.7787 13.4986L12.7046 13.5657ZM12.5461 13.4805L12.5309 13.5793L12.5314 13.5794L12.5461 13.4805ZM12.3457 13.5321L12.4064 13.6116L12.4065 13.6115L12.3457 13.5321ZM12.7512 13.6383L12.6593 13.6777L12.6594 13.6778L12.7512 13.6383ZM15.6623 7.54278C15.7473 7.27222 15.9833 7.10391 16.2642 7.10391V6.90391C15.898 6.90391 15.5833 7.12695 15.4715 7.48285L15.6623 7.54278ZM13.0078 7.61282H15.5669V7.41282H13.0078V7.61282ZM13.1078 9.51672V7.51282H12.9078V9.51672H13.1078ZM11.6907 9.61672H13.0078V9.41672H11.6907V9.61672ZM11.6211 9.27406C11.615 9.34632 11.6056 9.42046 11.5921 9.50002L11.7893 9.53342C11.8036 9.44868 11.8138 9.36901 11.8203 9.29088L11.6211 9.27406ZM11.6319 8.99219C11.6319 9.08955 11.6291 9.1807 11.6211 9.27393L11.8203 9.29101C11.8289 9.19064 11.8319 9.09356 11.8319 8.99219H11.6319ZM9.2108 6.35453C10.5682 6.46955 11.6319 7.6129 11.6319 8.99219H11.8319C11.8319 7.50843 10.6881 6.27899 9.22768 6.15524L9.2108 6.35453ZM9.11924 4.47559V6.25488H9.31924V4.47559H9.11924ZM12.8118 4.37559H9.21924V4.57559H12.8118V4.37559ZM13.5088 4.86875C13.2293 4.86875 12.9908 4.68579 12.9062 4.4427L12.7173 4.50847C12.829 4.8291 13.1413 5.06875 13.5088 5.06875V4.86875ZM14.1446 4.229C14.1446 4.58023 13.8586 4.86875 13.5088 4.86875V5.06875C13.9705 5.06875 14.3446 4.6893 14.3446 4.229H14.1446ZM13.5088 3.59902C13.8604 3.59902 14.1446 3.87951 14.1446 4.229H14.3446C14.3446 3.76697 13.9687 3.39902 13.5088 3.39902V3.59902ZM12.9072 4.03577C12.9918 3.76581 13.2275 3.59902 13.5088 3.59902V3.39902C13.1431 3.39902 12.828 3.61969 12.7163 3.97595L12.9072 4.03577ZM8.74951 4.10586H12.8118V3.90586H8.74951V4.10586ZM8.84951 6.25488V4.00586H8.64951V6.25488H8.84951ZM7.27854 6.97178C7.7027 6.62583 8.21631 6.40226 8.75829 6.3545L8.74073 6.15527C8.15528 6.20687 7.60443 6.4479 7.15213 6.81679L7.27854 6.97178ZM7.11533 6.26038V6.89429H7.31533V6.26038H7.11533ZM4.20947 6.36038H7.21533V6.16038H4.20947V6.36038ZM4.10947 4.17078V6.26038H4.30947V4.17078H4.10947ZM4.61826 3.47363C4.61826 3.75459 4.44984 3.9905 4.17952 4.07537L4.23943 4.26618C4.59508 4.15452 4.81826 3.83989 4.81826 3.47363H4.61826ZM3.98633 2.83779C4.33617 2.83779 4.61826 3.1224 4.61826 3.47363H4.81826C4.81826 3.01334 4.44801 2.63779 3.98633 2.63779V2.83779ZM3.34463 3.47363C3.34463 3.12413 3.63476 2.83779 3.98633 2.83779V2.63779C3.52637 2.63779 3.14463 3.01161 3.14463 3.47363H3.34463ZM3.77268 4.07635C3.52922 3.99144 3.34463 3.75275 3.34463 3.47363H3.14463C3.14463 3.84173 3.38679 4.15358 3.70681 4.2652L3.77268 4.07635ZM3.83975 6.72998V4.17078H3.63975V6.72998H3.83975ZM6.74561 6.62998H3.73975V6.82998H6.74561V6.62998ZM6.84561 7.40686V6.72998H6.64561V7.40686H6.84561ZM6.70062 7.69698C6.74428 7.61265 6.78918 7.53125 6.83217 7.45693L6.65904 7.3568C6.61463 7.43359 6.56822 7.51772 6.52301 7.60502L6.70062 7.69698ZM6.67383 7.7496L6.70093 7.69638L6.5227 7.60563L6.4956 7.65885L6.67383 7.7496ZM6.6454 7.80743L6.67445 7.74835L6.49498 7.6601L6.46593 7.71918L6.6454 7.80743ZM2.43311 7.86331H6.55566V7.66331H2.43311V7.86331ZM1.73584 7.35439C2.0169 7.35439 2.25271 7.5228 2.3377 7.79328L2.52851 7.73333C2.41672 7.37759 2.10225 7.15439 1.73584 7.15439V7.35439ZM1.1 7.98633C1.1 7.63649 1.38461 7.35439 1.73584 7.35439V7.15439C1.27554 7.15439 0.9 7.52465 0.9 7.98633H1.1ZM1.73584 8.62803C1.38633 8.62803 1.1 8.33789 1.1 7.98633H0.9C0.9 8.44628 1.27382 8.82803 1.73584 8.82803V8.62803ZM2.33869 8.19995C2.25367 8.44353 2.01486 8.62803 1.73584 8.62803V8.82803C2.10379 8.82803 2.41577 8.58601 2.52752 8.26587L2.33869 8.19995ZM6.36963 8.13291H2.43311V8.33291H6.36963V8.13291ZM6.3963 8.55481C6.41346 8.44972 6.43656 8.35085 6.46477 8.26371L6.27449 8.20211C6.24264 8.30051 6.2174 8.40942 6.19892 8.52258L6.3963 8.55481ZM6.36779 8.79677C6.37394 8.71457 6.38338 8.63318 6.39627 8.55497L6.19894 8.52242C6.18498 8.60705 6.17489 8.69436 6.16834 8.78185L6.36779 8.79677ZM6.36025 9C6.36025 8.93297 6.36284 8.86471 6.3678 8.79657L6.16833 8.78205C6.16304 8.85477 6.16025 8.92787 6.16025 9H6.36025ZM6.55019 9.9833C6.42695 9.64694 6.36025 9.34503 6.36025 9H6.16025C6.16025 9.37397 6.23321 9.6995 6.3624 10.0521L6.55019 9.9833ZM4.43677 10.1177H6.4563V9.9177H4.43677V10.1177ZM3.73975 9.60891C4.02062 9.60891 4.2566 9.77724 4.34135 10.0476L4.53219 9.98779C4.42065 9.63194 4.10585 9.40891 3.73975 9.40891V9.60891ZM3.10391 10.2407C3.10391 9.8909 3.3885 9.60891 3.73975 9.60891V9.40891C3.27947 9.40891 2.90391 9.77902 2.90391 10.2407H3.10391ZM3.73975 10.8824C3.39024 10.8824 3.10391 10.5923 3.10391 10.2407H2.90391C2.90391 10.7007 3.27773 11.0824 3.73975 11.0824V10.8824ZM4.34233 10.4544C4.25754 10.6979 4.01878 10.8824 3.73975 10.8824V11.0824C4.10769 11.0824 4.4197 10.8404 4.53121 10.5202L4.34233 10.4544ZM6.7002 10.3873H4.43677V10.5873H6.7002V10.3873ZM7.79511 11.3406C7.40261 11.1285 7.03668 10.7937 6.78213 10.43L6.61826 10.5446C6.88959 10.9324 7.27854 11.2888 7.70001 11.5166L7.79511 11.3406ZM7.84756 13.775V11.4286H7.64756V13.775H7.84756ZM6.19043 13.875H7.74756V13.675H6.19043V13.875ZM5.49316 13.3662C5.77425 13.3662 6.01004 13.5345 6.09503 13.805L6.28583 13.745C6.17404 13.3893 5.85954 13.1662 5.49316 13.1662V13.3662ZM4.85732 13.998C4.85732 13.6483 5.14192 13.3662 5.49316 13.3662V13.1662C5.03288 13.1662 4.65732 13.5365 4.65732 13.998H4.85732ZM5.49316 14.6397C5.14366 14.6397 4.85732 14.3496 4.85732 13.998H4.65732C4.65732 14.458 5.03115 14.8397 5.49316 14.8397V14.6397ZM6.09602 14.2117C6.01099 14.4552 5.77218 14.6397 5.49316 14.6397V14.8397C5.86112 14.8397 6.17309 14.5977 6.28484 14.2776L6.09602 14.2117ZM8.21729 14.1446H6.19043V14.3446H8.21729V14.1446ZM8.11729 11.6146V14.2446H8.31729V11.6146H8.11729ZM8.98438 11.6241C8.72804 11.6241 8.48699 11.5873 8.24461 11.5184L8.18996 11.7108C8.44855 11.7843 8.708 11.8241 8.98438 11.8241V11.6241ZM9.4222 11.5879C9.27971 11.6118 9.13338 11.6241 8.98438 11.6241V11.8241C9.14445 11.8241 9.30183 11.8108 9.45524 11.7851L9.4222 11.5879ZM10.2057 11.3241C9.9664 11.4508 9.70173 11.5412 9.42224 11.5879L9.4552 11.7852C9.75578 11.7349 10.0409 11.6376 10.2992 11.5009L10.2057 11.3241ZM10.3524 13.9941V11.4125H10.1524V13.9941H10.3524ZM11.8096 13.8941H10.2524V14.0941H11.8096V13.8941ZM12.5068 14.3873C12.2272 14.3873 11.9889 14.2044 11.904 13.9612L11.7152 14.0271C11.827 14.3476 12.139 14.5873 12.5068 14.5873V14.3873ZM13.1427 13.7477C13.1427 14.0988 12.8567 14.3873 12.5068 14.3873V14.5873C12.9685 14.5873 13.3427 14.2079 13.3427 13.7477H13.1427ZM12.5068 13.1177C12.8584 13.1177 13.1427 13.3982 13.1427 13.7477H13.3427C13.3427 13.2857 12.9668 12.9177 12.5068 12.9177V13.1177ZM11.905 13.5545C11.9898 13.2845 12.2253 13.1177 12.5068 13.1177V12.9177C12.1409 12.9177 11.8261 13.1384 11.7142 13.4946L11.905 13.5545ZM10.7222 13.6245H11.8096V13.4245H10.7222V13.6245ZM10.6222 11.101V13.5245H10.8222V11.101H10.6222ZM11.4628 9.94983C11.2977 10.3711 11.0226 10.7354 10.6601 11.0226L10.7843 11.1793C11.1732 10.8713 11.4704 10.4786 11.649 10.0228L11.4628 9.94983ZM13.4775 9.88633H11.5559V10.0863H13.4775V9.88633ZM13.3775 7.98242V9.98633H13.5775V7.98242H13.3775ZM15.5669 7.88242H13.4775V8.08242H15.5669V7.88242ZM16.2642 8.37559C15.9845 8.37559 15.7462 8.19265 15.6613 7.94947L15.4725 8.01538C15.5844 8.33592 15.8964 8.57559 16.2642 8.57559V8.37559ZM16.9 7.73987C16.9 8.09027 16.6147 8.37559 16.2642 8.37559V8.57559C16.7251 8.57559 17.1 8.20075 17.1 7.73987H16.9ZM16.2642 7.10391C16.6147 7.10391 16.9 7.3892 16.9 7.73987H17.1C17.1 7.27877 16.7252 6.90391 16.2642 6.90391V7.10391ZM13.8749 4.2251C13.8749 4.02314 13.7107 3.85898 13.5088 3.85898V4.05898C13.6003 4.05898 13.6749 4.1336 13.6749 4.2251H13.8749ZM13.5088 4.59133C13.7108 4.59133 13.8749 4.42715 13.8749 4.2251H13.6749C13.6749 4.31675 13.6003 4.39133 13.5088 4.39133V4.59133ZM13.1427 4.2251C13.1427 4.42715 13.3068 4.59133 13.5088 4.59133V4.39133C13.4173 4.39133 13.3427 4.31675 13.3427 4.2251H13.1427ZM13.5088 3.85898C13.3068 3.85898 13.1427 4.02314 13.1427 4.2251H13.3427C13.3427 4.1336 13.4173 4.05898 13.5088 4.05898V3.85898ZM3.99023 3.63975C3.89876 3.63975 3.82412 3.56516 3.82412 3.47351H3.62412C3.62412 3.67556 3.78825 3.83975 3.99023 3.83975V3.63975ZM4.15635 3.47351C4.15635 3.56516 4.0817 3.63975 3.99023 3.63975V3.83975C4.19222 3.83975 4.35635 3.67556 4.35635 3.47351H4.15635ZM3.99023 3.3074C4.08173 3.3074 4.15635 3.38201 4.15635 3.47351H4.35635C4.35635 3.27155 4.19219 3.1074 3.99023 3.1074V3.3074ZM3.82412 3.47351C3.82412 3.38201 3.89873 3.3074 3.99023 3.3074V3.1074C3.78828 3.1074 3.62412 3.27155 3.62412 3.47351H3.82412ZM1.36973 7.98242C1.36973 8.18447 1.53385 8.34866 1.73584 8.34866V8.14866C1.64437 8.14866 1.56973 8.07407 1.56973 7.98242H1.36973ZM1.44828 7.75602C1.39941 7.81811 1.36973 7.89682 1.36973 7.98242H1.56973C1.56973 7.94375 1.58302 7.90821 1.60544 7.87972L1.44828 7.75602ZM1.479 7.722C1.46744 7.73321 1.45763 7.74448 1.44921 7.75485L1.6045 7.88089C1.60976 7.87441 1.61411 7.86958 1.61816 7.86565L1.479 7.722ZM1.50397 7.69933C1.4943 7.70721 1.48545 7.71537 1.47715 7.72385L1.62002 7.8638C1.62344 7.86031 1.62679 7.85724 1.63031 7.85438L1.50397 7.69933ZM1.58191 7.65027C1.55351 7.66345 1.52727 7.68013 1.50355 7.69968L1.63073 7.85403C1.64167 7.84502 1.65352 7.83752 1.66613 7.83167L1.58191 7.65027ZM1.6134 7.63734C1.60302 7.64107 1.59233 7.64539 1.58165 7.65039L1.66639 7.83155C1.67086 7.82946 1.67579 7.82744 1.68104 7.82555L1.6134 7.63734ZM1.6497 7.62647C1.63729 7.62949 1.62541 7.63305 1.61358 7.63727L1.68085 7.82562C1.68612 7.82374 1.69132 7.82217 1.69697 7.8208L1.6497 7.62647ZM1.73584 7.61631C1.70641 7.61631 1.67765 7.61982 1.6502 7.62635L1.69648 7.82092C1.70906 7.81793 1.7223 7.81631 1.73584 7.81631V7.61631ZM2.10195 7.98242C2.10195 7.78046 1.9378 7.61631 1.73584 7.61631V7.81631C1.82734 7.81631 1.90195 7.89092 1.90195 7.98242H2.10195ZM1.73584 8.34866C1.93783 8.34866 2.10195 8.18447 2.10195 7.98242H1.90195C1.90195 8.07407 1.82731 8.14866 1.73584 8.14866V8.34866ZM3.73975 10.4031C3.64828 10.4031 3.57363 10.3285 3.57363 10.2368H3.37363C3.37363 10.4389 3.53776 10.6031 3.73975 10.6031V10.4031ZM3.90586 10.2368C3.90586 10.3284 3.83119 10.4031 3.73975 10.4031V10.6031C3.94176 10.6031 4.10586 10.4387 4.10586 10.2368H3.90586ZM3.89108 10.1687C3.90053 10.1893 3.90586 10.2123 3.90586 10.2368H4.10586C4.10586 10.183 4.09409 10.1315 4.07279 10.0852L3.89108 10.1687ZM3.84484 10.1084C3.86462 10.1247 3.88045 10.1452 3.89083 10.1682L4.07304 10.0857C4.04973 10.0342 4.01478 9.9893 3.97205 9.95408L3.84484 10.1084ZM3.73975 10.0707C3.77965 10.0707 3.81618 10.0848 3.84483 10.1084L3.97206 9.95409C3.90891 9.90203 3.82777 9.8707 3.73975 9.8707V10.0707ZM3.63895 10.105C3.66719 10.0834 3.70191 10.0707 3.73975 10.0707V9.8707C3.656 9.8707 3.5789 9.89906 3.5173 9.94626L3.63895 10.105ZM3.57363 10.2368C3.57363 10.1834 3.59904 10.1356 3.6389 10.105L3.51735 9.94623C3.43025 10.0129 3.37363 10.1184 3.37363 10.2368H3.57363ZM5.12705 13.9941C5.12705 14.1962 5.29118 14.3604 5.49316 14.3604V14.1604C5.40169 14.1604 5.32705 14.0858 5.32705 13.9941H5.12705ZM5.49316 13.628C5.29121 13.628 5.12705 13.7922 5.12705 13.9941H5.32705C5.32705 13.9026 5.40166 13.828 5.49316 13.828V13.628ZM5.85928 13.9941C5.85928 13.7922 5.69512 13.628 5.49316 13.628V13.828C5.58466 13.828 5.65928 13.9026 5.65928 13.9941H5.85928ZM5.49316 14.3604C5.69515 14.3604 5.85928 14.1962 5.85928 13.9941H5.65928C5.65928 14.0858 5.58463 14.1604 5.49316 14.1604V14.3604ZM12.5722 13.5909C12.5943 13.6005 12.6142 13.6148 12.6305 13.6328L12.7787 13.4986C12.7437 13.4599 12.7006 13.4286 12.6519 13.4074L12.5722 13.5909ZM12.5314 13.5794C12.5459 13.5815 12.5598 13.5855 12.5726 13.591L12.6515 13.4073C12.6229 13.3949 12.5923 13.3862 12.5609 13.3816L12.5314 13.5794ZM12.5068 13.5775C12.5154 13.5775 12.5235 13.5782 12.5309 13.5793L12.5613 13.3816C12.5434 13.3789 12.5251 13.3775 12.5068 13.3775V13.5775ZM12.4065 13.6115C12.4344 13.5902 12.4691 13.5775 12.5068 13.5775V13.3775C12.4235 13.3775 12.3464 13.4057 12.2849 13.4527L12.4065 13.6115ZM12.3407 13.7437C12.3407 13.6902 12.3662 13.6423 12.4064 13.6116L12.285 13.4527C12.1978 13.5193 12.1407 13.6248 12.1407 13.7437H12.3407ZM12.5068 13.9099C12.4154 13.9099 12.3407 13.8353 12.3407 13.7437H12.1407C12.1407 13.9457 12.3048 14.1099 12.5068 14.1099V13.9099ZM12.6729 13.7437C12.6729 13.8352 12.5983 13.9099 12.5068 13.9099V14.1099C12.7089 14.1099 12.8729 13.9455 12.8729 13.7437H12.6729ZM12.6594 13.6778C12.6681 13.6981 12.6729 13.7203 12.6729 13.7437H12.8729C12.8729 13.6923 12.8622 13.6432 12.8431 13.5988L12.6594 13.6778ZM12.6304 13.6327C12.6424 13.6461 12.6523 13.6613 12.6593 13.6777L12.8431 13.5989C12.8272 13.5618 12.8053 13.528 12.7788 13.4987L12.6304 13.6327ZM6.62998 8.98438C6.62998 10.2913 7.69306 11.3545 9 11.3545V11.1545C7.80353 11.1545 6.82998 10.1809 6.82998 8.98438H6.62998ZM9 6.61436C7.69306 6.61436 6.62998 7.67744 6.62998 8.98438H6.82998C6.82998 7.78789 7.80352 6.81436 9 6.81436V6.61436ZM11.37 8.98438C11.37 7.67744 10.3069 6.61436 9 6.61436V6.81436C10.1965 6.81436 11.17 7.78789 11.17 8.98438H11.37ZM9 11.3545C10.3069 11.3545 11.37 10.2913 11.37 8.98438H11.17C11.17 10.1809 10.1965 11.1545 9 11.1545V11.3545ZM16.2642 7.89817C16.1727 7.89817 16.098 7.82359 16.098 7.73193H15.898C15.898 7.93398 16.0622 8.09817 16.2642 8.09817V7.89817ZM16.4303 7.73193C16.4303 7.82359 16.3556 7.89817 16.2642 7.89817V8.09817C16.4661 8.09817 16.6303 7.93398 16.6303 7.73193H16.4303ZM16.2642 7.56582C16.3557 7.56582 16.4303 7.64043 16.4303 7.73193H16.6303C16.6303 7.52998 16.4661 7.36582 16.2642 7.36582V7.56582ZM16.098 7.73193C16.098 7.64043 16.1727 7.56582 16.2642 7.56582V7.36582C16.0622 7.36582 15.898 7.52998 15.898 7.73193H16.098Z" fill="white"/>
</g>
<rect id="Rectangle-path" x="5.99414" y="15.5283" width="0.500969" height="0.469656" fill="#0C49CD" stroke="#0C49CD" stroke-width="0.2"/>
<rect id="Rectangle-path_2" x="6.99609" y="15.5283" width="0.500969" height="0.469656" fill="#0C49CD" stroke="#0C49CD" stroke-width="0.2"/>
<rect id="Rectangle-path_3" x="7.99805" y="15.5283" width="0.500969" height="0.469656" fill="#0C49CD" stroke="#0C49CD" stroke-width="0.2"/>
<rect id="Rectangle-path_4" x="9.50098" y="2.00195" width="0.500969" height="0.469656" fill="#0C49CD" stroke="#0C49CD" stroke-width="0.2"/>
<rect id="Rectangle-path_5" x="10.5029" y="2.00195" width="0.500969" height="0.469656" fill="#0C49CD" stroke="#0C49CD" stroke-width="0.2"/>
<rect id="Rectangle-path_6" x="11.5049" y="2.00195" width="0.500969" height="0.469656" fill="#0C49CD" stroke="#0C49CD" stroke-width="0.2"/>
</g>
</g>
</svg>
