<svg width="18" height="18" viewBox="0 0 18 18" fill="none" xmlns="http://www.w3.org/2000/svg">
<g id="Blockchain">
<rect id="Rectangle 4 Copy 5" width="18" height="18" fill="#F4F7FB" fill-opacity="0.01"/>
<g id="cryptocurrency">
<g id="Shape">
<path fill-rule="evenodd" clip-rule="evenodd" d="M7.26221 8.98438C7.26221 8.02612 8.04175 7.24658 9 7.24658C9.95825 7.24658 10.7378 8.02612 10.7378 8.98438C10.7378 9.94263 9.95825 10.7222 9 10.7222C8.04175 10.7222 7.26221 9.9425 7.26221 8.98438ZM7.73193 8.98438C7.73193 9.68359 8.30078 10.2524 9 10.2524C9.69922 10.2524 10.2681 9.68359 10.2681 8.98438C10.2681 8.28516 9.69922 7.71631 9 7.71631C8.30078 7.71631 7.73193 8.28516 7.73193 8.98438Z" fill="#0C49CD"/>
<path d="M9 7.14658C7.98652 7.14658 7.16221 7.97089 7.16221 8.98438H7.36221C7.36221 8.08135 8.09698 7.34658 9 7.34658V7.14658ZM10.8378 8.98438C10.8378 7.97089 10.0135 7.14658 9 7.14658V7.34658C9.90302 7.34658 10.6378 8.08135 10.6378 8.98438H10.8378ZM9 10.8222C10.0135 10.8222 10.8378 9.99786 10.8378 8.98438H10.6378C10.6378 9.8874 9.90302 10.6222 9 10.6222V10.8222ZM7.16221 8.98438C7.16221 9.99773 7.98651 10.8222 9 10.8222V10.6222C8.09698 10.6222 7.36221 9.88728 7.36221 8.98438H7.16221ZM9 10.1524C8.35601 10.1524 7.83193 9.62837 7.83193 8.98438H7.63193C7.63193 9.73882 8.24555 10.3524 9 10.3524V10.1524ZM10.1681 8.98438C10.1681 9.62837 9.64399 10.1524 9 10.1524V10.3524C9.75445 10.3524 10.3681 9.73882 10.3681 8.98438H10.1681ZM9 7.81631C9.64399 7.81631 10.1681 8.34038 10.1681 8.98438H10.3681C10.3681 8.22993 9.75445 7.61631 9 7.61631V7.81631ZM7.83193 8.98438C7.83193 8.34038 8.35601 7.81631 9 7.81631V7.61631C8.24555 7.61631 7.63193 8.22993 7.63193 8.98438H7.83193Z" fill="#0C49CD"/>
</g>
<g id="Shape_2">
<path fill-rule="evenodd" clip-rule="evenodd" d="M16.2642 7.00391C15.9406 7.00391 15.6653 7.19958 15.567 7.51282H13.0078V9.51672H11.6907C11.7228 9.32874 11.7319 9.16882 11.7319 8.99219C11.7319 7.56067 10.6282 6.37427 9.21924 6.25488V4.47559H12.8116C12.9099 4.75745 13.1852 4.96875 13.5088 4.96875C13.9146 4.96875 14.2446 4.63477 14.2446 4.229C14.2446 3.82324 13.9146 3.49902 13.5088 3.49902C13.1852 3.49902 12.9099 3.69275 12.8116 4.00586H8.74951V6.25488C8.18591 6.30457 7.65356 6.53687 7.21521 6.89429V6.26038H4.20935V4.17078C4.52246 4.07251 4.71814 3.79724 4.71814 3.47363C4.71814 3.06787 4.39209 2.73779 3.98633 2.73779C3.58057 2.73779 3.24463 3.06787 3.24463 3.47363C3.24463 3.79724 3.45789 4.07251 3.73975 4.17078V6.72998H6.74561V7.40686C6.68298 7.51501 6.61621 7.63806 6.55579 7.76331H2.43298C2.33472 7.4502 2.05945 7.25439 1.73584 7.25439C1.33008 7.25439 1 7.58057 1 7.98633C1 8.39209 1.33008 8.72803 1.73584 8.72803C2.05945 8.72803 2.33472 8.51477 2.43298 8.23291H6.36975C6.29858 8.45215 6.26025 8.73376 6.26025 9C6.26025 9.3595 6.32996 9.67322 6.4563 10.0177H4.43689C4.33862 9.70459 4.06335 9.50891 3.73975 9.50891C3.33398 9.50891 3.00391 9.83496 3.00391 10.2407C3.00391 10.6465 3.33398 10.9824 3.73975 10.9824C4.06335 10.9824 4.33862 10.7692 4.43689 10.4873H6.7002C6.96313 10.863 7.34045 11.2086 7.74756 11.4286V13.775H6.19031C6.09204 13.4619 5.81677 13.2662 5.49316 13.2662C5.0874 13.2662 4.75732 13.5924 4.75732 13.998C4.75732 14.4038 5.0874 14.7397 5.49316 14.7397C5.81677 14.7397 6.09204 14.5265 6.19031 14.2446H8.21716V11.6146C8.46777 11.6858 8.71814 11.7241 8.98438 11.7241C9.44165 11.7241 9.87671 11.6113 10.2524 11.4125V13.9941H11.8097C11.908 14.276 12.1832 14.4873 12.5068 14.4873C12.9126 14.4873 13.2427 14.1533 13.2427 13.7477C13.2427 13.3419 12.9126 13.0177 12.5068 13.0177C12.1832 13.0177 11.908 13.2114 11.8097 13.5245H10.722V11.101C11.0978 10.8033 11.384 10.4248 11.5559 9.98633H13.4774V7.98242H15.567C15.6653 8.26428 15.9406 8.47559 16.2642 8.47559C16.6699 8.47559 17 8.14551 17 7.73987C17 7.33398 16.6699 7.00391 16.2642 7.00391ZM13.5088 3.95898C13.6555 3.95898 13.775 4.07837 13.775 4.2251C13.775 4.37195 13.6556 4.49133 13.5088 4.49133C13.4366 4.49133 13.3711 4.46252 13.3231 4.41577L13.3168 4.4093C13.3103 4.40247 13.3042 4.39539 13.2985 4.38806C13.2948 4.3833 13.2913 4.3783 13.2878 4.37317L13.2797 4.36047L13.2743 4.35095C13.2695 4.34204 13.2651 4.33289 13.2614 4.32336C13.2493 4.29297 13.2427 4.25977 13.2427 4.2251C13.2427 4.07837 13.3621 3.95898 13.5088 3.95898ZM3.72412 3.47351C3.72412 3.62036 3.84351 3.73975 3.99023 3.73975C4.13708 3.73975 4.25647 3.62036 4.25647 3.47351C4.25647 3.32678 4.13708 3.2074 3.99023 3.2074C3.92993 3.2074 3.87427 3.22754 3.82959 3.26147C3.7655 3.31018 3.72412 3.38708 3.72412 3.47351ZM1.73572 8.24866C1.58899 8.24866 1.4696 8.12927 1.4696 7.98242C1.4696 7.9209 1.4906 7.86414 1.52588 7.81909C1.57458 7.75659 1.65051 7.71631 1.73572 7.71631C1.88257 7.71631 2.00195 7.83569 2.00195 7.98242C2.00195 8.12927 1.88257 8.24866 1.73572 8.24866ZM3.47351 10.2368C3.47351 10.3837 3.5929 10.5031 3.73962 10.5031C3.88647 10.5031 4.00586 10.3835 4.00586 10.2368C4.00586 10.0901 3.88647 9.9707 3.73962 9.9707C3.5929 9.9707 3.47351 10.0901 3.47351 10.2368ZM5.49316 14.2604C5.34644 14.2604 5.22705 14.141 5.22705 13.9941C5.22705 13.8474 5.34644 13.728 5.49316 13.728C5.64001 13.728 5.7594 13.8474 5.7594 13.9941C5.7594 14.141 5.64001 14.2604 5.49316 14.2604ZM12.7731 13.7437C12.7731 13.5969 12.6536 13.4775 12.5068 13.4775C12.3601 13.4775 12.2407 13.5969 12.2407 13.7437C12.2407 13.8905 12.3601 14.0099 12.5068 14.0099C12.6537 14.0099 12.7731 13.8904 12.7731 13.7437ZM9 11.2545C7.74829 11.2545 6.72998 10.2361 6.72998 8.98438C6.72998 7.73267 7.74829 6.71436 9 6.71436C10.2517 6.71436 11.2701 7.73267 11.2701 8.98438C11.2701 10.2361 10.2517 11.2545 9 11.2545ZM15.998 7.73193C15.998 7.87878 16.1174 7.99817 16.2642 7.99817C16.4109 7.99817 16.5304 7.87878 16.5304 7.73193C16.5304 7.58521 16.4109 7.46582 16.2642 7.46582C16.1174 7.46582 15.998 7.58521 15.998 7.73193Z" fill="#0C49CD"/>
<path d="M15.567 7.51282V7.61282H15.6405L15.6624 7.54275L15.567 7.51282ZM13.0078 7.51282V7.41282H12.9078V7.51282H13.0078ZM13.0078 9.51672V9.61672H13.1078V9.51672H13.0078ZM11.6907 9.51672L11.5921 9.49989L11.5721 9.61672H11.6907V9.51672ZM9.21924 6.25488H9.11924V6.34677L9.2108 6.35453L9.21924 6.25488ZM9.21924 4.47559V4.37559H9.11924V4.47559H9.21924ZM12.8116 4.47559L12.9061 4.44267L12.8827 4.37559H12.8116V4.47559ZM12.8116 4.00586V4.10586H12.8851L12.9071 4.0358L12.8116 4.00586ZM8.74951 4.00586V3.90586H8.64951V4.00586H8.74951ZM8.74951 6.25488L8.75829 6.3545L8.84951 6.34646V6.25488H8.74951ZM7.21521 6.89429H7.11521V7.10485L7.2784 6.97179L7.21521 6.89429ZM7.21521 6.26038H7.31521V6.16038H7.21521V6.26038ZM4.20935 6.26038H4.10935V6.36038H4.20935V6.26038ZM4.20935 4.17078L4.17941 4.07536L4.10935 4.09735V4.17078H4.20935ZM3.73975 4.17078H3.83975V4.09974L3.77267 4.07635L3.73975 4.17078ZM3.73975 6.72998H3.63975V6.82998H3.73975V6.72998ZM6.74561 6.72998H6.84561V6.62998H6.74561V6.72998ZM6.74561 7.40686L6.83215 7.45697L6.84561 7.43372V7.40686H6.74561ZM6.55579 7.76331V7.86331H6.61857L6.64585 7.80676L6.55579 7.76331ZM2.43298 7.76331L2.33757 7.79325L2.35956 7.86331H2.43298V7.76331ZM2.43298 8.23291V8.13291H2.36194L2.33856 8.19999L2.43298 8.23291ZM6.36975 8.23291L6.46487 8.26379L6.50735 8.13291H6.36975V8.23291ZM6.4563 10.0177V10.1177H6.59949L6.55018 9.98327L6.4563 10.0177ZM4.43689 10.0177L4.34148 10.0476L4.36346 10.1177H4.43689V10.0177ZM4.43689 10.4873V10.3873H4.36585L4.34246 10.4544L4.43689 10.4873ZM6.7002 10.4873L6.78213 10.43L6.75227 10.3873H6.7002V10.4873ZM7.74756 11.4286H7.84756V11.369L7.7951 11.3406L7.74756 11.4286ZM7.74756 13.775V13.875H7.84756V13.775H7.74756ZM6.19031 13.775L6.0949 13.805L6.11688 13.875H6.19031V13.775ZM6.19031 14.2446V14.1446H6.11927L6.09588 14.2117L6.19031 14.2446ZM8.21716 14.2446V14.3446H8.31716V14.2446H8.21716ZM8.21716 11.6146L8.24448 11.5184L8.11716 11.4823V11.6146H8.21716ZM10.2524 11.4125H10.3524V11.2464L10.2057 11.3241L10.2524 11.4125ZM10.2524 13.9941H10.1524V14.0941H10.2524V13.9941ZM11.8097 13.9941L11.9041 13.9612L11.8807 13.8941H11.8097V13.9941ZM11.8097 13.5245V13.6245H11.8831L11.9051 13.5545L11.8097 13.5245ZM10.722 13.5245H10.622V13.6245H10.722V13.5245ZM10.722 11.101L10.66 11.0226L10.622 11.0526V11.101H10.722ZM11.5559 9.98633V9.88633H11.4877L11.4628 9.94983L11.5559 9.98633ZM13.4774 9.98633V10.0863H13.5774V9.98633H13.4774ZM13.4774 7.98242V7.88242H13.3774V7.98242H13.4774ZM15.567 7.98242L15.6614 7.9495L15.6381 7.88242H15.567V7.98242ZM13.3231 4.41577L13.2517 4.48582L13.2533 4.48739L13.3231 4.41577ZM13.3168 4.4093L13.2441 4.47805L13.2454 4.47934L13.3168 4.4093ZM13.2985 4.38806L13.2192 4.44903L13.2197 4.44973L13.2985 4.38806ZM13.2878 4.37317L13.2038 4.42733L13.2046 4.42864L13.2878 4.37317ZM13.2797 4.36047L13.1924 4.40969L13.1956 4.41463L13.2797 4.36047ZM13.2743 4.35095L13.1861 4.39809L13.1872 4.40008L13.2743 4.35095ZM13.2614 4.32336L13.3543 4.28643L13.3543 4.28642L13.2614 4.32336ZM3.82959 3.26147L3.7691 3.18184L3.76908 3.18186L3.82959 3.26147ZM1.52588 7.81909L1.60461 7.88075L1.60476 7.88056L1.52588 7.81909ZM15.6624 7.54275C15.7473 7.27221 15.9832 7.10391 16.2642 7.10391V6.90391C15.8979 6.90391 15.5833 7.12696 15.4716 7.48288L15.6624 7.54275ZM13.0078 7.61282H15.567V7.41282H13.0078V7.61282ZM13.1078 9.51672V7.51282H12.9078V9.51672H13.1078ZM11.6907 9.61672H13.0078V9.41672H11.6907V9.61672ZM11.6319 8.99219C11.6319 9.16476 11.623 9.31882 11.5921 9.49989L11.7892 9.53356C11.8225 9.33865 11.8319 9.17289 11.8319 8.99219H11.6319ZM9.2108 6.35453C10.5682 6.46955 11.6319 7.6129 11.6319 8.99219H11.8319C11.8319 7.50843 10.6881 6.27899 9.22768 6.15524L9.2108 6.35453ZM9.11924 4.47559V6.25488H9.31924V4.47559H9.11924ZM12.8116 4.37559H9.21924V4.57559H12.8116V4.37559ZM13.5088 4.86875C13.2292 4.86875 12.9908 4.6858 12.9061 4.44267L12.7172 4.50851C12.829 4.82909 13.1411 5.06875 13.5088 5.06875V4.86875ZM14.1446 4.229C14.1446 4.58023 13.8586 4.86875 13.5088 4.86875V5.06875C13.9705 5.06875 14.3446 4.6893 14.3446 4.229H14.1446ZM13.5088 3.59902C13.8604 3.59902 14.1446 3.87951 14.1446 4.229H14.3446C14.3446 3.76697 13.9687 3.39902 13.5088 3.39902V3.59902ZM12.9071 4.0358C12.9918 3.7658 13.2274 3.59902 13.5088 3.59902V3.39902C13.143 3.39902 12.828 3.6197 12.7162 3.97592L12.9071 4.0358ZM8.74951 4.10586H12.8116V3.90586H8.74951V4.10586ZM8.84951 6.25488V4.00586H8.64951V6.25488H8.84951ZM7.2784 6.97179C7.7027 6.62583 8.21643 6.40226 8.75829 6.3545L8.74073 6.15527C8.1554 6.20687 7.60443 6.4479 7.15202 6.81678L7.2784 6.97179ZM7.11521 6.26038V6.89429H7.31521V6.26038H7.11521ZM4.20935 6.36038H7.21521V6.16038H4.20935V6.36038ZM4.10935 4.17078V6.26038H4.30935V4.17078H4.10935ZM4.61814 3.47363C4.61814 3.75461 4.44982 3.9905 4.17941 4.07536L4.23929 4.26619C4.5951 4.15452 4.81814 3.83987 4.81814 3.47363H4.61814ZM3.98633 2.83779C4.33615 2.83779 4.61814 3.12238 4.61814 3.47363H4.81814C4.81814 3.01336 4.44803 2.63779 3.98633 2.63779V2.83779ZM3.34463 3.47363C3.34463 3.12413 3.63476 2.83779 3.98633 2.83779V2.63779C3.52637 2.63779 3.14463 3.01161 3.14463 3.47363H3.34463ZM3.77267 4.07635C3.52912 3.99144 3.34463 3.75277 3.34463 3.47363H3.14463C3.14463 3.84171 3.38665 4.15358 3.70683 4.2652L3.77267 4.07635ZM3.83975 6.72998V4.17078H3.63975V6.72998H3.83975ZM6.74561 6.62998H3.73975V6.82998H6.74561V6.62998ZM6.84561 7.40686V6.72998H6.64561V7.40686H6.84561ZM6.64585 7.80676C6.70496 7.68425 6.77049 7.56346 6.83215 7.45697L6.65907 7.35675C6.59548 7.46657 6.52747 7.59187 6.46572 7.71985L6.64585 7.80676ZM2.43298 7.86331H6.55579V7.66331H2.43298V7.86331ZM1.73584 7.35439C2.01679 7.35439 2.2527 7.52281 2.33757 7.79325L2.52839 7.73336C2.41674 7.37758 2.10211 7.15439 1.73584 7.15439V7.35439ZM1.1 7.98633C1.1 7.63649 1.38461 7.35439 1.73584 7.35439V7.15439C1.27554 7.15439 0.9 7.52465 0.9 7.98633H1.1ZM1.73584 8.62803C1.38633 8.62803 1.1 8.33789 1.1 7.98633H0.9C0.9 8.44628 1.27382 8.82803 1.73584 8.82803V8.62803ZM2.33856 8.19999C2.25365 8.44354 2.01498 8.62803 1.73584 8.62803V8.82803C2.10392 8.82803 2.41579 8.586 2.52741 8.26583L2.33856 8.19999ZM6.36975 8.13291H2.43298V8.33291H6.36975V8.13291ZM6.36025 9C6.36025 8.74185 6.3976 8.471 6.46487 8.26379L6.27464 8.20203C6.19957 8.4333 6.16025 8.72568 6.16025 9H6.36025ZM6.55018 9.98327C6.42684 9.64695 6.36025 9.34504 6.36025 9H6.16025C6.16025 9.37395 6.23308 9.69948 6.36241 10.0521L6.55018 9.98327ZM4.43689 10.1177H6.4563V9.9177H4.43689V10.1177ZM3.73975 9.60891C4.02072 9.60891 4.25661 9.77723 4.34148 10.0476L4.5323 9.98776C4.42064 9.63195 4.10599 9.40891 3.73975 9.40891V9.60891ZM3.10391 10.2407C3.10391 9.8909 3.3885 9.60891 3.73975 9.60891V9.40891C3.27947 9.40891 2.90391 9.77902 2.90391 10.2407H3.10391ZM3.73975 10.8824C3.39024 10.8824 3.10391 10.5923 3.10391 10.2407H2.90391C2.90391 10.7007 3.27773 11.0824 3.73975 11.0824V10.8824ZM4.34246 10.4544C4.25755 10.6979 4.01888 10.8824 3.73975 10.8824V11.0824C4.10783 11.0824 4.41969 10.8404 4.53132 10.5202L4.34246 10.4544ZM6.7002 10.3873H4.43689V10.5873H6.7002V10.3873ZM7.7951 11.3406C7.40249 11.1285 7.03669 10.7937 6.78213 10.43L6.61826 10.5446C6.88958 10.9323 7.27841 11.2888 7.70002 11.5166L7.7951 11.3406ZM7.84756 13.775V11.4286H7.64756V13.775H7.84756ZM6.19031 13.875H7.74756V13.675H6.19031V13.875ZM5.49316 13.3662C5.77414 13.3662 6.01003 13.5346 6.0949 13.805L6.28572 13.7451C6.17405 13.3893 5.8594 13.1662 5.49316 13.1662V13.3662ZM4.85732 13.998C4.85732 13.6483 5.14192 13.3662 5.49316 13.3662V13.1662C5.03288 13.1662 4.65732 13.5365 4.65732 13.998H4.85732ZM5.49316 14.6397C5.14366 14.6397 4.85732 14.3496 4.85732 13.998H4.65732C4.65732 14.458 5.03115 14.8397 5.49316 14.8397V14.6397ZM6.09588 14.2117C6.01097 14.4553 5.7723 14.6397 5.49316 14.6397V14.8397C5.86124 14.8397 6.17311 14.5977 6.28473 14.2775L6.09588 14.2117ZM8.21716 14.1446H6.19031V14.3446H8.21716V14.1446ZM8.11716 11.6146V14.2446H8.31716V11.6146H8.11716ZM8.98438 11.6241C8.72816 11.6241 8.48699 11.5873 8.24448 11.5184L8.18985 11.7108C8.44856 11.7843 8.70812 11.8241 8.98438 11.8241V11.6241ZM10.2057 11.3241C9.84424 11.5154 9.42523 11.6241 8.98438 11.6241V11.8241C9.45807 11.8241 9.90918 11.7073 10.2992 11.5009L10.2057 11.3241ZM10.3524 13.9941V11.4125H10.1524V13.9941H10.3524ZM11.8097 13.8941H10.2524V14.0941H11.8097V13.8941ZM12.5068 14.3873C12.2273 14.3873 11.9889 14.2044 11.9041 13.9612L11.7153 14.0271C11.827 14.3476 12.1392 14.5873 12.5068 14.5873V14.3873ZM13.1427 13.7477C13.1427 14.0988 12.8567 14.3873 12.5068 14.3873V14.5873C12.9685 14.5873 13.3427 14.2079 13.3427 13.7477H13.1427ZM12.5068 13.1177C12.8584 13.1177 13.1427 13.3982 13.1427 13.7477H13.3427C13.3427 13.2857 12.9668 12.9177 12.5068 12.9177V13.1177ZM11.9051 13.5545C11.9898 13.2845 12.2254 13.1177 12.5068 13.1177V12.9177C12.141 12.9177 11.8261 13.1384 11.7143 13.4946L11.9051 13.5545ZM10.722 13.6245H11.8097V13.4245H10.722V13.6245ZM10.622 11.101V13.5245H10.822V11.101H10.622ZM11.4628 9.94983C11.2977 10.371 11.0225 10.7354 10.66 11.0226L10.7841 11.1793C11.173 10.8713 11.4704 10.4786 11.649 10.0228L11.4628 9.94983ZM13.4774 9.88633H11.5559V10.0863H13.4774V9.88633ZM13.3774 7.98242V9.98633H13.5774V7.98242H13.3774ZM15.567 7.88242H13.4774V8.08242H15.567V7.88242ZM16.2642 8.37559C15.9846 8.37559 15.7462 8.19264 15.6614 7.9495L15.4726 8.01534C15.5844 8.33593 15.8965 8.57559 16.2642 8.57559V8.37559ZM16.9 7.73987C16.9 8.09027 16.6147 8.37559 16.2642 8.37559V8.57559C16.7251 8.57559 17.1 8.20075 17.1 7.73987H16.9ZM16.2642 7.10391C16.6147 7.10391 16.9 7.3892 16.9 7.73987H17.1C17.1 7.27877 16.7252 6.90391 16.2642 6.90391V7.10391ZM13.875 4.2251C13.875 4.02308 13.7107 3.85898 13.5088 3.85898V4.05898C13.6003 4.05898 13.675 4.13366 13.675 4.2251H13.875ZM13.5088 4.59133C13.7109 4.59133 13.875 4.42718 13.875 4.2251H13.675C13.675 4.31672 13.6004 4.39133 13.5088 4.39133V4.59133ZM13.2533 4.48739C13.3192 4.55158 13.4095 4.59133 13.5088 4.59133V4.39133C13.4638 4.39133 13.423 4.37347 13.3929 4.34416L13.2533 4.48739ZM13.2454 4.47934L13.2517 4.48581L13.3945 4.34574L13.3882 4.33927L13.2454 4.47934ZM13.2197 4.44973C13.2274 4.45953 13.2356 4.46897 13.2441 4.47804L13.3894 4.34056C13.385 4.33596 13.381 4.33124 13.3772 4.3264L13.2197 4.44973ZM13.2046 4.42864C13.209 4.43525 13.2139 4.44215 13.2192 4.44903L13.3777 4.32709C13.3757 4.32445 13.3735 4.32134 13.371 4.3177L13.2046 4.42864ZM13.1956 4.41463L13.2038 4.42733L13.3719 4.31901L13.3637 4.30632L13.1956 4.41463ZM13.1872 4.40008L13.1926 4.40961L13.3668 4.31134L13.3614 4.30182L13.1872 4.40008ZM13.1684 4.3603C13.1739 4.37404 13.18 4.38664 13.1861 4.39807L13.3625 4.30383C13.3591 4.29744 13.3564 4.29173 13.3543 4.28643L13.1684 4.3603ZM13.1427 4.2251C13.1427 4.27251 13.1517 4.31824 13.1684 4.36031L13.3543 4.28642C13.3468 4.26769 13.3427 4.24702 13.3427 4.2251H13.1427ZM13.5088 3.85898C13.3068 3.85898 13.1427 4.02314 13.1427 4.2251H13.3427C13.3427 4.1336 13.4173 4.05898 13.5088 4.05898V3.85898ZM3.99023 3.63975C3.89876 3.63975 3.82412 3.56516 3.82412 3.47351H3.62412C3.62412 3.67556 3.78825 3.83975 3.99023 3.83975V3.63975ZM4.15647 3.47351C4.15647 3.56513 4.08186 3.63975 3.99023 3.63975V3.83975C4.19231 3.83975 4.35647 3.67559 4.35647 3.47351H4.15647ZM3.99023 3.3074C4.08189 3.3074 4.15647 3.38204 4.15647 3.47351H4.35647C4.35647 3.27152 4.19228 3.1074 3.99023 3.1074V3.3074ZM3.89008 3.34111C3.91801 3.31989 3.95258 3.3074 3.99023 3.3074V3.1074C3.90729 3.1074 3.83053 3.13518 3.7691 3.18184L3.89008 3.34111ZM3.82412 3.47351C3.82412 3.41977 3.84973 3.37177 3.8901 3.34109L3.76908 3.18186C3.68128 3.24859 3.62412 3.3544 3.62412 3.47351H3.82412ZM1.3696 7.98242C1.3696 8.18447 1.53373 8.34866 1.73572 8.34866V8.14866C1.64425 8.14866 1.5696 8.07407 1.5696 7.98242H1.3696ZM1.44715 7.75743C1.39857 7.81947 1.3696 7.89779 1.3696 7.98242H1.5696C1.5696 7.94401 1.58264 7.90881 1.60461 7.88075L1.44715 7.75743ZM1.73572 7.61631C1.61825 7.61631 1.51376 7.67196 1.447 7.75762L1.60476 7.88056C1.63541 7.84122 1.68277 7.81631 1.73572 7.81631V7.61631ZM2.10195 7.98242C2.10195 7.78044 1.93777 7.61631 1.73572 7.61631V7.81631C1.82737 7.81631 1.90195 7.89095 1.90195 7.98242H2.10195ZM1.73572 8.34866C1.9378 8.34866 2.10195 8.1845 2.10195 7.98242H1.90195C1.90195 8.07404 1.82734 8.14866 1.73572 8.14866V8.34866ZM3.73962 10.4031C3.64815 10.4031 3.57351 10.3285 3.57351 10.2368H3.37351C3.37351 10.4389 3.53764 10.6031 3.73962 10.6031V10.4031ZM3.90586 10.2368C3.90586 10.3283 3.83122 10.4031 3.73962 10.4031V10.6031C3.94173 10.6031 4.10586 10.4387 4.10586 10.2368H3.90586ZM3.73962 10.0707C3.83128 10.0707 3.90586 10.1453 3.90586 10.2368H4.10586C4.10586 10.0348 3.94167 9.8707 3.73962 9.8707V10.0707ZM3.57351 10.2368C3.57351 10.1453 3.64812 10.0707 3.73962 10.0707V9.8707C3.53767 9.8707 3.37351 10.0349 3.37351 10.2368H3.57351ZM5.12705 13.9941C5.12705 14.1962 5.29118 14.3604 5.49316 14.3604V14.1604C5.40169 14.1604 5.32705 14.0858 5.32705 13.9941H5.12705ZM5.49316 13.628C5.29121 13.628 5.12705 13.7922 5.12705 13.9941H5.32705C5.32705 13.9026 5.40166 13.828 5.49316 13.828V13.628ZM5.8594 13.9941C5.8594 13.7922 5.69521 13.628 5.49316 13.628V13.828C5.58482 13.828 5.6594 13.9027 5.6594 13.9941H5.8594ZM5.49316 14.3604C5.69524 14.3604 5.8594 14.1962 5.8594 13.9941H5.6594C5.6594 14.0858 5.58479 14.1604 5.49316 14.1604V14.3604ZM12.5068 13.5775C12.5984 13.5775 12.6731 13.6522 12.6731 13.7437H12.8731C12.8731 13.5416 12.7087 13.3775 12.5068 13.3775V13.5775ZM12.3407 13.7437C12.3407 13.6522 12.4153 13.5775 12.5068 13.5775V13.3775C12.3049 13.3775 12.1407 13.5417 12.1407 13.7437H12.3407ZM12.5068 13.9099C12.4154 13.9099 12.3407 13.8353 12.3407 13.7437H12.1407C12.1407 13.9457 12.3048 14.1099 12.5068 14.1099V13.9099ZM12.6731 13.7437C12.6731 13.8352 12.5984 13.9099 12.5068 13.9099V14.1099C12.7089 14.1099 12.8731 13.9456 12.8731 13.7437H12.6731ZM6.62998 8.98438C6.62998 10.2913 7.69306 11.3545 9 11.3545V11.1545C7.80353 11.1545 6.82998 10.1809 6.82998 8.98438H6.62998ZM9 6.61436C7.69306 6.61436 6.62998 7.67744 6.62998 8.98438H6.82998C6.82998 7.78789 7.80352 6.81436 9 6.81436V6.61436ZM11.3701 8.98438C11.3701 7.67743 10.3069 6.61436 9 6.61436V6.81436C10.1965 6.81436 11.1701 7.7879 11.1701 8.98438H11.3701ZM9 11.3545C10.3069 11.3545 11.3701 10.2913 11.3701 8.98438H11.1701C11.1701 10.1809 10.1965 11.1545 9 11.1545V11.3545ZM16.2642 7.89817C16.1727 7.89817 16.098 7.82359 16.098 7.73193H15.898C15.898 7.93398 16.0622 8.09817 16.2642 8.09817V7.89817ZM16.4304 7.73193C16.4304 7.82353 16.3557 7.89817 16.2642 7.89817V8.09817C16.4661 8.09817 16.6304 7.93404 16.6304 7.73193H16.4304ZM16.2642 7.56582C16.3557 7.56582 16.4304 7.64049 16.4304 7.73193H16.6304C16.6304 7.52992 16.4661 7.36582 16.2642 7.36582V7.56582ZM16.098 7.73193C16.098 7.64043 16.1727 7.56582 16.2642 7.56582V7.36582C16.0622 7.36582 15.898 7.52998 15.898 7.73193H16.098Z" fill="#0C49CD"/>
</g>
<rect id="Rectangle-path" x="5.99414" y="15.5283" width="0.500969" height="0.469656" fill="#0C49CD" stroke="#0C49CD" stroke-width="0.2"/>
<rect id="Rectangle-path_2" x="6.99609" y="15.5283" width="0.500969" height="0.469656" fill="#0C49CD" stroke="#0C49CD" stroke-width="0.2"/>
<rect id="Rectangle-path_3" x="7.99805" y="15.5283" width="0.500969" height="0.469656" fill="#0C49CD" stroke="#0C49CD" stroke-width="0.2"/>
<rect id="Rectangle-path_4" x="9.50098" y="2.00195" width="0.500969" height="0.469656" fill="#0C49CD" stroke="#0C49CD" stroke-width="0.2"/>
<rect id="Rectangle-path_5" x="10.5029" y="2.00195" width="0.500969" height="0.469656" fill="#0C49CD" stroke="#0C49CD" stroke-width="0.2"/>
<rect id="Rectangle-path_6" x="11.5049" y="2.00195" width="0.500969" height="0.469656" fill="#0C49CD" stroke="#0C49CD" stroke-width="0.2"/>
</g>
</g>
</svg>
