<svg width="18" height="18" viewBox="0 0 18 18" fill="none" xmlns="http://www.w3.org/2000/svg">
<g id="Brain">
<rect id="Rectangle 4 Copy 36" width="18" height="18" fill="#F4F7FB" fill-opacity="0.01"/>
<g id="brain (1)">
<g id="Shape">
<path fill-rule="evenodd" clip-rule="evenodd" d="M15.2395 3.54205C15.8739 4.2233 16.1561 5.2659 16.0792 6.64273C16.6322 7.56604 17.0833 9.42148 15.3494 10.7423C15.4652 11.564 15.3081 12.8867 14.094 13.5833C14.1401 13.8989 14.1458 14.375 13.8911 14.7979C13.6771 15.153 13.3329 15.39 12.8654 15.5045C12.5869 15.9276 11.7893 16.9835 10.7594 16.9835L10.7379 16.9833C10.2051 16.9757 9.72388 16.6914 9.30188 16.1363C8.88025 16.6914 8.39893 16.9757 7.86621 16.9833L7.8446 16.9835C6.81458 16.9835 6.01697 15.9276 5.73877 15.5045C5.27136 15.3902 4.92688 15.153 4.71326 14.7979C4.4585 14.3745 4.46411 13.8989 4.51013 13.5833C3.29614 12.8865 3.13904 11.5638 3.25488 10.7423C1.52075 9.42148 1.97205 7.56604 2.5249 6.64273C2.44812 5.26611 2.73035 4.2233 3.36462 3.54205C3.83313 3.03885 4.37781 2.86862 4.69751 2.81128C5.14636 1.92017 5.87708 1.71796 6.35962 1.74231C7.2262 0.957794 8.03198 0.942108 8.56738 1.07632C8.87781 1.15399 9.12744 1.28799 9.30188 1.40488C9.47644 1.28796 9.72632 1.15399 10.0365 1.07632C10.5718 0.942108 11.3777 0.958038 12.2445 1.74231C12.7245 1.71835 13.4576 1.92017 13.9066 2.81128C14.2262 2.8688 14.7709 3.03885 15.2395 3.54205ZM14.5148 10.6607C14.4751 10.4965 14.5417 10.3233 14.6824 10.2295C16.571 8.9704 15.4658 7.17026 15.3334 6.96906C15.2849 6.8952 15.2614 6.80627 15.2676 6.71817C15.3529 5.52444 15.1392 4.61566 14.6501 4.09012C14.1937 3.60001 13.6387 3.5863 13.6331 3.5863C13.4686 3.5863 13.3206 3.48611 13.2596 3.3334C12.8999 2.43427 12.269 2.54254 12.1981 2.5578C12.0641 2.58676 11.9185 2.54733 11.8218 2.45053C10.6282 1.25644 9.69238 2.09805 9.58948 2.19806C9.51453 2.27084 9.41162 2.31393 9.30701 2.31393H9.29663C9.18994 2.31393 9.08752 2.27148 9.01208 2.19604C8.91113 2.09824 7.97498 1.25702 6.7821 2.45053C6.68201 2.55057 6.53699 2.59039 6.40002 2.5564C6.33496 2.54254 5.70386 2.43427 5.34424 3.33322C5.2832 3.48593 5.13525 3.58612 4.9707 3.58612C4.95117 3.58655 4.39783 3.60306 3.94214 4.10242C3.46118 4.62933 3.25146 5.53372 3.33618 6.71799C3.34241 6.80692 3.31909 6.89563 3.26953 6.96988C3.13806 7.16986 2.03308 8.96997 3.92151 10.2291C4.06287 10.3235 4.12988 10.4965 4.08862 10.6615C4.0719 10.7299 3.69067 12.3767 5.12927 12.9933C5.32166 13.0757 5.41858 13.2917 5.35242 13.4905C5.30554 13.6364 5.2218 14.0856 5.4043 14.3852C5.52014 14.5753 5.73291 14.6941 6.05457 14.7478C6.17249 14.7675 6.27563 14.8385 6.33582 14.942C6.53845 15.287 7.20276 16.1783 7.84448 16.1783L7.85535 16.1781C8.22876 16.1723 8.5946 15.8456 8.94312 15.2065C9.01379 15.0776 9.14941 14.9973 9.29663 14.9973C9.44373 14.9973 9.59009 15.0776 9.66064 15.207C10.0089 15.846 10.3751 16.1727 10.7483 16.1786L10.7594 16.1787C11.401 16.1787 12.0654 15.2874 12.2682 14.9422C12.3287 14.8392 12.4318 14.7682 12.5493 14.7484C12.8724 14.6945 13.0858 14.575 13.2013 14.3833C13.4154 14.0273 13.2534 13.4964 13.2516 13.4911C13.1854 13.2926 13.2823 13.0763 13.4747 12.994C14.913 12.3777 14.5319 10.7305 14.5148 10.6607Z" fill="#0C49CD"/>
<path d="M16.0792 6.64273L15.9794 6.63715L15.9777 6.66779L15.9934 6.69411L16.0792 6.64273ZM15.2395 3.54205L15.3127 3.4739L15.3127 3.4739L15.2395 3.54205ZM15.3494 10.7423L15.2888 10.6628L15.2422 10.6983L15.2503 10.7563L15.3494 10.7423ZM14.094 13.5833L14.0442 13.4965L13.9852 13.5304L13.995 13.5977L14.094 13.5833ZM13.8911 14.7979L13.9768 14.8495L13.9768 14.8495L13.8911 14.7979ZM12.8654 15.5045L12.8416 15.4074L12.8034 15.4167L12.7818 15.4495L12.8654 15.5045ZM10.7594 16.9835L10.7585 17.0835H10.7594V16.9835ZM10.7379 16.9833L10.7365 17.0833L10.7371 17.0833L10.7379 16.9833ZM9.30188 16.1363L9.38149 16.0758L9.30185 15.971L9.22225 16.0758L9.30188 16.1363ZM7.86621 16.9833L7.86706 17.0833L7.86765 17.0833L7.86621 16.9833ZM7.8446 16.9835V17.0835L7.84545 17.0835L7.8446 16.9835ZM5.73877 15.5045L5.82233 15.4495L5.80072 15.4167L5.76252 15.4073L5.73877 15.5045ZM4.71326 14.7979L4.79895 14.7463L4.79894 14.7463L4.71326 14.7979ZM4.51013 13.5833L4.60909 13.5977L4.6189 13.5304L4.55991 13.4965L4.51013 13.5833ZM3.25488 10.7423L3.3539 10.7563L3.36208 10.6983L3.31548 10.6628L3.25488 10.7423ZM2.5249 6.64273L2.6107 6.6941L2.62646 6.66779L2.62475 6.63716L2.5249 6.64273ZM3.36462 3.54205L3.43781 3.6102L3.43781 3.6102L3.36462 3.54205ZM4.69751 2.81128L4.71516 2.90971L4.76434 2.90089L4.78682 2.85626L4.69751 2.81128ZM6.35962 1.74231L6.35458 1.84218L6.39599 1.84427L6.42673 1.81644L6.35962 1.74231ZM8.56738 1.07632L8.54307 1.17332L8.54311 1.17333L8.56738 1.07632ZM9.30188 1.40488L9.24622 1.48795L9.30187 1.52524L9.35753 1.48796L9.30188 1.40488ZM10.0365 1.07632L10.0608 1.17333L10.0608 1.17332L10.0365 1.07632ZM12.2445 1.74231L12.1774 1.81646L12.2081 1.84425L12.2495 1.84219L12.2445 1.74231ZM13.9066 2.81128L13.8173 2.85627L13.8398 2.90085L13.8889 2.9097L13.9066 2.81128ZM14.6824 10.2295L14.6269 10.1463L14.6269 10.1463L14.6824 10.2295ZM14.5148 10.6607L14.4176 10.6842L14.4176 10.6844L14.5148 10.6607ZM15.3334 6.96906L15.2498 7.02392L15.2498 7.02404L15.3334 6.96906ZM15.2676 6.71817L15.1678 6.71104L15.1678 6.71112L15.2676 6.71817ZM14.6501 4.09012L14.7234 4.022L14.7233 4.02197L14.6501 4.09012ZM13.2596 3.3334L13.3525 3.29636L13.3525 3.29626L13.2596 3.3334ZM12.1981 2.5578L12.1771 2.46004L12.177 2.46006L12.1981 2.5578ZM11.8218 2.45053L11.8925 2.37986L11.8925 2.37983L11.8218 2.45053ZM9.58948 2.19806L9.65914 2.2698L9.65917 2.26977L9.58948 2.19806ZM9.01208 2.19604L9.0828 2.12533L9.08167 2.12423L9.01208 2.19604ZM6.7821 2.45053L6.85279 2.52126L6.85283 2.52122L6.7821 2.45053ZM6.40002 2.5564L6.42413 2.45929L6.42085 2.45859L6.40002 2.5564ZM5.34424 3.33322L5.25139 3.29608L5.25138 3.29611L5.34424 3.33322ZM4.9707 3.58612V3.4861L4.96852 3.48614L4.9707 3.58612ZM3.94214 4.10242L4.016 4.16983L4.01601 4.16982L3.94214 4.10242ZM3.33618 6.71799L3.43594 6.711L3.43593 6.71085L3.33618 6.71799ZM3.26953 6.96988L3.18636 6.91436L3.18597 6.91495L3.26953 6.96988ZM3.92151 10.2291L3.97703 10.1459L3.97698 10.1459L3.92151 10.2291ZM4.08862 10.6615L3.99161 10.6372L3.99148 10.6377L4.08862 10.6615ZM5.12927 12.9933L5.08988 13.0853L5.08994 13.0853L5.12927 12.9933ZM5.35242 13.4905L5.25753 13.4589L5.25721 13.4599L5.35242 13.4905ZM5.4043 14.3852L5.31889 14.4372L5.3189 14.4373L5.4043 14.3852ZM6.05457 14.7478L6.03809 14.8464L6.0381 14.8464L6.05457 14.7478ZM6.33582 14.942L6.24938 14.9922L6.24958 14.9926L6.33582 14.942ZM7.84448 16.1783V16.2783L7.84617 16.2783L7.84448 16.1783ZM7.85535 16.1781L7.85379 16.0781L7.85366 16.0781L7.85535 16.1781ZM8.94312 15.2065L8.85543 15.1585L8.85532 15.1587L8.94312 15.2065ZM9.66064 15.207L9.74845 15.1591L9.74844 15.1591L9.66064 15.207ZM10.7483 16.1786L10.7499 16.0786L10.7499 16.0786L10.7483 16.1786ZM10.7594 16.1787L10.7578 16.2787H10.7594V16.1787ZM12.2682 14.9422L12.182 14.8915L12.182 14.8915L12.2682 14.9422ZM12.5493 14.7484L12.5329 14.6498L12.5328 14.6498L12.5493 14.7484ZM13.2013 14.3833L13.287 14.4349L13.287 14.4348L13.2013 14.3833ZM13.2516 13.4911L13.1567 13.5228L13.1572 13.5243L13.2516 13.4911ZM13.4747 12.994L13.5141 13.0859L13.5141 13.0859L13.4747 12.994ZM16.1791 6.64831C16.2568 5.25739 15.973 4.18297 15.3127 3.4739L15.1663 3.6102C15.7748 4.26363 16.0555 5.27441 15.9794 6.63715L16.1791 6.64831ZM15.41 10.8219C16.3013 10.1429 16.6356 9.32097 16.6718 8.54813C16.7077 7.77979 16.4492 7.06579 16.165 6.59135L15.9934 6.69411C16.2623 7.14299 16.5057 7.81836 16.472 8.53877C16.4385 9.25468 16.1313 10.0209 15.2888 10.6628L15.41 10.8219ZM14.1438 13.67C15.4095 12.9438 15.5668 11.5683 15.4484 10.7283L15.2503 10.7563C15.3636 11.5598 15.2068 12.8295 14.0442 13.4965L14.1438 13.67ZM13.9768 14.8495C14.2487 14.3979 14.2406 13.8945 14.1929 13.5688L13.995 13.5977C14.0397 13.9033 14.0428 14.352 13.8054 14.7463L13.9768 14.8495ZM12.8891 15.6016C13.378 15.4819 13.7468 15.2311 13.9768 14.8495L13.8055 14.7463C13.6074 15.0749 13.2878 15.2981 12.8416 15.4074L12.8891 15.6016ZM10.7594 17.0835C11.3089 17.0835 11.7885 16.8023 12.1599 16.478C12.5325 16.1528 12.8072 15.7748 12.9489 15.5595L12.7818 15.4495C12.6451 15.6573 12.3818 16.0188 12.0284 16.3273C11.674 16.6368 11.2398 16.8835 10.7594 16.8835V17.0835ZM10.7371 17.0833L10.7585 17.0835L10.7603 16.8835L10.7388 16.8833L10.7371 17.0833ZM9.22227 16.1968C9.6566 16.7682 10.1638 17.0751 10.7365 17.0833L10.7394 16.8833C10.2463 16.8763 9.79115 16.6147 9.38149 16.0758L9.22227 16.1968ZM7.86765 17.0833C8.44015 17.0751 8.94753 16.7682 9.38151 16.1968L9.22225 16.0758C8.81297 16.6147 8.3577 16.8763 7.86477 16.8833L7.86765 17.0833ZM7.84545 17.0835L7.86706 17.0833L7.86536 16.8833L7.84376 16.8835L7.84545 17.0835ZM5.65521 15.5594C5.79679 15.7748 6.07149 16.1528 6.44398 16.478C6.81542 16.8023 7.29505 17.0835 7.8446 17.0835V16.8835C7.36413 16.8835 6.92994 16.6368 6.57552 16.3273C6.22215 16.0188 5.95895 15.6573 5.82233 15.4495L5.65521 15.5594ZM4.62757 14.8494C4.85717 15.2311 5.22626 15.4821 5.71502 15.6016L5.76252 15.4073C5.31646 15.2983 4.99659 15.0749 4.79895 14.7463L4.62757 14.8494ZM4.41118 13.5688C4.36369 13.8945 4.3556 14.3975 4.62758 14.8494L4.79894 14.7463C4.5614 14.3516 4.56453 13.9033 4.60909 13.5977L4.41118 13.5688ZM3.15586 10.7283C3.03745 11.5681 3.1948 12.9436 4.46035 13.67L4.55991 13.4965C3.39749 12.8294 3.24063 11.5595 3.3539 10.7563L3.15586 10.7283ZM2.43911 6.59136C2.15503 7.06579 1.89642 7.77979 1.93238 8.54812C1.96855 9.32097 2.30286 10.1429 3.19429 10.8219L3.31548 10.6628C2.47278 10.0209 2.16567 9.25468 2.13216 8.53877C2.09845 7.81836 2.34192 7.14299 2.6107 6.6941L2.43911 6.59136ZM3.29144 3.47391C2.63126 4.18297 2.34749 5.2576 2.42506 6.6483L2.62475 6.63716C2.54875 5.27463 2.82944 4.26362 3.43781 3.6102L3.29144 3.47391ZM4.67986 2.71285C4.34658 2.77263 3.77927 2.94995 3.29144 3.47391L3.43781 3.6102C3.88699 3.12775 4.40903 2.96462 4.71516 2.90971L4.67986 2.71285ZM6.36466 1.64244C5.84888 1.61641 5.07754 1.8345 4.6082 2.76629L4.78682 2.85626C5.21518 2.00583 5.90527 1.81951 6.35458 1.84218L6.36466 1.64244ZM8.5917 0.979326C8.0273 0.83784 7.18631 0.859011 6.29251 1.66818L6.42673 1.81644C7.26608 1.05658 8.03667 1.04638 8.54307 1.17332L8.5917 0.979326ZM9.35754 1.3218C9.17611 1.20023 8.91593 1.06045 8.59165 0.979315L8.54311 1.17333C8.83968 1.24754 9.07878 1.37576 9.24622 1.48795L9.35754 1.3218ZM10.0122 0.979319C9.68821 1.06045 9.4278 1.20018 9.24623 1.32179L9.35753 1.48796C9.52508 1.37575 9.76443 1.24754 10.0608 1.17333L10.0122 0.979319ZM12.3116 1.66816C11.4176 0.859271 10.5765 0.837833 10.0122 0.979327L10.0608 1.17332C10.5671 1.04638 11.3378 1.05681 12.1774 1.81646L12.3116 1.66816ZM13.9959 2.76628C13.5264 1.83442 12.7526 1.61683 12.2395 1.64243L12.2495 1.84219C12.6964 1.81988 13.3889 2.00592 13.8173 2.85627L13.9959 2.76628ZM15.3127 3.4739C14.8247 2.94993 14.2574 2.77282 13.9243 2.71286L13.8889 2.9097C14.195 2.96479 14.717 3.12776 15.1663 3.6102L15.3127 3.4739ZM14.6269 10.1463C14.4509 10.2636 14.3682 10.4797 14.4176 10.6842L14.612 10.6372C14.582 10.5133 14.6326 10.3829 14.7379 10.3127L14.6269 10.1463ZM15.2498 7.02404C15.3129 7.11978 15.6116 7.60346 15.6662 8.2115C15.6933 8.51386 15.6599 8.8452 15.5086 9.1755C15.3574 9.50549 15.0857 9.84044 14.6269 10.1463L14.7378 10.3127C15.2234 9.989 15.5218 9.62677 15.6904 9.25882C15.8589 8.89119 15.895 8.52384 15.8654 8.19362C15.8064 7.53652 15.4863 7.01954 15.4169 6.91407L15.2498 7.02404ZM15.1678 6.71112C15.16 6.82136 15.1894 6.93199 15.2498 7.02392L15.417 6.91419C15.3804 6.85841 15.3627 6.79119 15.3673 6.72522L15.1678 6.71112ZM14.5769 4.15824C15.0377 4.6534 15.2524 5.52738 15.1678 6.71104L15.3673 6.7253C15.4534 5.52151 15.2406 4.57792 14.7234 4.022L14.5769 4.15824ZM13.6331 3.6863C13.6258 3.6863 14.1476 3.69725 14.577 4.15827L14.7233 4.02197C14.2398 3.50276 13.6516 3.4863 13.6331 3.4863V3.6863ZM13.1668 3.37045C13.2429 3.56124 13.4278 3.6863 13.6331 3.6863V3.4863C13.5095 3.4863 13.3983 3.41098 13.3525 3.29636L13.1668 3.37045ZM12.2192 2.65556C12.244 2.65021 12.3975 2.62225 12.5839 2.69573C12.7665 2.76773 12.9957 2.94301 13.1668 3.37055L13.3525 3.29626C13.1638 2.82466 12.8978 2.60451 12.6573 2.50967C12.4205 2.41633 12.2231 2.45013 12.1771 2.46004L12.2192 2.65556ZM11.751 2.5212C11.8731 2.6434 12.0539 2.69128 12.2192 2.65554L12.177 2.46006C12.0743 2.48225 11.9638 2.45126 11.8925 2.37986L11.751 2.5212ZM9.65917 2.26977C9.70475 2.22548 9.94713 2.00571 10.3149 1.93732C10.6746 1.87043 11.1746 1.94455 11.7511 2.52123L11.8925 2.37983C11.2753 1.76242 10.7106 1.6603 10.2783 1.74069C9.85407 1.81959 9.57711 2.07063 9.51978 2.12635L9.65917 2.26977ZM9.30701 2.41393C9.43847 2.41393 9.56614 2.36011 9.65914 2.2698L9.51981 2.12632C9.46291 2.18157 9.38477 2.21393 9.30701 2.21393V2.41393ZM9.29663 2.41393H9.30701V2.21393H9.29663V2.41393ZM8.94137 2.26676C9.03556 2.36094 9.1634 2.41393 9.29663 2.41393V2.21393C9.21648 2.21393 9.13949 2.18203 9.0828 2.12533L8.94137 2.26676ZM6.85283 2.52122C7.42889 1.94486 7.92881 1.87074 8.28834 1.93737C8.65589 2.00548 8.89789 2.22464 8.9425 2.26786L9.08167 2.12423C9.02533 2.06964 8.74877 1.81929 8.32479 1.74072C7.89278 1.66066 7.32819 1.76269 6.71137 2.37984L6.85283 2.52122ZM6.37593 2.65345C6.54674 2.69585 6.72777 2.64621 6.85279 2.52126L6.71142 2.3798C6.63625 2.45492 6.52724 2.48494 6.42412 2.45934L6.37593 2.65345ZM5.43708 3.37036C5.60807 2.94294 5.83738 2.76762 6.01943 2.69547C6.20524 2.62183 6.35738 2.64956 6.3792 2.6542L6.42085 2.45859C6.3776 2.44938 6.18166 2.41604 5.94575 2.50954C5.70607 2.60453 5.44002 2.82455 5.25139 3.29608L5.43708 3.37036ZM4.9707 3.68612C5.17614 3.68612 5.36088 3.56104 5.4371 3.37033L5.25138 3.29611C5.20553 3.41082 5.09437 3.48612 4.9707 3.48612V3.68612ZM4.01601 4.16982C4.44452 3.70024 4.96425 3.68629 4.97289 3.6861L4.96852 3.48614C4.9381 3.48681 4.35113 3.50587 3.86827 4.03501L4.01601 4.16982ZM3.43593 6.71085C3.35193 5.53664 3.56263 4.66652 4.016 4.16983L3.86828 4.035C3.35973 4.59215 3.151 5.5308 3.23644 6.72512L3.43593 6.71085ZM3.3527 7.0254C3.41465 6.9326 3.4437 6.82187 3.43594 6.711L3.23643 6.72497C3.24112 6.79196 3.22354 6.85866 3.18636 6.91436L3.3527 7.0254ZM3.97698 10.1459C3.51826 9.84004 3.2466 9.50508 3.09538 9.17511C2.94401 8.84482 2.91059 8.51351 2.93766 8.21123C2.99209 7.60333 3.29054 7.11996 3.35309 7.02481L3.18597 6.91495C3.11705 7.01978 2.79728 7.53645 2.73846 8.19339C2.7089 8.52352 2.7451 8.89083 2.91356 9.25843C3.08217 9.62636 3.38054 9.98859 3.86603 10.3123L3.97698 10.1459ZM4.18564 10.6857C4.23716 10.4797 4.15346 10.2637 3.97703 10.1459L3.86599 10.3123C3.97227 10.3832 4.0226 10.5133 3.99161 10.6372L4.18564 10.6857ZM5.16867 12.9014C4.48904 12.6101 4.24037 12.0792 4.16186 11.6055C4.08265 11.1276 4.17872 10.714 4.18576 10.6852L3.99148 10.6377C3.9818 10.6773 3.8789 11.1214 3.96455 11.6382C4.05089 12.1591 4.33091 12.7599 5.08988 13.0853L5.16867 12.9014ZM5.4473 13.5221C5.52984 13.2741 5.40895 13.0042 5.16861 12.9014L5.08994 13.0853C5.23437 13.1471 5.30732 13.3094 5.25753 13.4589L5.4473 13.5221ZM5.4897 14.3332C5.4127 14.2068 5.38854 14.0418 5.39232 13.8826C5.39606 13.7246 5.42699 13.5853 5.44762 13.5211L5.25721 13.4599C5.23097 13.5416 5.19659 13.6998 5.19237 13.8778C5.18818 14.0547 5.2134 14.2641 5.31889 14.4372L5.4897 14.3332ZM6.07104 14.6492C5.76448 14.598 5.5845 14.4888 5.48969 14.3332L5.3189 14.4373C5.45578 14.6619 5.70134 14.7902 6.03809 14.8464L6.07104 14.6492ZM6.42225 14.8917C6.34705 14.7624 6.21819 14.6737 6.07103 14.6492L6.0381 14.8464C6.12678 14.8612 6.20422 14.9146 6.24938 14.9922L6.42225 14.8917ZM7.84448 16.0783C7.56563 16.0783 7.26407 15.8811 6.99545 15.6181C6.73122 15.3594 6.51971 15.0576 6.42205 14.8913L6.24958 14.9926C6.35456 15.1713 6.57652 15.4878 6.85553 15.761C7.13015 16.0299 7.48161 16.2783 7.84448 16.2783V16.0783ZM7.85366 16.0781L7.8428 16.0783L7.84617 16.2783L7.85703 16.2781L7.85366 16.0781ZM8.85532 15.1587C8.68413 15.4725 8.51203 15.7033 8.34195 15.8552C8.17254 16.0065 8.00985 16.0757 7.85379 16.0781L7.85691 16.2781C8.07426 16.2747 8.2812 16.1776 8.47518 16.0044C8.66851 15.8317 8.85359 15.5795 9.03091 15.2544L8.85532 15.1587ZM9.29663 14.8973C9.11293 14.8973 8.94368 14.9975 8.85543 15.1585L9.0308 15.2546C9.08391 15.1577 9.1859 15.0973 9.29663 15.0973V14.8973ZM9.74844 15.1591C9.65896 14.995 9.47731 14.8973 9.29663 14.8973V15.0973C9.41014 15.0973 9.52121 15.1602 9.57285 15.2549L9.74844 15.1591ZM10.7499 16.0786C10.5939 16.0761 10.4312 16.0069 10.2617 15.8556C10.0916 15.7037 9.91951 15.473 9.74845 15.1591L9.57284 15.2548C9.75005 15.58 9.93516 15.8321 10.1285 16.0048C10.3225 16.178 10.5295 16.2751 10.7467 16.2785L10.7499 16.0786ZM10.761 16.0788L10.7499 16.0786L10.7466 16.2785L10.7578 16.2787L10.761 16.0788ZM12.182 14.8915C12.0842 15.0579 11.8727 15.3597 11.6084 15.6185C11.3397 15.8815 11.0382 16.0787 10.7594 16.0787V16.2787C11.1222 16.2787 11.4737 16.0303 11.7483 15.7614C12.0274 15.4882 12.2494 15.1717 12.3544 14.9928L12.182 14.8915ZM12.5328 14.6498C12.386 14.6745 12.2575 14.7631 12.182 14.8915L12.3544 14.9929C12.4 14.9153 12.4776 14.8619 12.5659 14.8471L12.5328 14.6498ZM13.1156 14.3317C13.0212 14.4885 12.8408 14.5984 12.5329 14.6498L12.5658 14.8471C12.9041 14.7906 13.1505 14.6615 13.287 14.4349L13.1156 14.3317ZM13.1572 13.5243C13.1555 13.5193 13.1945 13.6449 13.2077 13.8135C13.2211 13.9838 13.2067 14.1803 13.1156 14.3317L13.287 14.4348C13.41 14.2303 13.4217 13.9833 13.4071 13.7979C13.3924 13.6108 13.3495 13.4682 13.3459 13.458L13.1572 13.5243ZM13.4354 12.902C13.195 13.0048 13.0742 13.275 13.1567 13.5228L13.3465 13.4595C13.2967 13.3102 13.3697 13.1477 13.5141 13.0859L13.4354 12.902ZM14.4176 10.6844C14.4249 10.714 14.521 11.1279 14.4418 11.6061C14.3634 12.0801 14.1148 12.6109 13.4353 12.9021L13.5141 13.0859C14.2729 12.7608 14.5529 12.1599 14.6392 11.6388C14.7247 11.1218 14.6218 10.6772 14.6119 10.6369L14.4176 10.6844Z" fill="#0C49CD"/>
</g>
<path id="Shape_2" d="M5.09741 2.80245C4.88695 2.73285 4.65862 2.84612 4.58837 3.05695C4.51813 3.26777 4.63204 3.49556 4.84287 3.56599C6.05349 3.96959 6.09351 4.91947 6.09474 4.96915C6.09657 5.18987 6.27603 5.36815 6.49716 5.36815C6.71947 5.36815 6.89957 5.18787 6.89935 4.96555C6.89935 4.90196 6.87883 3.39637 5.09741 2.80245Z" fill="#0C49CD" stroke="#0C49CD" stroke-width="0.2"/>
<path id="Shape_3" d="M6.38237 9.42328C6.17432 9.34624 5.94235 9.45305 5.86549 9.6615C5.86267 9.66893 5.57116 10.4208 5.02087 10.5808C4.71422 10.6701 4.35187 10.5565 3.94203 10.2442C3.76516 10.1096 3.51267 10.1434 3.37806 10.3205C3.24327 10.4971 3.27746 10.7496 3.4541 10.8844C3.91887 11.2385 4.37157 11.4166 4.80575 11.4166C4.95463 11.4166 5.10132 11.3957 5.24555 11.3534C6.19019 11.079 6.60322 9.98624 6.62032 9.93998C6.69745 9.73152 6.59083 9.50032 6.38237 9.42328Z" fill="#0C49CD" stroke="#0C49CD" stroke-width="0.2"/>
<path id="Shape_4" d="M7.7998 12.0612C7.64286 11.9041 7.38795 11.9041 7.23082 12.0612C6.0651 13.2269 6.34877 14.4287 6.36144 14.4794C6.40689 14.6615 6.5699 14.7818 6.74977 14.7818C6.78095 14.7818 6.81236 14.7782 6.84413 14.7707C7.05842 14.7198 7.19139 14.5035 7.1433 14.2887C7.13587 14.2553 6.96944 13.4605 7.7998 12.6302C7.95693 12.4731 7.95693 12.2183 7.7998 12.0612Z" fill="#0C49CD" stroke="#0C49CD" stroke-width="0.2"/>
<path id="Shape_5" d="M8.45852 6.38757C7.95791 6.13768 7.57346 6.43826 7.2344 6.70365C6.965 6.91452 6.6296 7.17727 6.09321 7.39174C5.11981 7.78107 4.30194 6.79418 4.26574 6.74951C4.12653 6.57688 3.87381 6.54853 3.70077 6.68756C3.52733 6.82641 3.49916 7.07949 3.63801 7.25312C3.67867 7.30381 4.48386 8.29052 5.62465 8.29052C5.8667 8.29052 6.12402 8.24608 6.39201 8.13923C7.03502 7.88209 7.43703 7.56724 7.73059 7.33745C7.85494 7.23985 8.02533 7.10647 8.07807 7.09923C8.07807 7.09923 8.0845 7.10064 8.09859 7.10766C8.29738 7.20703 8.53902 7.12635 8.63862 6.9276C8.73777 6.72863 8.65731 6.48699 8.45852 6.38757Z" fill="#0C49CD" stroke="#0C49CD" stroke-width="0.2"/>
<path id="Shape_6" d="M14.0043 3.05717C13.9341 2.8463 13.7069 2.73202 13.4953 2.80268C11.7139 3.39659 11.6934 4.90196 11.6934 4.96578C11.6934 5.18627 11.871 5.36354 12.0915 5.36596C12.0929 5.36596 12.0944 5.36596 12.0958 5.36596C12.3145 5.36596 12.4934 5.18891 12.498 4.97002C12.4988 4.92935 12.533 3.97186 13.7498 3.56626C13.9607 3.49596 14.0747 3.26804 14.0043 3.05717Z" fill="#0C49CD" stroke="#0C49CD" stroke-width="0.2"/>
<path id="Shape_7" d="M15.2151 10.3206C15.0805 10.144 14.828 10.1097 14.6511 10.2443C14.2421 10.5562 13.8805 10.6691 13.5749 10.5818C13.1154 10.45 12.8074 9.87251 12.7273 9.66068C12.6503 9.45264 12.4179 9.34602 12.211 9.42346C12.0024 9.50032 11.8958 9.7317 11.9728 9.94016C11.9899 9.98643 12.403 11.0792 13.3476 11.3536C13.4918 11.3956 13.6385 11.4166 13.7872 11.4166C14.2212 11.4166 14.6741 11.2385 15.1388 10.8846C15.3157 10.7498 15.3497 10.4972 15.2151 10.3206Z" fill="#0C49CD" stroke="#0C49CD" stroke-width="0.2"/>
<path id="Shape_8" d="M11.0014 10.9367C10.8443 10.7796 10.5895 10.7796 10.4324 10.9367C10.2753 11.0936 10.2753 11.3485 10.4324 11.5057C11.2579 12.3312 11.0982 13.1215 11.0889 13.1636C11.0376 13.3776 11.1686 13.5937 11.3827 13.6474C11.4154 13.6557 11.4483 13.6595 11.4807 13.6595C11.661 13.6595 11.8249 13.5376 11.8706 13.3549C11.8832 13.3042 12.1669 12.1025 11.0014 10.9367Z" fill="#0C49CD" stroke="#0C49CD" stroke-width="0.2"/>
<path id="Shape_9" d="M14.8544 8.03019C14.7792 7.82174 14.5488 7.7137 14.3398 7.78814C14.2885 7.80647 13.0751 8.22757 12.4443 7.38837C12.0975 6.92642 11.9472 6.52783 11.8264 6.20751C11.6745 5.80473 11.5021 5.34798 10.9442 5.30212C10.7219 5.28179 10.5285 5.44859 10.5102 5.67012C10.4919 5.89166 10.6566 6.08599 10.8782 6.10413C10.8893 6.10513 10.8955 6.10655 10.8971 6.10655H10.8973C10.9425 6.14456 11.0182 6.34495 11.0733 6.49164C11.2047 6.84031 11.385 7.31794 11.8011 7.87188C12.3069 8.54488 13.0095 8.71327 13.5863 8.71327C14.1404 8.71327 14.5784 8.55796 14.6148 8.54465C14.8228 8.46857 14.9297 8.2386 14.8544 8.03019Z" fill="#0C49CD" stroke="#0C49CD" stroke-width="0.2"/>
<path id="Shape_10" d="M9.29646 1.50955C9.07433 1.50955 8.89404 1.68984 8.89404 1.91197V15.3997C8.89404 15.6219 9.07433 15.8022 9.29646 15.8022C9.51859 15.8022 9.69887 15.6219 9.69887 15.3997V1.91192C9.69887 1.68984 9.51859 1.50955 9.29646 1.50955Z" fill="#0C49CD" stroke="#0C49CD" stroke-width="0.2"/>
<path id="Shape_11" d="M7.22971 10.4842C6.02109 9.67844 6.82187 8.01694 6.8577 7.94428C6.95648 7.74549 6.87602 7.50444 6.67741 7.40507C6.47885 7.30588 6.23698 7.38638 6.13738 7.58513C5.73036 8.39939 5.34143 10.1929 6.78303 11.1538C6.85145 11.1996 6.92908 11.2214 7.00575 11.2214C7.13571 11.2214 7.26349 11.1586 7.34134 11.0421C7.46451 10.8572 7.4146 10.6073 7.22971 10.4842Z" fill="#0C49CD" stroke="#0C49CD" stroke-width="0.2"/>
</g>
</g>
</svg>
