<svg width="18" height="18" viewBox="0 0 18 18" fill="none" xmlns="http://www.w3.org/2000/svg">
<g id="Brain White">
<rect id="Rectangle 4 Copy 36" width="18" height="18" fill="#F4F7FB" fill-opacity="0.01"/>
<g id="brain (1)">
<g id="Shape">
<path fill-rule="evenodd" clip-rule="evenodd" d="M15.2395 3.54205C15.8738 4.2233 16.1562 5.2659 16.0793 6.64273C16.6321 7.56604 17.0833 9.42148 15.3494 10.7423C15.4653 11.564 15.3081 12.8867 14.094 13.5833C14.1401 13.8989 14.1458 14.375 13.8911 14.7979C13.6772 15.153 13.333 15.39 12.8652 15.5045C12.5869 15.9276 11.7893 16.9835 10.7593 16.9835L10.7378 16.9833C10.2051 16.9757 9.72388 16.6914 9.302 16.1363C8.88013 16.6914 8.39893 16.9757 7.86621 16.9833L7.84473 16.9835C6.81445 16.9835 6.01685 15.9276 5.73877 15.5045C5.27124 15.3902 4.92676 15.153 4.71313 14.7979C4.4585 14.3745 4.46411 13.8989 4.51025 13.5833C3.29614 12.8865 3.13892 11.5638 3.25488 10.7423C1.52075 9.42148 1.97217 7.56604 2.5249 6.64273C2.448 5.26611 2.73047 4.2233 3.3645 3.54205C3.83301 3.03885 4.37769 2.86862 4.69751 2.81128C5.14624 1.92017 5.8772 1.71796 6.35962 1.74231C7.22607 0.957794 8.03198 0.942108 8.56738 1.07632C8.87793 1.15399 9.12744 1.28799 9.302 1.40488C9.47632 1.28796 9.72632 1.15399 10.0366 1.07632C10.5718 0.942108 11.3777 0.958038 12.2444 1.74231C12.7246 1.71835 13.4578 1.92017 13.9065 2.81128C14.2263 2.8688 14.771 3.03885 15.2395 3.54205ZM14.5146 10.6607C14.4751 10.4965 14.5417 10.3233 14.6824 10.2295C16.571 8.9704 15.4658 7.17026 15.3333 6.96906C15.2849 6.8952 15.2612 6.80627 15.2676 6.71817C15.3528 5.52444 15.1392 4.61566 14.6501 4.09012C14.1938 3.60001 13.6387 3.5863 13.6331 3.5863C13.4688 3.5863 13.3206 3.48611 13.2595 3.3334C12.8999 2.43427 12.269 2.54254 12.198 2.5578C12.064 2.58676 11.9185 2.54733 11.8218 2.45053C10.6282 1.25644 9.69238 2.09805 9.5896 2.19806C9.5144 2.27084 9.41162 2.31393 9.30713 2.31393H9.29663C9.18994 2.31393 9.08765 2.27148 9.01221 2.19604C8.91113 2.09824 7.97485 1.25702 6.78198 2.45053C6.68213 2.55057 6.53711 2.59039 6.3999 2.5564C6.33496 2.54254 5.70386 2.43427 5.34424 3.33322C5.2832 3.48593 5.13525 3.58612 4.9707 3.58612C4.95117 3.58655 4.39795 3.60306 3.94214 4.10242C3.46118 4.62933 3.25146 5.53372 3.33618 6.71799C3.34253 6.80692 3.31909 6.89563 3.26953 6.96988C3.13794 7.16986 2.03296 8.96997 3.92139 10.2291C4.01929 10.2944 4.08154 10.3973 4.09692 10.5092C4.10376 10.5591 4.10132 10.6107 4.08862 10.6615C4.07202 10.7299 3.69067 12.3767 5.12939 12.9933C5.32153 13.0757 5.4187 13.2917 5.35229 13.4905C5.30566 13.6364 5.22192 14.0856 5.4043 14.3852C5.52026 14.5753 5.73291 14.6941 6.05469 14.7478C6.17236 14.7675 6.27563 14.8385 6.33594 14.942C6.53857 15.287 7.20288 16.1783 7.84448 16.1783L7.85522 16.1781C8.22876 16.1723 8.59473 15.8456 8.94312 15.2065C9.01367 15.0776 9.14941 14.9973 9.29663 14.9973C9.44385 14.9973 9.59009 15.0776 9.66064 15.207C10.0088 15.846 10.375 16.1727 10.7483 16.1786L10.7595 16.1787C11.4011 16.1787 12.0654 15.2874 12.2683 14.9422C12.3286 14.8392 12.4316 14.7682 12.5493 14.7484C12.8723 14.6945 13.0859 14.575 13.2014 14.3833C13.4153 14.0273 13.2534 13.4964 13.2517 13.4911C13.1855 13.2926 13.2825 13.0763 13.4749 12.994C14.9128 12.3777 14.5317 10.7305 14.5146 10.6607Z" fill="white"/>
<path d="M16.0793 6.64273L15.9795 6.63715L15.9778 6.66778L15.9935 6.69409L16.0793 6.64273ZM15.2395 3.54205L15.1663 3.6102V3.6102L15.2395 3.54205ZM15.3494 10.7423L15.2888 10.6628L15.2422 10.6983L15.2503 10.7563L15.3494 10.7423ZM14.094 13.5833L14.0442 13.4965L13.9852 13.5304L13.995 13.5977L14.094 13.5833ZM13.8911 14.7979L13.9768 14.8495L13.9768 14.8495L13.8911 14.7979ZM12.8652 15.5045L12.8415 15.4074L12.8033 15.4167L12.7817 15.4495L12.8652 15.5045ZM10.7593 16.9835L10.7584 17.0835H10.7593V16.9835ZM10.7378 16.9833L10.7364 17.0833L10.7369 17.0833L10.7378 16.9833ZM9.302 16.1363L9.38162 16.0758L9.302 15.971L9.22238 16.0758L9.302 16.1363ZM7.86621 16.9833L7.86706 17.0833L7.86765 17.0833L7.86621 16.9833ZM7.84473 16.9835V17.0835L7.84558 17.0835L7.84473 16.9835ZM5.73877 15.5045L5.82234 15.4496L5.80073 15.4167L5.76252 15.4073L5.73877 15.5045ZM4.71313 14.7979L4.62744 14.8494L4.62745 14.8494L4.71313 14.7979ZM4.51025 13.5833L4.6092 13.5977L4.61904 13.5304L4.56003 13.4965L4.51025 13.5833ZM3.25488 10.7423L3.3539 10.7563L3.36209 10.6983L3.31548 10.6628L3.25488 10.7423ZM2.5249 6.64273L2.6107 6.69409L2.62646 6.66778L2.62475 6.63715L2.5249 6.64273ZM3.3645 3.54205L3.29131 3.47391L3.2913 3.47392L3.3645 3.54205ZM4.69751 2.81128L4.71516 2.90971L4.76435 2.90089L4.78682 2.85625L4.69751 2.81128ZM6.35962 1.74231L6.35458 1.84218L6.396 1.84427L6.42674 1.81644L6.35962 1.74231ZM8.56738 1.07632L8.54307 1.17332L8.54312 1.17334L8.56738 1.07632ZM9.302 1.40488L9.24636 1.48797L9.30205 1.52525L9.3577 1.48793L9.302 1.40488ZM10.0366 1.07632L10.0609 1.17333L10.0609 1.17332L10.0366 1.07632ZM12.2444 1.74231L12.1773 1.81646L12.208 1.84425L12.2494 1.84219L12.2444 1.74231ZM13.9065 2.81128L13.8172 2.85625L13.8396 2.90086L13.8888 2.9097L13.9065 2.81128ZM14.6824 10.2295L14.6269 10.1463L14.6269 10.1463L14.6824 10.2295ZM14.5146 10.6607L14.4174 10.6841L14.4175 10.6844L14.5146 10.6607ZM15.3333 6.96906L15.2496 7.02382L15.2497 7.02407L15.3333 6.96906ZM15.2676 6.71817L15.3673 6.72536L15.3673 6.72529L15.2676 6.71817ZM14.6501 4.09012L14.7234 4.022L14.7233 4.02198L14.6501 4.09012ZM13.2595 3.3334L13.3524 3.29629L13.3524 3.29627L13.2595 3.3334ZM12.198 2.5578L12.177 2.46003L12.1769 2.46006L12.198 2.5578ZM11.8218 2.45053L11.8925 2.37986L11.8925 2.37983L11.8218 2.45053ZM9.5896 2.19806L9.65915 2.26991L9.65934 2.26973L9.5896 2.19806ZM9.01221 2.19604L9.08293 2.12532L9.08175 2.12418L9.01221 2.19604ZM6.78198 2.45053L6.71125 2.37984L6.71121 2.37989L6.78198 2.45053ZM6.3999 2.5564L6.42397 2.45928L6.42077 2.4586L6.3999 2.5564ZM5.34424 3.33322L5.25139 3.29608L5.25138 3.29611L5.34424 3.33322ZM4.9707 3.58612V3.4861L4.96852 3.48614L4.9707 3.58612ZM3.94214 4.10242L3.86828 4.035L3.86828 4.035L3.94214 4.10242ZM3.33618 6.71799L3.43593 6.71087L3.43593 6.71085L3.33618 6.71799ZM3.26953 6.96988L3.18636 6.91436L3.18599 6.91491L3.26953 6.96988ZM3.92139 10.2291L3.97688 10.1459L3.97686 10.1459L3.92139 10.2291ZM4.09692 10.5092L4.196 10.4956L4.19599 10.4956L4.09692 10.5092ZM4.08862 10.6615L3.9916 10.6372L3.99144 10.6379L4.08862 10.6615ZM5.12939 12.9933L5.09 13.0853L5.09002 13.0853L5.12939 12.9933ZM5.35229 13.4905L5.25744 13.4588L5.25705 13.4601L5.35229 13.4905ZM5.4043 14.3852L5.31888 14.4372L5.31892 14.4373L5.4043 14.3852ZM6.05469 14.7478L6.07119 14.6492L6.07115 14.6492L6.05469 14.7478ZM6.33594 14.942L6.24954 14.9923L6.24971 14.9926L6.33594 14.942ZM7.84448 16.1783V16.2783L7.84619 16.2783L7.84448 16.1783ZM7.85522 16.1781L7.85366 16.0781L7.85352 16.0781L7.85522 16.1781ZM8.94312 15.2065L8.85539 15.1585L8.85532 15.1587L8.94312 15.2065ZM9.66064 15.207L9.74846 15.1591L9.74844 15.1591L9.66064 15.207ZM10.7483 16.1786L10.7499 16.0786L10.7499 16.0786L10.7483 16.1786ZM10.7595 16.1787L10.7579 16.2787H10.7595V16.1787ZM12.2683 14.9422L12.3545 14.9928L12.3546 14.9927L12.2683 14.9422ZM12.5493 14.7484L12.5328 14.6498L12.5328 14.6498L12.5493 14.7484ZM13.2014 14.3833L13.2871 14.4349L13.2871 14.4348L13.2014 14.3833ZM13.2517 13.4911L13.3467 13.46L13.3466 13.4595L13.2517 13.4911ZM13.4749 12.994L13.5142 13.0859L13.5142 13.0859L13.4749 12.994ZM16.1792 6.64831C16.2569 5.25737 15.9729 4.18296 15.3127 3.47391L15.1663 3.6102C15.7747 4.26363 16.0556 5.27443 15.9795 6.63715L16.1792 6.64831ZM15.41 10.8219C16.3013 10.1429 16.6355 9.32097 16.6717 8.54813C16.7077 7.77979 16.4492 7.06579 16.1651 6.59137L15.9935 6.69409C16.2623 7.14298 16.5057 7.81835 16.4719 8.53877C16.4384 9.25468 16.1313 10.0209 15.2888 10.6628L15.41 10.8219ZM14.1438 13.67C15.4094 12.9438 15.5669 11.5683 15.4484 10.7283L15.2503 10.7563C15.3637 11.5598 15.2068 12.8295 14.0442 13.4965L14.1438 13.67ZM13.9768 14.8495C14.2487 14.3979 14.2406 13.8945 14.1929 13.5688L13.995 13.5977C14.0397 13.9033 14.0428 14.352 13.8054 14.7463L13.9768 14.8495ZM12.889 15.6016C13.3781 15.4819 13.7469 15.2311 13.9768 14.8495L13.8054 14.7463C13.6076 15.0749 13.2879 15.2981 12.8415 15.4074L12.889 15.6016ZM10.7593 17.0835C11.3088 17.0835 11.7885 16.8023 12.1599 16.478C12.5324 16.1528 12.8071 15.7748 12.9488 15.5594L12.7817 15.4495C12.645 15.6573 12.3818 16.0188 12.0284 16.3273C11.6739 16.6368 11.2397 16.8835 10.7593 16.8835V17.0835ZM10.7369 17.0833L10.7584 17.0835L10.7601 16.8835L10.7386 16.8833L10.7369 17.0833ZM9.22238 16.1968C9.6566 16.7681 10.1638 17.0751 10.7364 17.0833L10.7392 16.8833C10.2463 16.8763 9.79116 16.6147 9.38162 16.0758L9.22238 16.1968ZM7.86765 17.0833C8.44016 17.0751 8.94741 16.7681 9.38162 16.1968L9.22238 16.0758C8.81285 16.6147 8.35769 16.8763 7.86477 16.8833L7.86765 17.0833ZM7.84558 17.0835L7.86706 17.0833L7.86536 16.8833L7.84387 16.8835L7.84558 17.0835ZM5.6552 15.5594C5.79673 15.7748 6.07139 16.1528 6.44391 16.478C6.81537 16.8023 7.29505 17.0835 7.84473 17.0835V16.8835C7.36413 16.8835 6.92987 16.6368 6.57544 16.3273C6.22206 16.0188 5.95889 15.6573 5.82234 15.4496L5.6552 15.5594ZM4.62745 14.8494C4.85705 15.2311 5.22615 15.4821 5.71502 15.6016L5.76252 15.4073C5.31633 15.2983 4.99646 15.0749 4.79882 14.7463L4.62745 14.8494ZM4.41131 13.5688C4.36369 13.8945 4.3556 14.3975 4.62744 14.8494L4.79883 14.7463C4.5614 14.3516 4.56453 13.9033 4.6092 13.5977L4.41131 13.5688ZM3.15586 10.7283C3.03732 11.5681 3.19481 12.9436 4.46048 13.67L4.56003 13.4965C3.39748 12.8294 3.24051 11.5595 3.3539 10.7563L3.15586 10.7283ZM2.4391 6.59137C2.15509 7.06579 1.89649 7.77978 1.93243 8.54812C1.96858 9.32097 2.30286 10.1429 3.19429 10.8219L3.31548 10.6628C2.47278 10.0209 2.1657 9.25468 2.13221 8.53878C2.09851 7.81836 2.34198 7.14298 2.6107 6.69409L2.4391 6.59137ZM3.2913 3.47392C2.63139 4.18298 2.34737 5.25758 2.42506 6.64831L2.62475 6.63715C2.54863 5.27464 2.82955 4.26362 3.4377 3.61018L3.2913 3.47392ZM4.67986 2.71285C4.34646 2.77263 3.77915 2.94995 3.29131 3.47391L3.43769 3.6102C3.88687 3.12775 4.40891 2.96462 4.71516 2.90971L4.67986 2.71285ZM6.36466 1.64244C5.84901 1.61641 5.07742 1.8345 4.60819 2.7663L4.78682 2.85625C5.21506 2.00584 5.90538 1.81951 6.35458 1.84218L6.36466 1.64244ZM8.5917 0.979326C8.0273 0.837841 7.18619 0.859008 6.2925 1.66818L6.42674 1.81644C7.26596 1.05658 8.03666 1.04638 8.54307 1.17332L8.5917 0.979326ZM9.35764 1.32178C9.17611 1.20023 8.91606 1.06045 8.59165 0.979312L8.54312 1.17334C8.8398 1.24754 9.07877 1.37575 9.24636 1.48797L9.35764 1.32178ZM10.0123 0.979317C9.68823 1.06044 9.42769 1.20017 9.2463 1.32183L9.3577 1.48793C9.52495 1.37576 9.76441 1.24754 10.0609 1.17333L10.0123 0.979317ZM12.3115 1.66816C11.4176 0.859272 10.5765 0.837831 10.0123 0.979328L10.0609 1.17332C10.5671 1.04638 11.3378 1.0568 12.1773 1.81646L12.3115 1.66816ZM13.9958 2.7663C13.5265 1.83441 12.7527 1.61683 12.2394 1.64243L12.2494 1.84219C12.6965 1.81988 13.389 2.00592 13.8172 2.85625L13.9958 2.7663ZM15.3127 3.47391C14.8248 2.94993 14.2575 2.77281 13.9242 2.71286L13.8888 2.9097C14.1951 2.9648 14.7171 3.12776 15.1663 3.6102L15.3127 3.47391ZM14.6269 10.1463C14.4509 10.2636 14.3682 10.4796 14.4174 10.6841L14.6119 10.6373C14.582 10.5133 14.6326 10.3829 14.7379 10.3127L14.6269 10.1463ZM15.2497 7.02407C15.3128 7.11978 15.6116 7.60346 15.6662 8.21151C15.6933 8.51386 15.6599 8.8452 15.5086 9.1755C15.3574 9.50549 15.0857 9.84044 14.6269 10.1463L14.7378 10.3127C15.2234 9.989 15.5218 9.62677 15.6904 9.25882C15.8589 8.89119 15.895 8.52384 15.8654 8.19362C15.8064 7.53652 15.4863 7.01953 15.4168 6.91404L15.2497 7.02407ZM15.1678 6.71098C15.1599 6.8214 15.1895 6.93203 15.2496 7.02382L15.4169 6.91429C15.3803 6.85838 15.3626 6.79114 15.3673 6.72536L15.1678 6.71098ZM14.5769 4.15824C15.0377 4.6534 15.2523 5.52737 15.1678 6.71105L15.3673 6.72529C15.4532 5.52152 15.2406 4.57793 14.7234 4.022L14.5769 4.15824ZM13.6331 3.6863C13.6258 3.6863 14.1478 3.69726 14.577 4.15826L14.7233 4.02198C14.2399 3.50275 13.6516 3.4863 13.6331 3.4863V3.6863ZM13.1667 3.37052C13.2429 3.56126 13.4279 3.6863 13.6331 3.6863V3.4863C13.5096 3.4863 13.3982 3.41097 13.3524 3.29629L13.1667 3.37052ZM12.219 2.65557C12.244 2.6502 12.3975 2.62225 12.5839 2.69573C12.7664 2.76773 12.9957 2.943 13.1667 3.37054L13.3524 3.29627C13.1637 2.82466 12.8977 2.60451 12.6572 2.50967C12.4205 2.41633 12.2231 2.45014 12.177 2.46003L12.219 2.65557ZM11.751 2.5212C11.8731 2.64339 12.0537 2.69128 12.2191 2.65554L12.1769 2.46006C12.0742 2.48224 11.9639 2.45128 11.8925 2.37986L11.751 2.5212ZM9.65934 2.26973C9.70481 2.22549 9.94716 2.00571 10.3149 1.93732C10.6746 1.87043 11.1746 1.94455 11.7511 2.52123L11.8925 2.37983C11.2753 1.76242 10.7106 1.6603 10.2783 1.74069C9.85411 1.81959 9.57717 2.07063 9.51986 2.12639L9.65934 2.26973ZM9.30713 2.41393C9.43855 2.41393 9.56601 2.36007 9.65915 2.26991L9.52005 2.12621C9.4628 2.18162 9.3847 2.21393 9.30713 2.21393V2.41393ZM9.29663 2.41393H9.30713V2.21393H9.29663V2.41393ZM8.9415 2.26676C9.03565 2.36091 9.16337 2.41393 9.29663 2.41393V2.21393C9.21651 2.21393 9.13964 2.18205 9.08292 2.12533L8.9415 2.26676ZM6.85271 2.52122C7.42877 1.94486 7.92872 1.87074 8.2883 1.93737C8.6559 2.00548 8.89796 2.22464 8.94267 2.26791L9.08175 2.12418C9.02538 2.06964 8.74877 1.81929 8.32474 1.74072C7.89269 1.66066 7.32807 1.76269 6.71125 2.37984L6.85271 2.52122ZM6.37585 2.65346C6.54681 2.69582 6.7279 2.64627 6.85276 2.52118L6.71121 2.37989C6.63636 2.45487 6.52741 2.48497 6.42395 2.45933L6.37585 2.65346ZM5.43708 3.37036C5.60807 2.94294 5.83739 2.76762 6.01942 2.69547C6.20522 2.62183 6.35733 2.64956 6.37904 2.6542L6.42077 2.4586C6.37754 2.44937 6.18162 2.41604 5.94573 2.50954C5.70607 2.60453 5.44002 2.82455 5.25139 3.29608L5.43708 3.37036ZM4.9707 3.68612C5.17614 3.68612 5.36088 3.56104 5.4371 3.37033L5.25138 3.29611C5.20553 3.41082 5.09437 3.48612 4.9707 3.48612V3.68612ZM4.016 4.16983C4.44464 3.70024 4.96426 3.68629 4.97289 3.6861L4.96852 3.48614C4.93809 3.48681 4.35126 3.50588 3.86828 4.035L4.016 4.16983ZM3.43593 6.71085C3.35193 5.53664 3.56263 4.66652 4.016 4.16983L3.86828 4.035C3.35973 4.59215 3.151 5.5308 3.23644 6.72512L3.43593 6.71085ZM3.3527 7.0254C3.41459 6.93268 3.44385 6.82192 3.43593 6.71087L3.23644 6.72511C3.2412 6.79191 3.22359 6.85858 3.18636 6.91436L3.3527 7.0254ZM3.97686 10.1459C3.51814 9.84004 3.24647 9.50508 3.09526 9.17511C2.9439 8.84482 2.91048 8.51351 2.93755 8.21123C2.992 7.60334 3.29048 7.11996 3.35307 7.02485L3.18599 6.91491C3.11699 7.01978 2.79719 7.53645 2.73835 8.19339C2.70878 8.52352 2.74498 8.89083 2.91344 9.25843C3.08205 9.62636 3.38042 9.98859 3.86591 10.3123L3.97686 10.1459ZM4.19599 10.4956C4.17679 10.3559 4.09908 10.2274 3.97688 10.1459L3.86589 10.3123C3.93949 10.3614 3.98629 10.4387 3.99786 10.5229L4.19599 10.4956ZM4.18564 10.6857C4.20148 10.6223 4.20454 10.5579 4.196 10.4956L3.99785 10.5228C4.00298 10.5602 4.00116 10.599 3.99161 10.6372L4.18564 10.6857ZM5.16879 12.9014C4.4891 12.6101 4.24043 12.0792 4.16192 11.6055C4.08271 11.1276 4.17877 10.7141 4.1858 10.685L3.99144 10.6379C3.98188 10.6773 3.87896 11.1214 3.96461 11.6382C4.05095 12.1591 4.33097 12.7599 5.09 13.0853L5.16879 12.9014ZM5.44714 13.5222C5.53004 13.274 5.40875 13.0042 5.16877 12.9014L5.09002 13.0853C5.23432 13.1471 5.30737 13.3094 5.25745 13.4588L5.44714 13.5222ZM5.48972 14.3332C5.41276 14.2068 5.38863 14.0418 5.39239 13.8826C5.39612 13.7246 5.42699 13.5853 5.44754 13.521L5.25705 13.4601C5.23097 13.5416 5.19665 13.6998 5.19245 13.8778C5.18827 14.0546 5.21346 14.264 5.31888 14.4372L5.48972 14.3332ZM6.07115 14.6492C5.76451 14.598 5.58461 14.4888 5.48967 14.3332L5.31892 14.4373C5.45592 14.6619 5.70131 14.7902 6.03822 14.8464L6.07115 14.6492ZM6.42233 14.8916C6.34701 14.7624 6.21808 14.6737 6.07119 14.6492L6.03819 14.8464C6.12665 14.8612 6.20426 14.9146 6.24954 14.9923L6.42233 14.8916ZM7.84448 16.0783C7.56569 16.0783 7.26417 15.8811 6.99556 15.6181C6.73134 15.3594 6.51983 15.0576 6.42217 14.8913L6.24971 14.9926C6.35468 15.1713 6.57664 15.4878 6.85563 15.761C7.13024 16.0299 7.48167 16.2783 7.84448 16.2783V16.0783ZM7.85352 16.0781L7.84278 16.0783L7.84619 16.2783L7.85693 16.2781L7.85352 16.0781ZM8.85532 15.1587C8.68419 15.4726 8.51209 15.7033 8.34199 15.8552C8.17255 16.0065 8.0098 16.0757 7.85366 16.0781L7.85678 16.2781C8.07419 16.2747 8.28118 16.1776 8.47521 16.0044C8.66857 15.8317 8.85365 15.5795 9.03091 15.2544L8.85532 15.1587ZM9.29663 14.8973C9.11298 14.8973 8.94354 14.9974 8.85539 15.1585L9.03084 15.2545C9.0838 15.1578 9.18585 15.0973 9.29663 15.0973V14.8973ZM9.74844 15.1591C9.65897 14.9951 9.47745 14.8973 9.29663 14.8973V15.0973C9.41025 15.0973 9.52121 15.1602 9.57285 15.2549L9.74844 15.1591ZM10.7499 16.0786C10.5939 16.0761 10.4311 16.0069 10.2616 15.8556C10.0915 15.7037 9.91945 15.473 9.74846 15.1591L9.57283 15.2548C9.74998 15.58 9.93507 15.8321 10.1284 16.0048C10.3224 16.178 10.5294 16.2751 10.7467 16.2785L10.7499 16.0786ZM10.7612 16.0788L10.7499 16.0786L10.7467 16.2785L10.7579 16.2787L10.7612 16.0788ZM12.1821 14.8915C12.0843 15.0579 11.8727 15.3597 11.6085 15.6185C11.3398 15.8815 11.0383 16.0787 10.7595 16.0787V16.2787C11.1223 16.2787 11.4738 16.0303 11.7484 15.7614C12.0274 15.4882 12.2494 15.1717 12.3545 14.9928L12.1821 14.8915ZM12.5328 14.6498C12.3859 14.6745 12.2573 14.7631 12.182 14.8916L12.3546 14.9927C12.3999 14.9153 12.4774 14.8619 12.5659 14.8471L12.5328 14.6498ZM13.1158 14.3317C13.0213 14.4885 12.8407 14.5984 12.5328 14.6498L12.5658 14.8471C12.9039 14.7906 13.1506 14.6615 13.2871 14.4349L13.1158 14.3317ZM13.1567 13.5223C13.1557 13.5193 13.1945 13.6454 13.2077 13.8135C13.2211 13.9838 13.2067 14.1804 13.1157 14.3318L13.2871 14.4348C13.41 14.2303 13.4216 13.9833 13.4071 13.7979C13.3924 13.6102 13.3494 13.4682 13.3467 13.46L13.1567 13.5223ZM13.4355 12.902C13.1952 13.0048 13.0743 13.275 13.1568 13.5228L13.3466 13.4595C13.2968 13.3102 13.3698 13.1477 13.5142 13.0859L13.4355 12.902ZM14.4175 10.6844C14.4247 10.714 14.5209 11.1279 14.4417 11.6061C14.3633 12.0801 14.1148 12.611 13.4355 12.9021L13.5142 13.0859C14.2729 12.7608 14.5528 12.1599 14.6391 11.6388C14.7246 11.1218 14.6216 10.6772 14.6118 10.6369L14.4175 10.6844Z" fill="white"/>
</g>
<path id="Shape_2" d="M5.09741 2.80245C4.88695 2.73285 4.65862 2.84612 4.58837 3.05695C4.51813 3.26777 4.63204 3.49556 4.84287 3.56599C6.05349 3.96959 6.09351 4.91947 6.09474 4.96915C6.09657 5.18987 6.27603 5.36815 6.49716 5.36815C6.71947 5.36815 6.89957 5.18787 6.89935 4.96555C6.89935 4.90196 6.87883 3.39637 5.09741 2.80245Z" fill="white" stroke="white" stroke-width="0.2"/>
<path id="Shape_3" d="M6.38237 9.42328C6.17432 9.34624 5.94235 9.45305 5.86549 9.6615C5.86267 9.66893 5.57116 10.4208 5.02087 10.5808C4.71422 10.6701 4.35187 10.5565 3.94203 10.2442C3.76516 10.1096 3.51267 10.1434 3.37806 10.3205C3.24327 10.4971 3.27746 10.7496 3.4541 10.8844C3.91887 11.2385 4.37157 11.4166 4.80575 11.4166C4.95463 11.4166 5.10132 11.3957 5.24555 11.3534C6.19019 11.079 6.60322 9.98624 6.62032 9.93998C6.69745 9.73152 6.59083 9.50032 6.38237 9.42328Z" fill="white" stroke="white" stroke-width="0.2"/>
<path id="Shape_4" d="M7.79968 12.0612C7.64273 11.9041 7.38783 11.9041 7.2307 12.0612C6.06498 13.2269 6.34865 14.4287 6.36132 14.4794C6.40677 14.6615 6.56978 14.7818 6.74965 14.7818C6.78083 14.7818 6.81224 14.7782 6.84401 14.7707C7.0583 14.7198 7.19127 14.5035 7.14318 14.2887C7.13575 14.2553 6.96932 13.4605 7.79968 12.6302C7.95681 12.4731 7.95681 12.2183 7.79968 12.0612Z" fill="white" stroke="white" stroke-width="0.2"/>
<path id="Shape_5" d="M8.45852 6.38757C7.95791 6.13768 7.57346 6.43826 7.2344 6.70365C6.965 6.91452 6.6296 7.17727 6.09321 7.39174C5.11981 7.78107 4.30194 6.79418 4.26574 6.74951C4.12653 6.57688 3.87381 6.54853 3.70077 6.68756C3.52733 6.82641 3.49916 7.07949 3.63801 7.25312C3.67867 7.30381 4.48386 8.29052 5.62465 8.29052C5.8667 8.29052 6.12402 8.24608 6.39201 8.13923C7.03502 7.88209 7.43703 7.56724 7.73059 7.33745C7.85494 7.23985 8.02533 7.10647 8.07807 7.09923C8.07807 7.09923 8.0845 7.10064 8.09859 7.10766C8.29738 7.20703 8.53902 7.12635 8.63862 6.9276C8.73777 6.72863 8.65731 6.48699 8.45852 6.38757Z" fill="white" stroke="white" stroke-width="0.2"/>
<path id="Shape_6" d="M14.0043 3.05717C13.9341 2.8463 13.7069 2.73202 13.4953 2.80268C11.7139 3.39659 11.6934 4.90196 11.6934 4.96578C11.6934 5.18627 11.871 5.36354 12.0915 5.36596C12.0929 5.36596 12.0944 5.36596 12.0958 5.36596C12.3145 5.36596 12.4934 5.18891 12.498 4.97002C12.4988 4.92935 12.533 3.97186 13.7498 3.56626C13.9607 3.49596 14.0747 3.26804 14.0043 3.05717Z" fill="white" stroke="white" stroke-width="0.2"/>
<path id="Shape_7" d="M15.2151 10.3206C15.0805 10.144 14.828 10.1097 14.6511 10.2443C14.2421 10.5562 13.8805 10.6691 13.5749 10.5818C13.1154 10.45 12.8074 9.87251 12.7273 9.66068C12.6503 9.45264 12.4179 9.34602 12.211 9.42346C12.0024 9.50032 11.8958 9.7317 11.9728 9.94016C11.9899 9.98643 12.403 11.0792 13.3476 11.3536C13.4918 11.3956 13.6385 11.4166 13.7872 11.4166C14.2212 11.4166 14.6741 11.2385 15.1388 10.8846C15.3157 10.7498 15.3497 10.4972 15.2151 10.3206Z" fill="white" stroke="white" stroke-width="0.2"/>
<path id="Shape_8" d="M11.0015 10.9367C10.8444 10.7796 10.5897 10.7796 10.4325 10.9367C10.2754 11.0936 10.2754 11.3485 10.4325 11.5057C11.2581 12.3312 11.0983 13.1215 11.089 13.1636C11.0377 13.3776 11.1687 13.5937 11.3828 13.6474C11.4156 13.6557 11.4484 13.6595 11.4808 13.6595C11.6611 13.6595 11.825 13.5376 11.8707 13.3549C11.8833 13.3042 12.1671 12.1025 11.0015 10.9367Z" fill="white" stroke="white" stroke-width="0.2"/>
<path id="Shape_9" d="M14.8544 8.03019C14.7792 7.82174 14.5488 7.7137 14.3398 7.78814C14.2885 7.80647 13.0751 8.22757 12.4443 7.38837C12.0975 6.92642 11.9472 6.52783 11.8264 6.20751C11.6745 5.80473 11.5021 5.34798 10.9442 5.30212C10.7219 5.28179 10.5285 5.44859 10.5102 5.67012C10.4919 5.89166 10.6566 6.08599 10.8782 6.10413C10.8893 6.10513 10.8955 6.10655 10.8971 6.10655H10.8973C10.9425 6.14456 11.0182 6.34495 11.0733 6.49164C11.2047 6.84031 11.385 7.31794 11.8011 7.87188C12.3069 8.54488 13.0095 8.71327 13.5863 8.71327C14.1404 8.71327 14.5784 8.55796 14.6148 8.54465C14.8228 8.46857 14.9297 8.2386 14.8544 8.03019Z" fill="white" stroke="white" stroke-width="0.2"/>
<path id="Shape_10" d="M9.29646 1.50955C9.07433 1.50955 8.89404 1.68984 8.89404 1.91197V15.3997C8.89404 15.6219 9.07433 15.8022 9.29646 15.8022C9.51859 15.8022 9.69887 15.6219 9.69887 15.3997V1.91192C9.69887 1.68984 9.51859 1.50955 9.29646 1.50955Z" fill="white" stroke="white" stroke-width="0.2"/>
<path id="Shape_11" d="M7.22983 10.4842C6.02121 9.67844 6.82199 8.01694 6.85782 7.94428C6.9566 7.74549 6.87614 7.50444 6.67753 7.40507C6.47897 7.30588 6.2371 7.38638 6.1375 7.58513C5.73048 8.39939 5.34156 10.1929 6.78315 11.1538C6.85157 11.1996 6.9292 11.2214 7.00587 11.2214C7.13584 11.2214 7.26361 11.1586 7.34146 11.0421C7.46463 10.8572 7.41472 10.6073 7.22983 10.4842Z" fill="white" stroke="white" stroke-width="0.2"/>
</g>
</g>
</svg>
