<svg width="24" height="22" viewBox="0 0 24 22" fill="none" xmlns="http://www.w3.org/2000/svg">
<path fill-rule="evenodd" clip-rule="evenodd" d="M22.8005 3.46185H15.8882V3.39935V1.1994C15.8882 0.536987 15.3512 0 14.6887 0H9.30554C8.64307 0 8.10608 0.536987 8.10608 1.1994V3.40503V3.46753H1.19946C0.536987 3.46753 0 4.00452 0 4.66699V20.0947C0 20.7572 0.536987 21.2942 1.19946 21.2942H22.8005C23.463 21.2942 24 20.7572 24 20.0947V4.66132C24 3.99884 23.463 3.46185 22.8005 3.46185ZM9.24304 3.39368L9.25439 1.18805C9.25439 1.15356 9.28235 1.12555 9.31689 1.12555H14.7115C14.7303 1.12555 14.7472 1.13379 14.7585 1.14691C14.7682 1.1579 14.774 1.1723 14.774 1.18805V3.39368C14.774 3.42822 14.7461 3.45618 14.7115 3.45618H9.30554C9.271 3.45618 9.24304 3.42822 9.24304 3.39368ZM22.8005 4.59875H1.19934L1.17664 4.61011C1.70532 5.61627 4.49634 10.4197 9.66357 11.5566V10.8858C9.66357 10.2234 10.2006 9.6864 10.863 9.6864H13.1368C13.7904 9.69873 14.3137 10.2322 14.3135 10.8858V11.5452C19.4865 10.397 22.2661 5.6106 22.8005 4.59875ZM13.1824 10.8858V14.1942C13.1824 14.2288 13.1543 14.2568 13.1199 14.2568H10.863C10.8285 14.2568 10.8005 14.2288 10.8005 14.1942V10.8858C10.8005 10.8513 10.8285 10.8233 10.863 10.8233H13.1368C13.1426 10.8249 13.1479 10.8273 13.1528 10.8304C13.1561 10.8324 13.1592 10.8347 13.162 10.8373C13.1753 10.8494 13.1831 10.8669 13.1824 10.8858ZM22.7836 20.163C22.8181 20.163 22.8461 20.1349 22.8461 20.1005L22.8632 6.72479C21.4647 8.73712 18.6793 11.8522 14.3364 12.7162V14.1885C14.3364 14.851 13.7994 15.388 13.137 15.388H10.8632C10.2007 15.388 9.6637 14.851 9.6637 14.1885V12.7162C5.3208 11.8409 2.5354 8.75415 1.13696 6.72479V20.1005C1.13696 20.1349 1.16492 20.163 1.19946 20.163H22.7836Z" fill="#0C49CD"/>
</svg>
