<svg width="16" height="16" viewBox="0 0 16 16" fill="none" xmlns="http://www.w3.org/2000/svg">
<rect x="7" y="9" width="1.45453" height="1.45453" fill="#DDE1E6"/>
<path fill-rule="evenodd" clip-rule="evenodd" d="M11.1515 2.90912H15.2727C15.6744 2.90912 16 3.23468 16 3.63635V6.09875L15.2727 6.28058L14.5455 6.4624L9.36505 7.75757H6.63504L1.45456 6.46246L0.727295 6.28064L0 6.09882V3.63635C0 3.23468 0.325623 2.90912 0.727295 2.90912H4.84848V0.727295C4.84848 0.325623 5.1741 0 5.57574 0H10.4243C10.8259 0 11.1515 0.325623 11.1515 0.727295V2.90912ZM6.30304 2.90912H9.69699V1.45453H6.30304V2.90912Z" fill="#DDE1E6"/>
<path d="M15.2727 7.18181L14.5454 7.36362L10.1818 8.45453V10.7958C10.1818 11.1974 9.85619 11.5231 9.45453 11.5231H6.54544C6.14378 11.5231 5.81816 11.1974 5.81816 10.7958V8.45453L1.45453 7.36362L0.72725 7.18181L0 7V14.6746C0 15.0763 0.325625 15.4019 0.727281 15.4019H15.2727C15.6744 15.4019 16 15.0763 16 14.6746V7L15.2727 7.18181Z" fill="#DDE1E6"/>
</svg>
