<svg width="18" height="18" viewBox="0 0 18 18" fill="none" xmlns="http://www.w3.org/2000/svg">
<g id="Clear Tehno">
<rect id="Rectangle 4" width="18" height="18" fill="#F4F7FB" fill-opacity="0.01"/>
<g id="water copy 2">
<path id="Shape" d="M9.50506 15.7153C8.73747 16.1209 7.88247 16.3331 7.01431 16.3334C4.06769 16.3344 1.67809 13.9466 1.67706 11C1.67706 7.64097 5.95006 2.92997 7.01041 1.81262C7.39706 2.21928 8.21041 3.09997 9.08106 4.21497L9.60641 3.80431C8.87016 2.85925 8.08219 1.95562 7.24606 1.09766C7.18356 1.03516 7.09878 1 7.01041 1C6.922 1.00003 6.83725 1.03516 6.77475 1.09766C6.53938 1.33331 1.01038 6.90897 1.01038 11C1.01422 14.3121 3.69828 16.9961 7.01038 17C7.98884 16.9998 8.9525 16.7609 9.81772 16.304L9.50506 15.7153Z" fill="#0C49CD" stroke="#0C49CD" stroke-width="0.2"/>
<path id="Shape_2" d="M3.67706 11H3.01038C3.01275 13.2082 4.80222 14.9976 7.01038 15V14.3333C5.17028 14.3313 3.67906 12.8401 3.67706 11Z" fill="#0C49CD" stroke="#0C49CD" stroke-width="0.2"/>
<g id="Shape_3">
<path fill-rule="evenodd" clip-rule="evenodd" d="M14.0924 8.33337H15.3438C15.5278 8.33337 15.6771 8.48254 15.6771 8.66663V10.6666C15.6771 10.8507 15.5278 11 15.3438 11H14.0924C14.074 11.0463 14.0551 11.0923 14.0344 11.1387L14.9197 12.0237C15.0498 12.1538 15.0498 12.3649 14.9197 12.495L13.5054 13.9093C13.3732 14.0344 13.1663 14.0344 13.0341 13.9093L12.149 13.024L12.0873 13.0507C12.0616 13.0615 12.0361 13.072 12.0104 13.0824V14.3334C12.0104 14.4319 11.9675 14.5205 11.8995 14.5815C11.8406 14.6345 11.7626 14.6667 11.677 14.6667H9.677C9.49292 14.6667 9.34375 14.5175 9.34375 14.3334V13.0824C9.29736 13.0636 9.25134 13.0443 9.20508 13.024L8.32007 13.9093C8.18774 14.0344 7.98096 14.0344 7.84863 13.9093L6.43433 12.495C6.3042 12.3649 6.3042 12.1538 6.43433 12.0237L7.3197 11.1387C7.29907 11.0923 7.28003 11.0464 7.26172 11H6.01038C5.82629 11 5.677 10.8507 5.677 10.6666V8.66663C5.677 8.48254 5.82629 8.33337 6.01038 8.33337H7.26172C7.28003 8.28699 7.29907 8.24097 7.3197 8.1947L6.43433 7.30969C6.3042 7.17944 6.3042 6.96851 6.43433 6.83826L7.84863 5.42395C7.90466 5.37109 7.974 5.34058 8.04541 5.3324C8.1427 5.32129 8.24377 5.35181 8.32007 5.42395L9.20508 6.30933C9.25134 6.28894 9.29736 6.26965 9.34375 6.25098V5C9.34375 4.81592 9.49292 4.66663 9.677 4.66663H11.677C11.8611 4.66663 12.0104 4.81592 12.0104 5V6.25098C12.0566 6.26965 12.1027 6.28894 12.149 6.30933L13.0341 5.42395C13.1663 5.29895 13.3732 5.29895 13.5054 5.42395L14.9197 6.83826C15.0498 6.96851 15.0498 7.17944 14.9197 7.30969L14.0344 8.1947C14.0551 8.24097 14.074 8.28699 14.0924 8.33337ZM13.8578 10.3333H15.0105V9H13.8574C13.7119 9 13.5831 8.90552 13.5394 8.7666C13.5137 8.68579 13.4845 8.6062 13.452 8.52795C13.4171 8.44385 13.3784 8.36133 13.3362 8.28064C13.2687 8.15149 13.2928 7.99365 13.3958 7.89062L14.2124 7.07397L13.2698 6.13123L12.4531 6.948C12.3501 7.0509 12.1921 7.07507 12.0631 7.00757C11.9073 6.92554 11.7445 6.85754 11.5768 6.8042C11.4379 6.76062 11.3434 6.63184 11.3434 6.48621V5.33325H10.0105V6.48621C10.0105 6.63184 9.91602 6.76062 9.7771 6.8042C9.60925 6.85754 9.44653 6.92554 9.29077 7.00757C9.16174 7.07507 9.00378 7.0509 8.90076 6.948L8.08411 6.13123L7.14148 7.07397L7.95813 7.89062C8.06104 7.99365 8.08521 8.15149 8.0177 8.28064C7.97009 8.37122 7.92725 8.46411 7.88916 8.55884C7.86169 8.62708 7.83679 8.69641 7.81445 8.7666C7.77075 8.90552 7.64197 9 7.49646 9H6.34375V10.3333H7.4967C7.64233 10.3333 7.771 10.4277 7.8147 10.5667C7.85498 10.693 7.90369 10.8167 7.96021 10.9366C7.97864 10.9757 7.99792 11.0144 8.01807 11.0526C8.08545 11.1816 8.06128 11.3396 7.95837 11.4426L7.14172 12.2593L8.08435 13.2019L8.901 12.3853C9.00403 12.2823 9.16199 12.2582 9.29102 12.3256C9.4469 12.4076 9.60962 12.4756 9.77734 12.5289C9.91626 12.5726 10.0107 12.7013 10.0107 12.8469L10.0104 14H11.3438V12.8469C11.3438 12.7014 11.4382 12.5726 11.577 12.5289C11.7091 12.4871 11.8381 12.4359 11.963 12.3761C11.9968 12.36 12.0303 12.3431 12.0634 12.3257C12.1925 12.2582 12.3505 12.2823 12.4534 12.3853L13.27 13.2019L14.2128 12.2593L13.3961 11.4426C13.2931 11.3396 13.2689 11.1816 13.3364 11.0526C13.4182 10.8969 13.4862 10.7343 13.5398 10.5667C13.5571 10.5117 13.5876 10.4637 13.6273 10.4258C13.688 10.3678 13.7698 10.3333 13.8578 10.3333Z" fill="#0C49CD"/>
<path d="M14.0924 8.33337L13.9995 8.3703L14.0245 8.43337H14.0924V8.33337ZM14.0924 11V10.9H14.0246L13.9995 10.963L14.0924 11ZM14.0344 11.1387L13.9431 11.098L13.9151 11.1608L13.9637 11.2094L14.0344 11.1387ZM14.9197 12.0237L14.9904 11.953L14.9904 11.953L14.9197 12.0237ZM13.5054 13.9093L13.5741 13.982L13.5761 13.98L13.5054 13.9093ZM13.0341 13.9093L12.9633 13.98L12.9653 13.9819L13.0341 13.9093ZM12.149 13.024L12.2198 12.9533L12.1718 12.9054L12.1095 12.9322L12.149 13.024ZM12.0873 13.0507L12.1263 13.1427L12.1268 13.1425L12.0873 13.0507ZM12.0104 13.0824L11.973 12.9896L11.9104 13.0149V13.0824H12.0104ZM11.8995 14.5815L11.8327 14.5071L11.8327 14.5072L11.8995 14.5815ZM9.34375 13.0824H9.44375V13.015L9.38131 12.9897L9.34375 13.0824ZM9.20508 13.024L9.2452 12.9324L9.18264 12.905L9.13436 12.9533L9.20508 13.024ZM8.32007 13.9093L8.3888 13.982L8.39079 13.98L8.32007 13.9093ZM7.84863 13.9093L7.77789 13.98L7.77993 13.982L7.84863 13.9093ZM6.43433 12.0237L6.36363 11.953L6.36362 11.953L6.43433 12.0237ZM7.3197 11.1387L7.3904 11.2094L7.439 11.1608L7.41107 11.098L7.3197 11.1387ZM7.26172 11L7.35473 10.9633L7.32975 10.9H7.26172V11ZM7.26172 8.33337V8.43337H7.32975L7.35473 8.37009L7.26172 8.33337ZM7.3197 8.1947L7.41103 8.23543L7.43905 8.17261L7.3904 8.12398L7.3197 8.1947ZM6.43433 7.30969L6.36358 7.38037L6.36363 7.38042L6.43433 7.30969ZM6.43433 6.83826L6.36362 6.76755L6.36358 6.76758L6.43433 6.83826ZM7.84863 5.42395L7.77998 5.35118L7.77792 5.35324L7.84863 5.42395ZM8.04541 5.3324L8.03407 5.23304L8.03403 5.23305L8.04541 5.3324ZM8.32007 5.42395L8.39082 5.35323L8.38878 5.35129L8.32007 5.42395ZM9.20508 6.30933L9.13435 6.38002L9.18275 6.42844L9.2454 6.40084L9.20508 6.30933ZM9.34375 6.25098L9.3811 6.34374L9.44375 6.31851V6.25098H9.34375ZM12.0104 6.25098H11.9104V6.31845L11.9729 6.34371L12.0104 6.25098ZM12.149 6.30933L12.1088 6.40088L12.1714 6.42839L12.2198 6.38002L12.149 6.30933ZM13.0341 5.42395L12.9653 5.35126L12.9633 5.35325L13.0341 5.42395ZM13.5054 5.42395L13.5761 5.35321L13.5741 5.35129L13.5054 5.42395ZM14.9197 6.83826L14.9904 6.76758L14.9904 6.76755L14.9197 6.83826ZM14.9197 7.30969L14.9904 7.38041L14.9904 7.38037L14.9197 7.30969ZM14.0344 8.1947L13.9637 8.12398L13.9151 8.17261L13.9431 8.23543L14.0344 8.1947ZM15.0105 10.3333V10.4333H15.1105V10.3333H15.0105ZM15.0105 9H15.1105V8.9H15.0105V9ZM13.5394 8.7666L13.6348 8.73659L13.6347 8.73623L13.5394 8.7666ZM13.452 8.52795L13.5444 8.48963L13.5444 8.48962L13.452 8.52795ZM13.3362 8.28064L13.2476 8.32696L13.2476 8.32702L13.3362 8.28064ZM13.3958 7.89062L13.325 7.81991L13.325 7.81996L13.3958 7.89062ZM14.2124 7.07397L14.2831 7.14469L14.3538 7.07398L14.2831 7.00327L14.2124 7.07397ZM13.2698 6.13123L13.3405 6.06052L13.2698 5.98979L13.1991 6.06052L13.2698 6.13123ZM12.4531 6.948L12.5238 7.01875L12.5238 7.0187L12.4531 6.948ZM12.0631 7.00757L12.0165 7.09605L12.0168 7.09617L12.0631 7.00757ZM11.5768 6.8042L11.6071 6.7089L11.6067 6.70878L11.5768 6.8042ZM11.3434 5.33325H11.4434V5.23325H11.3434V5.33325ZM10.0105 5.33325V5.23325H9.9105V5.33325H10.0105ZM9.7771 6.8042L9.74717 6.70878L9.74681 6.7089L9.7771 6.8042ZM9.29077 7.00757L9.33713 7.09617L9.33737 7.09605L9.29077 7.00757ZM8.90076 6.948L8.83004 7.0187L8.83009 7.01875L8.90076 6.948ZM8.08411 6.13123L8.15482 6.06052L8.08411 5.98979L8.01339 6.06052L8.08411 6.13123ZM7.14148 7.07397L7.07076 7.00327L7.00006 7.07398L7.07077 7.14469L7.14148 7.07397ZM7.95813 7.89062L8.02888 7.81996L8.02884 7.81991L7.95813 7.89062ZM8.0177 8.28064L8.10622 8.32717L8.10632 8.32696L8.0177 8.28064ZM7.88916 8.55884L7.98193 8.59618L7.98194 8.59614L7.88916 8.55884ZM7.81445 8.7666L7.71916 8.73627L7.71906 8.73659L7.81445 8.7666ZM6.34375 9V8.9H6.24375V9H6.34375ZM6.34375 10.3333H6.24375V10.4333H6.34375V10.3333ZM7.8147 10.5667L7.71931 10.5967L7.71942 10.597L7.8147 10.5667ZM7.96021 10.9366L7.86974 10.9793L7.86977 10.9793L7.96021 10.9366ZM8.01807 11.0526L8.10671 11.0063L8.10653 11.006L8.01807 11.0526ZM7.95837 11.4426L8.02908 11.5133L8.02913 11.5133L7.95837 11.4426ZM7.14172 12.2593L7.07101 12.1886L7.0003 12.2593L7.07101 12.33L7.14172 12.2593ZM8.08435 13.2019L8.01364 13.2726L8.08435 13.3433L8.15506 13.2726L8.08435 13.2019ZM8.901 12.3853L8.83033 12.3145L8.83029 12.3145L8.901 12.3853ZM9.29102 12.3256L9.33758 12.2371L9.33731 12.2369L9.29102 12.3256ZM9.77734 12.5289L9.74703 12.6242L9.74733 12.6243L9.77734 12.5289ZM10.0107 12.8469L10.1107 12.847V12.8469H10.0107ZM10.0104 14L9.91038 14L9.91034 14.1H10.0104V14ZM11.3438 14V14.1H11.4437V14H11.3438ZM11.577 12.5289L11.6071 12.6243L11.6072 12.6243L11.577 12.5289ZM11.963 12.3761L11.92 12.2858L11.9198 12.2859L11.963 12.3761ZM12.0634 12.3257L12.017 12.2371L12.0167 12.2372L12.0634 12.3257ZM13.27 13.2019L13.1993 13.2726L13.27 13.3433L13.3407 13.2726L13.27 13.2019ZM14.2128 12.2593L14.2835 12.33L14.3542 12.2593L14.2835 12.1886L14.2128 12.2593ZM13.3364 11.0526L13.2479 11.0061L13.2478 11.0063L13.3364 11.0526ZM13.5398 10.5667L13.635 10.5971L13.6352 10.5967L13.5398 10.5667ZM13.6273 10.4258L13.5582 10.3535L13.5582 10.3535L13.6273 10.4258ZM15.3438 8.23337H14.0924V8.43337H15.3438V8.23337ZM15.7771 8.66663C15.7771 8.42727 15.583 8.23337 15.3438 8.23337V8.43337C15.4727 8.43337 15.5771 8.53782 15.5771 8.66663H15.7771ZM15.7771 10.6666V8.66663H15.5771V10.6666H15.7771ZM15.3438 11.1C15.5831 11.1 15.7771 10.9059 15.7771 10.6666H15.5771C15.5771 10.7955 15.4726 10.9 15.3438 10.9V11.1ZM14.0924 11.1H15.3438V10.9H14.0924V11.1ZM14.1258 11.1793C14.1472 11.1313 14.1666 11.0839 14.1853 11.037L13.9995 10.963C13.9813 11.0086 13.9629 11.0533 13.9431 11.098L14.1258 11.1793ZM14.9904 11.953L14.1051 11.068L13.9637 11.2094L14.849 12.0944L14.9904 11.953ZM14.9904 12.5657C15.1596 12.3965 15.1596 12.1222 14.9904 11.953L14.849 12.0944C14.94 12.1855 14.94 12.3332 14.849 12.4243L14.9904 12.5657ZM13.5761 13.98L14.9904 12.5657L14.849 12.4243L13.4347 13.8386L13.5761 13.98ZM12.9653 13.9819C13.1361 14.1435 13.4033 14.1435 13.5741 13.9819L13.4366 13.8367C13.343 13.9253 13.1964 13.9253 13.1028 13.8367L12.9653 13.9819ZM12.0783 13.0947L12.9633 13.98L13.1048 13.8386L12.2198 12.9533L12.0783 13.0947ZM12.1268 13.1425L12.1886 13.1159L12.1095 12.9322L12.0477 12.9588L12.1268 13.1425ZM12.0477 13.1752C12.074 13.1646 12.1 13.1539 12.1263 13.1427L12.0483 12.9586C12.0233 12.9692 11.9983 12.9794 11.973 12.9896L12.0477 13.1752ZM12.1104 14.3334V13.0824H11.9104V14.3334H12.1104ZM11.9663 14.656C12.0545 14.5768 12.1104 14.4615 12.1104 14.3334H11.9104C11.9104 14.4023 11.8805 14.4642 11.8327 14.5071L11.9663 14.656ZM11.677 14.7667C11.7882 14.7667 11.8898 14.7248 11.9664 14.6559L11.8327 14.5072C11.7914 14.5443 11.737 14.5667 11.677 14.5667V14.7667ZM9.677 14.7667H11.677V14.5667H9.677V14.7667ZM9.24375 14.3334C9.24375 14.5726 9.43764 14.7667 9.677 14.7667V14.5667C9.5482 14.5667 9.44375 14.4623 9.44375 14.3334H9.24375ZM9.24375 13.0824V14.3334H9.44375V13.0824H9.24375ZM9.16496 13.1156C9.21219 13.1363 9.25907 13.156 9.30619 13.1751L9.38131 12.9897C9.33565 12.9712 9.2905 12.9523 9.2452 12.9324L9.16496 13.1156ZM8.39079 13.98L9.2758 13.0947L9.13436 12.9533L8.24935 13.8386L8.39079 13.98ZM7.77993 13.982C7.9508 14.1435 8.2179 14.1435 8.38877 13.982L8.25136 13.8366C8.15759 13.9253 8.01111 13.9253 7.91734 13.8366L7.77993 13.982ZM6.36362 12.5657L7.77792 13.98L7.91934 13.8386L6.50504 12.4243L6.36362 12.5657ZM6.36362 11.953C6.19444 12.1222 6.19444 12.3965 6.36362 12.5657L6.50504 12.4243C6.41396 12.3332 6.41396 12.1855 6.50504 12.0944L6.36362 11.953ZM7.24901 11.0679L6.36363 11.953L6.50502 12.0944L7.3904 11.2094L7.24901 11.0679ZM7.1687 11.0367C7.18744 11.0842 7.20703 11.1314 7.22833 11.1793L7.41107 11.098C7.39112 11.0532 7.37262 11.0086 7.35473 10.9633L7.1687 11.0367ZM6.01038 11.1H7.26172V10.9H6.01038V11.1ZM5.577 10.6666C5.577 10.9059 5.77107 11.1 6.01038 11.1V10.9C5.88152 10.9 5.777 10.7955 5.777 10.6666H5.577ZM5.577 8.66663V10.6666H5.777V8.66663H5.577ZM6.01038 8.23337C5.77111 8.23337 5.577 8.42727 5.577 8.66663H5.777C5.777 8.53782 5.88147 8.43337 6.01038 8.43337V8.23337ZM7.26172 8.23337H6.01038V8.43337H7.26172V8.23337ZM7.22837 8.15398C7.20702 8.20186 7.18741 8.24926 7.1687 8.29666L7.35473 8.37009C7.37265 8.32471 7.39113 8.28007 7.41103 8.23543L7.22837 8.15398ZM6.36363 7.38042L7.24901 8.26543L7.3904 8.12398L6.50502 7.23897L6.36363 7.38042ZM6.36358 6.76758C6.19445 6.93687 6.19445 7.21108 6.36358 7.38037L6.50507 7.23901C6.41395 7.14781 6.41395 7.00014 6.50507 6.90893L6.36358 6.76758ZM7.77792 5.35324L6.36362 6.76755L6.50504 6.90897L7.91934 5.49466L7.77792 5.35324ZM8.03403 5.23305C7.94188 5.2436 7.85226 5.28305 7.78001 5.35121L7.91725 5.49669C7.95706 5.45914 8.00612 5.43755 8.05679 5.43175L8.03403 5.23305ZM8.38878 5.35129C8.29022 5.2581 8.15953 5.21872 8.03407 5.23304L8.05675 5.43175C8.12587 5.42386 8.19733 5.44551 8.25136 5.49661L8.38878 5.35129ZM9.2758 6.23863L8.39079 5.35325L8.24934 5.49465L9.13435 6.38002L9.2758 6.23863ZM9.3064 6.15821C9.25914 6.17724 9.21212 6.19695 9.16476 6.21782L9.2454 6.40084C9.29057 6.38093 9.33559 6.36206 9.3811 6.34374L9.3064 6.15821ZM9.24375 5V6.25098H9.44375V5H9.24375ZM9.677 4.56663C9.43764 4.56663 9.24375 4.76074 9.24375 5H9.44375C9.44375 4.8711 9.5482 4.76663 9.677 4.76663V4.56663ZM11.677 4.56663H9.677V4.76663H11.677V4.56663ZM12.1104 5C12.1104 4.76069 11.9163 4.56663 11.677 4.56663V4.76663C11.8059 4.76663 11.9104 4.87115 11.9104 5H12.1104ZM12.1104 6.25098V5H11.9104V6.25098H12.1104ZM12.1893 6.21778C12.1419 6.19693 12.0949 6.17725 12.0478 6.15825L11.9729 6.34371C12.0184 6.36205 12.0635 6.38095 12.1088 6.40088L12.1893 6.21778ZM12.9633 5.35325L12.0783 6.23863L12.2198 6.38002L13.1048 5.49465L12.9633 5.35325ZM13.5741 5.35129C13.4033 5.18984 13.1361 5.18984 12.9654 5.35129L13.1028 5.49661C13.1964 5.40806 13.343 5.40806 13.4367 5.49661L13.5741 5.35129ZM14.9904 6.76755L13.5761 5.35324L13.4347 5.49466L14.849 6.90897L14.9904 6.76755ZM14.9904 7.38037C15.1596 7.21108 15.1596 6.93687 14.9904 6.76758L14.8489 6.90893C14.9401 7.00014 14.9401 7.14781 14.8489 7.23901L14.9904 7.38037ZM14.1051 8.26542L14.9904 7.38041L14.849 7.23897L13.9637 8.12398L14.1051 8.26542ZM14.1853 8.29645C14.1666 8.24937 14.1472 8.20196 14.1258 8.15398L13.9431 8.23543C13.963 8.27997 13.9813 8.32461 13.9995 8.3703L14.1853 8.29645ZM15.0105 10.2333H13.8578V10.4333H15.0105V10.2333ZM14.9105 9V10.3333H15.1105V9H14.9105ZM13.8574 9.1H15.0105V8.9H13.8574V9.1ZM13.444 8.79661C13.5008 8.97717 13.6682 9.1 13.8574 9.1V8.9C13.7556 8.9 13.6654 8.83387 13.6348 8.73659L13.444 8.79661ZM13.3597 8.56628C13.3911 8.64194 13.4193 8.71888 13.4442 8.79697L13.6347 8.73623C13.6081 8.65271 13.5779 8.57046 13.5444 8.48963L13.3597 8.56628ZM13.2476 8.32702C13.2885 8.40512 13.3259 8.48496 13.3597 8.56629L13.5444 8.48962C13.5083 8.40274 13.4684 8.31754 13.4248 8.23426L13.2476 8.32702ZM13.325 7.81996C13.1912 7.95388 13.1598 8.15908 13.2476 8.32696L13.4248 8.23432C13.3775 8.14389 13.3945 8.03342 13.4665 7.96129L13.325 7.81996ZM14.1417 7.00326L13.325 7.81991L13.4665 7.96134L14.2831 7.14469L14.1417 7.00326ZM13.1991 6.20193L14.1417 7.14468L14.2831 7.00327L13.3405 6.06052L13.1991 6.20193ZM12.5238 7.0187L13.3405 6.20193L13.1991 6.06052L12.3824 6.87729L12.5238 7.0187ZM12.0168 7.09617C12.1845 7.18396 12.3899 7.15251 12.5238 7.01875L12.3825 6.87725C12.3103 6.9493 12.1997 6.96619 12.1095 6.91896L12.0168 7.09617ZM11.5465 6.8995C11.7086 6.95107 11.866 7.01679 12.0165 7.09605L12.1097 6.91909C11.9487 6.83428 11.7804 6.76402 11.6071 6.7089L11.5465 6.8995ZM11.2434 6.48621C11.2434 6.67548 11.3662 6.84294 11.5468 6.89961L11.6067 6.70878C11.5095 6.6783 11.4434 6.58819 11.4434 6.48621H11.2434ZM11.2434 5.33325V6.48621H11.4434V5.33325H11.2434ZM10.0105 5.43325H11.3434V5.23325H10.0105V5.43325ZM10.1105 6.48621V5.33325H9.9105V6.48621H10.1105ZM9.80703 6.89961C9.98769 6.84294 10.1105 6.67548 10.1105 6.48621H9.9105C9.9105 6.58819 9.84434 6.6783 9.74717 6.70878L9.80703 6.89961ZM9.33737 7.09605C9.48788 7.01678 9.64514 6.95107 9.80739 6.8995L9.74681 6.7089C9.57337 6.76402 9.40519 6.83429 9.24417 6.91909L9.33737 7.09605ZM8.83009 7.01875C8.964 7.15251 9.16934 7.18396 9.33713 7.09617L9.24441 6.91896C9.15414 6.96619 9.04356 6.9493 8.97143 6.87725L8.83009 7.01875ZM8.01339 6.20193L8.83004 7.0187L8.97147 6.87729L8.15482 6.06052L8.01339 6.20193ZM7.21219 7.14468L8.15482 6.20193L8.01339 6.06052L7.07076 7.00327L7.21219 7.14468ZM8.02884 7.81991L7.21219 7.00326L7.07077 7.14469L7.88742 7.96134L8.02884 7.81991ZM8.10632 8.32696C8.19407 8.15908 8.16265 7.95388 8.02888 7.81996L7.88738 7.96129C7.95942 8.03342 7.97634 8.14389 7.92908 8.23432L8.10632 8.32696ZM7.98194 8.59614C8.01879 8.5045 8.06021 8.41469 8.10622 8.32717L7.92918 8.23411C7.87997 8.32774 7.83571 8.42372 7.79638 8.52153L7.98194 8.59614ZM7.90974 8.79693C7.93134 8.72907 7.9554 8.66207 7.98193 8.59618L7.79639 8.5215C7.76798 8.59208 7.74224 8.66376 7.71916 8.73627L7.90974 8.79693ZM7.49646 9.1C7.68565 9.1 7.85304 8.97717 7.90984 8.79661L7.71906 8.73659C7.68846 8.83387 7.59828 8.9 7.49646 8.9V9.1ZM6.34375 9.1H7.49646V8.9H6.34375V9.1ZM6.44375 10.3333V9H6.24375V10.3333H6.44375ZM7.4967 10.2333H6.34375V10.4333H7.4967V10.2333ZM7.91009 10.5366C7.85329 10.3561 7.68604 10.2333 7.4967 10.2333V10.4333C7.59863 10.4333 7.6887 10.4994 7.71931 10.5967L7.91009 10.5366ZM8.05067 10.894C7.996 10.778 7.94891 10.6584 7.90997 10.5363L7.71942 10.597C7.76105 10.7276 7.81137 10.8553 7.86974 10.9793L8.05067 10.894ZM8.10653 11.006C8.08709 10.9691 8.06846 10.9317 8.05064 10.894L7.86977 10.9793C7.88881 11.0197 7.90876 11.0597 7.92961 11.0992L8.10653 11.006ZM8.02913 11.5133C8.16288 11.3794 8.19431 11.1741 8.10671 11.0063L7.92943 11.0989C7.97659 11.1892 7.95968 11.2998 7.88762 11.372L8.02913 11.5133ZM7.21243 12.33L8.02908 11.5133L7.88766 11.3719L7.07101 12.1886L7.21243 12.33ZM8.15506 13.1312L7.21243 12.1886L7.07101 12.33L8.01364 13.2726L8.15506 13.1312ZM8.83029 12.3145L8.01364 13.1312L8.15506 13.2726L8.97171 12.456L8.83029 12.3145ZM9.33731 12.2369C9.16955 12.1493 8.96425 12.1807 8.83033 12.3145L8.97167 12.456C9.04381 12.384 9.15442 12.367 9.24472 12.4142L9.33731 12.2369ZM9.80765 12.4336C9.64552 12.3821 9.48824 12.3163 9.33758 12.2371L9.24445 12.4141C9.40556 12.4988 9.57372 12.5691 9.74704 12.6242L9.80765 12.4336ZM10.1107 12.8469C10.1107 12.6576 9.98789 12.4903 9.80735 12.4335L9.74733 12.6243C9.84463 12.6549 9.91074 12.745 9.91074 12.8469H10.1107ZM10.1104 14L10.1107 12.847L9.91074 12.8469L9.91038 14L10.1104 14ZM11.3438 13.9H10.0104V14.1H11.3438V13.9ZM11.2438 12.8469V14H11.4437V12.8469H11.2438ZM11.547 12.4335C11.3666 12.4904 11.2438 12.6577 11.2438 12.8469H11.4437C11.4437 12.7451 11.5099 12.6549 11.6071 12.6243L11.547 12.4335ZM11.9198 12.2859C11.7991 12.3437 11.6744 12.3932 11.5468 12.4336L11.6072 12.6243C11.7438 12.581 11.8772 12.5281 12.0062 12.4663L11.9198 12.2859ZM12.0167 12.2372C11.9847 12.2541 11.9525 12.2703 11.92 12.2858L12.006 12.4664C12.0412 12.4496 12.0758 12.4322 12.11 12.4141L12.0167 12.2372ZM12.5241 12.3145C12.3902 12.1807 12.1849 12.1493 12.017 12.2371L12.1097 12.4143C12.2001 12.367 12.3107 12.384 12.3827 12.456L12.5241 12.3145ZM13.3407 13.1312L12.5241 12.3145L12.3827 12.456L13.1993 13.2726L13.3407 13.1312ZM14.1421 12.1886L13.1993 13.1312L13.3407 13.2726L14.2835 12.33L14.1421 12.1886ZM13.3254 11.5133L14.1421 12.33L14.2835 12.1886L13.4668 11.3719L13.3254 11.5133ZM13.2478 11.0063C13.16 11.174 13.1915 11.3794 13.3254 11.5133L13.4668 11.3719C13.3947 11.2998 13.3778 11.1892 13.425 11.099L13.2478 11.0063ZM13.4445 10.5362C13.3927 10.6983 13.327 10.8555 13.2479 11.0061L13.425 11.0991C13.5095 10.9382 13.5797 10.7702 13.635 10.5971L13.4445 10.5362ZM13.5582 10.3535C13.5066 10.4029 13.4669 10.4653 13.4444 10.5366L13.6352 10.5967C13.6473 10.5581 13.6687 10.5246 13.6965 10.498L13.5582 10.3535ZM13.8578 10.2333C13.7433 10.2333 13.637 10.2782 13.5582 10.3535L13.6964 10.4981C13.739 10.4574 13.7962 10.4333 13.8578 10.4333V10.2333Z" fill="#0C49CD"/>
</g>
<g id="Shape_4">
<path fill-rule="evenodd" clip-rule="evenodd" d="M9.0105 9.66663C9.0105 8.74622 9.75671 8 10.6771 8C11.5977 8 12.3438 8.74622 12.3438 9.66663C12.3428 10.5867 11.5972 11.3323 10.6771 11.3333C9.75671 11.3333 9.0105 10.5872 9.0105 9.66663ZM9.67712 9.66663C9.67712 10.2189 10.1249 10.6666 10.6771 10.6666C11.2294 10.6666 11.6771 10.2189 11.6771 9.66663C11.6771 9.11438 11.2294 8.66663 10.6771 8.66663C10.1249 8.66663 9.67712 9.11438 9.67712 9.66663Z" fill="#0C49CD"/>
<path d="M12.3438 9.66663L12.4437 9.66673V9.66663H12.3438ZM10.6771 11.3333V11.4333L10.6772 11.4333L10.6771 11.3333ZM10.6771 7.9C9.70149 7.9 8.9105 8.69099 8.9105 9.66663H9.1105C9.1105 8.80144 9.81194 8.1 10.6771 8.1V7.9ZM12.4437 9.66663C12.4437 8.69099 11.6529 7.9 10.6771 7.9V8.1C11.5424 8.1 12.2438 8.80144 12.2438 9.66663H12.4437ZM10.6772 11.4333C11.6524 11.4322 12.4427 10.6419 12.4437 9.66673L12.2438 9.66652C12.2428 10.5314 11.5419 11.2323 10.677 11.2333L10.6772 11.4333ZM8.9105 9.66663C8.9105 10.6424 9.70149 11.4333 10.6771 11.4333V11.2333C9.81194 11.2333 9.1105 10.5319 9.1105 9.66663H8.9105ZM10.6771 10.5666C10.1801 10.5666 9.77712 10.1636 9.77712 9.66663H9.57712C9.57712 10.2741 10.0696 10.7666 10.6771 10.7666V10.5666ZM11.5771 9.66663C11.5771 10.1636 11.1741 10.5666 10.6771 10.5666V10.7666C11.2846 10.7666 11.7771 10.2741 11.7771 9.66663H11.5771ZM10.6771 8.76663C11.1741 8.76663 11.5771 9.16961 11.5771 9.66663H11.7771C11.7771 9.05915 11.2846 8.56663 10.6771 8.56663V8.76663ZM9.77712 9.66663C9.77712 9.16961 10.1801 8.76663 10.6771 8.76663V8.56663C10.0696 8.56663 9.57712 9.05915 9.57712 9.66663H9.77712Z" fill="#0C49CD"/>
</g>
</g>
</g>
</svg>
