<svg width="18" height="18" viewBox="0 0 18 18" fill="none" xmlns="http://www.w3.org/2000/svg">
<g id="Clear Tehno White">
<rect id="Rectangle 4" width="18" height="18" fill="#F4F7FB" fill-opacity="0.01"/>
<g id="water copy 2">
<path id="Shape" d="M9.50519 15.7153C8.73759 16.1209 7.88259 16.3331 7.01444 16.3334C4.06781 16.3344 1.67822 13.9466 1.67719 11C1.67719 7.64097 5.95019 2.92997 7.01053 1.81262C7.39719 2.21928 8.21053 3.09997 9.08119 4.21497L9.60653 3.80431C8.87028 2.85925 8.08231 1.95562 7.24619 1.09766C7.18369 1.03516 7.0989 1 7.01053 1C6.92212 1.00003 6.83737 1.03516 6.77487 1.09766C6.5395 1.33331 1.0105 6.90897 1.0105 11C1.01434 14.3121 3.6984 16.9961 7.0105 17C7.98897 16.9998 8.95262 16.7609 9.81784 16.304L9.50519 15.7153Z" fill="white" stroke="white" stroke-width="0.2"/>
<path id="Shape_2" d="M3.67719 11H3.0105C3.01287 13.2082 4.80234 14.9976 7.0105 15V14.3333C5.1704 14.3313 3.67919 12.8401 3.67719 11Z" fill="white" stroke="white" stroke-width="0.2"/>
<g id="Shape_3">
<path fill-rule="evenodd" clip-rule="evenodd" d="M14.0923 8.33337H15.3438C15.4558 8.33337 15.5549 8.38867 15.6155 8.47363C15.6543 8.52808 15.677 8.59473 15.677 8.66663V10.6666C15.677 10.693 15.6738 10.7186 15.668 10.7433C15.6335 10.8904 15.5015 11 15.3438 11H14.0923C14.074 11.0463 14.0549 11.0923 14.0344 11.1387L14.9197 12.0237C15.0498 12.1538 15.0498 12.3649 14.9197 12.495L13.5054 13.9093C13.373 14.0344 13.1663 14.0344 13.0339 13.9093L12.1489 13.024C12.1028 13.0443 12.0566 13.0637 12.0105 13.0824V14.3334C12.0105 14.5175 11.8611 14.6667 11.677 14.6667H9.677C9.55835 14.6667 9.4541 14.6047 9.39502 14.5114C9.36255 14.4598 9.34375 14.3988 9.34375 14.3334V13.0824C9.29736 13.0636 9.25146 13.0443 9.20508 13.024L8.32007 13.9093C8.2373 13.9877 8.12524 14.017 8.02051 13.9972C7.95801 13.9854 7.89819 13.9561 7.84863 13.9093L6.43433 12.495C6.3042 12.3649 6.3042 12.1538 6.43433 12.0237L7.31958 11.1387C7.29907 11.0923 7.28003 11.0464 7.26172 11H6.01025C5.82617 11 5.677 10.8507 5.677 10.6666V8.66663C5.677 8.48254 5.82617 8.33337 6.01025 8.33337H7.26172C7.28003 8.28699 7.29907 8.24097 7.31958 8.1947L6.43433 7.30969C6.3042 7.17944 6.3042 6.96851 6.43433 6.83826L7.84863 5.42395C7.98096 5.29895 8.18774 5.29895 8.32007 5.42395L9.20508 6.30933C9.25146 6.28894 9.29736 6.26965 9.34375 6.25098V5C9.34375 4.81592 9.49292 4.66663 9.677 4.66663H11.677C11.8611 4.66663 12.0105 4.81592 12.0105 5V6.25098L12.0889 6.28357L12.1489 6.30933L13.0339 5.42395C13.1663 5.29895 13.373 5.29895 13.5054 5.42395L14.9197 6.83826C14.9978 6.9165 15.0291 7.0238 15.0134 7.12524C15.0029 7.19275 14.9717 7.25769 14.9197 7.30969L14.0344 8.1947C14.0549 8.24097 14.074 8.28699 14.0923 8.33337ZM13.8577 10.3333H15.0105V9H13.8574C13.7119 9 13.5833 8.90552 13.5396 8.7666C13.4858 8.599 13.418 8.4364 13.3362 8.28064C13.2876 8.18762 13.2864 8.07983 13.3281 7.98828C13.3442 7.95264 13.3669 7.91943 13.3958 7.89062L14.2124 7.07397L13.2698 6.13123L12.4531 6.948C12.4207 6.98047 12.3828 7.00513 12.342 7.02148C12.2534 7.05701 12.1514 7.05383 12.0632 7.00757C11.9072 6.92554 11.7446 6.85754 11.5767 6.8042C11.438 6.76062 11.3435 6.63184 11.3435 6.48621V5.33325H10.0105V6.48621C10.0105 6.63184 9.91602 6.76062 9.7771 6.8042C9.60938 6.85754 9.44653 6.92554 9.29077 7.00757C9.16162 7.07507 9.00366 7.0509 8.90063 6.948L8.08398 6.13123L7.14136 7.07397L7.95801 7.89062C8.06104 7.99365 8.08521 8.15149 8.01782 8.28064C7.93604 8.4364 7.86792 8.599 7.81445 8.7666C7.77075 8.90552 7.64209 9 7.49634 9H6.34375V10.3333H7.49658C7.64233 10.3333 7.771 10.4277 7.8147 10.5667C7.84277 10.6547 7.875 10.7413 7.91113 10.8264C7.9436 10.9032 7.97925 10.9786 8.01807 11.0526C8.08545 11.1816 8.06128 11.3396 7.9585 11.4426L7.1416 12.2593L8.08447 13.2019L8.90112 12.3853C9.00415 12.2823 9.16187 12.2582 9.29102 12.3256C9.44678 12.4076 9.60962 12.4756 9.77734 12.5289C9.91626 12.5726 10.0107 12.7013 10.0107 12.8469L10.0103 14H11.3438V12.8469C11.3438 12.7014 11.4382 12.5726 11.5771 12.5289C11.7449 12.4757 11.9077 12.4076 12.0635 12.3257C12.1924 12.2582 12.3503 12.2823 12.4534 12.3853L13.27 13.2019L14.2126 12.2593L13.396 11.4426C13.2932 11.3396 13.269 11.1816 13.3364 11.0526C13.4014 10.9291 13.4575 10.8011 13.5049 10.6699C13.5171 10.6357 13.5288 10.6013 13.5398 10.5667C13.5635 10.4913 13.6121 10.4292 13.6748 10.3879C13.728 10.3531 13.791 10.3333 13.8577 10.3333Z" fill="white"/>
<path d="M14.0923 8.33337L13.9993 8.37009L14.0243 8.43337H14.0923V8.33337ZM15.6155 8.47363L15.534 8.53167L15.5341 8.53169L15.6155 8.47363ZM15.668 10.7433L15.5707 10.7202L15.5706 10.7205L15.668 10.7433ZM14.0923 11V10.9H14.0243L13.9993 10.9632L14.0923 11ZM14.0344 11.1387L13.943 11.0982L13.9152 11.1609L13.9637 11.2094L14.0344 11.1387ZM14.9197 12.0237L14.9904 11.953L14.9904 11.953L14.9197 12.0237ZM13.5054 13.9093L13.5741 13.982L13.5761 13.98L13.5054 13.9093ZM13.0339 13.9093L12.9632 13.98L12.9652 13.982L13.0339 13.9093ZM12.1489 13.024L12.2196 12.9533L12.1713 12.905L12.1087 12.9325L12.1489 13.024ZM12.0105 13.0824L11.973 12.9897L11.9105 13.015V13.0824H12.0105ZM9.39502 14.5114L9.31042 14.5647L9.31051 14.5648L9.39502 14.5114ZM9.34375 13.0824H9.44375V13.015L9.38131 12.9897L9.34375 13.0824ZM9.20508 13.024L9.24511 12.9324L9.18259 12.9051L9.13436 12.9533L9.20508 13.024ZM8.32007 13.9093L8.38885 13.9819L8.39079 13.98L8.32007 13.9093ZM8.02051 13.9972L8.00189 14.0954L8.00195 14.0955L8.02051 13.9972ZM7.84863 13.9093L7.77789 13.98L7.78001 13.982L7.84863 13.9093ZM6.43433 12.0237L6.36363 11.953L6.36362 11.953L6.43433 12.0237ZM7.31958 11.1387L7.39028 11.2094L7.43876 11.1609L7.41104 11.0982L7.31958 11.1387ZM7.26172 11L7.35473 10.9633L7.32975 10.9H7.26172V11ZM7.26172 8.33337V8.43337H7.32975L7.35473 8.37009L7.26172 8.33337ZM7.31958 8.1947L7.411 8.23523L7.43881 8.1725L7.39028 8.12398L7.31958 8.1947ZM6.43433 7.30969L6.36358 7.38037L6.36363 7.38041L6.43433 7.30969ZM6.43433 6.83826L6.36362 6.76755L6.36358 6.76758L6.43433 6.83826ZM7.84863 5.42395L7.77993 5.35123L7.77792 5.35324L7.84863 5.42395ZM8.32007 5.42395L8.39082 5.35323L8.38874 5.35126L8.32007 5.42395ZM9.20508 6.30933L9.13435 6.38002L9.1827 6.42839L9.24531 6.40088L9.20508 6.30933ZM9.34375 6.25098L9.3811 6.34374L9.44375 6.31851V6.25098H9.34375ZM12.0105 6.25098H11.9105V6.31769L11.9721 6.34331L12.0105 6.25098ZM12.0889 6.28357L12.1283 6.19166L12.1273 6.19124L12.0889 6.28357ZM12.1489 6.30933L12.1095 6.40123L12.1718 6.42793L12.2197 6.38002L12.1489 6.30933ZM13.0339 5.42395L12.9652 5.35123L12.9632 5.35325L13.0339 5.42395ZM13.5054 5.42395L13.5761 5.35321L13.574 5.35126L13.5054 5.42395ZM14.9197 6.83826L14.9904 6.7676L14.9904 6.76755L14.9197 6.83826ZM15.0134 7.12524L15.1122 7.14061L15.1123 7.14047L15.0134 7.12524ZM14.9197 7.30969L14.9904 7.38041L14.9904 7.3804L14.9197 7.30969ZM14.0344 8.1947L13.9637 8.12398L13.9152 8.1725L13.943 8.23523L14.0344 8.1947ZM15.0105 10.3333V10.4333H15.1105V10.3333H15.0105ZM15.0105 9H15.1105V8.9H15.0105V9ZM13.5396 8.7666L13.6349 8.73659L13.6348 8.73608L13.5396 8.7666ZM13.3362 8.28064L13.2475 8.32694L13.2476 8.32713L13.3362 8.28064ZM13.3281 7.98828L13.4191 8.02977L13.4192 8.02947L13.3281 7.98828ZM14.2124 7.07397L14.2831 7.14469L14.3538 7.07398L14.2831 7.00327L14.2124 7.07397ZM13.2698 6.13123L13.3405 6.06052L13.2698 5.98979L13.1991 6.06052L13.2698 6.13123ZM12.4531 6.948L12.5238 7.01871L12.5238 7.0187L12.4531 6.948ZM12.342 7.02148L12.3792 7.11431L12.3793 7.11429L12.342 7.02148ZM12.0632 7.00757L12.0167 7.09608L12.0168 7.09611L12.0632 7.00757ZM11.5767 6.8042L11.6069 6.70889L11.6066 6.7088L11.5767 6.8042ZM11.3435 5.33325H11.4435V5.23325H11.3435V5.33325ZM10.0105 5.33325V5.23325H9.9105V5.33325H10.0105ZM9.7771 6.8042L9.74717 6.70878L9.74679 6.7089L9.7771 6.8042ZM9.29077 7.00757L9.33709 7.09619L9.33737 7.09605L9.29077 7.00757ZM8.90063 6.948L8.82992 7.0187L8.82997 7.01875L8.90063 6.948ZM8.08398 6.13123L8.1547 6.06052L8.08399 5.98979L8.01327 6.06052L8.08398 6.13123ZM7.14136 7.07397L7.07064 7.00327L6.99994 7.07398L7.07065 7.14469L7.14136 7.07397ZM8.01782 8.28064L8.10636 8.32713L8.10648 8.3269L8.01782 8.28064ZM7.81445 8.7666L7.71918 8.73621L7.71906 8.73659L7.81445 8.7666ZM6.34375 9V8.9H6.24375V9H6.34375ZM6.34375 10.3333H6.24375V10.4333H6.34375V10.3333ZM7.8147 10.5667L7.71931 10.5967L7.71943 10.597L7.8147 10.5667ZM7.91113 10.8264L8.00324 10.7875L8.00318 10.7873L7.91113 10.8264ZM8.01807 11.0526L8.10671 11.0063L8.10662 11.0061L8.01807 11.0526ZM7.9585 11.4426L8.0292 11.5133L8.02929 11.5133L7.9585 11.4426ZM7.1416 12.2593L7.0709 12.1886L7.00016 12.2593L7.0709 12.33L7.1416 12.2593ZM8.08447 13.2019L8.01377 13.2726L8.08448 13.3433L8.15518 13.2726L8.08447 13.2019ZM8.90112 12.3853L8.83045 12.3145L8.83041 12.3145L8.90112 12.3853ZM9.29102 12.3256L9.33761 12.2371L9.33727 12.2369L9.29102 12.3256ZM9.77734 12.5289L9.74703 12.6242L9.74733 12.6243L9.77734 12.5289ZM10.0107 12.8469L10.1107 12.847V12.8469H10.0107ZM10.0103 14L9.91025 14L9.91021 14.1H10.0103V14ZM11.3438 14V14.1H11.4437V14H11.3438ZM11.5771 12.5289L11.6072 12.6243L11.6074 12.6242L11.5771 12.5289ZM12.0635 12.3257L12.0171 12.2371L12.0169 12.2372L12.0635 12.3257ZM12.4534 12.3853L12.5241 12.3145L12.524 12.3145L12.4534 12.3853ZM13.27 13.2019L13.1993 13.2726L13.27 13.3433L13.3407 13.2726L13.27 13.2019ZM14.2126 12.2593L14.2834 12.33L14.3541 12.2593L14.2834 12.1886L14.2126 12.2593ZM13.396 11.4426L13.3252 11.5133L13.3253 11.5133L13.396 11.4426ZM13.3364 11.0526L13.2479 11.0061L13.2478 11.0063L13.3364 11.0526ZM13.5049 10.6699L13.5989 10.7039L13.5991 10.7036L13.5049 10.6699ZM13.5398 10.5667L13.6351 10.5969L13.6352 10.5966L13.5398 10.5667ZM13.6748 10.3879L13.6201 10.3042L13.6199 10.3044L13.6748 10.3879ZM15.3438 8.23337H14.0923V8.43337H15.3438V8.23337ZM15.6969 8.4156C15.6184 8.30547 15.4895 8.23337 15.3438 8.23337V8.43337C15.4221 8.43337 15.4914 8.47187 15.534 8.53167L15.6969 8.4156ZM15.777 8.66663C15.777 8.57336 15.7475 8.48651 15.6969 8.41558L15.5341 8.53169C15.5611 8.56964 15.577 8.61609 15.577 8.66663H15.777ZM15.777 10.6666V8.66663H15.577V10.6666H15.777ZM15.7653 10.7664C15.7729 10.7345 15.777 10.7011 15.777 10.6666H15.577C15.577 10.6849 15.5748 10.7028 15.5707 10.7202L15.7653 10.7664ZM15.3438 11.1C15.5489 11.1 15.7206 10.9574 15.7653 10.7661L15.5706 10.7205C15.5465 10.8234 15.454 10.9 15.3438 10.9V11.1ZM14.0923 11.1H15.3438V10.9H14.0923V11.1ZM14.1259 11.1791C14.147 11.1313 14.1666 11.084 14.1853 11.0368L13.9993 10.9632C13.9814 11.0085 13.9628 11.0533 13.943 11.0982L14.1259 11.1791ZM14.9904 11.953L14.1051 11.068L13.9637 11.2094L14.849 12.0944L14.9904 11.953ZM14.9904 12.5657C15.1596 12.3965 15.1596 12.1222 14.9904 11.953L14.849 12.0944C14.94 12.1855 14.94 12.3332 14.849 12.4243L14.9904 12.5657ZM13.5761 13.98L14.9904 12.5657L14.849 12.4243L13.4347 13.8386L13.5761 13.98ZM12.9652 13.982C13.1361 14.1435 13.4032 14.1435 13.5741 13.982L13.4367 13.8366C13.3429 13.9253 13.1964 13.9253 13.1026 13.8366L12.9652 13.982ZM12.0782 13.0947L12.9632 13.98L13.1047 13.8386L12.2196 12.9533L12.0782 13.0947ZM12.048 13.1751C12.095 13.1561 12.142 13.1363 12.1891 13.1156L12.1087 12.9325C12.0635 12.9523 12.0183 12.9714 11.973 12.9897L12.048 13.1751ZM12.1105 14.3334V13.0824H11.9105V14.3334H12.1105ZM11.677 14.7667C11.9163 14.7667 12.1105 14.5727 12.1105 14.3334H11.9105C11.9105 14.4622 11.8059 14.5667 11.677 14.5667V14.7667ZM9.677 14.7667H11.677V14.5667H9.677V14.7667ZM9.31051 14.5648C9.38716 14.686 9.52266 14.7667 9.677 14.7667V14.5667C9.59404 14.5667 9.52105 14.5235 9.47953 14.4579L9.31051 14.5648ZM9.24375 14.3334C9.24375 14.4182 9.26818 14.4977 9.31042 14.5647L9.47962 14.458C9.45691 14.422 9.44375 14.3794 9.44375 14.3334H9.24375ZM9.24375 13.0824V14.3334H9.44375V13.0824H9.24375ZM9.16505 13.1157C9.21229 13.1363 9.25901 13.156 9.30619 13.1751L9.38131 12.9897C9.33572 12.9712 9.29064 12.9523 9.24511 12.9324L9.16505 13.1157ZM8.39079 13.98L9.2758 13.0947L9.13436 12.9533L8.24935 13.8386L8.39079 13.98ZM8.00195 14.0955C8.13698 14.1209 8.28185 14.0832 8.38882 13.9819L8.25131 13.8367C8.19276 13.8921 8.11351 13.913 8.03906 13.8989L8.00195 14.0955ZM7.78001 13.982C7.84381 14.0422 7.92111 14.0801 8.00189 14.0954L8.03912 13.8989C7.99491 13.8906 7.95257 13.8699 7.91725 13.8366L7.78001 13.982ZM6.36362 12.5657L7.77792 13.98L7.91934 13.8386L6.50504 12.4243L6.36362 12.5657ZM6.36362 11.953C6.19444 12.1222 6.19444 12.3965 6.36362 12.5657L6.50504 12.4243C6.41396 12.3332 6.41396 12.1855 6.50504 12.0944L6.36362 11.953ZM7.24888 11.068L6.36363 11.953L6.50503 12.0944L7.39028 11.2094L7.24888 11.068ZM7.1687 11.0367C7.18744 11.0842 7.207 11.1313 7.22812 11.1791L7.41104 11.0982C7.39114 11.0532 7.37262 11.0086 7.35473 10.9633L7.1687 11.0367ZM6.01025 11.1H7.26172V10.9H6.01025V11.1ZM5.577 10.6666C5.577 10.9059 5.7709 11.1 6.01025 11.1V10.9C5.88145 10.9 5.777 10.7955 5.777 10.6666H5.577ZM5.577 8.66663V10.6666H5.777V8.66663H5.577ZM6.01025 8.23337C5.77094 8.23337 5.577 8.42732 5.577 8.66663H5.777C5.777 8.53777 5.8814 8.43337 6.01025 8.43337V8.23337ZM7.26172 8.23337H6.01025V8.43337H7.26172V8.23337ZM7.22816 8.15418C7.20699 8.20194 7.18741 8.24926 7.1687 8.29666L7.35473 8.37009C7.37264 8.32472 7.39116 8.28 7.411 8.23523L7.22816 8.15418ZM6.36363 7.38041L7.24888 8.26542L7.39028 8.12398L6.50503 7.23897L6.36363 7.38041ZM6.36358 6.76758C6.19445 6.93687 6.19445 7.21108 6.36358 7.38037L6.50507 7.23901C6.41395 7.14781 6.41395 7.00014 6.50507 6.90893L6.36358 6.76758ZM7.77792 5.35324L6.36362 6.76755L6.50504 6.90897L7.91934 5.49466L7.77792 5.35324ZM8.38874 5.35126C8.21787 5.18985 7.95083 5.18985 7.77996 5.35126L7.9173 5.49664C8.01109 5.40805 8.15762 5.40805 8.2514 5.49664L8.38874 5.35126ZM9.2758 6.23863L8.39079 5.35325L8.24934 5.49465L9.13435 6.38002L9.2758 6.23863ZM9.3064 6.15821C9.25908 6.17727 9.21222 6.19696 9.16484 6.21778L9.24531 6.40088C9.29071 6.38092 9.33565 6.36204 9.3811 6.34374L9.3064 6.15821ZM9.24375 5V6.25098H9.44375V5H9.24375ZM9.677 4.56663C9.43764 4.56663 9.24375 4.76074 9.24375 5H9.44375C9.44375 4.8711 9.5482 4.76663 9.677 4.76663V4.56663ZM11.677 4.56663H9.677V4.76663H11.677V4.56663ZM12.1105 5C12.1105 4.76064 11.9163 4.56663 11.677 4.56663V4.76663C11.8059 4.76663 11.9105 4.87119 11.9105 5H12.1105ZM12.1105 6.25098V5H11.9105V6.25098H12.1105ZM12.1273 6.19124L12.0489 6.15864L11.9721 6.34331L12.0505 6.3759L12.1273 6.19124ZM12.1883 6.21742L12.1283 6.19166L12.0495 6.37547L12.1095 6.40123L12.1883 6.21742ZM12.9632 5.35325L12.0782 6.23863L12.2197 6.38002L13.1047 5.49465L12.9632 5.35325ZM13.574 5.35126C13.4032 5.18985 13.1361 5.18985 12.9653 5.35126L13.1026 5.49664C13.1964 5.40805 13.3429 5.40805 13.4367 5.49664L13.574 5.35126ZM14.9904 6.76755L13.5761 5.35324L13.4347 5.49466L14.849 6.90897L14.9904 6.76755ZM15.1123 7.14047C15.1325 7.00889 15.092 6.86931 14.9904 6.7676L14.8489 6.90891C14.9036 6.9637 14.9256 7.03872 14.9146 7.11002L15.1123 7.14047ZM14.9904 7.3804C15.0579 7.31289 15.0986 7.22835 15.1122 7.14061L14.9146 7.10988C14.9073 7.15715 14.8855 7.20249 14.849 7.23898L14.9904 7.3804ZM14.1051 8.26542L14.9904 7.38041L14.849 7.23897L13.9637 8.12398L14.1051 8.26542ZM14.1853 8.29666C14.1666 8.24926 14.147 8.20194 14.1258 8.15418L13.943 8.23523C13.9628 8.28 13.9814 8.32472 13.9993 8.37009L14.1853 8.29666ZM15.0105 10.2333H13.8577V10.4333H15.0105V10.2333ZM14.9105 9V10.3333H15.1105V9H14.9105ZM13.8574 9.1H15.0105V8.9H13.8574V9.1ZM13.4442 8.79661C13.5009 8.97713 13.6682 9.1 13.8574 9.1V8.9C13.7556 8.9 13.6656 8.83391 13.6349 8.73659L13.4442 8.79661ZM13.2476 8.32713C13.3267 8.47769 13.3923 8.63493 13.4443 8.79712L13.6348 8.73608C13.5793 8.56306 13.5092 8.39512 13.4247 8.23415L13.2476 8.32713ZM13.2371 7.94679C13.1828 8.06592 13.1844 8.20612 13.2475 8.32694L13.4248 8.23434C13.3908 8.16913 13.3899 8.09375 13.4191 8.02977L13.2371 7.94679ZM13.325 7.81991C13.2876 7.85733 13.258 7.90055 13.237 7.94709L13.4192 8.02947C13.4304 8.00472 13.4463 7.98154 13.4665 7.96134L13.325 7.81991ZM14.1417 7.00326L13.325 7.81991L13.4665 7.96134L14.2831 7.14469L14.1417 7.00326ZM13.1991 6.20193L14.1417 7.14468L14.2831 7.00327L13.3405 6.06052L13.1991 6.20193ZM12.5238 7.0187L13.3405 6.20193L13.1991 6.06052L12.3824 6.87729L12.5238 7.0187ZM12.3793 7.11429C12.4325 7.09295 12.4817 7.06081 12.5238 7.01871L12.3824 6.87729C12.3596 6.90013 12.3331 6.91731 12.3048 6.92868L12.3793 7.11429ZM12.0168 7.09611C12.1316 7.15641 12.2643 7.16038 12.3792 7.11431L12.3048 6.92866C12.2425 6.95364 12.1711 6.95126 12.1097 6.91903L12.0168 7.09611ZM11.5464 6.89951C11.7087 6.95106 11.8659 7.01678 12.0167 7.09608L12.1098 6.91906C11.9486 6.83429 11.7805 6.76402 11.6069 6.70889L11.5464 6.89951ZM11.2435 6.48621C11.2435 6.67545 11.3663 6.8429 11.5467 6.8996L11.6066 6.7088C11.5097 6.67834 11.4435 6.58822 11.4435 6.48621H11.2435ZM11.2435 5.33325V6.48621H11.4435V5.33325H11.2435ZM10.0105 5.43325H11.3435V5.23325H10.0105V5.43325ZM10.1105 6.48621V5.33325H9.9105V6.48621H10.1105ZM9.80703 6.89961C9.98769 6.84294 10.1105 6.67548 10.1105 6.48621H9.9105C9.9105 6.58819 9.84434 6.6783 9.74717 6.70878L9.80703 6.89961ZM9.33737 7.09605C9.48787 7.01679 9.64525 6.95107 9.80741 6.8995L9.74679 6.7089C9.5735 6.76402 9.4052 6.83428 9.24417 6.91909L9.33737 7.09605ZM8.82997 7.01875C8.9639 7.15252 9.16923 7.18393 9.33709 7.09619L9.24445 6.91894C9.15402 6.96621 9.04343 6.94928 8.9713 6.87725L8.82997 7.01875ZM8.01327 6.20193L8.82992 7.0187L8.97135 6.87729L8.1547 6.06052L8.01327 6.20193ZM7.21207 7.14468L8.1547 6.20193L8.01327 6.06052L7.07064 7.00327L7.21207 7.14468ZM8.02872 7.81991L7.21207 7.00326L7.07065 7.14469L7.8873 7.96134L8.02872 7.81991ZM8.10648 8.3269C8.19406 8.15904 8.16265 7.95384 8.02872 7.81991L7.8873 7.96134C7.95942 8.03346 7.97635 8.14394 7.92916 8.23438L8.10648 8.3269ZM7.90972 8.79699C7.96141 8.63498 8.02726 8.47776 8.10636 8.32713L7.92929 8.23415C7.84481 8.39504 7.77443 8.56302 7.71918 8.73621L7.90972 8.79699ZM7.49634 9.1C7.68577 9.1 7.85304 8.97717 7.90984 8.79661L7.71906 8.73659C7.68846 8.83387 7.59841 8.9 7.49634 8.9V9.1ZM6.34375 9.1H7.49634V8.9H6.34375V9.1ZM6.44375 10.3333V9H6.24375V10.3333H6.44375ZM7.49658 10.2333H6.34375V10.4333H7.49658V10.2333ZM7.91009 10.5366C7.85329 10.3561 7.68602 10.2333 7.49658 10.2333V10.4333C7.59865 10.4333 7.6887 10.4994 7.71931 10.5967L7.91009 10.5366ZM8.00318 10.7873C7.96823 10.705 7.93709 10.6213 7.90997 10.5363L7.71943 10.597C7.74846 10.6881 7.78177 10.7776 7.81909 10.8655L8.00318 10.7873ZM8.10662 11.0061C8.06909 10.9346 8.03463 10.8617 8.00324 10.7875L7.81903 10.8654C7.85257 10.9447 7.8894 11.0226 7.92952 11.0991L8.10662 11.0061ZM8.02929 11.5133C8.16288 11.3793 8.19431 11.1741 8.10671 11.0063L7.92943 11.0989C7.97659 11.1892 7.95968 11.2999 7.8877 11.372L8.02929 11.5133ZM7.2123 12.33L8.0292 11.5133L7.8878 11.3719L7.0709 12.1886L7.2123 12.33ZM8.15517 13.1312L7.2123 12.1886L7.0709 12.33L8.01377 13.2726L8.15517 13.1312ZM8.83041 12.3145L8.01376 13.1312L8.15518 13.2726L8.97183 12.456L8.83041 12.3145ZM9.33727 12.2369C9.16942 12.1493 8.96437 12.1807 8.83045 12.3145L8.97179 12.456C9.04393 12.384 9.15431 12.367 9.24476 12.4142L9.33727 12.2369ZM9.80765 12.4336C9.6455 12.3821 9.48811 12.3163 9.33761 12.2371L9.24442 12.414C9.40544 12.4988 9.57374 12.5691 9.74704 12.6242L9.80765 12.4336ZM10.1107 12.8469C10.1107 12.6576 9.98789 12.4903 9.80735 12.4335L9.74733 12.6243C9.84463 12.6549 9.91074 12.745 9.91074 12.8469H10.1107ZM10.1103 14L10.1107 12.847L9.91074 12.8469L9.91025 14L10.1103 14ZM11.3438 13.9H10.0103V14.1H11.3438V13.9ZM11.2438 12.8469V14H11.4437V12.8469H11.2438ZM11.5471 12.4335C11.3666 12.4903 11.2438 12.6577 11.2438 12.8469H11.4437C11.4437 12.7451 11.5099 12.6549 11.6072 12.6243L11.5471 12.4335ZM12.0169 12.2372C11.8664 12.3164 11.709 12.3822 11.5469 12.4336L11.6074 12.6242C11.7808 12.5692 11.9491 12.4988 12.11 12.4142L12.0169 12.2372ZM12.524 12.3145C12.3901 12.1808 12.1848 12.1493 12.0171 12.2371L12.1099 12.4143C12.2 12.3671 12.3105 12.3839 12.3827 12.456L12.524 12.3145ZM13.3407 13.1312L12.5241 12.3145L12.3827 12.456L13.1993 13.2726L13.3407 13.1312ZM14.1419 12.1886L13.1993 13.1312L13.3407 13.2726L14.2834 12.33L14.1419 12.1886ZM13.3253 11.5133L14.1419 12.33L14.2834 12.1886L13.4667 11.3719L13.3253 11.5133ZM13.2478 11.0063C13.1602 11.1741 13.1916 11.3793 13.3252 11.5133L13.4668 11.372C13.3948 11.2999 13.3779 11.1892 13.4251 11.0989L13.2478 11.0063ZM13.4108 10.636C13.365 10.763 13.3107 10.8867 13.2479 11.0061L13.4249 11.0991C13.4921 10.9715 13.5501 10.8393 13.5989 10.7039L13.4108 10.636ZM13.4445 10.5364C13.4339 10.5698 13.4226 10.603 13.4107 10.6363L13.5991 10.7036C13.6116 10.6684 13.6237 10.6329 13.6351 10.5969L13.4445 10.5364ZM13.6199 10.3044C13.5384 10.358 13.4752 10.4388 13.4444 10.5367L13.6352 10.5966C13.6518 10.5439 13.6857 10.5004 13.7297 10.4715L13.6199 10.3044ZM13.8577 10.2333C13.7709 10.2333 13.689 10.2592 13.6201 10.3042L13.7295 10.4716C13.7671 10.4471 13.8111 10.4333 13.8577 10.4333V10.2333Z" fill="white"/>
</g>
<g id="Shape_4">
<path fill-rule="evenodd" clip-rule="evenodd" d="M9.0105 9.66663C9.0105 8.74622 9.75659 8 10.6772 8C11.5977 8 12.3438 8.74622 12.3438 9.66663C12.3428 10.5867 11.5972 11.3323 10.6772 11.3333C9.75659 11.3333 9.0105 10.5872 9.0105 9.66663ZM9.67725 9.66663C9.67725 10.2189 10.125 10.6666 10.6772 10.6666C11.2295 10.6666 11.6772 10.2189 11.6772 9.66663C11.6772 9.11438 11.2295 8.66663 10.6772 8.66663C10.125 8.66663 9.67725 9.11438 9.67725 9.66663Z" fill="white"/>
<path d="M12.3438 9.66663L12.4437 9.66673V9.66663H12.3438ZM10.6772 11.3333V11.4333L10.6774 11.4333L10.6772 11.3333ZM10.6772 7.9C9.70136 7.9 8.9105 8.69099 8.9105 9.66663H9.1105C9.1105 8.80144 9.81182 8.1 10.6772 8.1V7.9ZM12.4437 9.66663C12.4437 8.691 11.6529 7.9 10.6772 7.9V8.1C11.5424 8.1 12.2438 8.80143 12.2438 9.66663H12.4437ZM10.6774 11.4333C11.6524 11.4322 12.4427 10.6419 12.4437 9.66673L12.2438 9.66652C12.2428 10.5314 11.5419 11.2323 10.6771 11.2333L10.6774 11.4333ZM8.9105 9.66663C8.9105 10.6424 9.70137 11.4333 10.6772 11.4333V11.2333C9.81182 11.2333 9.1105 10.5319 9.1105 9.66663H8.9105ZM10.6772 10.5666C10.1802 10.5666 9.77725 10.1636 9.77725 9.66663H9.57725C9.57725 10.2741 10.0698 10.7666 10.6772 10.7666V10.5666ZM11.5772 9.66663C11.5772 10.1636 11.1743 10.5666 10.6772 10.5666V10.7666C11.2847 10.7666 11.7772 10.2741 11.7772 9.66663H11.5772ZM10.6772 8.76663C11.1743 8.76663 11.5772 9.16961 11.5772 9.66663H11.7772C11.7772 9.05915 11.2847 8.56663 10.6772 8.56663V8.76663ZM9.77725 9.66663C9.77725 9.16961 10.1802 8.76663 10.6772 8.76663V8.56663C10.0698 8.56663 9.57725 9.05915 9.57725 9.66663H9.77725Z" fill="white"/>
</g>
</g>
</g>
</svg>
