<svg width="18" height="18" viewBox="0 0 18 18" fill="none" xmlns="http://www.w3.org/2000/svg">
<g id="Clothes">
<rect id="Rectangle 4" width="18" height="18" fill="#F4F7FB" fill-opacity="0.01"/>
<g id="shirt (3) copy 2">
<path id="Shape" fill-rule="evenodd" clip-rule="evenodd" d="M16.5592 3.00586L11.0699 2.00806C11.0559 2.00562 11.043 2.01111 11.0291 2.00964L11.0198 2.00818L11.0073 2.005C10.9985 2.00256 10.99 2.00012 10.9806 2.00012H6.9884C6.97144 2.00012 6.95691 2.00806 6.94043 2.00964C6.93701 2.01001 6.93372 2.00989 6.9303 2.00964L6.92114 2.00867L6.9104 2.00745L6.90637 2.00732C6.90393 2.00732 6.90149 2.00757 6.89905 2.00806L1.40979 3.00586C1.14575 3.05371 0.967163 3.30176 1.00513 3.56763L1.50415 7.05981C1.53955 7.3053 1.74963 7.48792 1.99817 7.48792H3.99426V15.4701C3.99426 15.6185 4.0592 15.7518 4.16211 15.8433C4.25024 15.9215 4.36621 15.969 4.49329 15.969H13.4757C13.7512 15.969 13.9747 15.7455 13.9747 15.4701V7.48792H15.9708C16.2194 7.48792 16.4294 7.3053 16.4648 7.05981L16.9639 3.56763C17.0018 3.30176 16.8226 3.05371 16.5592 3.00586ZM3.99426 6.49011H2.43079L2.06104 3.90186L3.99426 3.55017V6.49011ZM9.23547 3.97021C9.76392 3.86804 10.1896 3.45642 10.3772 2.99792H7.59119C7.77881 3.45642 8.20447 3.86804 8.73291 3.97021C8.81531 3.98425 8.89868 3.99573 8.9845 3.99573C9.0144 3.99573 9.04395 3.99438 9.07324 3.99194C9.12817 3.98743 9.18213 3.97937 9.23547 3.97021ZM12.9767 6.98901V14.9712H4.99231V6.98901V3.36914L6.55872 3.08423C6.82275 4.17834 7.8103 4.99341 8.9845 4.99341C10.1587 4.99341 11.1462 4.17834 11.4103 3.08423L12.9767 3.36914V6.98901ZM13.9747 6.49011H15.5382L15.908 3.90137L13.9747 3.55017V6.49011Z" fill="#0C49CD"/>
</g>
</g>
</svg>
