<svg width="18" height="18" viewBox="0 0 18 18" fill="none" xmlns="http://www.w3.org/2000/svg">
<g id="Clothes White">
<rect id="Rectangle 4" width="18" height="18" fill="#F4F7FB" fill-opacity="0.01"/>
<g id="shirt (3) copy 2">
<path id="Shape" fill-rule="evenodd" clip-rule="evenodd" d="M16.5591 3.00586L11.0698 2.00806C11.0625 2.00671 11.0554 2.00769 11.0483 2.00867C11.042 2.00952 11.0356 2.01038 11.0291 2.00964L11.0217 2.00854L11.0071 2.005C11.0015 2.00342 10.9958 2.00183 10.9902 2.00085L10.9805 2.00012H6.98828C6.979 2.00012 6.97046 2.00256 6.96191 2.005C6.95483 2.00696 6.94775 2.00891 6.94043 2.00964C6.93384 2.01038 6.92749 2.00952 6.92114 2.00867C6.91382 2.00769 6.90649 2.00671 6.89917 2.00806L1.40967 3.00586C1.14575 3.05371 0.967041 3.30176 1.00513 3.56763L1.50415 7.05981C1.51929 7.16455 1.56616 7.25781 1.63403 7.33032C1.72559 7.42786 1.85547 7.48792 1.99805 7.48792H3.99414V15.4701C3.99414 15.7455 4.21777 15.969 4.49316 15.969H13.4758C13.7512 15.969 13.9749 15.7455 13.9749 15.4701V7.48792H15.9709C16.0896 7.48792 16.1995 7.44617 16.2859 7.37585C16.3801 7.29907 16.4463 7.18799 16.4648 7.05981L16.9639 3.56763C16.9824 3.43652 16.9485 3.30981 16.8777 3.20923C16.8403 3.15649 16.793 3.11084 16.7378 3.07568C16.6848 3.04187 16.6245 3.0177 16.5591 3.00586ZM3.99414 6.49011H2.43091L2.06104 3.90186L3.99414 3.55017V6.49011ZM9.2356 3.97021C9.76416 3.86804 10.1897 3.45642 10.3774 2.99792H7.59131C7.77905 3.45642 8.20459 3.86804 8.73315 3.97021C8.81543 3.98425 8.89868 3.99573 8.98462 3.99573C9.00342 3.99573 9.02197 3.99524 9.04028 3.99414C9.06299 3.99292 9.08569 3.99109 9.10815 3.98865L9.16211 3.98181L9.2356 3.97021ZM12.9766 6.98901V14.9712H4.99219V6.98901V3.36914L6.55859 3.08423C6.82251 4.17834 7.8103 4.99341 8.98438 4.99341C10.1587 4.99341 11.1462 4.17834 11.4102 3.08423L12.9766 3.36914V6.98901ZM13.9749 6.49011H15.5383L15.908 3.90137L13.9749 3.55017V6.49011Z" fill="white"/>
</g>
</g>
</svg>
