<svg width="18" height="18" viewBox="0 0 18 18" fill="none" xmlns="http://www.w3.org/2000/svg">
<g id="Communications White">
<rect id="Rectangle 4 Copy" width="18" height="18" fill="#F4F7FB" fill-opacity="0.01"/>
<g id="iphone copy 2">
<g id="Shape">
<path fill-rule="evenodd" clip-rule="evenodd" d="M5.61255 1H12.0125C12.895 1 13.6125 1.71814 13.6125 2.59998V15.4C13.6125 16.2826 12.895 17 12.0125 17H5.61255C4.73047 17 4.01245 16.2826 4.01245 15.4V2.59998C4.01245 1.71814 4.73047 1 5.61255 1ZM12.0125 16.36C12.5415 16.36 12.9724 15.9293 12.9724 15.4V2.59998C12.9724 2.07068 12.5415 1.64001 12.0125 1.64001H5.6123C5.08301 1.64001 4.65234 2.07068 4.65234 2.59998V15.4C4.65234 15.9293 5.08301 16.36 5.6123 16.36H12.0125Z" fill="white"/>
<path d="M12.0125 0.9H5.61255V1.1H12.0125V0.9ZM13.7125 2.59998C13.7125 1.66293 12.9503 0.9 12.0125 0.9V1.1C12.8398 1.1 13.5125 1.77335 13.5125 2.59998H13.7125ZM13.7125 15.4V2.59998H13.5125V15.4H13.7125ZM12.0125 17.1C12.9502 17.1 13.7125 16.3378 13.7125 15.4H13.5125C13.5125 16.2274 12.8398 16.9 12.0125 16.9V17.1ZM5.61255 17.1H12.0125V16.9H5.61255V17.1ZM3.91245 15.4C3.91245 16.3379 4.67527 17.1 5.61255 17.1V16.9C4.78567 16.9 4.11245 16.2273 4.11245 15.4H3.91245ZM3.91245 2.59998V15.4H4.11245V2.59998H3.91245ZM5.61255 0.9C4.67524 0.9 3.91245 1.66291 3.91245 2.59998H4.11245C4.11245 1.77337 4.7857 1.1 5.61255 1.1V0.9ZM12.8724 15.4C12.8724 15.8741 12.4863 16.26 12.0125 16.26V16.46C12.5967 16.46 13.0724 15.9846 13.0724 15.4H12.8724ZM12.8724 2.59998V15.4H13.0724V2.59998H12.8724ZM12.0125 1.74001C12.4863 1.74001 12.8724 2.12592 12.8724 2.59998H13.0724C13.0724 2.01543 12.5967 1.54001 12.0125 1.54001V1.74001ZM5.6123 1.74001H12.0125V1.54001H5.6123V1.74001ZM4.75234 2.59998C4.75234 2.12591 5.13824 1.74001 5.6123 1.74001V1.54001C5.02778 1.54001 4.55234 2.01545 4.55234 2.59998H4.75234ZM4.75234 15.4V2.59998H4.55234V15.4H4.75234ZM5.6123 16.26C5.13824 16.26 4.75234 15.8741 4.75234 15.4H4.55234C4.55234 15.9845 5.02778 16.46 5.6123 16.46V16.26ZM12.0125 16.26H5.6123V16.46H12.0125V16.26Z" fill="white"/>
</g>
<path id="Shape_2" d="M9.45254 2.28003H8.17254C7.99588 2.28003 7.85254 2.4234 7.85254 2.60003C7.85254 2.77665 7.99591 2.92003 8.17254 2.92003H9.45254C9.62916 2.92003 9.77254 2.77665 9.77254 2.60003C9.77254 2.4234 9.62916 2.28003 9.45254 2.28003Z" fill="white" stroke="white" stroke-width="0.2"/>
<path id="Shape_3" d="M8.81243 15.08C8.63581 15.08 8.49243 15.2233 8.49243 15.4C8.49243 15.5766 8.63581 15.72 8.81243 15.72C8.98906 15.72 9.13243 15.5766 9.13243 15.4C9.13243 15.2233 8.98906 15.08 8.81243 15.08Z" fill="white" stroke="white" stroke-width="0.2"/>
<path id="Shape_4" d="M13.2925 3.56006H4.33245C4.15579 3.56006 4.01245 3.70343 4.01245 3.88006C4.01245 4.05671 4.15579 4.20006 4.33245 4.20006H13.2925C13.4691 4.20006 13.6125 4.05668 13.6125 3.88006C13.6125 3.70343 13.4691 3.56006 13.2925 3.56006Z" fill="white" stroke="white" stroke-width="0.2"/>
<path id="Shape_5" d="M13.2925 13.8H4.33245C4.15579 13.8 4.01245 13.9434 4.01245 14.12C4.01245 14.2967 4.15579 14.44 4.33245 14.44H13.2925C13.4691 14.44 13.6125 14.2967 13.6125 14.12C13.6125 13.9434 13.4691 13.8 13.2925 13.8Z" fill="white" stroke="white" stroke-width="0.2"/>
</g>
</g>
</svg>
