<svg width="18" height="18" viewBox="0 0 18 18" fill="none" xmlns="http://www.w3.org/2000/svg">
<g id="Communications">
<rect id="Rectangle 4 Copy" width="18" height="18" fill="#F4F7FB" fill-opacity="0.01"/>
<g id="iphone copy 2">
<g id="Shape">
<path fill-rule="evenodd" clip-rule="evenodd" d="M5.61243 1H12.0125C12.895 1 13.6124 1.71814 13.6124 2.59998V15.4C13.6124 16.2826 12.895 17 12.0125 17H5.61243C4.73059 17 4.01245 16.2826 4.01245 15.4V2.59998C4.01245 1.71814 4.73059 1 5.61243 1ZM12.0125 16.36C12.5417 16.36 12.9724 15.9293 12.9724 15.4V2.59998C12.9724 2.07068 12.5417 1.64001 12.0125 1.64001H5.61243C5.08313 1.64001 4.65247 2.07068 4.65247 2.59998V15.4C4.65247 15.9293 5.08313 16.36 5.61243 16.36H12.0125Z" fill="#0C49CD"/>
<path d="M12.0125 0.9H5.61243V1.1H12.0125V0.9ZM13.7124 2.59998C13.7124 1.66294 12.9503 0.9 12.0125 0.9V1.1C12.8398 1.1 13.5124 1.77334 13.5124 2.59998H13.7124ZM13.7124 15.4V2.59998H13.5124V15.4H13.7124ZM12.0125 17.1C12.9502 17.1 13.7124 16.3378 13.7124 15.4H13.5124C13.5124 16.2274 12.8398 16.9 12.0125 16.9V17.1ZM5.61243 17.1H12.0125V16.9H5.61243V17.1ZM3.91245 15.4C3.91245 16.3379 4.67539 17.1 5.61243 17.1V16.9C4.78579 16.9 4.11245 16.2273 4.11245 15.4H3.91245ZM3.91245 2.59998V15.4H4.11245V2.59998H3.91245ZM5.61243 0.9C4.67536 0.9 3.91245 1.66291 3.91245 2.59998H4.11245C4.11245 1.77337 4.78582 1.1 5.61243 1.1V0.9ZM12.8724 15.4C12.8724 15.8741 12.4865 16.26 12.0125 16.26V16.46C12.597 16.46 13.0724 15.9845 13.0724 15.4H12.8724ZM12.8724 2.59998V15.4H13.0724V2.59998H12.8724ZM12.0125 1.74001C12.4865 1.74001 12.8724 2.12591 12.8724 2.59998H13.0724C13.0724 2.01545 12.597 1.54001 12.0125 1.54001V1.74001ZM5.61243 1.74001H12.0125V1.54001H5.61243V1.74001ZM4.75247 2.59998C4.75247 2.12591 5.13836 1.74001 5.61243 1.74001V1.54001C5.0279 1.54001 4.55247 2.01545 4.55247 2.59998H4.75247ZM4.75247 15.4V2.59998H4.55247V15.4H4.75247ZM5.61243 16.26C5.13836 16.26 4.75247 15.8741 4.75247 15.4H4.55247C4.55247 15.9845 5.0279 16.46 5.61243 16.46V16.26ZM12.0125 16.26H5.61243V16.46H12.0125V16.26Z" fill="#0C49CD"/>
</g>
<path id="Shape_2" d="M9.45254 2.28003H8.17254C7.99588 2.28003 7.85254 2.4234 7.85254 2.60003C7.85254 2.77665 7.99591 2.92003 8.17254 2.92003H9.45254C9.62916 2.92003 9.77254 2.77665 9.77254 2.60003C9.77254 2.4234 9.62916 2.28003 9.45254 2.28003Z" fill="#0C49CD" stroke="#0C49CD" stroke-width="0.2"/>
<path id="Shape_3" d="M8.81255 15.08C8.63593 15.08 8.49255 15.2233 8.49255 15.4C8.49255 15.5766 8.63593 15.72 8.81255 15.72C8.98918 15.72 9.13255 15.5766 9.13255 15.4C9.13255 15.2233 8.98918 15.08 8.81255 15.08Z" fill="#0C49CD" stroke="#0C49CD" stroke-width="0.2"/>
<path id="Shape_4" d="M13.2925 3.56006H4.33245C4.15579 3.56006 4.01245 3.70343 4.01245 3.88006C4.01245 4.05671 4.15579 4.20006 4.33245 4.20006H13.2925C13.4691 4.20006 13.6125 4.05668 13.6125 3.88006C13.6125 3.70343 13.4691 3.56006 13.2925 3.56006Z" fill="#0C49CD" stroke="#0C49CD" stroke-width="0.2"/>
<path id="Shape_5" d="M13.2925 13.8H4.33245C4.15579 13.8 4.01245 13.9434 4.01245 14.12C4.01245 14.2967 4.15579 14.44 4.33245 14.44H13.2925C13.4691 14.44 13.6125 14.2967 13.6125 14.12C13.6125 13.9434 13.4691 13.8 13.2925 13.8Z" fill="#0C49CD" stroke="#0C49CD" stroke-width="0.2"/>
</g>
</g>
</svg>
