<svg width="11" height="18" viewBox="0 0 11 18" fill="none" xmlns="http://www.w3.org/2000/svg">
<path fill-rule="evenodd" clip-rule="evenodd" d="M2.61243 1H9.01245C9.89502 1 10.6124 1.71802 10.6124 2.6001V15.3999C10.6124 16.2825 9.89502 17 9.01245 17H2.61243C1.73059 17 1.01245 16.2825 1.01245 15.3999V2.6001C1.01245 1.71802 1.73059 1 2.61243 1ZM9.01245 16.3599C9.54175 16.3599 9.97241 15.9292 9.97241 15.3999V2.59985C9.97241 2.07056 9.54175 1.63989 9.01245 1.63989H2.61243C2.08313 1.63989 1.65247 2.07056 1.65247 2.59985V15.3999C1.65247 15.9292 2.08313 16.3599 2.61243 16.3599H9.01245Z" fill="#0C49CD"/>
<path d="M9.01245 0.9H2.61243V1.1H9.01245V0.9ZM10.7124 2.6001C10.7124 1.66282 9.95028 0.9 9.01245 0.9V1.1C9.83976 1.1 10.5124 1.77322 10.5124 2.6001H10.7124ZM10.7124 15.3999V2.6001H10.5124V15.3999H10.7124ZM9.01245 17.1C9.95026 17.1 10.7124 16.3377 10.7124 15.3999H10.5124C10.5124 16.2273 9.83978 16.9 9.01245 16.9V17.1ZM2.61243 17.1H9.01245V16.9H2.61243V17.1ZM0.912451 15.3999C0.912451 16.3377 1.67538 17.1 2.61243 17.1V16.9C1.7858 16.9 1.11245 16.2272 1.11245 15.3999H0.912451ZM0.912451 2.6001V15.3999H1.11245V2.6001H0.912451ZM2.61243 0.9C1.67536 0.9 0.912451 1.66279 0.912451 2.6001H1.11245C1.11245 1.77325 1.78582 1.1 2.61243 1.1V0.9ZM9.87241 15.3999C9.87241 15.874 9.48652 16.2599 9.01245 16.2599V16.4599C9.59698 16.4599 10.0724 15.9844 10.0724 15.3999H9.87241ZM9.87241 2.59985V15.3999H10.0724V2.59985H9.87241ZM9.01245 1.73989C9.48652 1.73989 9.87241 2.12579 9.87241 2.59985H10.0724C10.0724 2.01533 9.59698 1.53989 9.01245 1.53989V1.73989ZM2.61243 1.73989H9.01245V1.53989H2.61243V1.73989ZM1.75247 2.59985C1.75247 2.12579 2.13836 1.73989 2.61243 1.73989V1.53989C2.0279 1.53989 1.55247 2.01533 1.55247 2.59985H1.75247ZM1.75247 15.3999V2.59985H1.55247V15.3999H1.75247ZM2.61243 16.2599C2.13836 16.2599 1.75247 15.874 1.75247 15.3999H1.55247C1.55247 15.9844 2.0279 16.4599 2.61243 16.4599V16.2599ZM9.01245 16.2599H2.61243V16.4599H9.01245V16.2599Z" fill="#0C49CD"/>
<path d="M6.45254 2.28003H5.17254C4.99588 2.28003 4.85254 2.4234 4.85254 2.60003C4.85254 2.77665 4.99591 2.92003 5.17254 2.92003H6.45254C6.62916 2.92003 6.77254 2.77665 6.77254 2.60003C6.77254 2.4234 6.62916 2.28003 6.45254 2.28003Z" fill="#0C49CD" stroke="#0C49CD" stroke-width="0.2"/>
<path d="M5.81255 15.0801C5.63593 15.0801 5.49255 15.2235 5.49255 15.4001C5.49255 15.5767 5.63593 15.7201 5.81255 15.7201C5.98918 15.7201 6.13255 15.5767 6.13255 15.4001C6.13255 15.2235 5.98918 15.0801 5.81255 15.0801Z" fill="#0C49CD" stroke="#0C49CD" stroke-width="0.2"/>
<path d="M10.2925 3.56006H1.33245C1.15579 3.56006 1.01245 3.70343 1.01245 3.88006C1.01245 4.05671 1.15579 4.20006 1.33245 4.20006H10.2925C10.4691 4.20006 10.6125 4.05668 10.6125 3.88006C10.6125 3.70343 10.4691 3.56006 10.2925 3.56006Z" fill="#0C49CD" stroke="#0C49CD" stroke-width="0.2"/>
<path d="M10.2925 13.8H1.33245C1.15579 13.8 1.01245 13.9434 1.01245 14.12C1.01245 14.2967 1.15579 14.44 1.33245 14.44H10.2925C10.4691 14.44 10.6125 14.2967 10.6125 14.12C10.6125 13.9434 10.4691 13.8 10.2925 13.8Z" fill="#0C49CD" stroke="#0C49CD" stroke-width="0.2"/>
</svg>
