<svg width="18" height="18" viewBox="0 0 18 18" fill="none" xmlns="http://www.w3.org/2000/svg">
<path fill-rule="evenodd" clip-rule="evenodd" d="M1 9C1 4.58154 4.58154 1 9 1C13.4185 1 17 4.58154 17 9C16.9946 13.416 13.416 16.9946 9 17C4.58154 17 1 13.4185 1 9ZM1.6665 9C1.6665 13.0498 4.94971 16.333 9 16.333C13.0498 16.333 16.333 13.0498 16.333 9C16.3286 4.95166 13.0479 1.6709 9 1.6665C4.94971 1.6665 1.6665 4.94971 1.6665 9Z" fill="#0C49CD"/>
<path d="M17 9L17.1 9.00012V9H17ZM9 17V17.1H9.00012L9 17ZM16.333 9H16.433V8.99989L16.333 9ZM9 1.6665L9.00011 1.5665H9V1.6665ZM9 0.9C4.52631 0.9 0.9 4.52631 0.9 9H1.1C1.1 4.63677 4.63677 1.1 9 1.1V0.9ZM17.1 9C17.1 4.52631 13.4737 0.9 9 0.9V1.1C13.3632 1.1 16.9 4.63677 16.9 9H17.1ZM9.00012 17.1C13.4713 17.0946 17.0946 13.4713 17.1 9.00012L16.9 8.99988C16.8947 13.3608 13.3608 16.8947 8.99988 16.9L9.00012 17.1ZM0.9 9C0.9 13.4737 4.52631 17.1 9 17.1V16.9C4.63677 16.9 1.1 13.3632 1.1 9H0.9ZM9 16.233C5.00493 16.233 1.7665 12.9946 1.7665 9H1.5665C1.5665 13.105 4.89448 16.433 9 16.433V16.233ZM16.233 9C16.233 12.9946 12.9946 16.233 9 16.233V16.433C13.105 16.433 16.433 13.105 16.433 9H16.233ZM8.99989 1.7665C12.9926 1.77084 16.2287 5.00691 16.233 9.00011L16.433 8.99989C16.4286 4.89641 13.1031 1.57096 9.00011 1.5665L8.99989 1.7665ZM1.7665 9C1.7665 5.00494 5.00494 1.7665 9 1.7665V1.5665C4.89448 1.5665 1.5665 4.89448 1.5665 9H1.7665Z" fill="#0C49CD"/>
<path fill-rule="evenodd" clip-rule="evenodd" d="M2.6665 9C2.6665 5.50195 5.50195 2.6665 9 2.6665C12.4976 2.6665 15.333 5.50195 15.333 9C15.3291 12.4961 12.4961 15.3291 9 15.333C5.50195 15.333 2.6665 12.4976 2.6665 9ZM3.33301 8.99951C3.33301 12.1294 5.87012 14.6665 8.99951 14.6665C12.1294 14.6665 14.6665 12.1294 14.6665 8.99951C14.6631 5.87158 12.1279 3.33643 8.99951 3.33301C5.87012 3.33301 3.33301 5.87012 3.33301 8.99951Z" fill="#0C49CD"/>
<path d="M15.333 9L15.433 9.00011V9H15.333ZM9 15.333V15.433H9.00011L9 15.333ZM14.6665 8.99951H14.7665V8.9994L14.6665 8.99951ZM8.99951 3.33301L8.99962 3.23301H8.99951V3.33301ZM9 2.5665C5.44672 2.5665 2.5665 5.44672 2.5665 9H2.7665C2.7665 5.55718 5.55718 2.7665 9 2.7665V2.5665ZM15.433 9C15.433 5.44673 12.5528 2.5665 9 2.5665V2.7665C12.4423 2.7665 15.233 5.55718 15.233 9H15.433ZM9.00011 15.433C12.5513 15.429 15.429 12.5513 15.433 9.00011L15.233 8.99989C15.2292 12.4408 12.4408 15.2292 8.99989 15.233L9.00011 15.433ZM2.5665 9C2.5665 12.5528 5.44673 15.433 9 15.433V15.233C5.55718 15.233 2.7665 12.4423 2.7665 9H2.5665ZM8.99951 14.5665C5.92535 14.5665 3.43301 12.0742 3.43301 8.99951H3.23301C3.23301 12.1846 5.81488 14.7665 8.99951 14.7665V14.5665ZM14.5665 8.99951C14.5665 12.0742 12.0742 14.5665 8.99951 14.5665V14.7665C12.1846 14.7665 14.7665 12.1846 14.7665 8.99951H14.5665ZM8.9994 3.43301C12.0727 3.43637 14.5631 5.92684 14.5665 8.99962L14.7665 8.9994C14.763 5.81632 12.1832 3.23649 8.99962 3.23301L8.9994 3.43301ZM3.43301 8.99951C3.43301 5.92535 5.92535 3.43301 8.99951 3.43301V3.23301C5.81489 3.23301 3.23301 5.81489 3.23301 8.99951H3.43301Z" fill="#0C49CD"/>
<path fill-rule="evenodd" clip-rule="evenodd" d="M11 9C11.2041 8.84668 11.3672 8.65137 11.481 8.43066C11.6011 8.19775 11.6665 7.93604 11.6665 7.6665C11.6665 6.74609 10.9204 6 10 6H7.3335C7.2583 6 7.18896 6.0249 7.1333 6.06689C7.05225 6.12744 7 6.22461 7 6.3335V11.6665C7 11.8506 7.14941 12 7.3335 12H10C10.5244 12 11.0186 11.7529 11.3335 11.3335C11.8857 10.5972 11.7363 9.55225 11 9ZM7.6665 6.6665H10C10.5522 6.6665 11 7.11426 11 7.6665C11 8.21875 10.5522 8.6665 10 8.6665H7.6665V6.6665ZM7.6665 11.3335H10C10.5522 11.3335 11 10.8857 11 10.3335C11 9.78125 10.5522 9.3335 10 9.3335H7.6665V11.3335Z" fill="#0C49CD"/>
<path d="M11.481 8.43066L11.3921 8.38483L11.3921 8.38484L11.481 8.43066ZM11 9L10.9399 8.92005L10.8334 9.00006L10.94 9.08L11 9ZM7.1333 6.06689L7.19315 6.14701L7.19352 6.14673L7.1333 6.06689ZM11.3335 11.3335L11.4135 11.3935L11.4135 11.3935L11.3335 11.3335ZM7.6665 6.6665V6.5665H7.5665V6.6665H7.6665ZM7.6665 8.6665H7.5665V8.7665H7.6665V8.6665ZM7.6665 11.3335H7.5665V11.4335H7.6665V11.3335ZM7.6665 9.3335V9.2335H7.5665V9.3335H7.6665ZM11.3921 8.38484C11.2851 8.59229 11.1318 8.77589 10.9399 8.92005L11.0601 9.07995C11.2764 8.91747 11.4492 8.71044 11.5698 8.47648L11.3921 8.38484ZM11.5665 7.6665C11.5665 7.91983 11.505 8.16586 11.3921 8.38483L11.5698 8.4765C11.6971 8.22964 11.7665 7.95224 11.7665 7.6665H11.5665ZM10 6.1C10.8652 6.1 11.5665 6.80132 11.5665 7.6665H11.7665C11.7665 6.69087 10.9756 5.9 10 5.9V6.1ZM7.3335 6.1H10V5.9H7.3335V6.1ZM7.19352 6.14673C7.23242 6.11739 7.28075 6.1 7.3335 6.1V5.9C7.23586 5.9 7.14551 5.93242 7.07308 5.98706L7.19352 6.14673ZM7.1 6.3335C7.1 6.2572 7.13651 6.18931 7.19315 6.14701L7.07346 5.98678C6.96798 6.06557 6.9 6.19202 6.9 6.3335H7.1ZM7.1 11.6665V6.3335H6.9V11.6665H7.1ZM7.3335 11.9C7.20464 11.9 7.1 11.7954 7.1 11.6665H6.9C6.9 11.9058 7.09419 12.1 7.3335 12.1V11.9ZM10 11.9H7.3335V12.1H10V11.9ZM11.2535 11.2735C10.9575 11.6678 10.4929 11.9 10 11.9V12.1C10.5559 12.1 11.0796 11.8381 11.4135 11.3935L11.2535 11.2735ZM10.94 9.08C11.6322 9.59912 11.7726 10.5814 11.2535 11.2735L11.4135 11.3935C11.9989 10.613 11.8405 9.50537 11.06 8.92L10.94 9.08ZM10 6.5665H7.6665V6.7665H10V6.5665ZM11.1 7.6665C11.1 7.05903 10.6075 6.5665 10 6.5665V6.7665C10.497 6.7665 10.9 7.16949 10.9 7.6665H11.1ZM10 8.7665C10.6075 8.7665 11.1 8.27398 11.1 7.6665H10.9C10.9 8.16352 10.497 8.5665 10 8.5665V8.7665ZM7.6665 8.7665H10V8.5665H7.6665V8.7665ZM7.5665 6.6665V8.6665H7.7665V6.6665H7.5665ZM10 11.2335H7.6665V11.4335H10V11.2335ZM10.9 10.3335C10.9 10.8305 10.497 11.2335 10 11.2335V11.4335C10.6075 11.4335 11.1 10.941 11.1 10.3335H10.9ZM10 9.4335C10.497 9.4335 10.9 9.83648 10.9 10.3335H11.1C11.1 9.72602 10.6075 9.2335 10 9.2335V9.4335ZM7.6665 9.4335H10V9.2335H7.6665V9.4335ZM7.7665 11.3335V9.3335H7.5665V11.3335H7.7665Z" fill="#0C49CD"/>
<rect x="8" y="5" width="0.666656" height="1.33334" fill="#0C49CD" stroke="#0C49CD" stroke-width="0.2"/>
<rect x="9.3335" y="5" width="0.666656" height="1.33334" fill="#0C49CD" stroke="#0C49CD" stroke-width="0.2"/>
<rect x="8" y="11.6665" width="0.666656" height="1.33334" fill="#0C49CD" stroke="#0C49CD" stroke-width="0.2"/>
<rect x="9.3335" y="11.6665" width="0.666656" height="1.33334" fill="#0C49CD" stroke="#0C49CD" stroke-width="0.2"/>
<rect x="4.3335" y="8.6665" width="0.666656" height="0.666656" fill="#0C49CD" stroke="#0C49CD" stroke-width="0.2"/>
<rect x="13" y="8.6665" width="0.666656" height="0.666656" fill="#0C49CD" stroke="#0C49CD" stroke-width="0.2"/>
</svg>
