<svg width="13" height="18" viewBox="0 0 13 18" fill="none" xmlns="http://www.w3.org/2000/svg">
<path fill-rule="evenodd" clip-rule="evenodd" d="M6.22754 1.1853C6.41675 0.938232 6.83252 0.938232 7.02161 1.1853C7.30579 1.55566 13.9517 10.3064 11.8077 14.6516C11.0388 16.2097 9.29565 16.9998 6.62488 16.9998C3.9541 16.9998 2.21094 16.2097 1.44189 14.6516C-0.701904 10.3064 5.94397 1.55566 6.22754 1.1853ZM7.12512 15.9814C9.09094 15.8955 10.3693 15.3047 10.9102 14.209C12.3601 11.2705 8.61719 5.07935 6.62488 2.32812C4.63257 5.08032 0.890625 11.2729 2.33948 14.2095C2.88037 15.3052 4.15869 15.8955 6.12451 15.9814V13.9978C6.12451 12.5852 4.87219 12.4998 4.62097 12.4968L4.62354 11.4961C5.03577 11.4961 5.62268 11.6172 6.12451 11.9558V9.99512C6.12451 8.58276 4.87219 8.49707 4.62097 8.49414L4.62354 7.49341C5.03577 7.49341 5.62268 7.6145 6.12451 7.95337V4.98145H7.12512V7.95337C7.62695 7.61499 8.21387 7.49341 8.6261 7.49341L8.62866 8.49414C8.37744 8.49707 7.12512 8.58276 7.12512 9.99512V11.9558C7.62695 11.6177 8.21387 11.4961 8.6261 11.4961L8.62866 12.4968C8.37744 12.4998 7.12512 12.5852 7.12512 13.9978V15.9814Z" fill="#0C49CD"/>
<path d="M7.02161 1.1853L6.94219 1.24608L6.94227 1.24618L7.02161 1.1853ZM6.22754 1.1853L6.14815 1.1245L6.14814 1.12451L6.22754 1.1853ZM11.8077 14.6516L11.8974 14.6959L11.8974 14.6959L11.8077 14.6516ZM1.44189 14.6516L1.35222 14.6959L1.35222 14.6959L1.44189 14.6516ZM10.9102 14.209L10.9998 14.2532L10.9998 14.2532L10.9102 14.209ZM7.12512 15.9814H7.02512V16.0859L7.12949 16.0814L7.12512 15.9814ZM6.62488 2.32812L6.70587 2.26947L6.62486 2.15761L6.54387 2.26949L6.62488 2.32812ZM2.33948 14.2095L2.2498 14.2537L2.24981 14.2537L2.33948 14.2095ZM6.12451 15.9814L6.12014 16.0814L6.22451 16.0859V15.9814H6.12451ZM4.62097 12.4968L4.52097 12.4966L4.52072 12.5957L4.61981 12.5968L4.62097 12.4968ZM4.62354 11.4961V11.3961H4.52379L4.52354 11.4958L4.62354 11.4961ZM6.12451 11.9558L6.06858 12.0387L6.22451 12.1439V11.9558H6.12451ZM4.62097 8.49414L4.52097 8.49388L4.52072 8.59298L4.61981 8.59413L4.62097 8.49414ZM4.62354 7.49341V7.39341H4.52379L4.52354 7.49315L4.62354 7.49341ZM6.12451 7.95337L6.06855 8.03624L6.22451 8.14156V7.95337H6.12451ZM6.12451 4.98145V4.88145H6.02451V4.98145H6.12451ZM7.12512 4.98145H7.22512V4.88145H7.12512V4.98145ZM7.12512 7.95337H7.02512V8.14141L7.18103 8.03628L7.12512 7.95337ZM8.6261 7.49341L8.7261 7.49315L8.72584 7.39341H8.6261V7.49341ZM8.62866 8.49414L8.62983 8.59413L8.72892 8.59298L8.72866 8.49388L8.62866 8.49414ZM7.12512 11.9558H7.02512V12.1438L7.181 12.0387L7.12512 11.9558ZM8.6261 11.4961L8.7261 11.4958L8.72584 11.3961H8.6261V11.4961ZM8.62866 12.4968L8.62983 12.5968L8.72892 12.5957L8.72866 12.4966L8.62866 12.4968ZM7.10102 1.12453C6.98447 0.972243 6.80154 0.9 6.62462 0.9C6.4477 0.9 6.26475 0.972242 6.14815 1.1245L6.30693 1.2461C6.37954 1.15129 6.49908 1.1 6.62462 1.1C6.75016 1.1 6.86965 1.15129 6.94219 1.24608L7.10102 1.12453ZM11.8974 14.6959C12.4481 13.5797 12.43 12.1912 12.1019 10.7443C11.7733 9.29564 11.1306 7.77447 10.4141 6.38213C8.98107 3.59712 7.24435 1.31132 7.10094 1.12443L6.94227 1.24618C7.08305 1.42965 8.81135 3.70439 10.2363 6.47364C10.9489 7.85844 11.5834 9.36283 11.9068 10.7886C12.2306 12.2161 12.2393 13.5509 11.7181 14.6074L11.8974 14.6959ZM6.62488 17.0998C9.31109 17.0998 11.1035 16.3045 11.8974 14.6959L11.7181 14.6074C10.9741 16.1149 9.28021 16.8998 6.62488 16.8998V17.0998ZM1.35222 14.6959C2.14622 16.3045 3.93866 17.0998 6.62488 17.0998V16.8998C3.96954 16.8998 2.27566 16.1149 1.53157 14.6074L1.35222 14.6959ZM6.14814 1.12451C6.00512 1.31131 4.26853 3.59711 2.83553 6.38213C2.11913 7.77447 1.47645 9.29564 1.14784 10.7443C0.819642 12.1912 0.801549 13.5797 1.35222 14.6959L1.53157 14.6074C1.01034 13.5509 1.01906 12.2161 1.34288 10.7886C1.66629 9.36283 2.30084 7.85844 3.01337 6.47364C4.43825 3.7044 6.16639 1.42966 6.30694 1.2461L6.14814 1.12451ZM10.8205 14.1647C10.3042 15.2105 9.07452 15.7961 7.12075 15.8815L7.12949 16.0814C9.10737 15.9949 10.4343 15.3989 10.9998 14.2532L10.8205 14.1647ZM6.54388 2.38678C7.53753 3.75892 8.96719 5.98834 9.96698 8.23893C10.4669 9.36432 10.8577 10.4913 11.0339 11.5168C11.2104 12.5438 11.1696 13.4572 10.8205 14.1647L10.9998 14.2532C11.3757 13.4915 11.4108 12.5292 11.231 11.4829C11.051 10.4351 10.6533 9.29135 10.1498 8.15774C9.14249 5.89032 7.70454 3.64855 6.70587 2.26947L6.54388 2.38678ZM2.42916 14.1652C2.08031 13.4582 2.03968 12.545 2.21622 11.5181C2.39249 10.4928 2.78325 9.36578 3.28313 8.24027C4.28282 5.98943 5.71224 3.75939 6.70588 2.38676L6.54387 2.26949C5.54521 3.64906 4.1075 5.89143 3.10035 8.15909C2.59682 9.29282 2.19923 10.4366 2.01911 11.4843C1.83927 12.5304 1.87422 13.4925 2.2498 14.2537L2.42916 14.1652ZM6.12888 15.8815C4.17508 15.7961 2.94538 15.211 2.42915 14.1652L2.24981 14.2537C2.81536 15.3994 4.1423 15.9949 6.12014 16.0814L6.12888 15.8815ZM6.02451 13.9978V15.9814H6.22451V13.9978H6.02451ZM4.61981 12.5968C4.73922 12.5982 5.09464 12.6198 5.41706 12.8054C5.73142 12.9863 6.02451 13.3283 6.02451 13.9978H6.22451C6.22451 13.2547 5.89144 12.8477 5.51684 12.632C5.1503 12.421 4.75395 12.3984 4.62214 12.3968L4.61981 12.5968ZM4.52354 11.4958L4.52097 12.4966L4.72097 12.4971L4.72353 11.4964L4.52354 11.4958ZM6.18045 11.8729C5.65927 11.5212 5.052 11.3961 4.62354 11.3961V11.5961C5.01953 11.5961 5.58609 11.7131 6.06858 12.0387L6.18045 11.8729ZM6.02451 9.99512V11.9558H6.22451V9.99512H6.02451ZM4.61981 8.59413C4.7392 8.59553 5.09462 8.61712 5.41705 8.80276C5.73142 8.98376 6.02451 9.32572 6.02451 9.99512H6.22451C6.22451 9.25216 5.89144 8.8451 5.51685 8.62943C5.15031 8.4184 4.75396 8.39568 4.62214 8.39415L4.61981 8.59413ZM4.52354 7.49315L4.52097 8.49388L4.72097 8.4944L4.72353 7.49366L4.52354 7.49315ZM6.18047 7.87049C5.65929 7.51856 5.052 7.39341 4.62354 7.39341V7.59341C5.01953 7.59341 5.58607 7.71045 6.06855 8.03624L6.18047 7.87049ZM6.02451 4.98145V7.95337H6.22451V4.98145H6.02451ZM7.12512 4.88145H6.12451V5.08145H7.12512V4.88145ZM7.22512 7.95337V4.98145H7.02512V7.95337H7.22512ZM8.6261 7.39341C8.19757 7.39341 7.59033 7.51907 7.06922 7.87046L7.18103 8.03628C7.66357 7.71091 8.23016 7.59341 8.6261 7.59341V7.39341ZM8.72866 8.49388L8.7261 7.49315L8.5261 7.49366L8.52866 8.4944L8.72866 8.49388ZM7.22512 9.99512C7.22512 9.32572 7.51821 8.98376 7.83258 8.80276C8.15501 8.61712 8.51043 8.59553 8.62983 8.59413L8.6275 8.39415C8.49567 8.39568 8.09932 8.4184 7.73279 8.62943C7.35819 8.8451 7.02512 9.25216 7.02512 9.99512H7.22512ZM7.22512 11.9558V9.99512H7.02512V11.9558H7.22512ZM8.6261 11.3961C8.19757 11.3961 7.59035 11.5218 7.06924 11.8729L7.181 12.0387C7.66356 11.7136 8.23016 11.5961 8.6261 11.5961V11.3961ZM8.72866 12.4966L8.7261 11.4958L8.5261 11.4964L8.52866 12.4971L8.72866 12.4966ZM7.22512 13.9978C7.22512 13.3283 7.51821 12.9863 7.83257 12.8054C8.155 12.6198 8.51041 12.5982 8.62983 12.5968L8.6275 12.3968C8.49569 12.3984 8.09934 12.421 7.73279 12.632C7.35819 12.8477 7.02512 13.2547 7.02512 13.9978H7.22512ZM7.22512 15.9814V13.9978H7.02512V15.9814H7.22512Z" fill="#0C49CD"/>
</svg>
