<svg width="16" height="14" viewBox="0 0 16 14" fill="none" xmlns="http://www.w3.org/2000/svg">
<path fill-rule="evenodd" clip-rule="evenodd" d="M15.5592 1.00586L10.0699 0.00805664C10.0641 0.00683594 10.0585 0.00732422 10.0529 0.00805664L10.0491 0.00878906L10.0377 0.00976562L10.0291 0.00952148L10.0194 0.00805664L10.007 0.00488281L9.99097 0.000976562L9.98059 0H5.9884C5.979 0 5.97046 0.00244141 5.96191 0.00488281L5.95361 0.00708008L5.94043 0.00952148L5.93091 0.00976562L5.92139 0.00854492C5.91394 0.00756836 5.90662 0.0065918 5.89905 0.00805664L0.40979 1.00586C0.145752 1.05371 -0.0328369 1.30151 0.00512695 1.56738L0.50415 5.05981C0.539551 5.30518 0.749634 5.48779 0.998169 5.48779H2.99426V13.47C2.99426 13.7454 3.21777 13.9688 3.49329 13.9688H12.4757C12.5266 13.9688 12.5758 13.9612 12.6221 13.947C12.6931 13.9253 12.7574 13.8879 12.811 13.8394C12.9116 13.748 12.9747 13.6165 12.9747 13.47V5.48779H14.9708C15.2194 5.48779 15.4294 5.30518 15.4648 5.05981L15.9639 1.56738C16.0018 1.30151 15.8226 1.05371 15.5592 1.00586ZM2.99426 4.48999H1.43079L1.06104 1.90186L2.99426 1.55005V4.48999ZM8.23547 1.97021C8.76392 1.86792 9.18958 1.4563 9.3772 0.997803H6.59119C6.65161 1.14526 6.73657 1.28784 6.84167 1.41699C6.93164 1.52734 7.03638 1.62793 7.15308 1.71313C7.32373 1.83765 7.52002 1.92896 7.73291 1.97021C7.77209 1.97681 7.81152 1.98291 7.85132 1.98755L7.90845 1.99292L7.94678 1.99512L7.9845 1.99561C8.07031 1.99561 8.15369 1.98413 8.23547 1.97021ZM11.9767 4.98877V12.9709H3.99231V4.98877V1.3689L5.55872 1.08398C5.82275 2.17798 6.8103 2.99316 7.9845 2.99316C9.15869 2.99316 10.1462 2.17798 10.4103 1.08398L11.9767 1.3689V4.98877ZM12.9747 4.48999H14.5382L14.908 1.90137L12.9747 1.55005V4.48999Z" fill="#0C49CD"/>
</svg>
