<svg width="15" height="18" viewBox="0 0 15 18" fill="none" xmlns="http://www.w3.org/2000/svg">
<path fill-rule="evenodd" clip-rule="evenodd" d="M12.25 1.3125C12.25 2.17407 12.9509 2.875 13.8125 2.875C13.9851 2.875 14.125 3.01489 14.125 3.1875V8.28711C14.125 12.3484 11.4504 15.8474 7.65234 16.9868C7.62305 16.9956 7.59277 17 7.5625 17C7.54932 17 7.53613 16.9993 7.52319 16.9976C7.5061 16.9954 7.48926 16.9917 7.47266 16.9868C3.59058 15.8228 1 12.2615 1 8.28711V3.1875C1 3.01489 1.13989 2.875 1.3125 2.875C2.17407 2.875 2.875 2.17407 2.875 1.3125C2.875 1.13989 3.01489 1 3.1875 1H11.9375C12.0605 1 12.1672 1.07129 12.218 1.1748C12.2385 1.21631 12.25 1.26294 12.25 1.3125ZM7.5625 16.3608C11.1182 15.2524 13.5 12.02 13.5 8.28711V3.47778C12.5435 3.34033 11.7847 2.58154 11.6472 1.625H3.47778C3.34033 2.58154 2.58154 3.34033 1.625 3.47778V8.28711C1.625 11.9995 4.03516 15.2615 7.5625 16.3608Z" fill="#0C49CD"/>
<path d="M7.65234 16.9868L7.62361 16.891L7.62361 16.891L7.65234 16.9868ZM7.52319 16.9976L7.53629 16.8984L7.53595 16.8984L7.52319 16.9976ZM7.47266 16.9868L7.44393 17.0826L7.44444 17.0828L7.47266 16.9868ZM12.218 1.1748L12.1282 1.21885L12.1284 1.2191L12.218 1.1748ZM7.5625 16.3608L7.53274 16.4563L7.5625 16.4656L7.59226 16.4563L7.5625 16.3608ZM13.5 3.47778H13.6V3.39113L13.5142 3.3788L13.5 3.47778ZM11.6472 1.625L11.7462 1.61078L11.7339 1.525H11.6472V1.625ZM3.47778 1.625V1.525H3.39113L3.3788 1.61078L3.47778 1.625ZM1.625 3.47778L1.61078 3.3788L1.525 3.39113V3.47778H1.625ZM13.8125 2.775C13.0062 2.775 12.35 2.11884 12.35 1.3125H12.15C12.15 2.2293 12.8957 2.975 13.8125 2.975V2.775ZM14.225 3.1875C14.225 2.95966 14.0403 2.775 13.8125 2.775V2.975C13.9299 2.975 14.025 3.07012 14.025 3.1875H14.225ZM14.225 8.28711V3.1875H14.025V8.28711H14.225ZM7.68108 17.0826C11.5209 15.9307 14.225 12.3932 14.225 8.28711H14.025C14.025 12.3036 11.38 15.7641 7.62361 16.891L7.68108 17.0826ZM7.5625 17.1C7.60245 17.1 7.64241 17.0942 7.68108 17.0826L7.62361 16.891C7.60369 16.897 7.5831 16.9 7.5625 16.9V17.1ZM7.5101 17.0967C7.52805 17.0991 7.54567 17.1 7.5625 17.1V16.9C7.55296 16.9 7.54422 16.8995 7.53629 16.8984L7.5101 17.0967ZM7.44444 17.0828C7.46562 17.089 7.48765 17.0938 7.51044 17.0967L7.53595 16.8984C7.52456 16.8969 7.51289 16.8944 7.50087 16.8909L7.44444 17.0828ZM0.9 8.28711C0.9 12.3051 3.51904 15.9057 7.44393 17.0826L7.50138 16.891C3.66211 15.7398 1.1 12.2178 1.1 8.28711H0.9ZM0.9 3.1875V8.28711H1.1V3.1875H0.9ZM1.3125 2.775C1.08466 2.775 0.9 2.95966 0.9 3.1875H1.1C1.1 3.07012 1.19512 2.975 1.3125 2.975V2.775ZM2.775 1.3125C2.775 2.11884 2.11884 2.775 1.3125 2.775V2.975C2.2293 2.975 2.975 2.2293 2.975 1.3125H2.775ZM3.1875 0.9C2.95966 0.9 2.775 1.08466 2.775 1.3125H2.975C2.975 1.19512 3.07012 1.1 3.1875 1.1V0.9ZM11.9375 0.9H3.1875V1.1H11.9375V0.9ZM12.3078 1.13076C12.2408 0.994245 12.1001 0.9 11.9375 0.9V1.1C12.021 1.1 12.0936 1.14833 12.1282 1.21885L12.3078 1.13076ZM12.35 1.3125C12.35 1.24729 12.3349 1.18553 12.3077 1.13051L12.1284 1.2191C12.1422 1.24709 12.15 1.27859 12.15 1.3125H12.35ZM13.4 8.28711C13.4 11.9762 11.0466 15.17 7.53274 16.2654L7.59226 16.4563C11.1897 15.3349 13.6 12.0638 13.6 8.28711H13.4ZM13.4 3.47778V8.28711H13.6V3.47778H13.4ZM11.5482 1.63922C11.692 2.6397 12.4853 3.433 13.4858 3.57677L13.5142 3.3788C12.6016 3.24766 11.8773 2.52339 11.7462 1.61078L11.5482 1.63922ZM3.47778 1.725H11.6472V1.525H3.47778V1.725ZM1.63922 3.57677C2.6397 3.433 3.433 2.6397 3.57677 1.63922L3.3788 1.61078C3.24766 2.52339 2.52339 3.24766 1.61078 3.3788L1.63922 3.57677ZM1.725 8.28711V3.47778H1.525V8.28711H1.725ZM7.59226 16.2654C4.10663 15.179 1.725 11.9557 1.725 8.28711H1.525C1.525 12.0433 3.96368 15.3439 7.53274 16.4563L7.59226 16.2654Z" fill="#0C49CD"/>
<path fill-rule="evenodd" clip-rule="evenodd" d="M3.17847 8.30371C3.17847 5.8667 5.16113 3.88403 7.59814 3.88403C10.0352 3.88403 12.0178 5.8667 12.0178 8.30371C12.0178 10.7407 10.0352 12.7234 7.59814 12.7234C5.16113 12.7234 3.17847 10.7407 3.17847 8.30371ZM4.16064 8.30371C4.16064 10.1992 5.70264 11.7412 7.59814 11.7412C9.49365 11.7412 11.0356 10.1992 11.0356 8.30371C11.0356 6.4082 9.49365 4.86621 7.59814 4.86621C5.70264 4.86621 4.16064 6.4082 4.16064 8.30371Z" fill="#0C49CD"/>
<path d="M9.90963 6.97411C9.71782 6.78239 9.40697 6.78239 9.21511 6.97411L7.10704 9.08223L6.47213 8.44737C6.28032 8.25566 5.96947 8.25566 5.77761 8.44737C5.58585 8.63913 5.58585 8.95008 5.77761 9.14189L6.75975 10.124C6.85571 10.2198 6.98133 10.2678 7.10704 10.2678C7.23275 10.2678 7.35837 10.2198 7.45428 10.124L9.90963 7.66863C10.1014 7.47687 10.1014 7.16592 9.90963 6.97411Z" fill="#0C49CD"/>
</svg>
