<svg width="16" height="18" viewBox="0 0 16 18" fill="none" xmlns="http://www.w3.org/2000/svg">
<path d="M9.50519 15.7153C8.73759 16.1209 7.88259 16.3331 7.01444 16.3334C4.06781 16.3344 1.67822 13.9466 1.67719 11C1.67719 7.64097 5.95019 2.92997 7.01053 1.81262C7.39719 2.21928 8.21053 3.09997 9.08119 4.21497L9.60653 3.80431C8.87028 2.85925 8.08231 1.95562 7.24619 1.09766C7.18369 1.03516 7.0989 1 7.01053 1C6.92212 1.00003 6.83737 1.03516 6.77487 1.09766C6.5395 1.33331 1.0105 6.90897 1.0105 11C1.01434 14.3121 3.6984 16.9961 7.0105 17C7.98897 16.9998 8.95262 16.7609 9.81784 16.304L9.50519 15.7153Z" fill="#0C49CD" stroke="#0C49CD" stroke-width="0.2"/>
<path d="M3.67719 11H3.0105C3.01287 13.2082 4.80234 14.9976 7.0105 15V14.3333C5.1704 14.3313 3.67919 12.8401 3.67719 11Z" fill="#0C49CD" stroke="#0C49CD" stroke-width="0.2"/>
<path fill-rule="evenodd" clip-rule="evenodd" d="M14.0923 8.33325H15.3438C15.5278 8.33325 15.677 8.48242 15.677 8.6665V10.6665C15.677 10.8506 15.5278 11 15.3438 11H14.0923C14.074 11.0461 14.0549 11.0923 14.0344 11.1384L14.9197 12.0234C15.0498 12.1538 15.0498 12.3647 14.9197 12.4949L13.5054 13.9092C13.373 14.0342 13.1663 14.0342 13.0339 13.9092L12.1489 13.0239C12.1028 13.0442 12.0566 13.0635 12.0105 13.0823V14.3333C12.0105 14.5173 11.8611 14.6665 11.677 14.6665H9.677C9.49292 14.6665 9.34375 14.5173 9.34375 14.3333V13.0823C9.29736 13.0635 9.25146 13.0442 9.20508 13.0239L8.32007 13.9092C8.18774 14.0342 7.98096 14.0342 7.84863 13.9092L6.43433 12.4949C6.3042 12.3647 6.3042 12.1538 6.43433 12.0234L7.31958 11.1384C7.29907 11.0923 7.28003 11.0461 7.26172 11H6.01025C5.89722 11 5.79736 10.9436 5.73706 10.8577C5.69922 10.8035 5.677 10.7375 5.677 10.6665V8.6665C5.677 8.48242 5.82617 8.33325 6.01025 8.33325H7.26172C7.28003 8.28687 7.29907 8.24097 7.31958 8.19458L6.43433 7.30957C6.38501 7.26025 6.35449 7.19922 6.34253 7.1355C6.323 7.03101 6.35352 6.91895 6.43433 6.83813L7.84863 5.42383C7.90576 5.36987 7.97681 5.33911 8.0498 5.33179C8.14575 5.32202 8.24487 5.35278 8.32007 5.42383L9.20508 6.30908L9.28516 6.27466L9.34375 6.25073V4.99976C9.34375 4.81567 9.49292 4.6665 9.677 4.6665H11.677C11.8611 4.6665 12.0105 4.81567 12.0105 4.99976V6.25073C12.0566 6.26953 12.1028 6.28882 12.1489 6.30908L13.0339 5.42383C13.105 5.35669 13.1975 5.32568 13.2886 5.33057C13.3669 5.33496 13.4441 5.36597 13.5054 5.42383L14.9197 6.83813C15.0498 6.96826 15.0498 7.17944 14.9197 7.30957L14.0344 8.19458C14.0549 8.24097 14.074 8.28687 14.0923 8.33325ZM13.8577 10.3333H15.0105V9H13.8574C13.762 9 13.6738 8.95923 13.6123 8.89209C13.5798 8.85693 13.5547 8.81445 13.5396 8.7666C13.4858 8.59912 13.418 8.43628 13.3362 8.28052C13.2686 8.15161 13.2927 7.99365 13.3958 7.89062L14.2124 7.07397L13.2698 6.13135L12.4531 6.948C12.3501 7.05078 12.1921 7.07495 12.0632 7.00757C11.9072 6.92554 11.7446 6.85767 11.5767 6.8042C11.438 6.7605 11.3435 6.63184 11.3435 6.48633V5.33325H10.0105V6.48633C10.0105 6.58765 9.96484 6.68066 9.89014 6.74268C9.85742 6.76978 9.81934 6.79102 9.7771 6.8042C9.68213 6.83447 9.58862 6.86938 9.49731 6.90869C9.42725 6.93896 9.3584 6.97192 9.29077 7.00757C9.2063 7.05176 9.10962 7.05664 9.02393 7.02588C8.97852 7.00977 8.93628 6.98364 8.90063 6.948L8.08398 6.13135L7.14136 7.07397L7.95801 7.89062C8.06104 7.99365 8.08521 8.15161 8.01782 8.28052C7.93604 8.43628 7.86792 8.59912 7.81445 8.7666C7.77075 8.90552 7.64209 9 7.49634 9H6.34375V10.3333H7.49658C7.64233 10.3333 7.771 10.4277 7.8147 10.5667C7.8396 10.645 7.86768 10.7222 7.89917 10.7981C7.93481 10.8845 7.97461 10.9695 8.01807 11.0525C8.08545 11.1816 8.06128 11.3396 7.9585 11.4426L7.1416 12.2593L8.08447 13.2019L8.90112 12.3853C9.00415 12.2822 9.16187 12.2581 9.29102 12.3257C9.44678 12.4077 9.60962 12.4756 9.77734 12.5291C9.91626 12.5725 10.0107 12.7014 10.0107 12.8469L10.0103 14H11.3438V12.8469C11.3438 12.7014 11.4382 12.5728 11.5771 12.5291C11.6743 12.498 11.7698 12.4624 11.863 12.4216C11.9309 12.3921 11.9978 12.3601 12.0635 12.3257C12.1924 12.2583 12.3503 12.2822 12.4534 12.3853L13.27 13.2019L14.2126 12.2593L13.396 11.4426C13.3369 11.3833 13.3037 11.3059 13.2991 11.2263C13.2957 11.1675 13.3079 11.1074 13.3364 11.0527C13.4182 10.8967 13.4863 10.7341 13.5398 10.5667C13.5681 10.4771 13.6316 10.4058 13.7122 10.3667C13.7566 10.3452 13.8062 10.3333 13.8577 10.3333Z" fill="#0C49CD"/>
<path d="M14.0923 8.33325L13.9993 8.36997L14.0243 8.43325H14.0923V8.33325ZM14.0923 11V10.9H14.0244L13.9993 10.9631L14.0923 11ZM14.0344 11.1384L13.943 11.0978L13.9151 11.1606L13.9637 11.2091L14.0344 11.1384ZM14.9197 12.0234L14.9905 11.9528L14.9904 11.9527L14.9197 12.0234ZM13.5054 13.9092L13.5741 13.9819L13.5761 13.9799L13.5054 13.9092ZM13.0339 13.9092L12.9632 13.9799L12.9653 13.9819L13.0339 13.9092ZM12.1489 13.0239L12.2196 12.9532L12.1713 12.9049L12.1087 12.9324L12.1489 13.0239ZM12.0105 13.0823L11.9728 12.9897L11.9105 13.015V13.0823H12.0105ZM9.34375 13.0823H9.44375V13.0149L9.38131 12.9896L9.34375 13.0823ZM9.20508 13.0239L9.24511 12.9323L9.18259 12.905L9.13436 12.9532L9.20508 13.0239ZM8.32007 13.9092L8.38877 13.9819L8.39079 13.9799L8.32007 13.9092ZM7.84863 13.9092L7.77789 13.9799L7.77996 13.9819L7.84863 13.9092ZM6.43433 12.0234L6.36363 11.9527L6.36355 11.9528L6.43433 12.0234ZM7.31958 11.1384L7.39028 11.2091L7.43886 11.1606L7.41096 11.0978L7.31958 11.1384ZM7.26172 11L7.35467 10.9631L7.32962 10.9H7.26172V11ZM5.73706 10.8577L5.65507 10.9149L5.6552 10.9151L5.73706 10.8577ZM7.26172 8.33325V8.43325H7.32975L7.35473 8.36997L7.26172 8.33325ZM7.31958 8.19458L7.41104 8.23502L7.43876 8.17232L7.39028 8.12386L7.31958 8.19458ZM6.43433 7.30957L6.36362 7.38028L6.36363 7.38029L6.43433 7.30957ZM6.34253 7.1355L6.24423 7.15387L6.24425 7.15395L6.34253 7.1355ZM7.84863 5.42383L7.77994 5.3511L7.77792 5.35312L7.84863 5.42383ZM8.0498 5.33179L8.05979 5.43129L8.05993 5.43127L8.0498 5.33179ZM8.32007 5.42383L8.39082 5.3531L8.38874 5.35114L8.32007 5.42383ZM9.20508 6.30908L9.13436 6.37978L9.18229 6.42773L9.24457 6.40095L9.20508 6.30908ZM9.28516 6.27466L9.24735 6.18206L9.24566 6.18279L9.28516 6.27466ZM9.34375 6.25073L9.38155 6.34331L9.44375 6.31791V6.25073H9.34375ZM12.0105 6.25073H11.9105V6.31797L11.9728 6.34334L12.0105 6.25073ZM12.1489 6.30908L12.1087 6.40064L12.1713 6.42813L12.2196 6.37978L12.1489 6.30908ZM13.0339 5.42383L12.9652 5.35112L12.9632 5.35313L13.0339 5.42383ZM13.2886 5.33057L13.2942 5.23072L13.2939 5.23071L13.2886 5.33057ZM13.5054 5.42383L13.5761 5.35309L13.574 5.35112L13.5054 5.42383ZM14.9197 7.30957L14.9904 7.38029L14.9904 7.38028L14.9197 7.30957ZM14.0344 8.19458L13.9637 8.12386L13.9152 8.17232L13.943 8.23502L14.0344 8.19458ZM15.0105 10.3333V10.4333H15.1105V10.3333H15.0105ZM15.0105 9H15.1105V8.9H15.0105V9ZM13.6123 8.89209L13.686 8.82453L13.6858 8.82424L13.6123 8.89209ZM13.5396 8.7666L13.6349 8.73644L13.6348 8.73606L13.5396 8.7666ZM13.3362 8.28052L13.2476 8.32697L13.2476 8.32701L13.3362 8.28052ZM14.2124 7.07397L14.2831 7.14469L14.3538 7.07397L14.2831 7.00326L14.2124 7.07397ZM13.2698 6.13135L13.3405 6.06064L13.2698 5.98993L13.1991 6.06064L13.2698 6.13135ZM12.4531 6.948L12.5238 7.01879L12.5238 7.01871L12.4531 6.948ZM12.0632 7.00757L12.0167 7.09608L12.0169 7.09619L12.0632 7.00757ZM11.5767 6.8042L11.607 6.70891L11.6067 6.70882L11.5767 6.8042ZM11.3435 5.33325H11.4435V5.23325H11.3435V5.33325ZM10.0105 5.33325V5.23325H9.9105V5.33325H10.0105ZM9.89014 6.74268L9.95393 6.81969L9.95401 6.81962L9.89014 6.74268ZM9.7771 6.8042L9.7473 6.70874L9.74673 6.70892L9.7771 6.8042ZM9.49731 6.90869L9.45777 6.81684L9.45765 6.81689L9.49731 6.90869ZM9.29077 7.00757L9.33712 7.09618L9.3374 7.09603L9.29077 7.00757ZM9.02393 7.02588L9.05771 6.93176L9.05737 6.93164L9.02393 7.02588ZM8.08398 6.13135L8.1547 6.06064L8.08398 5.98993L8.01327 6.06064L8.08398 6.13135ZM7.14136 7.07397L7.07065 7.00326L6.99994 7.07397L7.07065 7.14469L7.14136 7.07397ZM8.01782 8.28052L8.10636 8.32701L8.10644 8.32684L8.01782 8.28052ZM7.81445 8.7666L7.71919 8.73619L7.71906 8.73659L7.81445 8.7666ZM6.34375 9V8.9H6.24375V9H6.34375ZM6.34375 10.3333H6.24375V10.4333H6.34375V10.3333ZM7.8147 10.5667L7.71931 10.5967L7.71939 10.5969L7.8147 10.5667ZM7.89917 10.7981L7.99162 10.76L7.99154 10.7598L7.89917 10.7981ZM8.01807 11.0525L8.10672 11.0062L8.10666 11.0061L8.01807 11.0525ZM7.9585 11.4426L8.0292 11.5133L8.02929 11.5133L7.9585 11.4426ZM7.1416 12.2593L7.0709 12.1886L7.00016 12.2593L7.0709 12.33L7.1416 12.2593ZM8.08447 13.2019L8.01377 13.2726L8.08448 13.3433L8.15518 13.2726L8.08447 13.2019ZM9.29102 12.3257L9.33761 12.2372L9.3374 12.2371L9.29102 12.3257ZM9.77734 12.5291L9.74697 12.6243L9.74749 12.6245L9.77734 12.5291ZM10.0107 12.8469L10.1107 12.847V12.8469H10.0107ZM10.0103 14L9.91025 14L9.91021 14.1H10.0103V14ZM11.3438 14V14.1H11.4437V14H11.3438ZM11.5771 12.5291L11.6072 12.6244L11.6075 12.6243L11.5771 12.5291ZM11.863 12.4216L11.8231 12.3299L11.823 12.33L11.863 12.4216ZM12.0635 12.3257L12.0172 12.2371L12.0171 12.2371L12.0635 12.3257ZM13.27 13.2019L13.1993 13.2726L13.27 13.3433L13.3407 13.2726L13.27 13.2019ZM14.2126 12.2593L14.2834 12.33L14.3541 12.2593L14.2834 12.1886L14.2126 12.2593ZM13.396 11.4426L13.3251 11.5132L13.3253 11.5133L13.396 11.4426ZM13.2991 11.2263L13.1992 11.2321L13.1992 11.2321L13.2991 11.2263ZM13.3364 11.0527L13.2479 11.0063L13.2478 11.0064L13.3364 11.0527ZM13.5398 10.5667L13.6351 10.5971L13.6351 10.5968L13.5398 10.5667ZM13.7122 10.3667L13.6686 10.2767L13.6685 10.2767L13.7122 10.3667ZM15.3438 8.23325H14.0923V8.43325H15.3438V8.23325ZM15.777 8.6665C15.777 8.42719 15.5831 8.23325 15.3438 8.23325V8.43325C15.4726 8.43325 15.577 8.53765 15.577 8.6665H15.777ZM15.777 10.6665V8.6665H15.577V10.6665H15.777ZM15.3438 11.1C15.5832 11.1 15.777 10.9057 15.777 10.6665H15.577C15.577 10.7955 15.4725 10.9 15.3438 10.9V11.1ZM14.0923 11.1H15.3438V10.9H14.0923V11.1ZM14.1258 11.179C14.147 11.1313 14.1666 11.0839 14.1852 11.0369L13.9993 10.9631C13.9814 11.0084 13.9628 11.0533 13.943 11.0978L14.1258 11.179ZM14.9904 11.9527L14.1051 11.0677L13.9637 11.2091L14.849 12.0942L14.9904 11.9527ZM14.9904 12.5656C15.1596 12.3964 15.1595 12.1222 14.9905 11.9528L14.8489 12.0941C14.9401 12.1855 14.94 12.3331 14.849 12.4242L14.9904 12.5656ZM13.5761 13.9799L14.9904 12.5656L14.849 12.4242L13.4347 13.8385L13.5761 13.9799ZM12.9653 13.9819C13.1361 14.1433 13.4032 14.1433 13.574 13.9819L13.4367 13.8365C13.3429 13.9251 13.1964 13.9251 13.1026 13.8365L12.9653 13.9819ZM12.0782 13.0946L12.9632 13.9799L13.1047 13.8385L12.2196 12.9532L12.0782 13.0946ZM12.0482 13.1749C12.0949 13.1559 12.1419 13.1362 12.1891 13.1155L12.1087 12.9324C12.0636 12.9522 12.0184 12.9711 11.9728 12.9897L12.0482 13.1749ZM12.1105 14.3333V13.0823H11.9105V14.3333H12.1105ZM11.677 14.7665C11.9162 14.7665 12.1105 14.5727 12.1105 14.3333H11.9105C11.9105 14.462 11.806 14.5665 11.677 14.5665V14.7665ZM9.677 14.7665H11.677V14.5665H9.677V14.7665ZM9.24375 14.3333C9.24375 14.5726 9.43769 14.7665 9.677 14.7665V14.5665C9.54815 14.5665 9.44375 14.4621 9.44375 14.3333H9.24375ZM9.24375 13.0823V14.3333H9.44375V13.0823H9.24375ZM9.16505 13.1156C9.21229 13.1362 9.25901 13.1558 9.30619 13.175L9.38131 12.9896C9.33572 12.9711 9.29064 12.9522 9.24511 12.9323L9.16505 13.1156ZM8.39079 13.9799L9.2758 13.0946L9.13436 12.9532L8.24935 13.8385L8.39079 13.9799ZM7.77996 13.9819C7.95083 14.1433 8.21787 14.1433 8.38874 13.9819L8.2514 13.8365C8.15762 13.9251 8.01109 13.9251 7.9173 13.8365L7.77996 13.9819ZM6.36362 12.5656L7.77792 13.9799L7.91934 13.8385L6.50504 12.4242L6.36362 12.5656ZM6.36355 11.9528C6.19449 12.1222 6.1944 12.3964 6.36362 12.5656L6.50504 12.4242C6.414 12.3331 6.4139 12.1855 6.5051 12.0941L6.36355 11.9528ZM7.24888 11.0677L6.36363 11.9527L6.50503 12.0942L7.39028 11.2091L7.24888 11.0677ZM7.16877 11.0369C7.18741 11.0839 7.20698 11.1313 7.2282 11.179L7.41096 11.0978C7.39116 11.0533 7.37265 11.0084 7.35467 10.9631L7.16877 11.0369ZM6.01025 11.1H7.26172V10.9H6.01025V11.1ZM5.6552 10.9151C5.73335 11.0265 5.86313 11.1 6.01025 11.1V10.9C5.9313 10.9 5.86137 10.8607 5.81892 10.8002L5.6552 10.9151ZM5.577 10.6665C5.577 10.7587 5.60591 10.8445 5.65507 10.9149L5.81905 10.8004C5.79253 10.7624 5.777 10.7164 5.777 10.6665H5.577ZM5.577 8.6665V10.6665H5.777V8.6665H5.577ZM6.01025 8.23325C5.77094 8.23325 5.577 8.42719 5.577 8.6665H5.777C5.777 8.53765 5.8814 8.43325 6.01025 8.43325V8.23325ZM7.26172 8.23325H6.01025V8.43325H7.26172V8.23325ZM7.22812 8.15415C7.207 8.20192 7.18744 8.24907 7.1687 8.29654L7.35473 8.36997C7.37262 8.32466 7.39114 8.28002 7.41104 8.23502L7.22812 8.15415ZM6.36363 7.38029L7.24888 8.2653L7.39028 8.12386L6.50503 7.23885L6.36363 7.38029ZM6.24425 7.15395C6.25978 7.23667 6.29949 7.31616 6.36362 7.38028L6.50504 7.23886C6.47053 7.20435 6.44921 7.16177 6.44081 7.11705L6.24425 7.15395ZM6.36362 6.76742C6.25842 6.87262 6.21892 7.01845 6.24423 7.15387L6.44083 7.11712C6.42708 7.04356 6.44861 6.96527 6.50504 6.90885L6.36362 6.76742ZM7.77792 5.35312L6.36362 6.76742L6.50504 6.90885L7.91934 5.49454L7.77792 5.35312ZM8.03982 5.23229C7.94549 5.24175 7.85363 5.28156 7.77997 5.35113L7.9173 5.49653C7.95789 5.45819 8.00812 5.43647 8.05979 5.43129L8.03982 5.23229ZM8.38874 5.35114C8.2917 5.25945 8.16353 5.21969 8.03968 5.2323L8.05993 5.43127C8.12797 5.42435 8.19805 5.44611 8.25139 5.49652L8.38874 5.35114ZM9.2758 6.23838L8.39079 5.35313L8.24935 5.49453L9.13436 6.37978L9.2758 6.23838ZM9.24566 6.18279L9.16558 6.21721L9.24457 6.40095L9.32465 6.36653L9.24566 6.18279ZM9.30595 6.15815L9.24735 6.18208L9.32296 6.36724L9.38155 6.34331L9.30595 6.15815ZM9.24375 4.99976V6.25073H9.44375V4.99976H9.24375ZM9.677 4.5665C9.43769 4.5665 9.24375 4.76045 9.24375 4.99976H9.44375C9.44375 4.8709 9.54815 4.7665 9.677 4.7665V4.5665ZM11.677 4.5665H9.677V4.7665H11.677V4.5665ZM12.1105 4.99976C12.1105 4.76035 11.9162 4.5665 11.677 4.5665V4.7665C11.806 4.7665 11.9105 4.871 11.9105 4.99976H12.1105ZM12.1105 6.25073V4.99976H11.9105V6.25073H12.1105ZM12.1891 6.21752C12.1419 6.19679 12.0949 6.17714 12.0482 6.15812L11.9728 6.34334C12.0184 6.36192 12.0636 6.38085 12.1087 6.40064L12.1891 6.21752ZM12.9632 5.35313L12.0782 6.23838L12.2196 6.37978L13.1047 5.49453L12.9632 5.35313ZM13.2939 5.23071C13.1767 5.22442 13.0571 5.2644 12.9653 5.35115L13.1026 5.49651C13.1529 5.44898 13.2183 5.42694 13.2832 5.43042L13.2939 5.23071ZM13.574 5.35112C13.4949 5.27644 13.3952 5.23639 13.2942 5.23072L13.283 5.43041C13.3387 5.43353 13.3933 5.4555 13.4367 5.49654L13.574 5.35112ZM14.9904 6.76742L13.5761 5.35312L13.4347 5.49454L14.849 6.90885L14.9904 6.76742ZM14.9904 7.38028C15.1596 7.2111 15.1596 6.9366 14.9904 6.76742L14.849 6.90885C14.94 6.99992 14.94 7.14779 14.849 7.23886L14.9904 7.38028ZM14.1051 8.2653L14.9904 7.38029L14.849 7.23885L13.9637 8.12386L14.1051 8.2653ZM14.1853 8.29654C14.1666 8.24907 14.147 8.20192 14.1259 8.15415L13.943 8.23502C13.9629 8.28002 13.9814 8.32466 13.9993 8.36997L14.1853 8.29654ZM15.0105 10.2333H13.8577V10.4333H15.0105V10.2333ZM14.9105 9V10.3333H15.1105V9H14.9105ZM13.8574 9.1H15.0105V8.9H13.8574V9.1ZM13.5386 8.95965C13.6185 9.0469 13.7332 9.1 13.8574 9.1V8.9C13.7907 8.9 13.7291 8.87155 13.686 8.82453L13.5386 8.95965ZM13.4442 8.79676C13.4638 8.85885 13.4966 8.91415 13.5388 8.95994L13.6858 8.82424C13.6631 8.79972 13.6455 8.77006 13.6349 8.73644L13.4442 8.79676ZM13.2476 8.32701C13.3267 8.47754 13.3923 8.63503 13.4443 8.79714L13.6348 8.73606C13.5793 8.56321 13.5093 8.39502 13.4247 8.23403L13.2476 8.32701ZM13.325 7.81991C13.1911 7.95382 13.1596 8.15923 13.2476 8.32697L13.4247 8.23406C13.3775 8.14399 13.3943 8.03348 13.4665 7.96134L13.325 7.81991ZM14.1417 7.00326L13.325 7.81991L13.4665 7.96134L14.2831 7.14469L14.1417 7.00326ZM13.1991 6.20206L14.1417 7.14469L14.2831 7.00326L13.3405 6.06064L13.1991 6.20206ZM12.5238 7.01871L13.3405 6.20206L13.1991 6.06064L12.3824 6.87729L12.5238 7.01871ZM12.0169 7.09619C12.1846 7.18383 12.3899 7.15237 12.5238 7.01879L12.3825 6.8772C12.3103 6.9492 12.1997 6.96607 12.1096 6.91895L12.0169 7.09619ZM11.5463 6.89949C11.7088 6.95119 11.8659 7.0168 12.0167 7.09608L12.1098 6.91906C11.9485 6.83427 11.7805 6.76414 11.607 6.70891L11.5463 6.89949ZM11.2435 6.48633C11.2435 6.67553 11.3663 6.84277 11.5466 6.89958L11.6067 6.70882C11.5096 6.67823 11.4435 6.58814 11.4435 6.48633H11.2435ZM11.2435 5.33325V6.48633H11.4435V5.33325H11.2435ZM10.0105 5.43325H11.3435V5.23325H10.0105V5.43325ZM10.1105 6.48633V5.33325H9.9105V6.48633H10.1105ZM9.95401 6.81962C10.0511 6.73905 10.1105 6.61807 10.1105 6.48633H9.9105C9.9105 6.55723 9.87861 6.62228 9.82627 6.66573L9.95401 6.81962ZM9.8069 6.89966C9.86205 6.88244 9.9116 6.85475 9.95393 6.81969L9.82634 6.66567C9.80324 6.6848 9.77662 6.69959 9.7473 6.70874L9.8069 6.89966ZM9.53685 7.00054C9.62515 6.96253 9.71559 6.92876 9.80747 6.89948L9.74673 6.70892C9.64866 6.74018 9.5521 6.77624 9.45777 6.81684L9.53685 7.00054ZM9.3374 7.09603C9.40275 7.06159 9.46928 7.02974 9.53698 7.00049L9.45765 6.81689C9.38522 6.84819 9.31405 6.88226 9.24414 6.9191L9.3374 7.09603ZM8.99014 7.12C9.10146 7.15996 9.22725 7.15366 9.33712 7.09618L9.24442 6.91896C9.18535 6.94986 9.11778 6.95332 9.05771 6.93176L8.99014 7.12ZM8.82992 7.01871C8.8763 7.06508 8.93134 7.09914 8.99048 7.12012L9.05737 6.93164C9.02569 6.9204 8.99626 6.9022 8.97135 6.87729L8.82992 7.01871ZM8.01327 6.20206L8.82992 7.01871L8.97135 6.87729L8.1547 6.06064L8.01327 6.20206ZM7.21207 7.14469L8.1547 6.20206L8.01327 6.06064L7.07065 7.00326L7.21207 7.14469ZM8.02872 7.81991L7.21207 7.00326L7.07065 7.14469L7.8873 7.96134L8.02872 7.81991ZM8.10644 8.32684C8.19409 8.15917 8.16262 7.95382 8.02872 7.81991L7.8873 7.96134C7.95945 8.03349 7.97632 8.14406 7.9292 8.23419L8.10644 8.32684ZM7.90972 8.79701C7.96141 8.63507 8.02728 8.47761 8.10636 8.32701L7.92929 8.23403C7.84479 8.39495 7.77443 8.56317 7.71919 8.73619L7.90972 8.79701ZM7.49634 9.1C7.68577 9.1 7.85304 8.97717 7.90984 8.79661L7.71906 8.73659C7.68846 8.83387 7.59841 8.9 7.49634 8.9V9.1ZM6.34375 9.1H7.49634V8.9H6.34375V9.1ZM6.44375 10.3333V9H6.24375V10.3333H6.44375ZM7.49658 10.2333H6.34375V10.4333H7.49658V10.2333ZM7.91009 10.5366C7.85329 10.3561 7.68602 10.2333 7.49658 10.2333V10.4333C7.59865 10.4333 7.6887 10.4994 7.71931 10.5967L7.91009 10.5366ZM7.99154 10.7598C7.96117 10.6866 7.93407 10.6121 7.91 10.5364L7.71939 10.5969C7.74513 10.6779 7.77418 10.7578 7.8068 10.8364L7.99154 10.7598ZM8.10666 11.0061C8.06457 10.9257 8.02607 10.8435 7.99162 10.76L7.80672 10.8362C7.84356 10.9255 7.88465 11.0133 7.92947 11.0989L8.10666 11.0061ZM8.02929 11.5133C8.1629 11.3793 8.19429 11.1741 8.10672 11.0062L7.92941 11.0987C7.97661 11.1892 7.95966 11.2999 7.8877 11.372L8.02929 11.5133ZM7.2123 12.33L8.0292 11.5133L7.8878 11.3719L7.0709 12.1886L7.2123 12.33ZM8.15517 13.1312L7.2123 12.1886L7.0709 12.33L8.01377 13.2726L8.15517 13.1312ZM8.83041 12.3145L8.01376 13.1312L8.15518 13.2726L8.97183 12.456L8.83041 12.3145ZM9.3374 12.2371C9.16948 12.1492 8.96434 12.1806 8.83041 12.3145L8.97183 12.456C9.04396 12.3838 9.15425 12.367 9.24463 12.4143L9.3374 12.2371ZM9.80772 12.4338C9.64548 12.3821 9.48807 12.3164 9.33761 12.2372L9.24442 12.4142C9.40548 12.499 9.57376 12.5691 9.74697 12.6243L9.80772 12.4338ZM10.1107 12.8469C10.1107 12.6578 9.98796 12.4902 9.8072 12.4336L9.74749 12.6245C9.84456 12.6549 9.91074 12.745 9.91074 12.8469H10.1107ZM10.1103 14L10.1107 12.847L9.91074 12.8469L9.91025 14L10.1103 14ZM11.3438 13.9H10.0103V14.1H11.3438V13.9ZM11.2438 12.8469V14H11.4437V12.8469H11.2438ZM11.5471 12.4337C11.3666 12.4904 11.2438 12.6577 11.2438 12.8469H11.4437C11.4437 12.7451 11.5098 12.6551 11.6072 12.6244L11.5471 12.4337ZM11.823 12.33C11.7331 12.3693 11.6408 12.4038 11.5467 12.4338L11.6075 12.6243C11.7078 12.5923 11.8065 12.5555 11.9031 12.5133L11.823 12.33ZM12.0171 12.2371C11.9535 12.2704 11.8888 12.3013 11.8231 12.3299L11.9029 12.5133C11.973 12.4828 12.0421 12.4498 12.1099 12.4143L12.0171 12.2371ZM12.5241 12.3145C12.3901 12.1805 12.1847 12.1495 12.0172 12.2371L12.1098 12.4143C12.2001 12.3671 12.3106 12.3839 12.3827 12.456L12.5241 12.3145ZM13.3407 13.1312L12.5241 12.3145L12.3827 12.456L13.1993 13.2726L13.3407 13.1312ZM14.1419 12.1886L13.1993 13.1312L13.3407 13.2726L14.2834 12.33L14.1419 12.1886ZM13.3253 11.5133L14.1419 12.33L14.2834 12.1886L13.4667 11.3719L13.3253 11.5133ZM13.1992 11.2321C13.2053 11.3356 13.2484 11.4362 13.3251 11.5132L13.4669 11.3721C13.4254 11.3304 13.4022 11.2762 13.3989 11.2205L13.1992 11.2321ZM13.2478 11.0064C13.2107 11.0775 13.1948 11.1556 13.1992 11.2321L13.3989 11.2205C13.3965 11.1794 13.405 11.1374 13.4251 11.099L13.2478 11.0064ZM13.4445 10.5362C13.3928 10.6981 13.327 10.8554 13.2479 11.0063L13.425 11.0992C13.5094 10.9381 13.5798 10.7701 13.6351 10.5971L13.4445 10.5362ZM13.6685 10.2767C13.5636 10.3276 13.4812 10.4203 13.4444 10.5365L13.6351 10.5968C13.6551 10.5338 13.6996 10.4839 13.7558 10.4567L13.6685 10.2767ZM13.8577 10.2333C13.7906 10.2333 13.7262 10.2488 13.6686 10.2767L13.7557 10.4567C13.787 10.4416 13.8217 10.4333 13.8577 10.4333V10.2333Z" fill="#0C49CD"/>
<path fill-rule="evenodd" clip-rule="evenodd" d="M9.0105 9.66675C9.0105 8.74609 9.75659 8 10.6772 8C11.5977 8 12.3438 8.74609 12.3438 9.66675C12.3428 10.5867 11.5972 11.3323 10.6772 11.3333C9.75659 11.3333 9.0105 10.5872 9.0105 9.66675ZM9.67725 9.66675C9.67725 10.219 10.125 10.6667 10.6772 10.6667C11.2295 10.6667 11.6772 10.219 11.6772 9.66675C11.6772 9.1145 11.2295 8.66675 10.6772 8.66675C10.125 8.66675 9.67725 9.1145 9.67725 9.66675Z" fill="#0C49CD"/>
<path d="M12.3438 9.66675L12.4437 9.66685V9.66675H12.3438ZM10.6772 11.3333V11.4333L10.6774 11.4333L10.6772 11.3333ZM10.6772 7.9C9.70136 7.9 8.9105 8.69087 8.9105 9.66675H9.1105C9.1105 8.80132 9.81182 8.1 10.6772 8.1V7.9ZM12.4437 9.66675C12.4437 8.69087 11.6529 7.9 10.6772 7.9V8.1C11.5424 8.1 12.2438 8.80131 12.2438 9.66675H12.4437ZM10.6774 11.4333C11.6524 11.4322 12.4427 10.6419 12.4437 9.66685L12.2438 9.66664C12.2428 10.5314 11.5419 11.2323 10.6771 11.2333L10.6774 11.4333ZM8.9105 9.66675C8.9105 10.6424 9.70137 11.4333 10.6772 11.4333V11.2333C9.81181 11.2333 9.1105 10.5319 9.1105 9.66675H8.9105ZM10.6772 10.5667C10.1802 10.5667 9.77725 10.1638 9.77725 9.66675H9.57725C9.57725 10.2742 10.0698 10.7667 10.6772 10.7667V10.5667ZM11.5772 9.66675C11.5772 10.1638 11.1743 10.5667 10.6772 10.5667V10.7667C11.2847 10.7667 11.7772 10.2742 11.7772 9.66675H11.5772ZM10.6772 8.76675C11.1743 8.76675 11.5772 9.16973 11.5772 9.66675H11.7772C11.7772 9.05927 11.2847 8.56675 10.6772 8.56675V8.76675ZM9.77725 9.66675C9.77725 9.16973 10.1802 8.76675 10.6772 8.76675V8.56675C10.0698 8.56675 9.57725 9.05927 9.57725 9.66675H9.77725Z" fill="#0C49CD"/>
</svg>
