<svg width="17" height="18" viewBox="0 0 17 18" fill="none" xmlns="http://www.w3.org/2000/svg">
<path fill-rule="evenodd" clip-rule="evenodd" d="M9.49194 8.98438L14.6777 14.1599C14.7627 14.2449 14.7922 14.3643 14.7661 14.4731C14.7524 14.5308 14.7229 14.5854 14.6777 14.6304C13.1807 16.1326 11.1436 16.9746 9.02075 16.9688C4.60254 16.9688 1.02075 13.3938 1.021 8.98413C1.02124 4.57446 4.60303 0.999756 9.02124 1C11.1428 1 13.1775 1.84131 14.6777 3.33838C14.8079 3.46826 14.8079 3.67896 14.6777 3.80884L9.49194 8.98438ZM1.68799 8.98486C1.68823 13.0271 4.97168 16.3037 9.02173 16.3035C10.8511 16.3032 12.6145 15.6208 13.9656 14.3899L8.78516 9.21948C8.65503 9.0896 8.65503 8.87915 8.78516 8.74927L13.9656 3.57886C12.6169 2.34326 10.8516 1.66016 9.02075 1.66528C4.9707 1.66553 1.68774 4.94263 1.68799 8.98486Z" fill="#0C49CD"/>
<path d="M14.6777 14.1599L14.7484 14.0892L14.7484 14.0891L14.6777 14.1599ZM9.49194 8.98438L9.4213 8.91359L9.35038 8.98438L9.4213 9.05516L9.49194 8.98438ZM14.7661 14.4731L14.6689 14.4498L14.6688 14.4501L14.7661 14.4731ZM14.6777 14.6304L14.6072 14.5595L14.6069 14.5598L14.6777 14.6304ZM9.02075 16.9688L9.02103 16.8687H9.02075V16.9688ZM9.02124 1L9.02123 1.1H9.02124V1ZM14.6777 3.33838L14.7484 3.2676L14.7484 3.26759L14.6777 3.33838ZM14.6777 3.80884L14.7484 3.87962L14.7484 3.87961L14.6777 3.80884ZM9.02173 16.3035L9.02173 16.4035H9.02174L9.02173 16.3035ZM13.9656 14.3899L14.0329 14.4638L14.1104 14.3932L14.0362 14.3191L13.9656 14.3899ZM8.78516 9.21948L8.71451 9.29026L8.71451 9.29026L8.78516 9.21948ZM8.78516 8.74927L8.71451 8.67849L8.71451 8.67849L8.78516 8.74927ZM13.9656 3.57886L14.0362 3.64964L14.1102 3.57577L14.0331 3.50512L13.9656 3.57886ZM9.02075 1.66528L9.02076 1.76528L9.02103 1.76528L9.02075 1.66528ZM14.7484 14.0891L9.56258 8.91359L9.4213 9.05516L14.6071 14.2307L14.7484 14.0891ZM14.8634 14.4965C14.8973 14.3551 14.859 14.1997 14.7484 14.0892L14.607 14.2306C14.6664 14.29 14.6872 14.3734 14.6689 14.4498L14.8634 14.4965ZM14.7483 14.7013C14.8069 14.6429 14.8455 14.5716 14.8634 14.4962L14.6688 14.4501C14.6594 14.4899 14.6389 14.5279 14.6072 14.5595L14.7483 14.7013ZM9.02048 17.0688C11.1699 17.0747 13.2326 16.2221 14.7486 14.701L14.6069 14.5598C13.1287 16.0431 11.1172 16.8745 9.02103 16.8688L9.02048 17.0688ZM0.920996 8.98413C0.920749 13.4492 4.54749 17.0688 9.02075 17.0688V16.8687C4.65759 16.8687 1.12076 13.3384 1.121 8.98414L0.920996 8.98413ZM9.02125 0.9C4.54798 0.899753 0.921243 4.51905 0.920996 8.98413L1.121 8.98414C1.12124 4.62988 4.65807 1.09976 9.02123 1.1L9.02125 0.9ZM14.7484 3.26759C13.2294 1.7518 11.1693 0.9 9.02124 0.9V1.1C11.1164 1.1 13.1256 1.93082 14.6071 3.40916L14.7484 3.26759ZM14.7484 3.87961C14.9176 3.71066 14.9176 3.43655 14.7484 3.2676L14.6071 3.40916C14.6981 3.49997 14.6981 3.64725 14.6071 3.73806L14.7484 3.87961ZM9.56258 9.05516L14.7484 3.87962L14.6071 3.73806L9.4213 8.91359L9.56258 9.05516ZM9.02172 16.2035C5.02672 16.2037 1.78823 12.9717 1.78799 8.98486L1.58799 8.98487C1.58824 13.0825 4.91664 16.4037 9.02173 16.4035L9.02172 16.2035ZM13.8982 14.316C12.5656 15.5301 10.8262 16.2032 9.02172 16.2035L9.02174 16.4035C10.876 16.4032 12.6634 15.7116 14.0329 14.4638L13.8982 14.316ZM8.71451 9.29026L13.8949 14.4607L14.0362 14.3191L8.8558 9.1487L8.71451 9.29026ZM8.71451 8.67849C8.54524 8.84744 8.54524 9.12131 8.71451 9.29026L8.8558 9.14871C8.76481 9.05789 8.76481 8.91086 8.8558 8.82004L8.71451 8.67849ZM13.8949 3.50808L8.71451 8.67849L8.8558 8.82005L14.0362 3.64964L13.8949 3.50808ZM9.02103 1.76528C10.8268 1.76023 12.5679 2.43398 13.898 3.65259L14.0331 3.50512C12.666 2.25255 10.8764 1.56009 9.02047 1.56528L9.02103 1.76528ZM1.78799 8.98486C1.78775 4.99803 5.02576 1.76552 9.02076 1.76528L9.02075 1.56528C4.91565 1.56553 1.58774 4.88722 1.58799 8.98487L1.78799 8.98486Z" fill="#0C49CD"/>
<path fill-rule="evenodd" clip-rule="evenodd" d="M7.02075 4.65967C7.02075 3.92456 7.61768 3.32886 8.354 3.32886C9.09058 3.32886 9.6875 3.92456 9.6875 4.65967C9.6875 5.39453 9.09058 5.99023 8.354 5.99023C7.61768 5.99023 7.02075 5.39453 7.02075 4.65967ZM7.6875 4.65942C7.6875 5.02686 7.98608 5.32495 8.35425 5.32495C8.72241 5.32495 9.02075 5.02686 9.02075 4.65942C9.02075 4.29199 8.72241 3.99414 8.35425 3.99414C7.98608 3.99414 7.6875 4.29199 7.6875 4.65942Z" fill="#0C49CD"/>
<path d="M8.354 3.22886C7.56263 3.22886 6.92075 3.86915 6.92075 4.65967H7.12075C7.12075 3.97997 7.67273 3.42886 8.354 3.42886V3.22886ZM9.7875 4.65967C9.7875 3.86914 9.14561 3.22886 8.354 3.22886V3.42886C9.03554 3.42886 9.5875 3.97998 9.5875 4.65967H9.7875ZM8.354 6.09023C9.1456 6.09023 9.7875 5.44996 9.7875 4.65967H9.5875C9.5875 5.3391 9.03555 5.89023 8.354 5.89023V6.09023ZM6.92075 4.65967C6.92075 5.44995 7.56264 6.09023 8.354 6.09023V5.89023C7.67271 5.89023 7.12075 5.33911 7.12075 4.65967H6.92075ZM8.35425 5.22495C8.04115 5.22495 7.7875 4.97146 7.7875 4.65942H7.5875C7.5875 5.08225 7.93102 5.42495 8.35425 5.42495V5.22495ZM8.92075 4.65942C8.92075 4.97151 8.6673 5.22495 8.35425 5.22495V5.42495C8.77752 5.42495 9.12075 5.0822 9.12075 4.65942H8.92075ZM8.35425 4.09414C8.66735 4.09414 8.92075 4.34739 8.92075 4.65942H9.12075C9.12075 4.2366 8.77747 3.89414 8.35425 3.89414V4.09414ZM7.7875 4.65942C7.7875 4.34744 8.0411 4.09414 8.35425 4.09414V3.89414C7.93107 3.89414 7.5875 4.23655 7.5875 4.65942H7.7875Z" fill="#0C49CD"/>
<path fill-rule="evenodd" clip-rule="evenodd" d="M14.354 8.98438C14.354 8.43311 14.8018 7.98633 15.354 7.98633C15.9062 7.98633 16.354 8.43311 16.354 8.98438C16.354 9.53564 15.9062 9.98242 15.354 9.98242C14.8018 9.98242 14.354 9.53564 14.354 8.98438ZM15.0208 8.98438C15.0208 9.16797 15.1699 9.31689 15.354 9.31689C15.5381 9.31689 15.6875 9.16797 15.6875 8.98438C15.6875 8.80054 15.5381 8.65161 15.354 8.65161C15.1699 8.65161 15.0208 8.80054 15.0208 8.98438Z" fill="#0C49CD"/>
<path d="M15.354 7.88633C14.7467 7.88633 14.254 8.37769 14.254 8.98438H14.454C14.454 8.48852 14.8568 8.08633 15.354 8.08633V7.88633ZM16.454 8.98438C16.454 8.37769 15.9613 7.88633 15.354 7.88633V8.08633C15.8512 8.08633 16.254 8.48852 16.254 8.98438H16.454ZM15.354 10.0824C15.9613 10.0824 16.454 9.59106 16.454 8.98438H16.254C16.254 9.48023 15.8512 9.88242 15.354 9.88242V10.0824ZM14.254 8.98438C14.254 9.59106 14.7467 10.0824 15.354 10.0824V9.88242C14.8568 9.88242 14.454 9.48023 14.454 8.98438H14.254ZM15.354 9.21689C15.225 9.21689 15.1208 9.11255 15.1208 8.98438H14.9208C14.9208 9.22339 15.1149 9.41689 15.354 9.41689V9.21689ZM15.5875 8.98438C15.5875 9.11245 15.4831 9.21689 15.354 9.21689V9.41689C15.593 9.41689 15.7875 9.22348 15.7875 8.98438H15.5875ZM15.354 8.75161C15.4831 8.75161 15.5875 8.856 15.5875 8.98438H15.7875C15.7875 8.74507 15.5931 8.55161 15.354 8.55161V8.75161ZM15.1208 8.98438C15.1208 8.85591 15.225 8.75161 15.354 8.75161V8.55161C15.1148 8.55161 14.9208 8.74517 14.9208 8.98438H15.1208Z" fill="#0C49CD"/>
<path fill-rule="evenodd" clip-rule="evenodd" d="M11.6873 8.98438C11.6873 8.43311 12.135 7.98633 12.6873 7.98633C13.2395 7.98633 13.6873 8.43311 13.6873 8.98438C13.6873 9.53564 13.2395 9.98242 12.6873 9.98242C12.135 9.98242 11.6873 9.53564 11.6873 8.98438ZM12.354 8.98438C12.354 9.16797 12.5032 9.31689 12.6873 9.31689C12.8713 9.31689 13.0208 9.16797 13.0208 8.98438C13.0208 8.86084 12.9534 8.75317 12.8533 8.6958C12.8042 8.66772 12.7476 8.65161 12.6873 8.65161C12.5032 8.65161 12.354 8.80054 12.354 8.98438Z" fill="#0C49CD"/>
<path d="M12.8533 8.6958L12.903 8.60904L12.9029 8.609L12.8533 8.6958ZM12.6873 7.88633C12.08 7.88633 11.5873 8.37769 11.5873 8.98438H11.7873C11.7873 8.48852 12.19 8.08633 12.6873 8.08633V7.88633ZM13.7873 8.98438C13.7873 8.37769 13.2945 7.88633 12.6873 7.88633V8.08633C13.1845 8.08633 13.5873 8.48852 13.5873 8.98438H13.7873ZM12.6873 10.0824C13.2945 10.0824 13.7873 9.59106 13.7873 8.98438H13.5873C13.5873 9.48023 13.1845 9.88242 12.6873 9.88242V10.0824ZM11.5873 8.98438C11.5873 9.59106 12.08 10.0824 12.6873 10.0824V9.88242C12.19 9.88242 11.7873 9.48023 11.7873 8.98438H11.5873ZM12.6873 9.21689C12.5582 9.21689 12.454 9.11255 12.454 8.98438H12.254C12.254 9.22339 12.4481 9.41689 12.6873 9.41689V9.21689ZM12.9208 8.98438C12.9208 9.11245 12.8164 9.21689 12.6873 9.21689V9.41689C12.9263 9.41689 13.1208 9.22348 13.1208 8.98438H12.9208ZM12.8035 8.78256C12.8739 8.82288 12.9208 8.89819 12.9208 8.98438H13.1208C13.1208 8.82349 13.0329 8.68347 12.903 8.60904L12.8035 8.78256ZM12.6873 8.75161C12.7295 8.75161 12.7691 8.76285 12.8036 8.7826L12.9029 8.609C12.8393 8.5726 12.7656 8.55161 12.6873 8.55161V8.75161ZM12.454 8.98438C12.454 8.85591 12.5583 8.75161 12.6873 8.75161V8.55161C12.4481 8.55161 12.254 8.74517 12.254 8.98438H12.454Z" fill="#0C49CD"/>
</svg>
