<svg width="24" height="24" viewBox="0 0 24 24" fill="none" xmlns="http://www.w3.org/2000/svg">
<path fill-rule="evenodd" clip-rule="evenodd" d="M22.5469 22.5937H23.2969C23.6852 22.5937 24 22.9086 24 23.2969C24 23.6852 23.6852 24 23.2969 24H0.703125C0.314819 24 0 23.6852 0 23.2969C0 22.9086 0.314819 22.5938 0.703125 22.5938H1.45312V0.703644C1.45312 0.213104 1.94397 -0.126862 2.4032 0.0452881L13.6531 4.26395C13.9276 4.36682 14.1094 4.62918 14.1094 4.9223V7.32169L22.066 9.97388C22.3531 10.0696 22.5469 10.3382 22.5469 10.6409V22.5937ZM5.67188 22.5937H7.07812V19.7812H5.67188V22.5937ZM9.89062 22.5937H8.48438V19.7812H9.89062V22.5937ZM12.7031 22.5937V7.82846V5.40955L2.85938 1.71823V22.5937H4.26562V19.0782C4.26562 18.6899 4.58044 18.3751 4.96875 18.3751H10.5938C10.9821 18.3751 11.2969 18.6899 11.2969 19.0782V22.5937H12.7031ZM18.3281 22.5937H16.9219V19.7812H18.3281V22.5937ZM19.7344 22.5937H21.1406V11.1476L14.1094 8.80396V22.5937H15.5156V19.0782C15.5156 18.6898 15.8304 18.3751 16.2188 18.3751H19.0312C19.4196 18.3751 19.7344 18.6898 19.7344 19.0782V22.5937Z" fill="#0C49CD"/>
<path d="M6.24999 15H4.75001C4.33581 15 4 15.2239 4 15.5C4 15.7761 4.33576 16 4.75001 16H6.24999C6.66419 16 7 15.7761 7 15.5C7 15.2239 6.66419 15 6.24999 15Z" fill="#0C49CD"/>
<path d="M11.25 15H9.75001C9.33581 15 9 15.2239 9 15.5C9 15.7761 9.33576 16 9.75001 16H11.25C11.6642 16 12 15.7761 12 15.5C12 15.2239 11.6642 15 11.25 15Z" fill="#0C49CD"/>
<path d="M6.24999 13H4.75001C4.33581 13 4 13.2239 4 13.5C4 13.7761 4.33576 14 4.75001 14H6.24999C6.66419 14 7 13.7761 7 13.5C7 13.2239 6.66419 13 6.24999 13Z" fill="#0C49CD"/>
<path d="M11.25 13H9.75001C9.33581 13 9 13.2239 9 13.5C9 13.7761 9.33576 14 9.75001 14H11.25C11.6642 14 12 13.7761 12 13.5C12 13.2239 11.6642 13 11.25 13Z" fill="#0C49CD"/>
<path d="M18.3333 15H15.6667C15.2985 15 15 15.2239 15 15.5C15 15.7761 15.2984 16 15.6667 16H18.3333C18.7015 16 19 15.7761 19 15.5C19 15.2239 18.7015 15 18.3333 15Z" fill="#0C49CD"/>
<path d="M18.3333 13H15.6667C15.2985 13 15 13.2239 15 13.5C15 13.7761 15.2984 14 15.6667 14H18.3333C18.7015 14 19 13.7761 19 13.5C19 13.2239 18.7015 13 18.3333 13Z" fill="#0C49CD"/>
<path d="M6.24999 11H4.75001C4.33581 11 4 11.2239 4 11.5C4 11.7761 4.33576 12 4.75001 12H6.24999C6.66419 12 7 11.7761 7 11.5C6.99995 11.2239 6.66419 11 6.24999 11Z" fill="#0C49CD"/>
<path d="M11.25 11H9.75001C9.33581 11 9 11.2239 9 11.5C9 11.7761 9.33576 12 9.75001 12H11.25C11.6642 12 12 11.7761 12 11.5C12 11.2239 11.6642 11 11.25 11Z" fill="#0C49CD"/>
<path d="M6.24999 9H4.75001C4.33581 9 4 9.22387 4 9.5C4 9.77613 4.33576 10 4.75001 10H6.24999C6.66419 10 7 9.77613 7 9.5C6.99995 9.22387 6.66419 9 6.24999 9Z" fill="#0C49CD"/>
<path d="M11.25 9H9.75001C9.33581 9 9 9.22387 9 9.5C9 9.77613 9.33576 10 9.75001 10H11.25C11.6642 10 12 9.77613 12 9.5C12 9.22387 11.6642 9 11.25 9Z" fill="#0C49CD"/>
<path d="M6.24999 7H4.75001C4.33581 7 4 7.22387 4 7.5C4 7.77613 4.33576 8 4.75001 8H6.24999C6.66419 8 7 7.77613 7 7.5C6.99995 7.22387 6.66419 7 6.24999 7Z" fill="#0C49CD"/>
<path d="M11.25 7H9.75001C9.33581 7 9 7.22387 9 7.5C9 7.77613 9.33576 8 9.75001 8H11.25C11.6642 8 12 7.77613 12 7.5C12 7.22387 11.6642 7 11.25 7Z" fill="#0C49CD"/>
</svg>
