<svg width="18" height="18" viewBox="0 0 18 18" fill="none" xmlns="http://www.w3.org/2000/svg">
<path d="M8.98483 1.00042H7.65408C4.89934 1.00354 2.66695 3.23593 2.66383 5.99068V6.54993L1.04168 9.4895C1.01467 9.53875 1.00048 9.59402 1.00042 9.65019C0.99986 9.66909 0.99986 9.68802 1.00042 9.70692C1.01608 10.2425 1.46292 10.6639 1.99847 10.6482C2.24044 10.6617 2.47255 10.7486 2.66383 10.8974V11.979C2.66308 12.0044 2.66308 12.0298 2.66383 12.0553C2.68491 12.7691 3.28069 13.3308 3.99457 13.3097H5.99067C6.00957 13.3103 6.02851 13.3103 6.04741 13.3097C6.58296 13.294 7.00441 12.8472 6.98873 12.3116V10.3155H6.32337V12.3116C6.3253 12.3314 6.3253 12.3513 6.32337 12.3711C6.30693 12.5385 6.158 12.6607 5.99067 12.6443H3.99457C3.96803 12.646 3.9414 12.646 3.91485 12.6443C3.5694 12.6223 3.3072 12.3244 3.32922 11.979V10.7387C3.32925 10.6435 3.28842 10.5527 3.21709 10.4896C2.88343 10.1821 2.45174 10.0027 1.99847 9.98291C1.99701 9.9831 1.99551 9.98325 1.99404 9.98341C1.83364 10.0004 1.68979 9.88417 1.67276 9.72373L3.28795 6.7961C3.31496 6.74686 3.32915 6.69159 3.32922 6.63542V5.99068C3.33196 3.60325 5.26668 1.66853 7.65411 1.66578H8.98087C9.00111 1.66363 9.02154 1.6635 9.04181 1.66541C9.20992 1.68122 9.33336 1.83033 9.31755 1.99844V3.66185H9.98291V1.99847C9.98347 1.97957 9.98347 1.96064 9.98291 1.94174C9.96722 1.40619 9.52037 0.984736 8.98483 1.00042Z" fill="#0C49CD" stroke="#0C49CD" stroke-width="0.2"/>
<path d="M14.6403 10.9809H10.9808V11.6462H14.6403C14.6601 11.6443 14.68 11.6443 14.6998 11.6462C14.8671 11.6627 14.9894 11.8116 14.973 11.9789V12.6077C14.9251 12.8063 14.6044 13.975 13.6423 13.975C13.4585 13.975 13.3096 14.124 13.3096 14.3077V16.3038H6.9886V15.3058H6.32324V16.6365C6.32324 16.8203 6.4722 16.9692 6.65594 16.9692H13.6423C13.826 16.9692 13.975 16.8203 13.975 16.6365V14.6111C15.015 14.4145 15.5106 13.3173 15.6317 12.7109C15.6362 12.689 15.6384 12.6667 15.6384 12.6443V11.979C15.639 11.9601 15.639 11.9411 15.6384 11.9222C15.6227 11.3867 15.1759 10.9652 14.6403 10.9809Z" fill="#0C49CD" stroke="#0C49CD" stroke-width="0.2"/>
<path d="M16.6364 4.99272H15.7977C15.7625 4.89388 15.7222 4.79694 15.677 4.70229L16.2705 4.10879C16.4003 3.97889 16.4003 3.7683 16.2705 3.63836L15.3293 2.6972C15.1994 2.56733 14.9888 2.56733 14.8589 2.6972L14.2654 3.2907C14.1707 3.24563 14.0737 3.20546 13.9749 3.17028V2.33123C13.9749 2.14749 13.826 1.99854 13.6422 1.99854H12.3115C12.1278 1.99854 11.9788 2.14749 11.9788 2.33123V3.17025C11.7977 3.23422 11.6232 3.31565 11.4579 3.41343L11.7959 3.98631C11.9829 3.87618 12.1845 3.79275 12.3947 3.73845C12.5416 3.70052 12.6442 3.56809 12.6442 3.41642V2.66392H13.3096V3.41645C13.3094 3.56806 13.4117 3.70062 13.5584 3.73882C13.7686 3.79312 13.9702 3.87655 14.1572 3.98668C14.288 4.06394 14.4544 4.04285 14.5618 3.93544L15.0941 3.40314L15.5648 3.87287L15.0325 4.40518C14.925 4.51244 14.9038 4.67893 14.981 4.80973C15.0913 4.99677 15.175 5.19835 15.2295 5.40856C15.2674 5.55531 15.3997 5.65789 15.5512 5.65808H16.3037V6.32312H15.5519C15.4003 6.32331 15.268 6.42589 15.2301 6.57263C15.1756 6.78285 15.092 6.98442 14.9816 7.17146C14.9045 7.30227 14.9257 7.46873 15.0332 7.57602L15.5655 8.10832L15.0951 8.57875L14.5628 8.04644C14.4554 7.93903 14.289 7.91794 14.1582 7.9952C13.9711 8.10533 13.7696 8.18876 13.5594 8.24306C13.4125 8.28098 13.3099 8.41341 13.3099 8.56508V9.31762H12.6445V8.56543C12.6445 8.41376 12.5419 8.2813 12.395 8.2434C12.1848 8.1891 11.9832 8.10567 11.7962 7.99554C11.6654 7.91829 11.499 7.93937 11.3916 8.04678L10.8594 8.57903L10.3889 8.1086L10.9213 7.5763C11.0288 7.46904 11.05 7.30255 10.9728 7.17174C10.8625 6.9847 10.7788 6.78313 10.7243 6.57291C10.6864 6.42617 10.5541 6.32359 10.4026 6.3234H9.31738V6.98876H10.1564C10.1915 7.0876 10.2317 7.18453 10.2768 7.27919L9.68332 7.87269C9.55345 8.00259 9.55345 8.21318 9.68332 8.34311L10.6245 9.28427C10.7544 9.41415 10.965 9.41415 11.0949 9.28427L11.6884 8.69078C11.7831 8.73585 11.88 8.77602 11.9788 8.8112V9.65022C11.9788 9.83395 12.1278 9.98291 12.3115 9.98291H13.6423C13.826 9.98291 13.975 9.83395 13.975 9.65022V8.81151C14.0738 8.77633 14.1707 8.73613 14.2654 8.69109L14.8589 9.28427C14.9888 9.41415 15.1994 9.41415 15.3293 9.28427L16.2705 8.34311C16.4004 8.21321 16.4004 8.00262 16.2705 7.87269L15.6767 7.27919C15.7219 7.18453 15.7622 7.0876 15.7974 6.98876H16.6364C16.8202 6.98876 16.9691 6.8398 16.9691 6.65606V5.32538C16.9691 5.14165 16.8202 4.99272 16.6364 4.99272Z" fill="#0C49CD" stroke="#0C49CD" stroke-width="0.2"/>
<path fill-rule="evenodd" clip-rule="evenodd" d="M11.6465 5.99072C11.6465 5.25586 12.2422 4.66016 12.9771 4.66016C13.7124 4.66016 14.3081 5.25586 14.3081 5.99072C14.3081 6.72607 13.7124 7.32178 12.9771 7.32178C12.2422 7.32178 11.6465 6.72607 11.6465 5.99072ZM12.312 5.99121C12.312 6.3584 12.6099 6.65625 12.9775 6.65625C13.3447 6.65625 13.6426 6.3584 13.6426 5.99121C13.6426 5.62354 13.3447 5.32568 12.9775 5.32568C12.6099 5.32568 12.312 5.62354 12.312 5.99121Z" fill="#0C49CD"/>
<path d="M12.9771 4.56016C12.187 4.56016 11.5465 5.20063 11.5465 5.99072H11.7465C11.7465 5.31109 12.2974 4.76016 12.9771 4.76016V4.56016ZM14.4081 5.99072C14.4081 5.20061 13.7676 4.56016 12.9771 4.56016V4.76016C13.6572 4.76016 14.2081 5.31111 14.2081 5.99072H14.4081ZM12.9771 7.42178C13.7676 7.42178 14.4081 6.7813 14.4081 5.99072H14.2081C14.2081 6.67085 13.6572 7.22178 12.9771 7.22178V7.42178ZM11.5465 5.99072C11.5465 6.78128 12.1869 7.42178 12.9771 7.42178V7.22178C12.2974 7.22178 11.7465 6.67087 11.7465 5.99072H11.5465ZM12.9775 6.55625C12.665 6.55625 12.412 6.30312 12.412 5.99121H12.212C12.212 6.41367 12.5547 6.75625 12.9775 6.75625V6.55625ZM13.5426 5.99121C13.5426 6.30317 13.2895 6.55625 12.9775 6.55625V6.75625C13.4 6.75625 13.7426 6.41363 13.7426 5.99121H13.5426ZM12.9775 5.42568C13.2895 5.42568 13.5426 5.67872 13.5426 5.99121H13.7426C13.7426 5.56835 13.4 5.22568 12.9775 5.22568V5.42568ZM12.412 5.99121C12.412 5.67876 12.6651 5.42568 12.9775 5.42568V5.22568C12.5546 5.22568 12.212 5.56831 12.212 5.99121H12.412Z" fill="#0C49CD"/>
<path d="M5.9907 6.32324V6.65594H4.99265V6.32324H4.32729V6.65594C4.3271 6.66514 4.3271 6.67431 4.32729 6.68351C4.3349 7.04337 4.63279 7.3289 4.99265 7.32129H5.9907C5.9999 7.32148 6.00907 7.32148 6.01827 7.32129C6.37813 7.31368 6.66366 7.0158 6.65605 6.65594V6.32324H5.9907Z" fill="#0C49CD" stroke="#0C49CD" stroke-width="0.2"/>
<path fill-rule="evenodd" clip-rule="evenodd" d="M9.31738 11.3135C9.31738 10.7622 9.76416 10.3154 10.3154 10.3154C10.8667 10.3154 11.3135 10.7622 11.3135 11.3135C11.3135 11.8647 10.8667 12.3115 10.3154 12.3115C9.76416 12.3115 9.31738 11.8647 9.31738 11.3135ZM9.98291 11.3135C9.98291 11.4976 10.1318 11.6465 10.3154 11.6465C10.4995 11.6465 10.6484 11.4976 10.6484 11.3135C10.6484 11.2188 10.6089 11.1338 10.5454 11.0732C10.4858 11.0161 10.4048 10.981 10.3154 10.981C10.1318 10.981 9.98291 11.1299 9.98291 11.3135Z" fill="#0C49CD"/>
<path d="M10.5454 11.0732L10.4762 11.1454L10.4764 11.1456L10.5454 11.0732ZM10.3154 10.2154C9.70893 10.2154 9.21738 10.707 9.21738 11.3135H9.41738C9.41738 10.8174 9.81939 10.4154 10.3154 10.4154V10.2154ZM11.4135 11.3135C11.4135 10.707 10.9219 10.2154 10.3154 10.2154V10.4154C10.8115 10.4154 11.2135 10.8174 11.2135 11.3135H11.4135ZM10.3154 12.4115C10.9219 12.4115 11.4135 11.92 11.4135 11.3135H11.2135C11.2135 11.8095 10.8115 12.2115 10.3154 12.2115V12.4115ZM9.21738 11.3135C9.21738 11.92 9.70893 12.4115 10.3154 12.4115V12.2115C9.81939 12.2115 9.41738 11.8095 9.41738 11.3135H9.21738ZM10.3154 11.5465C10.1872 11.5465 10.0829 11.4424 10.0829 11.3135H9.88291C9.88291 11.5527 10.0765 11.7465 10.3154 11.7465V11.5465ZM10.5484 11.3135C10.5484 11.4423 10.4443 11.5465 10.3154 11.5465V11.7465C10.5547 11.7465 10.7484 11.5528 10.7484 11.3135H10.5484ZM10.4764 11.1456C10.521 11.1882 10.5484 11.2473 10.5484 11.3135H10.7484C10.7484 11.1902 10.6968 11.0794 10.6144 11.0009L10.4764 11.1456ZM10.3154 11.081C10.378 11.081 10.4345 11.1055 10.4762 11.1454L10.6146 11.0011C10.5371 10.9267 10.4315 10.881 10.3154 10.881V11.081ZM10.0829 11.3135C10.0829 11.1851 10.1871 11.081 10.3154 11.081V10.881C10.0766 10.881 9.88291 11.0747 9.88291 11.3135H10.0829Z" fill="#0C49CD"/>
<path fill-rule="evenodd" clip-rule="evenodd" d="M5.6582 9.65039C5.6582 9.09912 6.10498 8.65234 6.65625 8.65234C7.20752 8.65234 7.6543 9.09912 7.6543 9.65039C7.6543 10.0459 7.4248 10.3872 7.09131 10.5488C6.95947 10.6128 6.81201 10.6484 6.65625 10.6484C6.10498 10.6484 5.6582 10.2017 5.6582 9.65039ZM6.32373 9.65039C6.32373 9.83447 6.47266 9.9834 6.65625 9.9834C6.84033 9.9834 6.98926 9.83447 6.98926 9.65039C6.98926 9.4668 6.84033 9.31787 6.65625 9.31787C6.47266 9.31787 6.32373 9.4668 6.32373 9.65039Z" fill="#0C49CD"/>
<path d="M7.09131 10.5488L7.0477 10.4588L7.04766 10.4589L7.09131 10.5488ZM6.65625 8.55234C6.04975 8.55234 5.5582 9.04389 5.5582 9.65039H5.7582C5.7582 9.15435 6.16021 8.75234 6.65625 8.75234V8.55234ZM7.7543 9.65039C7.7543 9.04389 7.26275 8.55234 6.65625 8.55234V8.75234C7.15229 8.75234 7.5543 9.15435 7.5543 9.65039H7.7543ZM7.13492 10.6388C7.50162 10.4611 7.7543 10.0856 7.7543 9.65039H7.5543C7.5543 10.0062 7.34799 10.3133 7.0477 10.4588L7.13492 10.6388ZM6.65625 10.7484C6.82744 10.7484 6.9898 10.7092 7.13496 10.6388L7.04766 10.4589C6.92914 10.5164 6.79658 10.5484 6.65625 10.5484V10.7484ZM5.5582 9.65039C5.5582 10.2569 6.04975 10.7484 6.65625 10.7484V10.5484C6.16021 10.5484 5.7582 10.1464 5.7582 9.65039H5.5582ZM6.65625 9.8834C6.52798 9.8834 6.42373 9.77934 6.42373 9.65039H6.22373C6.22373 9.88961 6.41733 10.0834 6.65625 10.0834V9.8834ZM6.88926 9.65039C6.88926 9.77924 6.7851 9.8834 6.65625 9.8834V10.0834C6.89556 10.0834 7.08926 9.8897 7.08926 9.65039H6.88926ZM6.65625 9.41787C6.7852 9.41787 6.88926 9.52212 6.88926 9.65039H7.08926C7.08926 9.41147 6.89546 9.21787 6.65625 9.21787V9.41787ZM6.42373 9.65039C6.42373 9.52203 6.52788 9.41787 6.65625 9.41787V9.21787C6.41743 9.21787 6.22373 9.41157 6.22373 9.65039H6.42373Z" fill="#0C49CD"/>
<path fill-rule="evenodd" clip-rule="evenodd" d="M8.65234 4.32715C8.65234 3.77588 9.09912 3.3291 9.65039 3.3291C10.2017 3.3291 10.6484 3.77588 10.6484 4.32715C10.6484 4.87842 10.2017 5.3252 9.65039 5.3252C9.09912 5.3252 8.65234 4.87842 8.65234 4.32715ZM9.31787 4.32715C9.31787 4.51123 9.4668 4.66016 9.65039 4.66016C9.83447 4.66016 9.9834 4.51123 9.9834 4.32715C9.9834 4.14355 9.83447 3.99463 9.65039 3.99463C9.53809 3.99463 9.43896 4.05029 9.37891 4.13525C9.34033 4.18945 9.31787 4.25586 9.31787 4.32715Z" fill="#0C49CD"/>
<path d="M9.37891 4.13525L9.46038 4.19324L9.46056 4.19298L9.37891 4.13525ZM9.65039 3.2291C9.04389 3.2291 8.55234 3.72065 8.55234 4.32715H8.75234C8.75234 3.83111 9.15435 3.4291 9.65039 3.4291V3.2291ZM10.7484 4.32715C10.7484 3.72065 10.2569 3.2291 9.65039 3.2291V3.4291C10.1464 3.4291 10.5484 3.83111 10.5484 4.32715H10.7484ZM9.65039 5.4252C10.2569 5.4252 10.7484 4.93365 10.7484 4.32715H10.5484C10.5484 4.82319 10.1464 5.2252 9.65039 5.2252V5.4252ZM8.55234 4.32715C8.55234 4.93365 9.04389 5.4252 9.65039 5.4252V5.2252C9.15435 5.2252 8.75234 4.82319 8.75234 4.32715H8.55234ZM9.65039 4.56016C9.52212 4.56016 9.41787 4.4561 9.41787 4.32715H9.21787C9.21787 4.56636 9.41147 4.76016 9.65039 4.76016V4.56016ZM9.8834 4.32715C9.8834 4.456 9.77924 4.56016 9.65039 4.56016V4.76016C9.8897 4.76016 10.0834 4.56646 10.0834 4.32715H9.8834ZM9.65039 4.09463C9.77934 4.09463 9.8834 4.19888 9.8834 4.32715H10.0834C10.0834 4.08823 9.88961 3.89463 9.65039 3.89463V4.09463ZM9.46056 4.19298C9.5027 4.13337 9.57195 4.09463 9.65039 4.09463V3.89463C9.50423 3.89463 9.37523 3.96721 9.29725 4.07753L9.46056 4.19298ZM9.41787 4.32715C9.41787 4.27711 9.43358 4.23089 9.46038 4.19324L9.29743 4.07727C9.24708 4.14801 9.21787 4.23461 9.21787 4.32715H9.41787Z" fill="#0C49CD"/>
<rect x="7.98682" y="6.32324" width="0.665357" height="0.665357" fill="#0C49CD" stroke="#0C49CD" stroke-width="0.2"/>
<rect x="7.98682" y="7.6543" width="0.665357" height="0.665357" fill="#0C49CD" stroke="#0C49CD" stroke-width="0.2"/>
<rect x="6.32324" y="13.9751" width="0.665357" height="0.665357" fill="#0C49CD" stroke="#0C49CD" stroke-width="0.2"/>
</svg>
