<svg width="18" height="8" viewBox="0 0 18 8" fill="none" xmlns="http://www.w3.org/2000/svg">
<path fill-rule="evenodd" clip-rule="evenodd" d="M2.7373 6.14795H1.28564C1.17871 6.14795 1.08569 6.08936 1.03662 6.00244C1.01343 5.96094 1 5.91309 1 5.8623V3.57642C1 3.4187 1.12793 3.29077 1.28564 3.29077H2.71533V3.00513V2.99976C2.71582 2.98486 2.71729 2.97021 2.71997 2.95581C2.72314 2.93774 2.72803 2.92017 2.73486 2.90308C2.73804 2.89478 2.74219 2.88794 2.74609 2.87988C2.75049 2.86841 2.7561 2.85718 2.76221 2.84644L3.90527 1.13232C3.95801 1.05273 4.04736 1.00513 4.14282 1.00513H7.28577C7.31445 1.00513 7.3429 1.00952 7.37 1.01782C7.40112 1.02734 7.43066 1.04248 7.45715 1.06226L8.52368 1.8623H9.47937L10.5475 1.09448C10.5951 1.0603 10.6521 1.0415 10.7108 1.04077L13.8538 1.00513C13.8997 1.00366 13.9443 1.01343 13.9843 1.03296C14.0291 1.05493 14.068 1.08887 14.0959 1.13232L15.2389 2.84644C15.245 2.85742 15.2504 2.86841 15.2551 2.87988L15.2588 2.88721C15.2615 2.89233 15.2642 2.89746 15.2662 2.90308C15.2708 2.91455 15.2745 2.92627 15.2775 2.93823C15.2825 2.95825 15.2853 2.979 15.2858 2.99976V3.00513V3.29077H16.7142C16.8721 3.29077 17 3.4187 17 3.57642V5.8623C17 6.02002 16.8721 6.14795 16.7142 6.14795H15.2628C15.121 7.1311 14.2791 7.86108 13.2858 7.8623H10.8857C10.2023 7.86255 9.55725 7.5459 9.1394 7.00513H8.83252L8.62317 7.21484C8.20935 7.63062 7.64636 7.86377 7.05969 7.8623H4.71436C3.72095 7.86108 2.87891 7.1311 2.7373 6.14795ZM10.8856 7.29077H13.2856C14.0742 7.28979 14.7133 6.65088 14.7142 5.8623V3.29077H14.1427V5.57642C14.1427 6.20752 13.6311 6.71924 12.9999 6.71924H10.9019C10.5228 6.72021 10.1589 6.56982 9.8916 6.30103L9.453 5.8623H8.54675L8.10815 6.30103C7.84082 6.56982 7.47705 6.72021 7.0979 6.71924H5C4.36865 6.71924 3.85693 6.20752 3.85693 5.57642V3.29077H3.28564V5.8623C3.28662 6.65088 3.92554 7.28979 4.71436 7.29077H7.05957C7.49463 7.29175 7.91211 7.11914 8.21899 6.81079L8.51221 6.51733C8.53589 6.49365 8.56335 6.47461 8.59326 6.46045C8.63074 6.44287 8.672 6.43359 8.71411 6.43359H9.28564C9.38062 6.43408 9.46912 6.48169 9.52185 6.56079C9.82532 7.01709 10.3374 7.29126 10.8856 7.29077ZM4.42871 3.29077H13.5715V5.57642C13.5715 5.89209 13.3157 6.14795 13.0001 6.14795H10.9021C10.8473 6.14795 10.7931 6.14282 10.7401 6.13281C10.6674 6.1189 10.5969 6.0957 10.5305 6.06372C10.5098 6.05371 10.4895 6.04297 10.4696 6.03125C10.4294 6.00781 10.3911 5.98096 10.355 5.95093C10.3345 5.93408 10.3147 5.91602 10.2958 5.89697L9.77356 5.37451C9.71997 5.32104 9.64734 5.29077 9.57153 5.29077H8.42871C8.35291 5.29077 8.28027 5.32104 8.22668 5.37451L7.70447 5.89697C7.54395 6.05811 7.32556 6.14844 7.09814 6.14795H5.00012C4.68457 6.14795 4.42871 5.89209 4.42871 5.57642V3.29077ZM16.4286 5.57666V3.8623H15.2858V5.57666H16.4286ZM4.29565 1.57642H7.19055L8.25708 2.37646C8.30664 2.41357 8.3667 2.43359 8.42859 2.43359H9.57141C9.63135 2.43359 9.6897 2.41479 9.73828 2.37988L10.8077 1.61133L13.7054 1.57812L14.4663 2.71924H3.53369L4.29565 1.57642ZM2.71411 3.8623H1.57129V5.57666H2.71411V3.8623Z" fill="#0C49CD"/>
<path d="M2.7373 6.14795L2.83628 6.13369L2.82393 6.04795H2.7373V6.14795ZM1.03662 6.00244L0.949326 6.05122L0.949542 6.05161L1.03662 6.00244ZM2.71533 3.29077V3.39077H2.81533V3.29077H2.71533ZM2.71533 2.99976L2.61533 2.99648V2.99976H2.71533ZM2.71997 2.95581L2.81828 2.97414L2.81846 2.97311L2.71997 2.95581ZM2.73486 2.90308L2.82772 2.94022L2.82827 2.93879L2.73486 2.90308ZM2.74609 2.87988L2.83641 2.92367L2.83948 2.91565L2.74609 2.87988ZM2.76221 2.84644L2.6788 2.79081L2.67526 2.79703L2.76221 2.84644ZM3.90527 1.13232L3.98847 1.18781L3.98864 1.18756L3.90527 1.13232ZM7.37 1.01782L7.34071 1.11344L7.34074 1.11345L7.37 1.01782ZM7.45715 1.06226L7.51716 0.982261L7.51698 0.982123L7.45715 1.06226ZM8.52368 1.8623L8.46367 1.9423L8.49034 1.9623H8.52368V1.8623ZM9.47937 1.8623V1.9623H9.51158L9.53774 1.9435L9.47937 1.8623ZM10.5475 1.09448L10.4892 1.01325L10.4891 1.01329L10.5475 1.09448ZM10.7108 1.04077L10.7097 0.940778L10.7096 0.940779L10.7108 1.04077ZM13.8538 1.00513L13.8549 1.10514L13.8569 1.10508L13.8538 1.00513ZM13.9843 1.03296L14.0283 0.943176L14.0282 0.943135L13.9843 1.03296ZM14.0959 1.13232L14.0118 1.18643L14.0127 1.1878L14.0959 1.13232ZM15.2389 2.84644L15.3266 2.79771L15.3221 2.79096L15.2389 2.84644ZM15.2551 2.87988L15.1625 2.9183L15.1657 2.9246L15.2551 2.87988ZM15.2588 2.88721L15.1693 2.93194L15.1702 2.93361L15.2588 2.88721ZM15.2662 2.90308L15.1724 2.93775L15.1732 2.9397L15.2662 2.90308ZM15.2775 2.93823L15.1803 2.96202L15.1805 2.96249L15.2775 2.93823ZM15.2858 2.99976H15.3858L15.3857 2.9974L15.2858 2.99976ZM15.2858 3.29077H15.1858V3.39077H15.2858V3.29077ZM15.2628 6.14795V6.04795H15.1762L15.1638 6.13367L15.2628 6.14795ZM13.2858 7.8623V7.9623H13.2859L13.2858 7.8623ZM10.8857 7.8623V7.7623H10.8857L10.8857 7.8623ZM9.1394 7.00513L9.21853 6.94398L9.18851 6.90513H9.1394V7.00513ZM8.83252 7.00513V6.90513H8.79105L8.76175 6.93448L8.83252 7.00513ZM8.62317 7.21484L8.5524 7.14419L8.55229 7.1443L8.62317 7.21484ZM7.05969 7.8623L7.05994 7.7623H7.05969V7.8623ZM4.71436 7.8623L4.71423 7.9623H4.71436V7.8623ZM13.2856 7.29077V7.39077H13.2858L13.2856 7.29077ZM10.8856 7.29077V7.19077H10.8855L10.8856 7.29077ZM14.7142 5.8623L14.8142 5.86243V5.8623H14.7142ZM14.7142 3.29077H14.8142V3.19077H14.7142V3.29077ZM14.1427 3.29077V3.19077H14.0427V3.29077H14.1427ZM10.9019 6.71924V6.61924L10.9016 6.61924L10.9019 6.71924ZM9.8916 6.30103L9.96251 6.23051L9.96232 6.23032L9.8916 6.30103ZM9.453 5.8623L9.52372 5.7916L9.49443 5.7623H9.453V5.8623ZM8.54675 5.8623V5.7623H8.50532L8.47603 5.7916L8.54675 5.8623ZM8.10815 6.30103L8.03743 6.23032L8.03725 6.23051L8.10815 6.30103ZM7.0979 6.71924L7.09816 6.61924H7.0979V6.71924ZM3.85693 3.29077H3.95693V3.19077H3.85693V3.29077ZM3.28564 3.29077V3.19077H3.18564V3.29077H3.28564ZM3.28564 5.8623H3.18564L3.18564 5.86243L3.28564 5.8623ZM4.71436 7.29077L4.71423 7.39077H4.71436V7.29077ZM7.05957 7.29077L7.05979 7.19077H7.05957V7.29077ZM8.21899 6.81079L8.14825 6.74011L8.14812 6.74025L8.21899 6.81079ZM8.51221 6.51733L8.4415 6.44662L8.44147 6.44665L8.51221 6.51733ZM8.59326 6.46045L8.5508 6.36991L8.55047 6.37007L8.59326 6.46045ZM9.28564 6.43359L9.28616 6.33359H9.28564V6.43359ZM9.52185 6.56079L9.60512 6.50541L9.60506 6.50532L9.52185 6.56079ZM13.5715 3.29077H13.6715V3.19077H13.5715V3.29077ZM4.42871 3.29077V3.19077H4.32871V3.29077H4.42871ZM10.7401 6.13281L10.7213 6.23103L10.7215 6.23107L10.7401 6.13281ZM10.5305 6.06372L10.4871 6.15379L10.4871 6.15382L10.5305 6.06372ZM10.4696 6.03125L10.5204 5.94508L10.52 5.94488L10.4696 6.03125ZM10.355 5.95093L10.4189 5.87402L10.4185 5.87366L10.355 5.95093ZM10.2958 5.89697L10.3667 5.82649L10.3665 5.82628L10.2958 5.89697ZM9.77356 5.37451L9.84429 5.30382L9.84419 5.30372L9.77356 5.37451ZM8.22668 5.37451L8.15605 5.30372L8.15596 5.30382L8.22668 5.37451ZM7.70447 5.89697L7.63374 5.82628L7.63362 5.8264L7.70447 5.89697ZM7.09814 6.14795L7.09836 6.04795H7.09814V6.14795ZM16.4286 3.8623H16.5286V3.7623H16.4286V3.8623ZM16.4286 5.57666V5.67666H16.5286V5.57666H16.4286ZM15.2858 3.8623V3.7623H15.1858V3.8623H15.2858ZM15.2858 5.57666H15.1858V5.67666H15.2858V5.57666ZM7.19055 1.57642L7.25056 1.49642L7.22389 1.47642H7.19055V1.57642ZM4.29565 1.57642V1.47642H4.24214L4.21245 1.52094L4.29565 1.57642ZM8.25708 2.37646L8.19707 2.45646L8.19714 2.45651L8.25708 2.37646ZM9.73828 2.37988L9.79664 2.46109L9.79664 2.46109L9.73828 2.37988ZM10.8077 1.61133L10.8066 1.51133L10.775 1.5117L10.7494 1.53012L10.8077 1.61133ZM13.7054 1.57812L13.7886 1.52265L13.7585 1.47751L13.7043 1.47813L13.7054 1.57812ZM14.4663 2.71924V2.81924H14.6532L14.5495 2.66376L14.4663 2.71924ZM3.53369 2.71924L3.45049 2.66376L3.34683 2.81924H3.53369V2.71924ZM1.57129 3.8623V3.7623H1.47129V3.8623H1.57129ZM2.71411 3.8623H2.81411V3.7623H2.71411V3.8623ZM1.57129 5.57666H1.47129V5.67666H1.57129V5.57666ZM2.71411 5.57666V5.67666H2.81411V5.57666H2.71411ZM1.28564 6.24795H2.7373V6.04795H1.28564V6.24795ZM0.949542 6.05161C1.01561 6.16863 1.14117 6.24795 1.28564 6.24795V6.04795C1.21625 6.04795 1.15577 6.01008 1.1237 5.95328L0.949542 6.05161ZM0.9 5.8623C0.9 5.9309 0.918169 5.99547 0.949327 6.05122L1.12392 5.95366C1.10869 5.92641 1.1 5.89527 1.1 5.8623H0.9ZM0.9 3.57642V5.8623H1.1V3.57642H0.9ZM1.28564 3.19077C1.0727 3.19077 0.9 3.36347 0.9 3.57642H1.1C1.1 3.47393 1.18316 3.39077 1.28564 3.39077V3.19077ZM2.71533 3.19077H1.28564V3.39077H2.71533V3.19077ZM2.61533 3.00513V3.29077H2.81533V3.00513H2.61533ZM2.61533 2.99976V3.00513H2.81533V2.99976H2.61533ZM2.62166 2.93748C2.61794 2.95746 2.61602 2.97719 2.61539 2.99648L2.81528 3.00303C2.81562 2.99254 2.81663 2.98297 2.81828 2.97414L2.62166 2.93748ZM2.64202 2.86594C2.63247 2.8898 2.62577 2.91406 2.62148 2.93851L2.81846 2.97311C2.82052 2.96143 2.82358 2.95053 2.82771 2.94022L2.64202 2.86594ZM2.65611 2.83626C2.65472 2.83913 2.65453 2.83931 2.6512 2.8458C2.64865 2.85077 2.64494 2.85825 2.64146 2.86736L2.82827 2.93879C2.82796 2.9396 2.82791 2.93951 2.82921 2.93698C2.83003 2.93536 2.83052 2.93446 2.83189 2.93181C2.83303 2.92961 2.83451 2.92674 2.83608 2.92351L2.65611 2.83626ZM2.67526 2.79703C2.66748 2.81072 2.65941 2.82662 2.65271 2.84412L2.83948 2.91565C2.84157 2.91019 2.84472 2.90363 2.84915 2.89584L2.67526 2.79703ZM3.82208 1.07684L2.67901 2.79095L2.8454 2.90192L3.98847 1.18781L3.82208 1.07684ZM4.14282 0.905127C4.0141 0.905127 3.89332 0.969321 3.82191 1.07709L3.98864 1.18756C4.0227 1.13615 4.08063 1.10513 4.14282 1.10513V0.905127ZM7.28577 0.905127H4.14282V1.10513H7.28577V0.905127ZM7.39928 0.922207C7.36294 0.911075 7.32464 0.905127 7.28577 0.905127V1.10513C7.30427 1.10513 7.32285 1.10797 7.34071 1.11344L7.39928 0.922207ZM7.51698 0.982123C7.48158 0.9557 7.44175 0.935198 7.39925 0.922196L7.34074 1.11345C7.36049 1.11949 7.37975 1.12926 7.39733 1.14239L7.51698 0.982123ZM8.58369 1.78231L7.51716 0.982261L7.39715 1.14225L8.46367 1.9423L8.58369 1.78231ZM9.47937 1.7623H8.52368V1.9623H9.47937V1.7623ZM10.4891 1.01329L9.421 1.78111L9.53774 1.9435L10.6059 1.17568L10.4891 1.01329ZM10.7096 0.940779C10.6303 0.941768 10.5534 0.967144 10.4892 1.01325L10.6058 1.17571C10.6368 1.15346 10.6739 1.14124 10.7121 1.14076L10.7096 0.940779ZM13.8526 0.905133L10.7097 0.940778L10.7119 1.14077L13.8549 1.10512L13.8526 0.905133ZM14.0282 0.943135C13.9736 0.916426 13.9128 0.903193 13.8506 0.905178L13.8569 1.10508C13.8866 1.10413 13.9151 1.11043 13.9403 1.12278L14.0282 0.943135ZM14.18 1.07822C14.142 1.01908 14.0891 0.972978 14.0283 0.943176L13.9402 1.12274C13.9691 1.13689 13.994 1.15865 14.0118 1.18642L14.18 1.07822ZM15.3221 2.79096L14.1791 1.07685L14.0127 1.1878L15.1557 2.90191L15.3221 2.79096ZM15.3475 2.84156C15.3412 2.82629 15.3341 2.81189 15.3263 2.79787L15.1515 2.895C15.1559 2.90296 15.1596 2.91053 15.1628 2.9182L15.3475 2.84156ZM15.3482 2.84249L15.3446 2.83516L15.1657 2.9246L15.1693 2.93193L15.3482 2.84249ZM15.36 2.86841C15.3554 2.85581 15.3496 2.84512 15.3474 2.84081L15.1702 2.93361C15.1717 2.93641 15.1722 2.93752 15.1727 2.93842C15.173 2.93912 15.1728 2.93877 15.1724 2.93774L15.36 2.86841ZM15.3746 2.91445C15.3705 2.89781 15.3653 2.8818 15.3593 2.86645L15.1732 2.9397C15.1762 2.9473 15.1786 2.95473 15.1803 2.96202L15.3746 2.91445ZM15.3857 2.9974C15.3851 2.96927 15.3813 2.94117 15.3745 2.91398L15.1805 2.96249C15.1837 2.97533 15.1855 2.98874 15.1858 3.00211L15.3857 2.9974ZM15.3858 3.00513V2.99976H15.1858V3.00513H15.3858ZM15.3858 3.29077V3.00513H15.1858V3.29077H15.3858ZM16.7142 3.19077H15.2858V3.39077H16.7142V3.19077ZM17.1 3.57642C17.1 3.36344 16.9273 3.19077 16.7142 3.19077V3.39077C16.8169 3.39077 16.9 3.47396 16.9 3.57642H17.1ZM17.1 5.8623V3.57642H16.9V5.8623H17.1ZM16.7142 6.24795C16.9273 6.24795 17.1 6.07528 17.1 5.8623H16.9C16.9 5.96476 16.8169 6.04795 16.7142 6.04795V6.24795ZM15.2628 6.24795H16.7142V6.04795H15.2628V6.24795ZM13.2859 7.9623C14.3288 7.96102 15.2129 7.19454 15.3618 6.16223L15.1638 6.13367C15.0291 7.06766 14.2293 7.76115 13.2856 7.7623L13.2859 7.9623ZM10.8857 7.9623H13.2858V7.7623H10.8857V7.9623ZM9.06027 7.06627C9.49706 7.63156 10.1713 7.96256 10.8858 7.9623L10.8857 7.7623C10.2332 7.76254 9.61744 7.46024 9.21853 6.94398L9.06027 7.06627ZM8.83252 7.10513H9.1394V6.90513H8.83252V7.10513ZM8.69394 7.28549L8.90329 7.07578L8.76175 6.93448L8.5524 7.1442L8.69394 7.28549ZM7.05944 7.9623C7.6728 7.96384 8.2614 7.72008 8.69405 7.28539L8.55229 7.1443C8.1573 7.54115 7.61992 7.7637 7.05994 7.7623L7.05944 7.9623ZM4.71436 7.9623H7.05969V7.7623H4.71436V7.9623ZM2.63833 6.1622C2.78701 7.19456 3.67118 7.96102 4.71423 7.9623L4.71448 7.7623C3.77071 7.76115 2.9708 7.06765 2.83628 6.13369L2.63833 6.1622ZM13.2856 7.19077H10.8856V7.39077H13.2856V7.19077ZM14.6142 5.86218C14.6133 6.59561 14.019 7.18986 13.2855 7.19077L13.2858 7.39077C14.1295 7.38973 14.8132 6.70615 14.8142 5.86243L14.6142 5.86218ZM14.6142 3.29077V5.8623H14.8142V3.29077H14.6142ZM14.1427 3.39077H14.7142V3.19077H14.1427V3.39077ZM14.2427 5.57642V3.29077H14.0427V5.57642H14.2427ZM12.9999 6.81924C13.6863 6.81924 14.2427 6.26274 14.2427 5.57642H14.0427C14.0427 6.1523 13.5759 6.61924 12.9999 6.61924V6.81924ZM10.9019 6.81924H12.9999V6.61924H10.9019V6.81924ZM9.8207 6.37154C10.1069 6.65932 10.4964 6.82028 10.9021 6.81924L10.9016 6.61924C10.5492 6.62015 10.211 6.48033 9.96251 6.23051L9.8207 6.37154ZM9.38228 5.93301L9.82088 6.37173L9.96232 6.23032L9.52372 5.7916L9.38228 5.93301ZM8.54675 5.9623H9.453V5.7623H8.54675V5.9623ZM8.17887 6.37173L8.61747 5.93301L8.47603 5.7916L8.03743 6.23032L8.17887 6.37173ZM7.09764 6.81924C7.50344 6.82028 7.89285 6.65932 8.17906 6.37154L8.03725 6.23051C7.78879 6.48033 7.45066 6.62015 7.09816 6.61924L7.09764 6.81924ZM5 6.81924H7.0979V6.61924H5V6.81924ZM3.75693 5.57642C3.75693 6.26276 4.31344 6.81924 5 6.81924V6.61924C4.42387 6.61924 3.95693 6.15228 3.95693 5.57642H3.75693ZM3.75693 3.29077V5.57642H3.95693V3.29077H3.75693ZM3.28564 3.39077H3.85693V3.19077H3.28564V3.39077ZM3.38564 5.8623V3.29077H3.18564V5.8623H3.38564ZM4.71448 7.19077C3.98078 7.18986 3.38655 6.59561 3.38564 5.86218L3.18564 5.86243C3.18669 6.70615 3.87029 7.38973 4.71423 7.39077L4.71448 7.19077ZM7.05957 7.19077H4.71436V7.39077H7.05957V7.19077ZM8.14812 6.74025C7.86009 7.02965 7.46823 7.19169 7.05979 7.19077L7.05935 7.39077C7.52103 7.39181 7.96413 7.20863 8.28987 6.88133L8.14812 6.74025ZM8.44147 6.44665L8.14825 6.74011L8.28973 6.88147L8.58295 6.58802L8.44147 6.44665ZM8.55047 6.37007C8.5106 6.38894 8.4736 6.41452 8.4415 6.44662L8.58292 6.58804C8.59818 6.57278 8.61611 6.56028 8.63605 6.55083L8.55047 6.37007ZM8.71411 6.33359C8.65732 6.33359 8.60156 6.3461 8.5508 6.36991L8.63573 6.55098C8.65992 6.53964 8.68668 6.53359 8.71411 6.53359V6.33359ZM9.28564 6.33359H8.71411V6.53359H9.28564V6.33359ZM9.60506 6.50532C9.53387 6.39854 9.41436 6.33425 9.28616 6.3336L9.28513 6.53359C9.34687 6.53391 9.40437 6.56484 9.43865 6.61626L9.60506 6.50532ZM10.8855 7.19077C10.3708 7.19123 9.89003 6.93381 9.60512 6.50541L9.43858 6.61617C9.76061 7.10037 10.304 7.39129 10.8857 7.39077L10.8855 7.19077ZM13.5715 3.19077H4.42871V3.39077H13.5715V3.19077ZM13.6715 5.57642V3.29077H13.4715V5.57642H13.6715ZM13.0001 6.24795C13.3709 6.24795 13.6715 5.9473 13.6715 5.57642H13.4715C13.4715 5.83688 13.2604 6.04795 13.0001 6.04795V6.24795ZM10.9021 6.24795H13.0001V6.04795H10.9021V6.24795ZM10.7215 6.23107C10.7806 6.24224 10.841 6.24795 10.9021 6.24795V6.04795C10.8535 6.04795 10.8055 6.04341 10.7587 6.03455L10.7215 6.23107ZM10.4871 6.15382C10.5614 6.1896 10.6401 6.2155 10.7213 6.23103L10.7589 6.03459C10.6946 6.02229 10.6324 6.00181 10.5739 5.97363L10.4871 6.15382ZM10.4189 6.11742C10.4413 6.13065 10.464 6.14268 10.4871 6.15379L10.574 5.97365C10.5555 5.96474 10.5377 5.95529 10.5204 5.94508L10.4189 6.11742ZM10.2911 6.02783C10.3314 6.06135 10.3742 6.09138 10.4192 6.11762L10.52 5.94488C10.4846 5.92425 10.4508 5.90056 10.4189 5.87402L10.2911 6.02783ZM10.2248 5.96746C10.246 5.98877 10.2683 6.00912 10.2915 6.0282L10.4185 5.87366C10.4007 5.85905 10.3834 5.84326 10.3667 5.82649L10.2248 5.96746ZM9.70283 5.44521L10.225 5.96767L10.3665 5.82628L9.84429 5.30382L9.70283 5.44521ZM9.57153 5.39077C9.62066 5.39077 9.66795 5.4104 9.70293 5.4453L9.84419 5.30372C9.77199 5.23169 9.67401 5.19077 9.57153 5.19077V5.39077ZM8.42871 5.39077H9.57153V5.19077H8.42871V5.39077ZM8.29731 5.4453C8.33229 5.4104 8.37958 5.39077 8.42871 5.39077V5.19077C8.32623 5.19077 8.22825 5.23169 8.15605 5.30372L8.29731 5.4453ZM7.7752 5.96767L8.29741 5.44521L8.15596 5.30382L7.63374 5.82628L7.7752 5.96767ZM7.09793 6.24795C7.35198 6.24849 7.59595 6.14759 7.77531 5.96755L7.63362 5.8264C7.49194 5.96862 7.29914 6.04838 7.09836 6.04795L7.09793 6.24795ZM5.00012 6.24795H7.09814V6.04795H5.00012V6.24795ZM4.32871 5.57642C4.32871 5.9473 4.62933 6.24795 5.00012 6.24795V6.04795C4.73981 6.04795 4.52871 5.83688 4.52871 5.57642H4.32871ZM4.32871 3.29077V5.57642H4.52871V3.29077H4.32871ZM16.3286 3.8623V5.57666H16.5286V3.8623H16.3286ZM15.2858 3.9623H16.4286V3.7623H15.2858V3.9623ZM15.3858 5.57666V3.8623H15.1858V5.57666H15.3858ZM16.4286 5.47666H15.2858V5.67666H16.4286V5.47666ZM7.19055 1.47642H4.29565V1.67642H7.19055V1.47642ZM8.31709 2.29647L7.25056 1.49642L7.13054 1.65641L8.19707 2.45646L8.31709 2.29647ZM8.42859 2.33359C8.38834 2.33359 8.34931 2.32059 8.31702 2.29642L8.19714 2.45651C8.26398 2.50655 8.34506 2.53359 8.42859 2.53359V2.33359ZM9.57141 2.33359H8.42859V2.53359H9.57141V2.33359ZM9.67993 2.29868C9.64836 2.32136 9.61042 2.33359 9.57141 2.33359V2.53359C9.65228 2.53359 9.73104 2.50823 9.79664 2.46109L9.67993 2.29868ZM10.7494 1.53012L9.67992 2.29868L9.79664 2.46109L10.8661 1.69253L10.7494 1.53012ZM13.7043 1.47813L10.8066 1.51133L10.8089 1.71132L13.7066 1.67812L13.7043 1.47813ZM14.5495 2.66376L13.7886 1.52265L13.6222 1.6336L14.3831 2.77471L14.5495 2.66376ZM3.53369 2.81924H14.4663V2.61924H3.53369V2.81924ZM4.21245 1.52094L3.45049 2.66376L3.61689 2.77471L4.37886 1.63189L4.21245 1.52094ZM1.57129 3.9623H2.71411V3.7623H1.57129V3.9623ZM1.67129 5.57666V3.8623H1.47129V5.57666H1.67129ZM2.71411 5.47666H1.57129V5.67666H2.71411V5.47666ZM2.61411 3.8623V5.57666H2.81411V3.8623H2.61411Z" fill="#0C49CD"/>
</svg>
