<svg width="14" height="16" viewBox="0 0 14 16" fill="none" xmlns="http://www.w3.org/2000/svg">
<path fill-rule="evenodd" clip-rule="evenodd" d="M12.3638 9.45459V12.7886C13.1201 13.3813 13.5757 14.2983 13.5757 15.2729C13.5757 15.6743 13.25 16 12.8486 16H0.727051C0.325684 16 0 15.6743 0 15.2729C0 14.2983 0.455566 13.3813 1.21191 12.7886V9.45459C1.21191 6.97021 2.8457 4.86035 5.09473 4.14209L3.41309 2.74072C3.24756 2.60254 3.15137 2.39746 3.15137 2.18164C3.15137 0.979004 4.13037 0 5.3335 0H8.24219C9.44531 0 10.4243 0.979004 10.4243 2.18164C10.4243 2.39746 10.3281 2.60254 10.1626 2.74072L8.48096 4.14209C10.73 4.86035 12.3638 6.97021 12.3638 9.45459ZM7.25928 12.937V12.6772C8.05225 12.5112 8.50293 11.9375 8.50293 11.0801C8.50293 9.9668 7.75342 9.60254 7.25928 9.4165V7.95508C7.39648 7.98047 7.50342 8.02051 7.59082 8.06055C7.63184 8.07959 7.66846 8.09814 7.70215 8.11523C7.79395 8.16211 7.87354 8.20264 7.96484 8.20264C8.2168 8.20264 8.37109 7.93213 8.37109 7.73779C8.37109 7.33301 7.72266 7.16162 7.25928 7.1123V6.94189C7.25928 6.76465 7.09033 6.60889 6.89746 6.60889C6.69775 6.60889 6.53516 6.7583 6.53516 6.94189V7.13184C5.68652 7.24902 5.2041 7.76367 5.2041 8.56445C5.2041 9.56982 5.9209 9.86621 6.53516 10.084V11.8647C6.12793 11.8066 5.93799 11.6089 5.80615 11.4722C5.71191 11.374 5.62256 11.2812 5.48584 11.2812C5.25732 11.2812 5.07275 11.5352 5.07275 11.7456C5.07275 12.1157 5.63623 12.6465 6.53516 12.7207V12.937C6.53516 13.1201 6.69775 13.2695 6.89746 13.2695C7.09033 13.2695 7.25928 13.1143 7.25928 12.937Z" fill="#DDE1E6"/>
<path d="M6.05273 8.5209C6.05273 8.85001 6.20915 9.01069 6.55273 9.1592V7.96924C6.05269 8.0794 6.05273 8.40526 6.05273 8.5209Z" fill="#DDE1E6"/>
<path d="M7.23779 10.3745V11.8097C7.57367 11.7 7.73779 11.4741 7.73779 11.1244C7.73779 10.7397 7.55862 10.5315 7.23779 10.3745Z" fill="#DDE1E6"/>
</svg>
