<svg width="18" height="18" viewBox="0 0 18 18" fill="none" xmlns="http://www.w3.org/2000/svg">
<path d="M8.98483 1.00042H7.65408C4.89934 1.00354 2.66695 3.23593 2.66383 5.99068V6.54993L1.04168 9.4895C1.01467 9.53875 1.00048 9.59402 1.00042 9.65019C0.99986 9.66909 0.99986 9.68802 1.00042 9.70692C1.01608 10.2425 1.46292 10.6639 1.99847 10.6482C2.24044 10.6617 2.47255 10.7486 2.66383 10.8974V11.979C2.66308 12.0044 2.66308 12.0298 2.66383 12.0553C2.68491 12.7691 3.28069 13.3308 3.99457 13.3097H5.99067C6.00957 13.3103 6.02851 13.3103 6.04741 13.3097C6.58296 13.294 7.00441 12.8472 6.98873 12.3116V10.3155H6.32337V12.3116C6.3253 12.3314 6.3253 12.3513 6.32337 12.3711C6.30693 12.5385 6.158 12.6607 5.99067 12.6443H3.99457C3.96803 12.646 3.9414 12.646 3.91485 12.6443C3.5694 12.6223 3.3072 12.3244 3.32922 11.979V10.7387C3.32925 10.6435 3.28842 10.5527 3.21709 10.4896C2.88343 10.1821 2.45174 10.0027 1.99847 9.98291C1.99701 9.9831 1.99551 9.98325 1.99404 9.98341C1.83364 10.0004 1.68979 9.88417 1.67276 9.72373L3.28795 6.7961C3.31496 6.74686 3.32915 6.69159 3.32922 6.63542V5.99068C3.33196 3.60325 5.26668 1.66853 7.65411 1.66578H8.98087C9.00111 1.66363 9.02154 1.6635 9.04181 1.66541C9.20992 1.68122 9.33336 1.83033 9.31755 1.99844V3.66185H9.98291V1.99847C9.98347 1.97957 9.98347 1.96064 9.98291 1.94174C9.96722 1.40619 9.52037 0.984736 8.98483 1.00042Z" fill="white" stroke="white" stroke-width="0.2"/>
<path d="M14.6405 10.9809H10.9809V11.6462H14.6404C14.6602 11.6443 14.6801 11.6443 14.6999 11.6462C14.8672 11.6627 14.9896 11.8116 14.9731 11.9789V12.6077C14.9252 12.8063 14.6045 13.975 13.6424 13.975C13.4586 13.975 13.3097 14.124 13.3097 14.3077V16.3038H6.98872V15.3058H6.32336V16.6365C6.32336 16.8203 6.47232 16.9692 6.65606 16.9692H13.6424C13.8261 16.9692 13.9751 16.8203 13.9751 16.6365V14.6111C15.0151 14.4145 15.5108 13.3173 15.6319 12.7109C15.6363 12.689 15.6385 12.6667 15.6385 12.6443V11.979C15.6391 11.9601 15.6391 11.9411 15.6385 11.9222C15.6229 11.3867 15.176 10.9652 14.6405 10.9809Z" fill="white" stroke="white" stroke-width="0.2"/>
<path d="M16.6366 4.99272H15.7978C15.7626 4.89388 15.7223 4.79694 15.6771 4.70229L16.2706 4.10879C16.4005 3.97889 16.4005 3.7683 16.2706 3.63836L15.3294 2.6972C15.1995 2.56733 14.9889 2.56733 14.859 2.6972L14.2655 3.2907C14.1708 3.24563 14.0739 3.20546 13.9751 3.17028V2.33123C13.9751 2.14749 13.8261 1.99854 13.6424 1.99854H12.3117C12.1279 1.99854 11.979 2.14749 11.979 2.33123V3.17025C11.7978 3.23422 11.6233 3.31565 11.458 3.41343L11.796 3.98631C11.983 3.87618 12.1846 3.79275 12.3948 3.73845C12.5417 3.70052 12.6443 3.56809 12.6443 3.41642V2.66392H13.3097V3.41645C13.3095 3.56806 13.4118 3.70062 13.5585 3.73882C13.7687 3.79312 13.9703 3.87655 14.1574 3.98668C14.2881 4.06394 14.4546 4.04285 14.5619 3.93544L15.0942 3.40314L15.565 3.87287L15.0327 4.40518C14.9251 4.51244 14.9039 4.67893 14.9811 4.80973C15.0914 4.99677 15.1751 5.19835 15.2296 5.40856C15.2675 5.55531 15.3998 5.65789 15.5513 5.65808H16.3039V6.32312H15.552C15.4004 6.32331 15.2682 6.42589 15.2303 6.57263C15.1758 6.78285 15.0921 6.98442 14.9818 7.17146C14.9046 7.30227 14.9258 7.46873 15.0333 7.57602L15.5656 8.10832L15.0952 8.57875L14.5629 8.04644C14.4555 7.93903 14.2891 7.91794 14.1583 7.9952C13.9713 8.10533 13.7697 8.18876 13.5595 8.24306C13.4126 8.28098 13.31 8.41341 13.31 8.56508V9.31762H12.6446V8.56543C12.6446 8.41376 12.542 8.2813 12.3951 8.2434C12.1849 8.1891 11.9834 8.10567 11.7963 7.99554C11.6655 7.91829 11.4991 7.93937 11.3917 8.04678L10.8595 8.57903L10.3891 8.1086L10.9214 7.5763C11.0289 7.46904 11.0501 7.30255 10.9729 7.17174C10.8626 6.9847 10.7789 6.78313 10.7244 6.57291C10.6865 6.42617 10.5542 6.32359 10.4027 6.3234H9.3175V6.98876H10.1565C10.1916 7.0876 10.2318 7.18453 10.2769 7.27919L9.68345 7.87269C9.55358 8.00259 9.55358 8.21318 9.68345 8.34311L10.6246 9.28427C10.7545 9.41415 10.9651 9.41415 11.095 9.28427L11.6885 8.69078C11.7832 8.73585 11.8802 8.77602 11.979 8.8112V9.65022C11.979 9.83395 12.1279 9.98291 12.3117 9.98291H13.6424C13.8261 9.98291 13.9751 9.83395 13.9751 9.65022V8.81151C14.0739 8.77633 14.1708 8.73613 14.2655 8.69109L14.859 9.28427C14.9889 9.41415 15.1995 9.41415 15.3295 9.28427L16.2706 8.34311C16.4005 8.21321 16.4005 8.00262 16.2706 7.87269L15.6768 7.27919C15.722 7.18453 15.7623 7.0876 15.7975 6.98876H16.6366C16.8203 6.98876 16.9692 6.8398 16.9692 6.65606V5.32538C16.9692 5.14165 16.8203 4.99272 16.6366 4.99272Z" fill="white" stroke="white" stroke-width="0.2"/>
<path fill-rule="evenodd" clip-rule="evenodd" d="M11.6462 5.99072C11.6462 5.25562 12.2421 4.65991 12.9769 4.65991C13.7119 4.65991 14.3077 5.25562 14.3077 5.99072C14.3077 6.72559 13.7119 7.32129 12.9769 7.32129C12.2421 7.32129 11.6462 6.72559 11.6462 5.99072ZM12.3116 5.99048C12.3116 6.35791 12.6095 6.65601 12.9771 6.65601C13.3445 6.65601 13.6423 6.35791 13.6423 5.99048C13.6423 5.62305 13.3445 5.3252 12.9771 5.3252C12.6095 5.3252 12.3116 5.62305 12.3116 5.99048Z" fill="white"/>
<path d="M12.9769 4.55991C12.1868 4.55991 11.5462 5.20039 11.5462 5.99072H11.7462C11.7462 5.31084 12.2973 4.75991 12.9769 4.75991V4.55991ZM14.4077 5.99072C14.4077 5.20038 13.7671 4.55991 12.9769 4.55991V4.75991C13.6567 4.75991 14.2077 5.31085 14.2077 5.99072H14.4077ZM12.9769 7.42129C13.7671 7.42129 14.4077 6.78083 14.4077 5.99072H14.2077C14.2077 6.67034 13.6567 7.22129 12.9769 7.22129V7.42129ZM11.5462 5.99072C11.5462 6.78083 12.1868 7.42129 12.9769 7.42129V7.22129C12.2973 7.22129 11.7462 6.67035 11.7462 5.99072H11.5462ZM12.9771 6.55601C12.6648 6.55601 12.4116 6.30272 12.4116 5.99048H12.2116C12.2116 6.4131 12.5542 6.75601 12.9771 6.75601V6.55601ZM13.5423 5.99048C13.5423 6.30273 13.2892 6.55601 12.9771 6.55601V6.75601C13.3998 6.75601 13.7423 6.41309 13.7423 5.99048H13.5423ZM12.9771 5.4252C13.2893 5.4252 13.5423 5.67828 13.5423 5.99048H13.7423C13.7423 5.56782 13.3997 5.2252 12.9771 5.2252V5.4252ZM12.4116 5.99048C12.4116 5.67829 12.6647 5.4252 12.9771 5.4252V5.2252C12.5543 5.2252 12.2116 5.56781 12.2116 5.99048H12.4116Z" fill="white"/>
<path d="M5.9907 6.32324V6.65594H4.99265V6.32324H4.32729V6.65594C4.3271 6.66514 4.3271 6.67431 4.32729 6.68351C4.3349 7.04337 4.63279 7.3289 4.99265 7.32129H5.9907C5.9999 7.32148 6.00907 7.32148 6.01827 7.32129C6.37813 7.31368 6.66366 7.0158 6.65605 6.65594V6.32324H5.9907Z" fill="white" stroke="white" stroke-width="0.2"/>
<path fill-rule="evenodd" clip-rule="evenodd" d="M9.3175 11.3137C9.3175 10.7625 9.7644 10.3157 10.3156 10.3157C10.8667 10.3157 11.3136 10.7625 11.3136 11.3137C11.3136 11.865 10.8667 12.3118 10.3156 12.3118C9.7644 12.3118 9.3175 11.865 9.3175 11.3137ZM9.98291 11.3137C9.98291 11.4973 10.1318 11.6462 10.3156 11.6462C10.4994 11.6462 10.6483 11.4973 10.6483 11.3137C10.6483 11.1299 10.4994 10.981 10.3156 10.981C10.1318 10.981 9.98291 11.1299 9.98291 11.3137Z" fill="white"/>
<path d="M10.3156 10.2157C9.70918 10.2157 9.2175 10.7072 9.2175 11.3137H9.4175C9.4175 10.8177 9.81962 10.4157 10.3156 10.4157V10.2157ZM11.4136 11.3137C11.4136 10.7072 10.9219 10.2157 10.3156 10.2157V10.4157C10.8115 10.4157 11.2136 10.8177 11.2136 11.3137H11.4136ZM10.3156 12.4118C10.9219 12.4118 11.4136 11.9202 11.4136 11.3137H11.2136C11.2136 11.8098 10.8115 12.2118 10.3156 12.2118V12.4118ZM9.2175 11.3137C9.2175 11.9202 9.70918 12.4118 10.3156 12.4118V12.2118C9.81962 12.2118 9.4175 11.8098 9.4175 11.3137H9.2175ZM10.3156 11.5462C10.187 11.5462 10.0829 11.4421 10.0829 11.3137H9.88291C9.88291 11.5526 10.0766 11.7462 10.3156 11.7462V11.5462ZM10.5483 11.3137C10.5483 11.442 10.4442 11.5462 10.3156 11.5462V11.7462C10.5546 11.7462 10.7483 11.5526 10.7483 11.3137H10.5483ZM10.3156 11.081C10.4442 11.081 10.5483 11.1851 10.5483 11.3137H10.7483C10.7483 11.0747 10.5546 10.881 10.3156 10.881V11.081ZM10.0829 11.3137C10.0829 11.1851 10.1871 11.081 10.3156 11.081V10.881C10.0766 10.881 9.88291 11.0747 9.88291 11.3137H10.0829Z" fill="white"/>
<path fill-rule="evenodd" clip-rule="evenodd" d="M5.65796 9.65015C5.65796 9.09888 6.10486 8.6521 6.65601 8.6521C7.20728 8.6521 7.65405 9.09888 7.65405 9.65015C7.65405 10.2014 7.20728 10.6482 6.65601 10.6482C6.10486 10.6482 5.65796 10.2014 5.65796 9.65015ZM6.32336 9.65015C6.32336 9.83374 6.47229 9.98267 6.65601 9.98267C6.83984 9.98267 6.98877 9.83374 6.98877 9.65015C6.98877 9.5564 6.9502 9.47192 6.88794 9.41138C6.828 9.35327 6.74622 9.31738 6.65601 9.31738C6.47229 9.31738 6.32336 9.46631 6.32336 9.65015Z" fill="white"/>
<path d="M6.88794 9.41138L6.95766 9.33969L6.95754 9.33958L6.88794 9.41138ZM6.65601 8.5521C6.04964 8.5521 5.55796 9.04364 5.55796 9.65015H5.75796C5.75796 9.15411 6.16008 8.7521 6.65601 8.7521V8.5521ZM7.75405 9.65015C7.75405 9.04365 7.2625 8.5521 6.65601 8.5521V8.7521C7.15205 8.7521 7.55405 9.15411 7.55405 9.65015H7.75405ZM6.65601 10.7482C7.2625 10.7482 7.75405 10.2566 7.75405 9.65015H7.55405C7.55405 10.1462 7.15205 10.5482 6.65601 10.5482V10.7482ZM5.55796 9.65015C5.55796 10.2567 6.04964 10.7482 6.65601 10.7482V10.5482C6.16008 10.5482 5.75796 10.1462 5.75796 9.65015H5.55796ZM6.65601 9.88267C6.52749 9.88267 6.42336 9.77849 6.42336 9.65015H6.22336C6.22336 9.88899 6.41709 10.0827 6.65601 10.0827V9.88267ZM6.88877 9.65015C6.88877 9.77846 6.78466 9.88267 6.65601 9.88267V10.0827C6.89502 10.0827 7.08877 9.88902 7.08877 9.65015H6.88877ZM6.81822 9.48306C6.8619 9.52555 6.88877 9.58448 6.88877 9.65015H7.08877C7.08877 9.52831 7.03849 9.4183 6.95766 9.33969L6.81822 9.48306ZM6.65601 9.41738C6.71915 9.41738 6.77626 9.44239 6.81833 9.48318L6.95754 9.33958C6.87974 9.26415 6.77328 9.21738 6.65601 9.21738V9.41738ZM6.42336 9.65015C6.42336 9.52151 6.52754 9.41738 6.65601 9.41738V9.21738C6.41704 9.21738 6.22336 9.4111 6.22336 9.65015H6.42336Z" fill="white"/>
<path fill-rule="evenodd" clip-rule="evenodd" d="M8.6521 4.32715C8.6521 3.77588 9.099 3.3291 9.65015 3.3291C10.2014 3.3291 10.6482 3.77588 10.6482 4.32715C10.6482 4.87842 10.2014 5.3252 9.65015 5.3252C9.099 5.3252 8.6521 4.87842 8.6521 4.32715ZM9.3175 4.32715C9.3175 4.51074 9.46643 4.65967 9.65015 4.65967C9.83398 4.65967 9.98291 4.51074 9.98291 4.32715C9.98291 4.14331 9.83398 3.99438 9.65015 3.99438C9.46643 3.99438 9.3175 4.14331 9.3175 4.32715Z" fill="white"/>
<path d="M9.65015 3.2291C9.04378 3.2291 8.5521 3.72064 8.5521 4.32715H8.7521C8.7521 3.83112 9.15422 3.4291 9.65015 3.4291V3.2291ZM10.7482 4.32715C10.7482 3.72065 10.2566 3.2291 9.65015 3.2291V3.4291C10.1462 3.4291 10.5482 3.83111 10.5482 4.32715H10.7482ZM9.65015 5.4252C10.2566 5.4252 10.7482 4.93365 10.7482 4.32715H10.5482C10.5482 4.82319 10.1462 5.2252 9.65015 5.2252V5.4252ZM8.5521 4.32715C8.5521 4.93365 9.04378 5.4252 9.65015 5.4252V5.2252C9.15422 5.2252 8.7521 4.82318 8.7521 4.32715H8.5521ZM9.65015 4.55967C9.52164 4.55967 9.4175 4.45549 9.4175 4.32715H9.2175C9.2175 4.56599 9.41123 4.75967 9.65015 4.75967V4.55967ZM9.88291 4.32715C9.88291 4.45547 9.7788 4.55967 9.65015 4.55967V4.75967C9.88917 4.75967 10.0829 4.56602 10.0829 4.32715H9.88291ZM9.65015 4.09438C9.77876 4.09438 9.88291 4.19854 9.88291 4.32715H10.0829C10.0829 4.08808 9.88921 3.89438 9.65015 3.89438V4.09438ZM9.4175 4.32715C9.4175 4.19852 9.52168 4.09438 9.65015 4.09438V3.89438C9.41118 3.89438 9.2175 4.08811 9.2175 4.32715H9.4175Z" fill="white"/>
<rect x="7.98682" y="6.32324" width="0.665357" height="0.665357" fill="white" stroke="white" stroke-width="0.2"/>
<rect x="7.98682" y="7.65405" width="0.665357" height="0.665357" fill="white" stroke="white" stroke-width="0.2"/>
<rect x="6.32336" y="13.9751" width="0.665357" height="0.665357" fill="white" stroke="white" stroke-width="0.2"/>
</svg>
