<svg width="16" height="16" viewBox="0 0 16 16" fill="none" xmlns="http://www.w3.org/2000/svg">
<path fill-rule="evenodd" clip-rule="evenodd" d="M0 8C0 3.58887 3.58887 0 8 0C12.4111 0 16 3.58887 16 8C16 12.4111 12.4111 16 8 16C3.58887 16 0 12.4111 0 8ZM7.95508 10.6841L11.6924 6.8418C12.1025 6.4209 12.1025 5.7373 11.6924 5.31592C11.2822 4.89453 10.6182 4.89453 10.208 5.31592L7.21289 8.39502L5.79199 6.93457C5.38184 6.51318 4.71777 6.51318 4.30762 6.93457C3.89746 7.35596 3.89746 8.03906 4.30762 8.46045L6.4707 10.6841C6.88037 11.1055 7.54492 11.1055 7.95508 10.6841Z" fill="#7CBF04"/>
</svg>
