<svg width="18" height="18" viewBox="0 0 18 18" fill="none" xmlns="http://www.w3.org/2000/svg">
<path fill-rule="evenodd" clip-rule="evenodd" d="M16.6666 8.65161H9.49329C9.40491 8.65161 9.33325 8.58032 9.33325 8.49194V1.33276C9.33325 1.14893 9.18408 1 8.99988 1C6.78235 1.00366 4.66516 1.92236 3.1499 3.53833C0.13623 6.76294 0.312378 11.8154 3.54321 14.8232C4.88159 16.0691 6.60767 16.8193 8.43323 16.949C8.54504 16.9568 8.65613 16.9622 8.76636 16.9653C8.8446 16.9675 8.92236 16.9688 8.99988 16.9688C11.0245 16.9749 12.9747 16.207 14.45 14.823C16.0715 13.312 16.9945 11.1987 16.9999 8.98438C16.9999 8.88306 16.9543 8.79224 16.8826 8.7312C16.8245 8.68164 16.749 8.65161 16.6666 8.65161ZM13.9999 14.3372C12.5146 15.7322 10.5103 16.4397 8.47656 16.2869C4.43347 16.0491 1.34912 12.585 1.58728 8.5498C1.81018 4.77417 4.87891 1.78979 8.66663 1.66528V8.49194C8.66394 8.51953 8.6626 8.54736 8.66272 8.57495C8.66272 8.60059 8.66406 8.62622 8.66663 8.65161H7.66663V9.31689H9.22656L14.8599 13.3757C14.6023 13.7209 14.3146 14.0427 13.9999 14.3372ZM15.23 12.8269H15.2333C15.8923 11.769 16.2709 10.5613 16.3333 9.31714H10.3633L15.23 12.8269Z" fill="#0C49CD"/>
<path d="M8.99988 1V0.9L8.99971 0.9L8.99988 1ZM3.1499 3.53833L3.07696 3.46993L3.07684 3.47005L3.1499 3.53833ZM3.54321 14.8232L3.47507 14.8964L3.47508 14.8964L3.54321 14.8232ZM8.43323 16.949L8.42614 17.0487L8.42626 17.0487L8.43323 16.949ZM8.76636 16.9653L8.76348 17.0653L8.76355 17.0653L8.76636 16.9653ZM8.99988 16.9688L9.00018 16.8687H8.99988V16.9688ZM14.45 14.823L14.3818 14.7498L14.3815 14.7501L14.45 14.823ZM16.9999 8.98438L17.0999 8.98462V8.98438H16.9999ZM16.8826 8.7312L16.8177 8.80728L16.8178 8.80738L16.8826 8.7312ZM8.47656 16.2869L8.48406 16.1871L8.48243 16.187L8.47656 16.2869ZM13.9999 14.3372L13.9316 14.2641L13.9314 14.2643L13.9999 14.3372ZM1.58728 8.5498L1.48745 8.54391L1.48745 8.54391L1.58728 8.5498ZM8.66663 1.66528H8.76663V1.56194L8.66334 1.56534L8.66663 1.66528ZM8.66663 8.49194L8.76663 8.50168V8.49194H8.66663ZM8.66272 8.57495H8.76272L8.76272 8.57451L8.66272 8.57495ZM8.66663 8.65161V8.75161H8.77723L8.76612 8.64157L8.66663 8.65161ZM7.66663 8.65161V8.55161H7.56663V8.65161H7.66663ZM7.66663 9.31689H7.56663V9.41689H7.66663V9.31689ZM9.22656 9.31689L9.28502 9.23576L9.25884 9.21689H9.22656V9.31689ZM14.8599 13.3757L14.94 13.4355L15.0008 13.354L14.9183 13.2946L14.8599 13.3757ZM15.2333 12.8269V12.9269H15.2888L15.3182 12.8798L15.2333 12.8269ZM15.23 12.8269L15.1715 12.908L15.1977 12.9269H15.23V12.8269ZM16.3333 9.31714L16.4331 9.32215L16.4384 9.21714H16.3333V9.31714ZM10.3633 9.31714V9.21714H10.0537L10.3048 9.39825L10.3633 9.31714ZM9.49329 8.75161H16.6666V8.55161H9.49329V8.75161ZM9.23325 8.49194C9.23325 8.63585 9.34998 8.75161 9.49329 8.75161V8.55161C9.45984 8.55161 9.43325 8.5248 9.43325 8.49194H9.23325ZM9.23325 1.33276V8.49194H9.43325V1.33276H9.23325ZM8.99988 1.1C9.12902 1.1 9.23325 1.20432 9.23325 1.33276H9.43325C9.43325 1.09353 9.23914 0.9 8.99988 0.9V1.1ZM3.22285 3.60673C4.71922 2.01091 6.81006 1.10362 9.00004 1.1L8.99971 0.9C6.75463 0.903708 4.6111 1.83382 3.07696 3.46993L3.22285 3.60673ZM3.61135 14.7501C0.420985 11.7799 0.247062 6.7908 3.22296 3.60661L3.07684 3.47005C0.025399 6.73507 0.203771 11.8509 3.47507 14.8964L3.61135 14.7501ZM8.44031 16.8492C6.63751 16.7212 4.93299 15.9803 3.61135 14.75L3.47508 14.8964C4.8302 16.1579 6.57782 16.9175 8.42614 17.0487L8.44031 16.8492ZM8.76924 16.8654C8.66032 16.8622 8.5506 16.8569 8.4402 16.8492L8.42626 17.0487C8.53949 17.0566 8.65194 17.0621 8.76348 17.0653L8.76924 16.8654ZM8.99988 16.8687C8.92341 16.8687 8.84659 16.8675 8.76916 16.8654L8.76355 17.0653C8.84261 17.0675 8.92132 17.0688 8.99988 17.0688V16.8687ZM14.3815 14.7501C12.9249 16.1166 10.9993 16.8748 9.00018 16.8688L8.99958 17.0688C11.0497 17.0749 13.0245 16.2974 14.5184 14.8959L14.3815 14.7501ZM16.8999 8.98413C16.8946 11.1708 15.9831 13.2577 14.3818 14.7498L14.5181 14.8962C16.1599 13.3663 17.0944 11.2267 17.0999 8.98462L16.8999 8.98413ZM16.8178 8.80738C16.8682 8.85029 16.8999 8.91371 16.8999 8.98438H17.0999C17.0999 8.85241 17.0404 8.73418 16.9473 8.65502L16.8178 8.80738ZM16.6666 8.75161C16.7243 8.75161 16.7769 8.77253 16.8177 8.80728L16.9475 8.65512C16.872 8.59075 16.7738 8.55161 16.6666 8.55161V8.75161ZM8.46907 16.3866C10.5307 16.5415 12.5627 15.8243 14.0683 14.41L13.9314 14.2643C12.4666 15.6401 10.4898 16.3379 8.48406 16.1871L8.46907 16.3866ZM1.48745 8.54391C1.24603 12.6344 4.37264 16.1457 8.47069 16.3867L8.48243 16.187C4.49431 15.9525 1.45221 12.5355 1.68711 8.5557L1.48745 8.54391ZM8.66334 1.56534C4.82413 1.69154 1.71341 4.71653 1.48745 8.54391L1.68711 8.5557C1.90695 4.83181 4.93368 1.88805 8.66991 1.76523L8.66334 1.56534ZM8.76663 8.49194V1.66528H8.56663V8.49194H8.76663ZM8.76272 8.57451C8.76261 8.55044 8.76378 8.52599 8.76616 8.50163L8.5671 8.48225C8.5641 8.51307 8.56258 8.54429 8.56272 8.57539L8.76272 8.57451ZM8.76612 8.64157C8.76388 8.61938 8.76272 8.5971 8.76272 8.57495H8.56272C8.56272 8.60407 8.56424 8.63306 8.56713 8.66166L8.76612 8.64157ZM7.66663 8.75161H8.66663V8.55161H7.66663V8.75161ZM7.76663 9.31689V8.65161H7.56663V9.31689H7.76663ZM9.22656 9.21689H7.66663V9.41689H9.22656V9.21689ZM14.9183 13.2946L9.28502 9.23576L9.16811 9.39803L14.8014 13.4569L14.9183 13.2946ZM14.0682 14.4102C14.3872 14.1117 14.6789 13.7855 14.94 13.4355L14.7797 13.3159C14.5257 13.6564 14.2419 13.9738 13.9316 14.2641L14.0682 14.4102ZM15.2333 12.7269H15.23V12.9269H15.2333V12.7269ZM16.2334 9.31213C16.1719 10.5393 15.7985 11.7306 15.1484 12.774L15.3182 12.8798C15.9862 11.8075 16.3699 10.5833 16.4331 9.32215L16.2334 9.31213ZM10.3633 9.41714H16.3333V9.21714H10.3633V9.41714ZM15.2885 12.7458L10.4218 9.23603L10.3048 9.39825L15.1715 12.908L15.2885 12.7458Z" fill="#0C49CD"/>
<path fill-rule="evenodd" clip-rule="evenodd" d="M16.6666 7.65356H11.1266C10.6892 7.65186 10.3351 7.29834 10.3333 6.86182V1.33276C10.3333 1.23486 10.3755 1.14697 10.4427 1.08618C10.502 1.03271 10.5804 1 10.6666 1C14.1644 1 16.9999 3.83008 17 7.32104C17 7.50464 16.8507 7.65356 16.6666 7.65356ZM16.3333 6.98828C16.1686 4.11938 13.8744 1.82959 10.9999 1.66528V6.86182C11.0017 6.93091 11.0574 6.98657 11.1266 6.98828H16.3333Z" fill="#0C49CD"/>
<path d="M11.1266 7.65356L11.1262 7.75356H11.1266V7.65356ZM10.3333 6.86182H10.2333L10.2333 6.86224L10.3333 6.86182ZM10.4427 1.08618L10.3757 1.01197L10.3757 1.01199L10.4427 1.08618ZM17 7.32104H17.1V7.32104L17 7.32104ZM10.9999 1.66528L11.0056 1.56545L10.8999 1.5594V1.66528H10.9999ZM16.3333 6.98828V7.08828H16.4392L16.4331 6.98255L16.3333 6.98828ZM10.9999 6.86182H10.8998L10.8999 6.86447L10.9999 6.86182ZM11.1266 6.98828L11.1241 7.08828H11.1266V6.98828ZM11.1266 7.75356H16.6666V7.55356H11.1266V7.75356ZM10.2333 6.86224C10.2353 7.35382 10.6341 7.75164 11.1262 7.75356L11.127 7.55357C10.7444 7.55207 10.4349 7.24286 10.4333 6.8614L10.2333 6.86224ZM10.2333 1.33276V6.86182H10.4333V1.33276H10.2333ZM10.3757 1.01199C10.2883 1.09096 10.2333 1.20544 10.2333 1.33276H10.4333C10.4333 1.26429 10.4627 1.20299 10.5098 1.16037L10.3757 1.01199ZM10.6666 0.9C10.5546 0.9 10.4525 0.942617 10.3757 1.01197L10.5098 1.1604C10.5514 1.12281 10.6063 1.1 10.6666 1.1V0.9ZM17.1 7.32104C17.0999 3.77467 14.2195 0.9 10.6666 0.9V1.1C14.1094 1.1 16.8999 3.88549 16.9 7.32105L17.1 7.32104ZM16.6666 7.75356C16.9057 7.75356 17.1 7.56011 17.1 7.32104H16.9C16.9 7.44917 16.7957 7.55356 16.6666 7.55356V7.75356ZM10.9942 1.76512C13.8181 1.92654 16.0717 4.17599 16.2334 6.99401L16.4331 6.98255C16.2655 4.06278 13.9307 1.73264 11.0056 1.56545L10.9942 1.76512ZM11.0999 6.86182V1.66528H10.8999V6.86182H11.0999ZM11.1291 6.88831C11.1131 6.88792 11.1003 6.87508 11.0998 6.85917L10.8999 6.86447C10.9032 6.98674 11.0016 7.08523 11.1241 7.08825L11.1291 6.88831ZM16.3333 6.88828H11.1266V7.08828H16.3333V6.88828Z" fill="#0C49CD"/>
<rect x="6.33325" y="8.65161" width="0.666656" height="0.665357" fill="#0C49CD" stroke="#0C49CD" stroke-width="0.2"/>
</svg>
