<svg width="16" height="16" viewBox="0 0 16 16" fill="none" xmlns="http://www.w3.org/2000/svg">
<rect x="7" y="9" width="1.45453" height="1.45453" fill="#DDE1E6"/>
<path fill-rule="evenodd" clip-rule="evenodd" d="M11.1514 2.90918H15.2729C15.6743 2.90918 16 3.23486 16 3.63623V6.09863L15.2729 6.28076L14.5454 6.4624L9.36523 7.75732H6.63525L1.45459 6.4624L0.727051 6.28076L0 6.09863V3.63623C0 3.23486 0.325684 2.90918 0.727051 2.90918H4.84863V0.727051C4.84863 0.569336 4.89893 0.42334 4.98438 0.304199C5.11621 0.120117 5.33203 0 5.57568 0H10.4243C10.8257 0 11.1514 0.325684 11.1514 0.727051V2.90918ZM6.30322 2.90918H9.69727V1.45459H6.30322V2.90918Z" fill="#DDE1E6"/>
<path d="M15.2727 7.18181L14.5454 7.36362L10.1818 8.45453V10.7958C10.1818 11.1974 9.85619 11.5231 9.45453 11.5231H6.54544C6.14378 11.5231 5.81816 11.1974 5.81816 10.7958V8.45453L1.45453 7.36362L0.72725 7.18181L0 7V14.6746C0 15.0763 0.325625 15.4019 0.727281 15.4019H15.2727C15.6744 15.4019 16 15.0763 16 14.6746V7L15.2727 7.18181Z" fill="#DDE1E6"/>
</svg>
