<svg width="18" height="18" viewBox="0 0 18 18" fill="none" xmlns="http://www.w3.org/2000/svg">
<g id="Cosmic">
<rect id="Rectangle 4 Copy 25" width="18" height="18" fill="#F4F7FB" fill-opacity="0.01"/>
<g id="launch">
<path id="Shape" fill-rule="evenodd" clip-rule="evenodd" d="M12.8564 5.12086C13.7684 6.0329 13.7684 7.51682 12.8564 8.42886C11.9421 9.34309 10.4625 9.34296 9.54846 8.42886C8.63635 7.51682 8.63635 6.03278 9.54846 5.12086C10.4626 4.20651 11.9423 4.20675 12.8564 5.12086ZM12.1948 5.78241C11.6462 5.23392 10.7584 5.23404 10.21 5.78241C9.66272 6.32968 9.66272 7.22003 10.21 7.7673C10.7585 8.31591 11.6464 8.31579 12.1948 7.7673C12.7419 7.22003 12.7419 6.32968 12.1948 5.78241Z" fill="#0C49CD"/>
<path id="Shape_2" fill-rule="evenodd" clip-rule="evenodd" d="M1.02161 16.3605C0.96936 16.5267 1.01367 16.7081 1.1366 16.8314C1.25964 16.9547 1.44104 16.9995 1.60718 16.9476C2.01343 16.8208 5.604 15.6812 6.57117 14.7142C6.8302 14.455 7.04102 14.1624 7.19666 13.8491C7.28577 13.8543 7.36548 13.8358 7.43689 13.7993C7.72461 13.6525 8.02734 13.5012 8.34448 13.3427L8.57019 13.2298C8.6543 14.3269 8.69739 14.8462 8.71936 15.111C8.73657 15.3194 8.74072 15.3703 8.7417 15.4212L8.74182 15.4452V15.474V15.5268C8.74268 15.876 9.11121 16.0991 9.41992 15.9436C9.43494 15.9336 9.4679 15.9177 9.51587 15.8945C9.84143 15.737 10.8563 15.2463 11.6 14.0408C12.0735 13.2731 12.3207 12.3904 12.3207 11.4881V11.1665C13.025 10.7109 13.6804 10.2243 14.2178 9.70554C16.5421 7.4615 17.067 4.6992 16.9548 1.46552C16.9463 1.21991 16.749 1.02266 16.5034 1.01413C13.2706 0.901924 10.5077 1.42641 8.26331 3.75122C7.75476 4.27802 7.27686 4.89632 6.82886 5.58504H6.4397C4.61902 5.58504 2.92542 6.62561 2.09656 8.28436L1.98413 8.5078C1.91125 8.65266 1.91846 8.82481 2.00342 8.96297C2.08838 9.10112 2.23865 9.18555 2.40088 9.18591C2.45105 9.18605 2.47705 9.18549 2.50305 9.186C2.61487 9.18816 2.72632 9.20987 4.74329 9.39023C4.54712 9.78229 4.35193 10.1742 4.16956 10.5319C4.12878 10.6118 4.11292 10.6994 4.12024 10.7846C3.80994 10.9398 3.52002 11.1492 3.26318 11.4061C2.29639 12.3727 1.14929 15.9552 1.02161 16.3605ZM7.31531 12.8119L5.15698 10.6535L5.19727 10.5735C5.28821 10.3928 5.38098 10.2072 5.48279 10.0036L5.59863 9.77193L8.1969 12.3704L7.70496 12.6163C7.57141 12.6832 7.44446 12.7468 7.31531 12.8119ZM9.47266 12.7744L9.63013 14.7612C10.6548 14.0881 11.3014 12.9797 11.3799 11.7435C10.7496 12.1096 10.101 12.4531 9.47266 12.7744ZM16.0306 1.93811C16.0464 2.96004 15.9872 3.86452 15.8447 4.67788C14.517 4.49026 13.4786 3.45176 13.291 2.12415C14.1042 1.98173 15.0088 1.92252 16.0306 1.93811ZM12.3761 2.33029C11.0101 2.71297 9.9165 3.38585 8.9364 4.40108C7.84265 5.534 6.87061 7.27547 6.0426 8.89279L9.07593 11.9263C10.6934 11.0982 12.4349 10.1261 13.5677 9.03241C14.5829 8.05239 15.2559 6.9587 15.6384 5.59272C14.825 5.46114 14.0743 5.07883 13.4822 4.4866C12.8899 3.8945 12.5078 3.14377 12.3761 2.33029ZM3.16199 8.3047C3.84668 7.25743 4.98535 6.60393 6.2511 6.54459C5.87622 7.1875 5.52478 7.85052 5.19653 8.49232L3.16199 8.3047ZM5.24792 12.0677L4.72095 11.5407C4.43225 11.6528 4.16064 11.8319 3.9248 12.0677C3.38794 12.6044 2.6554 14.4799 2.20728 15.7634C3.49341 15.318 5.37329 14.5888 5.90955 14.0525C6.14539 13.8166 6.32446 13.545 6.43652 13.2563L5.90955 12.7293L4.91711 13.7217C4.7345 13.9045 4.43811 13.9045 4.25549 13.7217C4.07275 13.5391 4.07275 13.2428 4.25549 13.0602L5.24792 12.0677Z" fill="#0C49CD"/>
<path id="Shape_3" d="M8.87857 9.09016C8.69594 8.90753 8.39964 8.90753 8.21702 9.09016C8.03427 9.2729 8.03427 9.56908 8.21702 9.75183C8.39964 9.93445 8.69594 9.93445 8.87857 9.75183C9.06132 9.56908 9.06132 9.2729 8.87857 9.09016Z" fill="#0C49CD"/>
</g>
</g>
</svg>
