<svg width="18" height="18" viewBox="0 0 18 18" fill="none" xmlns="http://www.w3.org/2000/svg">
<g id="Cosmic White">
<rect id="Rectangle 4 Copy 25" width="18" height="18" fill="#F4F7FB" fill-opacity="0.01"/>
<g id="launch">
<path id="Shape" fill-rule="evenodd" clip-rule="evenodd" d="M12.8562 5.12086C13.7683 6.0329 13.7683 7.51682 12.8562 8.42886C11.9421 9.34309 10.4624 9.34296 9.54834 8.42886C8.63623 7.51682 8.63623 6.03278 9.54834 5.12086C10.4624 4.20651 11.9421 4.20675 12.8562 5.12086ZM12.1948 5.78241C11.6462 5.23392 10.7583 5.23404 10.21 5.78241C9.66284 6.32968 9.66284 7.22003 10.21 7.7673C10.7585 8.31591 11.6462 8.31579 12.1948 7.7673C12.7419 7.22003 12.7419 6.32968 12.1948 5.78241Z" fill="white"/>
<path id="Shape_2" fill-rule="evenodd" clip-rule="evenodd" d="M1.02148 16.3605C0.969238 16.5267 1.01367 16.7081 1.13647 16.8314C1.25952 16.9547 1.44116 16.9995 1.60718 16.9476C2.01343 16.8208 5.604 15.6812 6.57104 14.7142C6.83008 14.455 7.04102 14.1624 7.19653 13.8491C7.23096 13.8511 7.26392 13.8495 7.29565 13.8448C7.31714 13.8416 7.33789 13.8369 7.35815 13.8309L7.3877 13.821C7.40454 13.8147 7.4209 13.8075 7.43701 13.7993C7.71069 13.6596 7.99805 13.5158 8.29858 13.3656L8.34253 13.3435L8.57007 13.2298C8.61401 13.8011 8.64673 14.2158 8.67114 14.5194L8.71875 15.1034C8.73657 15.3182 8.74072 15.3697 8.7417 15.4212L8.74194 15.4568V15.5268C8.74268 15.876 9.11133 16.0991 9.41992 15.9436C9.43481 15.9336 9.46777 15.9177 9.51562 15.8945C9.84131 15.737 10.8564 15.2463 11.5999 14.0408C12.0735 13.2731 12.3206 12.3904 12.3206 11.4881V11.1665C13.0249 10.7109 13.6804 10.2243 14.2178 9.70554C16.5422 7.4615 17.0671 4.6992 16.9548 1.46552C16.9463 1.21991 16.749 1.02266 16.5034 1.01413C13.2705 0.901924 10.5076 1.42641 8.26318 3.75122C7.75488 4.27802 7.27686 4.89632 6.82886 5.58504H6.4397C4.61914 5.58504 2.92554 6.62561 2.09644 8.28436L1.98413 8.5078C1.91113 8.65266 1.91846 8.82481 2.00342 8.96297C2.08838 9.10112 2.23877 9.18555 2.40088 9.18591C2.45093 9.18605 2.47705 9.18549 2.50293 9.186C2.552 9.18695 2.60107 9.19168 2.8125 9.21204C3.08179 9.23797 3.61377 9.28922 4.74341 9.39023L4.62158 9.63377C4.4668 9.94334 4.31421 10.2484 4.16968 10.5319C4.12891 10.6118 4.11304 10.6994 4.12036 10.7846C3.81006 10.9398 3.52002 11.1492 3.26318 11.4061C2.29639 12.3727 1.14917 15.9552 1.02148 16.3605ZM7.31543 12.8119L5.15698 10.6535L5.37964 10.2103L5.43237 10.1047L5.44409 10.0806L5.59863 9.77193L8.19702 12.3704C7.8562 12.5408 7.59082 12.6731 7.31543 12.8119ZM9.47266 12.7744L9.63013 14.7612C10.6548 14.0881 11.3013 12.9797 11.3799 11.7435C10.7495 12.1096 10.1008 12.4531 9.47266 12.7744ZM16.0308 1.93811C16.0464 2.96004 15.9871 3.86452 15.8447 4.67788C14.5171 4.49026 13.4785 3.45176 13.291 2.12415C14.1042 1.98173 15.0088 1.92252 16.0308 1.93811ZM12.3762 2.33029C11.0103 2.71297 9.91675 3.38585 8.93652 4.40108C7.84277 5.534 6.87061 7.27547 6.04272 8.89279L9.07617 11.9263C10.6934 11.0982 12.4351 10.1261 13.5679 9.03241C14.583 8.05239 15.2559 6.9587 15.6387 5.59272C14.8252 5.46114 14.0745 5.07883 13.4822 4.4866C12.8901 3.8945 12.5078 3.14377 12.3762 2.33029ZM3.16187 8.3047C3.84668 7.25743 4.98511 6.60393 6.25098 6.54459C5.87598 7.1875 5.52466 7.85052 5.19653 8.49232L3.16187 8.3047ZM5.24805 12.0677L4.72095 11.5407C4.43237 11.6528 4.16064 11.8319 3.9248 12.0677C3.38794 12.6044 2.65527 14.4799 2.20728 15.7634C3.49341 15.318 5.37329 14.5888 5.90942 14.0525C6.14526 13.8166 6.32446 13.545 6.43652 13.2563L5.90942 12.7293L4.91699 13.7217C4.73438 13.9045 4.43823 13.9045 4.25562 13.7217C4.07275 13.5391 4.07275 13.2428 4.25562 13.0602L5.24805 12.0677Z" fill="white"/>
<path id="Shape_3" d="M8.87845 9.09016C8.69582 8.90753 8.39952 8.90753 8.2169 9.09016C8.03415 9.2729 8.03415 9.56908 8.2169 9.75183C8.39952 9.93445 8.69582 9.93445 8.87845 9.75183C9.06119 9.56908 9.06119 9.2729 8.87845 9.09016Z" fill="white"/>
</g>
</g>
</svg>
