<svg width="18" height="18" viewBox="0 0 18 18" fill="none" xmlns="http://www.w3.org/2000/svg">
<g id="Ctypto White">
<rect id="Rectangle 4 Copy" width="18" height="18" fill="#F4F7FB" fill-opacity="0.01"/>
<g id="bitcoin (3)">
<g id="Shape">
<path fill-rule="evenodd" clip-rule="evenodd" d="M1 9C1 4.58167 4.58179 1 9 1C13.4182 1 17 4.58167 17 9C16.9949 13.4161 13.4163 16.9949 9 17C4.58179 17 1 13.4183 1 9ZM1.66675 9C1.66675 13.05 4.94995 16.3334 9 16.3334C13.0503 16.3334 16.3335 13.05 16.3335 9C16.3289 4.95178 13.0483 1.67126 9 1.66663C4.94995 1.66663 1.66675 4.94983 1.66675 9Z" fill="white"/>
<path d="M17 9L17.1 9.00012V9H17ZM9 17V17.1H9.00012L9 17ZM16.3335 9H16.4335V8.99989L16.3335 9ZM9 1.66663L9.00011 1.56663H9V1.66663ZM9 0.9C4.52656 0.9 0.9 4.52644 0.9 9H1.1C1.1 4.63689 4.63701 1.1 9 1.1V0.9ZM17.1 9C17.1 4.52644 13.4734 0.9 9 0.9V1.1C13.363 1.1 16.9 4.63689 16.9 9H17.1ZM9.00012 17.1C13.4715 17.0948 17.0948 13.4714 17.1 9.00012L16.9 8.99988C16.8949 13.3609 13.361 16.8949 8.99988 16.9L9.00012 17.1ZM0.9 9C0.9 13.4736 4.52656 17.1 9 17.1V16.9C4.63701 16.9 1.1 13.3631 1.1 9H0.9ZM9 16.2334C5.00518 16.2334 1.76675 12.9948 1.76675 9H1.56675C1.56675 13.1053 4.89472 16.4334 9 16.4334V16.2334ZM16.2335 9C16.2335 12.9948 12.9951 16.2334 9 16.2334V16.4334C13.1055 16.4334 16.4335 13.1053 16.4335 9H16.2335ZM8.99989 1.76663C12.9931 1.7712 16.2289 5.00704 16.2335 9.00011L16.4335 8.99989C16.4288 4.89653 13.1036 1.57133 9.00011 1.56663L8.99989 1.76663ZM1.76675 9C1.76675 5.00506 5.00518 1.76663 9 1.76663V1.56663C4.89472 1.56663 1.56675 4.8946 1.56675 9H1.76675Z" fill="white"/>
</g>
<g id="Shape_2">
<path fill-rule="evenodd" clip-rule="evenodd" d="M2.66675 9C2.66675 5.5022 5.5022 2.66663 9 2.66663C12.4978 2.66663 15.3335 5.5022 15.3335 9C15.3296 12.4962 12.4963 15.3295 9 15.3334C5.5022 15.3334 2.66675 12.4978 2.66675 9ZM3.3335 9C3.3335 12.1296 5.87061 14.6666 9.00024 14.6666C12.1299 14.6666 14.6667 12.1296 14.6667 9C14.6633 5.87183 12.1284 3.33679 9.00024 3.33337C5.87061 3.33337 3.3335 5.87048 3.3335 9Z" fill="white"/>
<path d="M15.3335 9L15.4335 9.00011V9H15.3335ZM9 15.3334V15.4334H9.00011L9 15.3334ZM14.6667 9H14.7667V8.99989L14.6667 9ZM9.00024 3.33337L9.00035 3.23337H9.00024V3.33337ZM9 2.56663C5.44697 2.56663 2.56675 5.44697 2.56675 9H2.76675C2.76675 5.55742 5.55743 2.76663 9 2.76663V2.56663ZM15.4335 9C15.4335 5.44697 12.553 2.56663 9 2.56663V2.76663C12.4426 2.76663 15.2335 5.55743 15.2335 9H15.4335ZM9.00011 15.4334C12.5516 15.4294 15.4295 12.5515 15.4335 9.00011L15.2335 8.99989C15.2297 12.441 12.4411 15.2295 8.99989 15.2334L9.00011 15.4334ZM2.56675 9C2.56675 12.553 5.44697 15.4334 9 15.4334V15.2334C5.55743 15.2334 2.76675 12.4426 2.76675 9H2.56675ZM9.00024 14.5666C5.92583 14.5666 3.4335 12.0744 3.4335 9H3.2335C3.2335 12.1849 5.81538 14.7666 9.00024 14.7666V14.5666ZM14.5667 9C14.5667 12.0744 12.0747 14.5666 9.00024 14.5666V14.7666C12.1851 14.7666 14.7667 12.1849 14.7667 9H14.5667ZM9.00013 3.43337C12.0732 3.43673 14.5634 5.92708 14.5667 9.00011L14.7667 8.99989C14.7633 5.81658 12.1837 3.23685 9.00035 3.23337L9.00013 3.43337ZM3.4335 9C3.4335 5.92571 5.92583 3.43337 9.00024 3.43337V3.23337C5.81538 3.23337 3.2335 5.81525 3.2335 9H3.4335Z" fill="white"/>
</g>
<g id="Shape_3">
<path fill-rule="evenodd" clip-rule="evenodd" d="M11 9C11.4197 8.6853 11.6667 8.19128 11.6667 7.66663C11.6667 6.74622 10.9204 6 10 6H7.33325C7.21899 6 7.11816 6.0575 7.05811 6.14514C7.02148 6.19873 7 6.26355 7 6.33337V11.6667C7 11.8508 7.14917 12 7.33325 12H10C10.5247 12 11.0186 11.7531 11.3333 11.3334C11.8857 10.5969 11.7363 9.55225 11 9ZM7.66675 6.66663H10C10.5525 6.66663 11 7.11438 11 7.66663C11 8.21887 10.5525 8.66663 10 8.66663H7.66675V6.66663ZM7.66675 11.3334H10C10.5525 11.3334 11 10.8856 11 10.3334C11 9.78113 10.5525 9.33337 10 9.33337H7.66675V11.3334Z" fill="white"/>
<path d="M11 9L10.94 8.91999L10.8333 8.99999L10.94 9.08L11 9ZM7.05811 6.14514L6.97561 6.08862L6.97554 6.08872L7.05811 6.14514ZM11.3333 11.3334L11.2533 11.2734L11.2532 11.2734L11.3333 11.3334ZM7.66675 6.66663V6.56663H7.56675V6.66663H7.66675ZM7.66675 8.66663H7.56675V8.76663H7.66675V8.66663ZM7.66675 11.3334H7.56675V11.4334H7.66675V11.3334ZM7.66675 9.33337V9.23337H7.56675V9.33337H7.66675ZM11.5667 7.66663C11.5667 8.1598 11.3345 8.62418 10.94 8.91999L11.06 9.08001C11.5049 8.74642 11.7667 8.22276 11.7667 7.66663H11.5667ZM10 6.1C10.8652 6.1 11.5667 6.80145 11.5667 7.66663H11.7667C11.7667 6.69098 10.9756 5.9 10 5.9V6.1ZM7.33325 6.1H10V5.9H7.33325V6.1ZM7.1406 6.20167C7.18281 6.14006 7.25337 6.1 7.33325 6.1V5.9C7.18462 5.9 7.05352 5.97493 6.97561 6.08862L7.1406 6.20167ZM7.1 6.33337C7.1 6.28437 7.11501 6.23911 7.14067 6.20156L6.97554 6.08872C6.92796 6.15835 6.9 6.24273 6.9 6.33337H7.1ZM7.1 11.6667V6.33337H6.9V11.6667H7.1ZM7.33325 11.9C7.2044 11.9 7.1 11.7956 7.1 11.6667H6.9C6.9 11.9061 7.09394 12.1 7.33325 12.1V11.9ZM10 11.9H7.33325V12.1H10V11.9ZM11.2532 11.2734C10.9574 11.6679 10.4932 11.9 10 11.9V12.1C10.5561 12.1 11.0797 11.8382 11.4133 11.3934L11.2532 11.2734ZM10.94 9.08C11.6322 9.59912 11.7726 10.5811 11.2533 11.2734L11.4132 11.3934C11.9989 10.6127 11.8405 9.50538 11.06 8.92L10.94 9.08ZM10 6.56663H7.66675V6.76663H10V6.56663ZM11.1 7.66663C11.1 7.05917 10.6077 6.56663 10 6.56663V6.76663C10.4972 6.76663 10.9 7.16959 10.9 7.66663H11.1ZM10 8.76663C10.6077 8.76663 11.1 8.27408 11.1 7.66663H10.9C10.9 8.16366 10.4972 8.56663 10 8.56663V8.76663ZM7.66675 8.76663H10V8.56663H7.66675V8.76663ZM7.56675 6.66663V8.66663H7.76675V6.66663H7.56675ZM10 11.2334H7.66675V11.4334H10V11.2334ZM10.9 10.3334C10.9 10.8304 10.4972 11.2334 10 11.2334V11.4334C10.6077 11.4334 11.1 10.9408 11.1 10.3334H10.9ZM10 9.43337C10.4972 9.43337 10.9 9.83634 10.9 10.3334H11.1C11.1 9.72592 10.6077 9.23337 10 9.23337V9.43337ZM7.66675 9.43337H10V9.23337H7.66675V9.43337ZM7.76675 11.3334V9.33337H7.56675V11.3334H7.76675Z" fill="white"/>
</g>
<rect id="Rectangle-path" x="8" y="5" width="0.666656" height="1.33334" fill="white" stroke="white" stroke-width="0.2"/>
<rect id="Rectangle-path_2" x="9.33325" y="5" width="0.666656" height="1.33334" fill="white" stroke="white" stroke-width="0.2"/>
<rect id="Rectangle-path_3" x="8" y="11.6666" width="0.666656" height="1.33334" fill="white" stroke="white" stroke-width="0.2"/>
<rect id="Rectangle-path_4" x="9.33325" y="11.6666" width="0.666656" height="1.33334" fill="white" stroke="white" stroke-width="0.2"/>
<rect id="Rectangle-path_5" x="4.33325" y="8.66663" width="0.666656" height="0.666656" fill="white" stroke="white" stroke-width="0.2"/>
<rect id="Rectangle-path_6" x="13" y="8.66663" width="0.666656" height="0.666656" fill="white" stroke="white" stroke-width="0.2"/>
</g>
</g>
</svg>
