<svg width="18" height="18" viewBox="0 0 18 18" fill="none" xmlns="http://www.w3.org/2000/svg">
<g id="Ctypto">
<rect id="Rectangle 4 Copy" width="18" height="18" fill="#F4F7FB" fill-opacity="0.01"/>
<g id="bitcoin (3)">
<g id="Shape">
<path fill-rule="evenodd" clip-rule="evenodd" d="M1 9C1 4.58167 4.58167 1 9 1C13.4183 1 17 4.58167 17 9C16.9949 13.4161 13.4161 16.9949 9 17C4.58167 17 1 13.4183 1 9ZM1.66663 9C1.66663 13.05 4.94983 16.3334 9 16.3334C13.05 16.3334 16.3334 13.05 16.3334 9C16.3287 4.95178 13.0482 1.67126 9 1.66663C4.94983 1.66663 1.66663 4.94983 1.66663 9Z" fill="#0C49CD"/>
<path d="M17 9L17.1 9.00012V9H17ZM9 17V17.1H9.00012L9 17ZM16.3334 9H16.4334V8.99989L16.3334 9ZM9 1.66663L9.00011 1.56663H9V1.66663ZM9 0.9C4.52644 0.9 0.9 4.52644 0.9 9H1.1C1.1 4.63689 4.63689 1.1 9 1.1V0.9ZM17.1 9C17.1 4.52644 13.4736 0.9 9 0.9V1.1C13.3631 1.1 16.9 4.63689 16.9 9H17.1ZM9.00012 17.1C13.4714 17.0948 17.0948 13.4714 17.1 9.00012L16.9 8.99988C16.8949 13.3609 13.3609 16.8949 8.99988 16.9L9.00012 17.1ZM0.9 9C0.9 13.4736 4.52644 17.1 9 17.1V16.9C4.63689 16.9 1.1 13.3631 1.1 9H0.9ZM9 16.2334C5.00506 16.2334 1.76663 12.9948 1.76663 9H1.56663C1.56663 13.1053 4.8946 16.4334 9 16.4334V16.2334ZM16.2334 9C16.2334 12.9948 12.9948 16.2334 9 16.2334V16.4334C13.1053 16.4334 16.4334 13.1053 16.4334 9H16.2334ZM8.99989 1.76663C12.993 1.7712 16.2288 5.00704 16.2334 9.00011L16.4334 8.99989C16.4287 4.89653 13.1035 1.57133 9.00011 1.56663L8.99989 1.76663ZM1.76663 9C1.76663 5.00506 5.00506 1.76663 9 1.76663V1.56663C4.8946 1.56663 1.56663 4.8946 1.56663 9H1.76663Z" fill="#0C49CD"/>
</g>
<g id="Shape_2">
<path fill-rule="evenodd" clip-rule="evenodd" d="M2.66663 9C2.66663 5.5022 5.5022 2.66663 9 2.66663C12.4978 2.66663 15.3334 5.5022 15.3334 9C15.3295 12.4962 12.4962 15.3295 9 15.3334C5.5022 15.3334 2.66663 12.4978 2.66663 9ZM3.33337 9C3.33337 12.1296 5.87036 14.6666 9 14.6666C12.1296 14.6666 14.6666 12.1296 14.6666 9C14.6632 5.87183 12.1282 3.33679 9 3.33337C5.87036 3.33337 3.33337 5.87048 3.33337 9Z" fill="#0C49CD"/>
<path d="M15.3334 9L15.4334 9.00011V9H15.3334ZM9 15.3334V15.4334H9.00011L9 15.3334ZM14.6666 9H14.7666V8.99989L14.6666 9ZM9 3.33337L9.00011 3.23337H9V3.33337ZM9 2.56663C5.44697 2.56663 2.56663 5.44697 2.56663 9H2.76663C2.76663 5.55743 5.55743 2.76663 9 2.76663V2.56663ZM15.4334 9C15.4334 5.44697 12.553 2.56663 9 2.56663V2.76663C12.4426 2.76663 15.2334 5.55743 15.2334 9H15.4334ZM9.00011 15.4334C12.5515 15.4294 15.4294 12.5515 15.4334 9.00011L15.2334 8.99989C15.2295 12.441 12.441 15.2295 8.99989 15.2334L9.00011 15.4334ZM2.56663 9C2.56663 12.553 5.44697 15.4334 9 15.4334V15.2334C5.55743 15.2334 2.76663 12.4426 2.76663 9H2.56663ZM9 14.5666C5.92559 14.5666 3.43337 12.0744 3.43337 9H3.23337C3.23337 12.1849 5.81513 14.7666 9 14.7666V14.5666ZM14.5666 9C14.5666 12.0744 12.0744 14.5666 9 14.5666V14.7666C12.1849 14.7666 14.7666 12.1849 14.7666 9H14.5666ZM8.99989 3.43337C12.0729 3.43673 14.5633 5.92708 14.5666 9.00011L14.7666 8.99989C14.7631 5.81657 12.1834 3.23685 9.00011 3.23337L8.99989 3.43337ZM3.43337 9C3.43337 5.92571 5.92559 3.43337 9 3.43337V3.23337C5.81513 3.23337 3.23337 5.81526 3.23337 9H3.43337Z" fill="#0C49CD"/>
</g>
<g id="Shape_3">
<path fill-rule="evenodd" clip-rule="evenodd" d="M11 9C11.4197 8.6853 11.6666 8.19128 11.6666 7.66663C11.6666 6.74622 10.9204 6 10 6H7.33337C7.14929 6 7 6.14929 7 6.33337V11.6667C7 11.8508 7.14929 12 7.33337 12H10C10.5245 12 11.0186 11.7531 11.3334 11.3334C11.8856 10.5969 11.7363 9.55225 11 9ZM7.66663 6.66663H10C10.5522 6.66663 11 7.11438 11 7.66663C11 8.21887 10.5522 8.66663 10 8.66663H7.66663V6.66663ZM7.66663 11.3334H10C10.5522 11.3334 11 10.8856 11 10.3334C11 9.78113 10.5522 9.33337 10 9.33337H7.66663V11.3334Z" fill="#0C49CD"/>
<path d="M11 9L10.94 8.91999L10.8333 8.99999L10.94 9.08L11 9ZM11.3334 11.3334L11.4134 11.3934L11.4134 11.3934L11.3334 11.3334ZM7.66663 6.66663V6.56663H7.56663V6.66663H7.66663ZM7.66663 8.66663H7.56663V8.76663H7.66663V8.66663ZM7.66663 11.3334H7.56663V11.4334H7.66663V11.3334ZM7.66663 9.33337V9.23337H7.56663V9.33337H7.66663ZM11.5666 7.66663C11.5666 8.15982 11.3345 8.62419 10.94 8.91999L11.06 9.08001C11.5049 8.74641 11.7666 8.22275 11.7666 7.66663H11.5666ZM10 6.1C10.8652 6.1 11.5666 6.80144 11.5666 7.66663H11.7666C11.7666 6.69099 10.9756 5.9 10 5.9V6.1ZM7.33337 6.1H10V5.9H7.33337V6.1ZM7.1 6.33337C7.1 6.20452 7.20452 6.1 7.33337 6.1V5.9C7.09406 5.9 6.9 6.09406 6.9 6.33337H7.1ZM7.1 11.6667V6.33337H6.9V11.6667H7.1ZM7.33337 11.9C7.20447 11.9 7.1 11.7956 7.1 11.6667H6.9C6.9 11.9061 7.09411 12.1 7.33337 12.1V11.9ZM10 11.9H7.33337V12.1H10V11.9ZM11.2534 11.2734C10.9574 11.6679 10.4931 11.9 10 11.9V12.1C10.556 12.1 11.0797 11.8382 11.4134 11.3934L11.2534 11.2734ZM10.94 9.08C11.6321 9.59911 11.7725 10.5811 11.2534 11.2734L11.4134 11.3934C11.9988 10.6127 11.8405 9.50538 11.06 8.92L10.94 9.08ZM10 6.56663H7.66663V6.76663H10V6.56663ZM11.1 7.66663C11.1 7.05915 10.6075 6.56663 10 6.56663V6.76663C10.497 6.76663 10.9 7.16961 10.9 7.66663H11.1ZM10 8.76663C10.6075 8.76663 11.1 8.2741 11.1 7.66663H10.9C10.9 8.16364 10.497 8.56663 10 8.56663V8.76663ZM7.66663 8.76663H10V8.56663H7.66663V8.76663ZM7.56663 6.66663V8.66663H7.76663V6.66663H7.56663ZM10 11.2334H7.66663V11.4334H10V11.2334ZM10.9 10.3334C10.9 10.8304 10.497 11.2334 10 11.2334V11.4334C10.6075 11.4334 11.1 10.9408 11.1 10.3334H10.9ZM10 9.43337C10.497 9.43337 10.9 9.83636 10.9 10.3334H11.1C11.1 9.7259 10.6075 9.23337 10 9.23337V9.43337ZM7.66663 9.43337H10V9.23337H7.66663V9.43337ZM7.76663 11.3334V9.33337H7.56663V11.3334H7.76663Z" fill="#0C49CD"/>
</g>
<rect id="Rectangle-path" x="8" y="5" width="0.666656" height="1.33334" fill="#0C49CD" stroke="#0C49CD" stroke-width="0.2"/>
<rect id="Rectangle-path_2" x="9.33337" y="5" width="0.666656" height="1.33334" fill="#0C49CD" stroke="#0C49CD" stroke-width="0.2"/>
<rect id="Rectangle-path_3" x="8" y="11.6666" width="0.666656" height="1.33334" fill="#0C49CD" stroke="#0C49CD" stroke-width="0.2"/>
<rect id="Rectangle-path_4" x="9.33337" y="11.6666" width="0.666656" height="1.33334" fill="#0C49CD" stroke="#0C49CD" stroke-width="0.2"/>
<rect id="Rectangle-path_5" x="4.33337" y="8.66663" width="0.666656" height="0.666656" fill="#0C49CD" stroke="#0C49CD" stroke-width="0.2"/>
<rect id="Rectangle-path_6" x="13" y="8.66663" width="0.666656" height="0.666656" fill="#0C49CD" stroke="#0C49CD" stroke-width="0.2"/>
</g>
</g>
</svg>
