<svg width="18" height="18" viewBox="0 0 18 18" fill="none" xmlns="http://www.w3.org/2000/svg">
<g id="Customs">
<rect id="Rectangle 4 Copy 37" width="18" height="18" fill="#F4F7FB" fill-opacity="0.01"/>
<g id="parking-barrier">
<g id="Shape">
<path fill-rule="evenodd" clip-rule="evenodd" d="M15.9552 6.1832H5.36646C5.36646 4.9794 4.38708 4.00003 3.18323 4.00003C1.97937 4.00003 1 4.97946 1 6.18326V14.2924C1 14.4647 1.13965 14.6043 1.31189 14.6043H5.05457C5.22681 14.6043 5.36646 14.4647 5.36646 14.2924V8.21048H15.9552C16.5142 8.21048 16.9689 7.75577 16.9689 7.19684C16.9689 6.63794 16.5142 6.1832 15.9552 6.1832ZM4.74268 6.49515V7.58676H3.56921C3.39685 7.58676 3.25732 7.72641 3.25732 7.89865C3.25732 8.07092 3.39685 8.21054 3.56921 8.21054H4.74268V13.9806H1.62378V13.291H2.79724C2.9696 13.291 3.10913 13.1513 3.10913 12.9791C3.10913 12.8068 2.9696 12.6672 2.79724 12.6672H1.62378V6.18329C1.62378 5.32343 2.32336 4.62387 3.18323 4.62387C4.04309 4.62387 4.74268 5.32346 4.74268 6.18329V6.49515ZM5.36646 7.5867H5.86108L6.64075 6.80698H5.36646V7.5867ZM8.3562 7.5867H6.74329L7.52307 6.80698H9.13599L8.3562 7.5867ZM9.2384 7.5867H10.8513L11.6311 6.80698H10.0182L9.2384 7.5867ZM13.3464 7.5867H11.7335L12.5133 6.80698H14.1262L13.3464 7.5867ZM14.2286 7.5867H15.9552C16.1702 7.5867 16.3451 7.41183 16.3451 7.19684C16.3451 6.98184 16.1702 6.80698 15.9552 6.80698H15.0084L14.2286 7.5867Z" fill="#0C49CD"/>
<path d="M5.36646 6.1832H5.26646V6.2832H5.36646V6.1832ZM5.36646 8.21048V8.11048H5.26646V8.21048H5.36646ZM4.74268 7.58676V7.68676H4.84268V7.58676H4.74268ZM4.74268 8.21054H4.84268V8.11054H4.74268V8.21054ZM4.74268 13.9806V14.0806H4.84268V13.9806H4.74268ZM1.62378 13.9806H1.52378V14.0806H1.62378V13.9806ZM1.62378 13.291V13.191H1.52378V13.291H1.62378ZM1.62378 12.6672H1.52378V12.7672H1.62378V12.6672ZM5.86108 7.5867V7.6867H5.90251L5.9318 7.65741L5.86108 7.5867ZM5.36646 7.5867H5.26646V7.6867H5.36646V7.5867ZM6.64075 6.80698L6.71146 6.87768L6.88215 6.70698H6.64075V6.80698ZM5.36646 6.80698V6.70698H5.26646V6.80698H5.36646ZM6.74329 7.5867L6.67258 7.51599L6.50185 7.6867H6.74329V7.5867ZM8.3562 7.5867V7.6867H8.39762L8.42691 7.65741L8.3562 7.5867ZM7.52307 6.80698V6.70698H7.48165L7.45236 6.73626L7.52307 6.80698ZM9.13599 6.80698L9.20669 6.87769L9.37742 6.70698H9.13599V6.80698ZM10.8513 7.5867V7.6867H10.8927L10.922 7.65741L10.8513 7.5867ZM9.2384 7.5867L9.1677 7.51599L8.99697 7.6867H9.2384V7.5867ZM11.6311 6.80698L11.7018 6.87769L11.8725 6.70698H11.6311V6.80698ZM10.0182 6.80698V6.70698H9.97677L9.94748 6.73626L10.0182 6.80698ZM11.7335 7.5867L11.6628 7.51599L11.4921 7.6867H11.7335V7.5867ZM13.3464 7.5867V7.6867H13.3879L13.4171 7.65741L13.3464 7.5867ZM12.5133 6.80698V6.70698H12.4719L12.4426 6.73626L12.5133 6.80698ZM14.1262 6.80698L14.1969 6.87769L14.3677 6.70698H14.1262V6.80698ZM14.2286 7.5867L14.1579 7.51599L13.9872 7.6867H14.2286V7.5867ZM15.0084 6.80698V6.70698H14.967L14.9377 6.73626L15.0084 6.80698ZM5.36646 6.2832H15.9552V6.0832H5.36646V6.2832ZM3.18323 4.10003C4.33186 4.10003 5.26646 5.03463 5.26646 6.1832H5.46645C5.46645 4.92417 4.44231 3.90003 3.18323 3.90003V4.10003ZM1.1 6.18326C1.1 5.03469 2.0346 4.10003 3.18323 4.10003V3.90003C1.92414 3.90003 0.9 4.92423 0.9 6.18326H1.1ZM1.1 14.2924V6.18326H0.9V14.2924H1.1ZM1.31189 14.5043C1.19487 14.5043 1.1 14.4095 1.1 14.2924H0.9C0.9 14.5199 1.08443 14.7043 1.31189 14.7043V14.5043ZM5.05457 14.5043H1.31189V14.7043H5.05457V14.5043ZM5.26646 14.2924C5.26646 14.4095 5.17158 14.5043 5.05457 14.5043V14.7043C5.28203 14.7043 5.46645 14.5199 5.46645 14.2924H5.26646ZM5.26646 8.21048V14.2924H5.46645V8.21048H5.26646ZM15.9552 8.11048H5.36646V8.31048H15.9552V8.11048ZM16.8689 7.19684C16.8689 7.70054 16.4589 8.11048 15.9552 8.11048V8.31048C16.5694 8.31048 17.0689 7.811 17.0689 7.19684H16.8689ZM15.9552 6.2832C16.4589 6.2832 16.8689 6.69317 16.8689 7.19684H17.0689C17.0689 6.58271 16.5694 6.0832 15.9552 6.0832V6.2832ZM4.84268 7.58676V6.49515H4.64268V7.58676H4.84268ZM3.56921 7.68676H4.74268V7.48676H3.56921V7.68676ZM3.35732 7.89865C3.35732 7.78161 3.4521 7.68676 3.56921 7.68676V7.48676C3.3416 7.48676 3.15732 7.67121 3.15732 7.89865H3.35732ZM3.56921 8.11054C3.4521 8.11054 3.35732 8.01571 3.35732 7.89865H3.15732C3.15732 8.12613 3.3416 8.31054 3.56921 8.31054V8.11054ZM4.74268 8.11054H3.56921V8.31054H4.74268V8.11054ZM4.84268 13.9806V8.21054H4.64268V13.9806H4.84268ZM1.62378 14.0806H4.74268V13.8806H1.62378V14.0806ZM1.52378 13.291V13.9806H1.72378V13.291H1.52378ZM2.79724 13.191H1.62378V13.391H2.79724V13.191ZM3.00913 12.9791C3.00913 13.0961 2.91435 13.191 2.79724 13.191V13.391C3.02486 13.391 3.20913 13.2065 3.20913 12.9791H3.00913ZM2.79724 12.7672C2.91436 12.7672 3.00913 12.862 3.00913 12.9791H3.20913C3.20913 12.7516 3.02485 12.5672 2.79724 12.5672V12.7672ZM1.62378 12.7672H2.79724V12.5672H1.62378V12.7672ZM1.52378 6.18329V12.6672H1.72378V6.18329H1.52378ZM3.18323 4.52387C2.26814 4.52387 1.52378 5.26819 1.52378 6.18329H1.72378C1.72378 5.37866 2.37859 4.72387 3.18323 4.72387V4.52387ZM4.84268 6.18329C4.84268 5.26823 4.09832 4.52387 3.18323 4.52387V4.72387C3.98786 4.72387 4.64268 5.37869 4.64268 6.18329H4.84268ZM4.84268 6.49515V6.18329H4.64268V6.49515H4.84268ZM5.86108 7.4867H5.36646V7.6867H5.86108V7.4867ZM6.57003 6.73627L5.79037 7.51599L5.9318 7.65741L6.71146 6.87768L6.57003 6.73627ZM5.36646 6.90698H6.64075V6.70698H5.36646V6.90698ZM5.46645 7.5867V6.80698H5.26646V7.5867H5.46645ZM6.74329 7.6867H8.3562V7.4867H6.74329V7.6867ZM7.45236 6.73626L6.67258 7.51599L6.81399 7.65741L7.59378 6.87769L7.45236 6.73626ZM9.13599 6.70698H7.52307V6.90698H9.13599V6.70698ZM8.42691 7.65741L9.20669 6.87769L9.06528 6.73626L8.28549 7.51599L8.42691 7.65741ZM10.8513 7.4867H9.2384V7.6867H10.8513V7.4867ZM11.5604 6.73626L10.7806 7.51599L10.922 7.65741L11.7018 6.87769L11.5604 6.73626ZM10.0182 6.90698H11.6311V6.70698H10.0182V6.90698ZM9.30911 7.65741L10.0889 6.87769L9.94748 6.73626L9.1677 7.51599L9.30911 7.65741ZM11.7335 7.6867H13.3464V7.4867H11.7335V7.6867ZM12.4426 6.73626L11.6628 7.51599L11.8042 7.65741L12.584 6.87769L12.4426 6.73626ZM14.1262 6.70698H12.5133V6.90698H14.1262V6.70698ZM13.4171 7.65741L14.1969 6.87769L14.0555 6.73626L13.2757 7.51599L13.4171 7.65741ZM15.9552 7.4867H14.2286V7.6867H15.9552V7.4867ZM16.2451 7.19684C16.2451 7.35659 16.115 7.4867 15.9552 7.4867V7.6867C16.2254 7.6867 16.4451 7.46708 16.4451 7.19684H16.2451ZM15.9552 6.90698C16.115 6.90698 16.2451 7.03709 16.2451 7.19684H16.4451C16.4451 6.9266 16.2254 6.70698 15.9552 6.70698V6.90698ZM15.0084 6.90698H15.9552V6.70698H15.0084V6.90698ZM14.2993 7.65741L15.0791 6.87769L14.9377 6.73626L14.1579 7.51599L14.2993 7.65741Z" fill="#0C49CD"/>
</g>
<g id="Shape_2">
<path fill-rule="evenodd" clip-rule="evenodd" d="M2.24756 6.18326C2.24756 5.66733 2.66736 5.24759 3.18323 5.24759C3.69922 5.24759 4.1189 5.66733 4.1189 6.18326C4.1189 6.69919 3.69922 7.11893 3.18323 7.11896C2.66736 7.11896 2.24756 6.69919 2.24756 6.18326ZM2.87134 6.18323C2.87134 6.35522 3.01123 6.49515 3.18323 6.49515C3.35522 6.49515 3.49512 6.35526 3.49512 6.18323C3.49512 6.01126 3.35522 5.87134 3.18323 5.87134C3.01123 5.87134 2.87134 6.01126 2.87134 6.18323Z" fill="#0C49CD"/>
<path d="M3.18323 7.11896V7.21896H3.18323L3.18323 7.11896ZM3.18323 5.14759C2.61213 5.14759 2.14756 5.6121 2.14756 6.18326H2.34756C2.34756 5.72256 2.72258 5.34759 3.18323 5.34759V5.14759ZM4.2189 6.18326C4.2189 5.6121 3.75445 5.14759 3.18323 5.14759V5.34759C3.64399 5.34759 4.0189 5.72255 4.0189 6.18326H4.2189ZM3.18323 7.21896C3.75445 7.21892 4.2189 6.75441 4.2189 6.18326H4.0189C4.0189 6.64396 3.64399 7.01893 3.18322 7.01896L3.18323 7.21896ZM2.14756 6.18326C2.14756 6.75442 2.61213 7.21896 3.18323 7.21896V7.01896C2.72259 7.01896 2.34756 6.64396 2.34756 6.18326H2.14756ZM3.18323 6.39515C3.06647 6.39515 2.97134 6.30001 2.97134 6.18323H2.77134C2.77134 6.41044 2.95599 6.59515 3.18323 6.59515V6.39515ZM3.39512 6.18323C3.39512 6.30003 3.29999 6.39515 3.18323 6.39515V6.59515C3.41046 6.59515 3.59512 6.41048 3.59512 6.18323H3.39512ZM3.18323 5.97134C3.29999 5.97134 3.39512 6.06648 3.39512 6.18323H3.59512C3.59512 5.95604 3.41046 5.77134 3.18323 5.77134V5.97134ZM2.97134 6.18323C2.97134 6.06648 3.06647 5.97134 3.18323 5.97134V5.77134C2.956 5.77134 2.77134 5.95604 2.77134 6.18323H2.97134Z" fill="#0C49CD"/>
</g>
<path id="Shape_3" d="M2.61114 7.58685H2.60315C2.43089 7.58685 2.29126 7.72649 2.29126 7.89874C2.29126 8.071 2.43089 8.21063 2.60315 8.21063H2.61114C2.78339 8.21063 2.92303 8.071 2.92303 7.89874C2.92303 7.72649 2.78339 7.58685 2.61114 7.58685Z" fill="#0C49CD" stroke="#0C49CD" stroke-width="0.2"/>
<path id="Shape_4" d="M3.76336 12.6673H3.75537C3.58311 12.6673 3.44348 12.8069 3.44348 12.9792C3.44348 13.1514 3.58311 13.291 3.75537 13.291H3.76336C3.93561 13.291 4.07525 13.1514 4.07525 12.9792C4.07525 12.8069 3.93561 12.6673 3.76336 12.6673Z" fill="#0C49CD" stroke="#0C49CD" stroke-width="0.2"/>
</g>
</g>
</svg>
