<svg width="18" height="18" viewBox="0 0 18 18" fill="none" xmlns="http://www.w3.org/2000/svg">
<g id="Customs White">
<rect id="Rectangle 4 Copy 37" width="18" height="18" fill="#F4F7FB" fill-opacity="0.01"/>
<g id="parking-barrier">
<g id="Shape">
<path fill-rule="evenodd" clip-rule="evenodd" d="M15.9553 6.1832H5.36646C5.36646 4.9794 4.38696 4.00003 3.18335 4.00003C1.97949 4.00003 1 4.97946 1 6.18326V14.2924C1 14.3753 1.03223 14.4506 1.08496 14.5064C1.14185 14.5667 1.22266 14.6043 1.31201 14.6043H5.05469C5.21484 14.6043 5.34692 14.4834 5.3645 14.3279L5.36621 14.3098L5.36646 14.2924V8.21048H15.9553C16.5142 8.21048 16.969 7.75577 16.969 7.19684C16.969 6.63794 16.5142 6.1832 15.9553 6.1832ZM4.74268 6.49515V7.58676H3.56909C3.39697 7.58676 3.25732 7.72641 3.25732 7.89865C3.25732 7.97946 3.28809 8.0531 3.33838 8.10849C3.36182 8.13425 3.3894 8.15607 3.42041 8.17282C3.44312 8.18515 3.46753 8.19476 3.49316 8.2012C3.51758 8.20731 3.54297 8.21054 3.56909 8.21054H4.74268V13.9806H1.62378V13.291H2.79736C2.96948 13.291 3.10913 13.1513 3.10913 12.9791C3.10913 12.8068 2.96948 12.6672 2.79736 12.6672H1.62378V6.18329C1.62378 5.32343 2.32324 4.62387 3.18335 4.62387C4.04321 4.62387 4.74268 5.32346 4.74268 6.18329V6.49515ZM5.36646 7.5867H5.86108L6.64087 6.80698H5.36646V7.5867ZM8.3562 7.5867H6.74316L7.52295 6.80698H9.13574L8.3562 7.5867ZM9.23853 7.5867H10.8516L11.6311 6.80698H10.0183L9.23853 7.5867ZM13.3467 7.5867H11.7336L12.5134 6.80698H14.1262L13.3467 7.5867ZM14.2288 7.5867H15.9553C16.1704 7.5867 16.3452 7.41183 16.3452 7.19684C16.3452 6.98184 16.1704 6.80698 15.9553 6.80698H15.0085L14.2288 7.5867Z" fill="white"/>
<path d="M5.36646 6.1832H5.26646V6.2832H5.36646V6.1832ZM1.08496 14.5064L1.15769 14.4378L1.15767 14.4378L1.08496 14.5064ZM5.3645 14.3279L5.46389 14.3391L5.46406 14.3373L5.3645 14.3279ZM5.36621 14.3098L5.46609 14.3193L5.4662 14.3112L5.36621 14.3098ZM5.36646 14.2924L5.46645 14.2938V14.2924H5.36646ZM5.36646 8.21048V8.11048H5.26646V8.21048H5.36646ZM4.74268 7.58676V7.68676H4.84268V7.58676H4.74268ZM3.33838 8.10849L3.26434 8.17571L3.26442 8.17579L3.33838 8.10849ZM3.42041 8.17282L3.46813 8.08494L3.46795 8.08484L3.42041 8.17282ZM3.49316 8.2012L3.4688 8.29819L3.46891 8.29822L3.49316 8.2012ZM4.74268 8.21054H4.84268V8.11054H4.74268V8.21054ZM4.74268 13.9806V14.0806H4.84268V13.9806H4.74268ZM1.62378 13.9806H1.52378V14.0806H1.62378V13.9806ZM1.62378 13.291V13.191H1.52378V13.291H1.62378ZM1.62378 12.6672H1.52378V12.7672H1.62378V12.6672ZM5.86108 7.5867V7.6867H5.9025L5.93179 7.65741L5.86108 7.5867ZM5.36646 7.5867H5.26646V7.6867H5.36646V7.5867ZM6.64087 6.80698L6.71158 6.87769L6.8823 6.70698H6.64087V6.80698ZM5.36646 6.80698V6.70698H5.26646V6.80698H5.36646ZM6.74316 7.5867L6.67246 7.51599L6.50173 7.6867H6.74316V7.5867ZM8.3562 7.5867V7.6867H8.39763L8.42692 7.6574L8.3562 7.5867ZM7.52295 6.80698V6.70698H7.48153L7.45224 6.73626L7.52295 6.80698ZM9.13574 6.80698L9.20646 6.87768L9.37712 6.70698H9.13574V6.80698ZM10.8516 7.5867V7.6867H10.893L10.9223 7.6574L10.8516 7.5867ZM9.23853 7.5867L9.16782 7.51599L8.99709 7.6867H9.23853V7.5867ZM11.6311 6.80698L11.7018 6.87768L11.8725 6.70698H11.6311V6.80698ZM10.0183 6.80698V6.70698H9.97689L9.9476 6.73626L10.0183 6.80698ZM11.7336 7.5867L11.6629 7.51599L11.4922 7.6867H11.7336V7.5867ZM13.3467 7.5867V7.6867H13.3881L13.4174 7.6574L13.3467 7.5867ZM12.5134 6.80698V6.70698H12.472L12.4427 6.73626L12.5134 6.80698ZM14.1262 6.80698L14.1969 6.87768L14.3676 6.70698H14.1262V6.80698ZM14.2288 7.5867L14.1581 7.51599L13.9873 7.6867H14.2288V7.5867ZM15.0085 6.80698V6.70698H14.9671L14.9378 6.73626L15.0085 6.80698ZM5.36646 6.2832H15.9553V6.0832H5.36646V6.2832ZM3.18335 4.10003C4.33174 4.10003 5.26646 5.03463 5.26646 6.1832H5.46645C5.46645 4.92417 4.44219 3.90003 3.18335 3.90003V4.10003ZM1.1 6.18326C1.1 5.0347 2.03472 4.10003 3.18335 4.10003V3.90003C1.92427 3.90003 0.9 4.92423 0.9 6.18326H1.1ZM1.1 14.2924V6.18326H0.9V14.2924H1.1ZM1.15767 14.4378C1.12182 14.3998 1.1 14.3488 1.1 14.2924H0.9C0.9 14.4017 0.942632 14.5014 1.01225 14.5751L1.15767 14.4378ZM1.31201 14.5043C1.25124 14.5043 1.19642 14.4788 1.15769 14.4378L1.01224 14.5751C1.08727 14.6546 1.19407 14.7043 1.31201 14.7043V14.5043ZM5.05469 14.5043H1.31201V14.7043H5.05469V14.5043ZM5.26513 14.3167C5.25321 14.4222 5.16339 14.5043 5.05469 14.5043V14.7043C5.2663 14.7043 5.44064 14.5447 5.46387 14.3391L5.26513 14.3167ZM5.26666 14.3004L5.26495 14.3184L5.46406 14.3373L5.46576 14.3193L5.26666 14.3004ZM5.26646 14.291L5.26622 14.3084L5.4662 14.3112L5.46645 14.2938L5.26646 14.291ZM5.26646 8.21048V14.2924H5.46645V8.21048H5.26646ZM15.9553 8.11048H5.36646V8.31048H15.9553V8.11048ZM16.869 7.19684C16.869 7.70053 16.4589 8.11048 15.9553 8.11048V8.31048C16.5694 8.31048 17.069 7.81101 17.069 7.19684H16.869ZM15.9553 6.2832C16.4589 6.2832 16.869 6.69318 16.869 7.19684H17.069C17.069 6.5827 16.5694 6.0832 15.9553 6.0832V6.2832ZM4.84268 7.58676V6.49515H4.64268V7.58676H4.84268ZM3.56909 7.68676H4.74268V7.48676H3.56909V7.68676ZM3.35732 7.89865C3.35732 7.78161 3.45223 7.68676 3.56909 7.68676V7.48676C3.34172 7.48676 3.15732 7.67121 3.15732 7.89865H3.35732ZM3.41241 8.04127C3.37814 8.00352 3.35732 7.9536 3.35732 7.89865H3.15732C3.15732 8.00532 3.19803 8.10268 3.26434 8.17571L3.41241 8.04127ZM3.46795 8.08484C3.4471 8.07358 3.42839 8.05883 3.41234 8.04119L3.26442 8.17579C3.29524 8.20966 3.3317 8.23855 3.37287 8.2608L3.46795 8.08484ZM3.51753 8.10422C3.50015 8.09985 3.48358 8.09333 3.46813 8.08494L3.37269 8.2607C3.40265 8.27697 3.43491 8.28967 3.4688 8.29819L3.51753 8.10422ZM3.56909 8.11054C3.55128 8.11054 3.53403 8.10834 3.51742 8.10419L3.46891 8.29822C3.50113 8.30627 3.53466 8.31054 3.56909 8.31054V8.11054ZM4.74268 8.11054H3.56909V8.31054H4.74268V8.11054ZM4.84268 13.9806V8.21054H4.64268V13.9806H4.84268ZM1.62378 14.0806H4.74268V13.8806H1.62378V14.0806ZM1.52378 13.291V13.9806H1.72378V13.291H1.52378ZM2.79736 13.191H1.62378V13.391H2.79736V13.191ZM3.00913 12.9791C3.00913 13.0961 2.91423 13.191 2.79736 13.191V13.391C3.02474 13.391 3.20913 13.2065 3.20913 12.9791H3.00913ZM2.79736 12.7672C2.91423 12.7672 3.00913 12.862 3.00913 12.9791H3.20913C3.20913 12.7516 3.02473 12.5672 2.79736 12.5672V12.7672ZM1.62378 12.7672H2.79736V12.5672H1.62378V12.7672ZM1.52378 6.18329V12.6672H1.72378V6.18329H1.52378ZM3.18335 4.52387C2.26802 4.52387 1.52378 5.26819 1.52378 6.18329H1.72378C1.72378 5.37866 2.37847 4.72387 3.18335 4.72387V4.52387ZM4.84268 6.18329C4.84268 5.26824 4.09845 4.52387 3.18335 4.52387V4.72387C3.98798 4.72387 4.64268 5.37868 4.64268 6.18329H4.84268ZM4.84268 6.49515V6.18329H4.64268V6.49515H4.84268ZM5.86108 7.4867H5.36646V7.6867H5.86108V7.4867ZM6.57016 6.73626L5.79038 7.51599L5.93179 7.65741L6.71158 6.87769L6.57016 6.73626ZM5.36646 6.90698H6.64087V6.70698H5.36646V6.90698ZM5.46645 7.5867V6.80698H5.26646V7.5867H5.46645ZM6.74316 7.6867H8.3562V7.4867H6.74316V7.6867ZM7.45224 6.73626L6.67246 7.51599L6.81387 7.65741L7.59366 6.87769L7.45224 6.73626ZM9.13574 6.70698H7.52295V6.90698H9.13574V6.70698ZM8.42692 7.6574L9.20646 6.87768L9.06502 6.73627L8.28548 7.516L8.42692 7.6574ZM10.8516 7.4867H9.23853V7.6867H10.8516V7.4867ZM11.5604 6.73627L10.7808 7.516L10.9223 7.6574L11.7018 6.87768L11.5604 6.73627ZM10.0183 6.90698H11.6311V6.70698H10.0183V6.90698ZM9.30923 7.65741L10.089 6.87769L9.9476 6.73626L9.16782 7.51599L9.30923 7.65741ZM11.7336 7.6867H13.3467V7.4867H11.7336V7.6867ZM12.4427 6.73626L11.6629 7.51599L11.8044 7.65741L12.5841 6.87769L12.4427 6.73626ZM14.1262 6.70698H12.5134V6.90698H14.1262V6.70698ZM13.4174 7.6574L14.1969 6.87768L14.0555 6.73627L13.276 7.516L13.4174 7.6574ZM15.9553 7.4867H14.2288V7.6867H15.9553V7.4867ZM16.2452 7.19684C16.2452 7.35661 16.1152 7.4867 15.9553 7.4867V7.6867C16.2256 7.6867 16.4452 7.46706 16.4452 7.19684H16.2452ZM15.9553 6.90698C16.1152 6.90698 16.2452 7.03707 16.2452 7.19684H16.4452C16.4452 6.92662 16.2256 6.70698 15.9553 6.70698V6.90698ZM15.0085 6.90698H15.9553V6.70698H15.0085V6.90698ZM14.2995 7.65741L15.0793 6.87769L14.9378 6.73626L14.1581 7.51599L14.2995 7.65741Z" fill="white"/>
</g>
<g id="Shape_2">
<path fill-rule="evenodd" clip-rule="evenodd" d="M2.24756 6.18326C2.24756 5.66733 2.66724 5.24759 3.18335 5.24759C3.69922 5.24759 4.1189 5.66733 4.1189 6.18326C4.1189 6.69919 3.69922 7.11893 3.18335 7.11896C2.66724 7.11896 2.24756 6.69919 2.24756 6.18326ZM2.87134 6.18323C2.87134 6.35522 3.01123 6.49515 3.18335 6.49515C3.35522 6.49515 3.49512 6.35526 3.49512 6.18323C3.49512 6.01126 3.35522 5.87134 3.18335 5.87134C3.01123 5.87134 2.87134 6.01126 2.87134 6.18323Z" fill="white"/>
<path d="M3.18335 7.11896V7.21896H3.18336L3.18335 7.11896ZM3.18335 5.14759C2.61201 5.14759 2.14756 5.6121 2.14756 6.18326H2.34756C2.34756 5.72256 2.72246 5.34759 3.18335 5.34759V5.14759ZM4.2189 6.18326C4.2189 5.61211 3.75446 5.14759 3.18335 5.14759V5.34759C3.64398 5.34759 4.0189 5.72254 4.0189 6.18326H4.2189ZM3.18336 7.21896C3.75446 7.21892 4.2189 6.75441 4.2189 6.18326H4.0189C4.0189 6.64397 3.64398 7.01893 3.18334 7.01896L3.18336 7.21896ZM2.14756 6.18326C2.14756 6.75442 2.61201 7.21896 3.18335 7.21896V7.01896C2.72246 7.01896 2.34756 6.64396 2.34756 6.18326H2.14756ZM3.18335 6.39515C3.06645 6.39515 2.97134 6.29998 2.97134 6.18323H2.77134C2.77134 6.41047 2.95601 6.59515 3.18335 6.59515V6.39515ZM3.39512 6.18323C3.39512 6.30006 3.29996 6.39515 3.18335 6.39515V6.59515C3.41048 6.59515 3.59512 6.41045 3.59512 6.18323H3.39512ZM3.18335 5.97134C3.29996 5.97134 3.39512 6.06646 3.39512 6.18323H3.59512C3.59512 5.95606 3.41048 5.77134 3.18335 5.77134V5.97134ZM2.97134 6.18323C2.97134 6.06651 3.06644 5.97134 3.18335 5.97134V5.77134C2.95602 5.77134 2.77134 5.95601 2.77134 6.18323H2.97134Z" fill="white"/>
</g>
<path id="Shape_3" d="M2.61114 7.58685H2.60315C2.43089 7.58685 2.29126 7.72649 2.29126 7.89874C2.29126 8.071 2.43089 8.21063 2.60315 8.21063H2.61114C2.78339 8.21063 2.92303 8.071 2.92303 7.89874C2.92303 7.72649 2.78339 7.58685 2.61114 7.58685Z" fill="white" stroke="white" stroke-width="0.2"/>
<path id="Shape_4" d="M3.76323 12.6673H3.75525C3.58299 12.6673 3.44336 12.8069 3.44336 12.9792C3.44336 13.1514 3.58299 13.291 3.75525 13.291H3.76323C3.93549 13.291 4.07513 13.1514 4.07513 12.9792C4.07513 12.8069 3.93549 12.6673 3.76323 12.6673Z" fill="white" stroke="white" stroke-width="0.2"/>
</g>
</g>
</svg>
