<svg width="18" height="18" viewBox="0 0 18 18" fill="none" xmlns="http://www.w3.org/2000/svg">
<g id="Cybersecurity White">
<rect id="Rectangle 4 Copy 3" width="18" height="18" fill="#F4F7FB" fill-opacity="0.01"/>
<g id="Shield">
<g id="Shape">
<path fill-rule="evenodd" clip-rule="evenodd" d="M13.25 1.3125C13.25 2.17407 13.9509 2.875 14.8125 2.875C14.8884 2.875 14.958 2.9021 15.0122 2.94714C15.0811 3.00439 15.125 3.09082 15.125 3.1875V8.28723C15.125 12.3484 12.4504 15.8474 8.65234 16.9868C8.62305 16.9956 8.59277 17 8.5625 17C8.53223 17 8.50195 16.9956 8.47266 16.9868C4.59058 15.8226 2 12.2615 2 8.28723V3.1875C2 3.01489 2.13989 2.875 2.3125 2.875C3.17407 2.875 3.875 2.17407 3.875 1.3125C3.875 1.13989 4.01489 1 4.1875 1H12.9375C13.1101 1 13.25 1.13989 13.25 1.3125ZM8.5625 16.3607C12.1182 15.2526 14.5 12.0199 14.5 8.28723V3.47778C13.5435 3.34033 12.7847 2.58154 12.6472 1.625H4.47778C4.34033 2.58154 3.58154 3.34033 2.625 3.47778V8.28723C2.625 11.9995 5.03516 15.2614 8.5625 16.3607Z" fill="white"/>
<path d="M15.0122 2.94714L15.0761 2.87025L15.0761 2.87024L15.0122 2.94714ZM8.65234 16.9868L8.62361 16.891L8.62361 16.891L8.65234 16.9868ZM8.47266 16.9868L8.50139 16.891L8.50138 16.891L8.47266 16.9868ZM8.5625 16.3607L8.53274 16.4562L8.5625 16.4655L8.59225 16.4562L8.5625 16.3607ZM14.5 3.47778H14.6V3.39113L14.5142 3.3788L14.5 3.47778ZM12.6472 1.625L12.7462 1.61078L12.7339 1.525H12.6472V1.625ZM4.47778 1.625V1.525H4.39113L4.3788 1.61078L4.47778 1.625ZM2.625 3.47778L2.61078 3.3788L2.525 3.39113V3.47778H2.625ZM14.8125 2.775C14.0062 2.775 13.35 2.11884 13.35 1.3125H13.15C13.15 2.2293 13.8957 2.975 14.8125 2.975V2.775ZM15.0761 2.87024C15.0047 2.81085 14.9127 2.775 14.8125 2.775V2.975C14.8642 2.975 14.9113 2.99335 14.9483 3.02405L15.0761 2.87024ZM15.225 3.1875C15.225 3.05984 15.1668 2.94568 15.0761 2.87025L14.9483 3.02403C14.9953 3.06311 15.025 3.1218 15.025 3.1875H15.225ZM15.225 8.28723V3.1875H15.025V8.28723H15.225ZM8.68108 17.0826C12.5209 15.9307 15.225 12.3932 15.225 8.28723H15.025C15.025 12.3036 12.38 15.7641 8.62361 16.891L8.68108 17.0826ZM8.5625 17.1C8.60245 17.1 8.64241 17.0942 8.68108 17.0826L8.62361 16.891C8.60369 16.897 8.5831 16.9 8.5625 16.9V17.1ZM8.44392 17.0826C8.48259 17.0942 8.52255 17.1 8.5625 17.1V16.9C8.5419 16.9 8.52131 16.897 8.50139 16.891L8.44392 17.0826ZM1.9 8.28723C1.9 12.3051 4.51905 15.9056 8.44393 17.0826L8.50138 16.891C4.66211 15.7397 2.1 12.2178 2.1 8.28723H1.9ZM1.9 3.1875V8.28723H2.1V3.1875H1.9ZM2.3125 2.775C2.08466 2.775 1.9 2.95966 1.9 3.1875H2.1C2.1 3.07012 2.19512 2.975 2.3125 2.975V2.775ZM3.775 1.3125C3.775 2.11884 3.11884 2.775 2.3125 2.775V2.975C3.2293 2.975 3.975 2.2293 3.975 1.3125H3.775ZM4.1875 0.9C3.95966 0.9 3.775 1.08466 3.775 1.3125H3.975C3.975 1.19512 4.07012 1.1 4.1875 1.1V0.9ZM12.9375 0.9H4.1875V1.1H12.9375V0.9ZM13.35 1.3125C13.35 1.08466 13.1653 0.9 12.9375 0.9V1.1C13.0549 1.1 13.15 1.19512 13.15 1.3125H13.35ZM14.4 8.28723C14.4 11.9761 12.0466 15.1701 8.53275 16.2652L8.59225 16.4562C12.1897 15.335 14.6 12.0637 14.6 8.28723H14.4ZM14.4 3.47778V8.28723H14.6V3.47778H14.4ZM12.5482 1.63922C12.692 2.6397 13.4853 3.433 14.4858 3.57677L14.5142 3.3788C13.6016 3.24766 12.8773 2.52339 12.7462 1.61078L12.5482 1.63922ZM4.47778 1.725H12.6472V1.525H4.47778V1.725ZM2.63922 3.57677C3.6397 3.433 4.433 2.6397 4.57677 1.63922L4.3788 1.61078C4.24766 2.52339 3.52339 3.24766 2.61078 3.3788L2.63922 3.57677ZM2.725 8.28723V3.47778H2.525V8.28723H2.725ZM8.59226 16.2652C5.10663 15.1789 2.725 11.9557 2.725 8.28723H2.525C2.525 12.0433 4.96368 15.3438 8.53274 16.4562L8.59226 16.2652Z" fill="white"/>
</g>
<path id="Shape_2" fill-rule="evenodd" clip-rule="evenodd" d="M4.17847 8.30359C4.17847 5.86658 6.16113 3.88391 8.59814 3.88391C11.0352 3.88391 13.0178 5.86658 13.0178 8.30359C13.0178 10.7406 11.0352 12.7231 8.59814 12.7231C6.16113 12.7231 4.17847 10.7406 4.17847 8.30359ZM5.16064 8.30359C5.16064 10.199 6.70264 11.7411 8.59814 11.7411C10.4937 11.7411 12.0356 10.199 12.0356 8.30359C12.0356 6.4082 10.4937 4.86609 8.59814 4.86609C6.70264 4.86609 5.16064 6.4082 5.16064 8.30359Z" fill="white"/>
<path id="Shape_3" d="M10.9096 6.97411C10.7178 6.78239 10.407 6.78239 10.2151 6.97411L8.10704 9.08223L7.47213 8.44737C7.28032 8.25566 6.96947 8.25566 6.77761 8.44737C6.58585 8.63913 6.58585 8.95008 6.77761 9.14189L7.75975 10.124C7.85571 10.2198 7.98133 10.2678 8.10704 10.2678C8.23275 10.2678 8.35837 10.2198 8.45428 10.124L10.9096 7.66863C11.1014 7.47687 11.1014 7.16592 10.9096 6.97411Z" fill="white"/>
</g>
</g>
</svg>
