<?xml version="1.0" encoding="UTF-8" standalone="no"?>
<svg width="18px" height="18px" viewBox="0 0 18 18" version="1.1" xmlns="http://www.w3.org/2000/svg" xmlns:xlink="http://www.w3.org/1999/xlink">
    <!-- Generator: Sketch 50.2 (55047) - http://www.bohemiancoding.com/sketch -->
    <title>Drone</title>
    <desc>Created with Sketch.</desc>
    <defs></defs>
    <g id="sk-0.9-Icons,-Language,-Error" stroke="none" stroke-width="1" fill="none" fill-rule="evenodd">
        <g id="Icons" transform="translate(-174.000000, -1588.000000)">
            <g id="Drone" transform="translate(174.000000, 1588.000000)">
                <rect id="Rectangle-4-Copy-22" fill-opacity="0" fill="#F4F7FB" x="0" y="0" width="18" height="18"></rect>
                <g id="drone" transform="translate(1.000000, 1.000000)" fill="#0C49CD" fill-rule="nonzero" stroke="#0C49CD" stroke-width="0.2">
                    <path d="M8.65953125,7.34084375 C8.4835625,7.164875 8.2495625,7.0679375 8.0006875,7.0679375 C7.7518125,7.0679375 7.51784375,7.164875 7.341875,7.34084375 C6.76015625,7.9225625 7.16740625,8.93134375 8.0006875,8.93134375 C8.8276875,8.93134375 9.24478125,7.926125 8.65953125,7.34084375 Z M8.00065625,8.46234375 C7.5913125,8.46234375 7.381375,7.9645 7.67346875,7.67246875 C7.760875,7.5850625 7.87703125,7.53696875 8.00065625,7.53696875 C8.12425,7.53696875 8.24046875,7.58509375 8.327875,7.6725 C8.6184375,7.96303125 8.4115625,8.46234375 8.00065625,8.46234375 Z" id="Shape"></path>
                    <path d="M15.1221563,10.8809062 C14.1616563,9.9204375 12.7186875,9.7511875 11.5865938,10.3575937 L10.39925,9.17025 L10.39925,8.54684375 C10.39925,8.41734375 10.29425,8.31234375 10.16475,8.31234375 C10.03525,8.31234375 9.93025,8.41734375 9.93025,8.54684375 L9.93025,9.26734375 C9.93025,9.40553125 9.77178125,9.2060625 12.6887813,12.1229687 C12.4271875,12.2161875 12.2169687,12.4266562 12.124,12.68775 C9.2213125,9.78503125 9.40715625,9.92925 9.26834375,9.92925 C6.5201875,9.92925 6.66165625,9.9033125 6.5670625,9.9979375 L3.87725,12.6878125 C3.78203125,12.4203125 3.56775,12.213875 3.31253125,12.123 C6.21521875,9.22028125 6.0709375,9.4061875 6.0709375,9.26740625 C6.0709375,6.5223125 6.097375,6.66121875 6.00225,6.5660625 L3.31240625,3.87628125 C3.56971875,3.78465625 3.78278125,3.57678125 3.8771875,3.31153125 C6.790625,6.2249375 6.59446875,6.0700625 6.7328125,6.0700625 L7.45340625,6.0700625 C7.58290625,6.0700625 7.68790625,5.9650625 7.68790625,5.8355625 C7.68790625,5.7060625 7.58290625,5.6010625 7.45340625,5.6010625 L6.8299375,5.6010625 L5.6426875,4.4138125 C5.9384375,3.86171875 6.05490625,3.216 5.97009375,2.59215625 C5.6344375,0.123625 2.618,-0.86059375 0.8793125,0.87821875 C0.31296875,1.4445625 0.00103125,2.19746875 0.00103125,2.99834375 C0.00103125,3.79921875 0.3129375,4.55215625 0.87928125,5.1185 C1.83996875,6.0791875 3.2839375,6.24803125 4.41503125,5.64209375 L5.602,6.8290625 L5.602,9.17034375 L4.41428125,10.3580625 C4.4076875,10.3536875 4.40078125,10.3495937 4.393625,10.3458437 C3.8395625,10.0546875 3.19165625,9.94384375 2.5690625,10.0335625 C0.11903125,10.3869687 -0.85384375,13.388 0.87925,15.121125 C2.04821875,16.2900312 3.950375,16.290125 5.11940625,15.121125 C6.0550625,14.1854375 6.26396875,12.7442812 5.64275,11.585625 L6.83009375,10.3982187 L9.1713125,10.3982187 L10.358375,11.5853125 C10.0611562,12.14 9.945375,12.7899687 10.0325313,13.416375 C10.123,14.0663437 10.41675,14.6558437 10.8819375,15.1210937 C12.0537188,16.292875 13.9501563,16.293 15.122125,15.1210937 C16.2911875,13.9520625 16.2911875,12.0499375 15.1221563,10.8809062 Z M3.392125,3.2423125 C3.15728125,3.6164375 2.570125,3.483125 2.5384375,3.03090625 C2.536125,2.9983125 2.53734375,2.9670625 2.54159375,2.93603125 C2.54728125,2.89365625 2.5590625,2.8515 2.5765,2.811625 C2.59184375,2.7768125 2.60390625,2.75728125 2.61959375,2.73465625 C2.62825,2.7221875 2.6368125,2.71096875 2.644375,2.701875 C2.64528125,2.70078125 2.67215625,2.66965625 2.67215625,2.671125 C2.7593125,2.58403125 2.87509375,2.53609375 2.99846875,2.53609375 C3.366875,2.53609375 3.57925,2.93946875 3.392125,3.2423125 Z M2.33559375,1.93528125 C2.521125,1.93528125 2.61121875,2.0454375 2.68609375,2.12034375 C2.432125,2.21078125 2.2175,2.4158125 2.121875,2.68559375 C2.046625,2.61034375 1.93625,2.5205 1.93625,2.33459375 C1.93625,2.13696875 2.08459375,2.0209375 2.0533125,2.0521875 C2.12778125,1.97771875 2.227625,1.93528125 2.33559375,1.93528125 Z M5.29321875,4.06425 L3.85271875,2.62375 C3.8380625,2.590375 3.8215,2.55784375 3.80296875,2.5263125 L4.94559375,1.38378125 C5.5635,2.130375 5.7021875,3.182875 5.29321875,4.06425 Z M4.61425,1.0518125 L3.4713125,2.19465625 C3.4398125,2.17609375 3.40728125,2.1595625 3.3739375,2.14490625 L2.94959375,1.72053125 C2.78559375,1.5565625 2.56753125,1.46628125 2.33559375,1.46628125 C2.1840625,1.46628125 2.038625,1.5050625 1.91021875,1.57746875 L1.3845625,1.05184375 C2.318875,0.273875 3.68053125,0.27446875 4.61425,1.0518125 Z M0.47003125,2.99834375 C0.47003125,2.4015625 0.675625,1.83653125 1.052875,1.38353125 L1.57853125,1.909125 C1.3935,2.23715625 1.4375,2.66453125 1.721625,2.94859375 L2.1470625,3.3740625 C2.1614375,3.4068125 2.177625,3.4389375 2.1959375,3.4701875 L1.05290625,4.6131875 C0.67565625,4.160125 0.47003125,3.59509375 0.47003125,2.99834375 Z M1.38484375,4.94446875 L2.52740625,3.80190625 C2.5588125,3.82040625 2.59125,3.83690625 2.6245,3.85153125 L4.06525,5.29228125 C3.184375,5.7006875 2.1306875,5.56134375 1.38484375,4.94446875 Z M3.32653125,12.6738125 C3.3360625,12.6833437 3.34490625,12.6933437 3.35346875,12.7035312 C3.35684375,12.7075937 3.36009375,12.7117187 3.3633125,12.715875 C3.367875,12.7216875 3.37221875,12.7275937 3.37646875,12.7335625 C3.3805625,12.739375 3.38475,12.7451562 3.3885625,12.7511562 C3.38946875,12.7525625 3.39028125,12.7540625 3.3911875,12.7555 C3.46290625,12.8706562 3.4846875,13.0109062 3.43046875,13.1685312 C3.30375,13.495 2.8708125,13.5680937 2.64421875,13.2972812 C2.6366875,13.2882187 2.62790625,13.27675 2.61925,13.2641875 C2.61003125,13.2508437 2.60425,13.2426875 2.5926875,13.2212187 C2.58809375,13.2126875 2.57971875,13.1949687 2.57634375,13.18725 C2.56803125,13.16825 2.56746875,13.1655937 2.56378125,13.1552187 C2.55253125,13.1232187 2.54784375,13.0994375 2.54784375,13.0994375 C2.54584375,13.0901562 2.54421875,13.0807812 2.54278125,13.0714375 C2.542375,13.0687187 2.54196875,13.066 2.54159375,13.0632812 C2.53753125,13.033 2.536375,13.0022812 2.5383125,12.9715312 C2.538375,12.9705625 2.538375,12.9695625 2.5384375,12.9685937 C2.539125,12.9588125 2.5401875,12.9489687 2.5415,12.9391875 C2.54178125,12.9371562 2.54209375,12.9350937 2.542375,12.9330625 C2.59121875,12.6030312 2.96065625,12.4338437 3.243,12.6080312 C3.2451875,12.6092812 3.247375,12.6104687 3.2495,12.6118125 C3.25528125,12.6155 3.26084375,12.6195312 3.2664375,12.6235 C3.272625,12.6279062 3.27875,12.632375 3.28475,12.6370937 C3.28878125,12.64025 3.29278125,12.6434062 3.29671875,12.6466875 C3.30690625,12.6553125 3.31696875,12.66425 3.32653125,12.6738125 Z M2.68609375,13.8789688 C2.61209375,13.9529375 2.52184375,14.0640938 2.3355625,14.0640938 C2.2335,14.0640625 2.1335,14.0263125 2.05328125,13.9470313 C1.9773125,13.8657188 1.93625,13.7759688 1.93625,13.6646875 C1.93625,13.5580625 1.97778125,13.4577813 2.05321875,13.382375 L2.121875,13.31375 C2.21396875,13.5734688 2.4215,13.7847188 2.68609375,13.8789688 Z M4.06553125,10.7068125 L2.62471875,12.1476563 C2.591375,12.1623125 2.558875,12.1788125 2.52740625,12.197375 L1.3845,11.0545 C2.13575,10.4285938 3.17353125,10.29075 4.06553125,10.7068125 Z M1.0528125,11.3860938 L2.195875,12.529125 C2.17753125,12.5604062 2.16134375,12.5925938 2.1469375,12.6254063 L1.721625,13.0507188 C1.55759375,13.2147188 1.46728125,13.4327813 1.46728125,13.6646875 C1.46728125,13.81625 1.5060625,13.9616875 1.5785,14.0901563 L1.0528125,14.6158437 C0.27484375,13.6814375 0.27540625,12.3198125 1.0528125,11.3860938 Z M1.38465625,14.9473125 L1.91015625,14.4218437 C2.2381875,14.6068437 2.6655625,14.5628125 2.949625,14.2787812 L3.3741875,13.85425 C3.40746875,13.839625 3.4399375,13.8231563 3.471375,13.8045938 L4.6140625,14.9472813 C3.68025,15.7231875 2.318125,15.72275 1.38465625,14.9473125 Z M4.9456875,14.6156563 L3.80296875,13.4729375 C3.82146875,13.4415313 3.83796875,13.409125 3.8525625,13.375875 L5.293625,11.93475 C5.70453125,12.8179375 5.56803125,13.8656875 4.9456875,14.6156563 Z M11.9361875,10.707125 C12.8174063,10.2981875 13.869875,10.4368437 14.6165937,11.0547812 L13.4740312,12.1973437 C13.4425625,12.1787812 13.4100938,12.1622812 13.37675,12.147625 L11.9361875,10.707125 Z M13.660875,13.65975 C13.7525625,13.5679688 13.8317188,13.449875 13.88,13.31425 L13.9481563,13.3824063 C14.0235625,13.4577813 14.0650937,13.5580313 14.0650937,13.6646875 C14.0650937,13.7710938 14.0237188,13.8711875 13.9486875,13.9465313 C13.9485312,13.9467188 13.9483125,13.9468438 13.9481563,13.9470313 C13.9479688,13.9472188 13.9478125,13.9474375 13.9475937,13.9476563 C13.87225,14.0226875 13.7722188,14.064125 13.6657813,14.064125 C13.4808438,14.064125 13.391,13.9547188 13.31525,13.879 C13.3757813,13.8574688 13.4372188,13.8277188 13.4917813,13.79375 C13.49675,13.7906875 13.5016562,13.7875625 13.5065625,13.784375 C13.5152813,13.77875 13.523875,13.7729375 13.5324375,13.767 C13.5375938,13.7634375 13.5427188,13.7598438 13.5478125,13.7561563 C13.5560625,13.7501563 13.5641563,13.7439375 13.57225,13.7376875 C13.57725,13.7338125 13.58225,13.73 13.5871875,13.726 C13.5955938,13.7191875 13.6038125,13.7120938 13.612,13.7049688 C13.61625,13.7012813 13.6205938,13.6977187 13.6248125,13.6939063 C13.6369375,13.6829688 13.648875,13.67175 13.6605313,13.6600938 C13.6606562,13.6599375 13.66075,13.659875 13.660875,13.65975 C13.6608437,13.65975 13.660875,13.65975 13.660875,13.65975 Z M12.6090312,12.7573437 C12.6456875,12.6989375 12.6862187,12.6581562 12.7348125,12.6236562 C13.1575312,12.3244375 13.6767187,12.8444375 13.3795,13.268 C13.2880312,13.39625 13.1485625,13.4631875 13.0029375,13.4631875 C12.6340937,13.4631875 12.4226875,13.0595 12.6090312,12.7573437 Z M10.7081563,11.935125 L12.14875,13.37575 C12.163375,13.4090625 12.1799063,13.4415313 12.1984063,13.4729375 L11.055875,14.6154688 C10.4392188,13.86975 10.29975,12.8158438 10.7081563,11.935125 Z M11.3871563,14.9474688 L12.5300625,13.8045625 C12.5615,13.8230938 12.5939375,13.8395938 12.6272187,13.8542188 L13.0517812,14.2787188 C13.2157812,14.4427188 13.4338125,14.5330625 13.6657812,14.5330625 C13.8173437,14.5330625 13.9628125,14.4942813 14.0912812,14.4217813 L14.6169687,14.9474688 C13.682625,15.7254375 12.320875,15.7249688 11.3871563,14.9474688 Z M14.9484063,14.6156562 L14.422875,14.090125 C14.6078125,13.762125 14.5638125,13.3347812 14.27975,13.05075 L13.8554063,12.6264375 C13.84075,12.5930625 13.82425,12.5605313 13.805625,12.529 L14.9483125,11.3863437 C15.7235,12.3192812 15.7235,13.6826875 14.9484063,14.6156562 Z" id="Shape"></path>
                    <path d="M15.1221562,0.87821875 C13.9530938,-0.29078125 12.0509375,-0.2908125 10.8819375,0.87821875 C9.9493125,1.81075 9.7385,3.25615625 10.3587187,4.41365625 L9.1713125,5.6010625 L8.54784375,5.6010625 C8.41834375,5.6010625 8.31334375,5.7060625 8.31334375,5.8355625 C8.31334375,5.9650625 8.41834375,6.0700625 8.54784375,6.0700625 C9.3145625,6.0700625 9.34534375,6.09025 9.43421875,6.001375 L12.1240625,3.31153125 C12.2186875,3.5773125 12.4319687,3.78484375 12.6888437,3.87628125 C9.78615625,6.779 9.93025,6.59325 9.93025,6.7320625 L9.93028125,7.4525625 C9.93028125,7.58209375 10.0352812,7.6870625 10.1647812,7.6870625 C10.2942812,7.6870625 10.3992812,7.5820625 10.3992812,7.4525625 L10.39925,6.82915625 L11.5863125,5.6420625 C12.7477812,6.26509375 14.1866562,6.0538125 15.1220937,5.118375 C16.291125,3.94934375 16.2911563,2.04721875 15.1221562,0.87821875 Z M12.1487188,2.62365625 L10.707875,4.0645 C10.2979688,3.1820625 10.4355625,2.13203125 11.0557813,1.3836875 L12.1984687,2.52628125 C12.179875,2.55778125 12.1633437,2.59028125 12.1487188,2.62365625 Z M11.387375,1.05196875 C12.3203438,0.27690625 13.68375,0.27690625 14.61675,1.052 L14.09125,1.57746875 C13.9627813,1.50503125 13.8173125,1.46625 13.6658125,1.46625 C13.433875,1.46625 13.2157813,1.5565625 13.0518438,1.7205 L12.6272812,2.145 C12.594,2.159625 12.5615625,2.176125 12.530125,2.19465625 L11.387375,1.05196875 Z M13.948125,2.61696875 L13.88,2.68509375 C13.8459687,2.58953125 13.7960937,2.5000625 13.732,2.41953125 C13.7312188,2.4185625 13.7304688,2.4175625 13.7297187,2.416625 C13.7205313,2.4051875 13.7110312,2.3939375 13.7012812,2.38284375 C13.6994062,2.38071875 13.697625,2.3785 13.6957187,2.376375 C13.6845312,2.3639375 13.6730312,2.35165625 13.6610625,2.3396875 C13.6610313,2.339625 13.6609688,2.3395625 13.6609063,2.3395 C13.6491563,2.32775 13.637125,2.31640625 13.6248438,2.30534375 C13.6209063,2.30178125 13.6168125,2.2984375 13.6128437,2.29496875 C13.6043437,2.2875625 13.5958125,2.28021875 13.5870937,2.2731875 C13.5824063,2.26940625 13.5776562,2.2658125 13.5729375,2.262125 C13.5645938,2.255625 13.5561875,2.2491875 13.5476562,2.24303125 C13.5428125,2.2395 13.5379062,2.23609375 13.533,2.2326875 C13.5241875,2.2265625 13.5153125,2.2205625 13.5063437,2.21475 C13.5016875,2.21175 13.497,2.20878125 13.4922812,2.20584375 C13.4825,2.19978125 13.4725937,2.19390625 13.4625937,2.18821875 C13.4585938,2.1859375 13.4545938,2.183625 13.4505312,2.18140625 C13.4388125,2.1749375 13.4269375,2.1688125 13.4149375,2.162875 C13.4125312,2.1616875 13.4101875,2.16040625 13.4077812,2.15925 C13.3776562,2.1446875 13.3469062,2.13165625 13.315375,2.12040625 L13.3835,2.05228125 C13.4589063,1.976875 13.5591875,1.935375 13.665875,1.935375 C13.7725625,1.935375 13.87275,1.97684375 13.9481563,2.05221875 C14.1038125,2.2079375 14.1038437,2.46125 13.948125,2.61696875 Z M12.8320625,2.568 C12.8633437,2.55759375 12.91825,2.5360625 13.0029687,2.5360625 C13.137,2.5360625 13.2652812,2.5928125 13.3561875,2.700875 C13.3625,2.70840625 13.370875,2.719125 13.379375,2.73115625 C13.394625,2.7528125 13.3893438,2.7455625 13.3948125,2.754375 C13.4694688,2.87528125 13.484625,3.009875 13.432375,3.16809375 C13.3854688,3.2870625 13.2916563,3.38134375 13.1721875,3.4285 C13.0137812,3.48071875 12.8797188,3.4660625 12.7584688,3.39134375 C12.4425938,3.1953125 12.474,2.70934375 12.8320625,2.568 Z M11.9359063,5.2925 L13.37675,3.8515625 C13.4100625,3.8369375 13.4425313,3.82040625 13.474,3.801875 L14.61675,4.944625 C13.866,5.56803125 12.8193437,5.70384375 11.9359063,5.2925 Z M14.9483125,4.613 L13.805625,3.4703125 C13.8241562,3.43884375 13.8406875,3.406375 13.8553125,3.3730625 L14.27975,2.948625 C14.5608437,2.66753125 14.6083125,2.2401875 14.4225937,1.90934375 L14.9483125,1.38365625 C15.7234688,2.3165625 15.7234688,3.68 14.9483125,4.613 Z" id="Shape"></path>
                </g>
            </g>
        </g>
    </g>
</svg>