<svg width="18" height="18" viewBox="0 0 18 18" fill="none" xmlns="http://www.w3.org/2000/svg">
<g id="Ecommerce">
<rect id="Rectangle 4 Copy 6" width="18" height="18" fill="#F4F7FB" fill-opacity="0.01"/>
<g id="shopping-cart">
<g id="Shape">
<path fill-rule="evenodd" clip-rule="evenodd" d="M4.57275 4.94788H16.5865C16.8149 4.94788 17 5.13306 17 5.36133C17 5.5896 16.8149 5.77478 16.5865 5.77478H15.6725L14.0911 11.5074C14.0415 11.6868 13.8785 11.8109 13.6925 11.8109H6.48926L6.8125 12.9685H13.1964C13.4248 12.9685 13.6099 13.1537 13.6099 13.382C13.6099 13.4833 13.5732 13.576 13.5127 13.6481C13.6526 13.8706 13.7339 14.1337 13.7339 14.4155C13.7339 15.2135 13.0847 15.8625 12.2869 15.8625C11.4889 15.8625 10.8398 15.2135 10.8398 14.4155C10.8398 14.1937 10.8901 13.9834 10.9797 13.7954H8.63269C8.72229 13.9834 8.77258 14.1937 8.77258 14.4155C8.77258 15.2135 8.12341 15.8625 7.32556 15.8625C6.52771 15.8625 5.87854 15.2135 5.87854 14.4155C5.87854 14.1078 5.97546 13.8223 6.14001 13.5875C6.13171 13.5731 6.12427 13.5581 6.1178 13.5426C6.11108 13.5266 6.10535 13.5101 6.10059 13.4932L3.12549 2.83936H1.41345C1.18506 2.83936 1 2.65417 1 2.4259C1 2.19763 1.18506 2.01245 1.41345 2.01245H3.43933C3.62476 2.01245 3.7876 2.13599 3.83752 2.3147L4.57275 4.94788ZM12.907 14.4155C12.907 14.0736 12.6288 13.7954 12.2867 13.7954C11.9448 13.7954 11.6666 14.0736 11.6666 14.4155C11.6666 14.7576 11.9448 15.0358 12.2867 15.0358C12.6288 15.0358 12.907 14.7576 12.907 14.4155ZM7.32556 13.7954C7.6676 13.7954 7.9458 14.0736 7.9458 14.4155C7.9458 14.7576 7.6676 15.0358 7.32556 15.0358C6.98364 15.0358 6.70544 14.7576 6.70544 14.4155C6.70544 14.0736 6.98364 13.7954 7.32556 13.7954ZM6.25842 10.984H13.3777L14.8147 5.77466H4.80371L6.25842 10.984Z" fill="#0C49CD"/>
<path d="M4.57275 4.94788L4.47644 4.97477L4.49685 5.04788H4.57275V4.94788ZM15.6725 5.77478V5.67478H15.5963L15.5761 5.74819L15.6725 5.77478ZM14.0911 11.5074L14.1875 11.5341L14.1875 11.534L14.0911 11.5074ZM6.48926 11.8109V11.7109H6.35751L6.39294 11.8378L6.48926 11.8109ZM6.8125 12.9685L6.71618 12.9954L6.7366 13.0685H6.8125V12.9685ZM13.5127 13.6481L13.4362 13.5837L13.3892 13.6395L13.428 13.7013L13.5127 13.6481ZM10.9797 13.7954L11.07 13.8384L11.1382 13.6954H10.9797V13.7954ZM8.63269 13.7954V13.6954H8.47425L8.54242 13.8384L8.63269 13.7954ZM6.14001 13.5875L6.2219 13.6449L6.25846 13.5928L6.22666 13.5376L6.14001 13.5875ZM6.1178 13.5426L6.21008 13.5041L6.21 13.5039L6.1178 13.5426ZM6.10059 13.4932L6.00427 13.5201L6.0043 13.5202L6.10059 13.4932ZM3.12549 2.83936L3.2218 2.81246L3.20139 2.73936H3.12549V2.83936ZM3.83752 2.3147L3.93384 2.2878L3.93384 2.28779L3.83752 2.3147ZM13.3777 10.984V11.084H13.4538L13.4741 11.0106L13.3777 10.984ZM6.25842 10.984L6.16211 11.0109L6.18252 11.084H6.25842V10.984ZM14.8147 5.77466L14.9111 5.80125L14.946 5.67466H14.8147V5.77466ZM4.80371 5.77466V5.67466H4.67196L4.7074 5.80155L4.80371 5.77466ZM16.5865 4.84788H4.57275V5.04788H16.5865V4.84788ZM17.1 5.36133C17.1 5.07785 16.8702 4.84788 16.5865 4.84788V5.04788C16.7597 5.04788 16.9 5.18827 16.9 5.36133H17.1ZM16.5865 5.87478C16.8702 5.87478 17.1 5.64481 17.1 5.36133H16.9C16.9 5.53439 16.7597 5.67478 16.5865 5.67478V5.87478ZM15.6725 5.87478H16.5865V5.67478H15.6725V5.87478ZM14.1875 11.534L15.7689 5.80137L15.5761 5.74819L13.9947 11.4809L14.1875 11.534ZM13.6925 11.9109C13.9236 11.9109 14.1259 11.7567 14.1875 11.5341L13.9947 11.4808C13.9571 11.6168 13.8335 11.7109 13.6925 11.7109V11.9109ZM6.48926 11.9109H13.6925V11.7109H6.48926V11.9109ZM6.90882 12.9416L6.58557 11.784L6.39294 11.8378L6.71618 12.9954L6.90882 12.9416ZM13.1964 12.8685H6.8125V13.0685H13.1964V12.8685ZM13.7099 13.382C13.7099 13.0985 13.4801 12.8685 13.1964 12.8685V13.0685C13.3696 13.0685 13.5099 13.2089 13.5099 13.382H13.7099ZM13.5892 13.7124C13.6643 13.6232 13.7099 13.5078 13.7099 13.382H13.5099C13.5099 13.4587 13.4822 13.5289 13.4362 13.5837L13.5892 13.7124ZM13.8339 14.4155C13.8339 14.1142 13.7469 13.8327 13.5974 13.5949L13.428 13.7013C13.5583 13.9085 13.6339 14.1532 13.6339 14.4155H13.8339ZM12.2869 15.9625C13.1399 15.9625 13.8339 15.2687 13.8339 14.4155H13.6339C13.6339 15.1583 13.0295 15.7625 12.2869 15.7625V15.9625ZM10.7398 14.4155C10.7398 15.2687 11.4337 15.9625 12.2869 15.9625V15.7625C11.5441 15.7625 10.9398 15.1583 10.9398 14.4155H10.7398ZM10.8895 13.7524C10.7936 13.9535 10.7398 14.1785 10.7398 14.4155H10.9398C10.9398 14.209 10.9867 14.0133 11.07 13.8384L10.8895 13.7524ZM8.63269 13.8954H10.9797V13.6954H8.63269V13.8954ZM8.87258 14.4155C8.87258 14.1785 8.8188 13.9535 8.72296 13.7524L8.54242 13.8384C8.62578 14.0133 8.67258 14.209 8.67258 14.4155H8.87258ZM7.32556 15.9625C8.17864 15.9625 8.87258 15.2687 8.87258 14.4155H8.67258C8.67258 15.1583 8.06819 15.7625 7.32556 15.7625V15.9625ZM5.77854 14.4155C5.77854 15.2687 6.47249 15.9625 7.32556 15.9625V15.7625C6.58293 15.7625 5.97854 15.1583 5.97854 14.4155H5.77854ZM6.05813 13.5301C5.88225 13.781 5.77854 14.0865 5.77854 14.4155H5.97854C5.97854 14.1291 6.06868 13.8635 6.2219 13.6449L6.05813 13.5301ZM6.02551 13.5811C6.03364 13.6006 6.04298 13.6194 6.05337 13.6375L6.22666 13.5376C6.22045 13.5268 6.21489 13.5156 6.21008 13.5041L6.02551 13.5811ZM6.0043 13.5202C6.01016 13.5411 6.01726 13.5615 6.02559 13.5813L6.21 13.5039C6.20491 13.4918 6.20053 13.4792 6.19687 13.4661L6.0043 13.5202ZM3.02917 2.86625L6.00427 13.5201L6.1969 13.4663L3.2218 2.81246L3.02917 2.86625ZM1.41345 2.93936H3.12549V2.73936H1.41345V2.93936ZM0.9 2.4259C0.9 2.70938 1.12981 2.93936 1.41345 2.93936V2.73936C1.24031 2.73936 1.1 2.59897 1.1 2.4259H0.9ZM1.41345 1.91245C1.12981 1.91245 0.9 2.14242 0.9 2.4259H1.1C1.1 2.25284 1.24031 2.11245 1.41345 2.11245V1.91245ZM3.43933 1.91245H1.41345V2.11245H3.43933V1.91245ZM3.93384 2.28779C3.87184 2.06587 3.66962 1.91245 3.43933 1.91245V2.11245C3.57989 2.11245 3.70336 2.2061 3.74121 2.3416L3.93384 2.28779ZM4.66907 4.92098L3.93384 2.2878L3.74121 2.34159L4.47644 4.97477L4.66907 4.92098ZM12.2867 13.8954C12.5736 13.8954 12.807 14.1288 12.807 14.4155H13.007C13.007 14.0184 12.684 13.6954 12.2867 13.6954V13.8954ZM11.7666 14.4155C11.7666 14.1288 12.0001 13.8954 12.2867 13.8954V13.6954C11.8896 13.6954 11.5666 14.0184 11.5666 14.4155H11.7666ZM12.2867 14.9358C12.0001 14.9358 11.7666 14.7024 11.7666 14.4155H11.5666C11.5666 14.8128 11.8896 15.1358 12.2867 15.1358V14.9358ZM12.807 14.4155C12.807 14.7023 12.5736 14.9358 12.2867 14.9358V15.1358C12.684 15.1358 13.007 14.8128 13.007 14.4155H12.807ZM8.0458 14.4155C8.0458 14.0184 7.72282 13.6954 7.32556 13.6954V13.8954C7.61239 13.8954 7.8458 14.1288 7.8458 14.4155H8.0458ZM7.32556 15.1358C7.72283 15.1358 8.0458 14.8128 8.0458 14.4155H7.8458C7.8458 14.7023 7.61237 14.9358 7.32556 14.9358V15.1358ZM6.60544 14.4155C6.60544 14.8128 6.9284 15.1358 7.32556 15.1358V14.9358C7.03888 14.9358 6.80544 14.7024 6.80544 14.4155H6.60544ZM7.32556 13.6954C6.92841 13.6954 6.60544 14.0184 6.60544 14.4155H6.80544C6.80544 14.1288 7.03887 13.8954 7.32556 13.8954V13.6954ZM13.3777 10.884H6.25842V11.084H13.3777V10.884ZM14.7183 5.74807L13.2813 10.9574L13.4741 11.0106L14.9111 5.80125L14.7183 5.74807ZM4.80371 5.87466H14.8147V5.67466H4.80371V5.87466ZM6.35474 10.9571L4.90003 5.74776L4.7074 5.80155L6.16211 11.0109L6.35474 10.9571Z" fill="#0C49CD"/>
</g>
<path id="Shape_2" d="M9.84752 10.2812C10.0759 10.2812 10.261 10.096 10.261 9.86773V6.89098C10.261 6.66266 10.0759 6.47754 9.84752 6.47754C9.61918 6.47754 9.43408 6.66266 9.43408 6.89098V9.86773C9.43408 10.096 9.61921 10.2812 9.84752 10.2812Z" fill="#0C49CD" stroke="#0C49CD" stroke-width="0.2"/>
<path id="Shape_3" d="M11.5013 10.2812C11.7297 10.2812 11.9148 10.096 11.9148 9.86773V6.89098C11.9148 6.66266 11.7297 6.47754 11.5013 6.47754C11.273 6.47754 11.0879 6.66266 11.0879 6.89098V9.86773C11.0879 10.096 11.273 10.2812 11.5013 10.2812Z" fill="#0C49CD" stroke="#0C49CD" stroke-width="0.2"/>
<path id="Shape_4" d="M8.19383 10.2812C8.42218 10.2812 8.60727 10.096 8.60727 9.86773V6.89098C8.60727 6.66266 8.42218 6.47754 8.19383 6.47754C7.96549 6.47754 7.7804 6.66266 7.7804 6.89098V9.86773C7.7804 10.096 7.96549 10.2812 8.19383 10.2812Z" fill="#0C49CD" stroke="#0C49CD" stroke-width="0.2"/>
<path id="Shape_5" d="M6.54002 8.37935C6.76837 8.37935 6.95346 8.19423 6.95346 7.96591V6.89098C6.95346 6.66266 6.76837 6.47754 6.54002 6.47754C6.31168 6.47754 6.12659 6.66266 6.12659 6.89098V7.96591C6.12659 8.1942 6.31168 8.37935 6.54002 8.37935Z" fill="#0C49CD" stroke="#0C49CD" stroke-width="0.2"/>
<path id="Shape_6" d="M13.155 8.37935C13.3834 8.37935 13.5685 8.19423 13.5685 7.96591V6.89098C13.5685 6.66266 13.3834 6.47754 13.155 6.47754C12.9267 6.47754 12.7416 6.66266 12.7416 6.89098V7.96591C12.7416 8.1942 12.9267 8.37935 13.155 8.37935Z" fill="#0C49CD" stroke="#0C49CD" stroke-width="0.2"/>
</g>
</g>
</svg>
