<svg width="18" height="18" viewBox="0 0 18 18" fill="none" xmlns="http://www.w3.org/2000/svg">
<g id="Ecommerce White">
<rect id="Rectangle 4 Copy 6" width="18" height="18" fill="#F4F7FB" fill-opacity="0.01"/>
<g id="shopping-cart">
<g id="Shape">
<path fill-rule="evenodd" clip-rule="evenodd" d="M4.57275 4.94788H16.5867C16.8149 4.94788 17 5.13306 17 5.36133C17 5.46936 16.9585 5.56775 16.8906 5.64148C16.8149 5.72339 16.7068 5.77478 16.5867 5.77478H15.6726L14.0911 11.5074C14.0415 11.6868 13.8784 11.8109 13.6924 11.8109H6.48926L6.8125 12.9685H13.1963C13.4248 12.9685 13.6099 13.1537 13.6099 13.382C13.6099 13.4833 13.5732 13.576 13.5127 13.6481C13.592 13.7742 13.6526 13.9132 13.6902 14.0613C13.7188 14.1747 13.7339 14.2933 13.7339 14.4155C13.7339 15.2135 13.0847 15.8625 12.2869 15.8625C11.489 15.8625 10.8398 15.2135 10.8398 14.4155C10.8398 14.1937 10.8901 13.9834 10.9797 13.7954H8.63281C8.64819 13.8278 8.6626 13.8608 8.67554 13.8945C8.69385 13.9418 8.70972 13.9904 8.72314 14.0399C8.75537 14.1597 8.77271 14.2856 8.77271 14.4155C8.77271 15.2135 8.12354 15.8625 7.32568 15.8625C6.52759 15.8625 5.87866 15.2135 5.87866 14.4155C5.87866 14.1078 5.97559 13.8223 6.13989 13.5875C6.12329 13.5583 6.10986 13.5266 6.10059 13.4932L3.12549 2.83936H1.41333C1.18506 2.83936 1 2.65417 1 2.4259C1 2.32458 1.03638 2.23181 1.09692 2.15991C1.17261 2.0697 1.28638 2.01245 1.41333 2.01245H3.43921C3.62476 2.01245 3.7876 2.13599 3.8374 2.3147L4.57275 4.94788ZM12.907 14.4155C12.907 14.0736 12.6289 13.7954 12.2869 13.7954C11.9451 13.7954 11.6667 14.0736 11.6667 14.4155C11.6667 14.7576 11.9448 15.0358 12.2869 15.0358C12.6289 15.0358 12.907 14.7576 12.907 14.4155ZM7.32544 13.7954C7.66748 13.7954 7.94556 14.0736 7.94556 14.4155C7.94556 14.7576 7.66748 15.0358 7.32544 15.0358C6.9834 15.0358 6.70532 14.7576 6.70532 14.4155C6.70532 14.0736 6.9834 13.7954 7.32544 13.7954ZM6.2583 10.984H13.3777L14.8147 5.77466H4.80371L6.2583 10.984Z" fill="white"/>
<path d="M4.57275 4.94788L4.47644 4.97477L4.49685 5.04788H4.57275V4.94788ZM16.8906 5.64148L16.9641 5.70934L16.9642 5.70921L16.8906 5.64148ZM15.6726 5.77478V5.67478H15.5965L15.5762 5.74819L15.6726 5.77478ZM14.0911 11.5074L14.1875 11.5341L14.1875 11.534L14.0911 11.5074ZM6.48926 11.8109V11.7109H6.35751L6.39294 11.8378L6.48926 11.8109ZM6.8125 12.9685L6.71618 12.9954L6.7366 13.0685H6.8125V12.9685ZM13.5127 13.6481L13.4362 13.5837L13.3892 13.6396L13.4281 13.7013L13.5127 13.6481ZM13.6902 14.0613L13.7872 14.0369L13.7871 14.0367L13.6902 14.0613ZM10.9797 13.7954L11.07 13.8384L11.1382 13.6954H10.9797V13.7954ZM8.63281 13.7954V13.6954H8.47454L8.5425 13.8384L8.63281 13.7954ZM8.67554 13.8945L8.58218 13.9304L8.5823 13.9307L8.67554 13.8945ZM8.72314 14.0399L8.81971 14.0139L8.81966 14.0138L8.72314 14.0399ZM6.13989 13.5875L6.22182 13.6449L6.25809 13.593L6.22681 13.5381L6.13989 13.5875ZM6.10059 13.4932L6.19695 13.4664L6.1969 13.4663L6.10059 13.4932ZM3.12549 2.83936L3.2218 2.81246L3.20139 2.73936H3.12549V2.83936ZM1.09692 2.15991L1.17342 2.22433L1.17353 2.22419L1.09692 2.15991ZM3.8374 2.3147L3.74107 2.34154L3.74109 2.34159L3.8374 2.3147ZM13.3777 10.984V11.084H13.4538L13.4741 11.0106L13.3777 10.984ZM6.2583 10.984L6.16198 11.0109L6.1824 11.084H6.2583V10.984ZM14.8147 5.77466L14.9111 5.80125L14.946 5.67466H14.8147V5.77466ZM4.80371 5.77466V5.67466H4.67196L4.7074 5.80155L4.80371 5.77466ZM16.5867 4.84788H4.57275V5.04788H16.5867V4.84788ZM17.1 5.36133C17.1 5.07787 16.8702 4.84788 16.5867 4.84788V5.04788C16.7597 5.04788 16.9 5.18825 16.9 5.36133H17.1ZM16.9642 5.70921C17.0484 5.61779 17.1 5.49548 17.1 5.36133H16.9C16.9 5.44324 16.8686 5.51771 16.8171 5.57375L16.9642 5.70921ZM16.5867 5.87478C16.736 5.87478 16.8703 5.81078 16.9641 5.70934L16.8172 5.57362C16.7595 5.636 16.6776 5.67478 16.5867 5.67478V5.87478ZM15.6726 5.87478H16.5867V5.67478H15.6726V5.87478ZM14.1875 11.534L15.769 5.80137L15.5762 5.74819L13.9947 11.4809L14.1875 11.534ZM13.6924 11.9109C13.9234 11.9109 14.1259 11.7567 14.1875 11.5341L13.9947 11.4808C13.9571 11.6168 13.8334 11.7109 13.6924 11.7109V11.9109ZM6.48926 11.9109H13.6924V11.7109H6.48926V11.9109ZM6.90882 12.9416L6.58557 11.784L6.39294 11.8378L6.71618 12.9954L6.90882 12.9416ZM13.1963 12.8685H6.8125V13.0685H13.1963V12.8685ZM13.7099 13.382C13.7099 13.0985 13.48 12.8685 13.1963 12.8685V13.0685C13.3696 13.0685 13.5099 13.2089 13.5099 13.382H13.7099ZM13.5892 13.7124C13.6643 13.6232 13.7099 13.5078 13.7099 13.382H13.5099C13.5099 13.4587 13.4822 13.5289 13.4362 13.5837L13.5892 13.7124ZM13.7871 14.0367C13.7469 13.8782 13.6821 13.7296 13.5973 13.5948L13.4281 13.7013C13.502 13.8188 13.5583 13.9482 13.5933 14.0859L13.7871 14.0367ZM13.8339 14.4155C13.8339 14.285 13.8177 14.1582 13.7872 14.0369L13.5932 14.0857C13.6198 14.1912 13.6339 14.3016 13.6339 14.4155H13.8339ZM12.2869 15.9625C13.1399 15.9625 13.8339 15.2687 13.8339 14.4155H13.6339C13.6339 15.1583 13.0295 15.7625 12.2869 15.7625V15.9625ZM10.7398 14.4155C10.7398 15.2687 11.4338 15.9625 12.2869 15.9625V15.7625C11.5442 15.7625 10.9398 15.1583 10.9398 14.4155H10.7398ZM10.8895 13.7524C10.7936 13.9535 10.7398 14.1785 10.7398 14.4155H10.9398C10.9398 14.209 10.9867 14.0133 11.07 13.8384L10.8895 13.7524ZM8.63281 13.8954H10.9797V13.6954H8.63281V13.8954ZM8.76889 13.8587C8.75491 13.8223 8.73945 13.7868 8.72312 13.7525L8.5425 13.8384C8.55693 13.8687 8.57029 13.8994 8.58219 13.9304L8.76889 13.8587ZM8.81966 14.0138C8.80535 13.9609 8.7884 13.909 8.76878 13.8584L8.5823 13.9307C8.5993 13.9745 8.61408 14.0198 8.62662 14.0661L8.81966 14.0138ZM8.8727 14.4155C8.8727 14.2767 8.85418 14.142 8.81971 14.0139L8.62658 14.0659C8.65657 14.1773 8.67271 14.2946 8.67271 14.4155H8.8727ZM7.32568 15.9625C8.17876 15.9625 8.8727 15.2687 8.8727 14.4155H8.67271C8.67271 15.1583 8.06831 15.7625 7.32568 15.7625V15.9625ZM5.77866 14.4155C5.77866 15.2687 6.47235 15.9625 7.32568 15.9625V15.7625C6.58282 15.7625 5.97866 15.1583 5.97866 14.4155H5.77866ZM6.05797 13.5302C5.88237 13.7811 5.77866 14.0865 5.77866 14.4155H5.97866C5.97866 14.1291 6.0688 13.8635 6.22182 13.6449L6.05797 13.5302ZM6.00422 13.5199C6.01578 13.5616 6.03245 13.6009 6.05298 13.637L6.22681 13.5381C6.21413 13.5158 6.20395 13.4917 6.19695 13.4664L6.00422 13.5199ZM3.02917 2.86625L6.00427 13.5201L6.1969 13.4663L3.2218 2.81246L3.02917 2.86625ZM1.41333 2.93936H3.12549V2.73936H1.41333V2.93936ZM0.9 2.4259C0.9 2.70936 1.12979 2.93936 1.41333 2.93936V2.73936C1.24033 2.73936 1.1 2.59898 1.1 2.4259H0.9ZM1.02043 2.0955C0.945238 2.18479 0.9 2.3002 0.9 2.4259H1.1C1.1 2.34897 1.12752 2.27883 1.17341 2.22433L1.02043 2.0955ZM1.41333 1.91245C1.25568 1.91245 1.11426 1.98367 1.02031 2.09564L1.17353 2.22419C1.23096 2.15574 1.31708 2.11245 1.41333 2.11245V1.91245ZM3.43921 1.91245H1.41333V2.11245H3.43921V1.91245ZM3.93373 2.28785C3.87186 2.06585 3.66959 1.91245 3.43921 1.91245V2.11245C3.57992 2.11245 3.70333 2.20612 3.74107 2.34154L3.93373 2.28785ZM4.66907 4.92098L3.93372 2.2878L3.74109 2.34159L4.47644 4.97477L4.66907 4.92098ZM12.2869 13.8954C12.5737 13.8954 12.807 14.1288 12.807 14.4155H13.007C13.007 14.0184 12.6841 13.6954 12.2869 13.6954V13.8954ZM11.7667 14.4155C11.7667 14.1288 12.0003 13.8954 12.2869 13.8954V13.6954C11.8899 13.6954 11.5667 14.0184 11.5667 14.4155H11.7667ZM12.2869 14.9358C12.0001 14.9358 11.7667 14.7024 11.7667 14.4155H11.5667C11.5667 14.8128 11.8896 15.1358 12.2869 15.1358V14.9358ZM12.807 14.4155C12.807 14.7024 12.5737 14.9358 12.2869 14.9358V15.1358C12.6842 15.1358 13.007 14.8128 13.007 14.4155H12.807ZM8.04556 14.4155C8.04556 14.0184 7.72272 13.6954 7.32544 13.6954V13.8954C7.61224 13.8954 7.84556 14.1288 7.84556 14.4155H8.04556ZM7.32544 15.1358C7.72273 15.1358 8.04556 14.8128 8.04556 14.4155H7.84556C7.84556 14.7024 7.61223 14.9358 7.32544 14.9358V15.1358ZM6.60532 14.4155C6.60532 14.8128 6.92814 15.1358 7.32544 15.1358V14.9358C7.03865 14.9358 6.80532 14.7024 6.80532 14.4155H6.60532ZM7.32544 13.6954C6.92816 13.6954 6.60532 14.0184 6.60532 14.4155H6.80532C6.80532 14.1288 7.03864 13.8954 7.32544 13.8954V13.6954ZM13.3777 10.884H6.2583V11.084H13.3777V10.884ZM14.7183 5.74807L13.2813 10.9574L13.4741 11.0106L14.9111 5.80125L14.7183 5.74807ZM4.80371 5.87466H14.8147V5.67466H4.80371V5.87466ZM6.35462 10.9571L4.90003 5.74776L4.7074 5.80155L6.16198 11.0109L6.35462 10.9571Z" fill="white"/>
</g>
<path id="Shape_2" d="M9.84752 10.2812C10.0759 10.2812 10.261 10.096 10.261 9.86773V6.89098C10.261 6.66266 10.0759 6.47754 9.84752 6.47754C9.61918 6.47754 9.43408 6.66266 9.43408 6.89098V9.86773C9.43408 10.096 9.61921 10.2812 9.84752 10.2812Z" fill="white" stroke="white" stroke-width="0.2"/>
<path id="Shape_3" d="M11.5013 10.2812C11.7297 10.2812 11.9148 10.096 11.9148 9.86773V6.89098C11.9148 6.66266 11.7297 6.47754 11.5013 6.47754C11.273 6.47754 11.0879 6.66266 11.0879 6.89098V9.86773C11.0879 10.096 11.273 10.2812 11.5013 10.2812Z" fill="white" stroke="white" stroke-width="0.2"/>
<path id="Shape_4" d="M8.19371 10.2812C8.42205 10.2812 8.60715 10.096 8.60715 9.86773V6.89098C8.60715 6.66266 8.42205 6.47754 8.19371 6.47754C7.96537 6.47754 7.78027 6.66266 7.78027 6.89098V9.86773C7.78027 10.096 7.96537 10.2812 8.19371 10.2812Z" fill="white" stroke="white" stroke-width="0.2"/>
<path id="Shape_5" d="M6.54015 8.37935C6.76849 8.37935 6.95358 8.19423 6.95358 7.96591V6.89098C6.95358 6.66266 6.76849 6.47754 6.54015 6.47754C6.3118 6.47754 6.12671 6.66266 6.12671 6.89098V7.96591C6.12671 8.1942 6.3118 8.37935 6.54015 8.37935Z" fill="white" stroke="white" stroke-width="0.2"/>
<path id="Shape_6" d="M13.1551 8.37935C13.3835 8.37935 13.5686 8.19423 13.5686 7.96591V6.89098C13.5686 6.66266 13.3835 6.47754 13.1551 6.47754C12.9268 6.47754 12.7417 6.66266 12.7417 6.89098V7.96591C12.7417 8.1942 12.9268 8.37935 13.1551 8.37935Z" fill="white" stroke="white" stroke-width="0.2"/>
</g>
</g>
</svg>
