<svg width="18" height="18" viewBox="0 0 18 18" fill="none" xmlns="http://www.w3.org/2000/svg">
<g id="Education White">
<rect id="Rectangle 4 Copy 7" width="18" height="18" fill="#F4F7FB" fill-opacity="0.01"/>
<g id="mortarboard">
<g id="Shape">
<path fill-rule="evenodd" clip-rule="evenodd" d="M16.8123 6.87817L9.15186 3.04797C9.05615 3.00012 8.94385 3.00012 8.84814 3.04797L1.18774 6.87817C1.07275 6.93573 1 7.05328 1 7.18188C1 7.19757 1.00098 7.21307 1.00317 7.22833C1.00732 7.25873 1.01562 7.28815 1.02759 7.31592C1.05884 7.38831 1.11475 7.44904 1.18774 7.48553L3.6394 8.71143V10.8263C3.6394 11.1632 3.78442 11.4865 4.03711 11.7136C5.40186 12.9378 7.16455 13.6121 9 13.6121C10.8354 13.6121 12.5981 12.9379 13.9631 11.7134C14.2156 11.4865 14.3606 11.1631 14.3606 10.8263V8.71143L15.1748 8.30438V10.9473C14.8081 11.0852 14.5464 11.4393 14.5464 11.8535C14.5464 12.2355 14.7688 12.5663 15.0908 12.7236L14.5066 14.7416C14.49 14.7993 14.4893 14.8594 14.5029 14.9163C14.5137 14.9604 14.5332 15.0026 14.5613 15.0399C14.595 15.0847 14.6387 15.1198 14.688 15.1431C14.7327 15.1641 14.782 15.1755 14.8328 15.1755H16.1956C16.3022 15.1755 16.4028 15.1253 16.467 15.0399C16.531 14.9547 16.5513 14.8441 16.5217 14.7416L15.9375 12.7236C16.2595 12.5662 16.4819 12.2354 16.4819 11.8535C16.4819 11.4393 16.2205 11.0851 15.8538 10.9473V7.96484L16.8123 7.48553C16.8669 7.45819 16.9119 7.41736 16.9441 7.36829C16.9673 7.33331 16.9839 7.29413 16.9927 7.25269C16.9976 7.22968 17 7.20593 17 7.18182C17 7.13629 16.9907 7.09216 16.9739 7.05157C16.9431 6.97754 16.8865 6.91534 16.8123 6.87817ZM13.6816 10.8264C13.6816 10.9708 13.6189 11.11 13.5095 11.2081C12.2695 12.3205 10.668 12.9331 9 12.9331C7.33228 12.9331 5.73071 12.3204 4.49072 11.2083C4.39575 11.123 4.33594 11.007 4.32202 10.8835L4.31982 10.86C4.31909 10.8488 4.3186 10.8376 4.3186 10.8264V9.05096L8.84814 11.3158L8.8689 11.3253L8.88721 11.3325L8.90698 11.3387C8.9375 11.3474 8.96875 11.3516 9 11.3516C9.02979 11.3516 9.05981 11.3477 9.08911 11.3398C9.1106 11.334 9.13159 11.326 9.15186 11.3158L13.6816 9.05096V10.8264ZM15.5142 13.703L15.2844 14.4965H15.7439L15.5142 13.703ZM15.5142 12.1423C15.355 12.1423 15.2253 12.0128 15.2253 11.8535C15.2253 11.6943 15.355 11.5648 15.5142 11.5648C15.6733 11.5648 15.803 11.6943 15.803 11.8535C15.803 12.0128 15.6733 12.1423 15.5142 12.1423ZM9.02979 6.84369L15.4482 7.40845L15.9014 7.18188L9 3.7312L2.09863 7.18188L9 10.6326L14.2888 7.9881L8.97021 7.52008C8.78345 7.50366 8.64526 7.33893 8.66187 7.1521C8.67822 6.96533 8.84302 6.82739 9.02979 6.84369Z" fill="white"/>
<path d="M16.8123 6.87817L16.857 6.78876L16.857 6.78873L16.8123 6.87817ZM1.18774 6.87817L1.14302 6.78873L1.14298 6.78875L1.18774 6.87817ZM1.00317 7.22833L1.10226 7.2148L1.10215 7.21408L1.00317 7.22833ZM1.02759 7.31592L0.935747 7.35548L0.935778 7.35555L1.02759 7.31592ZM1.18774 7.48553L1.23247 7.39609L1.23247 7.39609L1.18774 7.48553ZM3.6394 8.71143H3.7394V8.64962L3.68413 8.62198L3.6394 8.71143ZM4.03711 11.7136L3.97026 11.788L3.97034 11.7881L4.03711 11.7136ZM13.9631 11.7134L14.0299 11.7879L14.03 11.7878L13.9631 11.7134ZM14.3606 8.71143L14.3159 8.62198L14.2606 8.64962V8.71143H14.3606ZM15.1748 8.30438H15.2748V8.14259L15.1301 8.21494L15.1748 8.30438ZM15.1748 10.9473L15.21 11.0409L15.2748 11.0166V10.9473H15.1748ZM15.0908 12.7236L15.1869 12.7514L15.2103 12.6707L15.1347 12.6338L15.0908 12.7236ZM14.5066 14.7416L14.4105 14.7138L14.4105 14.7139L14.5066 14.7416ZM14.5029 14.9163L14.4057 14.9397L14.4058 14.9399L14.5029 14.9163ZM14.5613 15.0399L14.4813 15.1L14.4814 15.1L14.5613 15.0399ZM14.688 15.1431L14.6453 15.2335L14.6454 15.2335L14.688 15.1431ZM16.467 15.0399L16.547 15.1L16.547 15.0999L16.467 15.0399ZM16.5217 14.7416L16.6178 14.7139L16.6178 14.7138L16.5217 14.7416ZM15.9375 12.7236L15.8936 12.6337L15.8181 12.6706L15.8414 12.7514L15.9375 12.7236ZM15.8538 10.9473H15.7538V11.0166L15.8186 11.0409L15.8538 10.9473ZM15.8538 7.96484L15.809 7.8754L15.7538 7.90304V7.96484H15.8538ZM16.8123 7.48553L16.7675 7.39609L16.7675 7.39609L16.8123 7.48553ZM16.9441 7.36829L16.8608 7.31302L16.8605 7.31339L16.9441 7.36829ZM16.9927 7.25269L16.8949 7.23193L16.8949 7.23194L16.9927 7.25269ZM16.9739 7.05157L17.0662 7.01324L17.0662 7.01321L16.9739 7.05157ZM13.5095 11.2081L13.5763 11.2826L13.5763 11.2826L13.5095 11.2081ZM4.49072 11.2083L4.42394 11.2827L4.42395 11.2827L4.49072 11.2083ZM4.32202 10.8835L4.22244 10.8929L4.22265 10.8947L4.32202 10.8835ZM4.31982 10.86L4.22 10.8666L4.22026 10.8694L4.31982 10.86ZM4.3186 9.05096L4.36333 8.96152L4.2186 8.88916V9.05096H4.3186ZM8.84814 11.3158L8.8034 11.4053L8.80644 11.4067L8.84814 11.3158ZM8.8689 11.3253L8.82712 11.4164L8.83256 11.4185L8.8689 11.3253ZM8.88721 11.3325L8.85079 11.4258L8.85718 11.4278L8.88721 11.3325ZM8.90698 11.3387L8.87694 11.4341L8.87966 11.4349L8.90698 11.3387ZM9.08911 11.3398L9.11507 11.4364L9.11542 11.4363L9.08911 11.3398ZM9.15186 11.3158L9.10713 11.2264L9.10692 11.2265L9.15186 11.3158ZM13.6816 9.05096H13.7816V8.88916L13.6369 8.96152L13.6816 9.05096ZM15.2844 14.4965L15.1884 14.4687L15.1514 14.5965H15.2844V14.4965ZM15.5142 13.703L15.6102 13.6752L15.5142 13.3434L15.4181 13.6752L15.5142 13.703ZM15.7439 14.4965V14.5965H15.877L15.84 14.4687L15.7439 14.4965ZM15.4482 7.40845L15.4395 7.50806L15.4677 7.51054L15.493 7.49789L15.4482 7.40845ZM9.02979 6.84369L9.03855 6.74407L9.03848 6.74407L9.02979 6.84369ZM15.9014 7.18188L15.9461 7.27133L16.125 7.18188L15.9461 7.09244L15.9014 7.18188ZM9 3.7312L9.04472 3.64176L9 3.6194L8.95528 3.64176L9 3.7312ZM2.09863 7.18188L2.05391 7.09244L1.87503 7.18188L2.05391 7.27133L2.09863 7.18188ZM9 10.6326L8.95528 10.722L9 10.7444L9.04472 10.722L9 10.6326ZM14.2888 7.9881L14.3335 8.07754L14.6497 7.91947L14.2976 7.88848L14.2888 7.9881ZM8.97021 7.52008L8.97898 7.42047L8.97897 7.42046L8.97021 7.52008ZM8.66187 7.1521L8.76147 7.16095L8.76148 7.16082L8.66187 7.1521ZM9.10713 3.13742L16.7675 6.96762L16.857 6.78873L9.19658 2.95853L9.10713 3.13742ZM8.89287 3.13742C8.96042 3.10364 9.03958 3.10364 9.10713 3.13742L9.19658 2.95853C9.07272 2.8966 8.92728 2.8966 8.80342 2.95853L8.89287 3.13742ZM1.23247 6.96762L8.89287 3.13742L8.80342 2.95853L1.14302 6.78873L1.23247 6.96762ZM1.1 7.18188C1.1 7.09122 1.15131 7.00824 1.2325 6.9676L1.14298 6.78875C0.994201 6.86322 0.9 7.01535 0.9 7.18188H1.1ZM1.10215 7.21408C1.10072 7.20413 1.1 7.19344 1.1 7.18188H0.9C0.9 7.2017 0.901233 7.22202 0.904195 7.24259L1.10215 7.21408ZM1.11943 7.27636C1.11097 7.25672 1.10516 7.23605 1.10225 7.2148L0.904093 7.24186C0.909493 7.28141 0.92028 7.31957 0.935747 7.35548L1.11943 7.27636ZM1.23247 7.39609C1.18104 7.37038 1.14153 7.32755 1.1194 7.27628L0.935778 7.35555C0.976144 7.44906 1.04846 7.52769 1.14302 7.57498L1.23247 7.39609ZM3.68413 8.62198L1.23247 7.39609L1.14302 7.57498L3.59468 8.80087L3.68413 8.62198ZM3.7394 10.8263V8.71143H3.5394V10.8263H3.7394ZM4.10396 11.6392C3.87214 11.4309 3.7394 11.1345 3.7394 10.8263H3.5394C3.5394 11.1919 3.69671 11.5421 3.97026 11.788L4.10396 11.6392ZM9 13.5121C7.18917 13.5121 5.45026 12.8469 4.10388 11.6392L3.97034 11.7881C5.35345 13.0287 7.13993 13.7121 9 13.7121V13.5121ZM13.8964 11.639C12.5497 12.8469 10.8108 13.5121 9 13.5121V13.7121C10.8601 13.7121 12.6465 13.0288 14.0299 11.7879L13.8964 11.639ZM14.2606 10.8263C14.2606 11.1345 14.1278 11.4309 13.8963 11.6391L14.03 11.7878C14.3033 11.5421 14.4606 11.1918 14.4606 10.8263H14.2606ZM14.2606 8.71143V10.8263H14.4606V8.71143H14.2606ZM15.1301 8.21494L14.3159 8.62198L14.4053 8.80087L15.2195 8.39383L15.1301 8.21494ZM15.2748 10.9473V8.30438H15.0748V10.9473H15.2748ZM14.6464 11.8535C14.6464 11.4825 14.8809 11.1647 15.21 11.0409L15.1396 10.8537C14.7354 11.0057 14.4464 11.3962 14.4464 11.8535H14.6464ZM15.1347 12.6338C14.8456 12.4925 14.6464 12.1957 14.6464 11.8535H14.4464C14.4464 12.2753 14.692 12.6401 15.0469 12.8135L15.1347 12.6338ZM14.6026 14.7694L15.1869 12.7514L14.9948 12.6958L14.4105 14.7138L14.6026 14.7694ZM14.6002 14.8929C14.5904 14.8524 14.591 14.8098 14.6027 14.7692L14.4105 14.7139C14.389 14.7887 14.3881 14.8665 14.4057 14.9397L14.6002 14.8929ZM14.6412 14.9798C14.6215 14.9536 14.6077 14.9239 14.6001 14.8926L14.4058 14.9399C14.4196 14.997 14.4449 15.0515 14.4813 15.1L14.6412 14.9798ZM14.7306 15.0526C14.6958 15.0362 14.665 15.0114 14.6412 14.9798L14.4814 15.1C14.525 15.158 14.5815 15.2034 14.6453 15.2335L14.7306 15.0526ZM14.8328 15.0755C14.7969 15.0755 14.7622 15.0675 14.7306 15.0526L14.6454 15.2335C14.7032 15.2608 14.767 15.2755 14.8328 15.2755V15.0755ZM16.1956 15.0755H14.8328V15.2755H16.1956V15.0755ZM16.3871 14.9798C16.3418 15.0401 16.2708 15.0755 16.1956 15.0755V15.2755C16.3337 15.2755 16.4639 15.2105 16.547 15.1L16.3871 14.9798ZM16.4256 14.7693C16.4465 14.8417 16.4322 14.9198 16.387 14.9799L16.547 15.0999C16.6298 14.9895 16.656 14.8465 16.6178 14.7139L16.4256 14.7693ZM15.8414 12.7514L16.4257 14.7694L16.6178 14.7138L16.0336 12.6958L15.8414 12.7514ZM16.3819 11.8535C16.3819 12.1956 16.1827 12.4924 15.8936 12.6337L15.9814 12.8134C16.3363 12.64 16.5819 12.2752 16.5819 11.8535H16.3819ZM15.8186 11.0409C16.1477 11.1646 16.3819 11.4824 16.3819 11.8535H16.5819C16.5819 11.3962 16.2933 11.0057 15.8889 10.8537L15.8186 11.0409ZM15.7538 7.96484V10.9473H15.9538V7.96484H15.7538ZM16.7675 7.39609L15.809 7.8754L15.8985 8.05428L16.857 7.57498L16.7675 7.39609ZM16.8605 7.31339C16.8377 7.34807 16.8061 7.37682 16.7675 7.39609L16.857 7.57498C16.9278 7.53956 16.986 7.48665 17.0277 7.42318L16.8605 7.31339ZM16.8949 7.23194C16.8887 7.26089 16.8771 7.28839 16.8608 7.31302L17.0274 7.42355C17.0575 7.37824 17.0791 7.32736 17.0905 7.27343L16.8949 7.23194ZM16.9 7.18182C16.9 7.19918 16.8982 7.21596 16.8949 7.23193L17.0905 7.27344C17.0969 7.24339 17.1 7.21268 17.1 7.18182H16.9ZM16.8815 7.08991C16.8935 7.1188 16.9 7.14993 16.9 7.18182H17.1C17.1 7.12265 17.0879 7.06553 17.0662 7.01324L16.8815 7.08991ZM16.7675 6.96759C16.8199 6.99382 16.8598 7.0377 16.8815 7.08994L17.0662 7.01321C17.0264 6.91738 16.9531 6.83687 16.857 6.78876L16.7675 6.96759ZM13.5763 11.2826C13.7064 11.1658 13.7816 10.9997 13.7816 10.8264H13.5816C13.5816 10.9418 13.5314 11.0542 13.4427 11.1337L13.5763 11.2826ZM9 13.0331C10.6926 13.0331 12.3179 12.4114 13.5763 11.2826L13.4427 11.1337C12.2211 12.2296 10.6434 12.8331 9 12.8331V13.0331ZM4.42395 11.2827C5.68231 12.4114 7.30766 13.0331 9 13.0331V12.8331C7.35689 12.8331 5.77911 12.2295 4.55749 11.1338L4.42395 11.2827ZM4.22265 10.8947C4.23935 11.0429 4.31098 11.1813 4.42394 11.2827L4.5575 11.1338C4.48052 11.0648 4.43252 10.9711 4.42139 10.8723L4.22265 10.8947ZM4.22026 10.8694L4.22246 10.8929L4.42159 10.8742L4.41939 10.8507L4.22026 10.8694ZM4.2186 10.8264C4.2186 10.8404 4.21921 10.8539 4.22004 10.8666L4.41961 10.8535C4.41897 10.8437 4.4186 10.8347 4.4186 10.8264H4.2186ZM4.2186 9.05096V10.8264H4.4186V9.05096H4.2186ZM8.89287 11.2264L4.36333 8.96152L4.27388 9.14041L8.80342 11.4052L8.89287 11.2264ZM8.9106 11.2344L8.88985 11.2249L8.80644 11.4067L8.82719 11.4162L8.9106 11.2344ZM8.92354 11.2393L8.90523 11.2322L8.83256 11.4185L8.85087 11.4256L8.92354 11.2393ZM8.93701 11.2433L8.91724 11.2371L8.85718 11.4278L8.87695 11.4341L8.93701 11.2433ZM9 11.2516C8.97789 11.2516 8.95584 11.2486 8.9343 11.2425L8.87966 11.4349C8.91916 11.4461 8.95961 11.4516 9 11.4516V11.2516ZM9.06316 11.2433C9.04237 11.2489 9.02107 11.2516 9 11.2516V11.4516C9.0385 11.4516 9.07726 11.4466 9.11507 11.4364L9.06316 11.2433ZM9.10692 11.2265C9.09269 11.2336 9.07794 11.2392 9.0628 11.2434L9.11542 11.4363C9.14325 11.4287 9.17049 11.4184 9.19679 11.4051L9.10692 11.2265ZM13.6369 8.96152L9.10713 11.2264L9.19658 11.4052L13.7264 9.14041L13.6369 8.96152ZM13.7816 10.8264V9.05096H13.5816V10.8264H13.7816ZM15.3805 14.5243L15.6102 13.7308L15.4181 13.6752L15.1884 14.4687L15.3805 14.5243ZM15.7439 14.3965H15.2844V14.5965H15.7439V14.3965ZM15.4181 13.7308L15.6478 14.5243L15.84 14.4687L15.6102 13.6752L15.4181 13.7308ZM15.1253 11.8535C15.1253 12.0681 15.2998 12.2423 15.5142 12.2423V12.0423C15.4102 12.0423 15.3253 11.9576 15.3253 11.8535H15.1253ZM15.5142 11.4648C15.2998 11.4648 15.1253 11.6391 15.1253 11.8535H15.3253C15.3253 11.7496 15.4102 11.6648 15.5142 11.6648V11.4648ZM15.903 11.8535C15.903 11.639 15.7285 11.4648 15.5142 11.4648V11.6648C15.6182 11.6648 15.703 11.7495 15.703 11.8535H15.903ZM15.5142 12.2423C15.7285 12.2423 15.903 12.0681 15.903 11.8535H15.703C15.703 11.9576 15.6181 12.0423 15.5142 12.0423V12.2423ZM15.457 7.30883L9.03855 6.74407L9.02102 6.9433L15.4395 7.50806L15.457 7.30883ZM15.8566 7.09244L15.4035 7.319L15.493 7.49789L15.9461 7.27133L15.8566 7.09244ZM8.95528 3.82064L15.8566 7.27133L15.9461 7.09244L9.04472 3.64176L8.95528 3.82064ZM2.14335 7.27133L9.04472 3.82064L8.95528 3.64176L2.05391 7.09244L2.14335 7.27133ZM9.04472 10.5431L2.14335 7.09244L2.05391 7.27133L8.95528 10.722L9.04472 10.5431ZM14.2441 7.89866L8.95528 10.5431L9.04472 10.722L14.3335 8.07754L14.2441 7.89866ZM8.96145 7.6197L14.2801 8.08771L14.2976 7.88848L8.97898 7.42047L8.96145 7.6197ZM8.56226 7.14325C8.54076 7.3852 8.71971 7.59844 8.96146 7.6197L8.97897 7.42046C8.84719 7.40888 8.74977 7.29266 8.76147 7.16095L8.56226 7.14325ZM9.03848 6.74407C8.79685 6.72298 8.58343 6.90145 8.56225 7.14337L8.76148 7.16082C8.77301 7.02921 8.88918 6.9318 9.02109 6.94331L9.03848 6.74407Z" fill="white"/>
</g>
</g>
</g>
</svg>
