<svg width="18" height="18" viewBox="0 0 18 18" fill="none" xmlns="http://www.w3.org/2000/svg">
<g id="Education">
<rect id="Rectangle 4 Copy 7" width="18" height="18" fill="#F4F7FB" fill-opacity="0.01"/>
<g id="mortarboard">
<g id="Shape">
<path fill-rule="evenodd" clip-rule="evenodd" d="M16.8123 6.87817L9.15186 3.04797C9.05627 3.00012 8.94373 3.00012 8.84814 3.04797L1.18774 6.87817C1.07263 6.93573 1 7.05328 1 7.18188C1 7.21783 1.00574 7.25293 1.01636 7.28613C1.02136 7.30164 1.02747 7.31671 1.03467 7.33124C1.04102 7.34424 1.04822 7.35687 1.05615 7.36896C1.08838 7.41779 1.1333 7.45837 1.18774 7.48553L3.63953 8.71143V10.8263C3.63953 11.1632 3.78442 11.4865 4.03711 11.7136C5.40198 12.9378 7.16443 13.6121 9 13.6121C10.8356 13.6121 12.598 12.9379 13.963 11.7134C14.2157 11.4865 14.3605 11.1631 14.3605 10.8263V8.71143L15.1747 8.30438V10.9473C14.808 11.0852 14.5464 11.4393 14.5464 11.8535C14.5464 12.2355 14.7687 12.5663 15.0907 12.7236L14.5067 14.7416C14.4769 14.8441 14.4972 14.9546 14.5614 15.0399C14.5986 15.0895 14.6482 15.1273 14.7041 15.1501C14.7445 15.1667 14.7881 15.1755 14.8328 15.1755H16.1956C16.3024 15.1755 16.4028 15.1253 16.4669 15.0399C16.5311 14.9547 16.5514 14.8441 16.5217 14.7416L15.9376 12.7236C16.2596 12.5662 16.4821 12.2354 16.4821 11.8535C16.4821 11.4393 16.2203 11.0851 15.8536 10.9473V7.96484L16.8123 7.48553C16.9274 7.42798 17 7.31042 17 7.18182C17 7.05328 16.9274 6.93573 16.8123 6.87817ZM13.6815 10.8264C13.6815 10.9708 13.6187 11.11 13.5094 11.2081C12.2694 12.3205 10.6678 12.9331 9 12.9331C7.33203 12.9331 5.73059 12.3204 4.49072 11.2083C4.46704 11.187 4.44568 11.1639 4.42651 11.1392C4.40369 11.1098 4.38416 11.0781 4.36829 11.0449C4.35901 11.0255 4.35107 11.0056 4.34436 10.9852C4.33984 10.9717 4.33594 10.9579 4.33252 10.9441C4.32324 10.9058 4.31848 10.8663 4.31848 10.8264V9.05096L8.84814 11.3158C8.896 11.3397 8.948 11.3516 9 11.3516C9.00964 11.3516 9.01929 11.3512 9.02881 11.3504L9.0387 11.3494C9.052 11.3479 9.06519 11.3456 9.07837 11.3425C9.08496 11.3409 9.09143 11.3392 9.0979 11.3372C9.11633 11.3317 9.1344 11.3245 9.15186 11.3158L13.6815 9.05096V10.8264ZM15.5143 13.703L15.2845 14.4965H15.7439L15.5143 13.703ZM15.5142 12.1423C15.3549 12.1423 15.2253 12.0128 15.2253 11.8535C15.2253 11.6943 15.3549 11.5648 15.5142 11.5648C15.6733 11.5648 15.803 11.6943 15.803 11.8535C15.803 12.0128 15.6735 12.1423 15.5142 12.1423ZM9.02979 6.84369L15.4482 7.40845L15.9012 7.18188L9 3.7312L2.09863 7.18188L9 10.6326L14.2889 7.9881L8.97021 7.52008C8.78345 7.50366 8.64526 7.33893 8.66174 7.1521C8.67822 6.96533 8.8429 6.82739 9.02979 6.84369Z" fill="#0C49CD"/>
<path d="M9.15186 3.04797L9.10709 3.13739L9.10713 3.13742L9.15186 3.04797ZM8.84814 3.04797L8.89287 3.13742L8.89291 3.13739L8.84814 3.04797ZM1.01636 7.28613L0.921111 7.3166L0.921194 7.31685L1.01636 7.28613ZM1.03467 7.33124L1.12453 7.28736L1.12426 7.28682L1.03467 7.33124ZM1.05615 7.36896L0.972559 7.42384L0.972691 7.42404L1.05615 7.36896ZM1.18774 7.48553L1.23247 7.39609L1.23239 7.39605L1.18774 7.48553ZM3.63953 8.71143H3.73953V8.64962L3.68425 8.62198L3.63953 8.71143ZM4.03711 11.7136L3.97026 11.788L3.97034 11.7881L4.03711 11.7136ZM13.963 11.7134L14.0298 11.7879L14.0298 11.7878L13.963 11.7134ZM14.3605 8.71143L14.3158 8.62198L14.2605 8.64962V8.71143H14.3605ZM15.1747 8.30438H15.2747V8.14259L15.13 8.21494L15.1747 8.30438ZM15.1747 10.9473L15.2099 11.0409L15.2747 11.0166V10.9473H15.1747ZM15.0907 12.7236L15.1868 12.7514L15.2101 12.6707L15.1346 12.6338L15.0907 12.7236ZM14.5067 14.7416L14.6027 14.7695L14.6028 14.7694L14.5067 14.7416ZM14.5614 15.0399L14.6414 14.9799L14.6413 14.9798L14.5614 15.0399ZM14.7041 15.1501L14.6662 15.2427H14.6662L14.7041 15.1501ZM16.4669 15.0399L16.387 14.9798L16.3869 14.9799L16.4669 15.0399ZM16.5217 14.7416L16.6178 14.7138L16.6178 14.7138L16.5217 14.7416ZM15.9376 12.7236L15.8937 12.6337L15.8182 12.6706L15.8416 12.7514L15.9376 12.7236ZM15.8536 10.9473H15.7536V11.0166L15.8185 11.0409L15.8536 10.9473ZM15.8536 7.96484L15.8089 7.8754L15.7536 7.90304V7.96484H15.8536ZM13.5094 11.2081L13.5762 11.2826L13.5762 11.2825L13.5094 11.2081ZM4.49072 11.2083L4.5575 11.1338L4.55749 11.1338L4.49072 11.2083ZM4.42651 11.1392L4.34751 11.2005L4.34756 11.2006L4.42651 11.1392ZM4.36829 11.0449L4.45854 11.0018L4.45851 11.0017L4.36829 11.0449ZM4.34436 10.9852L4.43931 10.9539L4.43923 10.9536L4.34436 10.9852ZM4.33252 10.9441L4.23533 10.9676L4.23543 10.968L4.33252 10.9441ZM4.31848 9.05096L4.3632 8.96152L4.21848 8.88916V9.05096H4.31848ZM9.02881 11.3504L9.03711 11.4501L9.03864 11.4499L9.02881 11.3504ZM9.0387 11.3494L9.04853 11.449L9.05009 11.4488L9.0387 11.3494ZM9.07837 11.3425L9.05582 11.245L9.05539 11.2451L9.07837 11.3425ZM9.0979 11.3372L9.06905 11.2415L9.069 11.2415L9.0979 11.3372ZM13.6815 9.05096H13.7815V8.88916L13.6368 8.96152L13.6815 9.05096ZM15.2845 14.4965L15.1885 14.4687L15.1515 14.5965H15.2845V14.4965ZM15.5143 13.703L15.6103 13.6752L15.5143 13.3433L15.4182 13.6752L15.5143 13.703ZM15.7439 14.4965V14.5965H15.8769L15.84 14.4687L15.7439 14.4965ZM15.4482 7.40845L15.4395 7.50806L15.4677 7.51054L15.493 7.49789L15.4482 7.40845ZM9.02979 6.84369L9.03855 6.74407L9.03847 6.74407L9.02979 6.84369ZM15.9012 7.18188L15.946 7.27132L16.1248 7.18187L15.946 7.09244L15.9012 7.18188ZM9 3.7312L9.04472 3.64176L9 3.6194L8.95528 3.64176L9 3.7312ZM2.09863 7.18188L2.05391 7.09244L1.87503 7.18188L2.05391 7.27133L2.09863 7.18188ZM9 10.6326L8.95528 10.722L9 10.7444L9.04472 10.722L9 10.6326ZM14.2889 7.9881L14.3337 8.07754L14.6498 7.91947L14.2977 7.88848L14.2889 7.9881ZM8.97021 7.52008L8.97898 7.42047L8.97897 7.42046L8.97021 7.52008ZM8.66174 7.1521L8.56213 7.14331V7.14331L8.66174 7.1521ZM9.10713 3.13742L16.7675 6.96762L16.857 6.78873L9.19658 2.95853L9.10713 3.13742ZM8.89291 3.13739C8.96031 3.10365 9.03969 3.10365 9.10709 3.13739L9.19662 2.95855C9.07286 2.8966 8.92714 2.8966 8.80338 2.95855L8.89291 3.13739ZM1.23247 6.96762L8.89287 3.13742L8.80342 2.95853L1.14302 6.78873L1.23247 6.96762ZM1.1 7.18188C1.1 7.09117 1.15123 7.00824 1.23247 6.96762L1.14302 6.78873C0.994037 6.86322 0.9 7.0154 0.9 7.18188H1.1ZM1.1116 7.25567C1.10403 7.23199 1.1 7.20716 1.1 7.18188H0.9C0.9 7.2285 0.907443 7.27387 0.921111 7.3166L1.1116 7.25567ZM1.12426 7.28682C1.1193 7.27682 1.11505 7.26633 1.11152 7.25541L0.921194 7.31685C0.927678 7.33694 0.935628 7.3566 0.945075 7.37566L1.12426 7.28682ZM1.13975 7.31407C1.13411 7.30549 1.12901 7.29654 1.12453 7.28736L0.944807 7.37511C0.953024 7.39194 0.962323 7.40825 0.97256 7.42384L1.13975 7.31407ZM1.23239 7.39605C1.19398 7.37689 1.16233 7.3483 1.13961 7.31387L0.972691 7.42404C1.01442 7.48727 1.07263 7.53986 1.1431 7.57502L1.23239 7.39605ZM3.68425 8.62198L1.23247 7.39609L1.14302 7.57498L3.59481 8.80087L3.68425 8.62198ZM3.73953 10.8263V8.71143H3.53953V10.8263H3.73953ZM4.10396 11.6392C3.87216 11.4309 3.73953 11.1346 3.73953 10.8263H3.53953C3.53953 11.1919 3.69669 11.5421 3.97026 11.788L4.10396 11.6392ZM9 13.5121C7.18905 13.5121 5.45038 12.8469 4.10388 11.6392L3.97034 11.7881C5.35357 13.0287 7.13981 13.7121 9 13.7121V13.5121ZM13.8962 11.639C12.5496 12.8469 10.811 13.5121 9 13.5121V13.7121C10.8602 13.7121 12.6464 13.0288 14.0298 11.7879L13.8962 11.639ZM14.2605 10.8263C14.2605 11.1345 14.1279 11.4309 13.8962 11.639L14.0298 11.7878C14.3035 11.5421 14.4605 11.1918 14.4605 10.8263H14.2605ZM14.2605 8.71143V10.8263H14.4605V8.71143H14.2605ZM15.13 8.21494L14.3158 8.62198L14.4052 8.80087L15.2194 8.39383L15.13 8.21494ZM15.2747 10.9473V8.30438H15.0747V10.9473H15.2747ZM14.6464 11.8535C14.6464 11.4825 14.8808 11.1647 15.2099 11.0409L15.1395 10.8537C14.7352 11.0057 14.4464 11.3962 14.4464 11.8535H14.6464ZM15.1346 12.6338C14.8455 12.4925 14.6464 12.1957 14.6464 11.8535H14.4464C14.4464 12.2752 14.6919 12.6401 15.0468 12.8135L15.1346 12.6338ZM14.6028 14.7694L15.1868 12.7514L14.9946 12.6958L14.4107 14.7138L14.6028 14.7694ZM14.6413 14.9798C14.596 14.9196 14.5817 14.8418 14.6027 14.7695L14.4107 14.7137C14.3721 14.8465 14.3984 14.9896 14.4815 15.1L14.6413 14.9798ZM14.742 15.0576C14.7025 15.0415 14.6676 15.0149 14.6414 14.9799L14.4814 15.0999C14.5296 15.1642 14.5938 15.2131 14.6662 15.2427L14.742 15.0576ZM14.8328 15.0755C14.8013 15.0755 14.7705 15.0693 14.742 15.0576L14.6662 15.2427C14.7185 15.2641 14.7749 15.2755 14.8328 15.2755V15.0755ZM16.1956 15.0755H14.8328V15.2755H16.1956V15.0755ZM16.3869 14.9799C16.3418 15.0401 16.2709 15.0755 16.1956 15.0755V15.2755C16.3338 15.2755 16.4639 15.2105 16.5469 15.0999L16.3869 14.9799ZM16.4257 14.7694C16.4466 14.8417 16.4323 14.9197 16.387 14.9798L16.5468 15.1001C16.63 14.9896 16.6562 14.8465 16.6178 14.7138L16.4257 14.7694ZM15.8416 12.7514L16.4257 14.7694L16.6178 14.7138L16.0337 12.6958L15.8416 12.7514ZM16.3821 11.8535C16.3821 12.1956 16.1829 12.4924 15.8937 12.6337L15.9815 12.8134C16.3364 12.64 16.5821 12.2752 16.5821 11.8535H16.3821ZM15.8185 11.0409C16.1476 11.1646 16.3821 11.4825 16.3821 11.8535H16.5821C16.5821 11.3962 16.2931 11.0057 15.8888 10.8537L15.8185 11.0409ZM15.7536 7.96484V10.9473H15.9536V7.96484H15.7536ZM16.7675 7.39609L15.8089 7.8754L15.8984 8.05429L16.857 7.57498L16.7675 7.39609ZM16.9 7.18182C16.9 7.27254 16.8488 7.35547 16.7675 7.39609L16.857 7.57498C17.006 7.50048 17.1 7.34831 17.1 7.18182H16.9ZM16.7675 6.96762C16.8488 7.00824 16.9 7.09118 16.9 7.18182H17.1C17.1 7.01539 17.006 6.86322 16.857 6.78873L16.7675 6.96762ZM13.5762 11.2825C13.7061 11.1658 13.7815 10.9998 13.7815 10.8264H13.5815C13.5815 10.9418 13.5312 11.0541 13.4426 11.1337L13.5762 11.2825ZM9 13.0331C10.6925 13.0331 12.3178 12.4114 13.5762 11.2826L13.4426 11.1337C12.221 12.2296 10.6432 12.8331 9 12.8331V13.0331ZM4.42395 11.2827C5.68219 12.4114 7.30742 13.0331 9 13.0331V12.8331C7.35665 12.8331 5.77899 12.2295 4.5575 11.1338L4.42395 11.2827ZM4.34756 11.2006C4.37023 11.2298 4.39564 11.2573 4.42395 11.2827L4.55749 11.1338C4.53844 11.1167 4.52113 11.098 4.50547 11.0779L4.34756 11.2006ZM4.27803 11.0879C4.297 11.1277 4.32031 11.1655 4.34751 11.2005L4.50552 11.0779C4.48706 11.0541 4.47131 11.0286 4.45854 11.0018L4.27803 11.0879ZM4.24941 11.0166C4.25739 11.0408 4.26688 11.0646 4.27806 11.088L4.45851 11.0017C4.45114 10.9863 4.44476 10.9704 4.43931 10.9539L4.24941 11.0166ZM4.23543 10.968C4.23941 10.9842 4.24404 11.0005 4.24949 11.0169L4.43923 10.9536C4.43565 10.9429 4.43247 10.9317 4.42961 10.9201L4.23543 10.968ZM4.21848 10.8264C4.21848 10.8742 4.22419 10.9216 4.23533 10.9676L4.42971 10.9206C4.42229 10.8899 4.41848 10.8583 4.41848 10.8264H4.21848ZM4.21848 9.05096V10.8264H4.41848V9.05096H4.21848ZM8.89287 11.2264L4.3632 8.96152L4.27376 9.14041L8.80342 11.4052L8.89287 11.2264ZM9 11.2516C8.96327 11.2516 8.92661 11.2432 8.89287 11.2264L8.80342 11.4052C8.86538 11.4362 8.93273 11.4516 9 11.4516V11.2516ZM9.0205 11.2507C9.01357 11.2513 9.00671 11.2516 9 11.2516V11.4516C9.01258 11.4516 9.025 11.4511 9.03711 11.4501L9.0205 11.2507ZM9.02887 11.2499L9.01898 11.2509L9.03864 11.4499L9.04852 11.4489L9.02887 11.2499ZM9.05539 11.2451C9.04593 11.2474 9.03661 11.249 9.0273 11.2501L9.05009 11.4488C9.06739 11.4468 9.08444 11.4438 9.10135 11.4398L9.05539 11.2451ZM9.069 11.2415C9.06418 11.2429 9.05986 11.2441 9.05582 11.245L9.10092 11.4399C9.11006 11.4378 9.11868 11.4354 9.1268 11.433L9.069 11.2415ZM9.10713 11.2264C9.09485 11.2325 9.0821 11.2375 9.06905 11.2415L9.12675 11.433C9.15057 11.4258 9.17395 11.4166 9.19658 11.4052L9.10713 11.2264ZM13.6368 8.96152L9.10713 11.2264L9.19658 11.4052L13.7262 9.14041L13.6368 8.96152ZM13.7815 10.8264V9.05096H13.5815V10.8264H13.7815ZM15.3806 14.5243L15.6103 13.7308L15.4182 13.6752L15.1885 14.4687L15.3806 14.5243ZM15.7439 14.3965H15.2845V14.5965H15.7439V14.3965ZM15.4182 13.7308L15.6478 14.5243L15.84 14.4687L15.6103 13.6752L15.4182 13.7308ZM15.1253 11.8535C15.1253 12.068 15.2996 12.2423 15.5142 12.2423V12.0423C15.4101 12.0423 15.3253 11.9576 15.3253 11.8535H15.1253ZM15.5142 11.4648C15.2996 11.4648 15.1253 11.6391 15.1253 11.8535H15.3253C15.3253 11.7496 15.4101 11.6648 15.5142 11.6648V11.4648ZM15.903 11.8535C15.903 11.639 15.7285 11.4648 15.5142 11.4648V11.6648C15.6182 11.6648 15.703 11.7495 15.703 11.8535H15.903ZM15.5142 12.2423C15.7287 12.2423 15.903 12.068 15.903 11.8535H15.703C15.703 11.9576 15.6182 12.0423 15.5142 12.0423V12.2423ZM15.457 7.30883L9.03855 6.74407L9.02102 6.9433L15.4395 7.50806L15.457 7.30883ZM15.8565 7.09245L15.4035 7.31901L15.493 7.49789L15.946 7.27132L15.8565 7.09245ZM8.95528 3.82064L15.8565 7.27133L15.946 7.09244L9.04472 3.64176L8.95528 3.82064ZM2.14335 7.27133L9.04472 3.82064L8.95528 3.64176L2.05391 7.09244L2.14335 7.27133ZM9.04472 10.5431L2.14335 7.09244L2.05391 7.27133L8.95528 10.722L9.04472 10.5431ZM14.2442 7.89866L8.95528 10.5431L9.04472 10.722L14.3337 8.07754L14.2442 7.89866ZM8.96145 7.6197L14.2802 8.08771L14.2977 7.88848L8.97898 7.42047L8.96145 7.6197ZM8.56213 7.14331C8.54079 7.3852 8.7197 7.59844 8.96146 7.6197L8.97897 7.42046C8.8472 7.40888 8.74973 7.29265 8.76136 7.16089L8.56213 7.14331ZM9.03847 6.74407C8.79669 6.72298 8.58347 6.90148 8.56213 7.14331L8.76136 7.16089C8.77298 7.02919 8.8891 6.9318 9.0211 6.94331L9.03847 6.74407Z" fill="#0C49CD"/>
</g>
</g>
</g>
</svg>
