<svg width="18" height="18" viewBox="0 0 18 18" fill="none" xmlns="http://www.w3.org/2000/svg">
<g id="Electronics">
<rect id="Rectangle 4 Copy 4" width="18" height="18" fill="#F4F7FB" fill-opacity="0.01"/>
<g id="plug (1)">
<g id="Shape">
<path fill-rule="evenodd" clip-rule="evenodd" d="M14.1604 5.2666C14.1604 4.81335 13.8137 4.46667 13.3604 4.46667H12.5604V1.80005C12.5604 1.34668 12.2137 1 11.7604 1C11.3071 1 10.9604 1.34668 10.9604 1.80005V4.46667H7.22705V1.80005C7.22705 1.34668 6.88049 1 6.42712 1C5.97375 1 5.62708 1.34668 5.62708 1.80005V4.46667H4.82715C4.37378 4.46667 4.0271 4.81335 4.0271 5.2666C4.0271 5.62573 4.24475 5.91772 4.56042 6.02368V10.8667C4.56042 12.2 5.62708 13.2666 6.96045 13.2666H7.7605V14.3333C7.7605 14.4933 7.86707 14.6 8.0271 14.6H8.2937V15.6666C8.2937 15.8267 8.40039 15.9332 8.56042 15.9332H8.82703V16.7333C8.82703 16.8933 8.93372 16.9999 9.09375 16.9999C9.25378 16.9999 9.36035 16.8933 9.36035 16.7333V15.9332H9.62708C9.78699 15.9332 9.89368 15.8267 9.89368 15.6666V14.6H10.1604C10.3203 14.6 10.427 14.4933 10.427 14.3334V13.2667H11.2271C12.5603 13.2667 13.627 12.2001 13.627 10.8667V6.02368C13.9429 5.91772 14.1604 5.62573 14.1604 5.2666ZM11.4938 1.79993C11.4938 1.64001 11.6005 1.53333 11.7604 1.53333C11.8484 1.53333 11.9203 1.56567 11.9672 1.62134C12.0055 1.66687 12.0271 1.72803 12.0271 1.79993V4.46667H11.4938V1.79993ZM6.42712 1.53333C6.26709 1.53333 6.1604 1.66663 6.1604 1.79993V4.46667H6.69373V1.79993C6.69373 1.64001 6.58704 1.53333 6.42712 1.53333ZM9.36035 15.4H8.82703V14.6H9.36035V15.4ZM9.62708 14.0667H9.89368V13.2666H8.2937V14.0667H8.56042H9.62708ZM13.0938 10.8667C13.0938 11.9066 12.2671 12.7333 11.2271 12.7333H10.1604H8.0271H6.96045C5.92041 12.7333 5.09375 11.9066 5.09375 10.8667V6.06665H13.0938V10.8667ZM4.82703 5.53333H13.3604C13.4667 5.53333 13.5496 5.48621 13.5931 5.40759C13.6151 5.36792 13.6271 5.32031 13.6271 5.2666C13.6271 5.10669 13.5204 5 13.3604 5H12.2937H11.2271H6.96045H5.89368H4.82703C4.66711 5 4.56042 5.10669 4.56042 5.2666C4.56042 5.42664 4.66711 5.53333 4.82703 5.53333Z" fill="#0C49CD"/>
<path d="M12.5604 4.46667H12.4604V4.56667H12.5604V4.46667ZM10.9604 4.46667V4.56667H11.0604V4.46667H10.9604ZM7.22705 4.46667H7.12705V4.56667H7.22705V4.46667ZM5.62708 4.46667V4.56667H5.72708V4.46667H5.62708ZM4.56042 6.02368H4.66042V5.95176L4.59225 5.92888L4.56042 6.02368ZM7.7605 13.2666H7.8605V13.1666H7.7605V13.2666ZM8.2937 14.6H8.3937V14.5H8.2937V14.6ZM8.82703 15.9332H8.92703V15.8332H8.82703V15.9332ZM9.36035 15.9332V15.8332H9.26035V15.9332H9.36035ZM9.89368 14.6V14.5H9.79368V14.6H9.89368ZM10.427 13.2667V13.1667H10.327V13.2667H10.427ZM13.627 6.02368L13.5952 5.92887L13.527 5.95175V6.02368H13.627ZM11.9672 1.62134L12.0437 1.55694L12.0437 1.55692L11.9672 1.62134ZM12.0271 4.46667V4.56667H12.1271V4.46667H12.0271ZM11.4938 4.46667H11.3938V4.56667H11.4938V4.46667ZM6.1604 4.46667H6.0604V4.56667H6.1604V4.46667ZM6.69373 4.46667V4.56667H6.79373V4.46667H6.69373ZM8.82703 15.4H8.72703V15.5H8.82703V15.4ZM9.36035 15.4V15.5H9.46035V15.4H9.36035ZM8.82703 14.6V14.5H8.72703V14.6H8.82703ZM9.36035 14.6H9.46035V14.5H9.36035V14.6ZM9.89368 14.0667V14.1667H9.99368V14.0667H9.89368ZM9.89368 13.2666H9.99368V13.1666H9.89368V13.2666ZM8.2937 13.2666V13.1666H8.1937V13.2666H8.2937ZM8.2937 14.0667H8.1937V14.1667H8.2937V14.0667ZM5.09375 6.06665V5.96665H4.99375V6.06665H5.09375ZM13.0938 6.06665H13.1938V5.96665H13.0938V6.06665ZM13.5931 5.40759L13.6806 5.45608L13.6806 5.45604L13.5931 5.40759ZM13.3604 4.56667C13.7585 4.56667 14.0604 4.86859 14.0604 5.2666H14.2604C14.2604 4.75812 13.8689 4.36667 13.3604 4.36667V4.56667ZM12.5604 4.56667H13.3604V4.36667H12.5604V4.56667ZM12.4604 1.80005V4.46667H12.6604V1.80005H12.4604ZM11.7604 1.1C12.1585 1.1 12.4604 1.40191 12.4604 1.80005H12.6604C12.6604 1.29145 12.269 0.9 11.7604 0.9V1.1ZM11.0604 1.80005C11.0604 1.4019 11.3624 1.1 11.7604 1.1V0.9C11.2519 0.9 10.8604 1.29146 10.8604 1.80005H11.0604ZM11.0604 4.46667V1.80005H10.8604V4.46667H11.0604ZM7.22705 4.56667H10.9604V4.36667H7.22705V4.56667ZM7.12705 1.80005V4.46667H7.32705V1.80005H7.12705ZM6.42712 1.1C6.82524 1.1 7.12705 1.40189 7.12705 1.80005H7.32705C7.32705 1.29147 6.93574 0.9 6.42712 0.9V1.1ZM5.72708 1.80005C5.72708 1.40191 6.02898 1.1 6.42712 1.1V0.9C5.91853 0.9 5.52708 1.29145 5.52708 1.80005H5.72708ZM5.72708 4.46667V1.80005H5.52708V4.46667H5.72708ZM4.82715 4.56667H5.62708V4.36667H4.82715V4.56667ZM4.1271 5.2666C4.1271 4.86859 4.429 4.56667 4.82715 4.56667V4.36667C4.31856 4.36667 3.9271 4.75812 3.9271 5.2666H4.1271ZM4.59225 5.92888C4.31765 5.83671 4.1271 5.58313 4.1271 5.2666H3.9271C3.9271 5.66834 4.17186 5.99874 4.5286 6.11848L4.59225 5.92888ZM4.66042 10.8667V6.02368H4.46042V10.8667H4.66042ZM6.96045 13.1666C5.6823 13.1666 4.66042 12.1447 4.66042 10.8667H4.46042C4.46042 12.2552 5.57185 13.3666 6.96045 13.3666V13.1666ZM7.7605 13.1666H6.96045V13.3666H7.7605V13.1666ZM7.8605 14.3333V13.2666H7.6605V14.3333H7.8605ZM8.0271 14.5C7.96981 14.5 7.92988 14.4813 7.90452 14.4559C7.87915 14.4306 7.8605 14.3906 7.8605 14.3333H7.6605C7.6605 14.436 7.69513 14.5293 7.76305 14.5973C7.83098 14.6653 7.92435 14.7 8.0271 14.7V14.5ZM8.2937 14.5H8.0271V14.7H8.2937V14.5ZM8.3937 15.6666V14.6H8.1937V15.6666H8.3937ZM8.56042 15.8332C8.5031 15.8332 8.46312 15.8146 8.43774 15.7892C8.41236 15.7638 8.3937 15.7239 8.3937 15.6666H8.1937C8.1937 15.7694 8.22839 15.8627 8.29636 15.9307C8.36433 15.9986 8.45772 16.0332 8.56042 16.0332V15.8332ZM8.82703 15.8332H8.56042V16.0332H8.82703V15.8332ZM8.92703 16.7333V15.9332H8.72703V16.7333H8.92703ZM9.09375 16.8999C9.03642 16.8999 8.99645 16.8812 8.97106 16.8559C8.94568 16.8305 8.92703 16.7906 8.92703 16.7333H8.72703C8.72703 16.836 8.76171 16.9294 8.82969 16.9973C8.89766 17.0652 8.99104 17.0999 9.09375 17.0999V16.8999ZM9.26035 16.7333C9.26035 16.7906 9.2417 16.8305 9.21635 16.8559C9.191 16.8812 9.15107 16.8999 9.09375 16.8999V17.0999C9.19646 17.0999 9.28983 17.0652 9.35777 16.9973C9.42572 16.9294 9.46035 16.836 9.46035 16.7333H9.26035ZM9.26035 15.9332V16.7333H9.46035V15.9332H9.26035ZM9.62708 15.8332H9.36035V16.0332H9.62708V15.8332ZM9.79368 15.6666C9.79368 15.7239 9.77502 15.7639 9.74964 15.7892C9.72426 15.8146 9.68432 15.8332 9.62708 15.8332V16.0332C9.72974 16.0332 9.8231 15.9986 9.89104 15.9307C9.95899 15.8627 9.99368 15.7694 9.99368 15.6666H9.79368ZM9.79368 14.6V15.6666H9.99368V14.6H9.79368ZM10.1604 14.5H9.89368V14.7H10.1604V14.5ZM10.327 14.3334C10.327 14.3906 10.3084 14.4305 10.283 14.4559C10.2576 14.4813 10.2176 14.5 10.1604 14.5V14.7C10.2631 14.7 10.3565 14.6653 10.4244 14.5974C10.4923 14.5294 10.527 14.4361 10.527 14.3334H10.327ZM10.327 13.2667V14.3334H10.527V13.2667H10.327ZM11.2271 13.1667H10.427V13.3667H11.2271V13.1667ZM13.527 10.8667C13.527 12.1448 12.5051 13.1667 11.2271 13.1667V13.3667C12.6155 13.3667 13.727 12.2553 13.727 10.8667H13.527ZM13.527 6.02368V10.8667H13.727V6.02368H13.527ZM14.0604 5.2666C14.0604 5.58314 13.87 5.8367 13.5952 5.92887L13.6588 6.11849C14.0158 5.99875 14.2604 5.66833 14.2604 5.2666H14.0604ZM11.7604 1.43333C11.6577 1.43333 11.5643 1.46802 11.4964 1.53595C11.4285 1.60388 11.3938 1.69723 11.3938 1.79993H11.5938C11.5938 1.74271 11.6124 1.70277 11.6378 1.67737C11.6632 1.65197 11.7032 1.63333 11.7604 1.63333V1.43333ZM12.0437 1.55692C11.9752 1.47567 11.8737 1.43333 11.7604 1.43333V1.63333C11.8231 1.63333 11.8653 1.65568 11.8907 1.68575L12.0437 1.55692ZM12.1271 1.79993C12.1271 1.70768 12.0991 1.62282 12.0437 1.55694L11.8907 1.68574C11.9119 1.71093 11.9271 1.74837 11.9271 1.79993H12.1271ZM12.1271 4.46667V1.79993H11.9271V4.46667H12.1271ZM11.4938 4.56667H12.0271V4.36667H11.4938V4.56667ZM11.3938 1.79993V4.46667H11.5938V1.79993H11.3938ZM6.2604 1.79993C6.2604 1.71529 6.32866 1.63333 6.42712 1.63333V1.43333C6.20552 1.43333 6.0604 1.61796 6.0604 1.79993H6.2604ZM6.2604 4.46667V1.79993H6.0604V4.46667H6.2604ZM6.69373 4.36667H6.1604V4.56667H6.69373V4.36667ZM6.59373 1.79993V4.46667H6.79373V1.79993H6.59373ZM6.42712 1.63333C6.48434 1.63333 6.52429 1.65197 6.54968 1.67737C6.57508 1.70277 6.59373 1.74271 6.59373 1.79993H6.79373C6.79373 1.69723 6.75903 1.60388 6.6911 1.53595C6.62318 1.46802 6.52982 1.43333 6.42712 1.43333V1.63333ZM8.82703 15.5H9.36035V15.3H8.82703V15.5ZM8.72703 14.6V15.4H8.92703V14.6H8.72703ZM9.36035 14.5H8.82703V14.7H9.36035V14.5ZM9.46035 15.4V14.6H9.26035V15.4H9.46035ZM9.89368 13.9667H9.62708V14.1667H9.89368V13.9667ZM9.79368 13.2666V14.0667H9.99368V13.2666H9.79368ZM8.2937 13.3666H9.89368V13.1666H8.2937V13.3666ZM8.3937 14.0667V13.2666H8.1937V14.0667H8.3937ZM8.56042 13.9667H8.2937V14.1667H8.56042V13.9667ZM9.62708 13.9667H8.56042V14.1667H9.62708V13.9667ZM11.2271 12.8333C12.3223 12.8333 13.1938 11.9618 13.1938 10.8667H12.9937C12.9937 11.8514 12.2119 12.6333 11.2271 12.6333V12.8333ZM10.1604 12.8333H11.2271V12.6333H10.1604V12.8333ZM8.0271 12.8333H10.1604V12.6333H8.0271V12.8333ZM6.96045 12.8333H8.0271V12.6333H6.96045V12.8333ZM4.99375 10.8667C4.99375 11.9618 5.86519 12.8333 6.96045 12.8333V12.6333C5.97563 12.6333 5.19375 11.8514 5.19375 10.8667H4.99375ZM4.99375 6.06665V10.8667H5.19375V6.06665H4.99375ZM13.0938 5.96665H5.09375V6.16665H13.0938V5.96665ZM13.1938 10.8667V6.06665H12.9937V10.8667H13.1938ZM13.3604 5.43333H4.82703V5.63333H13.3604V5.43333ZM13.5057 5.35911C13.482 5.4018 13.4353 5.43333 13.3604 5.43333V5.63333C13.498 5.63333 13.6171 5.57061 13.6806 5.45608L13.5057 5.35911ZM13.5271 5.2666C13.5271 5.30537 13.5185 5.33596 13.5057 5.35914L13.6806 5.45604C13.7117 5.39988 13.7271 5.33526 13.7271 5.2666H13.5271ZM13.3604 5.1C13.4176 5.1 13.4576 5.11866 13.483 5.14406C13.5084 5.16945 13.5271 5.20939 13.5271 5.2666H13.7271C13.7271 5.1639 13.6924 5.07054 13.6244 5.00261C13.5565 4.93468 13.4631 4.9 13.3604 4.9V5.1ZM12.2937 5.1H13.3604V4.9H12.2937V5.1ZM11.2271 5.1H12.2937V4.9H11.2271V5.1ZM6.96045 5.1H11.2271V4.9H6.96045V5.1ZM5.89368 5.1H6.96045V4.9H5.89368V5.1ZM4.82703 5.1H5.89368V4.9H4.82703V5.1ZM4.66042 5.2666C4.66042 5.20939 4.67907 5.16944 4.70447 5.14404C4.72986 5.11865 4.76981 5.1 4.82703 5.1V4.9C4.72433 4.9 4.63098 4.9347 4.56305 5.00262C4.49512 5.07055 4.46042 5.1639 4.46042 5.2666H4.66042ZM4.82703 5.43333C4.76982 5.43333 4.72987 5.41468 4.70448 5.38928C4.67909 5.36387 4.66042 5.32389 4.66042 5.2666H4.46042C4.46042 5.36934 4.49511 5.46272 4.56304 5.53068C4.63097 5.59863 4.72433 5.63333 4.82703 5.63333V5.43333Z" fill="#0C49CD"/>
</g>
<path id="Shape_2" d="M8.02709 9.5333H9.52043L8.10709 10.9466C8.00043 11.0533 8.00043 11.2133 8.10709 11.32C8.16043 11.3733 8.21375 11.4 8.29375 11.4C8.37375 11.4 8.42709 11.3733 8.4804 11.32L10.3471 9.45334C10.4271 9.37334 10.4537 9.26668 10.4004 9.15999C10.3737 9.05334 10.2671 8.99999 10.1604 8.99999H8.66706L10.0804 7.58665C10.1871 7.47999 10.1871 7.31999 10.0804 7.2133C9.97375 7.10662 9.81375 7.10665 9.70706 7.2133L7.8404 9.07996C7.7604 9.15996 7.7604 9.26662 7.78706 9.3733C7.81372 9.47999 7.9204 9.5333 8.02709 9.5333Z" fill="#0C49CD" stroke="#0C49CD" stroke-width="0.2"/>
</g>
</g>
</svg>
