<svg width="18" height="18" viewBox="0 0 18 18" fill="none" xmlns="http://www.w3.org/2000/svg">
<g id="Electronics White">
<rect id="Rectangle 4 Copy 4" width="18" height="18" fill="#F4F7FB" fill-opacity="0.01"/>
<g id="plug (1)">
<g id="Shape">
<path fill-rule="evenodd" clip-rule="evenodd" d="M14.1604 5.2666C14.1604 4.81335 13.8137 4.46667 13.3604 4.46667H12.5603V1.80005C12.5603 1.34668 12.2139 1 11.7605 1C11.3071 1 10.9604 1.34668 10.9604 1.80005V4.46667H7.22705V1.80005C7.22705 1.34668 6.88037 1 6.427 1C5.97388 1 5.6272 1.34668 5.6272 1.80005V4.46667H4.82715C4.37378 4.46667 4.0271 4.81335 4.0271 5.2666C4.0271 5.62573 4.24463 5.91772 4.56055 6.02368V10.8667C4.56055 12.2 5.6272 13.2666 6.96045 13.2666H7.7605V14.3333C7.7605 14.4933 7.86719 14.6 8.0271 14.6H8.2937V15.6666C8.2937 15.8267 8.40039 15.9332 8.5603 15.9332H8.82715V16.7333C8.82715 16.8933 8.93384 16.9999 9.09375 16.9999C9.15552 16.9999 9.20923 16.984 9.25195 16.9553C9.32007 16.9097 9.36035 16.8315 9.36035 16.7333V15.9332H9.62695C9.78711 15.9332 9.8938 15.8267 9.8938 15.6666V14.6H10.1604C10.3203 14.6 10.427 14.4933 10.427 14.3334V13.2667H11.2271C12.5603 13.2667 13.627 12.2001 13.627 10.8667V6.02368C13.9429 5.91772 14.1604 5.62573 14.1604 5.2666ZM11.4937 1.79993C11.4937 1.64001 11.6003 1.53333 11.7603 1.53333C11.9204 1.53333 12.0269 1.64001 12.0269 1.79993V4.46667H11.4937V1.79993ZM6.427 1.53333C6.26709 1.53333 6.1604 1.66663 6.1604 1.79993V4.46667H6.69385V1.79993C6.69385 1.76587 6.68896 1.73425 6.67993 1.70557C6.6665 1.66321 6.64355 1.6272 6.61279 1.59924C6.59497 1.58301 6.57446 1.56946 6.55151 1.55896C6.51538 1.54236 6.47339 1.53333 6.427 1.53333ZM9.3606 15.4H8.82715V14.6H9.3606V15.4ZM9.62695 14.0667H9.8938V13.2666H8.2937V14.0667H8.5603H9.62695ZM13.0938 10.8667C13.0938 11.9066 12.2671 12.7333 11.2271 12.7333H10.1604H8.0271H6.96045C5.92041 12.7333 5.09375 11.9066 5.09375 10.8667V6.06665H13.0938V10.8667ZM4.82715 5.53333H13.3606C13.5205 5.53333 13.6272 5.42664 13.6272 5.2666C13.6272 5.10669 13.5205 5 13.3606 5H12.2939H11.2271H6.96045H5.8938H4.82715C4.75342 5 4.69092 5.02283 4.64502 5.06299C4.59131 5.10986 4.56055 5.18054 4.56055 5.2666C4.56055 5.42664 4.66724 5.53333 4.82715 5.53333Z" fill="white"/>
<path d="M12.5603 4.46667H12.4603V4.56667H12.5603V4.46667ZM10.9604 4.46667V4.56667H11.0604V4.46667H10.9604ZM7.22705 4.46667H7.12705V4.56667H7.22705V4.46667ZM5.6272 4.46667V4.56667H5.7272V4.46667H5.6272ZM4.56055 6.02368H4.66055V5.95175L4.59235 5.92887L4.56055 6.02368ZM7.7605 13.2666H7.8605V13.1666H7.7605V13.2666ZM8.2937 14.6H8.3937V14.5H8.2937V14.6ZM8.82715 15.9332H8.92715V15.8332H8.82715V15.9332ZM9.25195 16.9553L9.19628 16.8723L9.19621 16.8723L9.25195 16.9553ZM9.36035 15.9332V15.8332H9.26035V15.9332H9.36035ZM9.8938 14.6V14.5H9.7938V14.6H9.8938ZM10.427 13.2667V13.1667H10.327V13.2667H10.427ZM13.627 6.02368L13.5952 5.92887L13.527 5.95175V6.02368H13.627ZM12.0269 4.46667V4.56667H12.1269V4.46667H12.0269ZM11.4937 4.46667H11.3937V4.56667H11.4937V4.46667ZM6.1604 4.46667H6.0604V4.56667H6.1604V4.46667ZM6.69385 4.46667V4.56667H6.79385V4.46667H6.69385ZM6.67993 1.70557L6.77531 1.67553L6.77526 1.67535L6.67993 1.70557ZM6.61279 1.59924L6.54545 1.67317L6.54554 1.67325L6.61279 1.59924ZM6.55151 1.55896L6.50976 1.64983L6.50991 1.6499L6.55151 1.55896ZM8.82715 15.4H8.72715V15.5H8.82715V15.4ZM9.3606 15.4V15.5H9.4606V15.4H9.3606ZM8.82715 14.6V14.5H8.72715V14.6H8.82715ZM9.3606 14.6H9.4606V14.5H9.3606V14.6ZM9.8938 14.0667V14.1667H9.9938V14.0667H9.8938ZM9.8938 13.2666H9.9938V13.1666H9.8938V13.2666ZM8.2937 13.2666V13.1666H8.1937V13.2666H8.2937ZM8.2937 14.0667H8.1937V14.1667H8.2937V14.0667ZM5.09375 6.06665V5.96665H4.99375V6.06665H5.09375ZM13.0938 6.06665H13.1938V5.96665H13.0938V6.06665ZM4.64502 5.06299L4.71077 5.13833L4.71087 5.13825L4.64502 5.06299ZM13.3604 4.56667C13.7585 4.56667 14.0604 4.86859 14.0604 5.2666H14.2604C14.2604 4.75812 13.8689 4.36667 13.3604 4.36667V4.56667ZM12.5603 4.56667H13.3604V4.36667H12.5603V4.56667ZM12.4603 1.80005V4.46667H12.6603V1.80005H12.4603ZM11.7605 1.1C12.1586 1.1 12.4603 1.40187 12.4603 1.80005H12.6603C12.6603 1.29149 12.2691 0.9 11.7605 0.9V1.1ZM11.0604 1.80005C11.0604 1.40191 11.3624 1.1 11.7605 1.1V0.9C11.2519 0.9 10.8604 1.29145 10.8604 1.80005H11.0604ZM11.0604 4.46667V1.80005H10.8604V4.46667H11.0604ZM7.22705 4.56667H10.9604V4.36667H7.22705V4.56667ZM7.12705 1.80005V4.46667H7.32705V1.80005H7.12705ZM6.427 1.1C6.82514 1.1 7.12705 1.40191 7.12705 1.80005H7.32705C7.32705 1.29145 6.9356 0.9 6.427 0.9V1.1ZM5.7272 1.80005C5.7272 1.40189 6.02913 1.1 6.427 1.1V0.9C5.91863 0.9 5.5272 1.29147 5.5272 1.80005H5.7272ZM5.7272 4.46667V1.80005H5.5272V4.46667H5.7272ZM4.82715 4.56667H5.6272V4.36667H4.82715V4.56667ZM4.1271 5.2666C4.1271 4.86859 4.429 4.56667 4.82715 4.56667V4.36667C4.31856 4.36667 3.9271 4.75812 3.9271 5.2666H4.1271ZM4.59235 5.92887C4.31753 5.8367 4.1271 5.58314 4.1271 5.2666H3.9271C3.9271 5.66833 4.17173 5.99875 4.52875 6.11849L4.59235 5.92887ZM4.66055 10.8667V6.02368H4.46055V10.8667H4.66055ZM6.96045 13.1666C5.68243 13.1666 4.66055 12.1447 4.66055 10.8667H4.46055C4.46055 12.2552 5.57197 13.3666 6.96045 13.3666V13.1666ZM7.7605 13.1666H6.96045V13.3666H7.7605V13.1666ZM7.8605 14.3333V13.2666H7.6605V14.3333H7.8605ZM8.0271 14.5C7.96989 14.5 7.92995 14.4813 7.90455 14.4559C7.87916 14.4305 7.8605 14.3905 7.8605 14.3333H7.6605C7.6605 14.436 7.69518 14.5294 7.76311 14.5973C7.83104 14.6653 7.9244 14.7 8.0271 14.7V14.5ZM8.2937 14.5H8.0271V14.7H8.2937V14.5ZM8.3937 15.6666V14.6H8.1937V15.6666H8.3937ZM8.5603 15.8332C8.50306 15.8332 8.46311 15.8146 8.43773 15.7892C8.41236 15.7639 8.3937 15.7239 8.3937 15.6666H8.1937C8.1937 15.7694 8.22839 15.8627 8.29634 15.9307C8.36428 15.9986 8.45763 16.0332 8.5603 16.0332V15.8332ZM8.82715 15.8332H8.5603V16.0332H8.82715V15.8332ZM8.92715 16.7333V15.9332H8.72715V16.7333H8.92715ZM9.09375 16.8999C9.03651 16.8999 8.99656 16.8812 8.97118 16.8559C8.94581 16.8305 8.92715 16.7906 8.92715 16.7333H8.72715C8.72715 16.836 8.76183 16.9294 8.82978 16.9973C8.89773 17.0652 8.99108 17.0999 9.09375 17.0999V16.8999ZM9.19621 16.8723C9.17198 16.8886 9.13823 16.8999 9.09375 16.8999V17.0999C9.17281 17.0999 9.24648 17.0794 9.3077 17.0383L9.19621 16.8723ZM9.26035 16.7333C9.26035 16.8029 9.233 16.8476 9.19628 16.8723L9.30763 17.0384C9.40714 16.9717 9.46035 16.8602 9.46035 16.7333H9.26035ZM9.26035 15.9332V16.7333H9.46035V15.9332H9.26035ZM9.62695 15.8332H9.36035V16.0332H9.62695V15.8332ZM9.7938 15.6666C9.7938 15.7239 9.77514 15.7638 9.74976 15.7892C9.72437 15.8146 9.68436 15.8332 9.62695 15.8332V16.0332C9.7297 16.0332 9.82312 15.9986 9.89111 15.9307C9.95911 15.8628 9.9938 15.7694 9.9938 15.6666H9.7938ZM9.7938 14.6V15.6666H9.9938V14.6H9.7938ZM10.1604 14.5H9.8938V14.7H10.1604V14.5ZM10.327 14.3334C10.327 14.3906 10.3084 14.4305 10.283 14.4559C10.2576 14.4813 10.2176 14.5 10.1604 14.5V14.7C10.2631 14.7 10.3565 14.6653 10.4244 14.5974C10.4923 14.5294 10.527 14.4361 10.527 14.3334H10.327ZM10.327 13.2667V14.3334H10.527V13.2667H10.327ZM11.2271 13.1667H10.427V13.3667H11.2271V13.1667ZM13.527 10.8667C13.527 12.1448 12.5051 13.1667 11.2271 13.1667V13.3667C12.6155 13.3667 13.727 12.2553 13.727 10.8667H13.527ZM13.527 6.02368V10.8667H13.727V6.02368H13.527ZM14.0604 5.2666C14.0604 5.58314 13.87 5.8367 13.5952 5.92887L13.6588 6.11849C14.0158 5.99875 14.2604 5.66833 14.2604 5.2666H14.0604ZM11.7603 1.43333C11.6576 1.43333 11.5642 1.46802 11.4963 1.53595C11.4283 1.60388 11.3937 1.69723 11.3937 1.79993H11.5937C11.5937 1.74271 11.6123 1.70277 11.6377 1.67737C11.6631 1.65197 11.703 1.63333 11.7603 1.63333V1.43333ZM12.1269 1.79993C12.1269 1.69729 12.0923 1.60393 12.0243 1.53597C11.9564 1.468 11.863 1.43333 11.7603 1.43333V1.63333C11.8176 1.63333 11.8575 1.65199 11.8829 1.67735C11.9082 1.70271 11.9269 1.74265 11.9269 1.79993H12.1269ZM12.1269 4.46667V1.79993H11.9269V4.46667H12.1269ZM11.4937 4.56667H12.0269V4.36667H11.4937V4.56667ZM11.3937 1.79993V4.46667H11.5937V1.79993H11.3937ZM6.2604 1.79993C6.2604 1.71526 6.32869 1.63333 6.427 1.63333V1.43333C6.20549 1.43333 6.0604 1.618 6.0604 1.79993H6.2604ZM6.2604 4.46667V1.79993H6.0604V4.46667H6.2604ZM6.69385 4.36667H6.1604V4.56667H6.69385V4.36667ZM6.59385 1.79993V4.46667H6.79385V1.79993H6.59385ZM6.58455 1.7356C6.59035 1.75401 6.59385 1.77546 6.59385 1.79993H6.79385C6.79385 1.75628 6.78758 1.71449 6.77531 1.67553L6.58455 1.7356ZM6.54554 1.67325C6.56266 1.68881 6.57627 1.70947 6.58461 1.73578L6.77526 1.67535C6.75674 1.61694 6.72445 1.56559 6.68005 1.52524L6.54554 1.67325ZM6.50991 1.6499C6.52368 1.65619 6.53546 1.66406 6.54545 1.67317L6.68014 1.52532C6.65448 1.50195 6.62525 1.48272 6.59311 1.46802L6.50991 1.6499ZM6.427 1.63333C6.46038 1.63333 6.48795 1.6398 6.50976 1.64983L6.59326 1.46809C6.54281 1.44491 6.4864 1.43333 6.427 1.43333V1.63333ZM8.82715 15.5H9.3606V15.3H8.82715V15.5ZM8.72715 14.6V15.4H8.92715V14.6H8.72715ZM9.3606 14.5H8.82715V14.7H9.3606V14.5ZM9.4606 15.4V14.6H9.2606V15.4H9.4606ZM9.8938 13.9667H9.62695V14.1667H9.8938V13.9667ZM9.7938 13.2666V14.0667H9.9938V13.2666H9.7938ZM8.2937 13.3666H9.8938V13.1666H8.2937V13.3666ZM8.3937 14.0667V13.2666H8.1937V14.0667H8.3937ZM8.5603 13.9667H8.2937V14.1667H8.5603V13.9667ZM9.62695 13.9667H8.5603V14.1667H9.62695V13.9667ZM11.2271 12.8333C12.3223 12.8333 13.1938 11.9618 13.1938 10.8667H12.9937C12.9937 11.8514 12.2119 12.6333 11.2271 12.6333V12.8333ZM10.1604 12.8333H11.2271V12.6333H10.1604V12.8333ZM8.0271 12.8333H10.1604V12.6333H8.0271V12.8333ZM6.96045 12.8333H8.0271V12.6333H6.96045V12.8333ZM4.99375 10.8667C4.99375 11.9618 5.86519 12.8333 6.96045 12.8333V12.6333C5.97563 12.6333 5.19375 11.8514 5.19375 10.8667H4.99375ZM4.99375 6.06665V10.8667H5.19375V6.06665H4.99375ZM13.0938 5.96665H5.09375V6.16665H13.0938V5.96665ZM13.1938 10.8667V6.06665H12.9937V10.8667H13.1938ZM13.3606 5.43333H4.82715V5.63333H13.3606V5.43333ZM13.5272 5.2666C13.5272 5.32389 13.5085 5.36387 13.4831 5.38928C13.4577 5.41468 13.4178 5.43333 13.3606 5.43333V5.63333C13.4633 5.63333 13.5567 5.59863 13.6246 5.53068C13.6925 5.46272 13.7272 5.36934 13.7272 5.2666H13.5272ZM13.3606 5.1C13.4178 5.1 13.4578 5.11865 13.4832 5.14404C13.5085 5.16944 13.5272 5.20939 13.5272 5.2666H13.7272C13.7272 5.1639 13.6925 5.07055 13.6246 5.00262C13.5566 4.9347 13.4633 4.9 13.3606 4.9V5.1ZM12.2939 5.1H13.3606V4.9H12.2939V5.1ZM11.2271 5.1H12.2939V4.9H11.2271V5.1ZM6.96045 5.1H11.2271V4.9H6.96045V5.1ZM5.8938 5.1H6.96045V4.9H5.8938V5.1ZM4.82715 5.1H5.8938V4.9H4.82715V5.1ZM4.71087 5.13825C4.73625 5.11604 4.77441 5.1 4.82715 5.1V4.9C4.73243 4.9 4.64559 4.92961 4.57917 4.98773L4.71087 5.13825ZM4.66055 5.2666C4.66055 5.20506 4.68191 5.16352 4.71077 5.13833L4.57927 4.98765C4.50071 5.05621 4.46055 5.15603 4.46055 5.2666H4.66055ZM4.82715 5.43333C4.76994 5.43333 4.72999 5.41468 4.7046 5.38928C4.67921 5.36387 4.66055 5.32389 4.66055 5.2666H4.46055C4.46055 5.36934 4.49523 5.46272 4.56316 5.53068C4.63109 5.59863 4.72445 5.63333 4.82715 5.63333V5.43333Z" fill="white"/>
</g>
<path id="Shape_2" d="M8.02721 9.5333H9.52056L8.10721 10.9466C8.00056 11.0533 8.00056 11.2133 8.10721 11.32C8.16056 11.3733 8.21387 11.4 8.29387 11.4C8.37387 11.4 8.42721 11.3733 8.48052 11.32L10.3472 9.45334C10.4272 9.37334 10.4538 9.26668 10.4005 9.15999C10.3739 9.05334 10.2672 8.99999 10.1605 8.99999H8.66718L10.0805 7.58665C10.1872 7.47999 10.1872 7.31999 10.0805 7.2133C9.97387 7.10662 9.81387 7.10665 9.70718 7.2133L7.84052 9.07996C7.76052 9.15996 7.76052 9.26662 7.78718 9.3733C7.81384 9.47999 7.92052 9.5333 8.02721 9.5333Z" fill="white" stroke="white" stroke-width="0.2"/>
</g>
</g>
</svg>
