<?xml version="1.0" encoding="UTF-8"?>
<svg width="24px" height="24px" viewBox="0 0 24 24" version="1.1" xmlns="http://www.w3.org/2000/svg" xmlns:xlink="http://www.w3.org/1999/xlink">
    <!-- Generator: Sketch 49.1 (51147) - http://www.bohemiancoding.com/sketch -->
    <title>Email Hover</title>
    <desc>Created with Sketch.</desc>
    <defs>
        <path d="M14.9592188,13.3854583 L20.9753906,19.8236667 C20.7515234,19.9341667 20.5046875,20 20.2421875,20 L3.7578125,20 C3.4953125,20 3.24839844,19.9340833 3.02445313,19.823625 L9.04070313,13.3854583 L10.7158203,15.1782083 C11.4097656,15.9209583 12.6049219,15.9052917 13.2841797,15.1782083 L14.9592188,13.3854583 Z M20.2421875,5 C20.5046875,5 20.7515234,5.06583333 20.9753906,5.17633333 L14.5467578,12.0565 C14.5463281,12.0569583 14.5453906,12.0575 14.5453906,12.0575 C14.5449609,12.0579583 14.5444531,12.0589583 14.5444531,12.0589583 L12.4545313,14.2956667 C12.2325,14.5325 11.7675781,14.5325 11.5455469,14.2956667 L9.45519531,12.0585833 C9.45519531,12.0585833 9.45511719,12.0579583 9.4546875,12.0575 C9.45425781,12.0570417 9.45375,12.0569583 9.45332031,12.0565 L3.02453125,5.176375 C3.24839844,5.06591667 3.4953125,5 3.7578125,5 L20.2421875,5 Z M2.18695313,6.0505 L8.21359375,12.5002083 L2.18691406,18.9495 C2.07101562,18.6995833 2,18.4221667 2,18.125 L2,6.875 C2,6.57783333 2.07109375,6.30041667 2.18695313,6.0505 Z M21.8130469,6.05041667 C21.9289063,6.30033333 22,6.57775 22,6.875 L22,18.125 C22,18.42225 21.9289063,18.6996667 21.8130469,18.9495833 L15.7864453,12.5002083 L21.8130469,6.05041667 Z" id="path-1"></path>
    </defs>
    <g id="Email-Hover" stroke="none" stroke-width="1" fill="none" fill-rule="evenodd">
        <mask id="mask-2" fill="white">
            <use xlink:href="#path-1"></use>
        </mask>
        <use id="Mask" fill="#0C49CD" fill-rule="nonzero" xlink:href="#path-1"></use>
    </g>
</svg>