<svg width="18" height="18" viewBox="0 0 18 18" fill="none" xmlns="http://www.w3.org/2000/svg">
<g id="Energetics White">
<rect id="Rectangle 4 Copy 8" width="18" height="18" fill="#F4F7FB" fill-opacity="0.01"/>
<g id="flash">
<g id="Shape">
<path fill-rule="evenodd" clip-rule="evenodd" d="M14.4353 6.00085C14.5015 6.02679 14.564 6.06232 14.6216 6.10693C14.9517 6.362 15.0129 6.83807 14.7581 7.16827L7.40405 16.6557C7.26196 16.8519 7.03345 16.9689 6.79126 16.9689C6.72632 16.9689 6.66138 16.9604 6.59814 16.9438C6.19458 16.8376 5.95264 16.4228 6.05884 16.0192L7.62378 10.1078H4.7583C4.74878 10.1078 4.7395 10.1074 4.73022 10.1065C4.64502 10.1034 4.56201 10.0861 4.48267 10.055C4.29443 9.98145 4.146 9.83887 4.0647 9.65363C3.98364 9.46832 3.97949 9.26257 4.05298 9.07422L7.02539 1.5155C7.12964 1.20667 7.41675 1 7.74365 1H12.7617C12.7712 1 12.7808 1.00043 12.7903 1.00128C12.9077 1.0058 13.0229 1.03766 13.1262 1.09424C13.3035 1.19165 13.4321 1.35217 13.4888 1.54639C13.5452 1.7406 13.5227 1.94519 13.4255 2.1225L11.3223 5.94781H14.1592C14.1719 5.94781 14.1846 5.94861 14.1968 5.95007C14.2795 5.9541 14.3596 5.97125 14.4353 6.00085ZM6.90747 16.2782L14.2646 6.78662C14.3091 6.72906 14.2983 6.64545 14.2402 6.60071C14.2217 6.58643 14.2029 6.57916 14.1863 6.57574C14.1763 6.57367 14.1672 6.573 14.1594 6.573L14.144 6.57263L14.1304 6.57166H10.7949C10.7344 6.57166 10.6765 6.55414 10.6272 6.52271C10.5864 6.49683 10.5518 6.46143 10.5264 6.41852C10.4702 6.32361 10.4685 6.20612 10.5217 6.1095L12.8787 1.82214C12.9019 1.78015 12.8955 1.7406 12.8896 1.72083C12.884 1.70099 12.8679 1.66425 12.8259 1.64111C12.8059 1.63019 12.7844 1.62457 12.762 1.62457L12.7405 1.62384H7.74365C7.71875 1.62384 7.69702 1.63019 7.67847 1.6405C7.64673 1.6582 7.62524 1.68762 7.61572 1.71692L7.60913 1.73566L4.63379 9.30188C4.62207 9.33185 4.62354 9.35913 4.62817 9.37952C4.63037 9.38916 4.6333 9.39728 4.63599 9.40338C4.64429 9.42224 4.66504 9.45654 4.70972 9.47406C4.73242 9.48297 4.75635 9.48248 4.77954 9.48407H8.02905C8.12573 9.48407 8.21704 9.52899 8.27612 9.60571C8.33521 9.68243 8.35522 9.78217 8.33057 9.87573L6.66187 16.1784C6.64331 16.249 6.68604 16.322 6.75708 16.3406C6.81055 16.3547 6.86841 16.3329 6.89966 16.2889L6.90747 16.2782Z" fill="white"/>
<path d="M14.6216 6.10693L14.5604 6.186L14.5604 6.18606L14.6216 6.10693ZM14.4353 6.00085L14.4718 5.90775L14.4717 5.90772L14.4353 6.00085ZM14.7581 7.16827L14.8371 7.22954L14.8372 7.22938L14.7581 7.16827ZM7.40405 16.6557L7.32497 16.5944L7.32306 16.5971L7.40405 16.6557ZM6.59814 16.9438L6.5727 17.0406L6.57275 17.0406L6.59814 16.9438ZM6.05884 16.0192L5.96217 15.9936L5.96213 15.9937L6.05884 16.0192ZM7.62378 10.1078L7.72045 10.1334L7.7537 10.0078H7.62378V10.1078ZM4.73022 10.1065L4.73941 10.0068L4.73388 10.0066L4.73022 10.1065ZM4.48267 10.055L4.51919 9.9619L4.51906 9.96185L4.48267 10.055ZM4.0647 9.65363L3.97308 9.6937L3.97313 9.69381L4.0647 9.65363ZM4.05298 9.07422L3.95992 9.03762L3.95982 9.03787L4.05298 9.07422ZM7.02539 1.5155L7.11857 1.55214L7.12014 1.54748L7.02539 1.5155ZM12.7903 1.00128L12.7813 1.10101L12.7864 1.10121L12.7903 1.00128ZM13.1262 1.09424L13.1744 1.0066L13.1743 1.00654L13.1262 1.09424ZM13.4888 1.54639L13.5848 1.5185L13.5848 1.51839L13.4888 1.54639ZM13.4255 2.1225L13.5132 2.17068L13.5132 2.17056L13.4255 2.1225ZM11.3223 5.94781L11.2346 5.89963L11.1532 6.04781H11.3223V5.94781ZM14.1968 5.95007L14.1848 6.04961L14.1919 6.04995L14.1968 5.95007ZM14.2646 6.78662L14.3437 6.84788L14.3438 6.84773L14.2646 6.78662ZM6.90747 16.2782L6.8284 16.2169L6.82676 16.2192L6.90747 16.2782ZM14.2402 6.60071L14.3012 6.52147L14.3012 6.52146L14.2402 6.60071ZM14.1863 6.57574L14.166 6.67366L14.1661 6.67369L14.1863 6.57574ZM14.1594 6.573L14.157 6.673H14.1594V6.573ZM14.144 6.57263L14.1369 6.67249L14.1417 6.6726L14.144 6.57263ZM14.1304 6.57166L14.1375 6.47166H14.1304V6.57166ZM10.6272 6.52271L10.6809 6.43838L10.6808 6.43828L10.6272 6.52271ZM10.5264 6.41852L10.4403 6.46944L10.4403 6.46944L10.5264 6.41852ZM10.5217 6.1095L10.6093 6.15775L10.6094 6.15767L10.5217 6.1095ZM12.8787 1.82214L12.7911 1.7738L12.791 1.77397L12.8787 1.82214ZM12.8896 1.72083L12.7934 1.74806L12.7938 1.74923L12.8896 1.72083ZM12.8259 1.64111L12.8742 1.55352L12.8738 1.55333L12.8259 1.64111ZM12.762 1.62457L12.7586 1.72457H12.762V1.62457ZM12.7405 1.62384L12.7439 1.52384H12.7405V1.62384ZM7.67847 1.6405L7.62988 1.5531L7.62976 1.55317L7.67847 1.6405ZM7.61572 1.71692L7.71008 1.75011L7.71083 1.74783L7.61572 1.71692ZM7.60913 1.73566L7.70226 1.77228L7.70346 1.76884L7.60913 1.73566ZM4.63379 9.30188L4.54073 9.26528L4.54066 9.26546L4.63379 9.30188ZM4.62817 9.37952L4.53067 9.4017L4.53067 9.40173L4.62817 9.37952ZM4.63599 9.40338L4.54445 9.44366L4.54446 9.44367L4.63599 9.40338ZM4.70972 9.47406L4.74625 9.38097L4.74622 9.38096L4.70972 9.47406ZM4.77954 9.48407L4.7727 9.58407H4.77954V9.48407ZM8.33057 9.87573L8.42724 9.90133L8.42726 9.90122L8.33057 9.87573ZM6.66187 16.1784L6.5652 16.1528L6.56515 16.153L6.66187 16.1784ZM6.75708 16.3406L6.78258 16.2439L6.7825 16.2439L6.75708 16.3406ZM6.89966 16.2889L6.81894 16.2298L6.81812 16.231L6.89966 16.2889ZM14.6828 6.02787C14.6178 5.97752 14.547 5.93723 14.4718 5.90775L14.3988 6.09395C14.4559 6.11636 14.5101 6.14712 14.5604 6.186L14.6828 6.02787ZM14.8372 7.22938C15.1259 6.85545 15.0565 6.31661 14.6827 6.02781L14.5604 6.18606C14.8469 6.40739 14.9 6.8207 14.6789 7.10717L14.8372 7.22938ZM7.48309 16.717L14.8371 7.22954L14.679 7.10701L7.32502 16.5944L7.48309 16.717ZM6.79126 17.0689C7.0656 17.0689 7.3242 16.9365 7.48505 16.7143L7.32306 16.5971C7.19972 16.7674 7.0013 16.8689 6.79126 16.8689V17.0689ZM6.57275 17.0406C6.6442 17.0593 6.71768 17.0689 6.79126 17.0689V16.8689C6.73496 16.8689 6.67855 16.8616 6.62354 16.8471L6.57275 17.0406ZM5.96213 15.9937C5.84188 16.4507 6.1157 16.9203 6.5727 17.0406L6.62359 16.8471C6.27346 16.755 6.06339 16.3948 6.15555 16.0446L5.96213 15.9937ZM7.52711 10.0822L5.96217 15.9936L6.15551 16.0448L7.72045 10.1334L7.52711 10.0822ZM4.7583 10.2078H7.62378V10.0078H4.7583V10.2078ZM4.72105 10.2061C4.73341 10.2072 4.74574 10.2078 4.7583 10.2078V10.0078C4.75181 10.0078 4.7456 10.0075 4.7394 10.0069L4.72105 10.2061ZM4.44615 10.1481C4.53599 10.1833 4.63011 10.2029 4.72657 10.2064L4.73388 10.0066C4.65993 10.0039 4.58804 9.98891 4.51919 9.9619L4.44615 10.1481ZM3.97313 9.69381C4.06506 9.90328 4.23332 10.0649 4.44627 10.1481L4.51906 9.96185C4.35555 9.89796 4.22693 9.77446 4.15627 9.61344L3.97313 9.69381ZM3.95982 9.03787C3.8767 9.2509 3.88141 9.48414 3.97308 9.6937L4.15632 9.61355C4.08587 9.45251 4.08228 9.27424 4.14614 9.11057L3.95982 9.03787ZM6.93233 1.47891L3.95992 9.03762L4.14604 9.11082L7.11845 1.5521L6.93233 1.47891ZM7.74365 0.9C7.3738 0.9 7.0486 1.13408 6.93064 1.48352L7.12014 1.54748C7.21068 1.27925 7.4597 1.1 7.74365 1.1V0.9ZM12.7617 0.9H7.74365V1.1H12.7617V0.9ZM12.7992 0.901682C12.7867 0.900562 12.7742 0.9 12.7617 0.9V1.1C12.7682 1.1 12.7748 1.10029 12.7813 1.10088L12.7992 0.901682ZM13.1743 1.00654C13.0574 0.942518 12.9271 0.906468 12.7941 0.901356L12.7864 1.10121C12.8884 1.10513 12.9885 1.1328 13.0782 1.18194L13.1743 1.00654ZM13.5848 1.51839C13.5207 1.29877 13.3749 1.11679 13.1744 1.0066L13.0781 1.18188C13.2321 1.26651 13.3435 1.40557 13.3928 1.57438L13.5848 1.51839ZM13.5132 2.17056C13.6231 1.97003 13.6486 1.73813 13.5848 1.5185L13.3927 1.57427C13.4418 1.74307 13.4223 1.92035 13.3378 2.07444L13.5132 2.17056ZM11.4099 5.996L13.5132 2.17068L13.3379 2.07432L11.2346 5.89963L11.4099 5.996ZM14.1592 5.84782H11.3223V6.04781H14.1592V5.84782ZM14.2087 5.85079C14.1926 5.84886 14.176 5.84782 14.1592 5.84782V6.04781C14.1678 6.04781 14.1765 6.04836 14.1849 6.04936L14.2087 5.85079ZM14.4717 5.90772C14.3859 5.87415 14.2951 5.85474 14.2016 5.85019L14.1919 6.04995C14.264 6.05346 14.3334 6.06836 14.3989 6.09398L14.4717 5.90772ZM14.1856 6.72536L6.82843 16.2169L6.98651 16.3395L14.3437 6.84788L14.1856 6.72536ZM14.1792 6.67994C14.1937 6.69108 14.196 6.71188 14.1855 6.72551L14.3438 6.84773C14.4221 6.74625 14.403 6.59981 14.3012 6.52147L14.1792 6.67994ZM14.1661 6.67369C14.1696 6.67441 14.174 6.67594 14.1792 6.67995L14.3012 6.52146C14.2693 6.49691 14.2362 6.48392 14.2064 6.4778L14.1661 6.67369ZM14.1594 6.673C14.1614 6.673 14.1636 6.67316 14.166 6.67366L14.2066 6.47783C14.189 6.47418 14.173 6.473 14.1594 6.473V6.673ZM14.1417 6.6726L14.157 6.67297L14.1618 6.47303L14.1464 6.47266L14.1417 6.6726ZM14.1232 6.6714L14.1369 6.67238L14.1512 6.47289L14.1375 6.47191L14.1232 6.6714ZM10.7949 6.67166H14.1304V6.47166H10.7949V6.67166ZM10.5734 6.60703C10.6385 6.64849 10.7149 6.67166 10.7949 6.67166V6.47166C10.7538 6.47166 10.7145 6.45979 10.6809 6.43838L10.5734 6.60703ZM10.4403 6.46944C10.4738 6.52601 10.5196 6.57286 10.5736 6.60713L10.6808 6.43828C10.6532 6.42079 10.6297 6.39684 10.6124 6.36759L10.4403 6.46944ZM10.4341 6.06125C10.3639 6.1888 10.3661 6.34401 10.4403 6.46944L10.6124 6.3676C10.5743 6.30321 10.5731 6.22343 10.6093 6.15775L10.4341 6.06125ZM12.791 1.77397L10.4341 6.06132L10.6094 6.15767L12.9663 1.87032L12.791 1.77397ZM12.7938 1.74923C12.7944 1.75148 12.7953 1.75541 12.7951 1.75986C12.795 1.76378 12.7941 1.76836 12.7911 1.7738L12.9662 1.87049C13.0071 1.79639 12.9956 1.72649 12.9855 1.69242L12.7938 1.74923ZM12.7777 1.7287C12.7833 1.7318 12.7866 1.73537 12.7889 1.73875C12.7916 1.74255 12.7929 1.74627 12.7934 1.74806L12.9859 1.69359C12.976 1.65867 12.9478 1.59406 12.8742 1.55352L12.7777 1.7287ZM12.762 1.72457C12.7671 1.72457 12.7722 1.72573 12.778 1.72889L12.8738 1.55333C12.8396 1.53465 12.8017 1.52457 12.762 1.52457V1.72457ZM12.7371 1.72378L12.7586 1.72451L12.7654 1.52463L12.7439 1.5239L12.7371 1.72378ZM7.74365 1.72384H12.7405V1.52384H7.74365V1.72384ZM7.72706 1.72791C7.73137 1.72551 7.73645 1.72384 7.74365 1.72384V1.52384C7.70105 1.52384 7.66267 1.53487 7.62988 1.5531L7.72706 1.72791ZM7.71083 1.74783C7.71187 1.7446 7.7139 1.74054 7.71701 1.73663C7.72004 1.73283 7.72353 1.72987 7.72717 1.72784L7.62976 1.55317C7.57404 1.58424 7.53722 1.63494 7.52062 1.68601L7.71083 1.74783ZM7.70346 1.76884L7.71006 1.7501L7.52139 1.68373L7.5148 1.70247L7.70346 1.76884ZM4.72685 9.33848L7.70219 1.77225L7.51607 1.69906L4.54073 9.26528L4.72685 9.33848ZM4.72568 9.35733C4.72434 9.35145 4.72417 9.34533 4.72692 9.3383L4.54066 9.26546C4.51997 9.31837 4.52273 9.36681 4.53067 9.4017L4.72568 9.35733ZM4.72752 9.36311C4.72713 9.36222 4.72632 9.36014 4.72567 9.3573L4.53067 9.40173C4.53442 9.41818 4.53947 9.43234 4.54445 9.44366L4.72752 9.36311ZM4.74622 9.38096C4.74018 9.37859 4.73634 9.37544 4.73354 9.37233C4.7304 9.36884 4.72844 9.3652 4.72751 9.3631L4.54446 9.44367C4.55879 9.47622 4.595 9.5365 4.67321 9.56716L4.74622 9.38096ZM4.78637 9.3843C4.77962 9.38384 4.77218 9.38349 4.76743 9.38323C4.76196 9.38294 4.75799 9.38267 4.75455 9.38232C4.74772 9.38163 4.74595 9.38086 4.74625 9.38097L4.67318 9.56715C4.71456 9.58339 4.76172 9.58308 4.77271 9.58384L4.78637 9.3843ZM8.02905 9.38407H4.77954V9.58407H8.02905V9.38407ZM8.35535 9.5447C8.27735 9.44341 8.15678 9.38407 8.02905 9.38407V9.58407C8.09468 9.58407 8.15673 9.61457 8.19689 9.66673L8.35535 9.5447ZM8.42726 9.90122C8.4598 9.77775 8.4334 9.64605 8.35535 9.5447L8.19689 9.66673C8.23701 9.71882 8.25065 9.78658 8.23387 9.85025L8.42726 9.90122ZM6.75853 16.204L8.42724 9.90133L8.2339 9.85014L6.5652 16.1528L6.75853 16.204ZM6.7825 16.2439C6.7645 16.2392 6.75417 16.2206 6.75858 16.2038L6.56515 16.153C6.53245 16.2773 6.60757 16.4047 6.73166 16.4374L6.7825 16.2439ZM6.81812 16.231C6.81059 16.2416 6.79511 16.2472 6.78258 16.2439L6.73158 16.4373C6.82598 16.4622 6.92622 16.4242 6.98119 16.3468L6.81812 16.231ZM6.82676 16.2192L6.81894 16.2298L6.98037 16.3479L6.98818 16.3372L6.82676 16.2192Z" fill="white"/>
</g>
<path id="Shape_2" d="M9.15237 2.09161H8.18445C8.01219 2.09161 7.87256 2.23125 7.87256 2.4035C7.87256 2.57576 8.01219 2.7154 8.18445 2.7154H9.15237C9.32463 2.7154 9.46426 2.57576 9.46426 2.4035C9.46426 2.23125 9.32463 2.09161 9.15237 2.09161Z" fill="white" stroke="white" stroke-width="0.2"/>
<path id="Shape_3" d="M10.0569 2.09161H10.0485C9.87624 2.09161 9.73657 2.23125 9.73657 2.4035C9.73657 2.57576 9.87624 2.7154 10.0485 2.7154H10.0569C10.2291 2.7154 10.3687 2.57576 10.3687 2.4035C10.3687 2.23125 10.2291 2.09161 10.0569 2.09161Z" fill="white" stroke="white" stroke-width="0.2"/>
</g>
</g>
</svg>
