<svg width="18" height="18" viewBox="0 0 18 18" fill="none" xmlns="http://www.w3.org/2000/svg">
<g id="Energetics">
<rect id="Rectangle 4 Copy 8" width="18" height="18" fill="#F4F7FB" fill-opacity="0.01"/>
<g id="flash">
<g id="Shape">
<path fill-rule="evenodd" clip-rule="evenodd" d="M14.1969 5.95007C14.3519 5.95758 14.4979 6.01141 14.6216 6.10693C14.9518 6.362 15.0129 6.83807 14.7579 7.16827L7.40417 16.6557C7.32275 16.7682 7.21277 16.8547 7.08813 16.908C6.99536 16.9476 6.89453 16.9689 6.79114 16.9689C6.72632 16.9689 6.66138 16.9604 6.59827 16.9438C6.19458 16.8376 5.95264 16.4228 6.05884 16.0192L7.62378 10.1078H4.7583C4.74878 10.1078 4.73938 10.1074 4.7301 10.1065C4.64514 10.1034 4.56213 10.0861 4.48254 10.055C4.29443 9.98145 4.14587 9.83887 4.06482 9.65363C4.01868 9.54816 3.99744 9.43604 4.00122 9.32434C4.00415 9.23975 4.02136 9.1554 4.0531 9.07422L7.02539 1.5155C7.12964 1.20667 7.41675 1 7.74365 1H12.7617C12.7678 1 12.7737 1.00018 12.7795 1.00055L12.7902 1.00128C12.9076 1.0058 13.0231 1.03766 13.1261 1.09424C13.3035 1.19165 13.4323 1.35217 13.4888 1.54639C13.5453 1.7406 13.5228 1.94519 13.4254 2.1225L11.3224 5.94781H14.1592C14.1719 5.94781 14.1844 5.94861 14.1969 5.95007ZM6.90747 16.2782L14.2645 6.78662C14.3091 6.72906 14.2982 6.64545 14.2402 6.60071C14.2107 6.57782 14.1799 6.573 14.1593 6.573C14.1495 6.573 14.1399 6.57257 14.1302 6.57166H10.7949C10.6847 6.57166 10.5826 6.51343 10.5265 6.41852C10.4703 6.32361 10.4685 6.20612 10.5216 6.1095L12.8787 1.82214C12.9017 1.78015 12.8955 1.7406 12.8898 1.72083C12.8864 1.70923 12.8795 1.69183 12.866 1.67474C12.8563 1.66266 12.8434 1.6507 12.8258 1.64111C12.8059 1.63019 12.7844 1.62457 12.7621 1.62457L12.748 1.62427L12.7405 1.62384H7.74365C7.67603 1.62384 7.63074 1.67059 7.61584 1.71692C7.61377 1.72327 7.61157 1.72949 7.60913 1.73566L4.63379 9.30188C4.61658 9.34607 4.62781 9.38446 4.63611 9.40338C4.64441 9.42224 4.66492 9.45654 4.70972 9.47406C4.72827 9.48132 4.74768 9.4823 4.76672 9.48328L4.77954 9.48407H8.02905C8.12573 9.48407 8.21716 9.52899 8.27612 9.60571C8.33521 9.68243 8.35522 9.78217 8.33057 9.87573L6.66199 16.1784C6.64343 16.249 6.68604 16.322 6.75696 16.3406C6.81055 16.3547 6.86841 16.3329 6.89954 16.2889L6.90747 16.2782Z" fill="#0C49CD"/>
<path d="M14.6216 6.10693L14.6827 6.02779L14.6216 6.10693ZM14.1969 5.95007L14.1852 6.04962L14.1921 6.04996L14.1969 5.95007ZM14.7579 7.16827L14.837 7.22954L14.8371 7.2294L14.7579 7.16827ZM7.40417 16.6557L7.32509 16.5944L7.32317 16.5971L7.40417 16.6557ZM7.08813 16.908L7.1274 16.9999L7.12745 16.9999L7.08813 16.908ZM6.59827 16.9438L6.57282 17.0406H6.57283L6.59827 16.9438ZM6.05884 16.0192L5.96217 15.9936L5.96213 15.9937L6.05884 16.0192ZM7.62378 10.1078L7.72045 10.1334L7.7537 10.0078H7.62378V10.1078ZM4.7301 10.1065L4.73929 10.0068L4.73376 10.0066L4.7301 10.1065ZM4.48254 10.055L4.51897 9.96186L4.51896 9.96186L4.48254 10.055ZM4.06482 9.65363L3.9732 9.69371L3.97321 9.69371L4.06482 9.65363ZM4.00122 9.32434L3.90128 9.32088L3.90128 9.32095L4.00122 9.32434ZM4.0531 9.07422L3.96004 9.03762L3.95997 9.03781L4.0531 9.07422ZM7.02539 1.5155L7.11857 1.55214L7.12014 1.54748L7.02539 1.5155ZM12.7795 1.00055L12.7864 0.900784L12.7858 0.900744L12.7795 1.00055ZM12.7902 1.00128L12.7833 1.10109L12.7863 1.10121L12.7902 1.00128ZM13.1261 1.09424L13.1742 1.00659L13.1742 1.00659L13.1261 1.09424ZM13.4254 2.1225L13.513 2.17067L13.5131 2.17065L13.4254 2.1225ZM11.3224 5.94781L11.2348 5.89964L11.1533 6.04781H11.3224V5.94781ZM14.2645 6.78662L14.3436 6.84788L14.3436 6.84784L14.2645 6.78662ZM6.90747 16.2782L6.82842 16.2169L6.8272 16.2186L6.90747 16.2782ZM14.2402 6.60071L14.179 6.67976L14.1791 6.67988L14.2402 6.60071ZM14.1302 6.57166L14.1397 6.47166H14.1302V6.57166ZM10.5216 6.1095L10.434 6.06132L10.434 6.06133L10.5216 6.1095ZM12.8787 1.82214L12.9663 1.87032L12.9663 1.8703L12.8787 1.82214ZM12.8898 1.72083L12.9858 1.69296L12.9857 1.69255L12.8898 1.72083ZM12.866 1.67474L12.9443 1.61262L12.9441 1.61237L12.866 1.67474ZM12.8258 1.64111L12.7777 1.72877L12.7779 1.72891L12.8258 1.64111ZM12.7621 1.62457L12.7599 1.72457H12.7621V1.62457ZM12.748 1.62427L12.7424 1.72417L12.7459 1.72424L12.748 1.62427ZM12.7405 1.62384L12.7461 1.52384H12.7405V1.62384ZM7.61584 1.71692L7.7109 1.74799L7.71105 1.74752L7.61584 1.71692ZM7.60913 1.73566L7.51616 1.69884L7.51607 1.69906L7.60913 1.73566ZM4.63379 9.30188L4.54073 9.26528L4.54061 9.26559L4.63379 9.30188ZM4.63611 9.40338L4.54453 9.44356L4.54458 9.44367L4.63611 9.40338ZM4.70972 9.47406L4.74617 9.38094L4.74613 9.38093L4.70972 9.47406ZM4.76672 9.48328L4.7729 9.38346L4.77185 9.38341L4.76672 9.48328ZM4.77954 9.48407L4.77335 9.58407H4.77954V9.48407ZM8.27612 9.60571L8.19683 9.66665L8.19689 9.66673L8.27612 9.60571ZM8.33057 9.87573L8.42724 9.90133L8.42726 9.90122L8.33057 9.87573ZM6.66199 16.1784L6.56532 16.1528L6.56528 16.153L6.66199 16.1784ZM6.75696 16.3406L6.73149 16.4373L6.73151 16.4373L6.75696 16.3406ZM6.89954 16.2889L6.81924 16.2292L6.8179 16.2311L6.89954 16.2889ZM14.6827 6.02779C14.5429 5.91981 14.3773 5.85869 14.2017 5.85019L14.1921 6.04996C14.3266 6.05647 14.4529 6.10301 14.5605 6.18607L14.6827 6.02779ZM14.8371 7.2294C15.1258 6.85548 15.0566 6.31662 14.6827 6.02779L14.5605 6.18607C14.847 6.40738 14.9 6.82066 14.6788 7.10715L14.8371 7.2294ZM7.48321 16.717L14.837 7.22954L14.6789 7.10701L7.32514 16.5944L7.48321 16.717ZM7.12745 16.9999C7.26844 16.9396 7.39295 16.8418 7.48518 16.7143L7.32317 16.5971C7.25256 16.6946 7.1571 16.7697 7.04882 16.816L7.12745 16.9999ZM6.79114 17.0689C6.9083 17.0689 7.02247 17.0447 7.1274 16.9999L7.04887 16.816C6.96825 16.8504 6.88076 16.8689 6.79114 16.8689V17.0689ZM6.57283 17.0406C6.64419 17.0593 6.71768 17.0689 6.79114 17.0689V16.8689C6.73496 16.8689 6.67857 16.8616 6.62371 16.8471L6.57283 17.0406ZM5.96213 15.9937C5.84188 16.4507 6.11571 16.9203 6.57282 17.0406L6.62371 16.8471C6.27345 16.755 6.0634 16.3948 6.15555 16.0446L5.96213 15.9937ZM7.52711 10.0822L5.96217 15.9936L6.15551 16.0448L7.72045 10.1334L7.52711 10.0822ZM4.7583 10.2078H7.62378V10.0078H4.7583V10.2078ZM4.72093 10.2061C4.73332 10.2072 4.74578 10.2078 4.7583 10.2078V10.0078C4.75177 10.0078 4.74544 10.0075 4.73927 10.0069L4.72093 10.2061ZM4.44612 10.1481C4.53612 10.1833 4.6302 10.2029 4.72644 10.2064L4.73376 10.0066C4.66009 10.0039 4.58815 9.98892 4.51897 9.96186L4.44612 10.1481ZM3.97321 9.69371C4.06491 9.90329 4.23334 10.0649 4.44613 10.1481L4.51896 9.96186C4.35552 9.89796 4.22684 9.77444 4.15643 9.61354L3.97321 9.69371ZM3.90128 9.32095C3.89699 9.44766 3.92111 9.57463 3.9732 9.69371L4.15644 9.61354C4.11625 9.52168 4.09789 9.42441 4.10116 9.32773L3.90128 9.32095ZM3.95997 9.03781C3.92412 9.1295 3.9046 9.22499 3.90128 9.32088L4.10116 9.3278C4.1037 9.2545 4.11861 9.18129 4.14624 9.11063L3.95997 9.03781ZM6.93233 1.47891L3.96004 9.03762L4.14616 9.11081L7.11845 1.5521L6.93233 1.47891ZM7.74365 0.9C7.3738 0.9 7.0486 1.13408 6.93064 1.48352L7.12014 1.54748C7.21068 1.27925 7.4597 1.1 7.74365 1.1V0.9ZM12.7617 0.9H7.74365V1.1H12.7617V0.9ZM12.7858 0.900744C12.7778 0.900246 12.7699 0.9 12.7617 0.9V1.1C12.7658 1.1 12.7696 1.10012 12.7733 1.10035L12.7858 0.900744ZM12.797 0.901519L12.7864 0.900786L12.7727 1.10031L12.7833 1.10104L12.797 0.901519ZM13.1742 1.00659C13.0575 0.942495 12.9269 0.906466 12.794 0.901356L12.7863 1.10121C12.8883 1.10513 12.9886 1.13282 13.078 1.18189L13.1742 1.00659ZM13.5848 1.51844C13.5209 1.29874 13.3748 1.11675 13.1742 1.00659L13.078 1.18189C13.2321 1.26655 13.3437 1.4056 13.3928 1.57433L13.5848 1.51844ZM13.5131 2.17065C13.6233 1.97008 13.6487 1.73811 13.5848 1.51844L13.3928 1.57433C13.4419 1.74309 13.4224 1.9203 13.3378 2.07435L13.5131 2.17065ZM11.41 5.99599L13.513 2.17067L13.3378 2.07432L11.2348 5.89964L11.41 5.99599ZM14.1592 5.84782H11.3224V6.04781H14.1592V5.84782ZM14.2086 5.85076C14.1925 5.84887 14.176 5.84782 14.1592 5.84782V6.04781C14.1677 6.04781 14.1764 6.04835 14.1852 6.04939L14.2086 5.85076ZM14.1855 6.72536L6.82843 16.2169L6.98651 16.3395L14.3436 6.84788L14.1855 6.72536ZM14.1791 6.67988C14.1937 6.69111 14.1959 6.71191 14.1855 6.72541L14.3436 6.84784C14.4223 6.74622 14.4027 6.59979 14.3013 6.52154L14.1791 6.67988ZM14.1593 6.673C14.1647 6.673 14.1718 6.67416 14.179 6.67976L14.3015 6.52166C14.2496 6.48147 14.1952 6.473 14.1593 6.473V6.673ZM14.1208 6.67121C14.1338 6.67244 14.1466 6.673 14.1593 6.673V6.473C14.1525 6.473 14.146 6.4727 14.1397 6.4721L14.1208 6.67121ZM10.7949 6.67166H14.1302V6.47166H10.7949V6.67166ZM10.4404 6.46944C10.5146 6.59474 10.6493 6.67166 10.7949 6.67166V6.47166C10.7201 6.47166 10.6507 6.43211 10.6126 6.3676L10.4404 6.46944ZM10.434 6.06133C10.3638 6.18892 10.3663 6.34408 10.4404 6.46944L10.6126 6.3676C10.5744 6.30313 10.5732 6.22331 10.6092 6.15766L10.434 6.06133ZM12.791 1.77397L10.434 6.06132L10.6092 6.15767L12.9663 1.87032L12.791 1.77397ZM12.7937 1.74869C12.7944 1.75106 12.7952 1.75511 12.7951 1.75969C12.7949 1.76376 12.7941 1.76846 12.791 1.77399L12.9663 1.8703C13.0069 1.79642 12.9956 1.7268 12.9858 1.69296L12.7937 1.74869ZM12.7876 1.73687C12.7909 1.74107 12.7929 1.74578 12.7938 1.7491L12.9857 1.69255C12.9798 1.67268 12.9681 1.6426 12.9443 1.61262L12.7876 1.73687ZM12.7779 1.72891C12.7825 1.73141 12.7855 1.73421 12.7878 1.73712L12.9441 1.61237C12.9272 1.59111 12.9042 1.56998 12.8737 1.55331L12.7779 1.72891ZM12.7621 1.72457C12.7671 1.72457 12.7721 1.72572 12.7777 1.72877L12.8739 1.55346C12.8397 1.53466 12.8017 1.52457 12.7621 1.52457V1.72457ZM12.7459 1.72424L12.7599 1.72455L12.7643 1.5246L12.7502 1.52429L12.7459 1.72424ZM12.7348 1.72368L12.7424 1.72411L12.7537 1.52443L12.7461 1.524L12.7348 1.72368ZM7.74365 1.72384H12.7405V1.52384H7.74365V1.72384ZM7.71105 1.74752C7.71274 1.74226 7.71685 1.73561 7.72281 1.7308C7.72781 1.72676 7.73414 1.72384 7.74365 1.72384V1.52384C7.62468 1.52384 7.54624 1.60669 7.52064 1.68631L7.71105 1.74752ZM7.70211 1.77248C7.70547 1.76399 7.70835 1.75579 7.71089 1.74799L7.5208 1.68585C7.51919 1.69075 7.51768 1.69499 7.51616 1.69884L7.70211 1.77248ZM4.72685 9.33848L7.70219 1.77225L7.51607 1.69906L4.54073 9.26528L4.72685 9.33848ZM4.72768 9.36321C4.72671 9.36099 4.72536 9.35705 4.72492 9.35247C4.72452 9.34838 4.7248 9.34374 4.72697 9.33817L4.54061 9.26559C4.51018 9.34369 4.53036 9.41125 4.54453 9.44356L4.72768 9.36321ZM4.74613 9.38093C4.7401 9.37857 4.73638 9.37548 4.73368 9.37247C4.73065 9.36909 4.72868 9.36547 4.72764 9.3631L4.54458 9.44367C4.55876 9.47587 4.59466 9.53644 4.6733 9.56719L4.74613 9.38093ZM4.77185 9.38341C4.76161 9.38288 4.75609 9.38255 4.75126 9.3819C4.74701 9.38134 4.74583 9.38081 4.74617 9.38094L4.67327 9.56718C4.70938 9.58132 4.74517 9.5823 4.7616 9.58315L4.77185 9.38341ZM4.78572 9.38426L4.7729 9.38347L4.76054 9.58309L4.77336 9.58388L4.78572 9.38426ZM8.02905 9.38407H4.77954V9.58407H8.02905V9.38407ZM8.35541 9.54478C8.27748 9.44337 8.15672 9.38407 8.02905 9.38407V9.58407C8.09474 9.58407 8.15685 9.61462 8.19683 9.66665L8.35541 9.54478ZM8.42726 9.90122C8.4598 9.77775 8.4334 9.64605 8.35535 9.5447L8.19689 9.66673C8.23701 9.71882 8.25065 9.78658 8.23387 9.85025L8.42726 9.90122ZM6.75866 16.204L8.42724 9.90133L8.2339 9.85014L6.56532 16.1528L6.75866 16.204ZM6.78242 16.2439C6.76469 16.2393 6.75424 16.2208 6.7587 16.2038L6.56528 16.153C6.53262 16.2771 6.60738 16.4047 6.73149 16.4373L6.78242 16.2439ZM6.8179 16.2311C6.81057 16.2415 6.79519 16.2473 6.7824 16.2439L6.73151 16.4373C6.8259 16.4622 6.92625 16.4243 6.98118 16.3466L6.8179 16.2311ZM6.8272 16.2186L6.81926 16.2292L6.97981 16.3485L6.98775 16.3378L6.8272 16.2186Z" fill="#0C49CD"/>
</g>
<path id="Shape_2" d="M9.15237 2.09161H8.18445C8.01219 2.09161 7.87256 2.23125 7.87256 2.4035C7.87256 2.57576 8.01219 2.7154 8.18445 2.7154H9.15237C9.32463 2.7154 9.46426 2.57576 9.46426 2.4035C9.46426 2.23125 9.32463 2.09161 9.15237 2.09161Z" fill="#0C49CD" stroke="#0C49CD" stroke-width="0.2"/>
<path id="Shape_3" d="M10.0569 2.09161H10.0485C9.87624 2.09161 9.73657 2.23125 9.73657 2.4035C9.73657 2.57576 9.87624 2.7154 10.0485 2.7154H10.0569C10.2291 2.7154 10.3687 2.57576 10.3687 2.4035C10.3687 2.23125 10.2291 2.09161 10.0569 2.09161Z" fill="#0C49CD" stroke="#0C49CD" stroke-width="0.2"/>
</g>
</g>
</svg>
