<svg width="18" height="18" viewBox="0 0 18 18" fill="none" xmlns="http://www.w3.org/2000/svg">
<g id="Escort">
<rect id="Rectangle 4 Copy 20" width="18" height="18" fill="#F4F7FB" fill-opacity="0.01"/>
<g id="headphones">
<path id="Shape" fill-rule="evenodd" clip-rule="evenodd" d="M14.0033 6.4689V7.08405C15.1495 7.15799 16.0571 8.11597 16.0537 9.27899V10.2403C16.0537 11.4101 15.1394 12.3681 13.9866 12.4387C13.8722 14.1933 13.0084 15.0639 12.2789 15.4908C11.7614 15.7933 11.2404 15.9109 10.9109 15.958C10.7462 16.5563 10.1982 17 9.54614 17H8.53442C7.75464 17 7.11926 16.3614 7.11926 15.5815C7.11926 14.8017 7.75464 14.1664 8.53442 14.1664H9.54285C10.1714 14.1664 10.7058 14.5765 10.8907 15.1445C11.563 15.0336 13.0117 14.5462 13.1764 12.442H12.6117C12.3899 12.442 12.2084 12.2605 12.2084 12.0387V7.48068C12.2084 7.25882 12.3899 7.0773 12.6117 7.0773H13.1898V6.4689C13.1898 3.81009 11.2975 1.80673 8.7832 1.80673H8.27563C5.76465 1.80673 3.8689 3.81009 3.8689 6.4689V7.0773H4.44702C4.66882 7.0773 4.85034 7.25882 4.85034 7.48068V12.042C4.85034 12.2639 4.66882 12.4454 4.44702 12.4454H3.20667C1.99329 12.4454 1.005 11.4572 1.005 10.2437V9.28235C1.005 8.11597 1.91589 7.16135 3.06213 7.08405V6.4689C3.06213 4.99664 3.58313 3.62857 4.52771 2.61343C5.49573 1.57144 6.8269 1 8.27893 1H8.7865C10.2386 1 11.5697 1.57144 12.5377 2.61343C13.4823 3.62857 14.0033 4.99664 14.0033 6.4689ZM3.21338 11.6353H4.05042V7.88403H3.21338C2.44373 7.88403 1.81848 8.50925 1.81848 9.27899V10.2403C1.81848 11.0101 2.44373 11.6353 3.21338 11.6353ZM9.54614 16.1933H8.53442C8.19824 16.1933 7.92603 15.921 7.92603 15.5849C7.92603 15.2487 8.19824 14.9765 8.53442 14.9765H9.54614C9.88232 14.9765 10.1545 15.2487 10.1545 15.5849C10.1545 15.921 9.88232 16.1933 9.54614 16.1933ZM13.8553 11.6353C14.6251 11.6353 15.2504 11.0101 15.2504 10.2403V9.27899C15.2504 8.50925 14.6251 7.88403 13.8553 7.88403H13.0184V11.6353H13.8553Z" fill="#0C49CD"/>
</g>
</g>
</svg>
