<svg width="18" height="18" viewBox="0 0 18 18" fill="none" xmlns="http://www.w3.org/2000/svg">
<g id="Escort White">
<rect id="Rectangle 4 Copy 20" width="18" height="18" fill="#F4F7FB" fill-opacity="0.01"/>
<g id="headphones">
<path id="Shape" fill-rule="evenodd" clip-rule="evenodd" d="M14.0034 6.4689V7.08405C15.1497 7.15799 16.0571 8.11597 16.054 9.27899V10.2403C16.054 11.4101 15.1396 12.3681 13.9866 12.4387C13.8723 14.1933 13.0085 15.0639 12.2791 15.4908C11.7615 15.7933 11.2405 15.9109 10.9109 15.958C10.7463 16.5563 10.1985 17 9.54639 17H8.53442C7.75464 17 7.11938 16.3614 7.11938 15.5815C7.11938 14.8017 7.75464 14.1664 8.53442 14.1664H9.54297C10.1716 14.1664 10.7061 14.5765 10.8909 15.1445C11.5632 15.0336 13.012 14.5462 13.1765 12.442H12.6118C12.3899 12.442 12.2085 12.2605 12.2085 12.0387V7.48068C12.2085 7.25882 12.3899 7.0773 12.6118 7.0773H13.1899V6.4689C13.1899 3.81009 11.2976 1.80673 8.7832 1.80673H8.27563C5.76489 1.80673 3.8689 3.81009 3.8689 6.4689V7.0773H4.44727C4.66895 7.0773 4.85059 7.25882 4.85059 7.48068V12.042C4.85059 12.2639 4.66895 12.4454 4.44727 12.4454H3.20679C1.99341 12.4454 1.00513 11.4572 1.00513 10.2437V9.28235C1.00513 8.11597 1.91602 7.16135 3.06226 7.08405V6.4689C3.06226 4.99664 3.58325 3.62857 4.52783 2.61343C5.49585 1.57144 6.8269 1 8.27905 1H8.78662C10.2388 1 11.5698 1.57144 12.5378 2.61343C13.4824 3.62857 14.0034 4.99664 14.0034 6.4689ZM3.21362 11.6353H4.05054V7.88403H3.21362C2.44385 7.88403 1.8186 8.50925 1.8186 9.27899V10.2403C1.8186 11.0101 2.44385 11.6353 3.21362 11.6353ZM9.54614 16.1933H8.53442C8.19824 16.1933 7.92603 15.921 7.92603 15.5849C7.92603 15.2487 8.19824 14.9765 8.53442 14.9765H9.54614C9.88232 14.9765 10.1545 15.2487 10.1545 15.5849C10.1545 15.921 9.88232 16.1933 9.54614 16.1933ZM13.8555 11.6353C14.6252 11.6353 15.2505 11.0101 15.2505 10.2403V9.27899C15.2505 8.50925 14.6252 7.88403 13.8555 7.88403H13.0186V11.6353H13.8555Z" fill="white"/>
</g>
</g>
</svg>
