<svg width="18" height="18" viewBox="0 0 18 18" fill="none" xmlns="http://www.w3.org/2000/svg">
<g id="Finance insuarence White">
<rect id="Rectangle 4 Copy 10" width="18" height="18" fill="#F4F7FB" fill-opacity="0.01"/>
<g id="guarantee">
<path id="Shape" d="M11.6584 6.7776C11.6003 6.71947 11.5197 6.68604 11.4375 6.68604C11.3553 6.68604 11.2747 6.71944 11.2166 6.7776C11.1584 6.83575 11.125 6.91635 11.125 6.99854C11.125 7.08072 11.1584 7.16135 11.2166 7.21944C11.2747 7.27757 11.3553 7.31104 11.4375 7.31104C11.5197 7.31104 11.6003 7.27757 11.6584 7.21944C11.7165 7.16135 11.75 7.08072 11.75 6.99854C11.75 6.91635 11.7166 6.83572 11.6584 6.7776Z" fill="white" stroke="white" stroke-width="0.2"/>
<path id="Shape_2" d="M10.6926 11.3495C10.2447 11.3495 9.88037 11.0318 9.88037 10.6413C9.88037 10.2507 10.2447 9.933 10.6926 9.933C11.1405 9.933 11.5048 10.2507 11.5048 10.6413C11.5048 10.8138 11.6448 10.9538 11.8173 10.9538C11.9899 10.9538 12.1298 10.8138 12.1298 10.6413C12.1298 10.0057 11.6478 9.47287 11.0051 9.34012V9.30878C11.0051 9.13621 10.8652 8.99628 10.6926 8.99628C10.5201 8.99628 10.3801 9.13621 10.3801 9.30878V9.34012C9.73743 9.47287 9.25537 10.0057 9.25537 10.6413C9.25537 11.3764 9.90012 11.9745 10.6926 11.9745C11.1405 11.9745 11.5048 12.2923 11.5048 12.6828C11.5048 13.0733 11.1405 13.3911 10.6926 13.3911C10.2447 13.3911 9.88037 13.0734 9.88037 12.6828C9.88037 12.5103 9.74043 12.3703 9.56787 12.3703C9.39531 12.3703 9.25537 12.5103 9.25537 12.6828C9.25537 13.3184 9.73743 13.8512 10.3801 13.984V14.0632C10.3801 14.2357 10.5201 14.3757 10.6926 14.3757C10.8652 14.3757 11.0051 14.2357 11.0051 14.0632V13.9839C11.6478 13.8512 12.1298 13.3184 12.1298 12.6828C12.1298 11.9477 11.4851 11.3495 10.6926 11.3495Z" fill="white" stroke="white" stroke-width="0.2"/>
<g id="Shape_3">
<path fill-rule="evenodd" clip-rule="evenodd" d="M14.9187 7.00537L13.0696 4.69379L13.9958 2.87555C14.1992 2.47656 14.1206 2.01971 13.7957 1.71173C13.4707 1.40369 13.0103 1.34967 12.6226 1.57391C12.571 1.60376 12.5139 1.61963 12.4565 1.62195C12.3701 1.62543 12.2832 1.59821 12.2139 1.54187C11.3308 0.821838 10.0481 0.820862 9.16162 1.54156C9.0459 1.63568 8.88135 1.64868 8.75244 1.57391C8.36475 1.34961 7.9043 1.40369 7.57935 1.71173C7.25439 2.01971 7.17578 2.47662 7.37915 2.87555L8.30835 4.69977L7.23145 6.04614C7.12378 6.18097 7.14551 6.37756 7.28027 6.48541C7.41528 6.59326 7.61182 6.57135 7.71973 6.43658L8.82983 5.04858H11.125V5.92554C11.125 6.09808 11.2649 6.23804 11.4375 6.23804C11.5361 6.23804 11.6243 6.19226 11.6814 6.12085C11.7244 6.06732 11.75 5.99945 11.75 5.92554V5.04858H12.2266V8.17035C12.2266 8.21411 12.2356 8.2558 12.2517 8.29364C12.2996 8.40491 12.4102 8.48285 12.5391 8.48285C12.7117 8.48285 12.8516 8.3429 12.8516 8.17035V5.42169L14.4304 7.39569C15.6843 8.96344 16.375 10.9324 16.375 12.9399C16.375 14.8332 14.8347 16.3735 12.9414 16.3735H8.44141C7.31006 16.3735 6.27808 15.8336 5.63428 14.9178C6.78247 14.3118 7.53491 13.6968 7.97388 13.0116C8.45361 12.2631 8.5083 11.5219 8.5271 10.7001V10.693V8.09637C8.5271 7.97437 8.45605 7.86346 8.34521 7.8125L4.89404 6.22498C4.8479 6.20374 4.79785 6.19434 4.74829 6.19678C4.70874 6.19867 4.66968 6.20807 4.63306 6.22498L1.18188 7.8125C1.12427 7.83899 1.07739 7.88171 1.04565 7.93378C1.01636 7.98181 1 8.03784 1 8.09637V10.693V10.7001C1.01904 11.5219 1.07349 12.2631 1.55322 13.0116C2.08032 13.8344 3.05884 14.5559 4.63257 15.2822C4.67407 15.3014 4.71875 15.311 4.76343 15.311C4.80811 15.311 4.85303 15.3014 4.89453 15.2822C4.9541 15.2548 5.01245 15.2272 5.07031 15.1997C5.41626 15.7144 5.87744 16.1469 6.41528 16.4572C7.02856 16.8113 7.72925 16.9985 8.44141 16.9985H12.9414C15.1792 16.9985 17 15.1778 17 12.9399C17 10.7911 16.2607 8.68347 14.9187 7.00537ZM12.5059 4.42358H8.8689L7.93579 2.59186C7.82202 2.36853 7.96338 2.20892 8.00928 2.16534C8.05518 2.1217 8.22241 1.98938 8.43921 2.11481C8.79126 2.31866 9.23999 2.2832 9.55811 2.0246C10.2134 1.49188 11.1643 1.49255 11.8191 2.02655C12.1348 2.2832 12.5835 2.31873 12.9355 2.11487C13.1526 1.98926 13.3196 2.1217 13.3655 2.16534C13.3774 2.17664 13.3958 2.19568 13.4143 2.22156C13.4675 2.29572 13.5234 2.42627 13.439 2.59186L12.5059 4.42358ZM1.625 10.6895C1.65576 12.0358 1.6853 13.2014 4.76367 14.6536C7.8418 13.2014 7.87134 12.0358 7.9021 10.6895V8.29663L4.76367 6.85291L1.625 8.29663V10.6895Z" fill="white"/>
<path d="M13.0696 4.69379L12.9805 4.64839L12.9512 4.70588L12.9915 4.75625L13.0696 4.69379ZM14.9187 7.00537L14.9968 6.94291L14.9968 6.9429L14.9187 7.00537ZM13.9958 2.87555L13.9068 2.83014L13.9067 2.83016L13.9958 2.87555ZM13.7957 1.71173L13.7269 1.7843L13.7269 1.78431L13.7957 1.71173ZM12.6226 1.57391L12.5725 1.48735L12.5724 1.48739L12.6226 1.57391ZM12.4565 1.62195L12.4606 1.72187L12.4606 1.72187L12.4565 1.62195ZM12.2139 1.54187L12.1507 1.61937L12.1508 1.61948L12.2139 1.54187ZM9.16162 1.54156L9.09854 1.46397L9.09853 1.46398L9.16162 1.54156ZM8.75244 1.57391L8.80261 1.48741L8.80252 1.48736L8.75244 1.57391ZM7.57935 1.71173L7.64814 1.78431L7.64814 1.7843L7.57935 1.71173ZM7.37915 2.87555L7.46826 2.83016L7.46824 2.83013L7.37915 2.87555ZM8.30835 4.69977L8.38644 4.76223L8.42673 4.71186L8.39746 4.65438L8.30835 4.69977ZM7.23145 6.04614L7.15335 5.98368L7.1533 5.98374L7.23145 6.04614ZM7.28027 6.48541L7.21779 6.56349L7.21786 6.56354L7.28027 6.48541ZM7.71973 6.43658L7.79779 6.49909L7.79782 6.49904L7.71973 6.43658ZM8.82983 5.04858V4.94858H8.78176L8.75174 4.98612L8.82983 5.04858ZM11.125 5.04858H11.225V4.94858H11.125V5.04858ZM11.6814 6.12085L11.6034 6.05825L11.6033 6.05838L11.6814 6.12085ZM11.75 5.04858V4.94858H11.65V5.04858H11.75ZM12.2266 5.04858H12.3266V4.94858H12.2266V5.04858ZM12.2517 8.29364L12.1597 8.33282L12.1598 8.33315L12.2517 8.29364ZM12.8516 5.42169L12.9297 5.35923L12.7516 5.13657V5.42169H12.8516ZM14.4304 7.39569L14.5085 7.33323V7.33323L14.4304 7.39569ZM5.63428 14.9178L5.5876 14.8293L5.48714 14.8824L5.55247 14.9753L5.63428 14.9178ZM7.97388 13.0116L7.88968 12.9576L7.88967 12.9577L7.97388 13.0116ZM8.5271 10.7001L8.6271 10.7024V10.7001H8.5271ZM8.34521 7.8125L8.30342 7.90335L8.30344 7.90336L8.34521 7.8125ZM4.89404 6.22498L4.85223 6.31581L4.85225 6.31582L4.89404 6.22498ZM4.74829 6.19678L4.75307 6.29666L4.75321 6.29666L4.74829 6.19678ZM4.63306 6.22498L4.67485 6.31582L4.67497 6.31577L4.63306 6.22498ZM1.18188 7.8125L1.22366 7.90336L1.22368 7.90335L1.18188 7.8125ZM1.04565 7.93378L1.13103 7.98585L1.13104 7.98583L1.04565 7.93378ZM1 10.7001H0.899973L0.900027 10.7025L1 10.7001ZM1.55322 13.0116L1.63743 12.9577L1.63742 12.9576L1.55322 13.0116ZM4.63257 15.2822L4.67449 15.1914L4.67447 15.1914L4.63257 15.2822ZM4.89453 15.2822L4.85266 15.1914L4.85261 15.1914L4.89453 15.2822ZM5.07031 15.1997L5.15331 15.1439L5.10521 15.0724L5.02735 15.1094L5.07031 15.1997ZM6.41528 16.4572L6.46528 16.3706L6.46526 16.3706L6.41528 16.4572ZM8.8689 4.42358L8.77979 4.46898L8.80761 4.52358H8.8689V4.42358ZM12.5059 4.42358V4.52358H12.5671L12.595 4.46898L12.5059 4.42358ZM7.93579 2.59186L8.0249 2.54647L8.0249 2.54647L7.93579 2.59186ZM8.00928 2.16534L8.07813 2.23786L8.07818 2.23782L8.00928 2.16534ZM8.43921 2.11481L8.48932 2.02827L8.48929 2.02825L8.43921 2.11481ZM9.55811 2.0246L9.62119 2.10219L9.62119 2.10219L9.55811 2.0246ZM11.8191 2.02655L11.7559 2.10405L11.756 2.10414L11.8191 2.02655ZM12.9355 2.11487L12.8855 2.02832L12.8854 2.02833L12.9355 2.11487ZM13.3655 2.16534L13.2966 2.23782L13.2968 2.23807L13.3655 2.16534ZM13.4143 2.22156L13.333 2.27983L13.3331 2.27986L13.4143 2.22156ZM13.439 2.59186L13.3499 2.54642L13.3499 2.54647L13.439 2.59186ZM4.76367 14.6536L4.72101 14.7441L4.76367 14.7642L4.80634 14.7441L4.76367 14.6536ZM1.625 10.6895H1.52497L1.52503 10.6917L1.625 10.6895ZM7.9021 10.6895L8.0021 10.6917V10.6895H7.9021ZM7.9021 8.29663H8.0021V8.23256L7.94389 8.20578L7.9021 8.29663ZM4.76367 6.85291L4.80546 6.76206L4.76367 6.74283L4.72188 6.76206L4.76367 6.85291ZM1.625 8.29663L1.58321 8.20578L1.525 8.23256V8.29663H1.625ZM12.9915 4.75625L14.8406 7.06784L14.9968 6.9429L13.1477 4.63132L12.9915 4.75625ZM13.9067 2.83016L12.9805 4.64839L13.1587 4.73918L14.085 2.92094L13.9067 2.83016ZM13.7269 1.78431C14.0196 2.0618 14.09 2.47063 13.9068 2.83014L14.0849 2.92096C14.3084 2.4825 14.2216 1.97763 13.8644 1.63915L13.7269 1.78431ZM12.6726 1.66048C13.022 1.45839 13.4341 1.50677 13.7269 1.7843L13.8645 1.63916C13.5073 1.30061 12.9985 1.24095 12.5725 1.48735L12.6726 1.66048ZM12.4606 1.72187C12.5336 1.71891 12.6067 1.69869 12.6727 1.66044L12.5724 1.48739C12.5354 1.50883 12.4942 1.52034 12.4525 1.52203L12.4606 1.72187ZM12.1508 1.61948C12.2397 1.69173 12.3507 1.72629 12.4606 1.72187L12.4525 1.52203C12.3895 1.52457 12.3267 1.50468 12.2769 1.46426L12.1508 1.61948ZM9.2247 1.61916C10.0744 0.928319 11.3044 0.92935 12.1507 1.61937L12.2771 1.46437C11.3572 0.714327 10.0217 0.713404 9.09854 1.46397L9.2247 1.61916ZM8.70227 1.66042C8.86716 1.75605 9.07679 1.73945 9.22472 1.61915L9.09853 1.46398C9.015 1.53191 8.89554 1.54131 8.80261 1.48741L8.70227 1.66042ZM7.64814 1.7843C7.94092 1.50676 8.35299 1.45834 8.70236 1.66047L8.80252 1.48736C8.3765 1.24088 7.86767 1.30061 7.51055 1.63916L7.64814 1.7843ZM7.46824 2.83013C7.285 2.47069 7.35535 2.0618 7.64814 1.78431L7.51056 1.63915C7.15343 1.97762 7.06656 2.48256 7.29006 2.92097L7.46824 2.83013ZM8.39746 4.65438L7.46826 2.83016L7.29004 2.92094L8.21924 4.74516L8.39746 4.65438ZM7.30954 6.10861L8.38644 4.76223L8.23026 4.63731L7.15335 5.98368L7.30954 6.10861ZM7.34276 6.40734C7.25115 6.33403 7.2363 6.20032 7.30959 6.10854L7.1533 5.98374C7.01126 6.16162 7.03986 6.4211 7.21779 6.56349L7.34276 6.40734ZM7.64167 6.37408C7.56825 6.46577 7.43458 6.48069 7.34269 6.40728L7.21786 6.56354C7.39598 6.70583 7.65538 6.67693 7.79779 6.49909L7.64167 6.37408ZM8.75174 4.98612L7.64163 6.37413L7.79782 6.49904L8.90793 5.11104L8.75174 4.98612ZM11.125 4.94858H8.82983V5.14858H11.125V4.94858ZM11.225 5.92554V5.04858H11.025V5.92554H11.225ZM11.4375 6.13804C11.3201 6.13804 11.225 6.04287 11.225 5.92554H11.025C11.025 6.1533 11.2097 6.33804 11.4375 6.33804V6.13804ZM11.6033 6.05838C11.5644 6.10703 11.5045 6.13804 11.4375 6.13804V6.33804C11.5677 6.33804 11.6841 6.27749 11.7595 6.18332L11.6033 6.05838ZM11.65 5.92554C11.65 5.9759 11.6326 6.02185 11.6034 6.05825L11.7594 6.18345C11.8161 6.1128 11.85 6.02301 11.85 5.92554H11.65ZM11.65 5.04858V5.92554H11.85V5.04858H11.65ZM12.2266 4.94858H11.75V5.14858H12.2266V4.94858ZM12.3266 8.17035V5.04858H12.1266V8.17035H12.3266ZM12.3437 8.25446C12.3327 8.22863 12.3266 8.20024 12.3266 8.17035H12.1266C12.1266 8.22798 12.1385 8.28297 12.1597 8.33282L12.3437 8.25446ZM12.5391 8.38285C12.4515 8.38285 12.3762 8.33001 12.3436 8.25413L12.1598 8.33315C12.2229 8.47981 12.3688 8.58285 12.5391 8.58285V8.38285ZM12.7516 8.17035C12.7516 8.28768 12.6564 8.38285 12.5391 8.38285V8.58285C12.7669 8.58285 12.9516 8.39811 12.9516 8.17035H12.7516ZM12.7516 5.42169V8.17035H12.9516V5.42169H12.7516ZM14.5085 7.33323L12.9297 5.35923L12.7735 5.48415L14.3523 7.45815L14.5085 7.33323ZM16.475 12.9399C16.475 10.9097 15.7766 8.91871 14.5085 7.33323L14.3523 7.45815C15.5921 9.00817 16.275 10.9551 16.275 12.9399H16.475ZM12.9414 16.4735C14.8899 16.4735 16.475 14.8884 16.475 12.9399H16.275C16.275 14.778 14.7795 16.2735 12.9414 16.2735V16.4735ZM8.44141 16.4735H12.9414V16.2735H8.44141V16.4735ZM5.55247 14.9753C6.21497 15.9177 7.27745 16.4735 8.44141 16.4735V16.2735C7.34267 16.2735 6.34119 15.7495 5.71609 14.8603L5.55247 14.9753ZM7.88967 12.9577C7.46394 13.6222 6.72855 14.2272 5.5876 14.8293L5.68095 15.0062C6.83639 14.3964 7.60588 13.7714 8.05808 13.0655L7.88967 12.9577ZM8.42713 10.6978C8.40837 11.5175 8.3534 12.2341 7.88968 12.9576L8.05807 13.0656C8.55383 12.292 8.60823 11.5263 8.62707 10.7024L8.42713 10.6978ZM8.4271 10.693V10.7001H8.6271V10.693H8.4271ZM8.4271 8.09637V10.693H8.6271V8.09637H8.4271ZM8.30344 7.90336C8.37878 7.938 8.4271 8.01341 8.4271 8.09637H8.6271C8.6271 7.93533 8.53333 7.78893 8.38699 7.72164L8.30344 7.90336ZM4.85225 6.31582L8.30342 7.90335L8.387 7.72165L4.93583 6.13413L4.85225 6.31582ZM4.75321 6.29666C4.78688 6.295 4.82088 6.30138 4.85223 6.31581L4.93586 6.13414C4.87492 6.10609 4.80882 6.09367 4.74337 6.0969L4.75321 6.29666ZM4.67497 6.31577C4.69977 6.30432 4.72621 6.29795 4.75307 6.29666L4.74351 6.09689C4.69127 6.09939 4.63958 6.11182 4.59114 6.13418L4.67497 6.31577ZM1.22368 7.90335L4.67485 6.31582L4.59127 6.13413L1.14009 7.72165L1.22368 7.90335ZM1.13104 7.98583C1.15266 7.95036 1.18453 7.92135 1.22366 7.90336L1.14011 7.72164C1.06401 7.75663 1.00212 7.81307 0.960269 7.88172L1.13104 7.98583ZM1.1 8.09637C1.1 8.05656 1.11111 8.0185 1.13103 7.98585L0.960281 7.88171C0.921602 7.94512 0.9 8.01912 0.9 8.09637H1.1ZM1.1 10.693V8.09637H0.9V10.693H1.1ZM1.1 10.7001V10.693H0.9V10.7001H1.1ZM1.63742 12.9576C1.17371 12.2341 1.11897 11.5176 1.09997 10.6978L0.900027 10.7025C0.919117 11.5263 0.973266 12.292 1.46903 13.0656L1.63742 12.9576ZM4.67447 15.1914C3.10639 14.4677 2.14899 13.7562 1.63743 12.9577L1.46902 13.0655C2.01165 13.9126 3.01128 14.6441 4.59066 15.373L4.67447 15.1914ZM4.76343 15.211C4.73305 15.211 4.70269 15.2045 4.67449 15.1914L4.59065 15.373C4.64545 15.3983 4.70445 15.411 4.76343 15.411V15.211ZM4.85261 15.1914C4.82448 15.2044 4.79389 15.211 4.76343 15.211V15.411C4.82232 15.411 4.88157 15.3984 4.93645 15.373L4.85261 15.1914ZM5.02735 15.1094C4.96967 15.1368 4.91172 15.1642 4.85266 15.1914L4.9364 15.373C4.99648 15.3453 5.05523 15.3176 5.11327 15.29L5.02735 15.1094ZM6.46526 16.3706C5.94075 16.0679 5.49082 15.6461 5.15331 15.1439L4.98732 15.2555C5.3417 15.7828 5.81413 16.2258 6.3653 16.5438L6.46526 16.3706ZM8.44141 16.8985C7.7467 16.8985 7.06327 16.7158 6.46528 16.3706L6.36528 16.5438C6.99386 16.9067 7.7118 17.0985 8.44141 17.0985V16.8985ZM12.9414 16.8985H8.44141V17.0985H12.9414V16.8985ZM16.9 12.9399C16.9 15.1226 15.124 16.8985 12.9414 16.8985V17.0985C15.2344 17.0985 17.1 15.233 17.1 12.9399H16.9ZM14.8406 7.06783C16.1685 8.7282 16.9 10.8138 16.9 12.9399H17.1C17.1 10.7684 16.353 8.63874 14.9968 6.94291L14.8406 7.06783ZM8.8689 4.52358H12.5059V4.32358H8.8689V4.52358ZM7.84669 2.63725L8.77979 4.46898L8.958 4.37819L8.0249 2.54647L7.84669 2.63725ZM7.94042 2.09283C7.91166 2.12013 7.85298 2.18343 7.81877 2.27678C7.7832 2.37382 7.77609 2.49867 7.84669 2.63725L8.0249 2.54647C7.98172 2.46172 7.98841 2.3951 8.00655 2.34561C8.02604 2.29243 8.061 2.25413 8.07813 2.23786L7.94042 2.09283ZM8.48929 2.02825C8.35476 1.95042 8.22969 1.9508 8.13088 1.98106C8.03581 2.01017 7.96936 2.06531 7.94037 2.09287L8.07818 2.23782C8.09509 2.22174 8.13521 2.1889 8.18944 2.17229C8.23992 2.15684 8.30687 2.15377 8.38913 2.20136L8.48929 2.02825ZM9.49503 1.947C9.20898 2.17954 8.80528 2.21123 8.48932 2.02827L8.3891 2.20135C8.77724 2.4261 9.271 2.38687 9.62119 2.10219L9.49503 1.947ZM11.8823 1.94905C11.1908 1.38509 10.1871 1.38437 9.49502 1.947L9.62119 2.10219C10.2397 1.59939 11.1378 1.60001 11.7559 2.10405L11.8823 1.94905ZM12.8854 2.02833C12.5693 2.21137 12.1656 2.17943 11.8822 1.94896L11.756 2.10414C12.1039 2.38698 12.5977 2.42608 12.9857 2.20141L12.8854 2.02833ZM13.4344 2.09287C13.4055 2.06537 13.3391 2.01016 13.244 1.98103C13.1452 1.95074 13.0201 1.95041 12.8855 2.02832L12.9856 2.20142C13.0681 2.15372 13.135 2.15681 13.1854 2.17225C13.2395 2.18884 13.2796 2.22168 13.2966 2.23782L13.4344 2.09287ZM13.4956 2.16329C13.4725 2.13114 13.4497 2.10732 13.4341 2.09262L13.2968 2.23807C13.3052 2.24595 13.319 2.26022 13.333 2.27983L13.4956 2.16329ZM13.528 2.6373C13.6351 2.42751 13.5624 2.25641 13.4955 2.16325L13.3331 2.27986C13.3726 2.33502 13.4118 2.42503 13.3499 2.54642L13.528 2.6373ZM12.595 4.46898L13.5281 2.63725L13.3499 2.54647L12.4168 4.37819L12.595 4.46898ZM4.80634 14.5632C3.27407 13.8403 2.51764 13.1963 2.13656 12.5793C1.75657 11.964 1.7404 11.3623 1.72497 10.6872L1.52503 10.6917C1.54036 11.3629 1.55434 12.0172 1.9664 12.6844C2.37738 13.3498 3.17491 14.0147 4.72101 14.7441L4.80634 14.5632ZM7.80213 10.6872C7.7867 11.3623 7.77053 11.964 7.39056 12.5793C7.00951 13.1963 6.25315 13.8403 4.721 14.5632L4.80634 14.7441C6.35232 14.0147 7.14979 13.3498 7.56073 12.6844C7.97275 12.0172 7.98674 11.3629 8.00207 10.6917L7.80213 10.6872ZM7.8021 8.29663V10.6895H8.0021V8.29663H7.8021ZM4.72188 6.94375L7.86031 8.38748L7.94389 8.20578L4.80546 6.76206L4.72188 6.94375ZM1.66679 8.38748L4.80546 6.94376L4.72188 6.76206L1.58321 8.20578L1.66679 8.38748ZM1.725 10.6895V8.29663H1.525V10.6895H1.725Z" fill="white"/>
</g>
<path id="Shape_4" d="M6.75873 9.71296C6.6367 9.59096 6.43889 9.59096 6.31683 9.71296L4.56561 11.4642L3.82426 10.7228C3.7022 10.6008 3.50439 10.6008 3.38229 10.7228C3.26026 10.8449 3.26026 11.0427 3.38229 11.1648L4.34461 12.1271C4.40564 12.1881 4.48561 12.2186 4.56558 12.2186C4.64555 12.2186 4.72551 12.1881 4.78654 12.1271L6.75873 10.1549C6.88076 10.0329 6.88076 9.83502 6.75873 9.71296Z" fill="white" stroke="white" stroke-width="0.2"/>
</g>
</g>
</svg>
