<svg width="18" height="18" viewBox="0 0 18 18" fill="none" xmlns="http://www.w3.org/2000/svg">
<g id="Finance insuarence">
<rect id="Rectangle 4 Copy 10" width="18" height="18" fill="#F4F7FB" fill-opacity="0.01"/>
<g id="guarantee">
<path id="Shape" d="M11.6584 6.7776C11.6003 6.71947 11.5197 6.68604 11.4375 6.68604C11.3553 6.68604 11.2747 6.71944 11.2166 6.7776C11.1584 6.83575 11.125 6.91635 11.125 6.99854C11.125 7.08072 11.1584 7.16135 11.2166 7.21944C11.2747 7.27757 11.3553 7.31104 11.4375 7.31104C11.5197 7.31104 11.6003 7.27757 11.6584 7.21944C11.7165 7.16135 11.75 7.08072 11.75 6.99854C11.75 6.91635 11.7166 6.83572 11.6584 6.7776Z" fill="#0C49CD" stroke="#0C49CD" stroke-width="0.2"/>
<path id="Shape_2" d="M10.6925 11.3495C10.2446 11.3495 9.88025 11.0318 9.88025 10.6413C9.88025 10.2507 10.2446 9.933 10.6925 9.933C11.1404 9.933 11.5047 10.2507 11.5047 10.6413C11.5047 10.8138 11.6447 10.9538 11.8172 10.9538C11.9898 10.9538 12.1297 10.8138 12.1297 10.6413C12.1297 10.0057 11.6477 9.47287 11.005 9.34012V9.30878C11.005 9.13621 10.8651 8.99628 10.6925 8.99628C10.5199 8.99628 10.38 9.13621 10.38 9.30878V9.34012C9.73731 9.47287 9.25525 10.0057 9.25525 10.6413C9.25525 11.3764 9.9 11.9745 10.6925 11.9745C11.1404 11.9745 11.5047 12.2923 11.5047 12.6828C11.5047 13.0733 11.1404 13.3911 10.6925 13.3911C10.2446 13.3911 9.88025 13.0734 9.88025 12.6828C9.88025 12.5103 9.74031 12.3703 9.56775 12.3703C9.39519 12.3703 9.25525 12.5103 9.25525 12.6828C9.25525 13.3184 9.73731 13.8512 10.38 13.984V14.0632C10.38 14.2357 10.5199 14.3757 10.6925 14.3757C10.8651 14.3757 11.005 14.2357 11.005 14.0632V13.9839C11.6477 13.8512 12.1297 13.3184 12.1297 12.6828C12.1297 11.9477 11.485 11.3495 10.6925 11.3495Z" fill="#0C49CD" stroke="#0C49CD" stroke-width="0.2"/>
<g id="Shape_3">
<path fill-rule="evenodd" clip-rule="evenodd" d="M14.9186 7.00537L13.0697 4.69379L13.9958 2.87555C14.1991 2.47656 14.1205 2.01971 13.7955 1.71173C13.4706 1.40369 13.0101 1.34967 12.6227 1.57391C12.4935 1.64868 12.3291 1.63562 12.2139 1.54187C11.3307 0.821838 10.048 0.820862 9.1615 1.54156C9.04578 1.63568 8.88135 1.64868 8.75232 1.57391C8.36487 1.34961 7.90442 1.40369 7.57947 1.71173C7.25452 2.01971 7.1759 2.47662 7.37915 2.87555L8.30847 4.69977L7.23157 6.04614C7.12378 6.18097 7.14563 6.37756 7.2804 6.48541C7.41516 6.59326 7.61182 6.57135 7.7196 6.43658L8.82983 5.04858H11.125V5.92554C11.125 6.09808 11.2649 6.23804 11.4375 6.23804C11.4963 6.23804 11.5514 6.22174 11.5985 6.19342C11.6893 6.13879 11.75 6.03925 11.75 5.92554V5.04858H12.2266V8.17035C12.2266 8.3429 12.3665 8.48285 12.5391 8.48285C12.7117 8.48285 12.8516 8.3429 12.8516 8.17035V5.42169L14.4304 7.39569C15.6844 8.96344 16.375 10.9324 16.375 12.9399C16.375 14.8332 14.8347 16.3735 12.9415 16.3735H8.44153C7.30994 16.3735 6.27808 15.8336 5.6344 14.9178C6.78247 14.3118 7.53491 13.6968 7.974 13.0116C8.45361 12.2631 8.50818 11.5219 8.52698 10.7001L8.5271 10.693V8.09637C8.5271 7.97437 8.45605 7.86346 8.34521 7.8125L4.89417 6.22498C4.81128 6.18683 4.71582 6.18683 4.63293 6.22498L1.18188 7.8125C1.07104 7.86346 1 7.97437 1 8.09637V10.693L1.00012 10.7001C1.01892 11.5219 1.07361 12.2631 1.5531 13.0116C2.08032 13.8344 3.05884 14.5559 4.63257 15.2822C4.67407 15.3014 4.71887 15.311 4.76355 15.311C4.77295 15.311 4.78235 15.3105 4.79175 15.3097C4.79907 15.309 4.80627 15.3081 4.81348 15.3069C4.82727 15.3047 4.84094 15.3016 4.85449 15.2975C4.86804 15.2933 4.88135 15.2883 4.89441 15.2822L4.9707 15.2468L5.07043 15.1997C5.41614 15.7144 5.87756 16.1469 6.41516 16.4572C7.02856 16.8113 7.72937 16.9985 8.44141 16.9985H12.9414C15.1793 16.9985 17 15.1778 17 12.9399C17 10.7911 16.2609 8.68347 14.9186 7.00537ZM12.506 4.42358H8.86914L7.93604 2.59186C7.82227 2.36853 7.96338 2.20892 8.0094 2.16534C8.05542 2.1217 8.22253 1.98938 8.43921 2.11481C8.79138 2.31866 9.24011 2.2832 9.55811 2.0246C10.2136 1.49188 11.1643 1.49255 11.8192 2.02655C12.135 2.2832 12.5836 2.31873 12.9358 2.11487C13.1526 1.98926 13.3196 2.1217 13.3656 2.16534C13.4116 2.20892 13.5529 2.36853 13.4391 2.59186L12.506 4.42358ZM1.625 10.6895C1.65588 12.0358 1.6853 13.2014 4.76355 14.6536C7.8418 13.2014 7.87122 12.0358 7.9021 10.6895V8.29663L4.76355 6.85291L1.625 8.29663V10.6895Z" fill="#0C49CD"/>
<path d="M13.0697 4.69379L12.9806 4.6484L12.9513 4.70588L12.9916 4.75625L13.0697 4.69379ZM14.9186 7.00537L14.8405 7.06783L14.8405 7.06783L14.9186 7.00537ZM13.9958 2.87555L13.9067 2.83016L13.9067 2.83016L13.9958 2.87555ZM13.7955 1.71173L13.7267 1.7843L13.7267 1.78431L13.7955 1.71173ZM12.6227 1.57391L12.5726 1.48736L12.5726 1.48737L12.6227 1.57391ZM12.2139 1.54187L12.1507 1.61938L12.1508 1.61944L12.2139 1.54187ZM9.1615 1.54156L9.09842 1.46397L9.0984 1.46398L9.1615 1.54156ZM8.75232 1.57391L8.80246 1.48739L8.80242 1.48737L8.75232 1.57391ZM7.57947 1.71173L7.64826 1.78431L7.64827 1.7843L7.57947 1.71173ZM7.37915 2.87555L7.46825 2.83016L7.46825 2.83015L7.37915 2.87555ZM8.30847 4.69977L8.38656 4.76223L8.42686 4.71185L8.39758 4.65438L8.30847 4.69977ZM7.23157 6.04614L7.15347 5.98368L7.15346 5.9837L7.23157 6.04614ZM7.7196 6.43658L7.64151 6.37412L7.64151 6.37412L7.7196 6.43658ZM8.82983 5.04858V4.94858H8.78177L8.75174 4.98612L8.82983 5.04858ZM11.125 5.04858H11.225V4.94858H11.125V5.04858ZM11.5985 6.19342L11.65 6.27913L11.6501 6.27911L11.5985 6.19342ZM11.75 5.04858V4.94858H11.65V5.04858H11.75ZM12.2266 5.04858H12.3266V4.94858H12.2266V5.04858ZM12.8516 5.42169L12.9297 5.35923L12.7516 5.13657V5.42169H12.8516ZM14.4304 7.39569L14.3523 7.45815L14.3523 7.45816L14.4304 7.39569ZM5.6344 14.9178L5.58772 14.8294L5.48728 14.8824L5.55259 14.9753L5.6344 14.9178ZM7.974 13.0116L8.05819 13.0656L8.0582 13.0655L7.974 13.0116ZM8.52698 10.7001L8.62695 10.7024L8.62696 10.7018L8.52698 10.7001ZM8.5271 10.693L8.6271 10.6947V10.693H8.5271ZM8.34521 7.8125L8.30342 7.90335L8.30344 7.90336L8.34521 7.8125ZM4.89417 6.22498L4.85236 6.31582L4.85237 6.31582L4.89417 6.22498ZM4.63293 6.22498L4.67473 6.31582L4.67474 6.31582L4.63293 6.22498ZM1.18188 7.8125L1.22366 7.90336L1.22368 7.90335L1.18188 7.8125ZM1 10.693H0.899985L0.900015 10.6947L1 10.693ZM1.00012 10.7001L0.900135 10.7018L0.900148 10.7024L1.00012 10.7001ZM1.5531 13.0116L1.4689 13.0655L1.4689 13.0655L1.5531 13.0116ZM4.63257 15.2822L4.67449 15.1914L4.67447 15.1914L4.63257 15.2822ZM4.79175 15.3097L4.8008 15.4093L4.80088 15.4093L4.79175 15.3097ZM4.81348 15.3069L4.79775 15.2082L4.79758 15.2082L4.81348 15.3069ZM4.85449 15.2975L4.88339 15.3932L4.88378 15.3931L4.85449 15.2975ZM4.89441 15.2822L4.9364 15.373L4.93656 15.3729L4.89441 15.2822ZM4.9707 15.2468L5.01285 15.3375L5.01338 15.3372L4.9707 15.2468ZM5.07043 15.1997L5.15345 15.144L5.10551 15.0726L5.02776 15.1093L5.07043 15.1997ZM6.41516 16.4572L6.36516 16.5438L6.36517 16.5438L6.41516 16.4572ZM8.86914 4.42358L8.78004 4.46898L8.80785 4.52358H8.86914V4.42358ZM12.506 4.42358V4.52358H12.5673L12.5951 4.46898L12.506 4.42358ZM7.93604 2.59186L8.02514 2.54647L8.02514 2.54647L7.93604 2.59186ZM8.0094 2.16534L8.07816 2.23795L8.07821 2.23791L8.0094 2.16534ZM8.43921 2.11481L8.38911 2.20135L8.38911 2.20135L8.43921 2.11481ZM9.55811 2.0246L9.49504 1.94699L9.49501 1.94701L9.55811 2.0246ZM11.8192 2.02655L11.756 2.10405L11.7561 2.10415L11.8192 2.02655ZM12.9358 2.11487L12.9859 2.20141L12.9859 2.20139L12.9358 2.11487ZM13.3656 2.16534L13.2968 2.23791L13.2968 2.23795L13.3656 2.16534ZM13.4391 2.59186L13.35 2.54647L13.35 2.54647L13.4391 2.59186ZM4.76355 14.6536L4.72088 14.7441L4.76355 14.7642L4.80622 14.7441L4.76355 14.6536ZM1.625 10.6895H1.52497L1.52503 10.6917L1.625 10.6895ZM7.9021 10.6895L8.0021 10.6917V10.6895H7.9021ZM7.9021 8.29663H8.0021V8.23256L7.94389 8.20578L7.9021 8.29663ZM4.76355 6.85291L4.80534 6.76206L4.76355 6.74283L4.72176 6.76206L4.76355 6.85291ZM1.625 8.29663L1.58321 8.20578L1.525 8.23256V8.29663H1.625ZM12.9916 4.75625L14.8405 7.06783L14.9967 6.94291L13.1478 4.63133L12.9916 4.75625ZM13.9067 2.83016L12.9806 4.6484L13.1588 4.73917L14.085 2.92094L13.9067 2.83016ZM13.7267 1.78431C14.0195 2.0618 14.0899 2.47064 13.9067 2.83016L14.085 2.92094C14.3083 2.48248 14.2214 1.97762 13.8643 1.63915L13.7267 1.78431ZM12.6728 1.66046C13.0219 1.45841 13.434 1.50676 13.7267 1.7843L13.8643 1.63916C13.5072 1.30062 12.9984 1.24093 12.5726 1.48736L12.6728 1.66046ZM12.1508 1.61944C12.2983 1.73946 12.5078 1.75599 12.6728 1.66046L12.5726 1.48737C12.4793 1.54138 12.3599 1.53178 12.277 1.4643L12.1508 1.61944ZM9.22458 1.61916C10.0743 0.928321 11.3043 0.929346 12.1507 1.61938L12.2771 1.46436C11.3571 0.714331 10.0216 0.713402 9.09842 1.46397L9.22458 1.61916ZM8.70218 1.66044C8.86716 1.75604 9.07666 1.73946 9.2246 1.61915L9.0984 1.46398C9.01489 1.5319 8.89553 1.54133 8.80246 1.48739L8.70218 1.66044ZM7.64827 1.7843C7.94106 1.50675 8.35312 1.45835 8.70222 1.66046L8.80242 1.48737C8.37662 1.24086 7.86778 1.30063 7.51067 1.63916L7.64827 1.7843ZM7.46825 2.83015C7.28512 2.4707 7.35548 2.06181 7.64826 1.78431L7.51068 1.63915C7.15356 1.97762 7.06669 2.48255 7.29005 2.92095L7.46825 2.83015ZM8.39758 4.65438L7.46825 2.83016L7.29005 2.92094L8.21937 4.74516L8.39758 4.65438ZM7.30966 6.10861L8.38656 4.76223L8.23038 4.63731L7.15347 5.98368L7.30966 6.10861ZM7.34288 6.40734C7.25122 6.33399 7.23636 6.2003 7.30967 6.10859L7.15346 5.9837C7.0112 6.16164 7.04004 6.42114 7.21791 6.56349L7.34288 6.40734ZM7.64151 6.37412C7.56821 6.46578 7.43449 6.48065 7.34288 6.40734L7.21791 6.56349C7.39583 6.70587 7.65543 6.67693 7.7977 6.49905L7.64151 6.37412ZM8.75174 4.98612L7.64151 6.37412L7.7977 6.49905L8.90793 5.11105L8.75174 4.98612ZM11.125 4.94858H8.82983V5.14858H11.125V4.94858ZM11.225 5.92554V5.04858H11.025V5.92554H11.225ZM11.4375 6.13804C11.3201 6.13804 11.225 6.04287 11.225 5.92554H11.025C11.025 6.1533 11.2097 6.33804 11.4375 6.33804V6.13804ZM11.547 6.10771C11.5149 6.12698 11.4776 6.13804 11.4375 6.13804V6.33804C11.5151 6.33804 11.5879 6.3165 11.65 6.27913L11.547 6.10771ZM11.65 5.92554C11.65 6.00279 11.6089 6.07047 11.547 6.10773L11.6501 6.27911C11.7698 6.20712 11.85 6.0757 11.85 5.92554H11.65ZM11.65 5.04858V5.92554H11.85V5.04858H11.65ZM12.2266 4.94858H11.75V5.14858H12.2266V4.94858ZM12.3266 8.17035V5.04858H12.1266V8.17035H12.3266ZM12.5391 8.38285C12.4217 8.38285 12.3266 8.28768 12.3266 8.17035H12.1266C12.1266 8.39811 12.3112 8.58285 12.5391 8.58285V8.38285ZM12.7516 8.17035C12.7516 8.28768 12.6564 8.38285 12.5391 8.38285V8.58285C12.7669 8.58285 12.9516 8.39811 12.9516 8.17035H12.7516ZM12.7516 5.42169V8.17035H12.9516V5.42169H12.7516ZM14.5085 7.33323L12.9297 5.35923L12.7735 5.48415L14.3523 7.45815L14.5085 7.33323ZM16.475 12.9399C16.475 10.9097 15.7767 8.91871 14.5085 7.33323L14.3523 7.45816C15.5922 9.00817 16.275 10.9551 16.275 12.9399H16.475ZM12.9415 16.4735C14.8899 16.4735 16.475 14.8884 16.475 12.9399H16.275C16.275 14.778 14.7795 16.2735 12.9415 16.2735V16.4735ZM8.44153 16.4735H12.9415V16.2735H8.44153V16.4735ZM5.55259 14.9753C6.21496 15.9177 7.27733 16.4735 8.44153 16.4735V16.2735C7.34254 16.2735 6.34119 15.7495 5.71621 14.8603L5.55259 14.9753ZM7.8898 12.9576C7.46394 13.6222 6.72855 14.2272 5.58772 14.8294L5.68108 15.0062C6.83639 14.3964 7.60588 13.7714 8.05819 13.0656L7.8898 12.9576ZM8.427 10.6978C8.40825 11.5176 8.35339 12.2341 7.8898 12.9576L8.0582 13.0655C8.55383 12.292 8.60811 11.5263 8.62695 10.7024L8.427 10.6978ZM8.42711 10.6913L8.42699 10.6984L8.62696 10.7018L8.62709 10.6947L8.42711 10.6913ZM8.4271 8.09637V10.693H8.6271V8.09637H8.4271ZM8.30344 7.90336C8.37878 7.938 8.4271 8.01341 8.4271 8.09637H8.6271C8.6271 7.93533 8.53333 7.78893 8.38699 7.72164L8.30344 7.90336ZM4.85237 6.31582L8.30342 7.90335L8.38701 7.72165L4.93596 6.13413L4.85237 6.31582ZM4.67474 6.31582C4.73109 6.28988 4.79601 6.28988 4.85236 6.31582L4.93597 6.13413C4.82655 6.08378 4.70055 6.08378 4.59113 6.13413L4.67474 6.31582ZM1.22368 7.90335L4.67473 6.31582L4.59114 6.13413L1.14009 7.72165L1.22368 7.90335ZM1.1 8.09637C1.1 8.01341 1.14832 7.938 1.22366 7.90336L1.14011 7.72164C0.993768 7.78893 0.9 7.93533 0.9 8.09637H1.1ZM1.1 10.693V8.09637H0.9V10.693H1.1ZM1.10011 10.6984L1.09999 10.6913L0.900015 10.6947L0.900137 10.7018L1.10011 10.6984ZM1.63731 12.9577C1.17382 12.2341 1.11885 11.5175 1.1001 10.6978L0.900148 10.7024C0.918995 11.5263 0.973392 12.292 1.4689 13.0655L1.63731 12.9577ZM4.67447 15.1914C3.1064 14.4677 2.14899 13.7562 1.6373 12.9576L1.4689 13.0655C2.01166 13.9126 3.01128 14.6441 4.59066 15.373L4.67447 15.1914ZM4.76355 15.211C4.73313 15.211 4.70265 15.2044 4.67449 15.1914L4.59065 15.373C4.64549 15.3983 4.70462 15.411 4.76355 15.411V15.211ZM4.78269 15.2101C4.77629 15.2107 4.76991 15.211 4.76355 15.211V15.411C4.77598 15.411 4.7884 15.4104 4.8008 15.4093L4.78269 15.2101ZM4.79758 15.2082C4.79257 15.209 4.78763 15.2097 4.78262 15.2101L4.80088 15.4093C4.81052 15.4084 4.81998 15.4072 4.82937 15.4057L4.79758 15.2082ZM4.8256 15.2018C4.81617 15.2046 4.80689 15.2067 4.79775 15.2082L4.82921 15.4057C4.84765 15.4028 4.86572 15.3986 4.88339 15.3932L4.8256 15.2018ZM4.85242 15.1915C4.84354 15.1956 4.83448 15.199 4.8252 15.2019L4.88378 15.3931C4.90161 15.3876 4.91916 15.381 4.9364 15.373L4.85242 15.1915ZM4.92855 15.1561L4.85226 15.1915L4.93656 15.3729L5.01285 15.3374L4.92855 15.1561ZM5.02776 15.1093L4.92803 15.1563L5.01338 15.3372L5.11311 15.2901L5.02776 15.1093ZM6.46516 16.3706C5.94086 16.0679 5.4907 15.6461 5.15345 15.144L4.98742 15.2555C5.34158 15.7828 5.81427 16.2258 6.36516 16.5438L6.46516 16.3706ZM8.44141 16.8985C7.74682 16.8985 7.06327 16.7158 6.46515 16.3706L6.36517 16.5438C6.99386 16.9067 7.71192 17.0985 8.44141 17.0985V16.8985ZM12.9414 16.8985H8.44141V17.0985H12.9414V16.8985ZM16.9 12.9399C16.9 15.1226 15.1241 16.8985 12.9414 16.8985V17.0985C15.2345 17.0985 17.1 15.233 17.1 12.9399H16.9ZM14.8405 7.06783C16.1686 8.7282 16.9 10.8138 16.9 12.9399H17.1C17.1 10.7684 16.3531 8.63874 14.9967 6.94291L14.8405 7.06783ZM8.86914 4.52358H12.506V4.32358H8.86914V4.52358ZM7.84693 2.63725L8.78004 4.46898L8.95825 4.37819L8.02514 2.54647L7.84693 2.63725ZM7.94064 2.09273C7.9117 2.12014 7.85305 2.18347 7.81889 2.27683C7.78337 2.37388 7.77635 2.49871 7.84693 2.63725L8.02514 2.54647C7.98195 2.46168 7.9886 2.39504 8.00671 2.34556C8.02616 2.29239 8.06108 2.25413 8.07816 2.23795L7.94064 2.09273ZM8.48931 2.02826C8.35483 1.95042 8.22981 1.9508 8.13102 1.98106C8.03597 2.01018 7.96955 2.06532 7.94059 2.09278L8.07821 2.23791C8.09527 2.22173 8.13541 2.18889 8.1896 2.17229C8.24004 2.15684 8.30691 2.15377 8.38911 2.20135L8.48931 2.02826ZM9.49501 1.94701C9.20911 2.17952 8.80541 2.21124 8.48931 2.02826L8.38911 2.20135C8.77735 2.42609 9.27112 2.38688 9.6212 2.10218L9.49501 1.94701ZM11.8824 1.94905C11.1908 1.38509 10.1873 1.38438 9.49504 1.94699L9.62117 2.1022C10.2399 1.59939 11.1379 1.60001 11.756 2.10405L11.8824 1.94905ZM12.8857 2.02832C12.5695 2.21138 12.1659 2.17943 11.8823 1.94895L11.7561 2.10415C12.1041 2.38697 12.5978 2.42607 12.9859 2.20141L12.8857 2.02832ZM13.4344 2.09278C13.4055 2.06536 13.3391 2.01016 13.244 1.98103C13.1452 1.95074 13.0202 1.9504 12.8857 2.02834L12.9859 2.20139C13.0682 2.15373 13.135 2.1568 13.1854 2.17225C13.2396 2.18884 13.2797 2.22169 13.2968 2.23791L13.4344 2.09278ZM13.5282 2.63725C13.5988 2.49869 13.5917 2.37385 13.5562 2.2768C13.522 2.18344 13.4633 2.12012 13.4344 2.09273L13.2968 2.23795C13.3139 2.25415 13.3489 2.29242 13.3684 2.34559C13.3865 2.39508 13.3932 2.4617 13.35 2.54647L13.5282 2.63725ZM12.5951 4.46898L13.5282 2.63725L13.35 2.54647L12.4169 4.37819L12.5951 4.46898ZM4.80622 14.5632C3.27401 13.8403 2.51765 13.1963 2.1366 12.5793C1.75663 11.964 1.74046 11.3623 1.72497 10.6872L1.52503 10.6917C1.54042 11.3629 1.55441 12.0172 1.96643 12.6844C2.37737 13.3498 3.17484 14.0147 4.72088 14.7441L4.80622 14.5632ZM7.80213 10.6872C7.78664 11.3623 7.77047 11.964 7.3905 12.5793C7.00945 13.1963 6.25309 13.8403 4.72088 14.5632L4.80622 14.7441C6.35226 14.0147 7.14973 13.3498 7.56067 12.6844C7.97269 12.0172 7.98668 11.3629 8.00207 10.6917L7.80213 10.6872ZM7.8021 8.29663V10.6895H8.0021V8.29663H7.8021ZM4.72176 6.94375L7.86031 8.38748L7.94389 8.20578L4.80534 6.76206L4.72176 6.94375ZM1.66679 8.38748L4.80534 6.94375L4.72176 6.76206L1.58321 8.20578L1.66679 8.38748ZM1.725 10.6895V8.29663H1.525V10.6895H1.725Z" fill="#0C49CD"/>
</g>
<path id="Shape_4" d="M6.75885 9.71296C6.63682 9.59096 6.43901 9.59096 6.31695 9.71296L4.56573 11.4642L3.82439 10.7228C3.70232 10.6008 3.50451 10.6008 3.38242 10.7228C3.26039 10.8449 3.26039 11.0427 3.38242 11.1648L4.34473 12.1271C4.40576 12.1881 4.48573 12.2186 4.5657 12.2186C4.64567 12.2186 4.72564 12.1881 4.78667 12.1271L6.75885 10.1549C6.88089 10.0329 6.88089 9.83502 6.75885 9.71296Z" fill="#0C49CD" stroke="#0C49CD" stroke-width="0.2"/>
</g>
</g>
</svg>
