<svg width="15" height="16" viewBox="0 0 15 16" fill="none" xmlns="http://www.w3.org/2000/svg">
<path d="M3.31226 15.0625H2.84351V0.9375C2.84351 0.419719 2.42379 0 1.90601 0C1.38822 0 0.968506 0.419719 0.968506 0.9375V15.0625H0.499756C0.240662 15.0625 0.0310059 15.2722 0.0310059 15.5312C0.0310059 15.7903 0.240662 16 0.499756 16C1.52144 16 2.33704 16 3.31226 16C3.57135 16 3.78101 15.7903 3.78101 15.5312C3.78101 15.2722 3.57135 15.0625 3.31226 15.0625Z" fill="#DDE1E6"/>
<path d="M14.0148 8.64625L12.3133 6.09375L14.0148 3.54125C14.2223 3.22947 13.9978 2.8125 13.6248 2.8125H9.40601V7.96875C9.40601 8.57906 9.01294 9.0945 8.46851 9.28866C8.61585 9.34119 8.77213 9.375 8.93726 9.375H13.6248C13.9978 9.375 14.2223 8.95803 14.0148 8.64625Z" fill="#DDE1E6"/>
<path d="M7.06226 0.9375H3.78101V8.4375H7.99976C8.25885 8.4375 8.46851 8.22784 8.46851 7.96875V2.34375C8.46851 1.56831 7.83769 0.9375 7.06226 0.9375Z" fill="#DDE1E6"/>
</svg>
