<svg width="18" height="18" viewBox="0 0 18 18" fill="none" xmlns="http://www.w3.org/2000/svg">
<g id="Food">
<rect id="Rectangle 4 Copy 11" width="18" height="18" fill="#F4F7FB" fill-opacity="0.01"/>
<g id="carrot">
<path id="Shape" d="M7.92337 11.636C7.80108 11.514 7.60308 11.514 7.48112 11.636C7.35883 11.7583 7.35883 11.9563 7.48112 12.0785C7.60308 12.2005 7.80108 12.2005 7.92337 12.0785C8.04533 11.9563 8.04533 11.7583 7.92337 11.636Z" fill="#0C49CD" stroke="#0C49CD" stroke-width="0.2"/>
<g id="Shape_2">
<path fill-rule="evenodd" clip-rule="evenodd" d="M15.8451 6.27032C15.4027 6.09973 14.8553 5.97119 14.2823 5.89929C14.7257 5.39288 15.0753 4.86285 15.286 4.37152C15.5905 3.66119 15.5748 3.08667 15.2421 2.75391C14.9093 2.4209 14.3347 2.40515 13.6243 2.70959C13.1328 2.92023 12.6028 3.2699 12.0962 3.71326C12.0243 3.14081 11.8956 2.59424 11.7251 2.15265C11.3572 1.20013 10.9089 1.00018 10.5975 1.00018C10.2649 1.00018 9.79016 1.22168 9.41797 2.27679C9.11218 3.1438 8.95764 4.36725 9.07117 5.52417C8.17297 5.38684 7.35144 5.69934 6.72156 6.42987C4.55493 8.94293 2.8988 11.234 1.93201 13.0554C0.961426 14.8844 0.747559 16.1073 1.29675 16.6902C1.30103 16.6948 1.30542 16.6992 1.30994 16.7034C2.11353 17.4604 3.96289 16.5892 4.94482 16.0681C6.76636 15.1013 9.05737 13.4451 11.5702 11.2786C12.3021 10.6477 12.6144 9.82458 12.4753 8.92468C13.6353 9.03827 14.8584 8.88153 15.7209 8.57782C16.7781 8.20569 17 7.73096 17 7.39819C17 7.08679 16.7997 6.63837 15.8451 6.27032ZM13.8706 3.28455C14.3033 3.09912 14.6678 3.06439 14.7996 3.19617C14.9312 3.32782 14.8964 3.69238 14.7109 4.12506C14.1952 5.32825 12.7535 6.71344 11.6256 7.13745C11.5144 7.00092 11.3933 6.86694 11.2637 6.73749C11.1322 6.60583 10.9962 6.48309 10.8579 6.37048C11.2816 5.24353 12.6654 3.80103 13.8706 3.28455ZM10.5975 1.62573C10.4104 1.62573 10.1727 1.98755 9.98328 2.56403C9.72852 3.33966 9.56091 4.50385 9.72119 5.69806C9.92737 5.77673 10.1318 5.87726 10.3333 5.99902C10.5701 5.44714 10.9858 4.83954 11.5209 4.26935C11.4773 3.57709 11.3409 2.89423 11.1415 2.37799C10.9117 1.7829 10.6852 1.62573 10.5975 1.62573ZM11.1617 10.8048C8.68372 12.9414 6.4325 14.5704 4.65161 15.5156C3.45984 16.1481 2.65967 16.3758 2.18787 16.3757C2.09021 16.3757 2.00659 16.366 1.93652 16.348C1.90369 16.3397 1.8739 16.3295 1.84705 16.3176C1.80688 16.3 1.77319 16.2788 1.74573 16.2545C1.50159 15.9791 1.56873 15.0744 2.48462 13.3487C3.42969 11.5679 5.05872 9.31659 7.19531 6.83838C8.22668 5.64215 9.70886 6.06561 10.8213 7.17987C11.9448 8.30145 12.3495 9.78101 11.1617 10.8048ZM12.3005 8.27466C13.4392 8.42682 14.672 8.284 15.5133 7.98785C16.1945 7.74792 16.3745 7.49725 16.3745 7.39825C16.3745 7.31067 16.2169 7.08411 15.6201 6.85406C15.1028 6.6546 14.4192 6.51813 13.7266 6.47461C13.1572 7.00916 12.5498 7.42487 11.9979 7.6618C12.0927 7.81787 12.1747 7.97589 12.2435 8.13501C12.2637 8.18146 12.2827 8.22803 12.3005 8.27466Z" fill="#0C49CD"/>
<path d="M14.2823 5.89929L14.2071 5.83342L14.0831 5.97507L14.2699 5.99851L14.2823 5.89929ZM15.8451 6.27032L15.8091 6.36363L15.8091 6.36363L15.8451 6.27032ZM15.286 4.37152L15.3779 4.41093L15.3779 4.41091L15.286 4.37152ZM15.2421 2.75391L15.1713 2.82459L15.1714 2.82462L15.2421 2.75391ZM13.6243 2.70959L13.5849 2.61768L13.5849 2.61768L13.6243 2.70959ZM12.0962 3.71326L11.997 3.72572L12.0204 3.91245L12.162 3.78851L12.0962 3.71326ZM11.7251 2.15265L11.8184 2.11662L11.8184 2.11662L11.7251 2.15265ZM9.41797 2.27679L9.32366 2.24353L9.32366 2.24353L9.41797 2.27679ZM9.07117 5.52417L9.05605 5.62302L9.18326 5.64247L9.17069 5.5144L9.07117 5.52417ZM6.72156 6.42987L6.64582 6.36457L6.64582 6.36457L6.72156 6.42987ZM1.93201 13.0554L1.84368 13.0085L1.84367 13.0085L1.93201 13.0554ZM1.29675 16.6902L1.36986 16.622L1.36954 16.6216L1.29675 16.6902ZM1.30994 16.7034L1.24122 16.7761L1.24137 16.7762L1.30994 16.7034ZM4.94482 16.0681L4.9917 16.1564L4.99171 16.1564L4.94482 16.0681ZM11.5702 11.2786L11.5049 11.2028L11.5049 11.2028L11.5702 11.2786ZM12.4753 8.92468L12.4851 8.82516L12.3568 8.8126L12.3765 8.93995L12.4753 8.92468ZM15.7209 8.57782L15.6877 8.48349L15.6877 8.4835L15.7209 8.57782ZM14.7996 3.19617L14.8703 3.12547L14.7996 3.19617ZM13.8706 3.28455L13.8312 3.19263L13.8312 3.19263L13.8706 3.28455ZM14.7109 4.12506L14.8028 4.16446L14.8029 4.16445L14.7109 4.12506ZM11.6256 7.13745L11.5481 7.2006L11.5935 7.25636L11.6608 7.23106L11.6256 7.13745ZM11.2637 6.73749L11.1929 6.80815L11.193 6.80825L11.2637 6.73749ZM10.8579 6.37048L10.7643 6.33529L10.739 6.40262L10.7948 6.44803L10.8579 6.37048ZM9.98328 2.56403L9.88828 2.5328L9.88827 2.53282L9.98328 2.56403ZM9.72119 5.69806L9.62208 5.71136L9.62999 5.77029L9.68554 5.79149L9.72119 5.69806ZM10.3333 5.99902L10.2815 6.0846L10.3798 6.14404L10.4251 6.03846L10.3333 5.99902ZM11.5209 4.26935L11.5938 4.33777L11.6234 4.30623L11.6207 4.26307L11.5209 4.26935ZM11.1415 2.37799L11.0482 2.41401L11.0482 2.41403L11.1415 2.37799ZM4.65161 15.5156L4.69849 15.6039H4.69849L4.65161 15.5156ZM11.1617 10.8048L11.0965 10.7291L11.0964 10.7291L11.1617 10.8048ZM2.18787 16.3757L2.18788 16.2757H2.18787V16.3757ZM1.93652 16.348L1.96133 16.2511L1.9612 16.2511L1.93652 16.348ZM1.84705 16.3176L1.88739 16.2261L1.88714 16.226L1.84705 16.3176ZM1.74573 16.2545L1.67036 16.3213L1.67938 16.3293L1.74573 16.2545ZM2.48462 13.3487L2.57295 13.3956L2.57295 13.3956L2.48462 13.3487ZM7.19531 6.83838L7.11958 6.77308L7.11957 6.77308L7.19531 6.83838ZM10.8213 7.17987L10.7505 7.25052L10.7506 7.25064L10.8213 7.17987ZM15.5133 7.98785L15.5465 8.08218L15.5465 8.08217L15.5133 7.98785ZM12.3005 8.27466L12.2071 8.31036L12.2284 8.3659L12.2873 8.37378L12.3005 8.27466ZM15.6201 6.85406L15.5841 6.94737L15.5842 6.94737L15.6201 6.85406ZM13.7266 6.47461L13.7328 6.37481L13.6897 6.37209L13.6581 6.40171L13.7266 6.47461ZM11.9979 7.6618L11.9585 7.56991L11.8527 7.61531L11.9124 7.71369L11.9979 7.6618ZM12.2435 8.13501L12.1518 8.17472L12.1518 8.17479L12.2435 8.13501ZM14.2699 5.99851C14.8368 6.06965 15.376 6.19659 15.8091 6.36363L15.8811 6.17702C15.4295 6.00287 14.8739 5.87273 14.2948 5.80007L14.2699 5.99851ZM15.1941 4.33211C14.9885 4.81152 14.6454 5.33279 14.2071 5.83342L14.3576 5.96516C14.806 5.45298 15.1621 4.91419 15.3779 4.41093L15.1941 4.33211ZM15.1714 2.82462C15.459 3.11221 15.494 3.63246 15.1941 4.33213L15.3779 4.41091C15.6869 3.68993 15.6907 3.06113 15.3128 2.6832L15.1714 2.82462ZM13.6637 2.80151C14.3634 2.50164 14.8837 2.53678 15.1713 2.82459L15.3128 2.68322C14.9349 2.30502 14.306 2.30866 13.5849 2.61768L13.6637 2.80151ZM12.162 3.78851C12.6629 3.35019 13.1841 3.00702 13.6637 2.80151L13.5849 2.61768C13.0815 2.83343 12.5427 3.1896 12.0303 3.63801L12.162 3.78851ZM11.6318 2.18867C11.7988 2.62104 11.9258 3.15938 11.997 3.72572L12.1954 3.70079C12.1227 3.12223 11.9925 2.56744 11.8184 2.11662L11.6318 2.18867ZM10.5975 1.10018C10.7297 1.10018 10.8964 1.14186 11.075 1.29511C11.2555 1.44999 11.4516 1.72206 11.6318 2.18868L11.8184 2.11662C11.6307 1.63073 11.4187 1.32656 11.2052 1.14334C10.9899 0.958481 10.7767 0.900183 10.5975 0.900183V1.10018ZM9.51227 2.31006C9.69504 1.79194 9.89934 1.48934 10.0897 1.31694C10.2779 1.14649 10.4558 1.10018 10.5975 1.10018V0.900183C10.4066 0.900183 10.1808 0.964625 9.95546 1.1687C9.73225 1.37083 9.51309 1.70653 9.32366 2.24353L9.51227 2.31006ZM9.17069 5.5144C9.05847 4.37079 9.21175 3.16214 9.51227 2.31006L9.32366 2.24353C9.01261 3.12546 8.85681 4.36371 8.97164 5.53394L9.17069 5.5144ZM6.79729 6.49517C7.406 5.7892 8.19384 5.49119 9.05605 5.62302L9.08628 5.42532C8.15211 5.28249 7.29688 5.60948 6.64582 6.36457L6.79729 6.49517ZM2.02034 13.1023C2.98218 11.2902 4.63298 9.00555 6.7973 6.49517L6.64582 6.36457C4.47688 8.88031 2.81543 11.1778 1.84368 13.0085L2.02034 13.1023ZM1.36954 16.6216C1.1263 16.3635 1.03923 15.9508 1.14297 15.3573C1.24649 14.7651 1.53713 14.0129 2.02034 13.1023L1.84367 13.0085C1.3563 13.927 1.05472 14.7007 0.945958 15.3229C0.83742 15.9438 0.918013 16.434 1.22397 16.7588L1.36954 16.6216ZM1.37866 16.6308C1.37549 16.6278 1.37257 16.6249 1.36986 16.622L1.22365 16.7584C1.22948 16.7647 1.23535 16.7705 1.24122 16.7761L1.37866 16.6308ZM4.89795 15.9798C4.40819 16.2397 3.70841 16.5834 3.03401 16.7686C2.69683 16.8613 2.37121 16.9128 2.08432 16.897C1.79814 16.8812 1.55718 16.799 1.37851 16.6306L1.24137 16.7762C1.46449 16.9864 1.75604 17.0792 2.07331 17.0967C2.38988 17.1141 2.73864 17.0572 3.08699 16.9615C3.78366 16.7701 4.49953 16.4176 4.9917 16.1564L4.89795 15.9798ZM11.5049 11.2028C8.99475 13.3671 6.71014 15.0179 4.89794 15.9798L4.99171 16.1564C6.82257 15.1847 9.11999 13.5232 11.6355 11.3543L11.5049 11.2028ZM12.3765 8.93995C12.51 9.80385 12.2122 10.5932 11.5049 11.2028L11.6355 11.3543C12.392 10.7022 12.7188 9.84532 12.5742 8.90941L12.3765 8.93995ZM15.6877 8.4835C14.84 8.78199 13.6316 8.93743 12.4851 8.82516L12.4656 9.02421C13.6389 9.1391 14.8768 8.98107 15.7542 8.67214L15.6877 8.4835ZM16.9 7.39819C16.9 7.53995 16.8536 7.71781 16.6828 7.90605C16.5101 8.09644 16.2069 8.30074 15.6877 8.48349L15.7542 8.67215C16.2921 8.48276 16.6284 8.26364 16.831 8.04044C17.0354 7.81509 17.1 7.5892 17.1 7.39819H16.9ZM15.8091 6.36363C16.2768 6.54394 16.5495 6.74015 16.7047 6.92069C16.8583 7.09932 16.9 7.26606 16.9 7.39819H17.1C17.1 7.21893 17.0416 7.00575 16.8563 6.79031C16.6728 6.57677 16.368 6.36475 15.8811 6.17702L15.8091 6.36363ZM14.8703 3.12547C14.771 3.02609 14.6063 3.00588 14.4385 3.02186C14.2635 3.03851 14.0539 3.09721 13.8312 3.19263L13.91 3.37646C14.1201 3.28645 14.309 3.23508 14.4574 3.22096C14.613 3.20615 14.6965 3.23446 14.7288 3.26686L14.8703 3.12547ZM14.8029 4.16445C14.8983 3.9418 14.957 3.73218 14.9737 3.55723C14.9897 3.38942 14.9696 3.22479 14.8703 3.12547L14.7288 3.26686C14.7612 3.29919 14.7894 3.38267 14.7746 3.53823C14.7604 3.68664 14.709 3.87564 14.619 4.08567L14.8029 4.16445ZM11.6608 7.23106C12.2421 7.01252 12.8959 6.55044 13.4675 5.99517C14.0394 5.43963 14.5382 4.78195 14.8028 4.16446L14.619 4.08566C14.368 4.67136 13.888 5.30787 13.3282 5.85172C12.768 6.39585 12.137 6.83837 11.5904 7.04385L11.6608 7.23106ZM11.193 6.80825C11.3203 6.93534 11.4391 7.06678 11.5481 7.2006L11.7031 7.0743C11.5897 6.93505 11.4663 6.79854 11.3343 6.66673L11.193 6.80825ZM10.7948 6.44803C10.9304 6.55845 11.0638 6.67889 11.1929 6.80815L11.3344 6.66683C11.2006 6.53278 11.062 6.40774 10.921 6.29294L10.7948 6.44803ZM13.8312 3.19263C13.2127 3.45769 12.5549 3.95685 11.9994 4.52893C11.4443 5.10072 10.9827 5.75447 10.7643 6.33529L10.9515 6.40568C11.1568 5.85954 11.599 5.22856 12.1429 4.66824C12.6867 4.10822 13.3233 3.62788 13.91 3.37646L13.8312 3.19263ZM10.0783 2.59525C10.1714 2.31181 10.2749 2.08613 10.3749 1.93351C10.425 1.85705 10.4719 1.80251 10.5132 1.76812C10.5554 1.73305 10.5832 1.72573 10.5975 1.72573V1.52573C10.5183 1.52573 10.4463 1.56364 10.3853 1.61442C10.3235 1.66589 10.264 1.73784 10.2076 1.82389C10.0947 1.9963 9.98458 2.23977 9.88828 2.5328L10.0783 2.59525ZM9.8203 5.68476C9.66217 4.50652 9.8279 3.35754 10.0783 2.59523L9.88827 2.53282C9.62913 3.32178 9.45966 4.50117 9.62208 5.71136L9.8203 5.68476ZM10.385 5.91345C10.1788 5.78879 9.96896 5.68557 9.75684 5.60463L9.68554 5.79149C9.88578 5.8679 10.0849 5.96573 10.2815 6.0846L10.385 5.91345ZM11.448 4.20092C10.9071 4.77731 10.4839 5.39447 10.2414 5.95959L10.4251 6.03846C10.6563 5.49982 11.0646 4.90176 11.5938 4.33777L11.448 4.20092ZM11.0482 2.41403C11.2432 2.9186 11.378 3.59099 11.4211 4.27563L11.6207 4.26307C11.5766 3.56318 11.4387 2.86985 11.2348 2.34195L11.0482 2.41403ZM10.5975 1.72573C10.5925 1.72573 10.604 1.72488 10.6329 1.74355C10.6599 1.76103 10.6965 1.79205 10.7399 1.84334C10.8269 1.94596 10.9359 2.12325 11.0482 2.41401L11.2348 2.34198C11.1173 2.03764 10.9982 1.8388 10.8925 1.71406C10.8397 1.65168 10.7888 1.60621 10.7415 1.57562C10.6961 1.54623 10.6464 1.52573 10.5975 1.52573V1.72573ZM4.69849 15.6039C6.48875 14.6537 8.74639 13.0194 11.227 10.8805L11.0964 10.7291C8.62104 12.8634 6.37624 14.487 4.60473 15.4272L4.69849 15.6039ZM2.18785 16.4757C2.68502 16.4758 3.50319 16.2383 4.69849 15.6039L4.60473 15.4272C3.41649 16.0579 2.63432 16.2758 2.18788 16.2757L2.18785 16.4757ZM1.91171 16.4449C1.9916 16.4654 2.08382 16.4757 2.18787 16.4757V16.2757C2.0966 16.2757 2.02158 16.2666 1.96133 16.2511L1.91171 16.4449ZM1.8067 16.4091C1.83913 16.4234 1.87422 16.4353 1.91185 16.4449L1.9612 16.2511C1.93316 16.244 1.90867 16.2355 1.88739 16.2261L1.8067 16.4091ZM1.67938 16.3293C1.71567 16.3615 1.75852 16.388 1.80695 16.4092L1.88714 16.226C1.85525 16.2121 1.83072 16.1962 1.81207 16.1796L1.67938 16.3293ZM2.39629 13.3018C1.93595 14.1692 1.68573 14.8359 1.58233 15.3247C1.53063 15.5691 1.51488 15.7725 1.5298 15.936C1.54462 16.0985 1.59061 16.2302 1.6709 16.3208L1.82056 16.1881C1.77877 16.141 1.7416 16.0563 1.72897 15.9178C1.71643 15.7804 1.72894 15.5981 1.778 15.3661C1.8761 14.9023 2.11739 14.2539 2.57295 13.3956L2.39629 13.3018ZM7.11957 6.77308C4.98072 9.25391 3.34633 11.5116 2.39629 13.3018L2.57295 13.3956C3.51304 11.6241 5.13671 9.37927 7.27105 6.90368L7.11957 6.77308ZM10.8921 7.10922C10.3261 6.54238 9.65896 6.14357 8.99272 6.0438C8.32056 5.94314 7.65789 6.14873 7.11958 6.77308L7.27105 6.90368C7.76411 6.3318 8.35821 6.15101 8.9631 6.24159C9.57389 6.33306 10.204 6.70311 10.7505 7.25052L10.8921 7.10922ZM11.227 10.8806C11.847 10.3462 12.0552 9.68624 11.9572 9.01456C11.86 8.34865 11.4635 7.6797 10.8919 7.1091L10.7506 7.25064C11.3026 7.80162 11.6702 8.43324 11.7593 9.04345C11.8475 9.6479 11.6642 10.2396 11.0965 10.7291L11.227 10.8806ZM15.4801 7.89353C14.6545 8.18414 13.4377 8.32573 12.3138 8.17554L12.2873 8.37378C13.4407 8.52791 14.6895 8.38385 15.5465 8.08218L15.4801 7.89353ZM16.2745 7.39825C16.2745 7.39549 16.2744 7.41023 16.2526 7.44283C16.232 7.47364 16.1958 7.51454 16.1365 7.56238C16.0179 7.6581 15.8138 7.77599 15.4801 7.89353L15.5465 8.08217C15.894 7.95979 16.1204 7.83238 16.2621 7.71803C16.333 7.66083 16.3844 7.60551 16.4189 7.55398C16.4521 7.50424 16.4745 7.45052 16.4745 7.39825H16.2745ZM15.5842 6.94737C15.8758 7.05979 16.0536 7.16896 16.1566 7.25596C16.208 7.29945 16.2391 7.33602 16.2567 7.36305C16.2754 7.39193 16.2745 7.40335 16.2745 7.39825H16.4745C16.4745 7.34937 16.4539 7.29962 16.4245 7.2542C16.3938 7.20693 16.3482 7.15606 16.2857 7.1032C16.1606 6.99752 15.9613 6.87839 15.6561 6.76076L15.5842 6.94737ZM13.7203 6.57441C14.4053 6.61745 15.0784 6.75239 15.5841 6.94737L15.6561 6.76076C15.1271 6.55682 14.4331 6.4188 13.7328 6.37481L13.7203 6.57441ZM12.0374 7.75369C12.6025 7.51108 13.2195 7.0879 13.795 6.54751L13.6581 6.40171C13.095 6.93041 12.4971 7.33865 11.9585 7.56991L12.0374 7.75369ZM12.3353 8.0953C12.2645 7.93176 12.1804 7.76968 12.0834 7.60992L11.9124 7.71369C12.0049 7.86606 12.0848 8.02002 12.1518 8.17472L12.3353 8.0953ZM12.3939 8.23896C12.3756 8.19088 12.356 8.14295 12.3353 8.09523L12.1518 8.17479C12.1714 8.21997 12.1899 8.26518 12.2071 8.31036L12.3939 8.23896Z" fill="#0C49CD"/>
</g>
<path id="Shape_3" d="M9.74621 8.24922L8.86168 7.36469C8.73955 7.24263 8.54149 7.2426 8.41936 7.36469C8.29724 7.48682 8.29721 7.68488 8.41936 7.80703L9.3039 8.69157C9.42605 8.81366 9.62408 8.81369 9.74621 8.69157C9.86833 8.56944 9.86836 8.37138 9.74621 8.24922Z" fill="#0C49CD" stroke="#0C49CD" stroke-width="0.2"/>
<path id="Shape_4" d="M9.30394 10.4608L8.41944 9.57631C8.29731 9.45422 8.09925 9.45422 7.97709 9.57631C7.85497 9.69844 7.85497 9.8965 7.97709 10.0187L8.86162 10.9032C8.98378 11.0253 9.18181 11.0253 9.30397 10.9032C9.42609 10.7811 9.42609 10.583 9.30394 10.4608Z" fill="#0C49CD" stroke="#0C49CD" stroke-width="0.2"/>
<path id="Shape_5" d="M7.09242 10.9031L6.20789 10.0186C6.08576 9.89648 5.8877 9.89648 5.76554 10.0186C5.64342 10.1407 5.64342 10.3388 5.76554 10.4609L6.65008 11.3454C6.77223 11.4676 6.97026 11.4676 7.09242 11.3454C7.21454 11.2233 7.21454 11.0253 7.09242 10.9031Z" fill="#0C49CD" stroke="#0C49CD" stroke-width="0.2"/>
<path id="Shape_6" d="M6.65004 13.1147L5.7652 12.2302C5.64307 12.1081 5.44501 12.1081 5.32289 12.2302C5.20076 12.3524 5.20082 12.5504 5.32295 12.6726L6.20779 13.5571C6.32992 13.6792 6.52798 13.6792 6.6501 13.557C6.77223 13.4349 6.77217 13.2368 6.65004 13.1147Z" fill="#0C49CD" stroke="#0C49CD" stroke-width="0.2"/>
<path id="Shape_7" d="M4.88082 13.9995L3.99597 13.1147C3.87385 12.9926 3.67579 12.9926 3.55363 13.1147C3.4315 13.2368 3.4315 13.4349 3.55363 13.557L4.43847 14.4419C4.56063 14.564 4.75866 14.564 4.88082 14.4419C5.00294 14.3198 5.00294 14.1217 4.88082 13.9995Z" fill="#0C49CD" stroke="#0C49CD" stroke-width="0.2"/>
</g>
</g>
</svg>
