<svg width="18" height="18" viewBox="0 0 18 18" fill="none" xmlns="http://www.w3.org/2000/svg">
<g id="Food White">
<rect id="Rectangle 4 Copy 11" width="18" height="18" fill="#F4F7FB" fill-opacity="0.01"/>
<g id="carrot">
<path id="Shape" d="M7.92337 11.636C7.80108 11.514 7.60308 11.514 7.48112 11.636C7.35883 11.7583 7.35883 11.9563 7.48112 12.0785C7.60308 12.2005 7.80108 12.2005 7.92337 12.0785C8.04533 11.9563 8.04533 11.7583 7.92337 11.636Z" fill="white" stroke="white" stroke-width="0.2"/>
<g id="Shape_2">
<path fill-rule="evenodd" clip-rule="evenodd" d="M15.8452 6.27032C15.4026 6.09973 14.8552 5.97119 14.2825 5.89929C14.7256 5.39288 15.0752 4.86285 15.2859 4.37152C15.5903 3.66119 15.5747 3.08667 15.2419 2.75391C14.9092 2.4209 14.3347 2.40515 13.6243 2.70959C13.1328 2.92023 12.6028 3.2699 12.0962 3.71326C12.0242 3.14081 11.8958 2.59424 11.7251 2.15265C11.3572 1.20013 10.9089 1.00018 10.5977 1.00018C10.2649 1.00018 9.79004 1.22168 9.41797 2.27679C9.11206 3.1438 8.95776 4.36725 9.07129 5.52417C8.17285 5.38684 7.35132 5.69934 6.72168 6.42987C4.55493 8.94293 2.89868 11.234 1.93213 13.0554C0.961426 14.8844 0.747559 16.1073 1.29663 16.6902L1.30981 16.7034C2.11353 17.4604 3.96289 16.5892 4.94482 16.0681C6.76636 15.1013 9.05737 13.4451 11.5703 11.2786C12.302 10.6477 12.6145 9.82458 12.4753 8.92468C13.6353 9.03827 14.8584 8.88153 15.7209 8.57782C16.7781 8.20569 17 7.73096 17 7.39819C17 7.08679 16.7996 6.63837 15.8452 6.27032ZM13.8706 3.28455C14.3032 3.09912 14.668 3.06439 14.7996 3.19617C14.9312 3.32782 14.8965 3.69238 14.7109 4.12506C14.1953 5.32825 12.7537 6.71344 11.6257 7.13745C11.5144 7.00092 11.3933 6.86694 11.2637 6.73749C11.1321 6.60583 10.9963 6.48309 10.8579 6.37048C11.2815 5.24353 12.6655 3.80103 13.8706 3.28455ZM10.5977 1.62573C10.4106 1.62573 10.1729 1.98755 9.9834 2.56403C9.72852 3.33966 9.56104 4.50385 9.72144 5.69806C9.78979 5.72418 9.85791 5.75275 9.92603 5.78369C9.9751 5.80597 10.0242 5.82947 10.073 5.85425C10.1602 5.89856 10.2471 5.94684 10.3333 5.99902C10.5701 5.44714 10.9861 4.83954 11.521 4.26935C11.4775 3.57709 11.3411 2.89423 11.1416 2.37799C10.9119 1.7829 10.6853 1.62573 10.5977 1.62573ZM11.1619 10.8048C8.68384 12.9414 6.43262 14.5704 4.65161 15.5156C3.45996 16.1481 2.65991 16.3758 2.18799 16.3757C2.13623 16.3757 2.08838 16.373 2.04443 16.3677L1.99756 16.361C1.88574 16.3418 1.80249 16.3047 1.74585 16.2545C1.50171 15.9791 1.56885 15.0744 2.48462 13.3487C3.42993 11.5679 5.05884 9.31659 7.19556 6.83838C8.22681 5.64215 9.70898 6.06561 10.8215 7.17987C11.9451 8.30145 12.3496 9.78101 11.1619 10.8048ZM12.3003 8.27466C13.4392 8.42682 14.6719 8.284 15.5132 7.98785C16.1943 7.74792 16.3743 7.49725 16.3745 7.39825C16.3745 7.31067 16.2168 7.08411 15.6201 6.85406C15.3811 6.7619 15.1064 6.68317 14.8118 6.62085C14.469 6.54834 14.0989 6.49805 13.7266 6.47461C13.157 7.00916 12.5498 7.42487 11.9978 7.6618C12.1204 7.86346 12.2214 8.0683 12.3003 8.27466Z" fill="white"/>
<path d="M14.2825 5.89929L14.2072 5.83344L14.0833 5.97507L14.27 5.99851L14.2825 5.89929ZM15.8452 6.27032L15.8812 6.17702L15.8812 6.17701L15.8452 6.27032ZM15.2859 4.37152L15.3778 4.41093L15.3778 4.41091L15.2859 4.37152ZM15.2419 2.75391L15.1712 2.82459L15.1712 2.82462L15.2419 2.75391ZM13.6243 2.70959L13.5849 2.61768L13.5849 2.61768L13.6243 2.70959ZM12.0962 3.71326L11.997 3.72574L12.0205 3.91242L12.162 3.78851L12.0962 3.71326ZM11.7251 2.15265L11.6318 2.18868L11.6318 2.1887L11.7251 2.15265ZM9.41797 2.27679L9.51227 2.31007L9.51228 2.31005L9.41797 2.27679ZM9.07129 5.52417L9.05618 5.62302L9.18338 5.64246L9.17081 5.5144L9.07129 5.52417ZM6.72168 6.42987L6.79742 6.49517L6.79743 6.49516L6.72168 6.42987ZM1.93213 13.0554L2.02046 13.1023L2.02046 13.1023L1.93213 13.0554ZM1.29663 16.6902L1.22381 16.7588L1.22576 16.7607L1.29663 16.6902ZM1.30981 16.7034L1.2389 16.774L1.24125 16.7762L1.30981 16.7034ZM4.94482 16.0681L4.9917 16.1564L4.99171 16.1564L4.94482 16.0681ZM11.5703 11.2786L11.6356 11.3543L11.6356 11.3543L11.5703 11.2786ZM12.4753 8.92468L12.4851 8.82516L12.3568 8.8126L12.3765 8.93996L12.4753 8.92468ZM15.7209 8.57782L15.6877 8.48349L15.6877 8.4835L15.7209 8.57782ZM14.7996 3.19617L14.7288 3.26683L14.7288 3.26686L14.7996 3.19617ZM13.8706 3.28455L13.91 3.37646L13.91 3.37646L13.8706 3.28455ZM14.7109 4.12506L14.619 4.08565L14.619 4.08567L14.7109 4.12506ZM11.6257 7.13745L11.5482 7.20064L11.5936 7.25635L11.6609 7.23106L11.6257 7.13745ZM11.2637 6.73749L11.1929 6.80818L11.193 6.80825L11.2637 6.73749ZM10.8579 6.37048L10.7643 6.3353L10.739 6.40265L10.7948 6.44806L10.8579 6.37048ZM9.9834 2.56403L9.8884 2.5328L9.8884 2.53281L9.9834 2.56403ZM9.72144 5.69806L9.62233 5.71137L9.63024 5.77026L9.68574 5.79147L9.72144 5.69806ZM9.92603 5.78369L9.88466 5.87474L9.88469 5.87475L9.92603 5.78369ZM10.073 5.85425L10.1183 5.76511L10.1183 5.76507L10.073 5.85425ZM10.3333 5.99902L10.2815 6.08456L10.3798 6.14412L10.4251 6.03846L10.3333 5.99902ZM11.521 4.26935L11.5939 4.33777L11.6235 4.30623L11.6208 4.26308L11.521 4.26935ZM11.1416 2.37799L11.0483 2.41401L11.0483 2.41403L11.1416 2.37799ZM4.65161 15.5156L4.60473 15.4272L4.60473 15.4272L4.65161 15.5156ZM11.1619 10.8048L11.0966 10.7291L11.0966 10.7291L11.1619 10.8048ZM2.18799 16.3757L2.188 16.2757H2.18799V16.3757ZM2.04443 16.3677L2.03012 16.4667L2.03257 16.467L2.04443 16.3677ZM1.99756 16.361L1.98066 16.4596L1.98325 16.4599L1.99756 16.361ZM1.74585 16.2545L1.67048 16.3213L1.67945 16.3292L1.74585 16.2545ZM2.48462 13.3487L2.39629 13.3018L2.39629 13.3018L2.48462 13.3487ZM7.19556 6.83838L7.27129 6.90368L7.2713 6.90367L7.19556 6.83838ZM10.8215 7.17987L10.7508 7.25053L10.7509 7.25064L10.8215 7.17987ZM15.5132 7.98785L15.5464 8.08218L15.5464 8.08217L15.5132 7.98785ZM12.3003 8.27466L12.2069 8.31035L12.2281 8.3659L12.2871 8.37378L12.3003 8.27466ZM16.3745 7.39825L16.4745 7.3985V7.39825H16.3745ZM15.6201 6.85406L15.5841 6.94737L15.5841 6.94737L15.6201 6.85406ZM14.8118 6.62085L14.7911 6.71868L14.7911 6.71869L14.8118 6.62085ZM13.7266 6.47461L13.7328 6.37481L13.6897 6.37209L13.6581 6.40169L13.7266 6.47461ZM11.9978 7.6618L11.9584 7.56991L11.8525 7.61533L11.9123 7.71374L11.9978 7.6618ZM14.27 5.99851C14.8367 6.06965 15.3758 6.19659 15.8093 6.36363L15.8812 6.17701C15.4293 6.00287 14.8738 5.87273 14.2949 5.80007L14.27 5.99851ZM15.194 4.33211C14.9884 4.81152 14.6453 5.3328 14.2072 5.83344L14.3577 5.96514C14.8059 5.45297 15.162 4.91418 15.3778 4.41093L15.194 4.33211ZM15.1712 2.82462C15.4588 3.11221 15.4939 3.63246 15.194 4.33213L15.3778 4.41091C15.6868 3.68993 15.6906 3.06113 15.3127 2.6832L15.1712 2.82462ZM13.6637 2.80151C14.3634 2.50164 14.8836 2.53678 15.1712 2.82459L15.3127 2.68322C14.9348 2.30502 14.306 2.30866 13.5849 2.61768L13.6637 2.80151ZM12.162 3.78851C12.6629 3.35019 13.1841 3.00702 13.6637 2.80151L13.5849 2.61768C13.0815 2.83343 12.5427 3.1896 12.0303 3.63801L12.162 3.78851ZM11.6318 2.1887C11.7989 2.62102 11.9257 3.15935 11.997 3.72574L12.1954 3.70077C12.1226 3.12226 11.9926 2.56745 11.8184 2.1166L11.6318 2.1887ZM10.5977 1.10018C10.7298 1.10018 10.8965 1.14186 11.075 1.29511C11.2555 1.44999 11.4516 1.72206 11.6318 2.18868L11.8184 2.11662C11.6307 1.63072 11.4187 1.32656 11.2053 1.14334C10.9899 0.958486 10.7768 0.900183 10.5977 0.900183V1.10018ZM9.51228 2.31005C9.69498 1.79194 9.89928 1.48934 10.0897 1.31695C10.2779 1.1465 10.4558 1.10018 10.5977 1.10018V0.900183C10.4067 0.900183 10.1808 0.964618 9.95543 1.16869C9.73219 1.37083 9.51303 1.70654 9.32366 2.24354L9.51228 2.31005ZM9.17081 5.5144C9.05859 4.37078 9.21163 3.16213 9.51227 2.31007L9.32367 2.24352C9.01249 3.12547 8.85694 4.36372 8.97177 5.53394L9.17081 5.5144ZM6.79743 6.49516C7.40588 5.78921 8.19371 5.49119 9.05618 5.62302L9.0864 5.42532C8.152 5.28249 7.29676 5.60947 6.64593 6.36458L6.79743 6.49516ZM2.02046 13.1023C2.98206 11.2902 4.63298 9.00556 6.79742 6.49517L6.64594 6.36457C4.47689 8.88031 2.8153 11.1778 1.8438 13.0085L2.02046 13.1023ZM1.36942 16.6216C1.12624 16.3635 1.0392 15.9508 1.14297 15.3573C1.24652 14.7651 1.53719 14.0129 2.02046 13.1023L1.8438 13.0085C1.35637 13.927 1.05475 14.7007 0.945959 15.3229C0.83739 15.9438 0.91795 16.434 1.22384 16.7588L1.36942 16.6216ZM1.38069 16.6329L1.3675 16.6196L1.22576 16.7607L1.23894 16.774L1.38069 16.6329ZM4.89795 15.9798C4.40819 16.2397 3.70841 16.5834 3.034 16.7686C2.69681 16.8613 2.37117 16.9128 2.08427 16.897C1.79807 16.8812 1.55708 16.799 1.37838 16.6306L1.24125 16.7762C1.4644 16.9864 1.75598 17.0792 2.07326 17.0967C2.38984 17.1141 2.73861 17.0572 3.08697 16.9615C3.78366 16.7701 4.49953 16.4176 4.9917 16.1564L4.89795 15.9798ZM11.505 11.2028C8.99475 13.3671 6.71014 15.0179 4.89794 15.9798L4.99171 16.1564C6.82257 15.1847 9.11999 13.5232 11.6356 11.3543L11.505 11.2028ZM12.3765 8.93996C12.5101 9.80383 12.2121 10.5932 11.505 11.2028L11.6356 11.3543C12.3919 10.7022 12.7189 9.84534 12.5742 8.9094L12.3765 8.93996ZM15.6877 8.4835C14.84 8.78199 13.6316 8.93743 12.4851 8.82516L12.4656 9.02421C13.6389 9.1391 14.8768 8.98107 15.7542 8.67214L15.6877 8.4835ZM16.9 7.39819C16.9 7.53995 16.8536 7.71781 16.6828 7.90605C16.5101 8.09644 16.2069 8.30074 15.6877 8.48349L15.7542 8.67215C16.2921 8.48276 16.6284 8.26364 16.831 8.04044C17.0354 7.81509 17.1 7.5892 17.1 7.39819H16.9ZM15.8092 6.36363C16.2768 6.54394 16.5494 6.74015 16.7047 6.92069C16.8582 7.09933 16.9 7.26607 16.9 7.39819H17.1C17.1 7.21892 17.0415 7.00574 16.8563 6.79031C16.6727 6.57678 16.368 6.36475 15.8812 6.17702L15.8092 6.36363ZM14.8703 3.12551C14.771 3.02608 14.6063 3.00589 14.4385 3.02186C14.2635 3.03851 14.0538 3.09721 13.8312 3.19263L13.91 3.37646C14.12 3.28646 14.309 3.23508 14.4574 3.22096C14.613 3.20615 14.6965 3.23448 14.7288 3.26683L14.8703 3.12551ZM14.8028 4.16447C14.8983 3.94181 14.957 3.73218 14.9737 3.55722C14.9897 3.3894 14.9696 3.22478 14.8703 3.12547L14.7288 3.26686C14.7612 3.2992 14.7895 3.3827 14.7746 3.53824C14.7605 3.68664 14.7091 3.87563 14.619 4.08565L14.8028 4.16447ZM11.6609 7.23106C12.2423 7.01252 12.896 6.55044 13.4676 5.99517C14.0395 5.43963 14.5382 4.78194 14.8029 4.16445L14.619 4.08567C14.368 4.67136 13.8881 5.30787 13.3283 5.85172C12.7681 6.39585 12.1371 6.83837 11.5905 7.04385L11.6609 7.23106ZM11.193 6.80825C11.3203 6.93534 11.4391 7.06679 11.5482 7.20064L11.7032 7.07426C11.5897 6.93504 11.4663 6.79855 11.3343 6.66673L11.193 6.80825ZM10.7948 6.44806C10.9305 6.55842 11.0637 6.67886 11.1929 6.80818L11.3344 6.66679C11.2005 6.53281 11.0622 6.40776 10.921 6.29291L10.7948 6.44806ZM13.8312 3.19263C13.2128 3.45769 12.5549 3.95684 11.9995 4.52893C11.4443 5.10072 10.9826 5.75447 10.7643 6.3353L10.9515 6.40567C11.1568 5.85954 11.5989 5.22857 12.1429 4.66825C12.6867 4.10822 13.3234 3.62788 13.91 3.37646L13.8312 3.19263ZM10.0784 2.59525C10.1715 2.31182 10.2751 2.08614 10.3751 1.93351C10.4252 1.85705 10.4721 1.80251 10.5134 1.76812C10.5555 1.73304 10.5834 1.72573 10.5977 1.72573V1.52573C10.5184 1.52573 10.4464 1.56365 10.3854 1.61443C10.3236 1.66589 10.2642 1.73784 10.2078 1.82389C10.0948 1.99629 9.9847 2.23976 9.8884 2.5328L10.0784 2.59525ZM9.82055 5.68475C9.66229 4.50651 9.8279 3.35754 10.0784 2.59524L9.8884 2.53281C9.62913 3.32178 9.45978 4.50118 9.62233 5.71137L9.82055 5.68475ZM9.96739 5.69265C9.89751 5.6609 9.82751 5.63154 9.75713 5.60465L9.68574 5.79147C9.75208 5.81682 9.81831 5.84459 9.88466 5.87474L9.96739 5.69265ZM10.1183 5.76507C10.0681 5.7396 10.0177 5.71548 9.96736 5.69264L9.88469 5.87475C9.93251 5.89646 9.98027 5.91933 10.0277 5.94342L10.1183 5.76507ZM10.385 5.91348C10.2968 5.86002 10.2077 5.81054 10.1183 5.76511L10.0277 5.94339C10.1126 5.98658 10.1974 6.03365 10.2815 6.08456L10.385 5.91348ZM11.4481 4.20093C10.9074 4.7773 10.4839 5.39446 10.2414 5.95959L10.4251 6.03846C10.6563 5.49983 11.0648 4.90178 11.5939 4.33777L11.4481 4.20093ZM11.0483 2.41403C11.2433 2.91861 11.3782 3.591 11.4212 4.27561L11.6208 4.26308C11.5769 3.56318 11.4388 2.86984 11.2349 2.34195L11.0483 2.41403ZM10.5977 1.72573C10.5927 1.72573 10.6041 1.72488 10.633 1.74355C10.66 1.76103 10.6966 1.79205 10.74 1.84334C10.827 1.94596 10.9361 2.12325 11.0483 2.41401L11.2349 2.34198C11.1174 2.03764 10.9983 1.8388 10.8926 1.71406C10.8398 1.65168 10.7889 1.60621 10.7416 1.57562C10.6962 1.54623 10.6465 1.52573 10.5977 1.52573V1.72573ZM4.69849 15.6039C6.48887 14.6537 8.74652 13.0194 11.2272 10.8805L11.0966 10.7291C8.62116 12.8634 6.37636 14.487 4.60473 15.4272L4.69849 15.6039ZM2.18798 16.4757C2.68526 16.4758 3.50331 16.2383 4.69849 15.6039L4.60473 15.4272C3.41661 16.0579 2.63456 16.2758 2.188 16.2757L2.18798 16.4757ZM2.03257 16.467C2.08089 16.4728 2.13273 16.4757 2.18799 16.4757V16.2757C2.13973 16.2757 2.09587 16.2732 2.05629 16.2684L2.03257 16.467ZM1.98325 16.4599L2.03013 16.4667L2.05874 16.2688L2.01186 16.262L1.98325 16.4599ZM1.67945 16.3292C1.75418 16.3956 1.85677 16.4383 1.98067 16.4595L2.01445 16.2624C1.91471 16.2453 1.8508 16.2139 1.81225 16.1797L1.67945 16.3292ZM2.39629 13.3018C1.93601 14.1692 1.68582 14.8359 1.58243 15.3248C1.53074 15.5691 1.515 15.7725 1.52992 15.936C1.54474 16.0985 1.59074 16.2302 1.67102 16.3208L1.82068 16.1881C1.77889 16.141 1.74172 16.0563 1.72909 15.9178C1.71655 15.7804 1.72905 15.5981 1.7781 15.3661C1.8762 14.9023 2.11745 14.2539 2.57295 13.3956L2.39629 13.3018ZM7.11982 6.77308C4.98084 9.25391 3.34658 11.5116 2.39629 13.3018L2.57295 13.3956C3.51329 11.6241 5.13684 9.37926 7.27129 6.90368L7.11982 6.77308ZM10.8923 7.10921C10.3263 6.54237 9.65911 6.14357 8.99287 6.0438C8.32072 5.94314 7.65807 6.14873 7.11982 6.77308L7.2713 6.90367C7.7643 6.3318 8.35836 6.15101 8.96325 6.24159C9.57404 6.33306 10.2042 6.70311 10.7508 7.25053L10.8923 7.10921ZM11.2272 10.8806C11.8471 10.3462 12.0554 9.68624 11.9574 9.01457C11.8602 8.34866 11.4638 7.67971 10.8922 7.1091L10.7509 7.25064C11.3028 7.80162 11.6704 8.43324 11.7595 9.04345C11.8477 9.64789 11.6644 10.2396 11.0966 10.7291L11.2272 10.8806ZM15.48 7.89353C14.6544 8.18414 13.4377 8.32573 12.3135 8.17554L12.2871 8.37378C13.4407 8.52791 14.6894 8.38385 15.5464 8.08218L15.48 7.89353ZM16.2745 7.39801C16.2745 7.39536 16.2743 7.41019 16.2525 7.4428C16.2319 7.47363 16.1957 7.51454 16.1364 7.56238C16.0178 7.6581 15.8137 7.77599 15.48 7.89353L15.5464 8.08217C15.8939 7.95979 16.1203 7.83238 16.262 7.71803C16.3329 7.66083 16.3843 7.60552 16.4187 7.55401C16.452 7.50428 16.4744 7.45064 16.4745 7.3985L16.2745 7.39801ZM15.5841 6.94737C15.8757 7.05978 16.0536 7.16896 16.1565 7.25596C16.208 7.29945 16.2391 7.33603 16.2567 7.36306C16.2754 7.39195 16.2745 7.40337 16.2745 7.39825H16.4745C16.4745 7.34935 16.4539 7.2996 16.4244 7.25419C16.3938 7.20692 16.3482 7.15605 16.2856 7.1032C16.1605 6.99752 15.9612 6.87839 15.6561 6.76076L15.5841 6.94737ZM14.7911 6.71869C15.0816 6.78013 15.351 6.85748 15.5841 6.94737L15.6561 6.76076C15.4112 6.66633 15.1313 6.58621 14.8325 6.52301L14.7911 6.71869ZM13.7203 6.57441C14.0879 6.59756 14.4532 6.64722 14.7911 6.71868L14.8325 6.52301C14.4848 6.44946 14.1098 6.39854 13.7328 6.37481L13.7203 6.57441ZM12.0372 7.7537C12.6025 7.51107 13.2192 7.08789 13.795 6.54753L13.6581 6.40169C13.0947 6.93042 12.4971 7.33866 11.9584 7.56991L12.0372 7.7537ZM12.3937 8.23896C12.3126 8.0266 12.2087 7.81635 12.0833 7.60987L11.9123 7.71374C12.032 7.91058 12.1303 8.11 12.2069 8.31035L12.3937 8.23896Z" fill="white"/>
</g>
<path id="Shape_3" d="M9.74633 8.24922L8.8618 7.36469C8.73967 7.24263 8.54161 7.2426 8.41949 7.36469C8.29736 7.48682 8.29733 7.68488 8.41949 7.80703L9.30402 8.69157C9.42617 8.81366 9.6242 8.81369 9.74633 8.69157C9.86846 8.56944 9.86849 8.37138 9.74633 8.24922Z" fill="white" stroke="white" stroke-width="0.2"/>
<path id="Shape_4" d="M9.30394 10.4608L8.41944 9.57631C8.29731 9.45422 8.09925 9.45422 7.97709 9.57631C7.85497 9.69844 7.85497 9.8965 7.97709 10.0187L8.86162 10.9032C8.98378 11.0253 9.18181 11.0253 9.30397 10.9032C9.42609 10.7811 9.42609 10.583 9.30394 10.4608Z" fill="white" stroke="white" stroke-width="0.2"/>
<path id="Shape_5" d="M7.0923 10.9031L6.20777 10.0186C6.08564 9.89648 5.88758 9.89648 5.76542 10.0186C5.6433 10.1407 5.6433 10.3388 5.76542 10.4609L6.64995 11.3454C6.77211 11.4676 6.97014 11.4676 7.0923 11.3454C7.21442 11.2233 7.21442 11.0253 7.0923 10.9031Z" fill="white" stroke="white" stroke-width="0.2"/>
<path id="Shape_6" d="M6.65016 13.1147L5.76532 12.2302C5.6432 12.1081 5.44513 12.1081 5.32301 12.2302C5.20088 12.3524 5.20095 12.5504 5.32307 12.6726L6.20791 13.5571C6.33004 13.6792 6.5281 13.6792 6.65023 13.557C6.77235 13.4349 6.77229 13.2368 6.65016 13.1147Z" fill="white" stroke="white" stroke-width="0.2"/>
<path id="Shape_7" d="M4.8807 13.9995L3.99585 13.1147C3.87373 12.9926 3.67566 12.9926 3.55351 13.1147C3.43138 13.2368 3.43138 13.4349 3.55351 13.557L4.43835 14.4419C4.56051 14.564 4.75854 14.564 4.8807 14.4419C5.00282 14.3198 5.00282 14.1217 4.8807 13.9995Z" fill="white" stroke="white" stroke-width="0.2"/>
</g>
</g>
</svg>
