<svg width="18" height="18" viewBox="0 0 18 18" fill="none" xmlns="http://www.w3.org/2000/svg">
<g id="Games">
<rect id="Rectangle 4 Copy" width="18" height="18" fill="#F4F7FB" fill-opacity="0.01"/>
<g id="pacman copy 2">
<g id="Shape">
<path fill-rule="evenodd" clip-rule="evenodd" d="M9.49207 8.98438L14.6777 14.1599C14.8079 14.2899 14.8079 14.5005 14.6777 14.6304C13.1807 16.1327 11.1436 16.9747 9.02063 16.9688C4.60242 16.9686 1.02087 13.3938 1.021 8.98413C1.02112 4.57446 4.60303 0.999878 9.02124 1C11.1428 1.00012 13.1775 1.84119 14.6777 3.33838C14.8079 3.46838 14.8079 3.67896 14.6777 3.80884L9.49207 8.98438ZM1.68787 8.98486C1.68811 13.0271 4.97156 16.3037 9.02173 16.3035C10.8511 16.3033 12.6143 15.6207 13.9653 14.3899L8.78503 9.2196C8.65491 9.0896 8.65491 8.87903 8.78503 8.74915L13.9653 3.57898C12.6168 2.34338 10.8513 1.66016 9.02063 1.66528C4.97058 1.66565 1.68762 4.94263 1.68787 8.98486Z" fill="#0C49CD"/>
<path d="M14.6777 14.1599L14.7484 14.0892L14.7484 14.0891L14.6777 14.1599ZM9.49207 8.98438L9.42142 8.9136L9.35051 8.98438L9.42142 9.05515L9.49207 8.98438ZM14.6777 14.6304L14.6071 14.5596L14.6069 14.5598L14.6777 14.6304ZM9.02063 16.9688L9.02091 16.8687H9.02063L9.02063 16.9688ZM9.02124 1L9.02125 0.9H9.02124L9.02124 1ZM14.6777 3.33838L14.7484 3.26764L14.7484 3.2676L14.6777 3.33838ZM14.6777 3.80884L14.7484 3.87962L14.7484 3.87961L14.6777 3.80884ZM9.02173 16.3035L9.02173 16.4035H9.02174L9.02173 16.3035ZM13.9653 14.3899L14.0327 14.4638L14.1102 14.3932L14.036 14.3191L13.9653 14.3899ZM8.78503 9.2196L8.71436 9.29035L8.71439 9.29038L8.78503 9.2196ZM8.78503 8.74915L8.71439 8.67837L8.71439 8.67837L8.78503 8.74915ZM13.9653 3.57898L14.036 3.64976L14.11 3.57589L14.0329 3.50525L13.9653 3.57898ZM9.02063 1.66528L9.02064 1.76528L9.02091 1.76528L9.02063 1.66528ZM14.7484 14.0891L9.56271 8.9136L9.42142 9.05515L14.6071 14.2307L14.7484 14.0891ZM14.7484 14.7011C14.9177 14.5322 14.9176 14.2582 14.7484 14.0892L14.6071 14.2307C14.6981 14.3216 14.6981 14.4688 14.6071 14.5596L14.7484 14.7011ZM9.02035 17.0688C11.1699 17.0748 13.2326 16.2222 14.7486 14.701L14.6069 14.5598C13.1287 16.0432 11.1172 16.8747 9.02091 16.8688L9.02035 17.0688ZM0.920996 8.98413C0.920872 13.4492 4.54737 17.0686 9.02063 17.0688L9.02063 16.8687C4.65747 16.8686 1.12088 13.3384 1.121 8.98413L0.920996 8.98413ZM9.02124 0.9C4.54799 0.899876 0.92112 4.51905 0.920996 8.98413L1.121 8.98413C1.12112 4.62988 4.65807 1.09988 9.02124 1.1L9.02124 0.9ZM14.7484 3.2676C13.2294 1.75167 11.1693 0.900124 9.02125 0.9L9.02123 1.1C11.1164 1.10012 13.1256 1.9307 14.6071 3.40916L14.7484 3.2676ZM14.7484 3.87961C14.9177 3.71065 14.9176 3.43668 14.7484 3.26764L14.6071 3.40912C14.6981 3.50009 14.6981 3.64726 14.6071 3.73806L14.7484 3.87961ZM9.56271 9.05515L14.7484 3.87962L14.6071 3.73806L9.42142 8.9136L9.56271 9.05515ZM9.02172 16.2035C5.0266 16.2037 1.78811 12.9717 1.78787 8.98486L1.58787 8.98487C1.58811 13.0825 4.91652 16.4037 9.02173 16.4035L9.02172 16.2035ZM13.898 14.316C12.5653 15.53 10.8262 16.2033 9.02172 16.2035L9.02174 16.4035C10.876 16.4033 12.6632 15.7114 14.0327 14.4638L13.898 14.316ZM8.71439 9.29038L13.8947 14.4607L14.036 14.3191L8.85568 9.14883L8.71439 9.29038ZM8.71439 8.67837C8.5451 8.84734 8.54515 9.1213 8.71436 9.29035L8.85571 9.14886C8.76466 9.0579 8.76471 8.91072 8.85568 8.81992L8.71439 8.67837ZM13.8947 3.5082L8.71439 8.67837L8.85568 8.81993L14.036 3.64976L13.8947 3.5082ZM9.02091 1.76528C10.8265 1.76023 12.5678 2.4341 13.8978 3.65271L14.0329 3.50525C12.6658 2.25267 10.8761 1.56009 9.02035 1.56528L9.02091 1.76528ZM1.78787 8.98486C1.78763 4.99803 5.02563 1.76564 9.02064 1.76528L9.02062 1.56528C4.91553 1.56565 1.58762 4.88722 1.58787 8.98487L1.78787 8.98486Z" fill="#0C49CD"/>
</g>
<g id="Shape_2">
<path fill-rule="evenodd" clip-rule="evenodd" d="M7.02063 4.65942C7.02063 3.92456 7.61755 3.32874 8.354 3.32874C9.09033 3.32874 9.68738 3.92456 9.68738 4.65942C9.68738 5.39441 9.09033 5.99023 8.354 5.99023C7.61755 5.99023 7.02063 5.39441 7.02063 4.65942ZM7.68738 4.65955C7.68738 5.02698 7.98584 5.32483 8.354 5.32483C8.72217 5.32483 9.02063 5.02698 9.02063 4.65955C9.02063 4.29199 8.72217 3.99414 8.354 3.99414C7.98584 3.99414 7.68738 4.29199 7.68738 4.65955Z" fill="#0C49CD"/>
<path d="M8.354 3.22874C7.56251 3.22874 6.92063 3.86915 6.92063 4.65942H7.12063C7.12063 3.97997 7.6726 3.42874 8.354 3.42874V3.22874ZM9.78738 4.65942C9.78738 3.86914 9.14537 3.22874 8.354 3.22874V3.42874C9.03529 3.42874 9.58738 3.97998 9.58738 4.65942H9.78738ZM8.354 6.09023C9.14538 6.09023 9.78738 5.44982 9.78738 4.65942H9.58738C9.58738 5.339 9.03529 5.89023 8.354 5.89023V6.09023ZM6.92063 4.65942C6.92063 5.44982 7.5625 6.09023 8.354 6.09023V5.89023C7.6726 5.89023 7.12063 5.339 7.12063 4.65942H6.92063ZM8.354 5.22483C8.04088 5.22483 7.78738 4.97156 7.78738 4.65955H7.58738C7.58738 5.0824 7.9308 5.42483 8.354 5.42483V5.22483ZM8.92063 4.65955C8.92063 4.97156 8.66713 5.22483 8.354 5.22483V5.42483C8.77721 5.42483 9.12063 5.0824 9.12063 4.65955H8.92063ZM8.354 4.09414C8.66712 4.09414 8.92063 4.3474 8.92063 4.65955H9.12063C9.12063 4.23658 8.77722 3.89414 8.354 3.89414V4.09414ZM7.78738 4.65955C7.78738 4.3474 8.04089 4.09414 8.354 4.09414V3.89414C7.93079 3.89414 7.58738 4.23658 7.58738 4.65955H7.78738Z" fill="#0C49CD"/>
</g>
<g id="Shape_3">
<path fill-rule="evenodd" clip-rule="evenodd" d="M14.354 8.98438C14.354 8.43323 14.8018 7.98633 15.354 7.98633C15.9062 7.98633 16.354 8.43323 16.354 8.98438C16.354 9.53564 15.9062 9.98242 15.354 9.98242C14.8018 9.98242 14.354 9.53564 14.354 8.98438ZM15.0206 8.98438C15.0206 9.16821 15.1699 9.31714 15.354 9.31714C15.5381 9.31714 15.6874 9.16821 15.6874 8.98438C15.6874 8.80066 15.5381 8.65173 15.354 8.65173C15.1699 8.65173 15.0206 8.80066 15.0206 8.98438Z" fill="#0C49CD"/>
<path d="M15.354 7.88633C14.7467 7.88633 14.254 8.37782 14.254 8.98438H14.454C14.454 8.48864 14.8568 8.08633 15.354 8.08633V7.88633ZM16.454 8.98438C16.454 8.37782 15.9613 7.88633 15.354 7.88633V8.08633C15.8512 8.08633 16.254 8.48864 16.254 8.98438H16.454ZM15.354 10.0824C15.9613 10.0824 16.454 9.59106 16.454 8.98438H16.254C16.254 9.48023 15.8512 9.88242 15.354 9.88242V10.0824ZM14.254 8.98438C14.254 9.59106 14.7467 10.0824 15.354 10.0824V9.88242C14.8568 9.88242 14.454 9.48023 14.454 8.98438H14.254ZM15.354 9.21714C15.225 9.21714 15.1206 9.11279 15.1206 8.98438H14.9206C14.9206 9.22363 15.1149 9.41714 15.354 9.41714V9.21714ZM15.5874 8.98438C15.5874 9.11279 15.483 9.21714 15.354 9.21714V9.41714C15.5931 9.41714 15.7874 9.22363 15.7874 8.98438H15.5874ZM15.354 8.75173C15.4831 8.75173 15.5874 8.8561 15.5874 8.98438H15.7874C15.7874 8.74522 15.5931 8.55173 15.354 8.55173V8.75173ZM15.1206 8.98438C15.1206 8.8561 15.2249 8.75173 15.354 8.75173V8.55173C15.1149 8.55173 14.9206 8.74522 14.9206 8.98438H15.1206Z" fill="#0C49CD"/>
</g>
<g id="Shape_4">
<path fill-rule="evenodd" clip-rule="evenodd" d="M11.6874 8.98438C11.6874 8.43323 12.1351 7.98633 12.6874 7.98633C13.2396 7.98633 13.6874 8.43323 13.6874 8.98438C13.6874 9.53564 13.2396 9.98242 12.6874 9.98242C12.1351 9.98242 11.6874 9.53564 11.6874 8.98438ZM12.354 8.98438C12.354 9.16821 12.5033 9.31714 12.6874 9.31714C12.8715 9.31714 13.0208 9.16821 13.0208 8.98438C13.0208 8.80066 12.8715 8.65173 12.6874 8.65173C12.5033 8.65173 12.354 8.80066 12.354 8.98438Z" fill="#0C49CD"/>
<path d="M12.6874 7.88633C12.0801 7.88633 11.5874 8.37782 11.5874 8.98438H11.7874C11.7874 8.48864 12.1902 8.08633 12.6874 8.08633V7.88633ZM13.7874 8.98438C13.7874 8.37782 13.2947 7.88633 12.6874 7.88633V8.08633C13.1846 8.08633 13.5874 8.48864 13.5874 8.98438H13.7874ZM12.6874 10.0824C13.2947 10.0824 13.7874 9.59106 13.7874 8.98438H13.5874C13.5874 9.48023 13.1846 9.88242 12.6874 9.88242V10.0824ZM11.5874 8.98438C11.5874 9.59106 12.0801 10.0824 12.6874 10.0824V9.88242C12.1902 9.88242 11.7874 9.48023 11.7874 8.98438H11.5874ZM12.6874 9.21714C12.5583 9.21714 12.454 9.11279 12.454 8.98438H12.254C12.254 9.22363 12.4483 9.41714 12.6874 9.41714V9.21714ZM12.9208 8.98438C12.9208 9.11279 12.8164 9.21714 12.6874 9.21714V9.41714C12.9265 9.41714 13.1208 9.22363 13.1208 8.98438H12.9208ZM12.6874 8.75173C12.8164 8.75173 12.9208 8.8561 12.9208 8.98438H13.1208C13.1208 8.74522 12.9265 8.55173 12.6874 8.55173V8.75173ZM12.454 8.98438C12.454 8.8561 12.5583 8.75173 12.6874 8.75173V8.55173C12.4483 8.55173 12.254 8.74522 12.254 8.98438H12.454Z" fill="#0C49CD"/>
</g>
</g>
</g>
</svg>
