<svg width="18" height="18" viewBox="0 0 18 18" fill="none" xmlns="http://www.w3.org/2000/svg">
<g id="Games White">
<rect id="Rectangle 4 Copy" width="18" height="18" fill="#F4F7FB" fill-opacity="0.01"/>
<g id="pacman copy 2">
<g id="Shape">
<path fill-rule="evenodd" clip-rule="evenodd" d="M9.49194 8.98438L14.6777 14.1599C14.8079 14.2899 14.8079 14.5005 14.6777 14.6304C13.1807 16.1327 11.1436 16.9747 9.02075 16.9688C4.60254 16.9686 1.02075 13.3938 1.021 8.98413C1.02124 4.57446 4.60303 0.999878 9.02124 1C11.1428 1.00012 13.1775 1.84119 14.6777 3.33838C14.8079 3.46838 14.8079 3.67896 14.6777 3.80884L9.49194 8.98438ZM1.68799 8.98486C1.68823 13.0271 4.97168 16.3037 9.02173 16.3035C10.8511 16.3033 12.6145 15.6207 13.9656 14.3899L8.78516 9.2196C8.68555 9.12 8.66211 8.97314 8.71533 8.85144C8.73145 8.81433 8.75464 8.77954 8.78516 8.74915L13.9656 3.57898C12.6169 2.34338 10.8516 1.66016 9.02075 1.66528C4.9707 1.66565 1.68774 4.94263 1.68799 8.98486Z" fill="white"/>
<path d="M14.6777 14.1599L14.7484 14.0892L14.7484 14.0891L14.6777 14.1599ZM9.49194 8.98438L9.4213 8.91359L9.35038 8.98438L9.4213 9.05516L9.49194 8.98438ZM14.6777 14.6304L14.6071 14.5596L14.6069 14.5598L14.6777 14.6304ZM9.02075 16.9688L9.02103 16.8687H9.02075L9.02075 16.9688ZM9.02124 1L9.02125 0.9H9.02124L9.02124 1ZM14.6777 3.33838L14.7484 3.26764L14.7484 3.2676L14.6777 3.33838ZM14.6777 3.80884L14.7484 3.87962L14.7484 3.87961L14.6777 3.80884ZM9.02173 16.3035L9.02173 16.4035H9.02174L9.02173 16.3035ZM13.9656 14.3899L14.0329 14.4638L14.1104 14.3932L14.0362 14.3191L13.9656 14.3899ZM8.78516 9.2196L8.71445 9.29032L8.71451 9.29038L8.78516 9.2196ZM8.71533 8.85144L8.80695 8.89151L8.80706 8.89127L8.71533 8.85144ZM8.78516 8.74915L8.85573 8.82L8.8558 8.81993L8.78516 8.74915ZM13.9656 3.57898L14.0362 3.64976L14.1102 3.57589L14.0331 3.50525L13.9656 3.57898ZM9.02075 1.66528L9.02076 1.76528L9.02103 1.76528L9.02075 1.66528ZM14.7484 14.0891L9.56258 8.91359L9.4213 9.05516L14.6071 14.2307L14.7484 14.0891ZM14.7484 14.7011C14.9177 14.5322 14.9176 14.2582 14.7484 14.0892L14.6071 14.2307C14.6981 14.3216 14.6981 14.4688 14.6071 14.5596L14.7484 14.7011ZM9.02047 17.0688C11.1699 17.0748 13.2326 16.2222 14.7486 14.701L14.6069 14.5598C13.1287 16.0432 11.1172 16.8747 9.02103 16.8688L9.02047 17.0688ZM0.920996 8.98413C0.920749 13.4492 4.54749 17.0686 9.02075 17.0688L9.02075 16.8687C4.65758 16.8686 1.12076 13.3384 1.121 8.98414L0.920996 8.98413ZM9.02124 0.9C4.54799 0.899876 0.921243 4.51905 0.920996 8.98413L1.121 8.98414C1.12124 4.62988 4.65807 1.09988 9.02124 1.1L9.02124 0.9ZM14.7484 3.2676C13.2294 1.75167 11.1693 0.900124 9.02125 0.9L9.02123 1.1C11.1164 1.10012 13.1256 1.9307 14.6071 3.40916L14.7484 3.2676ZM14.7484 3.87961C14.9177 3.71065 14.9176 3.43668 14.7484 3.26764L14.6071 3.40912C14.6981 3.50009 14.6981 3.64726 14.6071 3.73806L14.7484 3.87961ZM9.56258 9.05516L14.7484 3.87962L14.6071 3.73806L9.4213 8.91359L9.56258 9.05516ZM9.02172 16.2035C5.02672 16.2037 1.78823 12.9717 1.78799 8.98486L1.58799 8.98487C1.58824 13.0825 4.91664 16.4037 9.02173 16.4035L9.02172 16.2035ZM13.8982 14.316C12.5656 15.53 10.8262 16.2033 9.02172 16.2035L9.02174 16.4035C10.876 16.4033 12.6634 15.7114 14.0329 14.4638L13.8982 14.316ZM8.71451 9.29038L13.8949 14.4607L14.0362 14.3191L8.8558 9.14882L8.71451 9.29038ZM8.62371 8.81137C8.55448 8.96968 8.58489 9.16076 8.71445 9.29032L8.85587 9.14889C8.7862 9.07923 8.76974 8.97661 8.80695 8.89151L8.62371 8.81137ZM8.71459 8.67829C8.6749 8.71782 8.64462 8.76321 8.62361 8.81161L8.80706 8.89127C8.81827 8.86545 8.83438 8.84126 8.85573 8.82L8.71459 8.67829ZM13.8949 3.5082L8.71452 8.67836L8.8558 8.81993L14.0362 3.64976L13.8949 3.5082ZM9.02103 1.76528C10.8268 1.76023 12.5679 2.4341 13.898 3.65271L14.0331 3.50525C12.666 2.25267 10.8764 1.56009 9.02047 1.56528L9.02103 1.76528ZM1.78799 8.98486C1.78775 4.99803 5.02575 1.76564 9.02076 1.76528L9.02074 1.56528C4.91565 1.56565 1.58774 4.88722 1.58799 8.98487L1.78799 8.98486Z" fill="white"/>
</g>
<g id="Shape_2">
<path fill-rule="evenodd" clip-rule="evenodd" d="M7.02075 4.65942C7.02075 3.92456 7.61768 3.32874 8.354 3.32874C9.09058 3.32874 9.6875 3.92456 9.6875 4.65942C9.6875 5.39441 9.09058 5.99023 8.354 5.99023C7.61768 5.99023 7.02075 5.39441 7.02075 4.65942ZM7.6875 4.65955C7.6875 5.02698 7.98608 5.32483 8.35425 5.32483C8.72241 5.32483 9.02075 5.02698 9.02075 4.65955C9.02075 4.29199 8.72241 3.99414 8.35425 3.99414C7.98608 3.99414 7.6875 4.29199 7.6875 4.65955Z" fill="white"/>
<path d="M8.354 3.22874C7.56263 3.22874 6.92075 3.86915 6.92075 4.65942H7.12075C7.12075 3.97997 7.67273 3.42874 8.354 3.42874V3.22874ZM9.7875 4.65942C9.7875 3.86914 9.14561 3.22874 8.354 3.22874V3.42874C9.03554 3.42874 9.5875 3.97998 9.5875 4.65942H9.7875ZM8.354 6.09023C9.14562 6.09023 9.7875 5.44982 9.7875 4.65942H9.5875C9.5875 5.339 9.03553 5.89023 8.354 5.89023V6.09023ZM6.92075 4.65942C6.92075 5.44981 7.56262 6.09023 8.354 6.09023V5.89023C7.67273 5.89023 7.12075 5.33901 7.12075 4.65942H6.92075ZM8.35425 5.22483C8.0411 5.22483 7.7875 4.97153 7.7875 4.65955H7.5875C7.5875 5.08242 7.93107 5.42483 8.35425 5.42483V5.22483ZM8.92075 4.65955C8.92075 4.97158 8.66735 5.22483 8.35425 5.22483V5.42483C8.77747 5.42483 9.12075 5.08237 9.12075 4.65955H8.92075ZM8.35425 4.09414C8.66734 4.09414 8.92075 4.34738 8.92075 4.65955H9.12075C9.12075 4.23661 8.77749 3.89414 8.35425 3.89414V4.09414ZM7.7875 4.65955C7.7875 4.34742 8.04111 4.09414 8.35425 4.09414V3.89414C7.93106 3.89414 7.5875 4.23656 7.5875 4.65955H7.7875Z" fill="white"/>
</g>
<g id="Shape_3">
<path fill-rule="evenodd" clip-rule="evenodd" d="M14.354 8.98438C14.354 8.43323 14.8018 7.98633 15.354 7.98633C15.9062 7.98633 16.354 8.43323 16.354 8.98438C16.354 9.53564 15.9062 9.98242 15.354 9.98242C14.8018 9.98242 14.354 9.53564 14.354 8.98438ZM15.0208 8.98438C15.0208 9.16821 15.1699 9.31714 15.354 9.31714C15.5381 9.31714 15.6875 9.16821 15.6875 8.98438C15.6875 8.80066 15.5381 8.65173 15.354 8.65173C15.1699 8.65173 15.0208 8.80066 15.0208 8.98438Z" fill="white"/>
<path d="M15.354 7.88633C14.7467 7.88633 14.254 8.37782 14.254 8.98438H14.454C14.454 8.48864 14.8568 8.08633 15.354 8.08633V7.88633ZM16.454 8.98438C16.454 8.37782 15.9613 7.88633 15.354 7.88633V8.08633C15.8512 8.08633 16.254 8.48864 16.254 8.98438H16.454ZM15.354 10.0824C15.9613 10.0824 16.454 9.59106 16.454 8.98438H16.254C16.254 9.48023 15.8512 9.88242 15.354 9.88242V10.0824ZM14.254 8.98438C14.254 9.59106 14.7467 10.0824 15.354 10.0824V9.88242C14.8568 9.88242 14.454 9.48023 14.454 8.98438H14.254ZM15.354 9.21714C15.225 9.21714 15.1208 9.11284 15.1208 8.98438H14.9208C14.9208 9.22358 15.1148 9.41714 15.354 9.41714V9.21714ZM15.5875 8.98438C15.5875 9.11275 15.4831 9.21714 15.354 9.21714V9.41714C15.5931 9.41714 15.7875 9.22368 15.7875 8.98438H15.5875ZM15.354 8.75173C15.4831 8.75173 15.5875 8.85615 15.5875 8.98438H15.7875C15.7875 8.74517 15.5931 8.55173 15.354 8.55173V8.75173ZM15.1208 8.98438C15.1208 8.85605 15.225 8.75173 15.354 8.75173V8.55173C15.1149 8.55173 14.9208 8.74526 14.9208 8.98438H15.1208Z" fill="white"/>
</g>
<g id="Shape_4">
<path fill-rule="evenodd" clip-rule="evenodd" d="M11.6873 8.98438C11.6873 8.43323 12.135 7.98633 12.6873 7.98633C13.2395 7.98633 13.6873 8.43323 13.6873 8.98438C13.6873 9.53564 13.2395 9.98242 12.6873 9.98242C12.135 9.98242 11.6873 9.53564 11.6873 8.98438ZM12.354 8.98438C12.354 9.16821 12.5032 9.31714 12.6873 9.31714C12.8713 9.31714 13.0208 9.16821 13.0208 8.98438C13.0208 8.80066 12.8713 8.65173 12.6873 8.65173C12.5969 8.65173 12.5149 8.68762 12.4548 8.74597C12.3926 8.8064 12.354 8.89087 12.354 8.98438Z" fill="white"/>
<path d="M12.4548 8.74597L12.5245 8.81773L12.5245 8.8177L12.4548 8.74597ZM12.6873 7.88633C12.08 7.88633 11.5873 8.37782 11.5873 8.98438H11.7873C11.7873 8.48864 12.1901 8.08633 12.6873 8.08633V7.88633ZM13.7873 8.98438C13.7873 8.37782 13.2945 7.88633 12.6873 7.88633V8.08633C13.1845 8.08633 13.5873 8.48864 13.5873 8.98438H13.7873ZM12.6873 10.0824C13.2945 10.0824 13.7873 9.59106 13.7873 8.98438H13.5873C13.5873 9.48023 13.1845 9.88242 12.6873 9.88242V10.0824ZM11.5873 8.98438C11.5873 9.59106 12.08 10.0824 12.6873 10.0824V9.88242C12.19 9.88242 11.7873 9.48023 11.7873 8.98438H11.5873ZM12.6873 9.21714C12.5583 9.21714 12.454 9.11284 12.454 8.98438H12.254C12.254 9.22358 12.4481 9.41714 12.6873 9.41714V9.21714ZM12.9208 8.98438C12.9208 9.11275 12.8163 9.21714 12.6873 9.21714V9.41714C12.9263 9.41714 13.1208 9.22368 13.1208 8.98438H12.9208ZM12.6873 8.75173C12.8164 8.75173 12.9208 8.85615 12.9208 8.98438H13.1208C13.1208 8.74517 12.9263 8.55173 12.6873 8.55173V8.75173ZM12.5245 8.8177C12.5666 8.77678 12.6239 8.75173 12.6873 8.75173V8.55173C12.5699 8.55173 12.4632 8.59846 12.3852 8.67425L12.5245 8.8177ZM12.454 8.98438C12.454 8.91897 12.4809 8.86008 12.5245 8.81773L12.3852 8.67421C12.3043 8.75272 12.254 8.86277 12.254 8.98438H12.454Z" fill="white"/>
</g>
</g>
</g>
</svg>
