<svg width="24" height="24" viewBox="0 0 24 24" fill="none" xmlns="http://www.w3.org/2000/svg">
<path fill-rule="evenodd" clip-rule="evenodd" d="M12 0C5.37488 0 0 5.41931 0 12C0 18.6075 5.39294 24 12 24C18.6075 24 24 18.6071 24 12C24 5.39249 18.6071 0 12 0ZM12 1.40625C13.1704 1.40625 14.2969 1.59744 15.3503 1.94952C15.1528 2.24115 15.0294 2.62665 15.0294 3.12402C15.0294 3.88354 15.3689 4.56244 15.6971 5.21902C15.9642 5.75311 16.2164 6.25757 16.2164 6.68512C16.2164 6.93234 16.1576 6.98929 15.9553 7.05676C15.6003 7.17508 14.9656 7.17175 14.4841 7.16919L14.3615 7.16864C13.2028 7.16476 11.8888 7.16052 10.4872 8.56201C10.2937 8.75565 10.1888 8.76553 9.51831 8.43027C8.90491 8.12354 7.87805 7.61017 6.92627 8.56201C6.36951 9.11874 6.14966 9.90277 6.30359 10.6979C6.06335 10.6046 5.79102 10.5289 5.53333 10.4572C5.05298 10.3235 4.62354 10.2041 4.54785 10.0119C4.49402 9.8754 4.40991 9.28101 5.58875 7.3671C6.026 6.65729 6.55127 5.61728 6.06665 4.78415C5.83154 4.3801 5.43787 4.16504 5.00305 4.05295C6.87061 2.40671 9.32056 1.40625 12 1.40625ZM1.40625 12C1.40625 17.8414 6.15857 22.5938 12 22.5938L12.0469 22.5932L12.0575 22.593L12.0864 22.5927C11.7384 21.7175 11.4684 20.1733 11.4684 17.3684C11.4288 17.2108 10.8654 16.8885 10.5946 16.7336C9.92615 16.3512 9.09436 15.8754 9.09436 14.9944V13.8126C8.83179 13.4225 6.66907 12.4117 6.03186 12.1139L5.93762 12.0698C5.72021 11.9677 5.45215 11.8938 5.16833 11.8154C4.42517 11.6102 3.57373 11.3752 3.23962 10.5279C2.89783 9.6611 3.24231 8.4953 4.39148 6.62961C4.87842 5.83899 4.85706 5.53802 4.84949 5.49197C4.79102 5.43954 4.57214 5.34097 3.76172 5.3479C2.28955 7.1676 1.40625 9.48242 1.40625 12ZM13.8291 21.8335C13.8335 21.975 13.6858 22.263 13.5582 22.3918C13.3789 22.1431 12.8746 21.1105 12.8746 17.3684C12.8746 16.4177 11.9977 15.916 11.2928 15.5129L11.2722 15.5011C11.0201 15.3569 10.5826 15.1068 10.496 14.9672V13.8073C10.496 13.618 10.4655 13.4489 10.4047 13.2969C11.5731 13.1895 12.1425 12.7779 12.5742 12.4657C12.8773 12.2465 13.0294 12.1364 13.3586 12.1364C13.3654 12.1364 13.3699 12.1368 13.3717 12.1369L13.3728 12.137C13.4467 12.1732 13.6039 12.4359 13.6979 12.593C14.4951 13.9253 15.2729 14.4013 16.7979 14.7353C16.9193 14.7619 17.076 14.7963 17.202 14.8324C17.2881 14.857 17.3599 14.8824 17.3965 14.9068C17.3995 14.9211 17.4036 14.9488 17.4036 14.9943C17.4036 16.4453 16.2867 17.4965 15.3013 18.4239C14.5112 19.1675 13.8287 19.8098 13.8287 20.6248L13.8286 20.7822C13.8284 21.1045 13.8276 21.7835 13.8291 21.8335ZM15.2301 21.7957C15.2327 21.8927 15.2299 21.9931 15.2137 22.0948C19.4888 20.7308 22.5938 16.7214 22.5938 12C22.5938 7.91394 20.2681 4.36121 16.8713 2.59457C16.5073 2.60938 16.4357 2.79398 16.4357 3.1239C16.4357 3.55112 16.6877 4.05524 16.9542 4.5889L16.955 4.59C17.2832 5.24658 17.6227 5.92548 17.6227 6.68497C17.6227 7.52206 17.1885 8.12784 16.4 8.39066C15.8301 8.58069 15.1089 8.57776 14.4601 8.57516L14.3569 8.57474C13.3025 8.57132 12.4694 8.56857 11.4816 9.55627C10.5298 10.5081 9.50293 9.99472 8.88953 9.68799C8.21899 9.35272 8.11426 9.36267 7.92053 9.55627C7.51929 9.95752 7.67981 10.4927 7.76733 10.7042C7.99915 11.2637 8.66992 11.917 9.79749 11.917C10.9326 11.917 11.3297 11.63 11.7501 11.326C12.1172 11.0605 12.5742 10.73 13.3585 10.73C14.222 10.73 14.6166 11.3895 14.9045 11.871C15.501 12.8679 15.9597 13.1121 17.0985 13.3615C17.4819 13.4455 17.8441 13.5248 18.1559 13.7239C18.4542 13.9144 18.8097 14.2894 18.8097 14.9942C18.8097 17.0528 17.339 18.4371 16.265 19.4478C15.9501 19.7443 15.6526 20.0243 15.4541 20.2644C15.2408 20.5225 15.2303 20.624 15.2302 20.6249C15.2302 20.6319 15.229 21.7004 15.2301 21.7957Z" fill="#0C49CD"/>
</svg>
