<svg width="24" height="24" viewBox="0 0 24 24" fill="none" xmlns="http://www.w3.org/2000/svg">
<path fill-rule="evenodd" clip-rule="evenodd" d="M2 12C2 17.5228 6.47714 22 12 22C17.5229 22 22 17.5228 22 12C22 6.47717 17.5229 2 12 2C6.47714 2 2 6.47717 2 12ZM4.06189 13C4.41742 15.8511 6.27319 18.2363 8.8143 19.3406C7.87143 17.6584 7.18747 15.3618 7.03299 13H4.06189ZM8.78763 4.67108C6.26022 5.78046 4.41617 8.15894 4.06189 11H7.0322C7.18329 8.63556 7.85388 6.34821 8.78763 4.67108ZM19.9381 11H16.9678C16.8167 8.63556 16.1461 6.34821 15.2124 4.67108C17.7398 5.78046 19.5838 8.15894 19.9381 11ZM16.967 13C16.8125 15.3618 16.1286 17.6584 15.1857 19.3406C17.7268 18.2363 19.5826 15.8511 19.9381 13H16.967ZM10.3258 17.9186C10.9748 19.2234 11.7357 20 12 20C12.2643 20 13.0251 19.2234 13.6742 17.9186C14.3691 16.5216 14.8358 14.7982 14.9642 13H9.03583C9.16422 14.7982 9.63092 16.5216 10.3258 17.9186ZM12 4C11.7119 4 10.9551 4.76843 10.3084 6.07867C9.62183 7.46967 9.16138 9.19525 9.0351 11H14.9649C14.8386 9.19525 14.3782 7.46967 13.6916 6.07867C13.0449 4.76843 12.2881 4 12 4Z" fill="#9013FE"/>
</svg>
