<svg width="18" height="18" viewBox="0 0 18 18" fill="none" xmlns="http://www.w3.org/2000/svg">
<g id="Health White">
<rect id="Rectangle 4 Copy 12" width="18" height="18" fill="#F4F7FB" fill-opacity="0.01"/>
<g id="yoga">
<path id="Shape" d="M11.721 14.5916C11.5991 14.4694 11.401 14.4694 11.2791 14.5916C11.157 14.7135 11.157 14.9116 11.2791 15.0335C11.401 15.1556 11.5991 15.1556 11.721 15.0335C11.8432 14.9116 11.8432 14.7135 11.721 14.5916Z" fill="white" stroke="white" stroke-width="0.2"/>
<g id="Shape_2">
<path fill-rule="evenodd" clip-rule="evenodd" d="M16.5117 10.446C16.509 10.4441 16.1514 10.2495 15.7046 10.0076C15.0774 9.66809 14.2747 9.23529 14.032 9.11078L12.5173 6.60529C12.3108 6.26416 11.9534 6.04272 11.5562 6.00647C11.5222 6.00037 11.4995 6.00061 11.4756 6.0025L6.50024 6L6.48999 5.99994L6.48096 6.00055L6.47192 6.0014L6.46558 6.00201C6.06104 6.03168 5.69434 6.2561 5.48267 6.60553L3.96802 9.11078C3.69727 9.24963 3.19409 9.52155 2.7146 9.78162L2.46265 9.91846L2.41089 9.94666L2.01782 10.1596L1.69092 10.3354C1.62012 10.373 1.56934 10.3995 1.54443 10.4114C1.52466 10.421 1.50586 10.4326 1.48828 10.446C0.883545 10.9143 0.838623 11.7936 1.36621 12.3212C1.76831 12.7238 2.3916 12.8038 2.88208 12.5153L2.98438 12.4515C3.26904 12.2729 4.07397 11.7682 4.60278 11.4752C5.0813 11.2098 5.51489 10.8674 5.89233 10.4571L6.1875 10.1357V12.7433L3.4585 14.0923C3.08569 14.2764 2.80078 14.6102 2.67725 15.0081C2.55347 15.4062 2.59863 15.8428 2.80176 16.206C3.07983 16.7032 3.58862 17 4.16284 17H13.8372C14.4009 17 14.9048 16.7115 15.1855 16.2285C15.3967 15.8648 15.4482 15.4249 15.3269 15.0221C15.2056 14.6182 14.9197 14.2795 14.5422 14.0927L11.8125 12.7434V10.1356L12.1174 10.4674C12.488 10.8707 12.9187 11.2097 13.3972 11.4752C13.9248 11.7676 14.7202 12.2663 15.01 12.4481L15.1184 12.5156C15.6069 12.8028 16.2302 12.7253 16.6338 12.3213C17.1631 11.792 17.1147 10.9128 16.5117 10.446ZM8.0625 6.62262L9.9375 6.62354V7.56244C9.9375 8.07941 9.51685 8.49994 9 8.49994C8.48218 8.49994 8.0625 8.08032 8.0625 7.56244V6.62262ZM7.4375 6.62231L6.8125 6.62201V12.625H11.1875V9.4375V6.62421L10.5625 6.6239V7.5625C10.5625 8.42401 9.86157 9.125 9 9.125C8.13672 9.125 7.4375 8.42566 7.4375 7.5625V6.62231ZM5.43115 10.0347L5.4292 10.037C5.09839 10.3964 4.71826 10.6964 4.2998 10.9285C3.74121 11.238 2.88159 11.7778 2.63208 11.9347L2.5647 11.9768C2.32031 12.1205 2.00903 12.0805 1.80811 11.8793C1.55518 11.6265 1.55981 11.2015 1.84912 10.9578C1.98145 10.8906 2.34814 10.6917 2.76611 10.4645L2.78735 10.4531L2.84717 10.4207C3.11157 10.2772 3.3916 10.1252 3.64282 9.99011C3.78979 9.91113 3.92676 9.83789 4.04517 9.77539C4.15991 9.71478 4.25708 9.66431 4.32861 9.62854C4.38159 9.60211 4.42578 9.56128 4.4563 9.51068L6.01733 6.92908C6.0293 6.90924 6.04248 6.89026 6.0564 6.87213L6.07397 6.84991L6.09351 6.8277C6.12207 6.79663 6.15356 6.76868 6.1875 6.74402V9.21167L5.43115 10.0347ZM6.1875 15.75C6.1875 16.0946 6.46777 16.375 6.8125 16.375H8.0625V15.125H6.8125C6.46777 15.125 6.1875 15.4054 6.1875 15.75ZM14.2651 14.6529C14.4878 14.7631 14.6565 14.9631 14.7283 15.202C14.8 15.4402 14.7698 15.7 14.645 15.9146C14.4751 16.2072 14.1807 16.375 13.8372 16.375H8.6875V15.125H10.25C10.4226 15.125 10.5625 14.9851 10.5625 14.8125C10.5625 14.723 10.5249 14.6423 10.4646 14.5854C10.4087 14.5325 10.333 14.5 10.25 14.5H6.8125C6.12329 14.5 5.5625 15.0607 5.5625 15.75C5.5625 15.9776 5.62402 16.191 5.73071 16.375H4.16284C3.81299 16.375 3.51562 16.2022 3.34717 15.901C3.22754 15.6868 3.20068 15.429 3.27393 15.1937C3.34717 14.9585 3.51514 14.7614 3.73535 14.6526L6.573 13.25H11.427L14.2651 14.6529ZM15.4373 11.978C15.6797 12.1206 15.9907 12.0806 16.1917 11.8795C16.4438 11.6273 16.4409 11.2023 16.1509 10.9578C16.0183 10.8905 15.6443 10.6874 15.2192 10.4567C14.6338 10.139 13.9517 9.76874 13.6711 9.6286C13.6184 9.60217 13.5742 9.56134 13.5435 9.51074L11.9827 6.92877C11.9382 6.85583 11.8801 6.79388 11.8125 6.74524V9.21191L12.5776 10.0446C12.9028 10.3983 13.2805 10.6957 13.7002 10.9286C13.9817 11.0845 14.334 11.2955 14.6479 11.4875C15.0554 11.7369 15.3982 11.9543 15.4373 11.978Z" fill="white"/>
<path d="M15.7046 10.0076L15.7522 9.91969L15.7522 9.91969L15.7046 10.0076ZM16.5117 10.446L16.573 10.3669L16.5705 10.3652L16.5117 10.446ZM14.032 9.11078L13.9464 9.16251L13.9611 9.1868L13.9863 9.19975L14.032 9.11078ZM12.5173 6.60529L12.6029 6.55355L12.6029 6.55349L12.5173 6.60529ZM11.5562 6.00647L11.5384 6.10526L11.5471 6.10606L11.5562 6.00647ZM11.4756 6.0025L11.4755 6.10282L11.4835 6.10219L11.4756 6.0025ZM6.50024 6L6.49965 6.1L6.50019 6.1L6.50024 6ZM6.48999 5.99994L6.49059 5.89967L6.48325 5.90017L6.48999 5.99994ZM6.48096 6.00055L6.47421 5.90074L6.47154 5.90099L6.48096 6.00055ZM6.47192 6.0014L6.46251 5.90185L6.46235 5.90186L6.47192 6.0014ZM6.46558 6.00201L6.47289 6.10177L6.47515 6.10156L6.46558 6.00201ZM5.48267 6.60553L5.39713 6.55372L5.39709 6.55379L5.48267 6.60553ZM3.96802 9.11078L4.01365 9.19976L4.03891 9.18681L4.05359 9.16252L3.96802 9.11078ZM2.7146 9.78162L2.66692 9.69371L2.66687 9.69374L2.7146 9.78162ZM2.46265 9.91846L2.41492 9.83058L2.4148 9.83064L2.46265 9.91846ZM2.41089 9.94666L2.45852 10.0346L2.45873 10.0345L2.41089 9.94666ZM2.01782 10.1596L2.06518 10.2477L2.06546 10.2475L2.01782 10.1596ZM1.69092 10.3354L1.73782 10.4237L1.73828 10.4235L1.69092 10.3354ZM1.54443 10.4114L1.50113 10.3213L1.50105 10.3213L1.54443 10.4114ZM1.48828 10.446L1.4274 10.3667L1.42706 10.367L1.48828 10.446ZM1.36621 12.3212L1.43696 12.2505L1.43692 12.2505L1.36621 12.3212ZM2.88208 12.5153L2.9328 12.6015L2.93499 12.6001L2.88208 12.5153ZM2.98438 12.4515L3.03728 12.5363L3.03751 12.5362L2.98438 12.4515ZM4.60278 11.4752L4.65125 11.5626L4.65128 11.5626L4.60278 11.4752ZM5.89233 10.4571L5.96593 10.5248L5.96599 10.5247L5.89233 10.4571ZM6.1875 10.1357H6.2875V9.87895L6.11385 10.068L6.1875 10.1357ZM6.1875 12.7433L6.23181 12.833L6.2875 12.8055V12.7433H6.1875ZM3.4585 14.0923L3.50277 14.1819L3.50281 14.1819L3.4585 14.0923ZM2.67725 15.0081L2.77274 15.0378L2.77275 15.0378L2.67725 15.0081ZM2.80176 16.206L2.71448 16.2548L2.71448 16.2548L2.80176 16.206ZM15.1855 16.2285L15.272 16.2787L15.272 16.2787L15.1855 16.2285ZM15.3269 15.0221L15.2311 15.0509L15.2312 15.0509L15.3269 15.0221ZM14.5422 14.0927L14.5866 14.003L14.5865 14.003L14.5422 14.0927ZM11.8125 12.7434H11.7125V12.8055L11.7682 12.8331L11.8125 12.7434ZM11.8125 10.1356L11.8861 10.0679L11.7125 9.87894V10.1356H11.8125ZM12.1174 10.4674L12.0438 10.5351L12.0438 10.5351L12.1174 10.4674ZM13.3972 11.4752L13.3487 11.5627L13.3487 11.5627L13.3972 11.4752ZM15.01 12.4481L14.9569 12.5328L14.9571 12.5329L15.01 12.4481ZM15.1184 12.5156L15.0655 12.6005L15.0677 12.6018L15.1184 12.5156ZM16.6338 12.3213L16.5631 12.2506L16.563 12.2506L16.6338 12.3213ZM9.9375 6.62354H10.0375V6.52358L9.93755 6.52354L9.9375 6.62354ZM8.0625 6.62262L8.06255 6.52262L7.9625 6.52257V6.62262H8.0625ZM6.8125 6.62201L6.81255 6.52201L6.7125 6.52196V6.62201H6.8125ZM7.4375 6.62231H7.5375V6.52236L7.43755 6.52231L7.4375 6.62231ZM6.8125 12.625H6.7125V12.725H6.8125V12.625ZM11.1875 12.625V12.725H11.2875V12.625H11.1875ZM11.1875 6.62421H11.2875V6.52426L11.1875 6.52421L11.1875 6.62421ZM10.5625 6.6239L10.5625 6.5239L10.4625 6.52385V6.6239H10.5625ZM5.4292 10.037L5.50289 10.1049L5.50651 10.1005L5.4292 10.037ZM5.43115 10.0347L5.35741 9.9669L5.35385 9.97124L5.43115 10.0347ZM4.2998 10.9285L4.34827 11.0159L4.34831 11.0159L4.2998 10.9285ZM2.63208 11.9347L2.68508 12.0195L2.6853 12.0194L2.63208 11.9347ZM2.5647 11.9768L2.61541 12.063L2.6177 12.0616L2.5647 11.9768ZM1.80811 11.8793L1.87887 11.8086L1.8788 11.8085L1.80811 11.8793ZM1.84912 10.9578L1.80387 10.8686L1.79354 10.8738L1.78468 10.8813L1.84912 10.9578ZM2.76611 10.4645L2.71878 10.3765L2.71837 10.3767L2.76611 10.4645ZM2.78735 10.4531L2.83469 10.5412L2.83499 10.541L2.78735 10.4531ZM2.84717 10.4207L2.89481 10.5086L2.89488 10.5086L2.84717 10.4207ZM3.64282 9.99011L3.59549 9.90203L3.59545 9.90204L3.64282 9.99011ZM4.04517 9.77539L4.09185 9.86383L4.09187 9.86381L4.04517 9.77539ZM4.32861 9.62854L4.28397 9.53906L4.28389 9.5391L4.32861 9.62854ZM4.4563 9.51068L4.37073 9.45894L4.37067 9.45903L4.4563 9.51068ZM6.01733 6.92908L6.10291 6.98082L6.10297 6.98072L6.01733 6.92908ZM6.0564 6.87213L5.97797 6.81008L5.97707 6.81124L6.0564 6.87213ZM6.07397 6.84991L5.99877 6.7838L5.99555 6.78787L6.07397 6.84991ZM6.09351 6.8277L6.01987 6.76L6.0184 6.76167L6.09351 6.8277ZM6.1875 6.74402H6.2875V6.54775L6.12872 6.66312L6.1875 6.74402ZM6.1875 9.21167L6.26113 9.27934L6.2875 9.25064V9.21167H6.1875ZM8.0625 16.375V16.475H8.1625V16.375H8.0625ZM8.0625 15.125H8.1625V15.025H8.0625V15.125ZM14.7283 15.202L14.6325 15.2308L14.6325 15.2309L14.7283 15.202ZM14.2651 14.6529L14.3095 14.5633L14.3094 14.5632L14.2651 14.6529ZM14.645 15.9146L14.5586 15.8643L14.5585 15.8643L14.645 15.9146ZM8.6875 16.375H8.5875V16.475H8.6875V16.375ZM8.6875 15.125V15.025H8.5875V15.125H8.6875ZM10.4646 14.5854L10.3959 14.658L10.3959 14.6581L10.4646 14.5854ZM5.73071 16.375V16.475H5.90428L5.81722 16.3248L5.73071 16.375ZM3.34717 15.901L3.25986 15.9498L3.25989 15.9498L3.34717 15.901ZM3.27393 15.1937L3.17845 15.1639L3.17844 15.1639L3.27393 15.1937ZM3.73535 14.6526L3.77962 14.7423L3.77966 14.7423L3.73535 14.6526ZM6.573 13.25V13.15H6.54963L6.52869 13.1604L6.573 13.25ZM11.427 13.25L11.4713 13.1604L11.4504 13.15H11.427V13.25ZM16.1917 11.8795L16.1209 11.8087L16.1209 11.8088L16.1917 11.8795ZM15.4373 11.978L15.3853 12.0635L15.3866 12.0642L15.4373 11.978ZM16.1509 10.9578L16.2153 10.8814L16.2065 10.8739L16.1962 10.8687L16.1509 10.9578ZM15.2192 10.4567L15.2669 10.3688L15.2669 10.3688L15.2192 10.4567ZM13.6711 9.6286L13.6263 9.718L13.6265 9.71806L13.6711 9.6286ZM13.5435 9.51074L13.4579 9.56247L13.458 9.56269L13.5435 9.51074ZM11.9827 6.92877L12.0682 6.87704L12.0681 6.87675L11.9827 6.92877ZM11.8125 6.74524L11.8709 6.66406L11.7125 6.55012V6.74524H11.8125ZM11.8125 9.21191H11.7125V9.25088L11.7389 9.27958L11.8125 9.21191ZM12.5776 10.0446L12.504 10.1122L12.504 10.1122L12.5776 10.0446ZM13.7002 10.9286L13.6517 11.016L13.6517 11.0161L13.7002 10.9286ZM14.6479 11.4875L14.7002 11.4022L14.7001 11.4022L14.6479 11.4875ZM15.657 10.0956C15.8803 10.2165 16.0814 10.3256 16.2269 10.4047C16.2997 10.4442 16.3586 10.4763 16.3994 10.4985C16.4199 10.5097 16.4357 10.5183 16.4465 10.5243C16.4519 10.5272 16.456 10.5295 16.4587 10.531C16.4601 10.5317 16.4609 10.5322 16.4614 10.5325C16.4617 10.5326 16.4615 10.5325 16.4612 10.5324C16.4611 10.5323 16.4606 10.532 16.46 10.5316C16.4596 10.5314 16.459 10.531 16.4582 10.5305C16.4577 10.5302 16.4556 10.5288 16.4529 10.5269L16.5705 10.3652C16.5679 10.3632 16.5657 10.3618 16.5652 10.3615C16.5643 10.361 16.5636 10.3606 16.5632 10.3603C16.5624 10.3598 16.5618 10.3595 16.5614 10.3593C16.5607 10.3588 16.56 10.3584 16.5595 10.3582C16.5584 10.3575 16.557 10.3568 16.5555 10.356C16.5525 10.3543 16.5481 10.3519 16.5427 10.3489C16.5317 10.3428 16.5156 10.3341 16.4952 10.3229C16.4542 10.3006 16.3953 10.2685 16.3224 10.2289C16.1768 10.1498 15.9756 10.0407 15.7522 9.91969L15.657 10.0956ZM13.9863 9.19975C14.2278 9.32362 15.0292 9.75571 15.657 10.0956L15.7522 9.91969C15.1256 9.58047 14.3216 9.14696 14.0776 9.02181L13.9863 9.19975ZM12.4318 6.65702L13.9464 9.16251L14.1176 9.05904L12.6029 6.55355L12.4318 6.65702ZM11.5471 6.10606C11.913 6.13945 12.2419 6.3434 12.4318 6.65708L12.6029 6.55349C12.3797 6.18492 11.9938 5.946 11.5652 5.90688L11.5471 6.10606ZM11.4835 6.10219C11.5007 6.10082 11.5146 6.10061 11.5385 6.10489L11.5739 5.90805C11.5298 5.90012 11.4983 5.9004 11.4677 5.90281L11.4835 6.10219ZM6.50019 6.1L11.4755 6.1025L11.4756 5.9025L6.50029 5.9L6.50019 6.1ZM6.4894 6.09994L6.49965 6.1L6.50084 5.9L6.49059 5.89994L6.4894 6.09994ZM6.4877 6.10032L6.49673 6.09971L6.48325 5.90017L6.47422 5.90078L6.4877 6.10032ZM6.48134 6.10096L6.49037 6.1001L6.47154 5.90099L6.46251 5.90185L6.48134 6.10096ZM6.47515 6.10156L6.48149 6.10094L6.46235 5.90186L6.45601 5.90247L6.47515 6.10156ZM5.5682 6.65734C5.76314 6.33553 6.10073 6.12904 6.47289 6.10175L6.45826 5.90228C6.02134 5.93432 5.62554 6.17667 5.39713 6.55372L5.5682 6.65734ZM4.05359 9.16252L5.56824 6.65727L5.39709 6.55379L3.88244 9.05904L4.05359 9.16252ZM2.76228 9.86952C3.24219 9.60922 3.74417 9.33796 4.01365 9.19976L3.92238 9.0218C3.65036 9.1613 3.146 9.43387 2.66692 9.69371L2.76228 9.86952ZM2.51037 10.0063L2.76233 9.86949L2.66687 9.69374L2.41492 9.83058L2.51037 10.0063ZM2.45873 10.0345L2.51049 10.0063L2.4148 9.83064L2.36305 9.85884L2.45873 10.0345ZM2.06546 10.2475L2.45852 10.0346L2.36325 9.85873L1.97019 10.0717L2.06546 10.2475ZM1.73828 10.4235L2.06518 10.2477L1.97046 10.0715L1.64356 10.2473L1.73828 10.4235ZM1.58774 10.5016C1.61483 10.4886 1.66755 10.461 1.73782 10.4237L1.64402 10.2471C1.57269 10.2849 1.52384 10.3104 1.50113 10.3213L1.58774 10.5016ZM1.54916 10.5254C1.56138 10.516 1.57432 10.508 1.58782 10.5015L1.50105 10.3213C1.47499 10.3339 1.45034 10.3491 1.4274 10.3667L1.54916 10.5254ZM1.43692 12.2505C0.951541 11.7651 0.992826 10.9562 1.5495 10.5251L1.42706 10.367C0.774263 10.8725 0.725705 11.8221 1.2955 12.3919L1.43692 12.2505ZM2.83138 12.4291C2.38024 12.6944 1.80689 12.6209 1.43696 12.2505L1.29546 12.3918C1.72974 12.8266 2.40297 12.9131 2.93278 12.6015L2.83138 12.4291ZM2.93147 12.3666L2.82917 12.4304L2.93499 12.6001L3.03728 12.5363L2.93147 12.3666ZM4.55431 11.3877C4.02264 11.6823 3.21518 12.1887 2.93124 12.3668L3.03751 12.5362C3.3229 12.3572 4.12531 11.8541 4.65125 11.5626L4.55431 11.3877ZM5.81873 10.3894C5.4484 10.792 5.02325 11.1276 4.55428 11.3877L4.65128 11.5626C5.13935 11.2919 5.58138 10.9429 5.96593 10.5248L5.81873 10.3894ZM6.11385 10.068L5.81868 10.3895L5.96599 10.5247L6.26115 10.2033L6.11385 10.068ZM6.2875 12.7433V10.1357H6.0875V12.7433H6.2875ZM3.50281 14.1819L6.23181 12.833L6.14319 12.6537L3.41418 14.0026L3.50281 14.1819ZM2.77275 15.0378C2.88817 14.666 3.15458 14.3539 3.50277 14.1819L3.41422 14.0026C3.0168 14.1989 2.71339 14.5544 2.58174 14.9785L2.77275 15.0378ZM2.88904 16.1572C2.69935 15.818 2.65707 15.4098 2.77274 15.0378L2.58176 14.9784C2.44987 15.4026 2.49791 15.8675 2.71448 16.2548L2.88904 16.1572ZM4.16284 16.9C3.62448 16.9 3.14926 16.6225 2.88903 16.1572L2.71448 16.2548C3.01041 16.7839 3.55277 17.1 4.16284 17.1V16.9ZM13.8372 16.9H4.16284V17.1H13.8372V16.9ZM15.0991 16.1782C14.8364 16.6302 14.3656 16.9 13.8372 16.9V17.1C14.4361 17.1 14.9732 16.7929 15.272 16.2787L15.0991 16.1782ZM15.2312 15.0509C15.3445 15.4273 15.2963 15.8385 15.0991 16.1782L15.272 16.2787C15.4971 15.8911 15.552 15.4226 15.4227 14.9933L15.2312 15.0509ZM14.4979 14.1823C14.8504 14.3568 15.1177 14.6735 15.2311 15.0509L15.4227 14.9933C15.2934 14.563 14.9889 14.2022 14.5866 14.003L14.4979 14.1823ZM11.7682 12.8331L14.4979 14.1823L14.5865 14.003L11.8568 12.6538L11.7682 12.8331ZM11.7125 10.1356V12.7434H11.9125V10.1356H11.7125ZM12.1911 10.3997L11.8861 10.0679L11.7389 10.2032L12.0438 10.5351L12.1911 10.3997ZM13.4457 11.3878C12.9766 11.1275 12.5544 10.7951 12.1911 10.3997L12.0438 10.5351C12.4217 10.9462 12.8608 11.292 13.3487 11.5627L13.4457 11.3878ZM15.0631 12.3633C14.774 12.182 13.9761 11.6818 13.4457 11.3878L13.3487 11.5627C13.8735 11.8535 14.6664 12.3506 14.9569 12.5328L15.0631 12.3633ZM15.1713 12.4308L15.0629 12.3632L14.9571 12.5329L15.0655 12.6005L15.1713 12.4308ZM16.563 12.2506C16.1918 12.6223 15.6184 12.6936 15.1691 12.4294L15.0677 12.6018C15.5954 12.912 16.2687 12.8283 16.7045 12.392L16.563 12.2506ZM16.4505 10.5251C17.0057 10.9549 17.05 11.7637 16.5631 12.2506L16.7045 12.392C17.2762 11.8203 17.2238 10.8708 16.5729 10.367L16.4505 10.5251ZM9.93755 6.52354L8.06255 6.52262L8.06245 6.72262L9.93745 6.72354L9.93755 6.52354ZM10.0375 7.56244V6.62354H9.8375V7.56244H10.0375ZM9 8.59994C9.57207 8.59994 10.0375 8.13464 10.0375 7.56244H9.8375C9.8375 8.02417 9.46163 8.39994 9 8.39994V8.59994ZM7.9625 7.56244C7.9625 8.13556 8.42695 8.59994 9 8.59994V8.39994C8.5374 8.39994 8.1625 8.02509 8.1625 7.56244H7.9625ZM7.9625 6.62262V7.56244H8.1625V6.62262H7.9625ZM6.81245 6.72201L7.43745 6.72231L7.43755 6.52231L6.81255 6.52201L6.81245 6.72201ZM6.9125 12.625V6.62201H6.7125V12.625H6.9125ZM11.1875 12.525H6.8125V12.725H11.1875V12.525ZM11.0875 9.4375V12.625H11.2875V9.4375H11.0875ZM11.0875 6.62421V9.4375H11.2875V6.62421H11.0875ZM10.5625 6.7239L11.1875 6.72421L11.1875 6.52421L10.5625 6.5239L10.5625 6.7239ZM10.6625 7.5625V6.6239H10.4625V7.5625H10.6625ZM9 9.225C9.9168 9.225 10.6625 8.47924 10.6625 7.5625H10.4625C10.4625 8.36879 9.80634 9.025 9 9.025V9.225ZM7.3375 7.5625C7.3375 8.48088 8.08149 9.225 9 9.225V9.025C8.19195 9.025 7.5375 8.37044 7.5375 7.5625H7.3375ZM7.3375 6.62231V7.5625H7.5375V6.62231H7.3375ZM5.50651 10.1005L5.50846 10.0981L5.35385 9.97124L5.35189 9.97362L5.50651 10.1005ZM4.34831 11.0159C4.77631 10.7785 5.16486 10.4719 5.50277 10.1048L5.35563 9.96932C5.03192 10.321 4.66022 10.6142 4.2513 10.841L4.34831 11.0159ZM2.6853 12.0194C2.93548 11.8621 3.79258 11.3238 4.34827 11.0159L4.25134 10.841C3.68984 11.1521 2.8277 11.6936 2.57886 11.85L2.6853 12.0194ZM2.6177 12.0616L2.68508 12.0195L2.57908 11.8499L2.5117 11.892L2.6177 12.0616ZM1.73734 11.9499C1.97038 12.1833 2.33159 12.2299 2.61539 12.063L2.514 11.8906C2.30904 12.0112 2.04769 11.9777 1.87887 11.8086L1.73734 11.9499ZM1.78468 10.8813C1.44928 11.1639 1.44424 11.657 1.73741 11.95L1.8788 11.8085C1.66611 11.596 1.67035 11.2392 1.91356 11.0342L1.78468 10.8813ZM2.71837 10.3767C2.29946 10.6043 1.93456 10.8023 1.80387 10.8686L1.89437 11.0469C2.02833 10.979 2.39683 10.779 2.81386 10.5524L2.71837 10.3767ZM2.74002 10.365L2.71878 10.3765L2.81345 10.5526L2.83469 10.5412L2.74002 10.365ZM2.79953 10.3328L2.73971 10.3652L2.83499 10.541L2.89481 10.5086L2.79953 10.3328ZM3.59545 9.90204C3.34404 10.0373 3.06385 10.1893 2.79945 10.3328L2.89488 10.5086C3.1593 10.365 3.43917 10.2132 3.69019 10.0782L3.59545 9.90204ZM3.99849 9.68695C3.87975 9.74963 3.74254 9.823 3.59549 9.90203L3.69016 10.0782C3.83705 9.99926 3.97376 9.92616 4.09185 9.86383L3.99849 9.68695ZM4.28389 9.5391C4.21134 9.57537 4.11339 9.62626 3.99846 9.68697L4.09187 9.86381C4.20644 9.8033 4.30282 9.75324 4.37333 9.71798L4.28389 9.5391ZM4.37067 9.45903C4.34994 9.4934 4.31996 9.52111 4.28397 9.53906L4.37325 9.71802C4.44322 9.68312 4.50162 9.62916 4.54193 9.56233L4.37067 9.45903ZM5.93176 6.87733L4.37073 9.45894L4.54187 9.56242L6.10291 6.98082L5.93176 6.87733ZM5.97707 6.81124C5.96122 6.83189 5.94586 6.85396 5.9317 6.87743L6.10297 6.98072C6.11273 6.96452 6.12374 6.94863 6.13572 6.93302L5.97707 6.81124ZM5.99555 6.78787L5.97797 6.81008L6.13482 6.93418L6.1524 6.91196L5.99555 6.78787ZM6.0184 6.76167L5.99887 6.78389L6.14908 6.91594L6.16861 6.89372L6.0184 6.76167ZM6.12872 6.66312C6.0895 6.69162 6.05302 6.72398 6.01989 6.76001L6.16712 6.89538C6.19112 6.86928 6.21763 6.84574 6.24628 6.82492L6.12872 6.66312ZM6.2875 9.21167V6.74402H6.0875V9.21167H6.2875ZM5.50478 10.1023L6.26113 9.27934L6.11387 9.144L5.35752 9.967L5.50478 10.1023ZM6.8125 16.275C6.52301 16.275 6.2875 16.0394 6.2875 15.75H6.0875C6.0875 16.1498 6.41253 16.475 6.8125 16.475V16.275ZM8.0625 16.275H6.8125V16.475H8.0625V16.275ZM7.9625 15.125V16.375H8.1625V15.125H7.9625ZM6.8125 15.225H8.0625V15.025H6.8125V15.225ZM6.2875 15.75C6.2875 15.4606 6.52301 15.225 6.8125 15.225V15.025C6.41253 15.025 6.0875 15.3502 6.0875 15.75H6.2875ZM14.824 15.1733C14.7443 14.908 14.5571 14.6858 14.3095 14.5633L14.2208 14.7425C14.4185 14.8404 14.5687 15.0183 14.6325 15.2308L14.824 15.1733ZM14.7315 15.9648C14.8702 15.7262 14.9038 15.4378 14.824 15.1732L14.6325 15.2309C14.6963 15.4427 14.6693 15.6737 14.5586 15.8643L14.7315 15.9648ZM13.8372 16.475C14.2156 16.475 14.5433 16.2888 14.7315 15.9648L14.5585 15.8643C14.4068 16.1256 14.1457 16.275 13.8372 16.275V16.475ZM8.6875 16.475H13.8372V16.275H8.6875V16.475ZM8.5875 15.125V16.375H8.7875V15.125H8.5875ZM10.25 15.025H8.6875V15.225H10.25V15.025ZM10.4625 14.8125C10.4625 14.9299 10.3674 15.025 10.25 15.025V15.225C10.4778 15.225 10.6625 15.0403 10.6625 14.8125H10.4625ZM10.3959 14.6581C10.4371 14.6969 10.4625 14.7516 10.4625 14.8125H10.6625C10.6625 14.6944 10.6127 14.5877 10.5333 14.5127L10.3959 14.6581ZM10.25 14.6C10.3065 14.6 10.3578 14.622 10.3959 14.658L10.5333 14.5128C10.4596 14.4429 10.3595 14.4 10.25 14.4V14.6ZM6.8125 14.6H10.25V14.4H6.8125V14.6ZM5.6625 15.75C5.6625 15.116 6.17852 14.6 6.8125 14.6V14.4C6.06807 14.4 5.4625 15.0055 5.4625 15.75H5.6625ZM5.81722 16.3248C5.71904 16.1555 5.6625 15.9593 5.6625 15.75H5.4625C5.4625 15.9959 5.52901 16.2265 5.6442 16.4252L5.81722 16.3248ZM4.16284 16.475H5.73071V16.275H4.16284V16.475ZM3.25989 15.9498C3.44633 16.2832 3.7774 16.475 4.16284 16.475V16.275C3.84858 16.275 3.58492 16.1212 3.43445 15.8522L3.25989 15.9498ZM3.17844 15.1639C3.09708 15.4254 3.12683 15.7116 3.25986 15.9498L3.43447 15.8522C3.32825 15.6621 3.30429 15.4326 3.36941 15.2234L3.17844 15.1639ZM3.69109 14.563C3.44618 14.6839 3.25979 14.9028 3.17845 15.1639L3.3694 15.2234C3.43455 15.0142 3.5841 14.8388 3.77961 14.7423L3.69109 14.563ZM6.52869 13.1604L3.69104 14.563L3.77966 14.7423L6.61731 13.3396L6.52869 13.1604ZM11.427 13.15H6.573V13.35H11.427V13.15ZM14.3094 14.5632L11.4713 13.1604L11.3827 13.3396L14.2208 14.7425L14.3094 14.5632ZM16.1209 11.8088C15.9519 11.9779 15.6908 12.0111 15.488 11.8918L15.3866 12.0642C15.6686 12.2301 16.0295 12.1832 16.2624 11.9501L16.1209 11.8088ZM16.0864 11.0343C16.3302 11.2398 16.3331 11.5966 16.1209 11.8087L16.2624 11.9502C16.5546 11.658 16.5517 11.1649 16.2153 10.8814L16.0864 11.0343ZM15.1715 10.5446C15.5956 10.7748 15.9714 10.9789 16.1056 11.047L16.1962 10.8687C16.0652 10.8022 15.693 10.6001 15.2669 10.3688L15.1715 10.5446ZM13.6265 9.71806C13.905 9.85722 14.585 10.2263 15.1715 10.5446L15.2669 10.3688C14.6826 10.0517 13.9983 9.68026 13.7158 9.53914L13.6265 9.71806ZM13.458 9.56269C13.4985 9.62923 13.5567 9.6831 13.6263 9.718L13.7159 9.5392C13.6801 9.52125 13.65 9.49345 13.6289 9.45879L13.458 9.56269ZM11.8971 6.9805L13.4579 9.56247L13.629 9.45901L12.0682 6.87704L11.8971 6.9805ZM11.7541 6.82642C11.8111 6.8674 11.8599 6.91951 11.8973 6.9808L12.0681 6.87675C12.0165 6.79216 11.9492 6.72037 11.8709 6.66406L11.7541 6.82642ZM11.9125 9.21191V6.74524H11.7125V9.21191H11.9125ZM12.6513 9.97689L11.8861 9.14425L11.7389 9.27958L12.504 10.1122L12.6513 9.97689ZM13.7487 10.8411C13.3384 10.6135 12.9692 10.3227 12.6513 9.97687L12.504 10.1122C12.8365 10.4738 13.2226 10.778 13.6517 11.016L13.7487 10.8411ZM14.7001 11.4022C14.3859 11.21 14.0321 10.9981 13.7487 10.8411L13.6517 11.0161C13.9313 11.1709 14.2821 11.3809 14.5958 11.5728L14.7001 11.4022ZM15.4892 11.8926C15.4469 11.8669 15.1134 11.6551 14.7002 11.4022L14.5957 11.5728C14.9974 11.8186 15.3495 12.0417 15.3853 12.0635L15.4892 11.8926Z" fill="white"/>
</g>
<g id="Shape_3">
<path fill-rule="evenodd" clip-rule="evenodd" d="M6.8125 3.1875C6.8125 1.98132 7.7937 1 9 1C10.2063 1 11.1875 1.98132 11.1875 3.1875C11.1875 4.39368 10.2061 5.375 9 5.375C7.7937 5.375 6.8125 4.39368 6.8125 3.1875ZM7.4375 3.1875C7.4375 4.04907 8.13843 4.75 9 4.75C9.86157 4.75 10.5625 4.04907 10.5625 3.1875C10.5625 2.32593 9.86157 1.625 9 1.625C8.13843 1.625 7.4375 2.32593 7.4375 3.1875Z" fill="white"/>
<path d="M9 0.9C7.73847 0.9 6.7125 1.9261 6.7125 3.1875H6.9125C6.9125 2.03655 7.84893 1.1 9 1.1V0.9ZM11.2875 3.1875C11.2875 1.9261 10.2615 0.9 9 0.9V1.1C10.1511 1.1 11.0875 2.03655 11.0875 3.1875H11.2875ZM9 5.475C10.2613 5.475 11.2875 4.44891 11.2875 3.1875H11.0875C11.0875 4.33844 10.1508 5.275 9 5.275V5.475ZM6.7125 3.1875C6.7125 4.4489 7.73847 5.475 9 5.475V5.275C7.84893 5.275 6.9125 4.33845 6.9125 3.1875H6.7125ZM9 4.65C8.19366 4.65 7.5375 3.99384 7.5375 3.1875H7.3375C7.3375 4.1043 8.0832 4.85 9 4.85V4.65ZM10.4625 3.1875C10.4625 3.99384 9.80634 4.65 9 4.65V4.85C9.9168 4.85 10.6625 4.1043 10.6625 3.1875H10.4625ZM9 1.725C9.80634 1.725 10.4625 2.38116 10.4625 3.1875H10.6625C10.6625 2.2707 9.9168 1.525 9 1.525V1.725ZM7.5375 3.1875C7.5375 2.38116 8.19366 1.725 9 1.725V1.525C8.0832 1.525 7.3375 2.2707 7.3375 3.1875H7.5375Z" fill="white"/>
</g>
</g>
</g>
</svg>
