<svg width="18" height="18" viewBox="0 0 18 18" fill="none" xmlns="http://www.w3.org/2000/svg">
<g id="Health">
<rect id="Rectangle 4 Copy 12" width="18" height="18" fill="#F4F7FB" fill-opacity="0.01"/>
<g id="yoga">
<path id="Shape" d="M11.721 14.5916C11.5991 14.4694 11.401 14.4694 11.2791 14.5916C11.157 14.7135 11.157 14.9116 11.2791 15.0335C11.401 15.1556 11.5991 15.1556 11.721 15.0335C11.8432 14.9116 11.8432 14.7135 11.721 14.5916Z" fill="#0C49CD" stroke="#0C49CD" stroke-width="0.2"/>
<g id="Shape_2">
<path fill-rule="evenodd" clip-rule="evenodd" d="M16.5116 10.446C16.5055 10.4413 14.4478 9.32404 14.0321 9.11078L12.5173 6.60529C12.3107 6.26416 11.9532 6.04272 11.556 6.00647C11.5221 6.00037 11.4995 6.00061 11.4757 6.0025L6.50012 6C6.49451 5.99951 6.49023 5.99988 6.4856 6.00024L6.48108 6.00055L6.47192 6.0014L6.46545 6.00201C6.06091 6.03168 5.69434 6.2561 5.48254 6.60553L3.96802 9.11078C3.38647 9.40906 1.73157 10.3216 1.54443 10.4114C1.52454 10.421 1.50586 10.4326 1.4884 10.446C0.883423 10.9143 0.838501 11.7936 1.36609 12.3212C1.76831 12.7238 2.39148 12.8038 2.88208 12.5153C2.93396 12.4847 3.96765 11.8271 4.60278 11.4752C5.0813 11.2098 5.51501 10.8674 5.89221 10.4571L6.08813 10.2437L6.1875 10.1357V12.7433L3.4585 14.0923C3.08569 14.2764 2.8009 14.6102 2.67725 15.0081C2.55347 15.4062 2.59875 15.8428 2.80164 16.206C3.07971 16.7032 3.58862 17 4.16284 17H13.8372C14.4008 17 14.9049 16.7115 15.1855 16.2285C15.3967 15.8648 15.4482 15.4249 15.3268 15.0221C15.2057 14.6182 14.9198 14.2795 14.5422 14.0927L11.8125 12.7434V10.1356L12.1174 10.4674C12.488 10.8707 12.9186 11.2097 13.3972 11.4752C14.035 11.8287 15.0646 12.4838 15.1185 12.5156C15.6068 12.8028 16.2302 12.7253 16.6338 12.3213C17.1631 11.792 17.1147 10.9128 16.5116 10.446ZM8.0625 6.62262L9.9375 6.62354V7.56244C9.9375 8.07941 9.51697 8.49994 9 8.49994C8.48218 8.49994 8.0625 8.08032 8.0625 7.56244V6.62262ZM7.4375 6.62231L6.8125 6.62201V12.625H11.1875V9.4375V6.62421L10.5625 6.6239V7.5625C10.5625 8.42401 9.86157 9.125 9 9.125C8.1366 9.125 7.4375 8.42566 7.4375 7.5625V6.62231ZM5.43115 10.0347L5.4292 10.037C5.09827 10.3964 4.71826 10.6964 4.29968 10.9285C3.66064 11.2827 2.6272 11.9385 2.5647 11.9768C2.32019 12.1205 2.00916 12.0805 1.80811 11.8793C1.5553 11.6265 1.55994 11.2015 1.84924 10.9578C2.16711 10.7963 3.84155 9.87195 4.32874 9.62854C4.38159 9.60211 4.42578 9.56128 4.45642 9.51068L6.01721 6.92908C6.06177 6.85547 6.12012 6.79309 6.1875 6.74402V9.21167L5.43115 10.0347ZM6.1875 15.75C6.1875 16.0946 6.4679 16.375 6.8125 16.375H8.0625V15.125H6.8125C6.4679 15.125 6.1875 15.4054 6.1875 15.75ZM14.2651 14.6529C14.4878 14.7631 14.6566 14.9631 14.7283 15.202C14.8 15.4402 14.7697 15.7 14.645 15.9146C14.4751 16.2072 14.1805 16.375 13.8372 16.375H8.6875V15.125H10.25C10.4225 15.125 10.5625 14.9851 10.5625 14.8125C10.5625 14.7461 10.5417 14.6845 10.5065 14.6339C10.45 14.553 10.3561 14.5 10.25 14.5H6.8125C6.12317 14.5 5.5625 15.0607 5.5625 15.75C5.5625 15.9776 5.6239 16.191 5.73059 16.375H4.16272C3.81287 16.375 3.51562 16.2022 3.34717 15.901C3.28455 15.789 3.24744 15.665 3.23669 15.5386C3.22693 15.4233 3.23914 15.306 3.27405 15.1937C3.34705 14.9585 3.51514 14.7614 3.73523 14.6526L6.573 13.25H11.4269L14.2651 14.6529ZM15.4373 11.978C15.6798 12.1206 15.9907 12.0806 16.1918 11.8795C16.444 11.6273 16.4409 11.2023 16.1508 10.9578C15.8357 10.7978 14.1553 9.87042 13.6713 9.6286C13.6184 9.60217 13.5741 9.56134 13.5436 9.51074C13.2426 9.01324 11.9825 6.92877 11.9825 6.92877C11.9384 6.85583 11.8801 6.79388 11.8125 6.74524V9.21191L12.5776 10.0446C12.9027 10.3983 13.2805 10.6957 13.7003 10.9286C14.3469 11.287 15.368 11.936 15.4373 11.978Z" fill="#0C49CD"/>
<path d="M14.0321 9.11078L13.9465 9.16252L13.9612 9.1868L13.9865 9.19975L14.0321 9.11078ZM16.5116 10.446L16.4501 10.5249L16.4504 10.5251L16.5116 10.446ZM12.5173 6.60529L12.6029 6.55355L12.6029 6.55347L12.5173 6.60529ZM11.556 6.00647L11.5383 6.10526L11.5469 6.10606L11.556 6.00647ZM11.4757 6.0025L11.4757 6.10282L11.4836 6.10219L11.4757 6.0025ZM6.50012 6L6.49143 6.1L6.50007 6.1L6.50012 6ZM6.4856 6.00024L6.49234 6.10002L6.49347 6.09993L6.4856 6.00024ZM6.48108 6.00055L6.47434 5.90074L6.47179 5.90098L6.48108 6.00055ZM6.47192 6.0014L6.46263 5.90184L6.46253 5.90185L6.47192 6.0014ZM6.46545 6.00201L6.47277 6.10177L6.47485 6.10157L6.46545 6.00201ZM5.48254 6.60553L5.39703 6.5537L5.39697 6.55379L5.48254 6.60553ZM3.96802 9.11078L4.01366 9.19976L4.03891 9.1868L4.05359 9.16251L3.96802 9.11078ZM1.54443 10.4114L1.5876 10.5016L1.58771 10.5016L1.54443 10.4114ZM1.4884 10.446L1.42726 10.3669L1.4272 10.367L1.4884 10.446ZM1.36609 12.3212L1.43683 12.2505L1.4368 12.2505L1.36609 12.3212ZM2.88208 12.5153L2.93277 12.6015L2.93286 12.6014L2.88208 12.5153ZM4.60278 11.4752L4.65126 11.5626L4.65128 11.5626L4.60278 11.4752ZM5.89221 10.4571L5.96583 10.5248L5.96587 10.5247L5.89221 10.4571ZM6.08813 10.2437L6.01453 10.176L6.01448 10.1761L6.08813 10.2437ZM6.1875 10.1357H6.2875V9.87924L6.1139 10.068L6.1875 10.1357ZM6.1875 12.7433L6.23181 12.833L6.2875 12.8055V12.7433H6.1875ZM3.4585 14.0923L3.50277 14.1819L3.50281 14.1819L3.4585 14.0923ZM2.67725 15.0081L2.77274 15.0378L2.77274 15.0378L2.67725 15.0081ZM2.80164 16.206L2.71433 16.2548L2.71436 16.2548L2.80164 16.206ZM15.1855 16.2285L15.272 16.2787L15.272 16.2787L15.1855 16.2285ZM15.3268 15.0221L15.231 15.0508L15.231 15.051L15.3268 15.0221ZM14.5422 14.0927L14.5866 14.003L14.5865 14.003L14.5422 14.0927ZM11.8125 12.7434H11.7125V12.8055L11.7682 12.8331L11.8125 12.7434ZM11.8125 10.1356L11.8861 10.0679L11.7125 9.87894V10.1356H11.8125ZM12.1174 10.4674L12.0438 10.5351L12.0438 10.5351L12.1174 10.4674ZM13.3972 11.4752L13.3487 11.5627L13.3487 11.5627L13.3972 11.4752ZM15.1185 12.5156L15.0678 12.6018L15.0678 12.6018L15.1185 12.5156ZM16.6338 12.3213L16.5631 12.2506L16.563 12.2506L16.6338 12.3213ZM9.9375 6.62354H10.0375V6.52358L9.93755 6.52354L9.9375 6.62354ZM8.0625 6.62262L8.06255 6.52262L7.9625 6.52257V6.62262H8.0625ZM6.8125 6.62201L6.81255 6.52201L6.7125 6.52196V6.62201H6.8125ZM7.4375 6.62231H7.5375V6.52236L7.43755 6.52231L7.4375 6.62231ZM6.8125 12.625H6.7125V12.725H6.8125V12.625ZM11.1875 12.625V12.725H11.2875V12.625H11.1875ZM11.1875 6.62421H11.2875V6.52426L11.1875 6.52421L11.1875 6.62421ZM10.5625 6.6239L10.5625 6.5239L10.4625 6.52385V6.6239H10.5625ZM5.4292 10.037L5.50288 10.1049L5.50651 10.1005L5.4292 10.037ZM5.43115 10.0347L5.35741 9.9669L5.35385 9.97124L5.43115 10.0347ZM4.29968 10.9285L4.34816 11.0159L4.34818 11.0159L4.29968 10.9285ZM2.5647 11.9768L2.61538 12.063L2.61692 12.0621L2.5647 11.9768ZM1.80811 11.8793L1.87885 11.8086L1.87882 11.8086L1.80811 11.8793ZM1.84924 10.9578L1.80396 10.8686L1.79365 10.8738L1.78481 10.8813L1.84924 10.9578ZM4.32874 9.62854L4.37343 9.718L4.37346 9.71798L4.32874 9.62854ZM4.45642 9.51068L4.54196 9.56248L4.542 9.56242L4.45642 9.51068ZM6.01721 6.92908L5.93166 6.87729L5.93164 6.87734L6.01721 6.92908ZM6.1875 6.74402H6.2875V6.54748L6.12863 6.66318L6.1875 6.74402ZM6.1875 9.21167L6.26113 9.27934L6.2875 9.25064V9.21167H6.1875ZM8.0625 16.375V16.475H8.1625V16.375H8.0625ZM8.0625 15.125H8.1625V15.025H8.0625V15.125ZM14.7283 15.202L14.6325 15.2308L14.6325 15.2309L14.7283 15.202ZM14.2651 14.6529L14.3095 14.5633L14.3094 14.5632L14.2651 14.6529ZM14.645 15.9146L14.5585 15.8643L14.5585 15.8643L14.645 15.9146ZM8.6875 16.375H8.5875V16.475H8.6875V16.375ZM8.6875 15.125V15.025H8.5875V15.125H8.6875ZM10.5065 14.6339L10.5885 14.5767L10.5885 14.5767L10.5065 14.6339ZM5.73059 16.375V16.475H5.90416L5.8171 16.3248L5.73059 16.375ZM3.34717 15.901L3.25988 15.9498L3.25989 15.9498L3.34717 15.901ZM3.23669 15.5386L3.13705 15.5471L3.13705 15.5471L3.23669 15.5386ZM3.27405 15.1937L3.36954 15.2234L3.36955 15.2233L3.27405 15.1937ZM3.73523 14.6526L3.77951 14.7423L3.77954 14.7423L3.73523 14.6526ZM6.573 13.25V13.15H6.54963L6.52869 13.1604L6.573 13.25ZM11.4269 13.25L11.4712 13.1604L11.4502 13.15H11.4269V13.25ZM16.1918 11.8795L16.1211 11.8087L16.1211 11.8088L16.1918 11.8795ZM15.4373 11.978L15.3853 12.0635L15.3866 12.0642L15.4373 11.978ZM16.1508 10.9578L16.2152 10.8814L16.2064 10.8739L16.196 10.8687L16.1508 10.9578ZM13.6713 9.6286L13.6265 9.71804L13.6266 9.71806L13.6713 9.6286ZM13.5436 9.51074L13.6292 9.4591L13.6291 9.45897L13.5436 9.51074ZM11.9825 6.92877L12.0681 6.87704L12.0681 6.87695L11.9825 6.92877ZM11.8125 6.74524L11.8709 6.66406L11.7125 6.55012V6.74524H11.8125ZM11.8125 9.21191H11.7125V9.25088L11.7389 9.27958L11.8125 9.21191ZM12.5776 10.0446L12.504 10.1122L12.504 10.1122L12.5776 10.0446ZM13.7003 10.9286L13.6518 11.016L13.6518 11.016L13.7003 10.9286ZM13.9865 9.19975C14.1931 9.30576 14.8102 9.63772 15.3779 9.94457C15.6614 10.0978 15.9321 10.2446 16.1323 10.3533C16.2324 10.4076 16.3149 10.4525 16.3725 10.4839C16.4013 10.4996 16.4239 10.5119 16.4393 10.5203C16.447 10.5245 16.4528 10.5277 16.4567 10.5299C16.4587 10.531 16.46 10.5317 16.4608 10.5321C16.4612 10.5324 16.4611 10.5324 16.4609 10.5322C16.4608 10.5322 16.4602 10.5318 16.4595 10.5314C16.4591 10.5311 16.458 10.5305 16.4573 10.53C16.4562 10.5293 16.4525 10.5267 16.4501 10.5249L16.5731 10.3672C16.5706 10.3653 16.567 10.3628 16.5657 10.362C16.565 10.3615 16.5639 10.3608 16.5634 10.3605C16.5625 10.3599 16.5617 10.3595 16.5613 10.3592C16.5604 10.3587 16.5596 10.3583 16.5589 10.3579C16.5575 10.3571 16.5556 10.3561 16.5535 10.3549C16.5493 10.3525 16.5431 10.3492 16.5354 10.3449C16.5198 10.3364 16.4971 10.324 16.4682 10.3082C16.4105 10.2768 16.3279 10.2319 16.2278 10.1775C16.0275 10.0687 15.7566 9.92194 15.473 9.76863C14.9063 9.46234 14.2868 9.12906 14.0778 9.02181L13.9865 9.19975ZM12.4318 6.65702L13.9465 9.16252L14.1177 9.05904L12.6029 6.55355L12.4318 6.65702ZM11.5469 6.10606C11.9129 6.13945 12.2418 6.3434 12.4318 6.6571L12.6029 6.55347C12.3796 6.18492 11.9936 5.946 11.5651 5.90688L11.5469 6.10606ZM11.4836 6.10219C11.5007 6.10083 11.5145 6.1006 11.5383 6.10489L11.5737 5.90805C11.5297 5.90013 11.4983 5.90039 11.4678 5.90282L11.4836 6.10219ZM6.50007 6.1L11.4757 6.1025L11.4758 5.9025L6.50017 5.9L6.50007 6.1ZM6.49347 6.09993C6.49853 6.09953 6.49513 6.09994 6.49146 6.09962L6.50879 5.90038C6.49388 5.89908 6.48194 5.90022 6.47773 5.90055L6.49347 6.09993ZM6.48782 6.10032L6.49234 6.10002L6.47885 5.90047L6.47434 5.90078L6.48782 6.10032ZM6.48122 6.10097L6.49037 6.10012L6.47179 5.90098L6.46263 5.90184L6.48122 6.10097ZM6.47485 6.10157L6.48132 6.10096L6.46253 5.90185L6.45606 5.90246L6.47485 6.10157ZM5.56806 6.65736C5.76313 6.33552 6.10062 6.12903 6.47277 6.10175L6.45814 5.90228C6.0212 5.93432 5.62554 6.17668 5.39703 6.5537L5.56806 6.65736ZM4.05359 9.16251L5.56812 6.65726L5.39697 6.55379L3.88244 9.05904L4.05359 9.16251ZM1.58771 10.5016C1.68425 10.4552 2.14859 10.2025 2.65602 9.92716C3.16632 9.65025 3.72418 9.34823 4.01366 9.19976L3.92238 9.0218C3.63031 9.1716 3.06994 9.475 2.56063 9.75138C2.04843 10.0293 1.59175 10.2778 1.50115 10.3213L1.58771 10.5016ZM1.54955 10.5252C1.56161 10.5159 1.57428 10.508 1.5876 10.5016L1.50127 10.3212C1.47479 10.3339 1.45011 10.3493 1.42726 10.3669L1.54955 10.5252ZM1.4368 12.2505C0.951423 11.7651 0.992704 10.9562 1.54961 10.5251L1.4272 10.367C0.774142 10.8724 0.725578 11.8221 1.29538 12.3919L1.4368 12.2505ZM2.83139 12.4291C2.38012 12.6944 1.80688 12.6209 1.43683 12.2505L1.29535 12.3918C1.72974 12.8266 2.40284 12.9131 2.93277 12.6015L2.83139 12.4291ZM4.55431 11.3877C3.91934 11.7396 2.87543 12.4031 2.8313 12.4291L2.93286 12.6014C2.99249 12.5663 4.01596 11.9147 4.65126 11.5626L4.55431 11.3877ZM5.81859 10.3894C5.44852 10.792 5.02325 11.1276 4.55428 11.3877L4.65128 11.5626C5.13934 11.2919 5.5815 10.9429 5.96583 10.5248L5.81859 10.3894ZM6.01448 10.1761L5.81855 10.3895L5.96587 10.5247L6.16179 10.3113L6.01448 10.1761ZM6.1139 10.068L6.01453 10.176L6.16174 10.3114L6.2611 10.2034L6.1139 10.068ZM6.2875 12.7433V10.1357H6.0875V12.7433H6.2875ZM3.50281 14.1819L6.23181 12.833L6.14319 12.6537L3.41418 14.0026L3.50281 14.1819ZM2.77274 15.0378C2.88829 14.666 3.1546 14.3539 3.50277 14.1819L3.41422 14.0026C3.01679 14.1989 2.71352 14.5544 2.58175 14.9784L2.77274 15.0378ZM2.88894 16.1572C2.69946 15.818 2.65707 15.4098 2.77274 15.0378L2.58176 14.9784C2.44986 15.4026 2.49805 15.8675 2.71433 16.2548L2.88894 16.1572ZM4.16284 16.9C3.62447 16.9 3.14913 16.6224 2.88891 16.1572L2.71436 16.2548C3.01029 16.7839 3.55278 17.1 4.16284 17.1V16.9ZM13.8372 16.9H4.16284V17.1H13.8372V16.9ZM15.0991 16.1782C14.8365 16.6302 14.3655 16.9 13.8372 16.9V17.1C14.436 17.1 14.9733 16.7929 15.272 16.2787L15.0991 16.1782ZM15.231 15.051C15.3445 15.4273 15.2963 15.8385 15.0991 16.1782L15.272 16.2787C15.4971 15.8911 15.552 15.4226 15.4225 14.9932L15.231 15.051ZM14.4979 14.1823C14.8506 14.3568 15.1179 14.6735 15.231 15.0508L15.4226 14.9934C15.2935 14.563 14.989 14.2022 14.5866 14.003L14.4979 14.1823ZM11.7682 12.8331L14.4979 14.1823L14.5865 14.003L11.8568 12.6538L11.7682 12.8331ZM11.7125 10.1356V12.7434H11.9125V10.1356H11.7125ZM12.1911 10.3997L11.8861 10.0679L11.7389 10.2032L12.0438 10.5351L12.1911 10.3997ZM13.4457 11.3878C12.9765 11.1275 12.5544 10.7951 12.1911 10.3997L12.0438 10.5351C12.4217 10.9462 12.8607 11.292 13.3487 11.5627L13.4457 11.3878ZM15.1693 12.4295C15.1231 12.4023 14.0833 11.7412 13.4457 11.3878L13.3487 11.5627C13.9867 11.9163 15.006 12.5654 15.0678 12.6018L15.1693 12.4295ZM16.563 12.2506C16.1918 12.6223 15.6183 12.6936 15.1692 12.4294L15.0678 12.6018C15.5953 12.912 16.2687 12.8283 16.7045 12.392L16.563 12.2506ZM16.4504 10.5251C17.0057 10.9549 17.05 11.7637 16.5631 12.2506L16.7045 12.392C17.2762 11.8203 17.2238 10.8708 16.5728 10.367L16.4504 10.5251ZM9.93755 6.52354L8.06255 6.52262L8.06245 6.72262L9.93745 6.72354L9.93755 6.52354ZM10.0375 7.56244V6.62354H9.8375V7.56244H10.0375ZM9 8.59994C9.5722 8.59994 10.0375 8.13464 10.0375 7.56244H9.8375C9.8375 8.02418 9.46174 8.39994 9 8.39994V8.59994ZM7.9625 7.56244C7.9625 8.13556 8.42695 8.59994 9 8.59994V8.39994C8.5374 8.39994 8.1625 8.02509 8.1625 7.56244H7.9625ZM7.9625 6.62262V7.56244H8.1625V6.62262H7.9625ZM6.81245 6.72201L7.43745 6.72231L7.43755 6.52231L6.81255 6.52201L6.81245 6.72201ZM6.9125 12.625V6.62201H6.7125V12.625H6.9125ZM11.1875 12.525H6.8125V12.725H11.1875V12.525ZM11.0875 9.4375V12.625H11.2875V9.4375H11.0875ZM11.0875 6.62421V9.4375H11.2875V6.62421H11.0875ZM10.5625 6.7239L11.1875 6.72421L11.1875 6.52421L10.5625 6.5239L10.5625 6.7239ZM10.6625 7.5625V6.6239H10.4625V7.5625H10.6625ZM9 9.225C9.9168 9.225 10.6625 8.47924 10.6625 7.5625H10.4625C10.4625 8.36879 9.80634 9.025 9 9.025V9.225ZM7.3375 7.5625C7.3375 8.48088 8.08136 9.225 9 9.225V9.025C8.19184 9.025 7.5375 8.37044 7.5375 7.5625H7.3375ZM7.3375 6.62231V7.5625H7.5375V6.62231H7.3375ZM5.50651 10.1005L5.50846 10.0981L5.35385 9.97124L5.35189 9.97362L5.50651 10.1005ZM4.34818 11.0159C4.77631 10.7785 5.16474 10.4719 5.50276 10.1048L5.35564 9.96931C5.0318 10.321 4.66021 10.6142 4.25119 10.841L4.34818 11.0159ZM2.61692 12.0621C2.68244 12.022 3.71163 11.3687 4.34816 11.0159L4.25121 10.841C3.60966 11.1966 2.57196 11.8551 2.51248 11.8915L2.61692 12.0621ZM1.73736 11.95C1.97051 12.1833 2.33145 12.2299 2.61538 12.063L2.51402 11.8906C2.30893 12.0112 2.0478 11.9777 1.87885 11.8086L1.73736 11.95ZM1.78481 10.8813C1.4494 11.1639 1.44437 11.657 1.73739 11.95L1.87882 11.8086C1.66623 11.596 1.67047 11.2392 1.91368 11.0342L1.78481 10.8813ZM4.28404 9.53908C4.03854 9.66174 3.49625 9.95473 2.97781 10.236C2.4573 10.5184 1.96129 10.7887 1.80396 10.8686L1.89453 11.0469C2.05507 10.9654 2.55521 10.6928 3.07318 10.4118C3.59323 10.1297 4.13175 9.83875 4.37343 9.718L4.28404 9.53908ZM4.37088 9.45888C4.34998 9.4934 4.31991 9.52115 4.28401 9.5391L4.37346 9.71798C4.44327 9.68308 4.50158 9.62916 4.54196 9.56248L4.37088 9.45888ZM5.93164 6.87734L4.37085 9.45894L4.542 9.56242L6.10279 6.98081L5.93164 6.87734ZM6.12863 6.66318C6.05086 6.71982 5.98331 6.79197 5.93166 6.87729L6.10276 6.98086C6.14022 6.91897 6.18938 6.86636 6.24637 6.82485L6.12863 6.66318ZM6.2875 9.21167V6.74402H6.0875V9.21167H6.2875ZM5.50478 10.1023L6.26113 9.27934L6.11387 9.144L5.35752 9.967L5.50478 10.1023ZM6.8125 16.275C6.52312 16.275 6.2875 16.0394 6.2875 15.75H6.0875C6.0875 16.1498 6.41267 16.475 6.8125 16.475V16.275ZM8.0625 16.275H6.8125V16.475H8.0625V16.275ZM7.9625 15.125V16.375H8.1625V15.125H7.9625ZM6.8125 15.225H8.0625V15.025H6.8125V15.225ZM6.2875 15.75C6.2875 15.4606 6.52312 15.225 6.8125 15.225V15.025C6.41267 15.025 6.0875 15.3502 6.0875 15.75H6.2875ZM14.8241 15.1733C14.7445 14.9079 14.5571 14.6858 14.3095 14.5633L14.2208 14.7425C14.4185 14.8404 14.5688 15.0183 14.6325 15.2308L14.8241 15.1733ZM14.7315 15.9648C14.8701 15.7262 14.9038 15.4378 14.824 15.1732L14.6325 15.2309C14.6963 15.4426 14.6692 15.6737 14.5585 15.8643L14.7315 15.9648ZM13.8372 16.475C14.2155 16.475 14.5433 16.2888 14.7315 15.9648L14.5585 15.8643C14.4069 16.1256 14.1456 16.275 13.8372 16.275V16.475ZM8.6875 16.475H13.8372V16.275H8.6875V16.475ZM8.5875 15.125V16.375H8.7875V15.125H8.5875ZM10.25 15.025H8.6875V15.225H10.25V15.025ZM10.4625 14.8125C10.4625 14.9299 10.3673 15.025 10.25 15.025V15.225C10.4777 15.225 10.6625 15.0404 10.6625 14.8125H10.4625ZM10.4244 14.6911C10.4484 14.7255 10.4625 14.7672 10.4625 14.8125H10.6625C10.6625 14.7249 10.6351 14.6435 10.5885 14.5767L10.4244 14.6911ZM10.25 14.6C10.322 14.6 10.3858 14.6358 10.4245 14.6912L10.5885 14.5767C10.5141 14.4701 10.3902 14.4 10.25 14.4V14.6ZM6.8125 14.6H10.25V14.4H6.8125V14.6ZM5.6625 15.75C5.6625 15.116 6.1784 14.6 6.8125 14.6V14.4C6.06794 14.4 5.4625 15.0055 5.4625 15.75H5.6625ZM5.8171 16.3248C5.71894 16.1555 5.6625 15.9594 5.6625 15.75H5.4625C5.4625 15.9958 5.52887 16.2264 5.64408 16.4252L5.8171 16.3248ZM4.16272 16.475H5.73059V16.275H4.16272V16.475ZM3.25989 15.9498C3.44632 16.2832 3.77726 16.475 4.16272 16.475V16.275C3.84847 16.275 3.58493 16.1213 3.43445 15.8522L3.25989 15.9498ZM3.13705 15.5471C3.14897 15.6873 3.19015 15.8251 3.25988 15.9498L3.43445 15.8522C3.37895 15.7529 3.3459 15.6428 3.33634 15.5302L3.13705 15.5471ZM3.17856 15.164C3.13975 15.2888 3.12622 15.4191 3.13705 15.5471L3.33634 15.5302C3.32764 15.4275 3.33853 15.3231 3.36954 15.2234L3.17856 15.164ZM3.69095 14.563C3.4462 14.6839 3.25964 14.9028 3.17854 15.164L3.36955 15.2233C3.43445 15.0142 3.58407 14.8388 3.77951 14.7423L3.69095 14.563ZM6.52869 13.1604L3.69092 14.563L3.77954 14.7423L6.61731 13.3396L6.52869 13.1604ZM11.4269 13.15H6.573V13.35H11.4269V13.15ZM14.3094 14.5632L11.4712 13.1604L11.3826 13.3396L14.2208 14.7425L14.3094 14.5632ZM16.1211 11.8088C15.9519 11.9779 15.6909 12.0111 15.4879 11.8918L15.3866 12.0642C15.6687 12.2301 16.0295 12.1832 16.2625 11.9502L16.1211 11.8088ZM16.0863 11.0343C16.3302 11.2398 16.3332 11.5966 16.1211 11.8087L16.2625 11.9502C16.5547 11.6579 16.5516 11.1649 16.2152 10.8814L16.0863 11.0343ZM13.6266 9.71806C13.8667 9.83802 14.4059 10.1293 14.9267 10.4118C15.4454 10.6932 15.9463 10.9662 16.1055 11.047L16.196 10.8687C16.0401 10.7895 15.5433 10.5187 15.022 10.236C14.5029 9.95435 13.9599 9.66101 13.716 9.53914L13.6266 9.71806ZM13.4579 9.56239C13.4983 9.62929 13.5568 9.68319 13.6265 9.71804L13.716 9.53916C13.68 9.52116 13.6499 9.49339 13.6292 9.4591L13.4579 9.56239ZM11.9825 6.92877C11.897 6.9805 11.897 6.98051 11.897 6.98053C11.897 6.98054 11.897 6.98057 11.897 6.9806C11.8971 6.98066 11.8971 6.98076 11.8972 6.98088C11.8973 6.98114 11.8976 6.98151 11.8979 6.98202C11.8985 6.98302 11.8994 6.98452 11.9006 6.9865C11.903 6.99046 11.9065 6.99634 11.9112 7.00403C11.9205 7.01942 11.9342 7.04206 11.9517 7.07104C11.9867 7.12901 12.0371 7.21238 12.0985 7.31398C12.2214 7.51717 12.3883 7.79328 12.5646 8.08493C12.9172 8.66823 13.3075 9.31374 13.458 9.56251L13.6291 9.45897C13.4786 9.21025 13.0884 8.56477 12.7358 7.98146C12.5594 7.68981 12.3925 7.4137 12.2697 7.21051C12.2083 7.10892 12.1579 7.02555 12.1229 6.96758C12.1053 6.93859 12.0917 6.91596 12.0823 6.90057C12.0777 6.89288 12.0741 6.88699 12.0717 6.88304C12.0706 6.88106 12.0696 6.87956 12.069 6.87855C12.0687 6.87805 12.0685 6.87767 12.0684 6.87742C12.0683 6.87729 12.0682 6.8772 12.0682 6.87714C12.0682 6.8771 12.0681 6.87708 12.0681 6.87706C12.0681 6.87705 12.0681 6.87704 11.9825 6.92877ZM11.7541 6.82642C11.8112 6.86745 11.86 6.91953 11.897 6.98059L12.0681 6.87695C12.0167 6.79214 11.9491 6.72032 11.8709 6.66406L11.7541 6.82642ZM11.9125 9.21191V6.74524H11.7125V9.21191H11.9125ZM12.6513 9.97689L11.8861 9.14425L11.7389 9.27958L12.504 10.1122L12.6513 9.97689ZM13.7488 10.8411C13.3384 10.6135 12.9691 10.3227 12.6513 9.97689L12.504 10.1122C12.8363 10.4738 13.2226 10.778 13.6518 11.016L13.7488 10.8411ZM15.4892 11.8926C15.4237 11.8528 14.3976 11.2008 13.7488 10.8411L13.6518 11.016C14.2962 11.3733 15.3124 12.0192 15.3853 12.0635L15.4892 11.8926Z" fill="#0C49CD"/>
</g>
<g id="Shape_3">
<path fill-rule="evenodd" clip-rule="evenodd" d="M6.8125 3.1875C6.8125 1.98132 7.79382 1 9 1C10.2062 1 11.1875 1.98132 11.1875 3.1875C11.1875 4.39368 10.2062 5.375 9 5.375C7.79382 5.375 6.8125 4.39368 6.8125 3.1875ZM7.4375 3.1875C7.4375 4.04907 8.13843 4.75 9 4.75C9.86157 4.75 10.5625 4.04907 10.5625 3.1875C10.5625 2.32593 9.86157 1.625 9 1.625C8.13843 1.625 7.4375 2.32593 7.4375 3.1875Z" fill="#0C49CD"/>
<path d="M9 0.9C7.73859 0.9 6.7125 1.92609 6.7125 3.1875H6.9125C6.9125 2.03655 7.84905 1.1 9 1.1V0.9ZM11.2875 3.1875C11.2875 1.92609 10.2614 0.9 9 0.9V1.1C10.1509 1.1 11.0875 2.03655 11.0875 3.1875H11.2875ZM9 5.475C10.2614 5.475 11.2875 4.44891 11.2875 3.1875H11.0875C11.0875 4.33845 10.1509 5.275 9 5.275V5.475ZM6.7125 3.1875C6.7125 4.44891 7.73859 5.475 9 5.475V5.275C7.84905 5.275 6.9125 4.33845 6.9125 3.1875H6.7125ZM9 4.65C8.19366 4.65 7.5375 3.99384 7.5375 3.1875H7.3375C7.3375 4.1043 8.0832 4.85 9 4.85V4.65ZM10.4625 3.1875C10.4625 3.99384 9.80634 4.65 9 4.65V4.85C9.9168 4.85 10.6625 4.1043 10.6625 3.1875H10.4625ZM9 1.725C9.80634 1.725 10.4625 2.38116 10.4625 3.1875H10.6625C10.6625 2.2707 9.9168 1.525 9 1.525V1.725ZM7.5375 3.1875C7.5375 2.38116 8.19366 1.725 9 1.725V1.525C8.0832 1.525 7.3375 2.2707 7.3375 3.1875H7.5375Z" fill="#0C49CD"/>
</g>
</g>
</g>
</svg>
