<svg width="28" height="28" viewBox="0 0 28 28" fill="none" xmlns="http://www.w3.org/2000/svg">
<path d="M14 27C21.1797 27 27 21.1797 27 14C27 6.8203 21.1797 1 14 1C6.8203 1 1 6.8203 1 14C1 21.1797 6.8203 27 14 27Z" fill="#8AD601" stroke="white" stroke-width="2"/>
<path fill-rule="evenodd" clip-rule="evenodd" d="M13.3032 13.4514L11.1056 12.9122C10.7327 12.8248 10.1489 12.6743 10.1489 11.9607C10.1489 11.1458 11.0055 10.8707 11.7262 10.8707C13.3657 10.8707 13.5148 11.8355 13.5641 12.2481H14.61V13.9439C14.2267 13.7174 13.7728 13.5708 13.3032 13.4514ZM12.1102 18.8745C12.5819 18.8745 13.742 18.7904 14.6094 18.1518V18.6371H16.3606L16.3608 16.5072L17.0937 15.743L18.6831 18.6371H20.7826L18.3733 14.5032L20.7206 11.8973H18.5715L16.3608 14.4534V9.54217H14.61V10.3189C14.0754 9.74306 13.2106 9.30435 11.8628 9.30435C8.94416 9.30435 8.39722 11.096 8.39722 12.0978C8.39722 13.476 9.13017 14.2406 10.4098 14.5536L12.223 15.0039C13.1793 15.2417 13.8627 15.4173 13.8627 16.1319C13.8627 17.0843 12.8686 17.3092 11.9744 17.3092C10.335 17.3092 10.0615 16.3446 10.0615 15.8307H8.26086C8.26086 16.9581 8.8318 18.8745 12.1102 18.8745Z" fill="white"/>
</svg>
