<svg width="18" height="18" viewBox="0 0 18 18" fill="none" xmlns="http://www.w3.org/2000/svg">
<g id="HR">
<rect id="Rectangle 4 Copy 35" width="18" height="18" fill="#F4F7FB" fill-opacity="0.01"/>
<g id="management">
<g id="Shape">
<path fill-rule="evenodd" clip-rule="evenodd" d="M10.3894 5.12595H10.5181C11.7932 5.12595 12.8306 6.1633 12.8306 7.43845V9C12.8306 9.17261 12.6907 9.3125 12.5181 9.3125H5.48206C5.30945 9.3125 5.16956 9.17261 5.16956 9V7.43845C5.16956 6.1633 6.20691 5.12595 7.48206 5.12595H7.61072C7.31799 4.79709 7.13965 4.36432 7.13965 3.8905V3.23303V2.92886V2.86044C7.13965 1.83459 7.97424 1 9 1C10.0259 1 10.8605 1.83459 10.8605 2.86047V2.92889V3.23306V3.8905C10.8605 4.36435 10.6821 4.79712 10.3894 5.12595ZM10.2222 2.67923C10.1343 2.08359 9.61975 1.625 9 1.625C8.31885 1.625 7.76465 2.17923 7.76465 2.86044V2.92053H8.20898C8.62073 2.92053 9.00854 2.73956 9.27295 2.42398C9.37097 2.30704 9.53918 2.27789 9.67078 2.35526L10.2222 2.67923ZM7.76465 3.54556H8.20898C8.71606 3.54556 9.198 3.35632 9.56665 3.01901L10.2355 3.41193V3.89053C10.2355 4.57178 9.68127 5.12598 9 5.12598C8.31885 5.12598 7.76465 4.57172 7.76465 3.89053V3.54556ZM5.79456 7.43845V8.6875H12.2056V7.43845C12.2056 6.50793 11.4485 5.75095 10.5181 5.75095H9.3125V6.375C9.3125 6.54761 9.17261 6.6875 9 6.6875C8.82751 6.6875 8.6875 6.54761 8.6875 6.375V5.75095H7.48206C6.55164 5.75095 5.79456 6.50793 5.79456 7.43845Z" fill="#0C49CD"/>
<path d="M10.3894 5.12595L10.3147 5.05945L10.1665 5.22595H10.3894V5.12595ZM7.61072 5.12595V5.22595H7.83361L7.68541 5.05946L7.61072 5.12595ZM10.2222 2.67923L10.1715 2.76545L10.3516 2.87125L10.3211 2.66463L10.2222 2.67923ZM7.76465 2.92053H7.66465V3.02053H7.76465V2.92053ZM9.27295 2.42398L9.19631 2.35974L9.1963 2.35976L9.27295 2.42398ZM9.67078 2.35526L9.6201 2.44146L9.62012 2.44147L9.67078 2.35526ZM7.76465 3.54556V3.44556H7.66465V3.54556H7.76465ZM9.56665 3.01901L9.6173 2.93279L9.55363 2.89538L9.49915 2.94524L9.56665 3.01901ZM10.2355 3.41193H10.3355V3.35469L10.2861 3.3257L10.2355 3.41193ZM5.79456 8.6875H5.69456V8.7875H5.79456V8.6875ZM12.2056 8.6875V8.7875H12.3056V8.6875H12.2056ZM9.3125 5.75095V5.65095H9.2125V5.75095H9.3125ZM8.6875 5.75095H8.7875V5.65095H8.6875V5.75095ZM10.5181 5.02595H10.3894V5.22595H10.5181V5.02595ZM12.9306 7.43845C12.9306 6.10807 11.8484 5.02595 10.5181 5.02595V5.22595C11.738 5.22595 12.7306 6.21853 12.7306 7.43845H12.9306ZM12.9306 9V7.43845H12.7306V9H12.9306ZM12.5181 9.4125C12.7459 9.4125 12.9306 9.22784 12.9306 9H12.7306C12.7306 9.11738 12.6354 9.2125 12.5181 9.2125V9.4125ZM5.48206 9.4125H12.5181V9.2125H5.48206V9.4125ZM5.06956 9C5.06956 9.22784 5.25422 9.4125 5.48206 9.4125V9.2125C5.36468 9.2125 5.26956 9.11738 5.26956 9H5.06956ZM5.06956 7.43845V9H5.26956V7.43845H5.06956ZM7.48206 5.02595C6.15168 5.02595 5.06956 6.10807 5.06956 7.43845H5.26956C5.26956 6.21853 6.26214 5.22595 7.48206 5.22595V5.02595ZM7.61072 5.02595H7.48206V5.22595H7.61072V5.02595ZM7.03965 3.8905C7.03965 4.3899 7.22772 4.84608 7.53602 5.19243L7.68541 5.05946C7.40826 4.7481 7.23965 4.33873 7.23965 3.8905H7.03965ZM7.03965 3.23303V3.8905H7.23965V3.23303H7.03965ZM7.03965 2.92886V3.23303H7.23965V2.92886H7.03965ZM7.03965 2.86044V2.92886H7.23965V2.86044H7.03965ZM9 0.9C7.91901 0.9 7.03965 1.77937 7.03965 2.86044H7.23965C7.23965 1.88982 8.02947 1.1 9 1.1V0.9ZM10.9605 2.86047C10.9605 1.77937 10.0811 0.9 9 0.9V1.1C9.97065 1.1 10.7605 1.88982 10.7605 2.86047H10.9605ZM10.9605 2.92889V2.86047H10.7605V2.92889H10.9605ZM10.9605 3.23306V2.92889H10.7605V3.23306H10.9605ZM10.9605 3.8905V3.23306H10.7605V3.8905H10.9605ZM10.4641 5.19244C10.7724 4.84611 10.9605 4.38993 10.9605 3.8905H10.7605C10.7605 4.33877 10.5919 4.74813 10.3147 5.05945L10.4641 5.19244ZM9 1.725C9.56938 1.725 10.0425 2.14646 10.1232 2.69383L10.3211 2.66463C10.2261 2.02071 9.67013 1.525 9 1.525V1.725ZM7.86465 2.86044C7.86465 2.23445 8.37408 1.725 9 1.725V1.525C8.26361 1.525 7.66465 2.12401 7.66465 2.86044H7.86465ZM7.86465 2.92053V2.86044H7.66465V2.92053H7.86465ZM8.20898 2.82053H7.76465V3.02053H8.20898V2.82053ZM9.1963 2.35976C8.9509 2.65266 8.59115 2.82053 8.20898 2.82053V3.02053C8.6503 3.02053 9.06619 2.82647 9.3496 2.4882L9.1963 2.35976ZM9.72146 2.26905C9.5477 2.1669 9.32567 2.20541 9.19631 2.35974L9.34959 2.48822C9.41627 2.40866 9.53067 2.38889 9.6201 2.44146L9.72146 2.26905ZM10.2728 2.59301L9.72144 2.26904L9.62012 2.44147L10.1715 2.76545L10.2728 2.59301ZM8.20898 3.44556H7.76465V3.64556H8.20898V3.44556ZM9.49915 2.94524C9.14887 3.26573 8.691 3.44556 8.20898 3.44556V3.64556C8.74113 3.64556 9.24713 3.44691 9.63416 3.09279L9.49915 2.94524ZM10.2861 3.3257L9.6173 2.93279L9.516 3.10523L10.1848 3.49815L10.2861 3.3257ZM10.3355 3.89053V3.41193H10.1355V3.89053H10.3355ZM9 5.22598C9.7365 5.22598 10.3355 4.62701 10.3355 3.89053H10.1355C10.1355 4.51655 9.62605 5.02598 9 5.02598V5.22598ZM7.66465 3.89053C7.66465 4.62694 8.26361 5.22598 9 5.22598V5.02598C8.37408 5.02598 7.86465 4.5165 7.86465 3.89053H7.66465ZM7.66465 3.54556V3.89053H7.86465V3.54556H7.66465ZM5.89456 8.6875V7.43845H5.69456V8.6875H5.89456ZM12.2056 8.5875H5.79456V8.7875H12.2056V8.5875ZM12.1056 7.43845V8.6875H12.3056V7.43845H12.1056ZM10.5181 5.85095C11.3933 5.85095 12.1056 6.56317 12.1056 7.43845H12.3056C12.3056 6.4527 11.5037 5.65095 10.5181 5.65095V5.85095ZM9.3125 5.85095H10.5181V5.65095H9.3125V5.85095ZM9.4125 6.375V5.75095H9.2125V6.375H9.4125ZM9 6.7875C9.22784 6.7875 9.4125 6.60284 9.4125 6.375H9.2125C9.2125 6.49238 9.11738 6.5875 9 6.5875V6.7875ZM8.5875 6.375C8.5875 6.60286 8.77231 6.7875 9 6.7875V6.5875C8.88272 6.5875 8.7875 6.49235 8.7875 6.375H8.5875ZM8.5875 5.75095V6.375H8.7875V5.75095H8.5875ZM7.48206 5.85095H8.6875V5.65095H7.48206V5.85095ZM5.89456 7.43845C5.89456 6.56317 6.60686 5.85095 7.48206 5.85095V5.65095C6.49641 5.65095 5.69456 6.4527 5.69456 7.43845H5.89456Z" fill="#0C49CD"/>
</g>
<g id="Shape_2">
<path fill-rule="evenodd" clip-rule="evenodd" d="M5.8125 13.4644H5.38135C5.54565 13.2289 5.64221 12.9429 5.64221 12.6347V12.3491C5.64221 11.5469 4.98962 10.8943 4.1875 10.8943C3.38538 10.8943 2.73279 11.5469 2.73279 12.3491V12.6347C2.73279 12.9429 2.82935 13.2289 2.99365 13.4644H2.5625C1.70093 13.4644 1 14.1653 1 15.0269V16.6875C1 16.8601 1.13989 17 1.3125 17H7.0625C7.23511 17 7.375 16.8601 7.375 16.6875V15.0269C7.375 14.1653 6.67407 13.4644 5.8125 13.4644ZM3.35779 12.3491C3.35779 11.8916 3.72998 11.5193 4.1875 11.5193C4.64502 11.5193 5.01733 11.8916 5.01733 12.3491V12.6347C5.01733 13.0922 4.64502 13.4644 4.1875 13.4644C3.72998 13.4644 3.35779 13.0922 3.35779 12.6347V12.3491ZM1.625 15.0269V16.375H6.75V15.0269C6.75 14.51 6.32947 14.0894 5.8125 14.0894H4.5V14.7188C4.5 14.8914 4.36011 15.0312 4.1875 15.0312C4.01489 15.0312 3.875 14.8914 3.875 14.7188V14.0894H2.5625C2.04553 14.0894 1.625 14.51 1.625 15.0269Z" fill="#0C49CD"/>
<path d="M5.38135 13.4644L5.29933 13.4072L5.18966 13.5644H5.38135V13.4644ZM2.99365 13.4644V13.5644H3.18534L3.07567 13.4072L2.99365 13.4644ZM1.625 16.375H1.525V16.475H1.625V16.375ZM6.75 16.375V16.475H6.85V16.375H6.75ZM4.5 14.0894V13.9894H4.4V14.0894H4.5ZM3.875 14.0894H3.975V13.9894H3.875V14.0894ZM5.38135 13.5644H5.8125V13.3644H5.38135V13.5644ZM5.54221 12.6347C5.54221 12.9217 5.45237 13.1878 5.29933 13.4072L5.46336 13.5216C5.63894 13.2699 5.74221 12.9641 5.74221 12.6347H5.54221ZM5.54221 12.3491V12.6347H5.74221V12.3491H5.54221ZM4.1875 10.9943C4.93439 10.9943 5.54221 11.6022 5.54221 12.3491H5.74221C5.74221 11.4917 5.04485 10.7943 4.1875 10.7943V10.9943ZM2.83279 12.3491C2.83279 11.6022 3.44061 10.9943 4.1875 10.9943V10.7943C3.33015 10.7943 2.63279 11.4917 2.63279 12.3491H2.83279ZM2.83279 12.6347V12.3491H2.63279V12.6347H2.83279ZM3.07567 13.4072C2.92263 13.1878 2.83279 12.9217 2.83279 12.6347H2.63279C2.63279 12.9641 2.73606 13.2699 2.91164 13.5216L3.07567 13.4072ZM2.5625 13.5644H2.99365V13.3644H2.5625V13.5644ZM1.1 15.0269C1.1 14.2206 1.75616 13.5644 2.5625 13.5644V13.3644C1.6457 13.3644 0.9 14.1101 0.9 15.0269H1.1ZM1.1 16.6875V15.0269H0.9V16.6875H1.1ZM1.3125 16.9C1.19512 16.9 1.1 16.8049 1.1 16.6875H0.9C0.9 16.9153 1.08466 17.1 1.3125 17.1V16.9ZM7.0625 16.9H1.3125V17.1H7.0625V16.9ZM7.275 16.6875C7.275 16.8049 7.17988 16.9 7.0625 16.9V17.1C7.29034 17.1 7.475 16.9153 7.475 16.6875H7.275ZM7.275 15.0269V16.6875H7.475V15.0269H7.275ZM5.8125 13.5644C6.61884 13.5644 7.275 14.2206 7.275 15.0269H7.475C7.475 14.1101 6.7293 13.3644 5.8125 13.3644V13.5644ZM4.1875 11.4193C3.67475 11.4193 3.25779 11.8363 3.25779 12.3491H3.45779C3.45779 11.9468 3.78521 11.6193 4.1875 11.6193V11.4193ZM5.11733 12.3491C5.11733 11.8363 4.70023 11.4193 4.1875 11.4193V11.6193C4.58981 11.6193 4.91733 11.9468 4.91733 12.3491H5.11733ZM5.11733 12.6347V12.3491H4.91733V12.6347H5.11733ZM4.1875 13.5644C4.70023 13.5644 5.11733 13.1474 5.11733 12.6347H4.91733C4.91733 13.037 4.58981 13.3644 4.1875 13.3644V13.5644ZM3.25779 12.6347C3.25779 13.1474 3.67475 13.5644 4.1875 13.5644V13.3644C3.78521 13.3644 3.45779 13.037 3.45779 12.6347H3.25779ZM3.25779 12.3491V12.6347H3.45779V12.3491H3.25779ZM1.725 16.375V15.0269H1.525V16.375H1.725ZM6.75 16.275H1.625V16.475H6.75V16.275ZM6.65 15.0269V16.375H6.85V15.0269H6.65ZM5.8125 14.1894C6.27424 14.1894 6.65 14.5652 6.65 15.0269H6.85C6.85 14.4548 6.3847 13.9894 5.8125 13.9894V14.1894ZM4.5 14.1894H5.8125V13.9894H4.5V14.1894ZM4.6 14.7188V14.0894H4.4V14.7188H4.6ZM4.1875 15.1312C4.41534 15.1312 4.6 14.9466 4.6 14.7188H4.4C4.4 14.8361 4.30488 14.9313 4.1875 14.9313V15.1312ZM3.775 14.7188C3.775 14.9466 3.95966 15.1312 4.1875 15.1312V14.9313C4.07012 14.9313 3.975 14.8361 3.975 14.7188H3.775ZM3.775 14.0894V14.7188H3.975V14.0894H3.775ZM2.5625 14.1894H3.875V13.9894H2.5625V14.1894ZM1.725 15.0269C1.725 14.5652 2.10076 14.1894 2.5625 14.1894V13.9894C1.9903 13.9894 1.525 14.4548 1.525 15.0269H1.725Z" fill="#0C49CD"/>
</g>
<g id="Shape_3">
<path fill-rule="evenodd" clip-rule="evenodd" d="M15.4375 13.4644H15.0063C15.1707 13.2289 15.2672 12.9429 15.2672 12.6347V12.3491C15.2672 11.5469 14.6146 10.8943 13.8125 10.8943C13.0104 10.8943 12.3578 11.5469 12.3578 12.3491V12.6347C12.3578 12.9429 12.4543 13.2289 12.6187 13.4644H12.1875C11.3259 13.4644 10.625 14.1653 10.625 15.0269V16.6875C10.625 16.8601 10.7649 17 10.9375 17H16.6875C16.8601 17 17 16.8601 17 16.6875V15.0269C17 14.1653 16.2991 13.4644 15.4375 13.4644ZM12.9828 12.3491C12.9828 11.8916 13.355 11.5193 13.8125 11.5193C14.27 11.5193 14.6423 11.8916 14.6423 12.3491V12.6347C14.6423 13.0922 14.27 13.4644 13.8125 13.4644C13.355 13.4644 12.9828 13.0922 12.9828 12.6347V12.3491ZM11.25 15.0269V16.375H16.375V15.0269C16.375 14.51 15.9545 14.0894 15.4375 14.0894H14.125V14.7188C14.125 14.8914 13.9851 15.0312 13.8125 15.0312C13.6399 15.0312 13.5 14.8914 13.5 14.7188V14.0894H12.1875C11.6705 14.0894 11.25 14.51 11.25 15.0269Z" fill="#0C49CD"/>
<path d="M15.0063 13.4644L14.9243 13.4072L14.8147 13.5644H15.0063V13.4644ZM12.6187 13.4644V13.5644H12.8103L12.7007 13.4072L12.6187 13.4644ZM11.25 16.375H11.15V16.475H11.25V16.375ZM16.375 16.375V16.475H16.475V16.375H16.375ZM14.125 14.0894V13.9894H14.025V14.0894H14.125ZM13.5 14.0894H13.6V13.9894H13.5V14.0894ZM15.0063 13.5644H15.4375V13.3644H15.0063V13.5644ZM15.1672 12.6347C15.1672 12.9217 15.0774 13.1878 14.9243 13.4072L15.0884 13.5216C15.2639 13.2699 15.3672 12.9641 15.3672 12.6347H15.1672ZM15.1672 12.3491V12.6347H15.3672V12.3491H15.1672ZM13.8125 10.9943C14.5594 10.9943 15.1672 11.6022 15.1672 12.3491H15.3672C15.3672 11.4917 14.6699 10.7943 13.8125 10.7943V10.9943ZM12.4578 12.3491C12.4578 11.6022 13.0656 10.9943 13.8125 10.9943V10.7943C12.9551 10.7943 12.2578 11.4917 12.2578 12.3491H12.4578ZM12.4578 12.6347V12.3491H12.2578V12.6347H12.4578ZM12.7007 13.4072C12.5476 13.1878 12.4578 12.9217 12.4578 12.6347H12.2578C12.2578 12.9641 12.3611 13.2699 12.5366 13.5216L12.7007 13.4072ZM12.1875 13.5644H12.6187V13.3644H12.1875V13.5644ZM10.725 15.0269C10.725 14.2206 11.3812 13.5644 12.1875 13.5644V13.3644C11.2707 13.3644 10.525 14.1101 10.525 15.0269H10.725ZM10.725 16.6875V15.0269H10.525V16.6875H10.725ZM10.9375 16.9C10.8201 16.9 10.725 16.8049 10.725 16.6875H10.525C10.525 16.9153 10.7097 17.1 10.9375 17.1V16.9ZM16.6875 16.9H10.9375V17.1H16.6875V16.9ZM16.9 16.6875C16.9 16.8049 16.8049 16.9 16.6875 16.9V17.1C16.9153 17.1 17.1 16.9153 17.1 16.6875H16.9ZM16.9 15.0269V16.6875H17.1V15.0269H16.9ZM15.4375 13.5644C16.2438 13.5644 16.9 14.2206 16.9 15.0269H17.1C17.1 14.1101 16.3543 13.3644 15.4375 13.3644V13.5644ZM13.8125 11.4193C13.2997 11.4193 12.8828 11.8363 12.8828 12.3491H13.0828C13.0828 11.9468 13.4102 11.6193 13.8125 11.6193V11.4193ZM14.7423 12.3491C14.7423 11.8363 14.3252 11.4193 13.8125 11.4193V11.6193C14.2148 11.6193 14.5423 11.9468 14.5423 12.3491H14.7423ZM14.7423 12.6347V12.3491H14.5423V12.6347H14.7423ZM13.8125 13.5644C14.3252 13.5644 14.7423 13.1474 14.7423 12.6347H14.5423C14.5423 13.037 14.2148 13.3644 13.8125 13.3644V13.5644ZM12.8828 12.6347C12.8828 13.1474 13.2997 13.5644 13.8125 13.5644V13.3644C13.4102 13.3644 13.0828 13.037 13.0828 12.6347H12.8828ZM12.8828 12.3491V12.6347H13.0828V12.3491H12.8828ZM11.35 16.375V15.0269H11.15V16.375H11.35ZM16.375 16.275H11.25V16.475H16.375V16.275ZM16.275 15.0269V16.375H16.475V15.0269H16.275ZM15.4375 14.1894C15.8992 14.1894 16.275 14.5652 16.275 15.0269H16.475C16.475 14.4548 16.0097 13.9894 15.4375 13.9894V14.1894ZM14.125 14.1894H15.4375V13.9894H14.125V14.1894ZM14.225 14.7188V14.0894H14.025V14.7188H14.225ZM13.8125 15.1312C14.0403 15.1312 14.225 14.9466 14.225 14.7188H14.025C14.025 14.8361 13.9299 14.9313 13.8125 14.9313V15.1312ZM13.4 14.7188C13.4 14.9466 13.5847 15.1312 13.8125 15.1312V14.9313C13.6951 14.9313 13.6 14.8361 13.6 14.7188H13.4ZM13.4 14.0894V14.7188H13.6V14.0894H13.4ZM12.1875 14.1894H13.5V13.9894H12.1875V14.1894ZM11.35 15.0269C11.35 14.5652 11.7258 14.1894 12.1875 14.1894V13.9894C11.6153 13.9894 11.15 14.4548 11.15 15.0269H11.35Z" fill="#0C49CD"/>
</g>
<path id="Shape_4" d="M10.9491 13.1853L9.3125 11.5487V10.2344C9.3125 10.0618 9.17256 9.92188 9 9.92188C8.82744 9.92188 8.6875 10.0618 8.6875 10.2344V11.5487L7.05087 13.1853C6.92884 13.3073 6.92884 13.5052 7.05087 13.6272C7.17294 13.7493 7.37075 13.7493 7.49284 13.6272L9 12.12L10.5072 13.6272C10.5682 13.6883 10.6482 13.7188 10.7281 13.7188C10.8081 13.7188 10.8881 13.6883 10.9491 13.6272C11.0712 13.5052 11.0712 13.3073 10.9491 13.1853Z" fill="#0C49CD" stroke="#0C49CD" stroke-width="0.2"/>
<path id="Shape_5" d="M9.22091 7.35719C9.16281 7.29906 9.08219 7.26562 9 7.26562C8.91781 7.26562 8.83719 7.29906 8.77906 7.35719C8.72094 7.41531 8.6875 7.49594 8.6875 7.57812C8.6875 7.66031 8.72091 7.74094 8.77906 7.79906C8.83722 7.85719 8.91781 7.89062 9 7.89062C9.08219 7.89062 9.16281 7.85719 9.22091 7.79906C9.27903 7.74094 9.3125 7.66031 9.3125 7.57812C9.3125 7.49594 9.27906 7.41531 9.22091 7.35719Z" fill="#0C49CD" stroke="#0C49CD" stroke-width="0.2"/>
</g>
</g>
</svg>
