<svg width="18" height="18" viewBox="0 0 18 18" fill="none" xmlns="http://www.w3.org/2000/svg">
<g id="Industrial programm">
<rect id="Rectangle 4 Copy 10" width="18" height="18" fill="#F4F7FB" fill-opacity="0.01"/>
<g id="cms">
<path id="Shape" fill-rule="evenodd" clip-rule="evenodd" d="M2.40625 1H15.5938C16.3691 1 17 1.63086 17 2.40625V11.7812C17 12.5566 16.3691 13.1875 15.5938 13.1875H11.5254L12.1504 15.0625H13.6875C13.9464 15.0625 14.1562 15.2723 14.1562 15.5312C14.1562 15.7902 13.9464 16 13.6875 16H4.3125C4.05359 16 3.84375 15.7902 3.84375 15.5312C3.84375 15.2723 4.05359 15.0625 4.3125 15.0625H5.84961L6.47461 13.1875H2.40625C1.63086 13.1875 1 12.5566 1 11.7812V2.40625C1 1.63086 1.63086 1 2.40625 1ZM7.46289 13.1875L6.83789 15.0625H11.1621L10.5371 13.1875H7.46289ZM16.0625 11.7812C16.0625 12.0397 15.8522 12.25 15.5938 12.25H2.40625C2.14783 12.25 1.9375 12.0397 1.9375 11.7812V11.3125H16.0625V11.7812ZM5.68542 7.25464L6.11182 7.68091C6.26294 7.83215 6.2926 8.06641 6.18408 8.25049C6.02881 8.51404 5.91174 8.79529 5.83643 9.0863C5.78284 9.29309 5.59619 9.4375 5.38257 9.4375H4.78125V10.375H6.70361C6.67236 10.2214 6.65625 10.0643 6.65625 9.90625C6.65625 8.61389 7.70764 7.5625 9 7.5625C10.2924 7.5625 11.3438 8.61389 11.3438 9.90625C11.3438 9.98505 11.3397 10.0636 11.3318 10.1417C11.3271 10.188 11.321 10.2343 11.3136 10.2802C11.3085 10.3119 11.3027 10.3435 11.2964 10.375H13.2188V9.4375H12.6174C12.4038 9.4375 12.2172 9.29309 12.1637 9.0863C12.0883 8.79529 11.9713 8.51404 11.8159 8.25049C11.7073 8.06641 11.7371 7.83215 11.8882 7.68103L12.3146 7.25464L11.6516 6.59167L11.2252 7.01807C11.0741 7.16919 10.8398 7.19897 10.6556 7.09045C10.3922 6.93506 10.111 6.81799 9.81995 6.74255C9.61316 6.68909 9.46875 6.50244 9.46875 6.28882V5.6875H8.53125V6.28882C8.53125 6.50244 8.38684 6.68909 8.18005 6.74255C7.88892 6.81799 7.60767 6.93506 7.34424 7.09033C7.16003 7.19897 6.92578 7.16919 6.77466 7.01807L6.34827 6.59167L5.68542 7.25464ZM10.3811 10.1701C10.3678 10.2398 10.3492 10.3083 10.3257 10.375H7.67432C7.65894 10.3314 7.64563 10.287 7.63452 10.242C7.62671 10.2101 7.62 10.178 7.61438 10.1456C7.60449 10.0889 7.59814 10.0315 7.59534 9.97369C7.59424 9.95129 7.59375 9.92877 7.59375 9.90625C7.59375 9.13086 8.22461 8.5 9 8.5C9.77539 8.5 10.4062 9.13086 10.4062 9.90625C10.4062 9.99518 10.3977 10.0836 10.3811 10.1701ZM14.1562 10.375H16.0625V2.40625C16.0625 2.14783 15.8522 1.9375 15.5938 1.9375H2.40625C2.14783 1.9375 1.9375 2.14783 1.9375 2.40625V10.375H3.84375V8.96875C3.84375 8.70996 4.05359 8.5 4.3125 8.5H5.03674C5.08533 8.36377 5.14099 8.22986 5.20374 8.09875L4.69116 7.58606C4.50806 7.40295 4.50806 7.1062 4.69116 6.9231L6.01685 5.59729C6.10486 5.5094 6.224 5.46008 6.34839 5.46008C6.47266 5.46008 6.59192 5.5094 6.67981 5.59729L7.19238 6.10999C7.32361 6.04724 7.45752 5.99146 7.59375 5.94299V5.21875C7.59375 4.95984 7.80359 4.75 8.0625 4.75H9.9375C10.1964 4.75 10.4062 4.95984 10.4062 5.21875V5.94299C10.5425 5.99146 10.6764 6.04724 10.8076 6.10999L11.3202 5.59729C11.4081 5.5094 11.5273 5.46008 11.6516 5.46008C11.7759 5.46008 11.8951 5.5094 11.983 5.59729L13.3088 6.9231C13.4919 7.1062 13.4919 7.40295 13.309 7.58606L12.7963 8.09863C12.859 8.22986 12.9148 8.36377 12.9634 8.5H13.6875C13.9464 8.5 14.1562 8.70984 14.1562 8.96875V10.375Z" fill="#0C49CD"/>
<path id="Shape_2" fill-rule="evenodd" clip-rule="evenodd" d="M12.2812 4.28125C12.2812 3.50586 12.9121 2.875 13.6875 2.875C14.4629 2.875 15.0938 3.50586 15.0938 4.28125C15.0938 5.05664 14.4629 5.6875 13.6875 5.6875C12.9121 5.6875 12.2812 5.05664 12.2812 4.28125ZM13.2188 4.28125C13.2188 4.53967 13.4291 4.75 13.6875 4.75C13.9459 4.75 14.1562 4.53967 14.1562 4.28125C14.1562 4.02283 13.9459 3.8125 13.6875 3.8125C13.4291 3.8125 13.2188 4.02283 13.2188 4.28125Z" fill="#0C49CD"/>
</g>
</g>
</svg>
