<svg width="18" height="18" viewBox="0 0 18 18" fill="none" xmlns="http://www.w3.org/2000/svg">
<g id="Internet of things White">
<rect id="Rectangle 4 Copy 13" width="18" height="18" fill="#F4F7FB" fill-opacity="0.01"/>
<g id="wifi">
<g id="Shape">
<path fill-rule="evenodd" clip-rule="evenodd" d="M16.2244 7.74902H11.5444C11.1167 7.74902 10.7686 8.09705 10.7686 8.52484V15.8995C10.7686 16.3273 11.1167 16.6754 11.5444 16.6754H16.2244C16.6521 16.6754 17 16.3273 17 15.8995V8.52484C17 8.09705 16.6521 7.74902 16.2244 7.74902ZM16.4949 15.8995C16.4949 16.0487 16.3735 16.1701 16.2244 16.1701H11.5444C11.3953 16.1701 11.2739 16.0487 11.2739 15.8995V14.6543H16.4949V15.8995ZM15.5466 9.09644H16.4949V8.5249C16.4949 8.37549 16.3738 8.25433 16.2244 8.25433H11.5444C11.395 8.25433 11.2739 8.37549 11.2739 8.5249V9.09644H14.3162C14.4556 9.09644 14.5688 9.20953 14.5688 9.34906C14.5688 9.40948 14.5476 9.46497 14.5122 9.50842C14.4658 9.56537 14.3953 9.60168 14.3162 9.60168H11.2739V14.149H16.4949V9.60168H15.5466C15.4072 9.60168 15.2942 9.48859 15.2942 9.34906C15.2942 9.20953 15.4072 9.09644 15.5466 9.09644Z" fill="white"/>
<path d="M11.2739 14.6543V14.5543H11.1739V14.6543H11.2739ZM16.4949 14.6543H16.5949V14.5543H16.4949V14.6543ZM16.4949 9.09644V9.19644H16.5949V9.09644H16.4949ZM11.2739 9.09644H11.1739V9.19644H11.2739V9.09644ZM14.5122 9.50842L14.4347 9.44527L14.4347 9.44527L14.5122 9.50842ZM11.2739 9.60168V9.50168H11.1739V9.60168H11.2739ZM11.2739 14.149H11.1739V14.249H11.2739V14.149ZM16.4949 14.149V14.249H16.5949V14.149H16.4949ZM16.4949 9.60168H16.5949V9.50168H16.4949V9.60168ZM11.5444 7.84902H16.2244V7.64902H11.5444V7.84902ZM10.8686 8.52484C10.8686 8.15229 11.1719 7.84902 11.5444 7.84902V7.64902C11.0615 7.64902 10.6686 8.0418 10.6686 8.52484H10.8686ZM10.8686 15.8995V8.52484H10.6686V15.8995H10.8686ZM11.5444 16.5754C11.1719 16.5754 10.8686 16.2721 10.8686 15.8995H10.6686C10.6686 16.3826 11.0615 16.7754 11.5444 16.7754V16.5754ZM16.2244 16.5754H11.5444V16.7754H16.2244V16.5754ZM16.9 15.8995C16.9 16.2721 16.5968 16.5754 16.2244 16.5754V16.7754C16.7074 16.7754 17.1 16.3825 17.1 15.8995H16.9ZM16.9 8.52484V15.8995H17.1V8.52484H16.9ZM16.2244 7.84902C16.5968 7.84902 16.9 8.15225 16.9 8.52484H17.1C17.1 8.04184 16.7074 7.64902 16.2244 7.64902V7.84902ZM16.2244 16.2701C16.4288 16.2701 16.5949 16.1039 16.5949 15.8995H16.3949C16.3949 15.9935 16.3183 16.0701 16.2244 16.0701V16.2701ZM11.5444 16.2701H16.2244V16.0701H11.5444V16.2701ZM11.1739 15.8995C11.1739 16.1039 11.34 16.2701 11.5444 16.2701V16.0701C11.4505 16.0701 11.3739 15.9935 11.3739 15.8995H11.1739ZM11.1739 14.6543V15.8995H11.3739V14.6543H11.1739ZM16.4949 14.5543H11.2739V14.7543H16.4949V14.5543ZM16.5949 15.8995V14.6543H16.3949V15.8995H16.5949ZM16.4949 8.99644H15.5466V9.19644H16.4949V8.99644ZM16.3949 8.5249V9.09644H16.5949V8.5249H16.3949ZM16.2244 8.35433C16.3185 8.35433 16.3949 8.43069 16.3949 8.5249H16.5949C16.5949 8.32029 16.429 8.15433 16.2244 8.15433V8.35433ZM11.5444 8.35433H16.2244V8.15433H11.5444V8.35433ZM11.3739 8.5249C11.3739 8.43069 11.4503 8.35433 11.5444 8.35433V8.15433C11.3398 8.15433 11.1739 8.32029 11.1739 8.5249H11.3739ZM11.3739 9.09644V8.5249H11.1739V9.09644H11.3739ZM14.3162 8.99644H11.2739V9.19644H14.3162V8.99644ZM14.6688 9.34906C14.6688 9.15424 14.5107 8.99644 14.3162 8.99644V9.19644C14.4004 9.19644 14.4688 9.26483 14.4688 9.34906H14.6688ZM14.5897 9.57158C14.6391 9.51094 14.6688 9.43333 14.6688 9.34906H14.4688C14.4688 9.38564 14.4561 9.41899 14.4347 9.44527L14.5897 9.57158ZM14.3162 9.70168C14.4266 9.70168 14.5252 9.65082 14.5897 9.57158L14.4347 9.44527C14.4065 9.47992 14.3639 9.50168 14.3162 9.50168V9.70168ZM11.2739 9.70168H14.3162V9.50168H11.2739V9.70168ZM11.3739 14.149V9.60168H11.1739V14.149H11.3739ZM16.4949 14.049H11.2739V14.249H16.4949V14.049ZM16.3949 9.60168V14.149H16.5949V9.60168H16.3949ZM15.5466 9.70168H16.4949V9.50168H15.5466V9.70168ZM15.1942 9.34906C15.1942 9.54375 15.3519 9.70168 15.5466 9.70168V9.50168C15.4625 9.50168 15.3942 9.43342 15.3942 9.34906H15.1942ZM15.5466 8.99644C15.3519 8.99644 15.1942 9.15437 15.1942 9.34906H15.3942C15.3942 9.2647 15.4625 9.19644 15.5466 9.19644V8.99644Z" fill="white"/>
</g>
<g id="Shape_2">
<path fill-rule="evenodd" clip-rule="evenodd" d="M5.44531 9.77008H1.77588C1.34814 9.77008 1 10.1181 1 10.5459V15.8995C1 16.3273 1.34814 16.6754 1.77588 16.6754H5.44531C5.87305 16.6754 6.22095 16.3273 6.22095 15.8995V10.5459C6.22095 10.1181 5.87305 9.77008 5.44531 9.77008ZM5.71582 15.8995C5.71582 16.0487 5.59448 16.1701 5.44531 16.1701H1.77588C1.62671 16.1701 1.50537 16.0487 1.50537 15.8995V14.6543H5.71582V15.8995ZM1.50537 14.149H5.71582V10.5459C5.71582 10.3967 5.59448 10.2753 5.44531 10.2753H1.77588C1.62671 10.2753 1.50537 10.3967 1.50537 10.5459V14.149Z" fill="white"/>
<path d="M1.50537 14.6543V14.5543H1.40537V14.6543H1.50537ZM5.71582 14.6543H5.81582V14.5543H5.71582V14.6543ZM5.71582 14.149V14.249H5.81582V14.149H5.71582ZM1.50537 14.149H1.40537V14.249H1.50537V14.149ZM1.77588 9.87008H5.44531V9.67008H1.77588V9.87008ZM1.1 10.5459C1.1 10.1733 1.40336 9.87008 1.77588 9.87008V9.67008C1.29293 9.67008 0.9 10.0629 0.9 10.5459H1.1ZM1.1 15.8995V10.5459H0.9V15.8995H1.1ZM1.77588 16.5754C1.40336 16.5754 1.1 16.272 1.1 15.8995H0.9C0.9 16.3825 1.29293 16.7754 1.77588 16.7754V16.5754ZM5.44531 16.5754H1.77588V16.7754H5.44531V16.5754ZM6.12095 15.8995C6.12095 16.2721 5.81779 16.5754 5.44531 16.5754V16.7754C5.92831 16.7754 6.32095 16.3825 6.32095 15.8995H6.12095ZM6.12095 10.5459V15.8995H6.32095V10.5459H6.12095ZM5.44531 9.87008C5.81779 9.87008 6.12095 10.1733 6.12095 10.5459H6.32095C6.32095 10.0629 5.9283 9.67008 5.44531 9.67008V9.87008ZM5.44531 16.2701C5.64974 16.2701 5.81582 16.1039 5.81582 15.8995H5.61582C5.61582 15.9935 5.53922 16.0701 5.44531 16.0701V16.2701ZM1.77588 16.2701H5.44531V16.0701H1.77588V16.2701ZM1.40537 15.8995C1.40537 16.1039 1.57145 16.2701 1.77588 16.2701V16.0701C1.68197 16.0701 1.60537 15.9935 1.60537 15.8995H1.40537ZM1.40537 14.6543V15.8995H1.60537V14.6543H1.40537ZM5.71582 14.5543H1.50537V14.7543H5.71582V14.5543ZM5.81582 15.8995V14.6543H5.61582V15.8995H5.81582ZM5.71582 14.049H1.50537V14.249H5.71582V14.049ZM5.61582 10.5459V14.149H5.81582V10.5459H5.61582ZM5.44531 10.3753C5.53922 10.3753 5.61582 10.4519 5.61582 10.5459H5.81582C5.81582 10.3415 5.64974 10.1753 5.44531 10.1753V10.3753ZM1.77588 10.3753H5.44531V10.1753H1.77588V10.3753ZM1.60537 10.5459C1.60537 10.4519 1.68197 10.3753 1.77588 10.3753V10.1753C1.57145 10.1753 1.40537 10.3415 1.40537 10.5459H1.60537ZM1.60537 14.149V10.5459H1.40537V14.149H1.60537Z" fill="white"/>
</g>
<path id="Oval" d="M14.0527 15.749C14.2387 15.749 14.3895 15.5982 14.3895 15.4122C14.3895 15.2261 14.2387 15.0753 14.0527 15.0753C13.8666 15.0753 13.7158 15.2261 13.7158 15.4122C13.7158 15.5982 13.8666 15.749 14.0527 15.749Z" fill="white" stroke="white" stroke-width="0.2"/>
<path id="Oval_2" d="M3.61053 15.749C3.79656 15.749 3.94737 15.5982 3.94737 15.4122C3.94737 15.2261 3.79656 15.0753 3.61053 15.0753C3.42449 15.0753 3.27368 15.2261 3.27368 15.4122C3.27368 15.5982 3.42449 15.749 3.61053 15.749Z" fill="white" stroke="white" stroke-width="0.2"/>
<g id="Shape_3">
<path fill-rule="evenodd" clip-rule="evenodd" d="M7.3999 2.61212C7.3999 1.72992 8.11768 1.01215 9 1.01215C9.88208 1.01215 10.5999 1.72992 10.5999 2.61212C10.5999 2.75165 10.4868 2.86475 10.3472 2.86475H7.65259C7.51294 2.86475 7.3999 2.75171 7.3999 2.61212ZM8.99976 1.51746C8.48315 1.51746 8.04883 1.87732 7.93457 2.35956H10.0652C9.95093 1.87732 9.5166 1.51746 8.99976 1.51746Z" fill="white"/>
<path d="M7.93457 2.35956L7.83726 2.3365L7.80811 2.45956H7.93457V2.35956ZM10.0652 2.35956V2.45956H10.1916L10.1625 2.3365L10.0652 2.35956ZM9 0.912146C8.06245 0.912146 7.2999 1.67469 7.2999 2.61212H7.4999C7.4999 1.78515 8.1729 1.11215 9 1.11215V0.912146ZM10.6999 2.61212C10.6999 1.6747 9.93731 0.912146 9 0.912146V1.11215C9.82685 1.11215 10.4999 1.78514 10.4999 2.61212H10.6999ZM10.3472 2.96475C10.542 2.96475 10.6999 2.80688 10.6999 2.61212H10.4999C10.4999 2.69642 10.4316 2.76475 10.3472 2.76475V2.96475ZM7.65259 2.96475H10.3472V2.76475H7.65259V2.96475ZM7.2999 2.61212C7.2999 2.80695 7.45773 2.96475 7.65259 2.96475V2.76475C7.56815 2.76475 7.4999 2.69646 7.4999 2.61212H7.2999ZM8.03188 2.38261C8.13571 1.94437 8.53062 1.61746 8.99976 1.61746V1.41746C8.43569 1.41746 7.96195 1.81027 7.83726 2.3365L8.03188 2.38261ZM10.0652 2.25956H7.93457V2.45956H10.0652V2.25956ZM8.99976 1.61746C9.46915 1.61746 9.86405 1.94439 9.96788 2.38261L10.1625 2.3365C10.0378 1.81025 9.56406 1.41746 8.99976 1.41746V1.61746Z" fill="white"/>
</g>
<path id="Shape_4" d="M7.65273 4.38058C7.04911 4.38058 6.55798 3.88948 6.55798 3.28583C6.55798 3.14627 6.44486 3.0332 6.30536 3.0332C6.16586 3.0332 6.05273 3.14627 6.05273 3.28583C6.05273 4.16805 6.77052 4.88583 7.65273 4.88583C7.79227 4.88583 7.90536 4.77277 7.90536 4.6332C7.90536 4.49364 7.79227 4.38058 7.65273 4.38058Z" fill="white" stroke="white" stroke-width="0.2"/>
<path id="Shape_5" d="M7.31575 6.06484C5.96916 6.06484 4.87366 4.96934 4.87366 3.62274C4.87366 3.48318 4.76053 3.37012 4.62103 3.37012C4.4815 3.37012 4.36841 3.48321 4.36841 3.62274C4.36841 5.24793 5.6906 6.57012 7.31578 6.57012C7.45531 6.57012 7.56841 6.45702 7.56841 6.31749C7.56841 6.17796 7.45528 6.06484 7.31575 6.06484Z" fill="white" stroke="white" stroke-width="0.2"/>
<path id="Shape_6" d="M6.64213 8.08586C4.5526 8.08586 2.85266 6.38589 2.85266 4.29639C2.85266 4.15682 2.73954 4.04376 2.60004 4.04376C2.46054 4.04376 2.34741 4.15682 2.34741 4.29639C2.34741 6.66451 4.27401 8.59114 6.64216 8.59114C6.78169 8.59114 6.89479 8.47808 6.89479 8.33851C6.89479 8.19895 6.78166 8.08586 6.64213 8.08586Z" fill="white" stroke="white" stroke-width="0.2"/>
<path id="Shape_7" d="M11.4927 3.70691C11.3531 3.70691 11.24 3.81997 11.24 3.95953C11.24 4.266 10.9907 4.51532 10.6843 4.51532C10.5447 4.51532 10.4316 4.62838 10.4316 4.76794C10.4316 4.9075 10.5447 5.02057 10.6843 5.02057C11.2693 5.02057 11.7453 4.54457 11.7453 3.9595C11.7453 3.82 11.6322 3.70691 11.4927 3.70691Z" fill="white" stroke="white" stroke-width="0.2"/>
<path id="Shape_8" d="M12.5033 3.909C12.3637 3.909 12.2506 4.02206 12.2506 4.16162C12.2506 4.91387 11.6387 5.52584 10.8864 5.52584C10.7469 5.52584 10.6338 5.6389 10.6338 5.77847C10.6338 5.91803 10.7469 6.03109 10.8864 6.03109C11.9173 6.03109 12.7559 5.19247 12.7559 4.16162C12.7559 4.02209 12.6428 3.909 12.5033 3.909Z" fill="white" stroke="white" stroke-width="0.2"/>
<path id="Shape_9" d="M13.7157 4.31323C13.5762 4.31323 13.4631 4.42629 13.4631 4.56586C13.4631 5.76383 12.4884 6.73848 11.2905 6.73848C11.1509 6.73848 11.0378 6.85154 11.0378 6.99111C11.0378 7.13067 11.1509 7.24373 11.2905 7.24373C12.7671 7.24373 13.9684 6.04245 13.9684 4.56583C13.9683 4.42633 13.8553 4.31323 13.7157 4.31323Z" fill="white" stroke="white" stroke-width="0.2"/>
</g>
</g>
</svg>
