<svg width="18" height="18" viewBox="0 0 18 18" fill="none" xmlns="http://www.w3.org/2000/svg">
<g id="Internet of things">
<rect id="Rectangle 4 Copy 13" width="18" height="18" fill="#F4F7FB" fill-opacity="0.01"/>
<g id="wifi">
<g id="Shape">
<path fill-rule="evenodd" clip-rule="evenodd" d="M16.2242 7.74902H11.5442C11.1165 7.74902 10.7684 8.09705 10.7684 8.52484V15.8995C10.7684 16.3273 11.1165 16.6754 11.5442 16.6754H16.2242C16.652 16.6754 17 16.3273 17 15.8995V8.52484C17 8.09705 16.652 7.74902 16.2242 7.74902ZM16.4948 15.8995C16.4948 16.0487 16.3733 16.1701 16.2241 16.1701H11.5442C11.474 16.1701 11.4099 16.1432 11.3618 16.0992C11.3076 16.0497 11.2737 15.9785 11.2737 15.8995V14.6543H16.4948V15.8995ZM15.5465 9.09644H16.4948V8.5249C16.4948 8.37549 16.3737 8.25433 16.2241 8.25433H11.5442C11.3948 8.25433 11.2737 8.37549 11.2737 8.5249V9.09644H14.3159C14.4553 9.09644 14.5685 9.20953 14.5685 9.34906C14.5685 9.48859 14.4554 9.60168 14.3159 9.60168H11.2737V14.149H16.4948V9.60168H15.5465C15.407 9.60168 15.2938 9.48859 15.2938 9.34906C15.2938 9.20953 15.407 9.09644 15.5465 9.09644Z" fill="#0C49CD"/>
<path d="M11.3618 16.0992L11.4293 16.0254L11.4293 16.0253L11.3618 16.0992ZM11.2737 14.6543V14.5543H11.1737V14.6543H11.2737ZM16.4948 14.6543H16.5948V14.5543H16.4948V14.6543ZM16.4948 9.09644V9.19644H16.5948V9.09644H16.4948ZM11.2737 9.09644H11.1737V9.19644H11.2737V9.09644ZM11.2737 9.60168V9.50168H11.1737V9.60168H11.2737ZM11.2737 14.149H11.1737V14.249H11.2737V14.149ZM16.4948 14.149V14.249H16.5948V14.149H16.4948ZM16.4948 9.60168H16.5948V9.50168H16.4948V9.60168ZM11.5442 7.84902H16.2242V7.64902H11.5442V7.84902ZM10.8684 8.52484C10.8684 8.15227 11.1717 7.84902 11.5442 7.84902V7.64902C11.0612 7.64902 10.6684 8.04182 10.6684 8.52484H10.8684ZM10.8684 15.8995V8.52484H10.6684V15.8995H10.8684ZM11.5442 16.5754C11.1717 16.5754 10.8684 16.2721 10.8684 15.8995H10.6684C10.6684 16.3826 11.0612 16.7754 11.5442 16.7754V16.5754ZM16.2242 16.5754H11.5442V16.7754H16.2242V16.5754ZM16.9 15.8995C16.9 16.2721 16.5967 16.5754 16.2242 16.5754V16.7754C16.7072 16.7754 17.1 16.3826 17.1 15.8995H16.9ZM16.9 8.52484V15.8995H17.1V8.52484H16.9ZM16.2242 7.84902C16.5967 7.84902 16.9 8.15227 16.9 8.52484H17.1C17.1 8.04182 16.7072 7.64902 16.2242 7.64902V7.84902ZM16.2241 16.2701C16.4285 16.2701 16.5948 16.104 16.5948 15.8995H16.3948C16.3948 15.9934 16.3181 16.0701 16.2241 16.0701V16.2701ZM11.5442 16.2701H16.2241V16.0701H11.5442V16.2701ZM11.2943 16.173C11.3601 16.2331 11.448 16.2701 11.5442 16.2701V16.0701C11.5 16.0701 11.4598 16.0533 11.4293 16.0254L11.2943 16.173ZM11.1737 15.8995C11.1737 16.0078 11.2203 16.1054 11.2944 16.173L11.4293 16.0253C11.3949 15.994 11.3737 15.9492 11.3737 15.8995H11.1737ZM11.1737 14.6543V15.8995H11.3737V14.6543H11.1737ZM16.4948 14.5543H11.2737V14.7543H16.4948V14.5543ZM16.5948 15.8995V14.6543H16.3948V15.8995H16.5948ZM16.4948 8.99644H15.5465V9.19644H16.4948V8.99644ZM16.3948 8.5249V9.09644H16.5948V8.5249H16.3948ZM16.2241 8.35433C16.3184 8.35433 16.3948 8.43072 16.3948 8.5249H16.5948C16.5948 8.32026 16.4289 8.15433 16.2241 8.15433V8.35433ZM11.5442 8.35433H16.2241V8.15433H11.5442V8.35433ZM11.3737 8.5249C11.3737 8.43069 11.45 8.35433 11.5442 8.35433V8.15433C11.3395 8.15433 11.1737 8.32029 11.1737 8.5249H11.3737ZM11.3737 9.09644V8.5249H11.1737V9.09644H11.3737ZM14.3159 8.99644H11.2737V9.19644H14.3159V8.99644ZM14.6685 9.34906C14.6685 9.15431 14.5106 8.99644 14.3159 8.99644V9.19644C14.4001 9.19644 14.4685 9.26476 14.4685 9.34906H14.6685ZM14.3159 9.70168C14.5107 9.70168 14.6685 9.54378 14.6685 9.34906H14.4685C14.4685 9.43339 14.4002 9.50168 14.3159 9.50168V9.70168ZM11.2737 9.70168H14.3159V9.50168H11.2737V9.70168ZM11.3737 14.149V9.60168H11.1737V14.149H11.3737ZM16.4948 14.049H11.2737V14.249H16.4948V14.049ZM16.3948 9.60168V14.149H16.5948V9.60168H16.3948ZM15.5465 9.70168H16.4948V9.50168H15.5465V9.70168ZM15.1938 9.34906C15.1938 9.54385 15.3518 9.70168 15.5465 9.70168V9.50168C15.4622 9.50168 15.3938 9.43333 15.3938 9.34906H15.1938ZM15.5465 8.99644C15.3518 8.99644 15.1938 9.15427 15.1938 9.34906H15.3938C15.3938 9.26479 15.4622 9.19644 15.5465 9.19644V8.99644Z" fill="#0C49CD"/>
</g>
<g id="Shape_2">
<path fill-rule="evenodd" clip-rule="evenodd" d="M5.44519 9.77008H1.77588C1.34802 9.77008 1 10.1181 1 10.5459V15.8995C1 16.3273 1.34802 16.6754 1.77588 16.6754H5.44519C5.87305 16.6754 6.22107 16.3273 6.22107 15.8995V10.5459C6.22107 10.1181 5.87305 9.77008 5.44519 9.77008ZM5.71582 15.8995C5.71582 16.0487 5.59436 16.1701 5.44519 16.1701H1.77588C1.62671 16.1701 1.50525 16.0487 1.50525 15.8995V14.6543H5.71582V15.8995ZM1.50525 14.149H5.71582V10.5459C5.71582 10.3967 5.59436 10.2753 5.44519 10.2753H1.77588C1.62671 10.2753 1.50525 10.3967 1.50525 10.5459V14.149Z" fill="#0C49CD"/>
<path d="M1.50525 14.6543V14.5543H1.40525V14.6543H1.50525ZM5.71582 14.6543H5.81582V14.5543H5.71582V14.6543ZM5.71582 14.149V14.249H5.81582V14.149H5.71582ZM1.50525 14.149H1.40525V14.249H1.50525V14.149ZM1.77588 9.87008H5.44519V9.67008H1.77588V9.87008ZM1.1 10.5459C1.1 10.1733 1.40325 9.87008 1.77588 9.87008V9.67008C1.2928 9.67008 0.9 10.0629 0.9 10.5459H1.1ZM1.1 15.8995V10.5459H0.9V15.8995H1.1ZM1.77588 16.5754C1.40325 16.5754 1.1 16.272 1.1 15.8995H0.9C0.9 16.3825 1.29279 16.7754 1.77588 16.7754V16.5754ZM5.44519 16.5754H1.77588V16.7754H5.44519V16.5754ZM6.12107 15.8995C6.12107 16.272 5.81782 16.5754 5.44519 16.5754V16.7754C5.92828 16.7754 6.32107 16.3825 6.32107 15.8995H6.12107ZM6.12107 10.5459V15.8995H6.32107V10.5459H6.12107ZM5.44519 9.87008C5.81782 9.87008 6.12107 10.1733 6.12107 10.5459H6.32107C6.32107 10.0629 5.92827 9.67008 5.44519 9.67008V9.87008ZM5.44519 16.2701C5.64956 16.2701 5.81582 16.104 5.81582 15.8995H5.61582C5.61582 15.9934 5.53916 16.0701 5.44519 16.0701V16.2701ZM1.77588 16.2701H5.44519V16.0701H1.77588V16.2701ZM1.40525 15.8995C1.40525 16.104 1.57151 16.2701 1.77588 16.2701V16.0701C1.68191 16.0701 1.60525 15.9934 1.60525 15.8995H1.40525ZM1.40525 14.6543V15.8995H1.60525V14.6543H1.40525ZM5.71582 14.5543H1.50525V14.7543H5.71582V14.5543ZM5.81582 15.8995V14.6543H5.61582V15.8995H5.81582ZM5.71582 14.049H1.50525V14.249H5.71582V14.049ZM5.61582 10.5459V14.149H5.81582V10.5459H5.61582ZM5.44519 10.3753C5.53916 10.3753 5.61582 10.452 5.61582 10.5459H5.81582C5.81582 10.3415 5.64956 10.1753 5.44519 10.1753V10.3753ZM1.77588 10.3753H5.44519V10.1753H1.77588V10.3753ZM1.60525 10.5459C1.60525 10.452 1.68191 10.3753 1.77588 10.3753V10.1753C1.57151 10.1753 1.40525 10.3415 1.40525 10.5459H1.60525ZM1.60525 14.149V10.5459H1.40525V14.149H1.60525Z" fill="#0C49CD"/>
</g>
<path id="Oval" d="M14.0527 15.749C14.2387 15.749 14.3895 15.5982 14.3895 15.4122C14.3895 15.2261 14.2387 15.0753 14.0527 15.0753C13.8666 15.0753 13.7158 15.2261 13.7158 15.4122C13.7158 15.5982 13.8666 15.749 14.0527 15.749Z" fill="#0C49CD" stroke="#0C49CD" stroke-width="0.2"/>
<path id="Oval_2" d="M3.61053 15.749C3.79656 15.749 3.94737 15.5982 3.94737 15.4122C3.94737 15.2261 3.79656 15.0753 3.61053 15.0753C3.42449 15.0753 3.27368 15.2261 3.27368 15.4122C3.27368 15.5982 3.42449 15.749 3.61053 15.749Z" fill="#0C49CD" stroke="#0C49CD" stroke-width="0.2"/>
<g id="Shape_3">
<path fill-rule="evenodd" clip-rule="evenodd" d="M7.40002 2.61212C7.40002 1.72992 8.1178 1.01215 9 1.01215C9.8822 1.01215 10.6 1.72992 10.6 2.61212C10.6 2.75165 10.4869 2.86475 10.3474 2.86475H7.65271C7.51318 2.86475 7.40002 2.75171 7.40002 2.61212ZM9 1.51746C8.48328 1.51746 8.04895 1.87732 7.93469 2.35956H10.0653C9.95093 1.87732 9.5166 1.51746 9 1.51746Z" fill="#0C49CD"/>
<path d="M7.93469 2.35956L7.83739 2.3365L7.80823 2.45956H7.93469V2.35956ZM10.0653 2.35956V2.45956H10.1918L10.1626 2.33648L10.0653 2.35956ZM9 0.912146C8.06257 0.912146 7.30002 1.67469 7.30002 2.61212H7.50002C7.50002 1.78515 8.17303 1.11215 9 1.11215V0.912146ZM10.7 2.61212C10.7 1.67469 9.93743 0.912146 9 0.912146V1.11215C9.82697 1.11215 10.5 1.78515 10.5 2.61212H10.7ZM10.3474 2.96475C10.5422 2.96475 10.7 2.80684 10.7 2.61212H10.5C10.5 2.69645 10.4317 2.76475 10.3474 2.76475V2.96475ZM7.65271 2.96475H10.3474V2.76475H7.65271V2.96475ZM7.30002 2.61212C7.30002 2.80698 7.458 2.96475 7.65271 2.96475V2.76475C7.56836 2.76475 7.50002 2.69643 7.50002 2.61212H7.30002ZM8.032 2.38261C8.13583 1.94438 8.53074 1.61746 9 1.61746V1.41746C8.43582 1.41746 7.96207 1.81026 7.83739 2.3365L8.032 2.38261ZM10.0653 2.25956H7.93469V2.45956H10.0653V2.25956ZM9 1.61746C9.46913 1.61746 9.86406 1.94437 9.96801 2.38264L10.1626 2.33648C10.0378 1.81027 9.56407 1.41746 9 1.41746V1.61746Z" fill="#0C49CD"/>
</g>
<path id="Shape_4" d="M7.65261 4.38058C7.04899 4.38058 6.55786 3.88948 6.55786 3.28583C6.55786 3.14627 6.44474 3.0332 6.30524 3.0332C6.16574 3.0332 6.05261 3.14627 6.05261 3.28583C6.05261 4.16805 6.77039 4.88583 7.65261 4.88583C7.79214 4.88583 7.90524 4.77277 7.90524 4.6332C7.90524 4.49364 7.79214 4.38058 7.65261 4.38058Z" fill="#0C49CD" stroke="#0C49CD" stroke-width="0.2"/>
<path id="Shape_5" d="M7.31575 6.06484C5.96916 6.06484 4.87366 4.96934 4.87366 3.62274C4.87366 3.48318 4.76053 3.37012 4.62103 3.37012C4.4815 3.37012 4.36841 3.48321 4.36841 3.62274C4.36841 5.24793 5.6906 6.57012 7.31578 6.57012C7.45531 6.57012 7.56841 6.45702 7.56841 6.31749C7.56841 6.17796 7.45528 6.06484 7.31575 6.06484Z" fill="#0C49CD" stroke="#0C49CD" stroke-width="0.2"/>
<path id="Shape_6" d="M6.64213 8.08586C4.5526 8.08586 2.85266 6.38589 2.85266 4.29639C2.85266 4.15682 2.73954 4.04376 2.60004 4.04376C2.46054 4.04376 2.34741 4.15682 2.34741 4.29639C2.34741 6.66451 4.27401 8.59114 6.64216 8.59114C6.78169 8.59114 6.89479 8.47808 6.89479 8.33851C6.89479 8.19895 6.78166 8.08586 6.64213 8.08586Z" fill="#0C49CD" stroke="#0C49CD" stroke-width="0.2"/>
<path id="Shape_7" d="M11.4927 3.70691C11.3531 3.70691 11.24 3.81997 11.24 3.95953C11.24 4.266 10.9907 4.51532 10.6843 4.51532C10.5447 4.51532 10.4316 4.62838 10.4316 4.76794C10.4316 4.9075 10.5447 5.02057 10.6843 5.02057C11.2693 5.02057 11.7453 4.54457 11.7453 3.9595C11.7453 3.82 11.6322 3.70691 11.4927 3.70691Z" fill="#0C49CD" stroke="#0C49CD" stroke-width="0.2"/>
<path id="Shape_8" d="M12.5031 3.909C12.3636 3.909 12.2505 4.02206 12.2505 4.16162C12.2505 4.91387 11.6385 5.52584 10.8863 5.52584C10.7467 5.52584 10.6337 5.6389 10.6337 5.77847C10.6337 5.91803 10.7467 6.03109 10.8863 6.03109C11.9171 6.03109 12.7558 5.19247 12.7558 4.16162C12.7558 4.02209 12.6427 3.909 12.5031 3.909Z" fill="#0C49CD" stroke="#0C49CD" stroke-width="0.2"/>
<path id="Shape_9" d="M13.7158 4.31323C13.5763 4.31323 13.4632 4.42629 13.4632 4.56586C13.4632 5.76383 12.4886 6.73848 11.2906 6.73848C11.151 6.73848 11.038 6.85154 11.038 6.99111C11.038 7.13067 11.151 7.24373 11.2906 7.24373C12.7672 7.24373 13.9685 6.04245 13.9685 4.56583C13.9685 4.42633 13.8554 4.31323 13.7158 4.31323Z" fill="#0C49CD" stroke="#0C49CD" stroke-width="0.2"/>
</g>
</g>
</svg>
