<svg width="18" height="18" viewBox="0 0 18 18" fill="none" xmlns="http://www.w3.org/2000/svg">
<g id="Law White">
<rect id="Rectangle 4 Copy 32" width="18" height="18" fill="#F4F7FB" fill-opacity="0.01"/>
<g id="auction">
<g id="Shape">
<path fill-rule="evenodd" clip-rule="evenodd" d="M14.2747 8.17113C13.9399 7.83647 13.438 7.76906 13.0354 7.96837L8.63892 3.5719C8.83838 3.16946 8.771 2.66747 8.43628 2.33281C8.23291 2.12959 7.96265 2.01765 7.67529 2.01765C7.38794 2.01765 7.11768 2.12956 6.91455 2.33281L4.30029 4.94687C3.88086 5.36641 3.88086 6.04903 4.30029 6.46857C4.51025 6.67831 4.78564 6.78322 5.06128 6.78322C5.22534 6.78322 5.3894 6.74571 5.53955 6.67131L6.95972 8.09146L1.09326 13.9577C0.968994 14.0822 0.968994 14.284 1.09326 14.4085L2.19873 15.514C2.25854 15.5737 2.3396 15.6073 2.42432 15.6073C2.50879 15.6073 2.58984 15.5737 2.64966 15.514L8.51587 9.64763L9.93579 11.0674C9.86255 11.2143 9.82373 11.3772 9.82373 11.546C9.82373 11.8335 9.93555 12.1037 10.1389 12.3068C10.342 12.5101 10.6123 12.622 10.8997 12.622C11.1873 12.622 11.4573 12.5101 11.6606 12.3068L14.2747 9.69278C14.4778 9.48956 14.5898 9.21935 14.5898 8.9319C14.5898 8.64447 14.4778 8.37434 14.2747 8.17113ZM5.37134 6.0179C5.20044 6.18872 4.92236 6.18872 4.75122 6.01778C4.58032 5.84677 4.58032 5.56853 4.75122 5.39755L7.36548 2.78349C7.44824 2.70065 7.55835 2.65506 7.67554 2.65506C7.79272 2.65506 7.90283 2.70068 7.9856 2.78349C8.15649 2.9545 8.15649 3.23271 7.9856 3.40372L5.37134 6.0179ZM1.76953 14.1831L2.42432 14.8379L8.06543 9.19688L7.41064 8.54213L1.76953 14.1831ZM6.03027 6.26041L8.22803 4.06256L12.5449 8.37927L10.3469 10.5771L6.03027 6.26041ZM11.2097 11.8562L13.824 9.24213C13.9067 9.15929 13.9524 9.04915 13.9524 8.93204C13.9524 8.81491 13.9067 8.70477 13.824 8.62193C13.741 8.53906 13.6309 8.49347 13.5137 8.49353C13.3967 8.49353 13.2866 8.53906 13.2039 8.62181L10.5896 11.236C10.5425 11.2832 10.5073 11.3392 10.4858 11.4004C10.4695 11.4466 10.4612 11.4957 10.4612 11.5461C10.4612 11.6632 10.5068 11.7733 10.5896 11.8562C10.6724 11.939 10.7825 11.9846 10.8997 11.9846C11.0168 11.9846 11.127 11.939 11.2097 11.8562Z" fill="white"/>
<path d="M13.0354 7.96837L12.9647 8.03908L13.0154 8.08983L13.0798 8.05799L13.0354 7.96837ZM14.2747 8.17113L14.3454 8.10043L14.3454 8.10041L14.2747 8.17113ZM8.63892 3.5719L8.54932 3.52749L8.51743 3.59183L8.56821 3.64261L8.63892 3.5719ZM8.43628 2.33281L8.50698 2.26209L8.50696 2.26207L8.43628 2.33281ZM6.91455 2.33281L6.98526 2.40352L6.98528 2.4035L6.91455 2.33281ZM4.30029 4.94687L4.22958 4.87616L4.22957 4.87617L4.30029 4.94687ZM4.30029 6.46857L4.22957 6.53927L4.22962 6.53931L4.30029 6.46857ZM5.53955 6.67131L5.61026 6.6006L5.55949 6.54983L5.49515 6.58171L5.53955 6.67131ZM6.95972 8.09146L7.03043 8.16217L7.10114 8.09146L7.03043 8.02075L6.95972 8.09146ZM1.09326 13.9577L1.02255 13.887L1.02249 13.8871L1.09326 13.9577ZM1.09326 14.4085L1.02249 14.4791L1.02255 14.4792L1.09326 14.4085ZM2.19873 15.514L2.12802 15.5847L2.12806 15.5847L2.19873 15.514ZM2.64966 15.514L2.72033 15.5847L2.72037 15.5847L2.64966 15.514ZM8.51587 9.64763L8.58658 9.57691L8.51586 9.50621L8.44516 9.57692L8.51587 9.64763ZM9.93579 11.0674L10.0253 11.112L10.0574 11.0476L10.0065 10.9967L9.93579 11.0674ZM10.1389 12.3068L10.2096 12.2361L10.2096 12.2361L10.1389 12.3068ZM11.6606 12.3068L11.7313 12.3776L11.7314 12.3775L11.6606 12.3068ZM14.2747 9.69278L14.3454 9.76349L14.3454 9.76347L14.2747 9.69278ZM4.75122 6.01778L4.68049 6.08847L4.68055 6.08853L4.75122 6.01778ZM5.37134 6.0179L5.44203 6.08862L5.44205 6.08861L5.37134 6.0179ZM4.75122 5.39755L4.68051 5.32684L4.68049 5.32686L4.75122 5.39755ZM7.36548 2.78349L7.43619 2.85421L7.43622 2.85417L7.36548 2.78349ZM7.9856 2.78349L8.05633 2.7128L8.05633 2.7128L7.9856 2.78349ZM7.9856 3.40372L8.05631 3.47443L8.05633 3.47441L7.9856 3.40372ZM2.42432 14.8379L2.35361 14.9086L2.42432 14.9793L2.49503 14.9086L2.42432 14.8379ZM1.76953 14.1831L1.69882 14.1124L1.62811 14.1831L1.69882 14.2538L1.76953 14.1831ZM8.06543 9.19688L8.13614 9.2676L8.20685 9.19688L8.13614 9.12617L8.06543 9.19688ZM7.41064 8.54213L7.48135 8.47142L7.41064 8.40071L7.33993 8.47142L7.41064 8.54213ZM8.22803 4.06256L8.29874 3.99185L8.22802 3.92114L8.15732 3.99185L8.22803 4.06256ZM6.03027 6.26041L5.95956 6.1897L5.88885 6.26041L5.95956 6.33112L6.03027 6.26041ZM12.5449 8.37927L12.6156 8.44999L12.6863 8.37927L12.6156 8.30856L12.5449 8.37927ZM10.3469 10.5771L10.2762 10.6478L10.3469 10.7185L10.4176 10.6478L10.3469 10.5771ZM13.824 9.24213L13.8947 9.31284L13.8947 9.3128L13.824 9.24213ZM11.2097 11.8562L11.139 11.7855L11.139 11.7855L11.2097 11.8562ZM13.824 8.62193L13.8947 8.55125L13.8946 8.55116L13.824 8.62193ZM13.5137 8.49353V8.59353H13.5137L13.5137 8.49353ZM13.2039 8.62181L13.1332 8.55109L13.1331 8.5511L13.2039 8.62181ZM10.5896 11.236L10.5189 11.1653L10.5188 11.1653L10.5896 11.236ZM10.4858 11.4004L10.5801 11.4338L10.5802 11.4335L10.4858 11.4004ZM10.5896 11.8562L10.5189 11.9269L10.5189 11.9269L10.5896 11.8562ZM13.0798 8.05799C13.4452 7.87706 13.9006 7.93854 14.204 8.24184L14.3454 8.10041C13.9793 7.7344 13.4307 7.66106 12.991 7.87875L13.0798 8.05799ZM8.56821 3.64261L12.9647 8.03908L13.1061 7.89766L8.70963 3.50119L8.56821 3.64261ZM8.36557 2.40353C8.66893 2.70682 8.73037 3.16221 8.54932 3.52749L8.72851 3.61631C8.94639 3.17672 8.87307 2.62811 8.50698 2.26209L8.36557 2.40353ZM7.67529 2.11765C7.93612 2.11765 8.18096 2.21905 8.3656 2.40355L8.50696 2.26207C8.28486 2.04013 7.98917 1.91765 7.67529 1.91765V2.11765ZM6.98528 2.4035C7.16964 2.21903 7.41445 2.11765 7.67529 2.11765V1.91765C7.36143 1.91765 7.06571 2.04009 6.84382 2.26212L6.98528 2.4035ZM4.371 5.01758L6.98526 2.40352L6.84384 2.2621L4.22958 4.87616L4.371 5.01758ZM4.37101 6.39787C3.99062 6.01738 3.99062 5.39806 4.37101 5.01757L4.22957 4.87617C3.7711 5.33476 3.7711 6.08068 4.22957 6.53927L4.37101 6.39787ZM5.06128 6.68322C4.81102 6.68322 4.56139 6.58805 4.37097 6.39782L4.22962 6.53931C4.45912 6.76858 4.76027 6.88322 5.06128 6.88322V6.68322ZM5.49515 6.58171C5.35899 6.64918 5.21014 6.68322 5.06128 6.68322V6.88322C5.24054 6.88322 5.41982 6.84224 5.58395 6.76091L5.49515 6.58171ZM7.03043 8.02075L5.61026 6.6006L5.46884 6.74202L6.88901 8.16217L7.03043 8.02075ZM1.16397 14.0285L7.03043 8.16217L6.88901 8.02075L1.02255 13.887L1.16397 14.0285ZM1.16403 14.3378C1.07874 14.2524 1.07874 14.1138 1.16403 14.0284L1.02249 13.8871C0.85925 14.0506 0.85925 14.3156 1.02249 14.4791L1.16403 14.3378ZM2.26944 15.4433L1.16397 14.3378L1.02255 14.4792L2.12802 15.5847L2.26944 15.4433ZM2.42432 15.5073C2.36612 15.5073 2.31048 15.4843 2.26941 15.4432L2.12806 15.5847C2.20661 15.6632 2.31308 15.7073 2.42432 15.7073V15.5073ZM2.57898 15.4432C2.53788 15.4843 2.48223 15.5073 2.42432 15.5073V15.7073C2.53535 15.7073 2.6418 15.6632 2.72033 15.5847L2.57898 15.4432ZM8.44516 9.57692L2.57895 15.4433L2.72037 15.5847L8.58658 9.71834L8.44516 9.57692ZM10.0065 10.9967L8.58658 9.57691L8.44516 9.71834L9.86508 11.1381L10.0065 10.9967ZM9.92373 11.546C9.92373 11.3926 9.95897 11.245 10.0253 11.112L9.84629 11.0228C9.76613 11.1836 9.72373 11.3617 9.72373 11.546H9.92373ZM10.2096 12.2361C10.025 12.0517 9.92373 11.807 9.92373 11.546H9.72373C9.72373 11.86 9.84606 12.1556 10.0682 12.3776L10.2096 12.2361ZM10.8997 12.522C10.6388 12.522 10.394 12.4206 10.2096 12.2361L10.0682 12.3775C10.2901 12.5995 10.5858 12.722 10.8997 12.722V12.522ZM11.59 12.2361C11.4053 12.4206 11.1607 12.522 10.8997 12.522V12.722C11.2138 12.722 11.5092 12.5995 11.7313 12.3776L11.59 12.2361ZM14.2039 9.62207L11.5899 12.2361L11.7314 12.3775L14.3454 9.76349L14.2039 9.62207ZM14.4898 8.9319C14.4898 9.1928 14.3883 9.4376 14.2039 9.62208L14.3454 9.76347C14.5672 9.54153 14.6898 9.24589 14.6898 8.9319H14.4898ZM14.2039 8.24182C14.3883 8.42632 14.4898 8.67103 14.4898 8.9319H14.6898C14.6898 8.61791 14.5672 8.32237 14.3454 8.10043L14.2039 8.24182ZM4.68055 6.08853C4.8907 6.29844 5.23205 6.29851 5.44203 6.08862L5.30064 5.94717C5.16883 6.07893 4.95402 6.079 4.82189 5.94702L4.68055 6.08853ZM4.68049 5.32686C4.47056 5.53688 4.47057 5.87842 4.68049 6.08847L4.82195 5.94709C4.69007 5.81513 4.69008 5.60017 4.82195 5.46825L4.68049 5.32686ZM7.29477 2.71278L4.68051 5.32684L4.82193 5.46827L7.43619 2.85421L7.29477 2.71278ZM7.67554 2.55506C7.53185 2.55506 7.39628 2.61118 7.29474 2.71281L7.43622 2.85417C7.5002 2.79013 7.58485 2.75506 7.67554 2.75506V2.55506ZM8.05633 2.7128C7.9548 2.61122 7.81924 2.55506 7.67554 2.55506V2.75506C7.76621 2.75506 7.85087 2.79015 7.91487 2.85418L8.05633 2.7128ZM8.05633 3.47441C8.26625 3.26435 8.26625 2.92286 8.05633 2.7128L7.91486 2.85418C8.04674 2.98614 8.04674 3.20107 7.91486 3.33303L8.05633 3.47441ZM5.44205 6.08861L8.05631 3.47443L7.91489 3.33301L5.30063 5.94719L5.44205 6.08861ZM2.49502 14.7672L1.84024 14.1124L1.69882 14.2538L2.35361 14.9086L2.49502 14.7672ZM7.99472 9.12617L2.35361 14.7672L2.49503 14.9086L8.13614 9.2676L7.99472 9.12617ZM7.33994 8.61284L7.99472 9.2676L8.13614 9.12617L7.48135 8.47142L7.33994 8.61284ZM1.84024 14.2538L7.48135 8.61284L7.33993 8.47142L1.69882 14.1124L1.84024 14.2538ZM8.15732 3.99185L5.95956 6.1897L6.10099 6.33112L8.29874 4.13327L8.15732 3.99185ZM12.6156 8.30856L8.29874 3.99185L8.15732 4.13327L12.4742 8.44998L12.6156 8.30856ZM10.4176 10.6478L12.6156 8.44999L12.4742 8.30856L10.2762 10.5064L10.4176 10.6478ZM5.95956 6.33112L10.2762 10.6478L10.4176 10.5064L6.10098 6.1897L5.95956 6.33112ZM13.7533 9.17141L11.139 11.7855L11.2804 11.9269L13.8947 9.31284L13.7533 9.17141ZM13.8524 8.93204C13.8524 9.02261 13.8173 9.10733 13.7532 9.17145L13.8947 9.3128C13.9962 9.21124 14.0524 9.07569 14.0524 8.93204H13.8524ZM13.7532 8.69261C13.8173 8.75672 13.8524 8.84145 13.8524 8.93204H14.0524C14.0524 8.78837 13.9962 8.65282 13.8947 8.55125L13.7532 8.69261ZM13.5137 8.59353C13.6043 8.59348 13.689 8.62852 13.7533 8.6927L13.8946 8.55116C13.7929 8.4496 13.6574 8.39346 13.5136 8.39353L13.5137 8.59353ZM13.2746 8.69253C13.3386 8.62855 13.4232 8.59353 13.5137 8.59353V8.39353C13.3702 8.39353 13.2347 8.44957 13.1332 8.55109L13.2746 8.69253ZM10.6603 11.3067L13.2746 8.69252L13.1331 8.5511L10.5189 11.1653L10.6603 11.3067ZM10.5802 11.4335C10.5967 11.3866 10.6237 11.3433 10.6604 11.3067L10.5188 11.1653C10.4612 11.223 10.418 11.2919 10.3915 11.3673L10.5802 11.4335ZM10.5612 11.5461C10.5612 11.5067 10.5677 11.4689 10.5801 11.4338L10.3916 11.367C10.3713 11.4243 10.3612 11.4847 10.3612 11.5461H10.5612ZM10.6603 11.7855C10.5963 11.7214 10.5612 11.6367 10.5612 11.5461H10.3612C10.3612 11.6898 10.4174 11.8253 10.5189 11.9269L10.6603 11.7855ZM10.8997 11.8846C10.809 11.8846 10.7243 11.8495 10.6603 11.7855L10.5189 11.9269C10.6204 12.0285 10.756 12.0846 10.8997 12.0846V11.8846ZM11.139 11.7855C11.075 11.8495 10.9903 11.8846 10.8997 11.8846V12.0846C11.0433 12.0846 11.1789 12.0285 11.2805 11.9269L11.139 11.7855Z" fill="white"/>
</g>
<g id="Shape_2">
<path fill-rule="evenodd" clip-rule="evenodd" d="M10.9895 13.4501H15.9241C16.5173 13.4501 17 13.9327 17 14.526C17 15.1193 16.5173 15.6021 15.9241 15.6021H10.9895C10.3962 15.6021 9.91357 15.1194 9.91357 14.5261C9.91357 13.9328 10.3962 13.4501 10.9895 13.4501ZM10.9895 14.9646H15.9241C16.166 14.9646 16.3625 14.7679 16.3625 14.5261C16.3625 14.2842 16.166 14.0875 15.9241 14.0875H10.9895C10.7478 14.0875 10.551 14.2842 10.551 14.526C10.551 14.7678 10.7478 14.9646 10.9895 14.9646Z" fill="white"/>
<path d="M15.9241 13.3501H10.9895V13.5501H15.9241V13.3501ZM17.1 14.526C17.1 13.8775 16.5726 13.3501 15.9241 13.3501V13.5501C16.4621 13.5501 16.9 13.988 16.9 14.526H17.1ZM15.9241 15.7021C16.5726 15.7021 17.1 15.1746 17.1 14.526H16.9C16.9 15.0641 16.4621 15.5021 15.9241 15.5021V15.7021ZM10.9895 15.7021H15.9241V15.5021H10.9895V15.7021ZM9.81357 14.5261C9.81357 15.1746 10.341 15.7021 10.9895 15.7021V15.5021C10.4515 15.5021 10.0136 15.0641 10.0136 14.5261H9.81357ZM10.9895 13.3501C10.341 13.3501 9.81357 13.8775 9.81357 14.5261H10.0136C10.0136 13.988 10.4515 13.5501 10.9895 13.5501V13.3501ZM15.9241 14.8646H10.9895V15.0646H15.9241V14.8646ZM16.2625 14.5261C16.2625 14.7127 16.1108 14.8646 15.9241 14.8646V15.0646C16.2213 15.0646 16.4625 14.8231 16.4625 14.5261H16.2625ZM15.9241 14.1875C16.1107 14.1875 16.2625 14.3394 16.2625 14.5261H16.4625C16.4625 14.2291 16.2213 13.9875 15.9241 13.9875V14.1875ZM10.9895 14.1875H15.9241V13.9875H10.9895V14.1875ZM10.651 14.526C10.651 14.3394 10.803 14.1875 10.9895 14.1875V13.9875C10.6926 13.9875 10.451 14.229 10.451 14.526H10.651ZM10.9895 14.8646C10.803 14.8646 10.651 14.7126 10.651 14.526H10.451C10.451 14.8231 10.6926 15.0646 10.9895 15.0646V14.8646Z" fill="white"/>
</g>
<path id="Shape_3" d="M10.2623 6.47546L10.132 6.34521C10.0076 6.22074 9.80571 6.22074 9.68124 6.34521C9.55677 6.46971 9.55677 6.67149 9.68127 6.79596L9.81155 6.92621C9.87377 6.98846 9.95533 7.01956 10.0369 7.01956C10.1185 7.01956 10.2001 6.98843 10.2623 6.92621C10.3867 6.80174 10.3867 6.59993 10.2623 6.47546Z" fill="white" stroke="white" stroke-width="0.2"/>
<path id="Shape_4" d="M9.41584 5.62213L8.45369 4.66697C8.32875 4.54291 8.12697 4.54369 8.00294 4.6686C7.87891 4.7935 7.87966 4.99531 8.00459 5.11935L8.96675 6.07453C9.02891 6.13628 9.11013 6.16706 9.19128 6.16706C9.27322 6.16706 9.35516 6.13563 9.41747 6.07288C9.5415 5.94797 9.54078 5.74616 9.41584 5.62213Z" fill="white" stroke="white" stroke-width="0.2"/>
</g>
</g>
</svg>
