<svg width="18" height="18" viewBox="0 0 18 18" fill="none" xmlns="http://www.w3.org/2000/svg">
<g id="Law">
<rect id="Rectangle 4 Copy 32" width="18" height="18" fill="#F4F7FB" fill-opacity="0.01"/>
<g id="auction">
<g id="Shape">
<path fill-rule="evenodd" clip-rule="evenodd" d="M14.2747 8.17113C13.9399 7.83647 13.4379 7.76906 13.0355 7.96837L8.63892 3.5719C8.83826 3.16946 8.77087 2.66747 8.43616 2.33281C8.23303 2.12959 7.96277 2.01765 7.67529 2.01765C7.38794 2.01765 7.11768 2.12956 6.91443 2.33281L4.30042 4.94687C3.88086 5.36641 3.88086 6.04903 4.30042 6.46857C4.51025 6.67831 4.78577 6.78322 5.06128 6.78322C5.22534 6.78322 5.3894 6.74571 5.53955 6.67131L6.95972 8.09146L1.09338 13.9577C0.968872 14.0822 0.968872 14.284 1.09338 14.4085L2.19885 15.514C2.25867 15.5737 2.33972 15.6073 2.42419 15.6073C2.46631 15.6073 2.50757 15.599 2.54578 15.5833C2.58423 15.5674 2.61963 15.544 2.64966 15.514L8.51599 9.64763L9.93567 11.0674C9.86255 11.2143 9.82361 11.3772 9.82361 11.546C9.82361 11.8335 9.93567 12.1037 10.1388 12.3068C10.342 12.5101 10.6123 12.622 10.8998 12.622C11.1871 12.622 11.4574 12.5101 11.6605 12.3068L14.2747 9.69278C14.4779 9.48956 14.5898 9.21935 14.5898 8.9319C14.5898 8.64447 14.4778 8.37434 14.2747 8.17113ZM5.37122 6.0179C5.20032 6.18872 4.92212 6.18872 4.75122 6.01778C4.5802 5.84677 4.5802 5.56853 4.75122 5.39755L7.36523 2.78349C7.44812 2.70065 7.55823 2.65506 7.67529 2.65506C7.72388 2.65506 7.77136 2.66292 7.81616 2.67804C7.87915 2.69934 7.93701 2.73506 7.98547 2.78349C8.15637 2.9545 8.15637 3.23271 7.98547 3.40372L5.37122 6.0179ZM1.76953 14.1831L2.42432 14.8379L8.06531 9.19688L7.41052 8.54213L1.76953 14.1831ZM6.03027 6.26041L8.22815 4.06256L12.5448 8.37927L10.3469 10.5771L6.03027 6.26041ZM11.2098 11.8562L13.8239 9.24213C13.9067 9.15929 13.9524 9.04915 13.9524 8.93204C13.9524 8.81491 13.9067 8.70477 13.824 8.62193C13.7411 8.53906 13.631 8.49347 13.5138 8.49353C13.3967 8.49353 13.2866 8.53906 13.2039 8.62181L10.5896 11.236C10.5068 11.3188 10.4612 11.429 10.4612 11.5461C10.4612 11.6632 10.5068 11.7733 10.5896 11.8562C10.6725 11.939 10.7826 11.9846 10.8998 11.9846C11.0168 11.9846 11.127 11.939 11.2098 11.8562Z" fill="#0C49CD"/>
<path d="M13.0355 7.96837L12.9648 8.03908L13.0156 8.08985L13.0799 8.05798L13.0355 7.96837ZM14.2747 8.17113L14.3454 8.10043L14.3454 8.10041L14.2747 8.17113ZM8.63892 3.5719L8.54931 3.52751L8.51744 3.59185L8.56821 3.64261L8.63892 3.5719ZM8.43616 2.33281L8.36543 2.4035L8.36545 2.40353L8.43616 2.33281ZM6.91443 2.33281L6.84372 2.2621L6.84372 2.2621L6.91443 2.33281ZM4.30042 4.94687L4.37112 5.01758L4.37113 5.01758L4.30042 4.94687ZM4.30042 6.46857L4.22971 6.53928L4.22972 6.53929L4.30042 6.46857ZM5.53955 6.67131L5.61026 6.6006L5.55949 6.54983L5.49515 6.58171L5.53955 6.67131ZM6.95972 8.09146L7.03043 8.16217L7.10114 8.09146L7.03043 8.02075L6.95972 8.09146ZM1.09338 13.9577L1.16408 14.0285L1.16409 14.0285L1.09338 13.9577ZM1.09338 14.4085L1.1641 14.3378L1.16408 14.3378L1.09338 14.4085ZM2.19885 15.514L2.12814 15.5847L2.12818 15.5847L2.19885 15.514ZM2.54578 15.5833L2.58391 15.6757L2.58393 15.6757L2.54578 15.5833ZM2.64966 15.514L2.72031 15.5848L2.72037 15.5847L2.64966 15.514ZM8.51599 9.64763L8.5867 9.57692L8.51599 9.50621L8.44528 9.57692L8.51599 9.64763ZM9.93567 11.0674L10.0252 11.1119L10.0572 11.0475L10.0064 10.9967L9.93567 11.0674ZM10.1388 12.3068L10.0681 12.3775L10.0681 12.3776L10.1388 12.3068ZM11.6605 12.3068L11.5898 12.2361L11.5898 12.2361L11.6605 12.3068ZM14.2747 9.69278L14.204 9.62206L14.2039 9.62207L14.2747 9.69278ZM4.75122 6.01778L4.82194 5.94708L4.82193 5.94706L4.75122 6.01778ZM5.37122 6.0179L5.44191 6.08862L5.44193 6.08861L5.37122 6.0179ZM4.75122 5.39755L4.82192 5.46827L4.82193 5.46826L4.75122 5.39755ZM7.36523 2.78349L7.29454 2.71276L7.29452 2.71278L7.36523 2.78349ZM7.81616 2.67804L7.8482 2.58331L7.84814 2.58329L7.81616 2.67804ZM7.98547 2.78349L8.05621 2.7128L8.05616 2.71276L7.98547 2.78349ZM7.98547 3.40372L8.05618 3.47443L8.05621 3.47441L7.98547 3.40372ZM2.42432 14.8379L2.35361 14.9086L2.42432 14.9793L2.49503 14.9086L2.42432 14.8379ZM1.76953 14.1831L1.69882 14.1124L1.62811 14.1831L1.69882 14.2538L1.76953 14.1831ZM8.06531 9.19688L8.13602 9.26759L8.20673 9.19688L8.13602 9.12617L8.06531 9.19688ZM7.41052 8.54213L7.48123 8.47142L7.41052 8.40071L7.33981 8.47142L7.41052 8.54213ZM8.22815 4.06256L8.29886 3.99185L8.22815 3.92114L8.15744 3.99185L8.22815 4.06256ZM6.03027 6.26041L5.95956 6.1897L5.88885 6.26041L5.95956 6.33112L6.03027 6.26041ZM12.5448 8.37927L12.6155 8.44998L12.6862 8.37927L12.6155 8.30856L12.5448 8.37927ZM10.3469 10.5771L10.2762 10.6478L10.3469 10.7185L10.4176 10.6478L10.3469 10.5771ZM13.8239 9.24213L13.7532 9.1714L13.7531 9.17142L13.8239 9.24213ZM11.2098 11.8562L11.2805 11.9269L11.2806 11.9269L11.2098 11.8562ZM13.824 8.62193L13.8947 8.55125L13.8947 8.55122L13.824 8.62193ZM13.5138 8.49353V8.59353H13.5138L13.5138 8.49353ZM13.2039 8.62181L13.1332 8.55109L13.1331 8.5511L13.2039 8.62181ZM10.5896 11.236L10.5189 11.1653L10.5189 11.1653L10.5896 11.236ZM10.5896 11.8562L10.5189 11.9269L10.5189 11.9269L10.5896 11.8562ZM13.0799 8.05798C13.4451 7.87707 13.9006 7.93853 14.204 8.24184L14.3454 8.10041C13.9793 7.73441 13.4306 7.66105 12.9911 7.87876L13.0799 8.05798ZM8.56821 3.64261L12.9648 8.03908L13.1062 7.89766L8.70963 3.50119L8.56821 3.64261ZM8.36545 2.40353C8.6688 2.70682 8.73025 3.16222 8.54931 3.52751L8.72853 3.61629C8.94626 3.17671 8.87294 2.62811 8.50686 2.26209L8.36545 2.40353ZM7.67529 2.11765C7.93626 2.11765 8.18107 2.21906 8.36543 2.4035L8.50688 2.26211C8.28499 2.04012 7.98928 1.91765 7.67529 1.91765V2.11765ZM6.98514 2.40352C7.16963 2.21903 7.41446 2.11765 7.67529 2.11765V1.91765C7.36142 1.91765 7.06572 2.04009 6.84372 2.2621L6.98514 2.40352ZM4.37113 5.01758L6.98514 2.40352L6.84372 2.2621L4.2297 4.87616L4.37113 5.01758ZM4.37112 6.39785C3.99062 6.01737 3.99062 5.39807 4.37112 5.01758L4.22971 4.87616C3.7711 5.33475 3.7711 6.08069 4.22971 6.53928L4.37112 6.39785ZM5.06128 6.68322C4.81113 6.68322 4.5614 6.58804 4.37111 6.39784L4.22972 6.53929C4.45911 6.76859 4.76041 6.88322 5.06128 6.88322V6.68322ZM5.49515 6.58171C5.35899 6.64918 5.21014 6.68322 5.06128 6.68322V6.88322C5.24054 6.88322 5.41982 6.84224 5.58395 6.76091L5.49515 6.58171ZM7.03043 8.02075L5.61026 6.6006L5.46884 6.74202L6.88901 8.16217L7.03043 8.02075ZM1.16409 14.0285L7.03043 8.16217L6.88901 8.02075L1.02267 13.887L1.16409 14.0285ZM1.16408 14.3378C1.07864 14.2524 1.07864 14.1139 1.16408 14.0285L1.02269 13.887C0.859105 14.0505 0.859105 14.3157 1.02269 14.4792L1.16408 14.3378ZM2.26956 15.4433L1.1641 14.3378L1.02267 14.4792L2.12814 15.5847L2.26956 15.4433ZM2.42419 15.5073C2.36628 15.5073 2.31063 15.4843 2.26953 15.4432L2.12818 15.5847C2.20671 15.6632 2.31317 15.7073 2.42419 15.7073V15.5073ZM2.50764 15.4908C2.48141 15.5016 2.4531 15.5073 2.42419 15.5073V15.7073C2.47952 15.7073 2.53372 15.6964 2.58391 15.6757L2.50764 15.4908ZM2.579 15.4432C2.55837 15.4638 2.53404 15.4799 2.50763 15.4908L2.58393 15.6757C2.63441 15.6549 2.68089 15.6241 2.72031 15.5848L2.579 15.4432ZM8.44528 9.57692L2.57895 15.4433L2.72037 15.5847L8.5867 9.71834L8.44528 9.57692ZM10.0064 10.9967L8.5867 9.57692L8.44528 9.71834L9.86496 11.1381L10.0064 10.9967ZM9.92361 11.546C9.92361 11.3927 9.95895 11.2451 10.0252 11.1119L9.84614 11.0228C9.76615 11.1836 9.72361 11.3616 9.72361 11.546H9.92361ZM10.2095 12.2361C10.0251 12.0517 9.92361 11.8069 9.92361 11.546H9.72361C9.72361 11.86 9.84622 12.1557 10.0681 12.3775L10.2095 12.2361ZM10.8998 12.522C10.6388 12.522 10.394 12.4206 10.2095 12.2361L10.0681 12.3776C10.2901 12.5995 10.5858 12.722 10.8998 12.722V12.522ZM11.5898 12.2361C11.4054 12.4206 11.1606 12.522 10.8998 12.522V12.722C11.2137 12.722 11.5094 12.5995 11.7312 12.3775L11.5898 12.2361ZM14.2039 9.62207L11.5898 12.2361L11.7312 12.3776L14.3454 9.76349L14.2039 9.62207ZM14.4898 8.9319C14.4898 9.19282 14.3884 9.4376 14.204 9.62206L14.3454 9.7635C14.5674 9.54152 14.6898 9.24587 14.6898 8.9319H14.4898ZM14.2039 8.24182C14.3883 8.42632 14.4898 8.67103 14.4898 8.9319H14.6898C14.6898 8.61791 14.5672 8.32237 14.3454 8.10043L14.2039 8.24182ZM4.6805 6.08848C4.89045 6.29848 5.23196 6.29848 5.44191 6.08862L5.30052 5.94717C5.16868 6.07896 4.95379 6.07896 4.82194 5.94708L4.6805 6.08848ZM4.68052 5.32683C4.47043 5.53687 4.47044 5.87844 4.68051 6.08849L4.82193 5.94706C4.68996 5.81511 4.68997 5.60019 4.82192 5.46827L4.68052 5.32683ZM7.29452 2.71278L4.68051 5.32684L4.82193 5.46826L7.43595 2.8542L7.29452 2.71278ZM7.67529 2.55506C7.5317 2.55506 7.39617 2.61119 7.29454 2.71276L7.43593 2.85422C7.50007 2.79011 7.58476 2.75506 7.67529 2.75506V2.55506ZM7.84814 2.58329C7.79298 2.56467 7.73469 2.55506 7.67529 2.55506V2.75506C7.71307 2.75506 7.74975 2.76116 7.78418 2.77279L7.84814 2.58329ZM8.05616 2.71276C7.99687 2.65351 7.9258 2.60955 7.8482 2.58331L7.78413 2.77277C7.8325 2.78913 7.87715 2.81661 7.91479 2.85423L8.05616 2.71276ZM8.05621 3.47441C8.26613 3.26435 8.26613 2.92286 8.05621 2.7128L7.91474 2.85418C8.04662 2.98614 8.04662 3.20107 7.91474 3.33303L8.05621 3.47441ZM5.44193 6.08861L8.05618 3.47443L7.91476 3.33301L5.30051 5.94719L5.44193 6.08861ZM2.49502 14.7672L1.84024 14.1124L1.69882 14.2538L2.35361 14.9086L2.49502 14.7672ZM7.9946 9.12617L2.35361 14.7672L2.49503 14.9086L8.13602 9.26759L7.9946 9.12617ZM7.33981 8.61284L7.9946 9.2676L8.13602 9.12617L7.48123 8.47142L7.33981 8.61284ZM1.84024 14.2538L7.48123 8.61284L7.33981 8.47142L1.69882 14.1124L1.84024 14.2538ZM8.15744 3.99185L5.95956 6.1897L6.10098 6.33112L8.29886 4.13327L8.15744 3.99185ZM12.6155 8.30856L8.29886 3.99185L8.15744 4.13327L12.4741 8.44998L12.6155 8.30856ZM10.4176 10.6478L12.6155 8.44998L12.4741 8.30856L10.2762 10.5064L10.4176 10.6478ZM5.95956 6.33112L10.2762 10.6478L10.4176 10.5064L6.10098 6.1897L5.95956 6.33112ZM13.7531 9.17142L11.1391 11.7855L11.2806 11.9269L13.8946 9.31284L13.7531 9.17142ZM13.8524 8.93204C13.8524 9.0226 13.8173 9.1073 13.7532 9.1714L13.8945 9.31286C13.9962 9.21127 14.0524 9.0757 14.0524 8.93204H13.8524ZM13.7532 8.69261C13.8173 8.75672 13.8524 8.84145 13.8524 8.93204H14.0524C14.0524 8.78837 13.9962 8.65282 13.8947 8.55125L13.7532 8.69261ZM13.5138 8.59353C13.6045 8.59348 13.6891 8.62853 13.7533 8.69265L13.8947 8.55122C13.793 8.44959 13.6575 8.39346 13.5137 8.39353L13.5138 8.59353ZM13.2746 8.69253C13.3385 8.62856 13.4232 8.59353 13.5138 8.59353V8.39353C13.3703 8.39353 13.2347 8.44956 13.1332 8.55109L13.2746 8.69253ZM10.6603 11.3067L13.2746 8.69252L13.1331 8.5511L10.5189 11.1653L10.6603 11.3067ZM10.5612 11.5461C10.5612 11.4555 10.5963 11.3708 10.6603 11.3067L10.5189 11.1653C10.4174 11.2669 10.3612 11.4024 10.3612 11.5461H10.5612ZM10.6603 11.7855C10.5963 11.7214 10.5612 11.6367 10.5612 11.5461H10.3612C10.3612 11.6898 10.4174 11.8253 10.5189 11.9269L10.6603 11.7855ZM10.8998 11.8846C10.8091 11.8846 10.7244 11.8495 10.6603 11.7854L10.5189 11.9269C10.6205 12.0285 10.7561 12.0846 10.8998 12.0846V11.8846ZM11.1391 11.7855C11.075 11.8496 10.9903 11.8846 10.8998 11.8846V12.0846C11.0434 12.0846 11.1789 12.0285 11.2805 11.9269L11.1391 11.7855Z" fill="#0C49CD"/>
</g>
<g id="Shape_2">
<path fill-rule="evenodd" clip-rule="evenodd" d="M10.9895 13.4501H15.924C16.5173 13.4501 17 13.9327 17 14.526C17 15.1193 16.5172 15.6021 15.924 15.6021H10.9895C10.3961 15.6021 9.91345 15.1194 9.91345 14.5261C9.91345 13.9328 10.3961 13.4501 10.9895 13.4501ZM10.9895 14.9646H15.924C16.1658 14.9646 16.3625 14.7679 16.3625 14.5261C16.3625 14.2842 16.1658 14.0875 15.924 14.0875H10.9895C10.7477 14.0875 10.5509 14.2842 10.5509 14.526C10.5509 14.7678 10.7477 14.9646 10.9895 14.9646Z" fill="#0C49CD"/>
<path d="M15.924 13.3501H10.9895V13.5501H15.924V13.3501ZM17.1 14.526C17.1 13.8775 16.5726 13.3501 15.924 13.3501V13.5501C16.4621 13.5501 16.9 13.988 16.9 14.526H17.1ZM15.924 15.7021C16.5724 15.7021 17.1 15.1746 17.1 14.526H16.9C16.9 15.0641 16.462 15.5021 15.924 15.5021V15.7021ZM10.9895 15.7021H15.924V15.5021H10.9895V15.7021ZM9.81345 14.5261C9.81345 15.1746 10.3409 15.7021 10.9895 15.7021V15.5021C10.4513 15.5021 10.0135 15.0641 10.0135 14.5261H9.81345ZM10.9895 13.3501C10.3409 13.3501 9.81345 13.8775 9.81345 14.5261H10.0135C10.0135 13.988 10.4513 13.5501 10.9895 13.5501V13.3501ZM15.924 14.8646H10.9895V15.0646H15.924V14.8646ZM16.2625 14.5261C16.2625 14.7126 16.1106 14.8646 15.924 14.8646V15.0646C16.221 15.0646 16.4625 14.8231 16.4625 14.5261H16.2625ZM15.924 14.1875C16.1106 14.1875 16.2625 14.3395 16.2625 14.5261H16.4625C16.4625 14.229 16.221 13.9875 15.924 13.9875V14.1875ZM10.9895 14.1875H15.924V13.9875H10.9895V14.1875ZM10.6509 14.526C10.6509 14.3395 10.8029 14.1875 10.9895 14.1875V13.9875C10.6925 13.9875 10.4509 14.229 10.4509 14.526H10.6509ZM10.9895 14.8646C10.8029 14.8646 10.6509 14.7126 10.6509 14.526H10.4509C10.4509 14.8231 10.6925 15.0646 10.9895 15.0646V14.8646Z" fill="#0C49CD"/>
</g>
<path id="Shape_3" d="M10.2621 6.47546L10.1319 6.34521C10.0074 6.22074 9.80558 6.22074 9.68112 6.34521C9.55665 6.46971 9.55665 6.67149 9.68115 6.79596L9.81143 6.92621C9.87365 6.98846 9.95521 7.01956 10.0368 7.01956C10.1183 7.01956 10.1999 6.98843 10.2621 6.92621C10.3866 6.80174 10.3866 6.59993 10.2621 6.47546Z" fill="#0C49CD" stroke="#0C49CD" stroke-width="0.2"/>
<path id="Shape_4" d="M9.41584 5.62213L8.45369 4.66697C8.32875 4.54291 8.12697 4.54369 8.00294 4.6686C7.87891 4.7935 7.87966 4.99531 8.00459 5.11935L8.96675 6.07453C9.02891 6.13628 9.11013 6.16706 9.19128 6.16706C9.27322 6.16706 9.35516 6.13563 9.41747 6.07288C9.5415 5.94797 9.54078 5.74616 9.41584 5.62213Z" fill="#0C49CD" stroke="#0C49CD" stroke-width="0.2"/>
</g>
</g>
</svg>
