<svg width="18" height="18" viewBox="0 0 18 18" fill="none" xmlns="http://www.w3.org/2000/svg">
<g id="License White">
<rect id="Rectangle 4 Copy 38" width="18" height="18" fill="#F4F7FB" fill-opacity="0.01"/>
<g id="papyrus">
<path id="Shape" fill-rule="evenodd" clip-rule="evenodd" d="M5.36377 1H14.4404C15.4192 1 16.2153 1.79626 16.2153 2.77509V4.23419H13.6011V15.2709L13.5989 15.2931C13.5435 15.8727 13.1016 16.9689 11.8259 16.9689H2.72192C1.77515 16.9689 1.00464 16.1984 1.00464 15.2514V13.7346H3.61914V2.74463C3.61914 1.78265 4.40186 1 5.36377 1ZM1.94043 15.2513C1.94043 15.6824 2.29102 16.0331 2.72217 16.0331H10.2676L10.2664 16.0309C10.0254 15.7421 10.0549 15.3151 10.0549 15.3151V14.6702H1.94043V15.2513ZM12.6653 2.77509V15.2188C12.6616 15.2418 12.6531 15.2899 12.6362 15.3516C12.6138 15.4337 12.5769 15.5398 12.5181 15.6431C12.3667 15.9092 12.146 16.0129 11.8257 16.0331C11.1245 16.0774 10.9968 15.3011 10.9905 15.2618V13.7346H4.55469V2.74463C4.55469 2.29858 4.91772 1.93567 5.36377 1.93567H12.8765C12.8652 1.95654 12.6606 2.32104 12.6653 2.77509ZM13.6011 2.77509V3.29852H15.2798V2.77509C15.2798 2.31219 14.9033 1.93567 14.4404 1.93567C14.0354 1.93567 13.6965 2.224 13.6182 2.60608C13.6069 2.66071 13.6011 2.71722 13.6011 2.77509Z" fill="white"/>
<rect id="Rectangle-path" x="6.0415" y="7.71375" width="5.13092" height="0.935673" fill="white"/>
<rect id="Rectangle-path_2" x="6.0415" y="5.75854" width="5.13092" height="0.935673" fill="white"/>
<rect id="Rectangle-path_3" x="6.0415" y="9.67462" width="5.13092" height="0.935673" fill="white"/>
</g>
</g>
</svg>
