<svg width="24" height="24" viewBox="0 0 24 24" fill="none" xmlns="http://www.w3.org/2000/svg">
<path fill-rule="evenodd" clip-rule="evenodd" d="M14.009 16C14.0167 15.8494 14.0311 15.6411 14.0557 15.5063C14.1381 15.0538 14.1955 14.8066 14.3209 14.4827C14.537 13.9242 14.8801 13.4432 15.3918 13.0796C16.7059 12.1458 17.5 10.6412 17.5 9C17.5 6.23858 15.2614 4 12.5 4C9.73858 4 7.5 6.23858 7.5 9C7.5 10.7188 8.24854 12.1566 9.56942 13.0577C10.0916 13.414 10.441 13.8945 10.6603 14.4543C10.7859 14.7752 10.8441 15.0226 10.9263 15.469C10.9543 15.6207 10.9757 15.843 10.9893 16H11.5V11.0053L9.90184 9.7979C9.46118 9.46498 9.37383 8.83787 9.70674 8.3972C10.0397 7.95654 10.6668 7.86919 11.1074 8.2021L12.505 9.25865L13.9051 8.2021C14.3458 7.86919 14.9729 7.95654 15.3058 8.3972C15.6387 8.83787 15.5514 9.46498 15.1107 9.7979L13.5 11.0148V16H14.009ZM10.0029 21C9.44903 21 9 20.5563 9 20.0002V16.0495C8.89371 15.4972 8.84046 14.9815 8.44226 14.7099C6.59512 13.4497 5.5 11.4048 5.5 9C5.5 5.13401 8.63401 2 12.5 2C16.366 2 19.5 5.13401 19.5 9C19.5 11.3567 18.3354 13.4413 16.5503 14.7099C16.162 14.9858 16.0955 15.4747 15.9986 16L16 20.0002C16 20.5524 15.5515 21 14.9971 21H13.9146C13.7087 21.5826 13.1531 22 12.5 22C11.8469 22 11.2913 21.5826 11.0854 21H10.0029ZM11 18V19H14V18H11Z" fill="#FF1E41"/>
</svg>
