<svg width="45" height="32" viewBox="0 0 45 32" fill="none" xmlns="http://www.w3.org/2000/svg">
<rect width="45" height="32" rx="2" fill="#3B4256"/>
<path fill-rule="evenodd" clip-rule="evenodd" d="M16.4614 13.8764L12.7736 12.9822C12.1479 12.8372 11.1682 12.5879 11.1682 11.4046C11.1682 10.0532 12.6056 9.59735 13.815 9.59735C16.5663 9.59735 16.8166 11.197 16.8992 11.8813H18.6543V14.693C18.0111 14.3176 17.2495 14.0745 16.4614 13.8764ZM14.4595 22.8686C15.251 22.8686 17.1978 22.7292 18.6533 21.6705V22.475H21.5918L21.5923 18.9437L22.822 17.6763L25.489 22.475H29.0124L24.9695 15.6203L28.9084 11.2993H25.3019L21.5923 15.538V7.39434H18.6543V8.68222C17.7572 7.72745 16.3061 7 14.0443 7C9.14662 7 8.22881 9.9708 8.22881 11.6319C8.22881 13.9172 9.45876 15.1849 11.606 15.7041L14.6488 16.4508C16.2535 16.8451 17.4003 17.1362 17.4003 18.3211C17.4003 19.9004 15.7321 20.2734 14.2317 20.2734C11.4806 20.2734 11.0216 18.674 11.0216 17.8217H8C8 19.6909 8.95807 22.8686 14.4595 22.8686Z" fill="white"/>
</svg>
