<svg width="18" height="18" viewBox="0 0 18 18" fill="none" xmlns="http://www.w3.org/2000/svg">
<g id="Mail service">
<rect id="Rectangle 4 Copy 18" width="18" height="18" fill="#F4F7FB" fill-opacity="0.01"/>
<g id="big-envelope">
<g id="Shape">
<path fill-rule="evenodd" clip-rule="evenodd" d="M16.8107 3.24667C16.9279 3.37537 17 3.54572 17 3.73303V13.8507C17 14.038 16.9279 14.2084 16.8107 14.3371L16.8051 14.3433C16.6729 14.4852 16.4849 14.5747 16.276 14.5747H1.724C1.51489 14.5747 1.32666 14.485 1.19446 14.3427L1.18933 14.3372C1.07214 14.2085 1 14.0381 1 13.8507V3.73303C1 3.54578 1.07202 3.37546 1.18921 3.2468L1.19543 3.23993C1.32764 3.0983 1.51538 3.00906 1.724 3.00906H16.276C16.4849 3.00906 16.6729 3.09851 16.8051 3.24048L16.8107 3.24667ZM4.03711 10.904C4.17566 10.7598 4.40479 10.7551 4.54895 10.8936C4.69312 11.032 4.69788 11.2612 4.55933 11.4054L2.21143 13.8507H15.7886L11.433 9.31454L9.76257 11.0543C9.5603 11.265 9.28943 11.381 9 11.381C8.71057 11.381 8.43982 11.265 8.23743 11.0543L6.56702 9.31454L5.41467 10.5146C5.39136 10.5388 5.36548 10.5591 5.33789 10.5755C5.28137 10.6091 5.21753 10.6259 5.15356 10.6259C5.1073 10.6259 5.06104 10.6171 5.01746 10.5995C4.97607 10.5827 4.93713 10.5579 4.90295 10.525C4.75867 10.3866 4.75403 10.1574 4.89246 10.0132L6.06519 8.79187L1.724 4.27072V13.313L4.03711 10.904ZM9.12244 10.6333C9.08386 10.6489 9.04248 10.657 9 10.657C8.90955 10.657 8.82422 10.62 8.75964 10.5529L2.21143 3.73303H15.7886L9.24036 10.5529C9.20618 10.5885 9.16614 10.6156 9.12244 10.6333ZM16.2761 4.27072L11.9349 8.79187L16.2761 13.3131V4.27072Z" fill="#0C49CD"/>
<path d="M16.8107 3.24667L16.7366 3.31383L16.7367 3.314L16.8107 3.24667ZM16.8107 14.3371L16.7367 14.2697L16.7366 14.2699L16.8107 14.3371ZM16.8051 14.3433L16.8782 14.4114L16.8791 14.4104L16.8051 14.3433ZM1.19446 14.3427L1.12079 14.4104L1.1212 14.4108L1.19446 14.3427ZM1.18933 14.3372L1.1154 14.4045L1.11567 14.4048L1.18933 14.3372ZM1.18921 3.2468L1.26314 3.31413L1.26329 3.31396L1.18921 3.2468ZM1.19543 3.23993L1.12232 3.17169L1.12135 3.17276L1.19543 3.23993ZM16.8051 3.24048L16.8792 3.17331L16.8782 3.17233L16.8051 3.24048ZM4.03711 10.904L3.96499 10.8347L3.96498 10.8347L4.03711 10.904ZM4.55933 11.4054L4.48722 11.3361L4.48719 11.3361L4.55933 11.4054ZM2.21143 13.8507L2.13929 13.7814L1.97678 13.9507H2.21143V13.8507ZM15.7886 13.8507V13.9507H16.0232L15.8607 13.7814L15.7886 13.8507ZM11.433 9.31454L11.5051 9.24528L11.433 9.17016L11.3608 9.24529L11.433 9.31454ZM9.76257 11.0543L9.8347 11.1236L9.83471 11.1236L9.76257 11.0543ZM8.23743 11.0543L8.16529 11.1236L8.16531 11.1236L8.23743 11.0543ZM6.56702 9.31454L6.63915 9.24529L6.56702 9.17016L6.49489 9.24528L6.56702 9.31454ZM5.41467 10.5146L5.48673 10.584L5.4868 10.5839L5.41467 10.5146ZM5.33789 10.5755L5.28689 10.4895L5.28682 10.4895L5.33789 10.5755ZM5.01746 10.5995L4.97981 10.6921L4.97994 10.6922L5.01746 10.5995ZM4.90295 10.525L4.97223 10.4529L4.97219 10.4529L4.90295 10.525ZM4.89246 10.0132L4.96459 10.0825H4.96459L4.89246 10.0132ZM6.06519 8.79187L6.13732 8.86113L6.20382 8.79187L6.13732 8.72261L6.06519 8.79187ZM1.724 4.27072L1.79613 4.20146L1.624 4.02219V4.27072H1.724ZM1.724 13.313H1.624V13.5616L1.79613 13.3823L1.724 13.313ZM9.12244 10.6333L9.08501 10.5405L9.08496 10.5406L9.12244 10.6333ZM8.75964 10.5529L8.68751 10.6221L8.68755 10.6222L8.75964 10.5529ZM2.21143 3.73303V3.63303H1.97677L2.13929 3.80229L2.21143 3.73303ZM15.7886 3.73303L15.8607 3.80229L16.0232 3.63303H15.7886V3.73303ZM9.24036 10.5529L9.16822 10.4836L9.16818 10.4836L9.24036 10.5529ZM11.9349 8.79187L11.8628 8.72261L11.7963 8.79187L11.8628 8.86113L11.9349 8.79187ZM16.2761 4.27072H16.3761V4.02219L16.204 4.20146L16.2761 4.27072ZM16.2761 13.3131L16.204 13.3824L16.3761 13.5617V13.3131H16.2761ZM17.1 3.73303C17.1 3.51945 17.0176 3.32543 16.8846 3.17935L16.7367 3.314C16.8381 3.42531 16.9 3.57198 16.9 3.73303H17.1ZM17.1 13.8507V3.73303H16.9V13.8507H17.1ZM16.8846 14.4044C17.0176 14.2583 17.1 14.0643 17.1 13.8507H16.9C16.9 14.0118 16.8381 14.1584 16.7367 14.2697L16.8846 14.4044ZM16.8791 14.4104L16.8848 14.4042L16.7366 14.2699L16.731 14.2761L16.8791 14.4104ZM16.276 14.6747C16.5141 14.6747 16.7281 14.5726 16.8782 14.4114L16.7319 14.2751C16.6176 14.3979 16.4556 14.4747 16.276 14.4747V14.6747ZM1.724 14.6747H16.276V14.4747H1.724V14.6747ZM1.1212 14.4108C1.2713 14.5723 1.48563 14.6747 1.724 14.6747V14.4747C1.54415 14.4747 1.38202 14.3977 1.26771 14.2747L1.1212 14.4108ZM1.11567 14.4048L1.12079 14.4104L1.26812 14.2751L1.263 14.2695L1.11567 14.4048ZM0.9 13.8507C0.9 14.0643 0.98236 14.2584 1.1154 14.4045L1.26326 14.2698C1.16193 14.1586 1.1 14.0118 1.1 13.8507H0.9ZM0.9 3.73303V13.8507H1.1V3.73303H0.9ZM1.11528 3.17946C0.982224 3.32554 0.9 3.51955 0.9 3.73303H1.1C1.1 3.572 1.16182 3.42537 1.26314 3.31413L1.11528 3.17946ZM1.12135 3.17276L1.11513 3.17963L1.26329 3.31396L1.26952 3.3071L1.12135 3.17276ZM1.724 2.90906C1.48618 2.90906 1.27241 3.01091 1.12233 3.17169L1.26854 3.30816C1.38286 3.18568 1.54458 3.10906 1.724 3.10906V2.90906ZM16.276 2.90906H1.724V3.10906H16.276V2.90906ZM16.8782 3.17233C16.7281 3.01115 16.5141 2.90906 16.276 2.90906V3.10906C16.4556 3.10906 16.6176 3.18587 16.7319 3.30863L16.8782 3.17233ZM16.8848 3.17952L16.8791 3.17332L16.731 3.30764L16.7366 3.31383L16.8848 3.17952ZM4.61822 10.8214C4.43419 10.6447 4.14177 10.6507 3.96499 10.8347L4.10923 10.9733C4.20955 10.8688 4.37538 10.8655 4.47968 10.9657L4.61822 10.8214ZM4.63143 11.4747C4.8083 11.2906 4.80218 10.9981 4.61822 10.8214L4.47968 10.9657C4.58405 11.0659 4.58745 11.2318 4.48722 11.3361L4.63143 11.4747ZM2.28356 13.92L4.63146 11.4747L4.48719 11.3361L2.13929 13.7814L2.28356 13.92ZM15.7886 13.7507H2.21143V13.9507H15.7886V13.7507ZM11.3609 9.38381L15.7164 13.92L15.8607 13.7814L11.5051 9.24528L11.3609 9.38381ZM9.83471 11.1236L11.5051 9.3838L11.3608 9.24529L9.69044 10.9851L9.83471 11.1236ZM9 11.481C9.31693 11.481 9.61377 11.3537 9.8347 11.1236L9.69044 10.9851C9.50684 11.1763 9.26192 11.281 9 11.281V11.481ZM8.16531 11.1236C8.38636 11.3537 8.68306 11.481 9 11.481V11.281C8.73808 11.281 8.49328 11.1763 8.30954 10.985L8.16531 11.1236ZM6.49488 9.3838L8.16529 11.1236L8.30956 10.9851L6.63915 9.24529L6.49488 9.3838ZM5.4868 10.5839L6.63915 9.38381L6.49489 9.24528L5.34254 10.4454L5.4868 10.5839ZM5.38889 10.6615C5.42412 10.6406 5.4571 10.6148 5.48673 10.584L5.34261 10.4453C5.32562 10.4629 5.30684 10.4777 5.28689 10.4895L5.38889 10.6615ZM5.15356 10.7259C5.23504 10.7259 5.31659 10.7045 5.38896 10.6615L5.28682 10.4895C5.24615 10.5137 5.20002 10.5259 5.15356 10.5259V10.7259ZM4.97994 10.6922C5.03563 10.7147 5.09465 10.7259 5.15356 10.7259V10.5259C5.11995 10.5259 5.08644 10.5195 5.05498 10.5068L4.97994 10.6922ZM4.83367 10.5971C4.87714 10.6389 4.92686 10.6706 4.97981 10.6921L5.0551 10.5068C5.02529 10.4947 4.99713 10.4768 4.97223 10.4529L4.83367 10.5971ZM4.82032 9.94395C4.64364 10.128 4.64957 10.4205 4.83372 10.5972L4.97219 10.4529C4.86777 10.3527 4.86442 10.1868 4.96459 10.0825L4.82032 9.94395ZM5.99305 8.72261L4.82032 9.94395L4.96459 10.0825L6.13732 8.86113L5.99305 8.72261ZM1.65187 4.33998L5.99305 8.86113L6.13732 8.72261L1.79613 4.20146L1.65187 4.33998ZM1.824 13.313V4.27072H1.624V13.313H1.824ZM3.96498 10.8347L1.65187 13.2438L1.79613 13.3823L4.10924 10.9733L3.96498 10.8347ZM9 10.757C9.05535 10.757 9.10946 10.7464 9.15992 10.726L9.08496 10.5406C9.05827 10.5513 9.02961 10.557 9 10.557V10.757ZM8.68755 10.6222C8.77034 10.7083 8.88142 10.757 9 10.757V10.557C8.93767 10.557 8.8781 10.5318 8.83173 10.4836L8.68755 10.6222ZM2.13929 3.80229L8.68751 10.6221L8.83178 10.4836L2.28356 3.66377L2.13929 3.80229ZM15.7886 3.63303H2.21143V3.83303H15.7886V3.63303ZM9.31249 10.6221L15.8607 3.80229L15.7164 3.66377L9.16822 10.4836L9.31249 10.6221ZM9.15987 10.726C9.21703 10.7029 9.26883 10.6677 9.31253 10.6221L9.16818 10.4836C9.14353 10.5094 9.11525 10.5283 9.08501 10.5405L9.15987 10.726ZM12.0071 8.86113L16.3483 4.33998L16.204 4.20146L11.8628 8.72261L12.0071 8.86113ZM16.3483 13.2439L12.0071 8.72261L11.8628 8.86113L16.204 13.3824L16.3483 13.2439ZM16.1761 4.27072V13.3131H16.3761V4.27072H16.1761Z" fill="#0C49CD"/>
</g>
</g>
</g>
</svg>
