<svg width="18" height="18" viewBox="0 0 18 18" fill="none" xmlns="http://www.w3.org/2000/svg">
<g id="Mail service White">
<rect id="Rectangle 4 Copy 18" width="18" height="18" fill="#F4F7FB" fill-opacity="0.01"/>
<g id="big-envelope">
<g id="Shape">
<path fill-rule="evenodd" clip-rule="evenodd" d="M16.9448 3.45642C16.9802 3.54163 17 3.63501 17 3.73303V13.8507C17 14.038 16.928 14.2084 16.8108 14.3371L16.8052 14.3433C16.7544 14.3978 16.6953 14.4445 16.6301 14.4815C16.5254 14.5407 16.4048 14.5747 16.2761 14.5747H1.72388C1.51489 14.5747 1.32666 14.485 1.19434 14.3427L1.18945 14.3372C1.13647 14.279 1.09277 14.2124 1.06079 14.1395C1.02173 14.0511 1 13.9534 1 13.8507V3.73303C1 3.65698 1.01196 3.58374 1.03394 3.51495C1.06592 3.41434 1.11963 3.32321 1.18921 3.2468L1.19531 3.23993C1.32764 3.0983 1.51538 3.00906 1.72388 3.00906H16.2761C16.4849 3.00906 16.6729 3.09851 16.8052 3.24048L16.8108 3.24667C16.8386 3.27728 16.864 3.31027 16.8865 3.34528C16.9089 3.3804 16.9285 3.41757 16.9448 3.45642ZM4.03711 10.904C4.17554 10.7598 4.40479 10.7551 4.54883 10.8936C4.69312 11.032 4.69775 11.2612 4.55933 11.4054L2.21118 13.8507H15.7886L11.4329 9.31454L9.76245 11.0543C9.56006 11.265 9.28931 11.381 9 11.381C8.71045 11.381 8.4397 11.265 8.2373 11.0543L6.56689 9.31454L5.41455 10.5146C5.3728 10.5582 5.32251 10.5891 5.2688 10.6071C5.24878 10.6138 5.22803 10.6188 5.20728 10.6219C5.18945 10.6246 5.17139 10.6259 5.15332 10.6259C5.06323 10.6259 4.9729 10.5924 4.90283 10.525C4.75854 10.3866 4.75391 10.1574 4.89233 10.0132L6.06494 8.79187L1.72388 4.27072V13.313L4.03711 10.904ZM9.09253 10.6437C9.06274 10.6525 9.03174 10.657 9 10.657C8.90942 10.657 8.82422 10.62 8.75977 10.5529L2.21143 3.73303H15.7886L9.24023 10.5529C9.19824 10.5965 9.14771 10.6274 9.09253 10.6437ZM16.2759 4.27072L11.9348 8.79187L16.2761 13.3131L16.2759 4.27072Z" fill="white"/>
<path d="M16.9448 3.45642L17.0372 3.41805L17.037 3.41762L16.9448 3.45642ZM16.8108 14.3371L16.7369 14.2697L16.7367 14.2699L16.8108 14.3371ZM16.8052 14.3433L16.8783 14.4114L16.8793 14.4104L16.8052 14.3433ZM16.6301 14.4815L16.6794 14.5685L16.6794 14.5685L16.6301 14.4815ZM1.19434 14.3427L1.11902 14.4086L1.12111 14.4108L1.19434 14.3427ZM1.18945 14.3372L1.26475 14.2713L1.26337 14.2698L1.18945 14.3372ZM1.06079 14.1395L1.15236 14.0993L1.15227 14.0991L1.06079 14.1395ZM1.03394 3.51495L1.12919 3.54538L1.12924 3.54525L1.03394 3.51495ZM1.18921 3.2468L1.26315 3.31413L1.26395 3.31323L1.18921 3.2468ZM1.19531 3.23993L1.12222 3.17164L1.12057 3.17349L1.19531 3.23993ZM16.8052 3.24048L16.8793 3.17331L16.8783 3.1723L16.8052 3.24048ZM16.8108 3.24667L16.7367 3.31383L16.7368 3.31395L16.8108 3.24667ZM16.8865 3.34528L16.9707 3.2914L16.9706 3.29127L16.8865 3.34528ZM4.54883 10.8936L4.47953 10.9656L4.47959 10.9657L4.54883 10.8936ZM4.03711 10.904L4.10924 10.9733L4.10926 10.9732L4.03711 10.904ZM4.55933 11.4054L4.63146 11.4747L4.63146 11.4746L4.55933 11.4054ZM2.21118 13.8507L2.13905 13.7814L1.97652 13.9507H2.21118V13.8507ZM15.7886 13.8507V13.9507H16.0232L15.8607 13.7814L15.7886 13.8507ZM11.4329 9.31454L11.505 9.24528L11.4329 9.17016L11.3607 9.24529L11.4329 9.31454ZM9.76245 11.0543L9.83456 11.1236L9.83459 11.1236L9.76245 11.0543ZM8.2373 11.0543L8.16517 11.1236L8.16519 11.1236L8.2373 11.0543ZM6.56689 9.31454L6.63903 9.24529L6.5669 9.17016L6.49476 9.24528L6.56689 9.31454ZM5.41455 10.5146L5.34242 10.4454L5.34232 10.4455L5.41455 10.5146ZM5.2688 10.6071L5.23701 10.5123L5.23687 10.5123L5.2688 10.6071ZM5.20728 10.6219L5.19244 10.523L5.19238 10.523L5.20728 10.6219ZM4.90283 10.525L4.97213 10.4529L4.97207 10.4529L4.90283 10.525ZM4.89233 10.0132L4.96447 10.0825L4.96447 10.0825L4.89233 10.0132ZM6.06494 8.79187L6.13708 8.86113L6.20357 8.79187L6.13707 8.72261L6.06494 8.79187ZM1.72388 4.27072L1.79601 4.20146L1.62388 4.02219V4.27072H1.72388ZM1.72388 13.313H1.62388V13.5616L1.79601 13.3823L1.72388 13.313ZM9.09253 10.6437L9.12083 10.7396L9.12086 10.7396L9.09253 10.6437ZM8.75977 10.5529L8.83192 10.4836L8.8319 10.4836L8.75977 10.5529ZM2.21143 3.73303V3.63303H1.97677L2.13929 3.80229L2.21143 3.73303ZM15.7886 3.73303L15.8607 3.80229L16.0232 3.63303H15.7886V3.73303ZM9.24023 10.5529L9.31229 10.6222L9.31237 10.6221L9.24023 10.5529ZM11.9348 8.79187L11.8627 8.72261L11.7962 8.79187L11.8627 8.86113L11.9348 8.79187ZM16.2759 4.27072L16.3759 4.27072L16.3759 4.0222L16.2037 4.20146L16.2759 4.27072ZM16.2761 13.3131L16.204 13.3824L16.3761 13.5617L16.3761 13.3131L16.2761 13.3131ZM17.1 3.73303C17.1 3.62144 17.0775 3.51504 17.0372 3.41805L16.8525 3.49479C16.883 3.56821 16.9 3.64858 16.9 3.73303H17.1ZM17.1 13.8507V3.73303H16.9V13.8507H17.1ZM16.8847 14.4044C17.0178 14.2583 17.1 14.0642 17.1 13.8507H16.9C16.9 14.0118 16.8382 14.1585 16.7369 14.2697L16.8847 14.4044ZM16.8793 14.4104L16.8849 14.4042L16.7367 14.2699L16.7311 14.2761L16.8793 14.4104ZM16.6794 14.5685C16.7535 14.5265 16.8207 14.4733 16.8783 14.4114L16.732 14.2751C16.6881 14.3222 16.6371 14.3626 16.5808 14.3945L16.6794 14.5685ZM16.2761 14.6747C16.4226 14.6747 16.5601 14.636 16.6794 14.5685L16.5809 14.3944C16.4906 14.4455 16.3869 14.4747 16.2761 14.4747V14.6747ZM1.72388 14.6747H16.2761V14.4747H1.72388V14.6747ZM1.12111 14.4108C1.27131 14.5723 1.48562 14.6747 1.72388 14.6747V14.4747C1.54417 14.4747 1.38201 14.3977 1.26756 14.2746L1.12111 14.4108ZM1.11417 14.403L1.11905 14.4086L1.26962 14.2769L1.26474 14.2713L1.11417 14.403ZM0.969221 14.1797C1.00566 14.2627 1.05538 14.3385 1.11554 14.4045L1.26337 14.2698C1.21757 14.2195 1.17989 14.162 1.15236 14.0993L0.969221 14.1797ZM0.9 13.8507C0.9 13.9677 0.924767 14.079 0.969316 14.1799L1.15227 14.0991C1.11869 14.0231 1.1 13.9392 1.1 13.8507H0.9ZM0.9 3.73303V13.8507H1.1V3.73303H0.9ZM0.938677 3.48453C0.913632 3.56293 0.9 3.64643 0.9 3.73303H1.1C1.1 3.66753 1.11029 3.60455 1.12919 3.54538L0.938677 3.48453ZM1.11527 3.17947C1.03632 3.26617 0.975134 3.36983 0.938634 3.48466L1.12924 3.54525C1.1567 3.45884 1.20294 3.38025 1.26315 3.31412L1.11527 3.17947ZM1.12057 3.17349L1.11447 3.18036L1.26395 3.31323L1.27005 3.30637L1.12057 3.17349ZM1.72388 2.90906C1.48616 2.90906 1.27241 3.01092 1.12224 3.17166L1.26838 3.3082C1.38286 3.18567 1.5446 3.10906 1.72388 3.10906V2.90906ZM16.2761 2.90906H1.72388V3.10906H16.2761V2.90906ZM16.8783 3.1723C16.7281 3.01116 16.5141 2.90906 16.2761 2.90906V3.10906C16.4556 3.10906 16.6176 3.18586 16.732 3.30866L16.8783 3.1723ZM16.8849 3.17952L16.8793 3.17332L16.7311 3.30764L16.7367 3.31383L16.8849 3.17952ZM16.9706 3.29127C16.9451 3.25148 16.9163 3.21406 16.8848 3.1794L16.7368 3.31395C16.7609 3.3405 16.7829 3.36906 16.8023 3.39928L16.9706 3.29127ZM17.037 3.41762C17.0184 3.37355 16.9963 3.33134 16.9707 3.2914L16.8022 3.39915C16.8216 3.42946 16.8385 3.46159 16.8527 3.49523L17.037 3.41762ZM4.61813 10.8215C4.43421 10.6447 4.14162 10.6507 3.96496 10.8347L4.10926 10.9732C4.20945 10.8688 4.37536 10.8655 4.47953 10.9656L4.61813 10.8215ZM4.63146 11.4746C4.80813 11.2906 4.80222 10.9981 4.61807 10.8214L4.47959 10.9657C4.58401 11.0659 4.58737 11.2318 4.48719 11.3361L4.63146 11.4746ZM2.28331 13.92L4.63146 11.4747L4.4872 11.3361L2.13905 13.7814L2.28331 13.92ZM15.7886 13.7507H2.21118V13.9507H15.7886V13.7507ZM11.3607 9.38381L15.7164 13.92L15.8607 13.7814L11.505 9.24528L11.3607 9.38381ZM9.83459 11.1236L11.505 9.3838L11.3607 9.24529L9.69032 10.9851L9.83459 11.1236ZM9 11.481C9.31683 11.481 9.61353 11.3536 9.83456 11.1236L9.69034 10.985C9.50659 11.1763 9.26178 11.281 9 11.281V11.481ZM8.16519 11.1236C8.38624 11.3537 8.68295 11.481 9 11.481V11.281C8.73795 11.281 8.49316 11.1763 8.30942 10.985L8.16519 11.1236ZM6.49476 9.3838L8.16517 11.1236L8.30944 10.9851L6.63903 9.24529L6.49476 9.3838ZM5.48668 10.5839L6.63903 9.38381L6.49476 9.24528L5.34242 10.4454L5.48668 10.5839ZM5.30058 10.7019C5.36916 10.6789 5.43347 10.6395 5.48679 10.5838L5.34232 10.4455C5.31213 10.477 5.27586 10.4992 5.23701 10.5123L5.30058 10.7019ZM5.22211 10.7208C5.24848 10.7168 5.27497 10.7105 5.30072 10.7019L5.23687 10.5123C5.22259 10.5171 5.20757 10.5207 5.19244 10.523L5.22211 10.7208ZM5.15332 10.7259C5.17633 10.7259 5.19938 10.7242 5.22218 10.7208L5.19238 10.523C5.17953 10.5249 5.16644 10.5259 5.15332 10.5259V10.7259ZM4.83353 10.5971C4.92296 10.6831 5.03843 10.7259 5.15332 10.7259V10.5259C5.08804 10.5259 5.02284 10.5017 4.97213 10.4529L4.83353 10.5971ZM4.8202 9.94395C4.64352 10.128 4.64944 10.4205 4.83359 10.5972L4.97207 10.4529C4.86765 10.3527 4.86429 10.1868 4.96447 10.0825L4.8202 9.94395ZM5.99281 8.72261L4.8202 9.94396L4.96447 10.0825L6.13708 8.86113L5.99281 8.72261ZM1.65174 4.33998L5.99281 8.86113L6.13707 8.72261L1.79601 4.20146L1.65174 4.33998ZM1.82388 13.313V4.27072H1.62388V13.313H1.82388ZM3.96498 10.8347L1.65175 13.2438L1.79601 13.3823L4.10924 10.9733L3.96498 10.8347ZM9 10.757C9.04136 10.757 9.08189 10.7511 9.12083 10.7396L9.06423 10.5478C9.04359 10.5539 9.02212 10.557 9 10.557V10.757ZM8.68761 10.6221C8.7703 10.7083 8.88129 10.757 9 10.757V10.557C8.93755 10.557 8.87814 10.5318 8.83192 10.4836L8.68761 10.6221ZM2.13929 3.80229L8.68763 10.6221L8.8319 10.4836L2.28356 3.66377L2.13929 3.80229ZM15.7886 3.63303H2.21143V3.83303H15.7886V3.63303ZM9.31237 10.6221L15.8607 3.80229L15.7164 3.66377L9.1681 10.4836L9.31237 10.6221ZM9.12086 10.7396C9.19328 10.7182 9.25872 10.6779 9.31229 10.6222L9.16818 10.4835C9.13776 10.5151 9.10213 10.5366 9.0642 10.5478L9.12086 10.7396ZM12.0069 8.86113L16.348 4.33998L16.2037 4.20146L11.8627 8.72261L12.0069 8.86113ZM16.3483 13.2439L12.0069 8.72261L11.8627 8.86113L16.204 13.3824L16.3483 13.2439ZM16.1759 4.27072L16.1761 13.3131L16.3761 13.3131L16.3759 4.27072L16.1759 4.27072Z" fill="white"/>
</g>
</g>
</g>
</svg>
