<svg width="24" height="24" viewBox="0 0 24 24" fill="none" xmlns="http://www.w3.org/2000/svg">
<path fill-rule="evenodd" clip-rule="evenodd" d="M5 19.22C4.39001 18.67 4 17.88 4 17V7C4 3.5 7.57999 3 12 3C16.42 3 20 3.5 20 7V17C20 17.88 19.61 18.67 19 19.22V20.5C19 21.33 18.32 22 17.5 22C16.67 22 16 21.32 16 20.5V20H8V20.5C8 21.33 7.32999 22 6.5 22C5.67001 22 5 21.33 5 20.5V19.22ZM6 16.5C6 17.33 6.67001 18 7.5 18C8.32999 18 9 17.33 9 16.5C9 15.67 8.32999 15 7.5 15C6.67001 15 6 15.67 6 16.5ZM16.5 18C15.67 18 15 17.33 15 16.5C15 15.67 15.67 15 16.5 15C17.33 15 18 15.67 18 16.5C18 17.33 17.33 18 16.5 18ZM6 12H18V7H6V12Z" fill="white"/>
<mask id="mask0" mask-type="alpha" maskUnits="userSpaceOnUse" x="4" y="3" width="16" height="19">
<path fill-rule="evenodd" clip-rule="evenodd" d="M5 19.22C4.39001 18.67 4 17.88 4 17V7C4 3.5 7.57999 3 12 3C16.42 3 20 3.5 20 7V17C20 17.88 19.61 18.67 19 19.22V20.5C19 21.33 18.32 22 17.5 22C16.67 22 16 21.32 16 20.5V20H8V20.5C8 21.33 7.32999 22 6.5 22C5.67001 22 5 21.33 5 20.5V19.22ZM6 16.5C6 17.33 6.67001 18 7.5 18C8.32999 18 9 17.33 9 16.5C9 15.67 8.32999 15 7.5 15C6.67001 15 6 15.67 6 16.5ZM16.5 18C15.67 18 15 17.33 15 16.5C15 15.67 15.67 15 16.5 15C17.33 15 18 15.67 18 16.5C18 17.33 17.33 18 16.5 18ZM6 12H18V7H6V12Z" fill="white"/>
</mask>
<g mask="url(#mask0)">
<rect width="24" height="24" rx="4" fill="#C7CCD1"/>
</g>
</svg>
