<svg width="24" height="24" viewBox="0 0 24 24" fill="none" xmlns="http://www.w3.org/2000/svg">
<path d="M6 3C5.44772 3 5 3.44772 5 4V19.8265C5 20.6004 5.84137 21.081 6.50799 20.6879L11.492 17.7485C11.8054 17.5637 12.1946 17.5637 12.508 17.7485L17.492 20.6879C18.1586 21.081 19 20.6004 19 19.8265V4C19 3.44771 18.5523 3 18 3L6 3Z" fill="white"/>
<mask id="mask0" mask-type="alpha" maskUnits="userSpaceOnUse" x="5" y="3" width="14" height="18">
<path d="M6 3C5.44772 3 5 3.44772 5 4V19.8265C5 20.6004 5.84137 21.081 6.50799 20.6879L11.492 17.7485C11.8054 17.5637 12.1946 17.5637 12.508 17.7485L17.492 20.6879C18.1586 21.081 19 20.6004 19 19.8265V4C19 3.44771 18.5523 3 18 3L6 3Z" fill="white"/>
</mask>
<g mask="url(#mask0)">
<g opacity="0.6">
<rect width="24" height="24" rx="4" fill="#0C49CD"/>
</g>
</g>
</svg>
