<svg width="18" height="18" viewBox="0 0 18 18" fill="none" xmlns="http://www.w3.org/2000/svg">
<g id="Marketing White">
<rect id="Rectangle 4 Copy 33" width="18" height="18" fill="#F4F7FB" fill-opacity="0.01"/>
<g id="bar-chart">
<g id="Shape">
<path fill-rule="evenodd" clip-rule="evenodd" d="M15.1709 16.375H15.8562C16.0288 16.375 16.1687 16.5149 16.1687 16.6875C16.1687 16.8601 16.0288 17 15.8562 17H1.3313C1.15869 17 1.0188 16.8601 1.0188 16.6875C1.0188 16.5149 1.15869 16.375 1.3313 16.375H2.05371V13.5561C2.05371 13.093 2.43042 12.7161 2.8938 12.7161H4.42578C4.88892 12.7161 5.26587 13.0929 5.26587 13.5561V16.375H7.0061V10.932C7.0061 10.4688 7.38306 10.092 7.84619 10.092H9.37817C9.84155 10.092 10.2183 10.4688 10.2183 10.932V16.375H11.9587V6.423C11.9587 5.95981 12.3354 5.58295 12.7988 5.58295H14.3308C14.7939 5.58295 15.1709 5.95978 15.1709 6.423V16.375ZM2.67871 16.375H4.64087V13.5561C4.64087 13.4375 4.54443 13.3411 4.42578 13.3411H2.8938C2.77515 13.3411 2.67871 13.4375 2.67871 13.5561V16.375ZM9.59326 16.375H7.6311V10.932C7.6311 10.8134 7.72754 10.717 7.84619 10.717H9.37817C9.49683 10.717 9.59326 10.8134 9.59326 10.932V16.375ZM12.5837 16.375H14.5459V6.423C14.5459 6.30441 14.4495 6.20795 14.3308 6.20795H12.7988C12.6802 6.20795 12.5837 6.30441 12.5837 6.423V16.375Z" fill="white"/>
<path d="M15.1709 16.375H15.0709V16.475H15.1709V16.375ZM2.05371 16.375V16.475H2.15371V16.375H2.05371ZM5.26587 16.375H5.16587V16.475H5.26587V16.375ZM7.0061 16.375V16.475H7.1061V16.375H7.0061ZM10.2183 16.375H10.1183V16.475H10.2183V16.375ZM11.9587 16.375V16.475H12.0587V16.375H11.9587ZM4.64087 16.375V16.475H4.74087V16.375H4.64087ZM2.67871 16.375H2.57871V16.475H2.67871V16.375ZM7.6311 16.375H7.5311V16.475H7.6311V16.375ZM9.59326 16.375V16.475H9.69326V16.375H9.59326ZM14.5459 16.375V16.475H14.6459V16.375H14.5459ZM12.5837 16.375H12.4837V16.475H12.5837V16.375ZM15.8562 16.275H15.1709V16.475H15.8562V16.275ZM16.2687 16.6875C16.2687 16.4597 16.084 16.275 15.8562 16.275V16.475C15.9736 16.475 16.0687 16.5701 16.0687 16.6875H16.2687ZM15.8562 17.1C16.084 17.1 16.2687 16.9153 16.2687 16.6875H16.0687C16.0687 16.8049 15.9736 16.9 15.8562 16.9V17.1ZM1.3313 17.1H15.8562V16.9H1.3313V17.1ZM0.918799 16.6875C0.918799 16.9153 1.10346 17.1 1.3313 17.1V16.9C1.21392 16.9 1.1188 16.8049 1.1188 16.6875H0.918799ZM1.3313 16.275C1.10346 16.275 0.918799 16.4597 0.918799 16.6875H1.1188C1.1188 16.5701 1.21393 16.475 1.3313 16.475V16.275ZM2.05371 16.275H1.3313V16.475H2.05371V16.275ZM1.95371 13.5561V16.375H2.15371V13.5561H1.95371ZM2.8938 12.6161C2.37518 12.6161 1.95371 13.0377 1.95371 13.5561H2.15371C2.15371 13.1482 2.48566 12.8161 2.8938 12.8161V12.6161ZM4.42578 12.6161H2.8938V12.8161H4.42578V12.6161ZM5.36587 13.5561C5.36587 13.0377 4.94413 12.6161 4.42578 12.6161V12.8161C4.8337 12.8161 5.16587 13.1482 5.16587 13.5561H5.36587ZM5.36587 16.375V13.5561H5.16587V16.375H5.36587ZM7.0061 16.275H5.26587V16.475H7.0061V16.275ZM6.9061 10.932V16.375H7.1061V10.932H6.9061ZM7.84619 9.99198C7.32784 9.99198 6.9061 10.4136 6.9061 10.932H7.1061C7.1061 10.5241 7.43828 10.192 7.84619 10.192V9.99198ZM9.37817 9.99198H7.84619V10.192H9.37817V9.99198ZM10.3183 10.932C10.3183 10.4136 9.89679 9.99198 9.37817 9.99198V10.192C9.78632 10.192 10.1183 10.524 10.1183 10.932H10.3183ZM10.3183 16.375V10.932H10.1183V16.375H10.3183ZM11.9587 16.275H10.2183V16.475H11.9587V16.275ZM11.8587 6.423V16.375H12.0587V6.423H11.8587ZM12.7988 5.48295C12.2802 5.48295 11.8587 5.90459 11.8587 6.423H12.0587C12.0587 6.01503 12.3907 5.68295 12.7988 5.68295V5.48295ZM14.3308 5.48295H12.7988V5.68295H14.3308V5.48295ZM15.2709 6.423C15.2709 5.90454 14.8492 5.48295 14.3308 5.48295V5.68295C14.7387 5.68295 15.0709 6.01502 15.0709 6.423H15.2709ZM15.2709 16.375V6.423H15.0709V16.375H15.2709ZM4.64087 16.275H2.67871V16.475H4.64087V16.275ZM4.54087 13.5561V16.375H4.74087V13.5561H4.54087ZM4.42578 13.4411C4.48921 13.4411 4.54087 13.4928 4.54087 13.5561H4.74087C4.74087 13.3823 4.59966 13.2411 4.42578 13.2411V13.4411ZM2.8938 13.4411H4.42578V13.2411H2.8938V13.4411ZM2.77871 13.5561C2.77871 13.4928 2.83037 13.4411 2.8938 13.4411V13.2411C2.71992 13.2411 2.57871 13.3823 2.57871 13.5561H2.77871ZM2.77871 16.375V13.5561H2.57871V16.375H2.77871ZM7.6311 16.475H9.59326V16.275H7.6311V16.475ZM7.5311 10.932V16.375H7.7311V10.932H7.5311ZM7.84619 10.617C7.67231 10.617 7.5311 10.7582 7.5311 10.932H7.7311C7.7311 10.8687 7.78277 10.817 7.84619 10.817V10.617ZM9.37817 10.617H7.84619V10.817H9.37817V10.617ZM9.69326 10.932C9.69326 10.7582 9.55205 10.617 9.37817 10.617V10.817C9.4416 10.817 9.49326 10.8687 9.49326 10.932H9.69326ZM9.69326 16.375V10.932H9.49326V16.375H9.69326ZM14.5459 16.275H12.5837V16.475H14.5459V16.275ZM14.4459 6.423V16.375H14.6459V6.423H14.4459ZM14.3308 6.30795C14.3942 6.30795 14.4459 6.35964 14.4459 6.423H14.6459C14.6459 6.24918 14.5047 6.10795 14.3308 6.10795V6.30795ZM12.7988 6.30795H14.3308V6.10795H12.7988V6.30795ZM12.6837 6.423C12.6837 6.35964 12.7354 6.30795 12.7988 6.30795V6.10795C12.6249 6.10795 12.4837 6.24918 12.4837 6.423H12.6837ZM12.6837 16.375V6.423H12.4837V16.375H12.6837Z" fill="white"/>
</g>
<path id="Shape_2" d="M15.17 1.32862C15.1744 1.24334 15.1444 1.15663 15.0792 1.0915C15.0141 1.02637 14.9274 0.996344 14.8421 1.00075C14.8371 1.00053 14.8321 1 14.827 1H12.9364C12.7638 1 12.6239 1.13991 12.6239 1.3125C12.6239 1.48509 12.7638 1.625 12.9364 1.625H14.1038L11.0145 4.71431L9.84948 3.54931C9.79089 3.49072 9.71139 3.45778 9.62852 3.45778C9.54564 3.45778 9.46614 3.49072 9.40755 3.54931L3.78977 9.16712C3.66773 9.28916 3.66773 9.48703 3.78977 9.60909C3.8508 9.67006 3.93077 9.70056 4.01073 9.70056C4.0907 9.70056 4.1707 9.67006 4.2317 9.60903L9.62852 4.21219L10.7935 5.37719C10.9155 5.49922 11.1134 5.49922 11.2355 5.37719L14.5457 2.06697V3.12353C14.5457 3.29613 14.6856 3.43603 14.8582 3.43603C15.0308 3.43603 15.1707 3.29613 15.1707 3.12353V1.34375C15.1707 1.33866 15.1702 1.33369 15.17 1.32862Z" fill="white" stroke="white" stroke-width="0.2"/>
<path id="Oval" d="M2.95752 10.7909C3.13011 10.7909 3.27002 10.651 3.27002 10.4784C3.27002 10.3058 3.13011 10.1659 2.95752 10.1659C2.78493 10.1659 2.64502 10.3058 2.64502 10.4784C2.64502 10.651 2.78493 10.7909 2.95752 10.7909Z" fill="white" stroke="white" stroke-width="0.2"/>
</g>
</g>
</svg>
