<svg width="18" height="18" viewBox="0 0 18 18" fill="none" xmlns="http://www.w3.org/2000/svg">
<g id="Marketing">
<rect id="Rectangle 4 Copy 33" width="18" height="18" fill="#F4F7FB" fill-opacity="0.01"/>
<g id="bar-chart">
<g id="Shape">
<path fill-rule="evenodd" clip-rule="evenodd" d="M15.1708 16.375H15.8562C16.0288 16.375 16.1687 16.5149 16.1687 16.6875C16.1687 16.8601 16.0288 17 15.8562 17H1.3313C1.15869 17 1.0188 16.8601 1.0188 16.6875C1.0188 16.5149 1.15869 16.375 1.3313 16.375H2.05371V13.5561C2.05371 13.093 2.43054 12.7161 2.89368 12.7161H4.42578C4.88892 12.7161 5.26587 13.0929 5.26587 13.5561V16.375H7.00623V10.932C7.00623 10.4688 7.38306 10.092 7.84631 10.092H9.3783C9.84143 10.092 10.2184 10.4688 10.2184 10.932V16.375H11.9587V6.423C11.9587 5.95981 12.3356 5.58295 12.7988 5.58295H14.3308C14.7939 5.58295 15.1708 5.95978 15.1708 6.423V16.375ZM2.67859 16.375H4.64075V13.5561C4.64075 13.4375 4.54419 13.3411 4.42566 13.3411H2.89368C2.77502 13.3411 2.67859 13.4375 2.67859 13.5561V16.375ZM9.59338 16.375H7.63123V10.932C7.63123 10.8134 7.72766 10.717 7.84631 10.717H9.3783C9.49683 10.717 9.59338 10.8134 9.59338 10.932V16.375ZM12.5837 16.375H14.5459V6.423C14.5459 6.30441 14.4493 6.20795 14.3308 6.20795H12.7988C12.6802 6.20795 12.5837 6.30441 12.5837 6.423V16.375Z" fill="#0C49CD"/>
<path d="M15.1708 16.375H15.0708V16.475H15.1708V16.375ZM2.05371 16.375V16.475H2.15371V16.375H2.05371ZM5.26587 16.375H5.16587V16.475H5.26587V16.375ZM7.00623 16.375V16.475H7.10623V16.375H7.00623ZM10.2184 16.375H10.1184V16.475H10.2184V16.375ZM11.9587 16.375V16.475H12.0587V16.375H11.9587ZM4.64075 16.375V16.475H4.74075V16.375H4.64075ZM2.67859 16.375H2.57859V16.475H2.67859V16.375ZM7.63123 16.375H7.53123V16.475H7.63123V16.375ZM9.59338 16.375V16.475H9.69338V16.375H9.59338ZM14.5459 16.375V16.475H14.6459V16.375H14.5459ZM12.5837 16.375H12.4837V16.475H12.5837V16.375ZM15.8562 16.275H15.1708V16.475H15.8562V16.275ZM16.2687 16.6875C16.2687 16.4597 16.084 16.275 15.8562 16.275V16.475C15.9736 16.475 16.0687 16.5701 16.0687 16.6875H16.2687ZM15.8562 17.1C16.084 17.1 16.2687 16.9153 16.2687 16.6875H16.0687C16.0687 16.8049 15.9736 16.9 15.8562 16.9V17.1ZM1.3313 17.1H15.8562V16.9H1.3313V17.1ZM0.918799 16.6875C0.918799 16.9153 1.10346 17.1 1.3313 17.1V16.9C1.21392 16.9 1.1188 16.8049 1.1188 16.6875H0.918799ZM1.3313 16.275C1.10346 16.275 0.918799 16.4597 0.918799 16.6875H1.1188C1.1188 16.5701 1.21393 16.475 1.3313 16.475V16.275ZM2.05371 16.275H1.3313V16.475H2.05371V16.275ZM1.95371 13.5561V16.375H2.15371V13.5561H1.95371ZM2.89368 12.6161C2.3753 12.6161 1.95371 13.0377 1.95371 13.5561H2.15371C2.15371 13.1482 2.48578 12.8161 2.89368 12.8161V12.6161ZM4.42578 12.6161H2.89368V12.8161H4.42578V12.6161ZM5.36587 13.5561C5.36587 13.0377 4.94413 12.6161 4.42578 12.6161V12.8161C4.8337 12.8161 5.16587 13.1482 5.16587 13.5561H5.36587ZM5.36587 16.375V13.5561H5.16587V16.375H5.36587ZM7.00623 16.275H5.26587V16.475H7.00623V16.275ZM6.90623 10.932V16.375H7.10623V10.932H6.90623ZM7.84631 9.99198C7.32783 9.99198 6.90623 10.4136 6.90623 10.932H7.10623C7.10623 10.5241 7.43829 10.192 7.84631 10.192V9.99198ZM9.3783 9.99198H7.84631V10.192H9.3783V9.99198ZM10.3184 10.932C10.3184 10.4136 9.89665 9.99198 9.3783 9.99198V10.192C9.78621 10.192 10.1184 10.5241 10.1184 10.932H10.3184ZM10.3184 16.375V10.932H10.1184V16.375H10.3184ZM11.9587 16.275H10.2184V16.475H11.9587V16.275ZM11.8587 6.423V16.375H12.0587V6.423H11.8587ZM12.7988 5.48295C12.2803 5.48295 11.8587 5.90458 11.8587 6.423H12.0587C12.0587 6.01504 12.3908 5.68295 12.7988 5.68295V5.48295ZM14.3308 5.48295H12.7988V5.68295H14.3308V5.48295ZM15.2708 6.423C15.2708 5.90456 14.8492 5.48295 14.3308 5.48295V5.68295C14.7387 5.68295 15.0708 6.015 15.0708 6.423H15.2708ZM15.2708 16.375V6.423H15.0708V16.375H15.2708ZM4.64075 16.275H2.67859V16.475H4.64075V16.275ZM4.54075 13.5561V16.375H4.74075V13.5561H4.54075ZM4.42566 13.4411C4.489 13.4411 4.54075 13.4928 4.54075 13.5561H4.74075C4.74075 13.3823 4.59938 13.2411 4.42566 13.2411V13.4411ZM2.89368 13.4411H4.42566V13.2411H2.89368V13.4411ZM2.77859 13.5561C2.77859 13.4928 2.83025 13.4411 2.89368 13.4411V13.2411C2.7198 13.2411 2.57859 13.3823 2.57859 13.5561H2.77859ZM2.77859 16.375V13.5561H2.57859V16.375H2.77859ZM7.63123 16.475H9.59338V16.275H7.63123V16.475ZM7.53123 10.932V16.375H7.73123V10.932H7.53123ZM7.84631 10.617C7.67243 10.617 7.53123 10.7582 7.53123 10.932H7.73123C7.73123 10.8687 7.78289 10.817 7.84631 10.817V10.617ZM9.3783 10.617H7.84631V10.817H9.3783V10.617ZM9.69338 10.932C9.69338 10.7582 9.55202 10.617 9.3783 10.617V10.817C9.44163 10.817 9.49338 10.8687 9.49338 10.932H9.69338ZM9.69338 16.375V10.932H9.49338V16.375H9.69338ZM14.5459 16.275H12.5837V16.475H14.5459V16.275ZM14.4459 6.423V16.375H14.6459V6.423H14.4459ZM14.3308 6.30795C14.3941 6.30795 14.4459 6.35968 14.4459 6.423H14.6459C14.6459 6.24915 14.5045 6.10795 14.3308 6.10795V6.30795ZM12.7988 6.30795H14.3308V6.10795H12.7988V6.30795ZM12.6837 6.423C12.6837 6.35964 12.7354 6.30795 12.7988 6.30795V6.10795C12.6249 6.10795 12.4837 6.24918 12.4837 6.423H12.6837ZM12.6837 16.375V6.423H12.4837V16.375H12.6837Z" fill="#0C49CD"/>
</g>
<path id="Shape_2" d="M15.1701 1.32862C15.1745 1.24334 15.1445 1.15663 15.0794 1.0915C15.0142 1.02637 14.9275 0.996344 14.8422 1.00075C14.8372 1.00053 14.8322 1 14.8271 1H12.9365C12.7639 1 12.624 1.13991 12.624 1.3125C12.624 1.48509 12.7639 1.625 12.9365 1.625H14.1039L11.0146 4.71431L9.84961 3.54931C9.79101 3.49072 9.71151 3.45778 9.62864 3.45778C9.54576 3.45778 9.46626 3.49072 9.40767 3.54931L3.78989 9.16712C3.66786 9.28916 3.66786 9.48703 3.78989 9.60909C3.85092 9.67006 3.93089 9.70056 4.01086 9.70056C4.09083 9.70056 4.17083 9.67006 4.23183 9.60903L9.62864 4.21219L10.7936 5.37719C10.9157 5.49922 11.1135 5.49922 11.2356 5.37719L14.5459 2.06697V3.12353C14.5459 3.29613 14.6858 3.43603 14.8584 3.43603C15.031 3.43603 15.1709 3.29613 15.1709 3.12353V1.34375C15.1709 1.33866 15.1703 1.33369 15.1701 1.32862Z" fill="#0C49CD" stroke="#0C49CD" stroke-width="0.2"/>
<path id="Oval" d="M2.95752 10.7909C3.13011 10.7909 3.27002 10.651 3.27002 10.4784C3.27002 10.3058 3.13011 10.1659 2.95752 10.1659C2.78493 10.1659 2.64502 10.3058 2.64502 10.4784C2.64502 10.651 2.78493 10.7909 2.95752 10.7909Z" fill="#0C49CD" stroke="#0C49CD" stroke-width="0.2"/>
</g>
</g>
</svg>
