<svg width="18" height="18" viewBox="0 0 18 18" fill="none" xmlns="http://www.w3.org/2000/svg">
<g id="Materials">
<rect id="Rectangle 4 Copy 14" width="18" height="18" fill="#F4F7FB" fill-opacity="0.01"/>
<g id="cubes">
<g id="Group">
<path id="Shape" d="M16.8796 10.0445C17.2551 10.833 16.8206 9.90504 16.8796 10.0445V10.0445Z" fill="#0C49CD" stroke="#0C49CD" stroke-width="0.2"/>
<g id="Shape_2">
<path fill-rule="evenodd" clip-rule="evenodd" d="M16.8743 10.0309C16.8462 9.96466 16.7893 9.90723 16.728 9.87152L15.3267 9.06238C15.2146 8.99762 15.0712 9.03601 15.0065 9.14813C14.9418 9.26025 14.9801 9.40363 15.0923 9.46832L16.2074 10.1122L12.8225 12.0665L9.43762 10.1122L12.8225 8.15796L14.1345 8.91547C14.2467 8.98016 14.39 8.94177 14.4547 8.82971C14.5195 8.71759 14.4811 8.57422 14.369 8.50952L13.0568 7.75189V3.5144C13.0568 3.49603 13.0553 3.47778 13.0526 3.45984C13.049 3.43616 13.0428 3.41296 13.0347 3.39056C13.0055 3.31085 12.9489 3.24182 12.8743 3.19818L9.15137 1.04871C9.0387 0.983765 8.8988 0.983765 8.78613 1.04877L5.06384 3.19781C4.95264 3.26147 4.88062 3.38635 4.88062 3.51447V5.43488C4.88062 5.56433 4.9856 5.66925 5.11511 5.66925C5.24463 5.66925 5.34949 5.56433 5.34949 5.43488V3.84485L8.73438 5.79907V9.7063L5.34949 7.75201V6.50293C5.34949 6.37347 5.24451 6.26855 5.11499 6.26855C4.9856 6.26855 4.88062 6.37347 4.88062 6.50293V7.75183L1.21008 9.87109C1.09814 9.93512 1.02686 10.0588 1.02686 10.1877V14.4864C1.02686 14.6163 1.0968 14.7375 1.20947 14.8027L4.93298 16.9525C5.04407 17.0161 5.18665 17.0157 5.29761 16.952L7.47681 15.6938C7.58887 15.6291 7.62732 15.4857 7.56262 15.3737C7.4978 15.2615 7.35449 15.2232 7.24243 15.2878L5.34937 16.3809V12.4724L8.7345 10.518V14.4264L8.20007 14.735C8.08801 14.7997 8.04956 14.9431 8.11426 15.0552C8.15771 15.1304 8.23645 15.1724 8.3175 15.1724C8.35718 15.1724 8.39758 15.1623 8.43445 15.1409L8.96863 14.8325L12.6404 16.9523C12.7515 17.0161 12.8942 17.0156 13.0051 16.952L16.7286 14.8022C16.8408 14.7371 16.9105 14.616 16.9105 14.4864V10.1877C16.9106 10.1335 16.8977 10.0801 16.8743 10.0309ZM4.88049 16.3809L1.49561 14.4266V10.5181L4.88049 12.4724V16.3809ZM1.7301 10.1122L5.11499 12.0664L8.49988 10.1122L5.11499 8.1579L1.7301 10.1122ZM5.58386 3.43884L8.96875 1.48462L12.3536 3.4389L8.96875 5.39307L5.58386 3.43884ZM12.588 3.84479L9.20312 5.79901V9.7063L12.588 7.75195V3.84479ZM12.5881 16.3809L9.20325 14.4266V10.5181L12.5881 12.4724V16.3809ZM13.0569 16.3809L16.4418 14.4265V10.5181L13.0569 12.4724V16.3809Z" fill="#0C49CD"/>
<path d="M16.728 9.87152L16.7784 9.78512L16.778 9.78492L16.728 9.87152ZM16.8743 10.0309L16.7821 10.07L16.784 10.0739L16.8743 10.0309ZM15.3267 9.06238L15.2766 9.14896L15.2767 9.14898L15.3267 9.06238ZM15.0923 9.46832L15.1423 9.38172L15.1422 9.3817L15.0923 9.46832ZM16.2074 10.1122L16.2574 10.1988L16.4074 10.1122L16.2574 10.0256L16.2074 10.1122ZM12.8225 12.0665L12.7725 12.1531L12.8225 12.1819L12.8725 12.1531L12.8225 12.0665ZM9.43762 10.1122L9.38762 10.0256L9.23762 10.1122L9.38762 10.1988L9.43762 10.1122ZM12.8225 8.15796L12.8725 8.07136L12.8225 8.04249L12.7725 8.07136L12.8225 8.15796ZM14.1345 8.91547L14.0845 9.00207L14.0846 9.00209L14.1345 8.91547ZM14.4547 8.82971L14.3681 8.77966L14.3681 8.77971L14.4547 8.82971ZM14.369 8.50952L14.319 8.59612H14.319L14.369 8.50952ZM13.0568 7.75189H12.9568V7.80963L13.0068 7.83849L13.0568 7.75189ZM13.0526 3.45984L13.1515 3.44504L13.1514 3.44456L13.0526 3.45984ZM13.0347 3.39056L13.1286 3.35627L13.1286 3.35619L13.0347 3.39056ZM12.8743 3.19818L12.9248 3.11187L12.9243 3.11158L12.8743 3.19818ZM9.15137 1.04871L9.20137 0.962104L9.2013 0.962067L9.15137 1.04871ZM8.78613 1.04877L8.73616 0.962149L8.73613 0.962164L8.78613 1.04877ZM5.06384 3.19781L5.11352 3.2846L5.11384 3.28442L5.06384 3.19781ZM5.34949 3.84485L5.39949 3.75825L5.24949 3.67165V3.84485H5.34949ZM8.73438 5.79907H8.83437V5.74134L8.78437 5.71247L8.73438 5.79907ZM8.73438 9.7063L8.68437 9.7929L8.83437 9.87951V9.7063H8.73438ZM5.34949 7.75201H5.24949V7.80975L5.29949 7.83862L5.34949 7.75201ZM4.88062 7.75183L4.93062 7.83843L4.98062 7.80957V7.75183H4.88062ZM1.21008 9.87109L1.25973 9.9579L1.26008 9.9577L1.21008 9.87109ZM1.20947 14.8027L1.15936 14.8893L1.15947 14.8893L1.20947 14.8027ZM4.93298 16.9525L4.88298 17.0391L4.8833 17.0392L4.93298 16.9525ZM5.29761 16.952L5.34737 17.0388L5.34761 17.0386L5.29761 16.952ZM7.47681 15.6938L7.52681 15.7804L7.52684 15.7804L7.47681 15.6938ZM7.56262 15.3737L7.64922 15.3237L7.6492 15.3236L7.56262 15.3737ZM7.24243 15.2878L7.19247 15.2012L7.19243 15.2012L7.24243 15.2878ZM5.34937 16.3809H5.24937V16.5541L5.39937 16.4675L5.34937 16.3809ZM5.34937 12.4724L5.29937 12.3858L5.24937 12.4147V12.4724H5.34937ZM8.7345 10.518H8.8345V10.3448L8.6845 10.4314L8.7345 10.518ZM8.7345 14.4264L8.7845 14.513L8.8345 14.4841V14.4264H8.7345ZM8.20007 14.735L8.25007 14.8216L8.25008 14.8216L8.20007 14.735ZM8.11426 15.0552L8.02764 15.1052L8.02768 15.1052L8.11426 15.0552ZM8.43445 15.1409L8.38445 15.0543L8.38431 15.0544L8.43445 15.1409ZM8.96863 14.8325L9.01863 14.7459L8.96863 14.717L8.91863 14.7459L8.96863 14.8325ZM12.6404 16.9523L12.5904 17.0389L12.5906 17.0391L12.6404 16.9523ZM13.0051 16.952L13.0549 17.0388L13.0551 17.0386L13.0051 16.952ZM16.7286 14.8022L16.7786 14.8888L16.7789 14.8887L16.7286 14.8022ZM16.9105 10.1877L16.8105 10.1875V10.1877H16.9105ZM1.49561 14.4266H1.39561V14.4843L1.44561 14.5132L1.49561 14.4266ZM4.88049 16.3809L4.83049 16.4675L4.98049 16.5541V16.3809H4.88049ZM1.49561 10.5181L1.5456 10.4315L1.39561 10.3449V10.5181H1.49561ZM4.88049 12.4724H4.98049V12.4146L4.93049 12.3857L4.88049 12.4724ZM5.11499 12.0664L5.06499 12.153L5.11499 12.1819L5.16499 12.153L5.11499 12.0664ZM1.7301 10.1122L1.6801 10.0256L1.5301 10.1122L1.6801 10.1988L1.7301 10.1122ZM8.49988 10.1122L8.54988 10.1988L8.69988 10.1122L8.54988 10.0256L8.49988 10.1122ZM5.11499 8.1579L5.16499 8.0713L5.11499 8.04243L5.06499 8.0713L5.11499 8.1579ZM8.96875 1.48462L9.01875 1.39802L8.96875 1.36915L8.91875 1.39802L8.96875 1.48462ZM5.58386 3.43884L5.53386 3.35224L5.38386 3.43884L5.53386 3.52545L5.58386 3.43884ZM12.3536 3.4389L12.4036 3.52551L12.5536 3.43891L12.4036 3.3523L12.3536 3.4389ZM8.96875 5.39307L8.91875 5.47967L8.96875 5.50854L9.01875 5.47967L8.96875 5.39307ZM9.20312 5.79901L9.15313 5.71241L9.10312 5.74128V5.79901H9.20312ZM12.588 3.84479H12.688V3.67158L12.538 3.75818L12.588 3.84479ZM9.20312 9.7063H9.10312V9.87951L9.25313 9.7929L9.20312 9.7063ZM12.588 7.75195L12.638 7.83855L12.688 7.80969V7.75195H12.588ZM9.20325 14.4266H9.10325V14.4844L9.15325 14.5132L9.20325 14.4266ZM12.5881 16.3809L12.5381 16.4675L12.6881 16.5541V16.3809H12.5881ZM9.20325 10.5181L9.25325 10.4315L9.10325 10.3449V10.5181H9.20325ZM12.5881 12.4724H12.6881V12.4146L12.6381 12.3857L12.5881 12.4724ZM16.4418 14.4265L16.4918 14.5131L16.5418 14.4842V14.4265H16.4418ZM13.0569 16.3809H12.9569V16.5541L13.1069 16.4675L13.0569 16.3809ZM16.4418 10.5181H16.5418V10.3449L16.3918 10.4315L16.4418 10.5181ZM13.0569 12.4724L13.0069 12.3857L12.9569 12.4146V12.4724H13.0569ZM16.6777 9.95792C16.7242 9.98503 16.7642 10.0274 16.7822 10.0699L16.9663 9.99185C16.9282 9.90195 16.8544 9.82942 16.7784 9.78512L16.6777 9.95792ZM15.2767 9.14898L16.678 9.95812L16.778 9.78492L15.3767 8.97578L15.2767 9.14898ZM15.0931 9.19811C15.1302 9.13386 15.2124 9.11184 15.2766 9.14896L15.3767 8.9758C15.2168 8.8834 15.0122 8.93816 14.9199 9.09815L15.0931 9.19811ZM15.1422 9.3817C15.078 9.34464 15.0559 9.26247 15.0931 9.19811L14.9199 9.09815C14.8276 9.25804 14.8822 9.46261 15.0423 9.55495L15.1422 9.3817ZM16.2574 10.0256L15.1423 9.38172L15.0423 9.55492L16.1574 10.1988L16.2574 10.0256ZM12.8725 12.1531L16.2574 10.1988L16.1574 10.0256L12.7725 11.9799L12.8725 12.1531ZM9.38762 10.1988L12.7725 12.1531L12.8725 11.9799L9.48762 10.0256L9.38762 10.1988ZM12.7725 8.07136L9.38762 10.0256L9.48762 10.1988L12.8725 8.24456L12.7725 8.07136ZM14.1845 8.82886L12.8725 8.07136L12.7725 8.24456L14.0845 9.00207L14.1845 8.82886ZM14.3681 8.77971C14.331 8.8439 14.2489 8.86599 14.1845 8.82884L14.0846 9.00209C14.2445 9.09434 14.449 9.03964 14.5413 8.87971L14.3681 8.77971ZM14.319 8.59612C14.3833 8.63321 14.4053 8.7154 14.3681 8.77966L14.5413 8.87976C14.6338 8.71978 14.5789 8.51523 14.419 8.42292L14.319 8.59612ZM13.0068 7.83849L14.319 8.59612L14.419 8.42292L13.1068 7.66529L13.0068 7.83849ZM12.9568 3.5144V7.75189H13.1568V3.5144H12.9568ZM12.9537 3.47464C12.9557 3.48805 12.9568 3.50134 12.9568 3.5144H13.1568C13.1568 3.49073 13.1549 3.46752 13.1515 3.44504L12.9537 3.47464ZM12.9407 3.42486C12.9468 3.44144 12.9512 3.45827 12.9538 3.47512L13.1514 3.44456C13.1467 3.41404 13.1389 3.38449 13.1286 3.35627L12.9407 3.42486ZM12.8238 3.28449C12.8779 3.31616 12.9194 3.36663 12.9408 3.42493L13.1286 3.35619C13.0916 3.25508 13.0198 3.16748 12.9248 3.11187L12.8238 3.28449ZM9.10137 1.13531L12.8243 3.28478L12.9243 3.11158L9.20137 0.962104L9.10137 1.13531ZM8.8361 1.13539C8.91785 1.08822 9.01967 1.08822 9.10143 1.13534L9.2013 0.962067C9.05772 0.87931 8.87976 0.879305 8.73616 0.962149L8.8361 1.13539ZM5.11384 3.28442L8.83613 1.13537L8.73613 0.962164L5.01384 3.11121L5.11384 3.28442ZM4.98062 3.51447C4.98062 3.42201 5.03361 3.33035 5.11352 3.2846L5.01416 3.11103C4.87167 3.1926 4.78062 3.35069 4.78062 3.51447H4.98062ZM4.98062 5.43488V3.51447H4.78062V5.43488H4.98062ZM5.11511 5.56925C5.04077 5.56925 4.98062 5.50905 4.98062 5.43488H4.78062C4.78062 5.61961 4.93042 5.76925 5.11511 5.76925V5.56925ZM5.24949 5.43488C5.24949 5.50912 5.18938 5.56925 5.11511 5.56925V5.76925C5.29987 5.76925 5.44949 5.61954 5.44949 5.43488H5.24949ZM5.24949 3.84485V5.43488H5.44949V3.84485H5.24949ZM8.78437 5.71247L5.39949 3.75825L5.29949 3.93145L8.68438 5.88568L8.78437 5.71247ZM8.83437 9.7063V5.79907H8.63438V9.7063H8.83437ZM5.29949 7.83862L8.68437 9.7929L8.78438 9.6197L5.39949 7.66541L5.29949 7.83862ZM5.24949 6.50293V7.75201H5.44949V6.50293H5.24949ZM5.11499 6.36855C5.18933 6.36855 5.24949 6.42875 5.24949 6.50293H5.44949C5.44949 6.31819 5.29968 6.16855 5.11499 6.16855V6.36855ZM4.98062 6.50293C4.98062 6.42872 5.04081 6.36855 5.11499 6.36855V6.16855C4.93038 6.16855 4.78062 6.31823 4.78062 6.50293H4.98062ZM4.98062 7.75183V6.50293H4.78062V7.75183H4.98062ZM1.26008 9.9577L4.93062 7.83843L4.83061 7.66523L1.16008 9.78449L1.26008 9.9577ZM1.12686 10.1877C1.12686 10.0945 1.17914 10.004 1.25973 9.9579L1.16043 9.78429C1.01715 9.86625 0.926855 10.0232 0.926855 10.1877H1.12686ZM1.12686 14.4864V10.1877H0.926855V14.4864H1.12686ZM1.25959 14.7162C1.17771 14.6688 1.12686 14.5806 1.12686 14.4864H0.926855C0.926855 14.6521 1.01589 14.8062 1.15936 14.8893L1.25959 14.7162ZM4.98298 16.8659L1.25947 14.7161L1.15947 14.8893L4.88298 17.0391L4.98298 16.8659ZM5.24784 16.8653C5.16752 16.9114 5.0628 16.9115 4.98267 16.8657L4.8833 17.0392C5.02534 17.1206 5.20577 17.12 5.34737 17.0388L5.24784 16.8653ZM7.42681 15.6072L5.24761 16.8654L5.34761 17.0386L7.52681 15.7804L7.42681 15.6072ZM7.47602 15.4237C7.51308 15.4879 7.49108 15.5701 7.42677 15.6073L7.52684 15.7804C7.68666 15.6881 7.74156 15.4836 7.64922 15.3237L7.47602 15.4237ZM7.2924 15.3745C7.35665 15.3374 7.43885 15.3594 7.47605 15.4237L7.6492 15.3236C7.55675 15.1637 7.35233 15.109 7.19247 15.2012L7.2924 15.3745ZM5.39937 16.4675L7.29244 15.3744L7.19243 15.2012L5.29936 16.2943L5.39937 16.4675ZM5.24937 12.4724V16.3809H5.44937V12.4724H5.24937ZM8.6845 10.4314L5.29937 12.3858L5.39937 12.559L8.7845 10.6046L8.6845 10.4314ZM8.8345 14.4264V10.518H8.6345V14.4264H8.8345ZM8.25008 14.8216L8.7845 14.513L8.68449 14.3398L8.15007 14.6484L8.25008 14.8216ZM8.20087 15.0052C8.16377 14.9409 8.18584 14.8587 8.25007 14.8216L8.15007 14.6484C7.99019 14.7407 7.93535 14.9452 8.02764 15.1052L8.20087 15.0052ZM8.3175 15.0724C8.27069 15.0724 8.2257 15.0482 8.20084 15.0051L8.02768 15.1052C8.08973 15.2126 8.20221 15.2724 8.3175 15.2724V15.0724ZM8.38431 15.0544C8.36324 15.0666 8.34022 15.0724 8.3175 15.0724V15.2724C8.37413 15.2724 8.43193 15.258 8.48459 15.2275L8.38431 15.0544ZM8.91863 14.7459L8.38445 15.0543L8.48445 15.2275L9.01863 14.9191L8.91863 14.7459ZM12.6904 16.8657L9.01863 14.7459L8.91863 14.9191L12.5904 17.0389L12.6904 16.8657ZM12.9554 16.8653C12.875 16.9113 12.7702 16.9115 12.6901 16.8656L12.5906 17.0391C12.7327 17.1206 12.9133 17.1199 13.0549 17.0388L12.9554 16.8653ZM16.6786 14.7156L12.9551 16.8654L13.0551 17.0386L16.7786 14.8888L16.6786 14.7156ZM16.8105 14.4864C16.8105 14.5804 16.7598 14.6685 16.6784 14.7158L16.7789 14.8887C16.9218 14.8056 17.0105 14.6517 17.0105 14.4864H16.8105ZM16.8105 10.1877V14.4864H17.0105V10.1877H16.8105ZM16.784 10.0739C16.8015 10.1107 16.8106 10.1495 16.8105 10.1875L17.0105 10.1879C17.0107 10.1176 16.9939 10.0495 16.9646 9.98792L16.784 10.0739ZM1.44561 14.5132L4.83049 16.4675L4.93049 16.2943L1.54561 14.34L1.44561 14.5132ZM1.39561 10.5181V14.4266H1.59561V10.5181H1.39561ZM4.93049 12.3857L1.5456 10.4315L1.44561 10.6047L4.83049 12.559L4.93049 12.3857ZM4.98049 16.3809V12.4724H4.78049V16.3809H4.98049ZM5.16499 11.9798L1.7801 10.0256L1.6801 10.1988L5.06499 12.153L5.16499 11.9798ZM8.44988 10.0256L5.06499 11.9798L5.16499 12.153L8.54988 10.1988L8.44988 10.0256ZM5.06499 8.2445L8.44988 10.1988L8.54988 10.0256L5.16499 8.0713L5.06499 8.2445ZM1.7801 10.1988L5.16499 8.2445L5.06499 8.0713L1.6801 10.0256L1.7801 10.1988ZM8.91875 1.39802L5.53386 3.35224L5.63386 3.52545L9.01875 1.57122L8.91875 1.39802ZM12.4036 3.3523L9.01875 1.39802L8.91875 1.57122L12.3036 3.52551L12.4036 3.3523ZM9.01875 5.47967L12.4036 3.52551L12.3036 3.3523L8.91875 5.30646L9.01875 5.47967ZM5.53386 3.52545L8.91875 5.47967L9.01875 5.30646L5.63386 3.35224L5.53386 3.52545ZM9.25312 5.88561L12.638 3.93139L12.538 3.75818L9.15313 5.71241L9.25312 5.88561ZM9.30313 9.7063V5.79901H9.10312V9.7063H9.30313ZM12.538 7.66535L9.15312 9.6197L9.25313 9.7929L12.638 7.83855L12.538 7.66535ZM12.488 3.84479V7.75195H12.688V3.84479H12.488ZM9.15325 14.5132L12.5381 16.4675L12.6381 16.2943L9.25325 14.34L9.15325 14.5132ZM9.10325 10.5181V14.4266H9.30325V10.5181H9.10325ZM12.6381 12.3857L9.25325 10.4315L9.15325 10.6047L12.5381 12.559L12.6381 12.3857ZM12.6881 16.3809V12.4724H12.4881V16.3809H12.6881ZM16.3918 14.3399L13.0069 16.2943L13.1069 16.4675L16.4918 14.5131L16.3918 14.3399ZM16.3418 10.5181V14.4265H16.5418V10.5181H16.3418ZM13.1069 12.559L16.4918 10.6047L16.3918 10.4315L13.0069 12.3857L13.1069 12.559ZM13.1569 16.3809V12.4724H12.9569V16.3809H13.1569Z" fill="#0C49CD"/>
</g>
</g>
<path id="Shape_3" d="M12.134 7.17096C11.996 7.17096 11.884 7.2788 11.884 7.41192V7.43C11.884 7.56309 11.9959 7.67096 12.134 7.67096C12.2721 7.67096 12.384 7.56312 12.384 7.43V7.41192C12.384 7.2788 12.2721 7.17096 12.134 7.17096Z" fill="#0C49CD" stroke="#0C49CD" stroke-width="0.2"/>
<path id="Shape_4" d="M12.134 6.49042C11.996 6.49042 11.884 6.59825 11.884 6.73136V6.74948C11.884 6.88255 11.9959 6.99042 12.134 6.99042C12.2721 6.99042 12.384 6.88259 12.384 6.74948V6.73136C12.384 6.59825 12.2721 6.49042 12.134 6.49042Z" fill="#0C49CD" stroke="#0C49CD" stroke-width="0.2"/>
<path id="Shape_5" d="M12.134 5.80988C11.996 5.80988 11.884 5.91771 11.884 6.05083V6.06892C11.884 6.20201 11.9959 6.30988 12.134 6.30988C12.2721 6.30988 12.384 6.20204 12.384 6.06892V6.05083C12.384 5.91775 12.2721 5.80988 12.134 5.80988Z" fill="#0C49CD" stroke="#0C49CD" stroke-width="0.2"/>
</g>
</g>
</svg>
