<svg width="18" height="18" viewBox="0 0 18 18" fill="none" xmlns="http://www.w3.org/2000/svg">
<g id="Materials White">
<rect id="Rectangle 4 Copy 14" width="18" height="18" fill="#F4F7FB" fill-opacity="0.01"/>
<g id="cubes">
<g id="Group">
<path id="Shape" d="M16.8796 10.0445C17.2551 10.833 16.8206 9.90504 16.8796 10.0445V10.0445Z" fill="#0C49CD" stroke="#0C49CD" stroke-width="0.2"/>
<g id="Shape_2">
<path fill-rule="evenodd" clip-rule="evenodd" d="M16.8743 10.0309C16.8462 9.96466 16.7893 9.90723 16.728 9.87152L15.3267 9.06238C15.2146 8.99762 15.0713 9.03601 15.0063 9.14813C14.9417 9.26025 14.9802 9.40363 15.0923 9.46832L16.2073 10.1122L12.8225 12.0665L9.43774 10.1122L12.8225 8.15796L14.1345 8.91547C14.2466 8.98016 14.3901 8.94177 14.4548 8.82971C14.4944 8.76099 14.4954 8.68054 14.4644 8.61359C14.4446 8.57135 14.4124 8.53455 14.3689 8.50952L13.0569 7.75189V3.5144C13.0569 3.38513 12.9856 3.26337 12.8743 3.19818L9.15137 1.04871C9.03882 0.983765 8.89868 0.983765 8.78613 1.04877L5.06372 3.19781C5.02808 3.21826 4.99634 3.24506 4.96973 3.27631C4.91382 3.34216 4.88062 3.42755 4.88062 3.51447V5.43488C4.88062 5.50659 4.91284 5.57074 4.96362 5.61377C5.00439 5.64838 5.05737 5.66925 5.11499 5.66925C5.1543 5.66925 5.19116 5.65967 5.22363 5.64264C5.24194 5.63306 5.25879 5.62115 5.27393 5.6073C5.302 5.5813 5.32373 5.54846 5.33667 5.51141C5.34058 5.50012 5.34351 5.48846 5.3457 5.4765C5.34814 5.46301 5.34937 5.4491 5.34937 5.43488V3.84485L8.73438 5.79907V9.7063L5.34937 7.75201V6.50293C5.34937 6.44708 5.32983 6.39581 5.29736 6.35559L5.28638 6.34271L5.27222 6.32892L5.25732 6.31653L5.24268 6.30627C5.21997 6.2915 5.19458 6.28052 5.16748 6.27435C5.15063 6.27057 5.13306 6.26855 5.11499 6.26855C4.9856 6.26855 4.88062 6.37347 4.88062 6.50293V7.75183L1.20996 9.87109C1.09814 9.93512 1.02686 10.0588 1.02686 10.1877V14.4864C1.02686 14.6163 1.09668 14.7375 1.20947 14.8027L4.93286 16.9525C4.97852 16.9785 5.0293 16.9938 5.08105 16.9985C5.15576 17.0051 5.23218 16.9896 5.29761 16.952L7.47681 15.6938C7.58887 15.6291 7.62744 15.4857 7.5625 15.3737C7.4978 15.2615 7.35449 15.2232 7.24243 15.2878L5.34937 16.3809V12.4724L8.73438 10.518V14.4264L8.2002 14.735C8.08789 14.7997 8.04956 14.9431 8.11426 15.0552C8.15771 15.1304 8.23657 15.1724 8.31738 15.1724L8.33862 15.1714C8.35645 15.1698 8.37427 15.1661 8.3916 15.1603C8.40625 15.1553 8.42065 15.1489 8.43457 15.1409L8.96875 14.8325L12.6404 16.9523C12.6914 16.9816 12.749 16.9974 12.8074 16.9996C12.8757 17.0023 12.9451 16.9864 13.0051 16.952L16.7285 14.8022C16.8408 14.7371 16.9106 14.616 16.9106 14.4864V10.1877C16.9106 10.1335 16.8977 10.0801 16.8743 10.0309ZM4.88062 16.3809L1.49561 14.4266V10.5181L4.88062 12.4724V16.3809ZM1.72998 10.1122L5.11475 12.0664L8.49976 10.1122L5.11475 8.1579L1.72998 10.1122ZM5.58398 3.43884L8.96875 1.48462L12.3538 3.4389L8.96875 5.39307L5.58398 3.43884ZM12.5881 3.84479L9.20312 5.79901V9.7063L12.5881 7.75195V3.84479ZM12.5881 16.3809L9.20312 14.4266V10.5181L12.5881 12.4724V16.3809ZM13.0569 16.3809L16.4419 14.4265V10.5181L13.0569 12.4724V16.3809Z" fill="white"/>
<path d="M16.728 9.87152L16.7784 9.78512L16.778 9.78492L16.728 9.87152ZM16.8743 10.0309L16.7821 10.07L16.784 10.0739L16.8743 10.0309ZM15.3267 9.06238L15.2766 9.14896L15.2767 9.14898L15.3267 9.06238ZM15.0063 9.14813L14.9198 9.09801L14.9197 9.09815L15.0063 9.14813ZM15.0923 9.46832L15.1423 9.38172L15.1423 9.38172L15.0923 9.46832ZM16.2073 10.1122L16.2573 10.1988L16.4073 10.1122L16.2573 10.0256L16.2073 10.1122ZM12.8225 12.0665L12.7725 12.1531L12.8225 12.1819L12.8725 12.1531L12.8225 12.0665ZM9.43774 10.1122L9.38774 10.0256L9.23775 10.1122L9.38774 10.1988L9.43774 10.1122ZM12.8225 8.15796L12.8725 8.07136L12.8225 8.04249L12.7725 8.07136L12.8225 8.15796ZM14.1345 8.91547L14.0845 9.00207L14.0845 9.00207L14.1345 8.91547ZM14.4548 8.82971L14.5414 8.87971L14.5415 8.87959L14.4548 8.82971ZM14.4644 8.61359L14.5551 8.57156L14.5549 8.57118L14.4644 8.61359ZM14.3689 8.50952L14.3189 8.59612L14.319 8.59618L14.3689 8.50952ZM13.0569 7.75189H12.9569V7.80962L13.0069 7.83849L13.0569 7.75189ZM12.8743 3.19818L12.9248 3.11188L12.9243 3.11158L12.8743 3.19818ZM9.15137 1.04871L9.20137 0.962104L9.20134 0.962091L9.15137 1.04871ZM8.78613 1.04877L8.83613 1.13537L8.83615 1.13536L8.78613 1.04877ZM5.06372 3.19781L5.11348 3.28456L5.11372 3.28442L5.06372 3.19781ZM4.96973 3.27631L4.89359 3.21147L4.89349 3.21159L4.96973 3.27631ZM4.96362 5.61377L5.02834 5.53753L5.02827 5.53748L4.96362 5.61377ZM5.22363 5.64264L5.17727 5.55404L5.17719 5.55408L5.22363 5.64264ZM5.27393 5.6073L5.34145 5.68107L5.34187 5.68067L5.27393 5.6073ZM5.33667 5.51141L5.43108 5.54439L5.43117 5.54411L5.33667 5.51141ZM5.3457 5.4765L5.44406 5.49457L5.4441 5.49431L5.3457 5.4765ZM5.34937 3.84485L5.39936 3.75824L5.24937 3.67165V3.84485H5.34937ZM8.73438 5.79907H8.83437V5.74134L8.78437 5.71247L8.73438 5.79907ZM8.73438 9.7063L8.68438 9.7929L8.83437 9.8795V9.7063H8.73438ZM5.34937 7.75201H5.24937V7.80975L5.29937 7.83862L5.34937 7.75201ZM5.29736 6.35559L5.3752 6.29275L5.37344 6.29069L5.29736 6.35559ZM5.28638 6.34271L5.36278 6.27753L5.35616 6.27108L5.28638 6.34271ZM5.27222 6.32892L5.34221 6.25707L5.33617 6.25204L5.27222 6.32892ZM5.25732 6.31653L5.3215 6.23939L5.31467 6.23461L5.25732 6.31653ZM5.24268 6.30627L5.30006 6.2243L5.29721 6.22245L5.24268 6.30627ZM5.16748 6.27435L5.18966 6.17684L5.1894 6.17678L5.16748 6.27435ZM4.88062 7.75183L4.93062 7.83843L4.98062 7.80957V7.75183H4.88062ZM1.20996 9.87109L1.25965 9.95788L1.25996 9.9577L1.20996 9.87109ZM1.20947 14.8027L1.1594 14.8893L1.15947 14.8893L1.20947 14.8027ZM4.93286 16.9525L4.88286 17.0391L4.88329 17.0393L4.93286 16.9525ZM5.08105 16.9985L5.07213 17.0981L5.07218 17.0981L5.08105 16.9985ZM5.29761 16.952L5.34737 17.0388L5.34761 17.0386L5.29761 16.952ZM7.47681 15.6938L7.52681 15.7804L7.52684 15.7804L7.47681 15.6938ZM7.5625 15.3737L7.47589 15.4236L7.47598 15.4238L7.5625 15.3737ZM7.24243 15.2878L7.19247 15.2012L7.19243 15.2012L7.24243 15.2878ZM5.34937 16.3809H5.24937V16.5541L5.39937 16.4675L5.34937 16.3809ZM5.34937 12.4724L5.29936 12.3858L5.24937 12.4147V12.4724H5.34937ZM8.73438 10.518H8.83437V10.3448L8.68437 10.4314L8.73438 10.518ZM8.73438 14.4264L8.7844 14.513L8.83437 14.4841V14.4264H8.73438ZM8.2002 14.735L8.25011 14.8216L8.25022 14.8216L8.2002 14.735ZM8.11426 15.0552L8.02764 15.1052L8.02768 15.1052L8.11426 15.0552ZM8.31738 15.1724V15.2725L8.32198 15.2723L8.31738 15.1724ZM8.33862 15.1714L8.34322 15.2714L8.34749 15.271L8.33862 15.1714ZM8.3916 15.1603L8.35962 15.0655L8.35958 15.0655L8.3916 15.1603ZM8.43457 15.1409L8.48439 15.2276L8.48457 15.2275L8.43457 15.1409ZM8.96875 14.8325L9.01875 14.7459L8.96875 14.717L8.91875 14.7459L8.96875 14.8325ZM12.6404 16.9523L12.5904 17.0389L12.5906 17.0391L12.6404 16.9523ZM12.8074 16.9996L12.8113 16.8997L12.8112 16.8997L12.8074 16.9996ZM13.0051 16.952L13.0548 17.0388L13.0551 17.0386L13.0051 16.952ZM16.7285 14.8022L16.7785 14.8888L16.7787 14.8887L16.7285 14.8022ZM1.49561 14.4266H1.39561V14.4843L1.44561 14.5132L1.49561 14.4266ZM4.88062 16.3809L4.83062 16.4675L4.98062 16.5541V16.3809H4.88062ZM1.49561 10.5181L1.5456 10.4315L1.39561 10.3449V10.5181H1.49561ZM4.88062 12.4724H4.98062V12.4146L4.93061 12.3857L4.88062 12.4724ZM5.11475 12.0664L5.06475 12.153L5.11474 12.1819L5.16474 12.153L5.11475 12.0664ZM1.72998 10.1122L1.67998 10.0256L1.52998 10.1122L1.67998 10.1988L1.72998 10.1122ZM8.49976 10.1122L8.54975 10.1988L8.69976 10.1122L8.54976 10.0256L8.49976 10.1122ZM5.11475 8.1579L5.16475 8.07129L5.11474 8.04243L5.06474 8.0713L5.11475 8.1579ZM8.96875 1.48462L9.01875 1.39802L8.96875 1.36915L8.91875 1.39802L8.96875 1.48462ZM5.58398 3.43884L5.53398 3.35224L5.38399 3.43884L5.53398 3.52544L5.58398 3.43884ZM12.3538 3.4389L12.4038 3.52551L12.5538 3.43891L12.4038 3.3523L12.3538 3.4389ZM8.96875 5.39307L8.91875 5.47967L8.96875 5.50854L9.01875 5.47967L8.96875 5.39307ZM9.20312 5.79901L9.15313 5.71241L9.10312 5.74127V5.79901H9.20312ZM12.5881 3.84479H12.6881V3.67159L12.5381 3.75818L12.5881 3.84479ZM9.20312 9.7063H9.10312V9.8795L9.25313 9.7929L9.20312 9.7063ZM12.5881 7.75195L12.6381 7.83856L12.6881 7.80969V7.75195H12.5881ZM9.20312 14.4266H9.10312V14.4844L9.15313 14.5132L9.20312 14.4266ZM12.5881 16.3809L12.5381 16.4675L12.6881 16.5541V16.3809H12.5881ZM9.20312 10.5181L9.25312 10.4315L9.10312 10.3449V10.5181H9.20312ZM12.5881 12.4724H12.6881V12.4146L12.6381 12.3857L12.5881 12.4724ZM16.4419 14.4265L16.4919 14.5131L16.5419 14.4842V14.4265H16.4419ZM13.0569 16.3809H12.9569V16.5541L13.1069 16.4675L13.0569 16.3809ZM16.4419 10.5181H16.5419V10.3449L16.3919 10.4315L16.4419 10.5181ZM13.0569 12.4724L13.0069 12.3857L12.9569 12.4146V12.4724H13.0569ZM16.6777 9.95792C16.7242 9.98503 16.7642 10.0274 16.7822 10.0699L16.9663 9.99185C16.9282 9.90195 16.8544 9.82942 16.7784 9.78512L16.6777 9.95792ZM15.2767 9.14898L16.678 9.95812L16.778 9.78492L15.3767 8.97578L15.2767 9.14898ZM15.0929 9.19825C15.1302 9.13377 15.2125 9.11189 15.2766 9.14896L15.3767 8.9758C15.2167 8.88335 15.0123 8.93825 14.9198 9.09801L15.0929 9.19825ZM15.1423 9.38172C15.078 9.34459 15.0559 9.26233 15.093 9.19811L14.9197 9.09815C14.8274 9.25818 14.8825 9.46266 15.0423 9.55493L15.1423 9.38172ZM16.2573 10.0256L15.1423 9.38172L15.0423 9.55492L16.1573 10.1988L16.2573 10.0256ZM12.8725 12.1531L16.2573 10.1988L16.1573 10.0256L12.7725 11.9799L12.8725 12.1531ZM9.38774 10.1988L12.7725 12.1531L12.8725 11.9799L9.48774 10.0256L9.38774 10.1988ZM12.7725 8.07136L9.38774 10.0256L9.48775 10.1988L12.8725 8.24456L12.7725 8.07136ZM14.1845 8.82886L12.8725 8.07136L12.7725 8.24456L14.0845 9.00207L14.1845 8.82886ZM14.3682 8.77971C14.3312 8.84389 14.2488 8.86598 14.1845 8.82886L14.0845 9.00207C14.2444 9.09435 14.4491 9.03965 14.5414 8.87971L14.3682 8.77971ZM14.3736 8.65561C14.3915 8.69431 14.3909 8.74041 14.3682 8.77983L14.5415 8.87959C14.5979 8.78157 14.5992 8.66678 14.5551 8.57157L14.3736 8.65561ZM14.319 8.59618C14.3439 8.6105 14.3623 8.63146 14.3738 8.65599L14.5549 8.57118C14.5269 8.51124 14.4808 8.45859 14.4188 8.42286L14.319 8.59618ZM13.0069 7.83849L14.3189 8.59612L14.4189 8.42292L13.1069 7.66529L13.0069 7.83849ZM12.9569 3.5144V7.75189H13.1569V3.5144H12.9569ZM12.8237 3.28448C12.9051 3.3321 12.9569 3.42138 12.9569 3.5144H13.1569C13.1569 3.34889 13.0661 3.19464 12.9248 3.11189L12.8237 3.28448ZM9.10137 1.13531L12.8243 3.28478L12.9243 3.11158L9.20137 0.962104L9.10137 1.13531ZM8.83615 1.13536C8.91775 1.08823 9.01977 1.08823 9.10139 1.13532L9.20134 0.962091C9.05787 0.879302 8.87961 0.879297 8.73612 0.962172L8.83615 1.13536ZM5.11372 3.28442L8.83613 1.13537L8.73613 0.962164L5.01372 3.11121L5.11372 3.28442ZM5.04586 3.34114C5.06536 3.31824 5.08829 3.29901 5.11348 3.28456L5.01396 3.11107C4.96786 3.13752 4.92731 3.17187 4.89359 3.21147L5.04586 3.34114ZM4.98062 3.51447C4.98062 3.45259 5.00451 3.38985 5.04596 3.34102L4.89349 3.21159C4.82313 3.29448 4.78062 3.40251 4.78062 3.51447H4.98062ZM4.98062 5.43488V3.51447H4.78062V5.43488H4.98062ZM5.02827 5.53748C4.99891 5.5126 4.98062 5.47592 4.98062 5.43488H4.78062C4.78062 5.53727 4.82677 5.62888 4.89898 5.69006L5.02827 5.53748ZM5.11499 5.56925C5.08188 5.56925 5.05166 5.55732 5.02834 5.53753L4.89891 5.69001C4.95713 5.73943 5.03287 5.76925 5.11499 5.76925V5.56925ZM5.17719 5.55408C5.15877 5.56374 5.1378 5.56925 5.11499 5.56925V5.76925C5.17079 5.76925 5.22356 5.7556 5.27008 5.7312L5.17719 5.55408ZM5.20641 5.53354C5.1975 5.54169 5.18774 5.54856 5.17727 5.55404L5.27 5.73124C5.29615 5.71756 5.32008 5.70062 5.34144 5.68106L5.20641 5.53354ZM5.24226 5.47844C5.23475 5.49995 5.22215 5.51895 5.20598 5.53393L5.34187 5.68067C5.38185 5.64365 5.41271 5.59697 5.43108 5.54439L5.24226 5.47844ZM5.24735 5.45844C5.24591 5.46624 5.24417 5.47292 5.24217 5.47872L5.43117 5.54411C5.43698 5.52733 5.4411 5.51069 5.44406 5.49457L5.24735 5.45844ZM5.24937 5.43488C5.24937 5.44337 5.24864 5.45132 5.2473 5.45869L5.4441 5.49431C5.44765 5.47471 5.44937 5.45482 5.44937 5.43488H5.24937ZM5.24937 3.84485V5.43488H5.44937V3.84485H5.24937ZM8.78437 5.71247L5.39936 3.75824L5.29937 3.93145L8.68438 5.88568L8.78437 5.71247ZM8.83437 9.7063V5.79907H8.63438V9.7063H8.83437ZM5.29937 7.83862L8.68438 9.7929L8.78437 9.6197L5.39936 7.66541L5.29937 7.83862ZM5.24937 6.50293V7.75201H5.44937V6.50293H5.24937ZM5.21955 6.41841C5.23821 6.44152 5.24937 6.4708 5.24937 6.50293H5.44937C5.44937 6.42337 5.42145 6.35011 5.37517 6.29278L5.21955 6.41841ZM5.2103 6.40761L5.22129 6.42049L5.37344 6.29069L5.36245 6.27781L5.2103 6.40761ZM5.20244 6.40055L5.2166 6.41434L5.35616 6.27108L5.342 6.25729L5.20244 6.40055ZM5.19337 6.3934L5.20826 6.40579L5.33617 6.25204L5.32128 6.23965L5.19337 6.3934ZM5.18533 6.3882L5.19998 6.39845L5.31467 6.23461L5.30002 6.22435L5.18533 6.3882ZM5.1453 6.37186C5.1605 6.37532 5.17499 6.38154 5.18815 6.3901L5.29721 6.22245C5.26495 6.20147 5.22866 6.18572 5.18966 6.17684L5.1453 6.37186ZM5.11499 6.36855C5.12561 6.36855 5.13584 6.36974 5.14556 6.37192L5.1894 6.17678C5.16543 6.1714 5.1405 6.16855 5.11499 6.16855V6.36855ZM4.98062 6.50293C4.98062 6.42872 5.04081 6.36855 5.11499 6.36855V6.16855C4.93038 6.16855 4.78062 6.31823 4.78062 6.50293H4.98062ZM4.98062 7.75183V6.50293H4.78062V7.75183H4.98062ZM1.25996 9.9577L4.93062 7.83843L4.83062 7.66523L1.15996 9.78449L1.25996 9.9577ZM1.12686 10.1877C1.12686 10.0945 1.17915 10.004 1.25965 9.95787L1.16027 9.78431C1.01713 9.86627 0.926855 10.0232 0.926855 10.1877H1.12686ZM1.12686 14.4864V10.1877H0.926855V14.4864H1.12686ZM1.25954 14.7162C1.17763 14.6688 1.12686 14.5806 1.12686 14.4864H0.926855C0.926855 14.6521 1.01573 14.8062 1.1594 14.8893L1.25954 14.7162ZM4.98286 16.8659L1.25947 14.7161L1.15947 14.8893L4.88286 17.0391L4.98286 16.8659ZM5.08998 16.8989C5.05184 16.8955 5.01503 16.8842 4.98244 16.8656L4.88329 17.0393C4.942 17.0728 5.00675 17.0922 5.07213 17.0981L5.08998 16.8989ZM5.24785 16.8653C5.20107 16.8921 5.14528 16.9038 5.08992 16.8989L5.07218 17.0981C5.16625 17.1065 5.26328 17.087 5.34737 17.0388L5.24785 16.8653ZM7.42681 15.6072L5.24761 16.8654L5.34761 17.0386L7.52681 15.7804L7.42681 15.6072ZM7.47598 15.4238C7.5131 15.4878 7.49116 15.5701 7.42677 15.6073L7.52684 15.7804C7.68658 15.6881 7.74179 15.4836 7.64902 15.3235L7.47598 15.4238ZM7.2924 15.3745C7.35668 15.3374 7.43882 15.3594 7.47589 15.4236L7.64911 15.3237C7.55678 15.1637 7.3523 15.109 7.19247 15.2012L7.2924 15.3745ZM5.39937 16.4675L7.29244 15.3744L7.19243 15.2012L5.29936 16.2943L5.39937 16.4675ZM5.24937 12.4724V16.3809H5.44937V12.4724H5.24937ZM8.68437 10.4314L5.29936 12.3858L5.39937 12.559L8.78438 10.6046L8.68437 10.4314ZM8.83437 14.4264V10.518H8.63438V14.4264H8.83437ZM8.25022 14.8216L8.7844 14.513L8.68435 14.3398L8.15017 14.6484L8.25022 14.8216ZM8.20087 15.0052C8.16375 14.9409 8.18577 14.8587 8.25011 14.8216L8.15028 14.6483C7.99002 14.7407 7.93537 14.9453 8.02764 15.1052L8.20087 15.0052ZM8.31738 15.0724C8.27081 15.0724 8.2257 15.0482 8.20084 15.0051L8.02768 15.1052C8.08973 15.2126 8.20233 15.2724 8.31738 15.2724V15.0724ZM8.33403 15.0715L8.31279 15.0725L8.32198 15.2723L8.34322 15.2713L8.33403 15.0715ZM8.35958 15.0655C8.34996 15.0688 8.33992 15.0709 8.32975 15.0718L8.34749 15.271C8.37297 15.2687 8.39858 15.2635 8.42362 15.255L8.35958 15.0655ZM8.38475 15.0542C8.37668 15.0589 8.36827 15.0626 8.35962 15.0655L8.42358 15.255C8.44423 15.2481 8.46463 15.239 8.48439 15.2276L8.38475 15.0542ZM8.91875 14.7459L8.38457 15.0543L8.48457 15.2275L9.01875 14.9191L8.91875 14.7459ZM12.6904 16.8657L9.01875 14.7459L8.91875 14.9191L12.5904 17.0389L12.6904 16.8657ZM12.8112 16.8997C12.7682 16.898 12.7264 16.8864 12.6902 16.8656L12.5906 17.0391C12.6564 17.0768 12.7299 17.0967 12.8035 17.0996L12.8112 16.8997ZM12.9555 16.8652C12.9125 16.8898 12.8619 16.9017 12.8113 16.8997L12.8034 17.0996C12.8896 17.1029 12.9777 17.083 13.0548 17.0388L12.9555 16.8652ZM16.6785 14.7156L12.9551 16.8654L13.0551 17.0386L16.7785 14.8888L16.6785 14.7156ZM16.8106 14.4864C16.8106 14.5803 16.7599 14.6684 16.6783 14.7158L16.7787 14.8887C16.9218 14.8057 17.0106 14.6518 17.0106 14.4864H16.8106ZM16.8106 10.1877V14.4864H17.0106V10.1877H16.8106ZM16.784 10.0739C16.8015 10.1107 16.8106 10.1495 16.8106 10.1877H17.0106C17.0106 10.1176 16.9939 10.0495 16.9646 9.98792L16.784 10.0739ZM1.44561 14.5132L4.83062 16.4675L4.93061 16.2943L1.5456 14.34L1.44561 14.5132ZM1.39561 10.5181V14.4266H1.59561V10.5181H1.39561ZM4.93061 12.3857L1.5456 10.4315L1.44561 10.6047L4.83062 12.559L4.93061 12.3857ZM4.98062 16.3809V12.4724H4.78062V16.3809H4.98062ZM5.16475 11.9798L1.77998 10.0256L1.67998 10.1988L5.06475 12.153L5.16475 11.9798ZM8.44976 10.0256L5.06475 11.9798L5.16474 12.153L8.54975 10.1988L8.44976 10.0256ZM5.06475 8.2445L8.44976 10.1988L8.54976 10.0256L5.16475 8.07129L5.06475 8.2445ZM1.77998 10.1988L5.16475 8.2445L5.06474 8.0713L1.67998 10.0256L1.77998 10.1988ZM8.91875 1.39802L5.53398 3.35224L5.63399 3.52544L9.01875 1.57122L8.91875 1.39802ZM12.4038 3.3523L9.01875 1.39802L8.91875 1.57122L12.3038 3.52551L12.4038 3.3523ZM9.01875 5.47967L12.4038 3.52551L12.3038 3.3523L8.91875 5.30646L9.01875 5.47967ZM5.53398 3.52544L8.91875 5.47967L9.01875 5.30646L5.63399 3.35224L5.53398 3.52544ZM9.25312 5.88561L12.6381 3.93139L12.5381 3.75818L9.15313 5.71241L9.25312 5.88561ZM9.30313 9.7063V5.79901H9.10312V9.7063H9.30313ZM12.5381 7.66535L9.15312 9.6197L9.25313 9.7929L12.6381 7.83856L12.5381 7.66535ZM12.4881 3.84479V7.75195H12.6881V3.84479H12.4881ZM9.15313 14.5132L12.5381 16.4675L12.6381 16.2943L9.25312 14.34L9.15313 14.5132ZM9.10312 10.5181V14.4266H9.30313V10.5181H9.10312ZM12.6381 12.3857L9.25312 10.4315L9.15313 10.6047L12.5381 12.559L12.6381 12.3857ZM12.6881 16.3809V12.4724H12.4881V16.3809H12.6881ZM16.3919 14.3399L13.0069 16.2943L13.1069 16.4675L16.4919 14.5131L16.3919 14.3399ZM16.3419 10.5181V14.4265H16.5419V10.5181H16.3419ZM13.1069 12.559L16.4919 10.6047L16.3919 10.4315L13.0069 12.3857L13.1069 12.559ZM13.1569 16.3809V12.4724H12.9569V16.3809H13.1569Z" fill="white"/>
</g>
</g>
<path id="Shape_3" d="M12.134 7.17096C11.996 7.17096 11.884 7.2788 11.884 7.41192V7.43C11.884 7.56309 11.9959 7.67096 12.134 7.67096C12.2721 7.67096 12.384 7.56312 12.384 7.43V7.41192C12.384 7.2788 12.2721 7.17096 12.134 7.17096Z" fill="#0C49CD" stroke="#0C49CD" stroke-width="0.2"/>
<path id="Shape_4" d="M12.134 6.49042C11.996 6.49042 11.884 6.59825 11.884 6.73136V6.74948C11.884 6.88255 11.9959 6.99042 12.134 6.99042C12.2721 6.99042 12.384 6.88259 12.384 6.74948V6.73136C12.384 6.59825 12.2721 6.49042 12.134 6.49042Z" fill="#0C49CD" stroke="#0C49CD" stroke-width="0.2"/>
<path id="Shape_5" d="M12.134 5.80988C11.996 5.80988 11.884 5.91771 11.884 6.05083V6.06892C11.884 6.20201 11.9959 6.30988 12.134 6.30988C12.2721 6.30988 12.384 6.20204 12.384 6.06892V6.05083C12.384 5.91775 12.2721 5.80988 12.134 5.80988Z" fill="#0C49CD" stroke="#0C49CD" stroke-width="0.2"/>
</g>
</g>
</svg>
