<svg width="18" height="18" viewBox="0 0 18 18" fill="none" xmlns="http://www.w3.org/2000/svg">
<g id="Messangers">
<rect id="Rectangle 4 Copy 24" width="18" height="18" fill="#F4F7FB" fill-opacity="0.01"/>
<g id="speech-bubbles">
<path id="Shape" d="M15.768 6.46607C14.9981 5.70201 13.9211 5.1579 12.7354 4.93394C12.5923 4.907 12.4543 5.00103 12.4273 5.14415C12.4002 5.28728 12.4943 5.42523 12.6375 5.45227C14.8955 5.87875 16.4725 7.44801 16.4725 9.26843C16.4725 10.7677 15.4052 12.1152 13.6871 12.7851C13.5994 12.8193 13.5365 12.8977 13.5222 12.9907C13.418 13.6677 13.5603 14.3566 13.9079 14.9305C13.1488 14.7277 12.5339 14.1451 12.2948 13.3557C12.2586 13.2364 12.1435 13.1584 12.0195 13.1694C11.8332 13.1856 11.6455 13.1938 11.4615 13.1938C9.82073 13.1938 8.28062 12.5609 7.34168 11.5006C7.24515 11.3916 7.07847 11.3814 6.96939 11.478C6.86034 11.5746 6.85022 11.7413 6.94678 11.8503C7.98428 13.0219 9.67205 13.7213 11.4615 13.7213C11.5929 13.7213 11.7261 13.7174 11.8593 13.7098C12.0505 14.2029 12.3794 14.6419 12.8007 14.9618C13.2957 15.3375 13.8856 15.5361 14.5067 15.5361C14.6131 15.5361 14.7091 15.4721 14.7501 15.3739C14.791 15.2756 14.7689 15.1624 14.694 15.0867C14.2077 14.5958 13.9635 13.9061 14.0257 13.2171C14.8774 12.8595 15.5995 12.3297 16.1213 11.6782C16.6961 10.9606 16.9999 10.1273 16.9999 9.26843C16.9999 8.24974 16.5625 7.2545 15.768 6.46607Z" fill="#0C49CD" stroke="#0C49CD" stroke-width="0.4"/>
<g id="Shape_2">
<path fill-rule="evenodd" clip-rule="evenodd" d="M10.4323 3.28658C11.4928 4.12889 12.0769 5.2542 12.0769 6.45525C12.0769 7.6563 11.4928 8.78162 10.4323 9.62395C9.38953 10.4521 8.00659 10.9081 6.53845 10.9081C6.40698 10.9081 6.2738 10.9043 6.14062 10.8966C5.94946 11.3897 5.62048 11.8288 5.19922 12.1486C4.70422 12.5244 4.11438 12.7229 3.49329 12.7229C3.38684 12.7229 3.29077 12.6589 3.24988 12.5607C3.20886 12.4624 3.23096 12.3492 3.30591 12.2736C3.79224 11.7826 4.0365 11.0929 3.97424 10.4039C3.12256 10.0463 2.40039 9.51653 1.87854 8.86507C1.30383 8.14742 1 7.31412 1 6.45525C1 5.2542 1.58411 4.12889 2.64465 3.28658C3.68726 2.45845 5.07019 2.0024 6.53845 2.0024C8.00659 2.0024 9.38953 2.45845 10.4323 3.28658ZM5.7052 10.5425C5.74133 10.4231 5.85608 10.3454 5.98047 10.3562C6.16675 10.3724 6.35449 10.3806 6.53845 10.3806C9.30151 10.3806 11.5494 8.61971 11.5494 6.45525C11.5494 4.29077 9.30151 2.52986 6.53845 2.52986C3.77539 2.52986 1.52747 4.29077 1.52747 6.45525C1.52747 7.95453 2.59485 9.30205 4.31287 9.97186C4.40051 10.0061 4.46338 10.0844 4.47778 10.1775C4.58191 10.8544 4.4397 11.5434 4.09204 12.1172C4.8512 11.9144 5.46606 11.3319 5.7052 10.5425Z" fill="#0C49CD"/>
<path d="M10.4323 3.28658L10.5566 3.12996L10.5566 3.12996L10.4323 3.28658ZM10.4323 9.62395L10.5566 9.78056L10.5566 9.78056L10.4323 9.62395ZM6.14062 10.8966L6.15211 10.6969L6.00677 10.6886L5.95415 10.8243L6.14062 10.8966ZM5.19922 12.1486L5.32014 12.3079L5.32015 12.3079L5.19922 12.1486ZM3.24988 12.5607L3.43452 12.4838L3.43444 12.4836L3.24988 12.5607ZM3.30591 12.2736L3.44793 12.4144L3.44799 12.4143L3.30591 12.2736ZM3.97424 10.4039L4.17343 10.3859L4.1626 10.266L4.05166 10.2195L3.97424 10.4039ZM1.87854 8.86507L1.72243 8.99008L1.72245 8.99011L1.87854 8.86507ZM2.64465 3.28658L2.76904 3.44319L2.76905 3.44318L2.64465 3.28658ZM5.98047 10.3562L5.96307 10.5555L5.96314 10.5555L5.98047 10.3562ZM5.7052 10.5425L5.89661 10.6005L5.89663 10.6004L5.7052 10.5425ZM4.31287 9.97186L4.38562 9.78556L4.38552 9.78552L4.31287 9.97186ZM4.47778 10.1775L4.67546 10.1471L4.67543 10.1469L4.47778 10.1775ZM4.09204 12.1172L3.92098 12.0136L3.66344 12.4387L4.14365 12.3104L4.09204 12.1172ZM12.2769 6.45525C12.2769 5.18487 11.658 4.00472 10.5566 3.12996L10.3079 3.44319C11.3276 4.25306 11.8769 5.32352 11.8769 6.45525H12.2769ZM10.5566 9.78056C11.658 8.90578 12.2769 7.72562 12.2769 6.45525H11.8769C11.8769 7.58697 11.3276 8.65745 10.3079 9.46733L10.5566 9.78056ZM6.53845 11.1081C8.04683 11.1081 9.47486 10.6397 10.5566 9.78056L10.3079 9.46733C9.30419 10.2645 7.96635 10.7081 6.53845 10.7081V11.1081ZM6.12914 11.0963C6.26607 11.1042 6.40308 11.1081 6.53845 11.1081V10.7081C6.41089 10.7081 6.28154 10.7044 6.15211 10.6969L6.12914 11.0963ZM5.32015 12.3079C5.77119 11.9655 6.1227 11.4962 6.3271 10.9689L5.95415 10.8243C5.77623 11.2833 5.46978 11.6921 5.07828 11.9893L5.32015 12.3079ZM3.49329 12.9229C4.15808 12.9229 4.79039 12.71 5.32014 12.3079L5.07829 11.9893C4.61806 12.3387 4.07068 12.5229 3.49329 12.5229V12.9229ZM3.06523 12.6375C3.1372 12.8104 3.30616 12.9229 3.49329 12.9229V12.5229C3.46752 12.5229 3.44435 12.5074 3.43452 12.4838L3.06523 12.6375ZM3.16389 12.1327C3.03203 12.2657 2.99319 12.465 3.06531 12.6377L3.43444 12.4836C3.42453 12.4599 3.42989 12.4326 3.44793 12.4144L3.16389 12.1327ZM3.77505 10.4219C3.83208 11.053 3.60806 11.6844 3.16382 12.1328L3.44799 12.4143C3.97641 11.8809 4.24092 11.1328 4.17343 10.3859L3.77505 10.4219ZM1.72245 8.99011C2.26737 9.67037 3.01781 10.2192 3.89682 10.5883L4.05166 10.2195C3.22731 9.87338 2.53341 9.36268 2.03463 8.74003L1.72245 8.99011ZM0.8 6.45525C0.8 7.3629 1.12147 8.23965 1.72243 8.99008L2.03465 8.74005C1.4862 8.05518 1.2 7.26534 1.2 6.45525H0.8ZM2.52027 3.12996C1.41887 4.00472 0.8 5.18487 0.8 6.45525H1.2C1.2 5.32352 1.74934 4.25306 2.76904 3.44319L2.52027 3.12996ZM6.53845 1.8024C5.02995 1.8024 3.60192 2.27082 2.52026 3.12997L2.76905 3.44318C3.77259 2.64608 5.11043 2.2024 6.53845 2.2024V1.8024ZM10.5566 3.12996C9.47486 2.27082 8.04683 1.8024 6.53845 1.8024V2.2024C7.96635 2.2024 9.30419 2.64608 10.3079 3.44319L10.5566 3.12996ZM5.99787 10.157C5.77915 10.1379 5.5773 10.2746 5.51378 10.4845L5.89663 10.6004C5.90536 10.5715 5.93301 10.5528 5.96307 10.5555L5.99787 10.157ZM6.53845 10.1806C6.36036 10.1806 6.17839 10.1727 5.9978 10.157L5.96314 10.5555C6.1551 10.5722 6.34863 10.5806 6.53845 10.5806V10.1806ZM11.3494 6.45525C11.3494 8.46652 9.23929 10.1806 6.53845 10.1806V10.5806C9.36374 10.5806 11.7494 8.77289 11.7494 6.45525H11.3494ZM6.53845 2.72986C9.23929 2.72986 11.3494 4.44396 11.3494 6.45525H11.7494C11.7494 4.13759 9.36374 2.32986 6.53845 2.32986V2.72986ZM1.72747 6.45525C1.72747 4.44396 3.83762 2.72986 6.53845 2.72986V2.32986C3.71317 2.32986 1.32747 4.13759 1.32747 6.45525H1.72747ZM4.38552 9.78552C2.72204 9.13697 1.72747 7.85057 1.72747 6.45525H1.32747C1.32747 8.05849 2.46766 9.46712 4.24022 10.1582L4.38552 9.78552ZM4.67543 10.1469C4.65012 9.98337 4.53966 9.84572 4.38562 9.78556L4.24012 10.1582C4.26136 10.1665 4.27664 10.1855 4.28014 10.2081L4.67543 10.1469ZM4.2631 12.2208C4.63477 11.6073 4.78682 10.871 4.67546 10.1471L4.28011 10.2079C4.377 10.8378 4.24463 11.4794 3.92098 12.0136L4.2631 12.2208ZM5.51379 10.4845C5.29468 11.2078 4.73259 11.7391 4.04043 11.924L4.14365 12.3104C4.9698 12.0898 5.63745 11.4559 5.89661 10.6005L5.51379 10.4845Z" fill="#0C49CD"/>
</g>
</g>
</g>
</svg>
