<svg width="18" height="18" viewBox="0 0 18 18" fill="none" xmlns="http://www.w3.org/2000/svg">
<g id="Messangers White">
<rect id="Rectangle 4 Copy 24" width="18" height="18" fill="#F4F7FB" fill-opacity="0.01"/>
<g id="speech-bubbles">
<path id="Shape" d="M15.7681 6.46607C14.9982 5.70201 13.9212 5.1579 12.7355 4.93394C12.5924 4.907 12.4545 5.00103 12.4274 5.14415C12.4004 5.28728 12.4945 5.42523 12.6376 5.45227C14.8956 5.87875 16.4726 7.44801 16.4726 9.26843C16.4726 10.7677 15.4053 12.1152 13.6872 12.7851C13.5995 12.8193 13.5367 12.8977 13.5223 12.9907C13.4181 13.6677 13.5604 14.3566 13.9081 14.9305C13.1489 14.7277 12.534 14.1451 12.2949 13.3557C12.2587 13.2364 12.1436 13.1584 12.0196 13.1694C11.8334 13.1856 11.6456 13.1938 11.4616 13.1938C9.82085 13.1938 8.28074 12.5609 7.3418 11.5006C7.24527 11.3916 7.07859 11.3814 6.96951 11.478C6.86047 11.5746 6.85034 11.7413 6.9469 11.8503C7.9844 13.0219 9.67218 13.7213 11.4616 13.7213C11.5931 13.7213 11.7262 13.7174 11.8594 13.7098C12.0506 14.2029 12.3795 14.6419 12.8009 14.9618C13.2958 15.3375 13.8857 15.5361 14.5068 15.5361C14.6132 15.5361 14.7092 15.4721 14.7502 15.3739C14.7912 15.2756 14.769 15.1624 14.6941 15.0867C14.2078 14.5958 13.9636 13.9061 14.0258 13.2171C14.8775 12.8595 15.5997 12.3297 16.1214 11.6782C16.6962 10.9606 17.0001 10.1273 17.0001 9.26843C17.0001 8.24974 16.5626 7.2545 15.7681 6.46607Z" fill="white" stroke="white" stroke-width="0.4"/>
<g id="Shape_2">
<path fill-rule="evenodd" clip-rule="evenodd" d="M10.4321 3.28658C11.4929 4.12889 12.0769 5.2542 12.0769 6.45525C12.0769 7.6563 11.4929 8.78162 10.4321 9.62395C9.3894 10.4521 8.00659 10.9081 6.53833 10.9081C6.45801 10.9081 6.3772 10.9067 6.2959 10.9038C6.24414 10.902 6.19238 10.8996 6.14062 10.8966C5.94946 11.3897 5.62061 11.8288 5.19922 12.1486C4.70435 12.5244 4.11426 12.7229 3.49316 12.7229C3.38696 12.7229 3.29077 12.6589 3.24976 12.5607C3.20898 12.4624 3.23096 12.3492 3.30591 12.2736C3.79224 11.7826 4.03638 11.0929 3.97412 10.4039C3.12256 10.0463 2.40039 9.51653 1.87866 8.86507C1.30371 8.14742 1 7.31412 1 6.45525C1 5.2542 1.58398 4.12889 2.64453 3.28658C3.68726 2.45845 5.07007 2.0024 6.53857 2.0024C8.00659 2.0024 9.3894 2.45845 10.4321 3.28658ZM5.70532 10.5425C5.74146 10.4231 5.8562 10.3454 5.98047 10.3562C6.10229 10.3668 6.22461 10.374 6.34619 10.3777C6.41064 10.3796 6.47485 10.3806 6.53857 10.3806C9.30176 10.3806 11.5496 8.61971 11.5496 6.45525C11.5496 4.29077 9.30176 2.52986 6.53857 2.52986C3.77539 2.52986 1.52759 4.29077 1.52759 6.45525C1.52759 7.95453 2.59497 9.30205 4.31299 9.97186C4.40063 10.0061 4.46362 10.0844 4.47778 10.1775C4.58203 10.8544 4.4397 11.5434 4.09204 12.1172C4.85132 11.9144 5.46606 11.3319 5.70532 10.5425Z" fill="white"/>
<path d="M10.4321 3.28658L10.3077 3.44319L10.3078 3.4432L10.4321 3.28658ZM10.4321 9.62395L10.3078 9.46732L10.3077 9.46733L10.4321 9.62395ZM6.2959 10.9038L6.28883 11.1037L6.28885 11.1037L6.2959 10.9038ZM6.14062 10.8966L6.1521 10.6969L6.00677 10.6886L5.95415 10.8243L6.14062 10.8966ZM5.19922 12.1486L5.07831 11.9893L5.07827 11.9893L5.19922 12.1486ZM3.24976 12.5607L3.06503 12.6373L3.06519 12.6377L3.24976 12.5607ZM3.30591 12.2736L3.44793 12.4144L3.44799 12.4143L3.30591 12.2736ZM3.97412 10.4039L4.17331 10.3859L4.16248 10.266L4.05155 10.2195L3.97412 10.4039ZM1.87866 8.86507L2.03477 8.74005L2.03475 8.74002L1.87866 8.86507ZM2.64453 3.28658L2.52015 3.12996L2.52014 3.12996L2.64453 3.28658ZM5.98047 10.3562L5.96305 10.5555L5.96315 10.5555L5.98047 10.3562ZM5.70532 10.5425L5.89672 10.6005L5.89675 10.6004L5.70532 10.5425ZM6.34619 10.3777L6.3523 10.1778L6.35226 10.1778L6.34619 10.3777ZM4.31299 9.97186L4.38574 9.78556L4.38564 9.78552L4.31299 9.97186ZM4.47778 10.1775L4.28006 10.2076L4.28011 10.2079L4.47778 10.1775ZM4.09204 12.1172L3.92098 12.0136L3.66345 12.4387L4.14364 12.3104L4.09204 12.1172ZM12.2769 6.45525C12.2769 5.18488 11.6582 4.00472 10.5565 3.12995L10.3078 3.4432C11.3277 4.25306 11.8769 5.32351 11.8769 6.45525H12.2769ZM10.5565 9.78057C11.6582 8.90579 12.2769 7.72561 12.2769 6.45525H11.8769C11.8769 7.58698 11.3277 8.65745 10.3078 9.46732L10.5565 9.78057ZM6.53833 11.1081C8.04684 11.1081 9.47474 10.6397 10.5565 9.78056L10.3077 9.46733C9.30407 10.2645 7.96635 10.7081 6.53833 10.7081V11.1081ZM6.28885 11.1037C6.37244 11.1066 6.4556 11.1081 6.53833 11.1081V10.7081C6.46041 10.7081 6.38196 10.7067 6.30295 10.7039L6.28885 11.1037ZM6.12915 11.0963C6.18235 11.0993 6.23558 11.1018 6.28883 11.1037L6.30297 10.7039C6.2527 10.7022 6.20241 10.6998 6.1521 10.6969L6.12915 11.0963ZM5.32013 12.3079C5.77133 11.9655 6.12271 11.4962 6.3271 10.9689L5.95415 10.8243C5.77622 11.2833 5.46989 11.6921 5.07831 11.9893L5.32013 12.3079ZM3.49316 12.9229C4.15793 12.9229 4.7905 12.7101 5.32016 12.3079L5.07827 11.9893C4.61819 12.3386 4.07058 12.5229 3.49316 12.5229V12.9229ZM3.06519 12.6377C3.13728 12.8104 3.30625 12.9229 3.49316 12.9229V12.5229C3.46768 12.5229 3.44426 12.5074 3.43432 12.4836L3.06519 12.6377ZM3.16389 12.1327C3.0319 12.2659 2.9935 12.465 3.06503 12.6373L3.43448 12.484C3.42447 12.4599 3.43002 12.4324 3.44793 12.4144L3.16389 12.1327ZM3.77493 10.4219C3.83196 11.053 3.60805 11.6844 3.16382 12.1328L3.44799 12.4143C3.97643 11.8809 4.2408 11.1328 4.17331 10.3859L3.77493 10.4219ZM1.72255 8.99009C2.26736 9.67037 3.01781 10.2192 3.89669 10.5883L4.05155 10.2195C3.22731 9.87338 2.53342 9.36269 2.03477 8.74005L1.72255 8.99009ZM0.8 6.45525C0.8 7.36288 1.12133 8.23965 1.72258 8.99012L2.03475 8.74002C1.48609 8.05518 1.2 7.26535 1.2 6.45525H0.8ZM2.52014 3.12996C1.41873 4.00473 0.8 5.18488 0.8 6.45525H1.2C1.2 5.32351 1.74923 4.25305 2.76892 3.44319L2.52014 3.12996ZM6.53857 1.8024C5.02983 1.8024 3.60192 2.27082 2.52015 3.12996L2.76891 3.44319C3.77259 2.64608 5.11031 2.2024 6.53857 2.2024V1.8024ZM10.5565 3.12996C9.47474 2.27083 8.04684 1.8024 6.53857 1.8024V2.2024C7.96634 2.2024 9.30406 2.64607 10.3077 3.44319L10.5565 3.12996ZM5.99789 10.157C5.77922 10.1379 5.57741 10.2747 5.5139 10.4845L5.89675 10.6004C5.9055 10.5715 5.93318 10.5528 5.96305 10.5555L5.99789 10.157ZM6.35226 10.1778C6.23445 10.1742 6.11589 10.1672 5.99779 10.157L5.96315 10.5555C6.0887 10.5664 6.21477 10.5738 6.34012 10.5776L6.35226 10.1778ZM6.53857 10.1806C6.47689 10.1806 6.41472 10.1797 6.3523 10.1778L6.34009 10.5776C6.40657 10.5796 6.47281 10.5806 6.53857 10.5806V10.1806ZM11.3496 6.45525C11.3496 8.46652 9.23953 10.1806 6.53857 10.1806V10.5806C9.36399 10.5806 11.7496 8.77289 11.7496 6.45525H11.3496ZM6.53857 2.72986C9.23953 2.72986 11.3496 4.44395 11.3496 6.45525H11.7496C11.7496 4.13759 9.36399 2.32986 6.53857 2.32986V2.72986ZM1.72759 6.45525C1.72759 4.44395 3.83762 2.72986 6.53857 2.72986V2.32986C3.71316 2.32986 1.32759 4.13759 1.32759 6.45525H1.72759ZM4.38564 9.78552C2.72216 9.13697 1.72759 7.85057 1.72759 6.45525H1.32759C1.32759 8.05849 2.46778 9.46712 4.24034 10.1582L4.38564 9.78552ZM4.67551 10.1474C4.65053 9.98328 4.53959 9.84564 4.38574 9.78556L4.24024 10.1582C4.26168 10.1665 4.27671 10.1856 4.28006 10.2076L4.67551 10.1474ZM4.2631 12.2208C4.63476 11.6074 4.78695 10.871 4.67545 10.147L4.28011 10.2079C4.37711 10.8378 4.24464 11.4793 3.92098 12.0136L4.2631 12.2208ZM5.51392 10.4845C5.29469 11.2078 4.7327 11.7391 4.04044 11.924L4.14364 12.3104C4.96993 12.0898 5.63744 11.4559 5.89672 10.6005L5.51392 10.4845Z" fill="white"/>
</g>
</g>
</g>
</svg>
