<svg width="18" height="18" viewBox="0 0 18 18" fill="none" xmlns="http://www.w3.org/2000/svg">
<g id="Mobile techno">
<rect id="Rectangle 4 Copy 16" width="18" height="18" fill="#F4F7FB" fill-opacity="0.01"/>
<g id="smarphone-settings">
<path id="Shape" fill-rule="evenodd" clip-rule="evenodd" d="M15.6958 3.99884C15.6958 4.18427 15.5455 4.33453 15.3602 4.33453C15.1748 4.33453 15.0245 4.18427 15.0245 3.99884C15.0245 2.71545 13.9803 1.67133 12.697 1.67133C12.5116 1.67133 12.3613 1.52106 12.3613 1.33569C12.3613 1.15027 12.5116 1 12.697 1C14.3506 1 15.6958 2.34528 15.6958 3.99884ZM7.79517 13.2357C7.79517 13.9399 7.22229 14.5129 6.51807 14.5129C5.81384 14.5129 5.24084 13.9399 5.24084 13.2357C5.24084 12.5315 5.81384 11.9586 6.51807 11.9586C7.22229 11.9587 7.79517 12.5316 7.79517 13.2357ZM6.51807 12.6299C6.85217 12.6299 7.1239 12.9017 7.1239 13.2357C7.1239 13.5698 6.85217 13.8416 6.51807 13.8416C6.18396 13.8416 5.91223 13.5698 5.91223 13.2357C5.91223 12.9017 6.18396 12.6299 6.51807 12.6299ZM9.30542 5.341C9.49084 5.341 9.64111 5.19073 9.64111 5.00537C9.64111 4.81995 9.49084 4.66968 9.30542 4.66968H9.27747C9.09204 4.66968 8.94177 4.81995 8.94177 5.00537C8.94177 5.19073 9.09204 5.341 9.27747 5.341H9.30542ZM9.88635 14.8825C9.94092 14.7579 9.98071 14.6357 10.0021 14.5249C10.0746 14.1495 9.92322 13.9792 9.81238 13.907L9.37793 13.5922C9.39246 13.4744 9.39978 13.3552 9.39978 13.236C9.39978 13.1188 9.3927 13.0016 9.37866 12.8854L9.81238 12.571C9.92334 12.4988 10.0746 12.3285 10.0021 11.9532C9.98413 11.86 9.95312 11.7588 9.91125 11.6548C9.87244 11.5583 9.8241 11.4595 9.76819 11.3625C9.44604 10.8045 9.05554 10.5604 8.7439 10.7199L8.25671 10.9377C8.06653 10.7933 7.86084 10.6743 7.64172 10.5816L7.58691 10.053C7.57019 9.70276 7.16394 9.48621 6.51819 9.48621C5.87402 9.48621 5.46765 9.70215 5.44946 10.0514L5.39441 10.5817C5.17542 10.6743 4.9696 10.7935 4.77954 10.9377L4.29236 10.7201C4.17444 10.6602 3.95129 10.6143 3.66248 10.8647C3.62183 10.9001 3.58093 10.9404 3.54053 10.9847C3.48755 11.0428 3.43555 11.1079 3.38574 11.1783C3.3446 11.2365 3.30505 11.2983 3.26794 11.3627C2.94592 11.9205 2.92969 12.3804 3.22314 12.5707L3.65759 12.8854C3.64343 13.0016 3.63635 13.1188 3.63635 13.236C3.63635 13.3551 3.64368 13.4742 3.6582 13.5921L3.22363 13.907C2.92969 14.0972 2.9458 14.5574 3.26794 15.1155C3.38416 15.3167 3.52429 15.4935 3.6626 15.6134C3.95129 15.8637 4.17432 15.8179 4.29236 15.758L4.78442 15.5381C4.97302 15.6806 5.17688 15.7984 5.3938 15.8902L5.44946 16.4267C5.46753 16.776 5.87402 16.9919 6.51807 16.9919C7.16394 16.9919 7.57019 16.7754 7.58691 16.425L7.64233 15.8902C7.85925 15.7984 8.06311 15.6806 8.25159 15.5381L8.74353 15.758C9.0553 15.9177 9.44592 15.6737 9.76819 15.1155C9.78943 15.0787 9.80957 15.0416 9.82861 15.0045C9.83984 14.9825 9.85059 14.9604 9.86096 14.9385C9.86975 14.9198 9.87817 14.9011 9.88635 14.8825ZM8.81775 12.4627L9.34351 12.0818C9.32812 12.0032 9.28333 11.8654 9.18677 11.6982C9.09033 11.5311 8.99329 11.4233 8.93286 11.3708L8.34143 11.6351C8.22119 11.6888 8.08069 11.6674 7.98206 11.58C7.75867 11.3824 7.50317 11.2344 7.22241 11.1402C7.12305 11.1069 7.04651 11.0298 7.0127 10.9337C7.00403 10.9091 6.99817 10.8833 6.99536 10.8566L6.92871 10.2137C6.85291 10.1877 6.71106 10.1575 6.51819 10.1575C6.3252 10.1575 6.18335 10.1877 6.10754 10.2137L6.04089 10.8566C6.03345 10.9285 6.0033 10.9944 5.95691 11.0461C5.91895 11.0884 5.87012 11.1213 5.81396 11.1402C5.5332 11.2345 5.27759 11.3825 5.0542 11.5801C4.95557 11.6674 4.81506 11.6888 4.69482 11.6352L4.10327 11.3709C4.04285 11.4235 3.94592 11.5312 3.84937 11.6984C3.75293 11.8655 3.70813 12.0034 3.69275 12.082L4.21851 12.4628C4.32471 12.5398 4.37646 12.6718 4.35071 12.8004C4.32214 12.943 4.30774 13.0896 4.30774 13.2361C4.30774 13.3842 4.32251 13.5323 4.35156 13.6764C4.37756 13.8053 4.32593 13.9375 4.21948 14.0146L3.69275 14.3962C3.69751 14.4207 3.7052 14.4509 3.71631 14.4859C3.72449 14.512 3.73474 14.5407 3.74719 14.5717C3.76074 14.6053 3.77686 14.6417 3.79602 14.6804C3.81177 14.7121 3.82947 14.7454 3.84937 14.7799C3.89673 14.8619 3.94421 14.9297 3.98743 14.9836C4.03223 15.0395 4.07251 15.0806 4.10327 15.1073L4.69934 14.841C4.81934 14.7874 4.95947 14.8087 5.05811 14.8956C5.28052 15.0914 5.53455 15.2382 5.81335 15.3318C5.93799 15.3738 6.02673 15.4846 6.04028 15.6154L6.10754 16.2645C6.18335 16.2905 6.3252 16.3207 6.51819 16.3207C6.71106 16.3207 6.85291 16.2906 6.92871 16.2646L6.99597 15.6154C7.00964 15.4846 7.09827 15.3738 7.2229 15.3318C7.50171 15.2382 7.75586 15.0914 7.97815 14.8956C8.01331 14.8646 8.05371 14.842 8.09668 14.8281C8.17407 14.8031 8.25964 14.8066 8.33691 14.8411L8.93298 15.1074C8.95654 15.0869 8.98572 15.0579 9.01831 15.0202C9.06909 14.9615 9.12805 14.8817 9.18689 14.7799C9.28333 14.6129 9.32812 14.475 9.34351 14.3964L8.81677 14.0148C8.75427 13.9695 8.71069 13.9052 8.69067 13.8338C8.67651 13.7835 8.67395 13.7297 8.68469 13.6765C8.71375 13.5326 8.72852 13.3844 8.72852 13.2361C8.72852 13.0897 8.71411 12.9431 8.68555 12.8003C8.65991 12.6716 8.71155 12.5397 8.81775 12.4627ZM5.96033 2.32001H12.6227C13.5969 2.32001 14.3998 3.09888 14.3998 4.07324V14.1942C14.3998 15.1686 13.5969 15.9703 12.6227 15.9703H10.6741C10.4886 15.9703 10.3384 15.8201 10.3384 15.6347C10.3384 15.4493 10.4886 15.299 10.6741 15.299H12.6227C13.2268 15.299 13.7284 14.7984 13.7284 14.1942V13.5834H10.6741C10.4886 13.5834 10.3384 13.4332 10.3384 13.2477C10.3384 13.0624 10.4886 12.9121 10.6741 12.9121H13.7284V5.341H10.783C10.5975 5.341 10.4473 5.19073 10.4473 5.00531C10.4473 4.81995 10.5975 4.66968 10.783 4.66968H13.7284V4.07324C13.7284 3.46912 13.2268 2.99133 12.6227 2.99133H5.96033C5.3562 2.99133 4.85205 3.46906 4.85205 4.07324V4.66968H7.79993C7.98535 4.66968 8.13562 4.81995 8.13562 5.00531C8.13562 5.19073 7.98535 5.341 7.79993 5.341H4.85205V9.53186C4.85205 9.71729 4.70178 9.86755 4.51636 9.86755C4.33093 9.86755 4.18066 9.71729 4.18066 9.53186V4.07324C4.18066 3.09888 4.98596 2.32001 5.96033 2.32001Z" fill="#0C49CD"/>
</g>
</g>
</svg>
