<svg width="18" height="18" viewBox="0 0 18 18" fill="none" xmlns="http://www.w3.org/2000/svg">
<g id="Mobile techno White">
<rect id="Rectangle 4 Copy 16" width="18" height="18" fill="#F4F7FB" fill-opacity="0.01"/>
<g id="smarphone-settings">
<path id="Shape" fill-rule="evenodd" clip-rule="evenodd" d="M15.6958 3.99884C15.6958 4.18427 15.5457 4.33453 15.3601 4.33453C15.1748 4.33453 15.0244 4.18427 15.0244 3.99884C15.0244 2.71545 13.9805 1.67133 12.697 1.67133C12.5115 1.67133 12.3613 1.52106 12.3613 1.33569C12.3613 1.15027 12.5115 1 12.697 1C14.3506 1 15.6958 2.34528 15.6958 3.99884ZM7.79541 13.2357C7.79541 13.9399 7.22241 14.5129 6.51807 14.5129C5.81396 14.5129 5.24097 13.9399 5.24097 13.2357C5.24097 12.5315 5.81396 11.9586 6.51807 11.9586C7.22241 11.9587 7.79541 12.5316 7.79541 13.2357ZM6.51831 12.6299C6.85229 12.6299 7.12402 12.9017 7.12402 13.2357C7.12402 13.5698 6.85229 13.8416 6.51831 13.8416C6.18408 13.8416 5.91235 13.5698 5.91235 13.2357C5.91235 12.9017 6.18408 12.6299 6.51831 12.6299ZM9.30542 5.341C9.49097 5.341 9.64111 5.19073 9.64111 5.00537C9.64111 4.81995 9.49097 4.66968 9.30542 4.66968H9.27759C9.09204 4.66968 8.94189 4.81995 8.94189 5.00537C8.94189 5.19073 9.09204 5.341 9.27759 5.341H9.30542ZM9.76831 15.1155C9.88428 14.9142 9.96753 14.7045 10.0022 14.5249C10.0745 14.1495 9.92334 13.9792 9.8125 13.907L9.37793 13.5922C9.38428 13.5402 9.3894 13.4879 9.39307 13.4354C9.39771 13.3691 9.3999 13.3026 9.3999 13.236C9.3999 13.1188 9.39258 13.0016 9.37866 12.8854L9.8125 12.571C9.8584 12.5411 9.91113 12.4944 9.95215 12.4233C10.01 12.3227 10.0444 12.1732 10.0022 11.9532C9.99438 11.9135 9.98438 11.8724 9.97217 11.8302C9.95654 11.776 9.93726 11.72 9.91479 11.6633C9.87524 11.5641 9.82593 11.4623 9.76831 11.3625C9.44604 10.8045 9.05542 10.5604 8.7439 10.7199L8.25659 10.9377C8.06665 10.7933 7.86084 10.6743 7.64185 10.5816L7.58691 10.053C7.57031 9.70276 7.16406 9.48621 6.51807 9.48621C5.87402 9.48621 5.46753 9.70215 5.44946 10.0514L5.39453 10.5817C5.28174 10.6294 5.17236 10.6841 5.06689 10.7457C4.96753 10.8036 4.87183 10.8677 4.77954 10.9377L4.29248 10.7201C4.17432 10.6602 3.95142 10.6143 3.6626 10.8647C3.60156 10.9175 3.54053 10.9813 3.4812 11.0533C3.40552 11.145 3.33301 11.25 3.26807 11.3627C2.9458 11.9205 2.92969 12.3804 3.22314 12.5707L3.65747 12.8854C3.64355 13.0016 3.63647 13.1188 3.63647 13.236C3.63647 13.2826 3.6377 13.3292 3.63989 13.3757C3.64331 13.4481 3.64941 13.5203 3.6582 13.5921L3.22363 13.907C2.92969 14.0972 2.9458 14.5574 3.26807 15.1155C3.38428 15.3167 3.52441 15.4935 3.6626 15.6134C3.95117 15.8637 4.17432 15.8179 4.29224 15.758L4.78442 15.5381C4.97314 15.6806 5.177 15.7984 5.3938 15.8902L5.44946 16.4267C5.46753 16.776 5.87402 16.9919 6.51807 16.9919C7.16406 16.9919 7.57031 16.7754 7.58691 16.425L7.64233 15.8902C7.75391 15.843 7.86182 15.7889 7.96606 15.7282C8.02295 15.6951 8.07861 15.66 8.1333 15.6229C8.17334 15.5957 8.21289 15.5674 8.25171 15.5381L8.74365 15.758C9.05518 15.9177 9.4458 15.6737 9.76831 15.1155ZM8.81763 12.4627L9.34326 12.0818C9.32788 12.0032 9.2832 11.8654 9.18677 11.6982C9.09033 11.5311 8.99316 11.4233 8.93286 11.3708L8.34131 11.6351C8.29272 11.6569 8.24072 11.6663 8.18945 11.664C8.11401 11.6606 8.04053 11.632 7.98193 11.58C7.75854 11.3824 7.50293 11.2344 7.22217 11.1402C7.09766 11.0983 7.00879 10.9875 6.99536 10.8566L6.92847 10.2137C6.89526 10.2023 6.84937 10.1901 6.79199 10.18C6.71851 10.1671 6.62646 10.1575 6.51807 10.1575C6.32495 10.1575 6.18311 10.1877 6.10742 10.2137L6.04077 10.8566C6.0271 10.9874 5.93848 11.0983 5.81372 11.1402C5.53296 11.2345 5.27734 11.3825 5.05396 11.5801C4.95532 11.6674 4.81494 11.6888 4.69458 11.6352L4.10303 11.3709C4.04272 11.4235 3.9458 11.5312 3.84937 11.6984C3.75269 11.8655 3.70801 12.0034 3.69263 12.082L4.21826 12.4628C4.32471 12.5398 4.37622 12.6718 4.35059 12.8004C4.32202 12.943 4.30762 13.0896 4.30762 13.2361C4.30762 13.3842 4.32227 13.5323 4.35132 13.6764C4.37744 13.8053 4.32593 13.9375 4.21924 14.0146L3.69263 14.3962C3.70801 14.4749 3.75269 14.6128 3.84937 14.7799C3.9458 14.947 4.04272 15.0547 4.10303 15.1073L4.69922 14.841C4.81909 14.7874 4.95947 14.8087 5.05811 14.8956C5.28027 15.0914 5.53442 15.2382 5.81323 15.3318C5.93774 15.3738 6.02661 15.4846 6.04004 15.6154L6.10742 16.2645C6.18311 16.2905 6.32495 16.3207 6.51807 16.3207C6.71094 16.3207 6.85278 16.2906 6.92847 16.2646L6.99585 15.6154C7.00952 15.4846 7.09814 15.3738 7.2229 15.3318C7.50171 15.2382 7.75562 15.0914 7.97803 14.8956C8.07666 14.8087 8.2168 14.7875 8.33691 14.8411L8.93286 15.1074C8.96509 15.0793 9.00781 15.0354 9.05542 14.9752C9.09692 14.9227 9.14185 14.8577 9.18677 14.7799C9.2832 14.6129 9.32812 14.475 9.34351 14.3964L8.81665 14.0148C8.71021 13.9376 8.65845 13.8054 8.68457 13.6765C8.71362 13.5326 8.72827 13.3844 8.72827 13.2361C8.72827 13.0897 8.71387 12.9431 8.68555 12.8003C8.65967 12.6716 8.71143 12.5397 8.81763 12.4627ZM5.96045 2.32001H12.6226C13.5969 2.32001 14.3997 3.09888 14.3997 4.07324V14.1942C14.3997 15.1686 13.5969 15.9703 12.6226 15.9703H10.6741C10.4888 15.9703 10.3384 15.8201 10.3384 15.6347C10.3384 15.4493 10.4888 15.299 10.6741 15.299H12.6226C13.2268 15.299 13.7285 14.7984 13.7285 14.1942V13.5834H10.6741C10.4888 13.5834 10.3384 13.4332 10.3384 13.2477C10.3384 13.0624 10.4888 12.9121 10.6741 12.9121H13.7285V5.341H10.783C10.5977 5.341 10.4473 5.19073 10.4473 5.00531C10.4473 4.89111 10.5042 4.79022 10.5913 4.72961C10.6458 4.69183 10.7119 4.66968 10.783 4.66968H13.7285V4.07324C13.7285 3.46912 13.2268 2.99133 12.6226 2.99133H5.96045C5.3562 2.99133 4.85205 3.46906 4.85205 4.07324V4.66968H7.80005C7.98535 4.66968 8.13574 4.81995 8.13574 5.00531C8.13574 5.19073 7.98535 5.341 7.80005 5.341H4.85205V9.53186C4.85205 9.71729 4.70166 9.86755 4.51636 9.86755C4.33081 9.86755 4.18066 9.71729 4.18066 9.53186V4.07324C4.18066 3.09888 4.98608 2.32001 5.96045 2.32001Z" fill="white"/>
</g>
</g>
</svg>
