<svg width="18" height="18" viewBox="0 0 18 18" fill="none" xmlns="http://www.w3.org/2000/svg">
<g id="Money White">
<rect id="Rectangle 4 Copy 31" width="18" height="18" fill="#F4F7FB" fill-opacity="0.01"/>
<g id="money">
<path id="Shape" d="M13.9747 12.6027C13.8022 12.6027 13.6631 12.7415 13.6631 12.9143C13.6631 13.1126 13.8439 13.2585 14.037 13.2195C14.1814 13.1904 14.2862 13.0638 14.2862 12.9143C14.2862 12.7418 14.1474 12.6027 13.9747 12.6027Z" fill="white" stroke="white" stroke-width="0.2"/>
<path id="Shape_2" d="M12.8465 5.34779C12.674 5.34779 12.5349 5.48674 12.5349 5.65937C12.5349 5.83416 12.6772 5.97376 12.8518 5.97083C13.0233 5.96796 13.1581 5.82892 13.1581 5.65937C13.1581 5.4869 13.0191 5.34779 12.8465 5.34779Z" fill="white" stroke="white" stroke-width="0.2"/>
<path id="Shape_3" d="M3.9942 12.6027C3.82172 12.6027 3.68262 12.7415 3.68262 12.9143C3.68262 13.0869 3.82153 13.2257 3.9942 13.2257C4.16683 13.2257 4.30578 13.0869 4.30578 12.9143C4.30578 12.7418 4.16692 12.6027 3.9942 12.6027Z" fill="white" stroke="white" stroke-width="0.2"/>
<g id="Shape_4">
<path fill-rule="evenodd" clip-rule="evenodd" d="M9.29639 12.642V11.439C9.49316 11.5534 9.60815 11.7578 9.60815 11.9786C9.60815 12.1508 9.7478 12.2905 9.92017 12.2905C10.0923 12.2905 10.2319 12.1508 10.2319 11.9786C10.2319 11.3829 9.81958 10.9046 9.29639 10.7703V10.4191C9.29639 10.2469 9.15674 10.1072 8.98438 10.1072C8.81201 10.1072 8.67261 10.2469 8.67261 10.4191V10.7703C8.14917 10.9046 7.73682 11.3829 7.73682 11.9786C7.73682 12.5743 8.14917 13.0526 8.67261 13.1868V14.3901C8.47144 14.2735 8.3606 14.0668 8.3606 13.8502C8.3606 13.678 8.22095 13.5383 8.04883 13.5383C7.87646 13.5383 7.73682 13.678 7.73682 13.8502C7.73682 14.4441 8.14673 14.9239 8.67261 15.0586V15.4094C8.67261 15.5816 8.81201 15.7213 8.98438 15.7213C9.15674 15.7213 9.29639 15.5816 9.29639 15.4094V15.0586C9.82251 14.9239 10.2319 14.4439 10.2319 13.8502C10.2319 13.2546 9.81958 12.7762 9.29639 12.642ZM8.67261 12.5182C8.47559 12.4038 8.3606 12.1994 8.3606 11.9786C8.3606 11.7579 8.47534 11.5535 8.67261 11.439V12.5182ZM9.29639 13.3106V14.39C9.49731 14.2736 9.6084 14.067 9.6084 13.8502C9.6084 13.6294 9.49341 13.425 9.29639 13.3106Z" fill="white"/>
<path d="M9.29639 11.439L9.34665 11.3525L9.19639 11.2652V11.439H9.29639ZM9.29639 12.642H9.19639V12.7196L9.27154 12.7388L9.29639 12.642ZM9.29639 10.7703H9.19639V10.8479L9.27154 10.8672L9.29639 10.7703ZM8.67261 10.7703L8.69745 10.8672L8.77261 10.8479V10.7703H8.67261ZM8.67261 13.1868H8.77261V13.1093L8.69745 13.09L8.67261 13.1868ZM8.67261 14.3901L8.62249 14.4766L8.77261 14.5635V14.3901H8.67261ZM8.67261 15.0586H8.77261V14.981L8.69742 14.9617L8.67261 15.0586ZM9.29639 15.0586L9.27158 14.9617L9.19639 14.981V15.0586H9.29639ZM8.67261 12.5182L8.62239 12.6047L8.77261 12.6919V12.5182H8.67261ZM8.67261 11.439H8.77261V11.2653L8.62242 11.3525L8.67261 11.439ZM9.29639 14.39H9.19639V14.5635L9.34651 14.4766L9.29639 14.39ZM9.29639 13.3106L9.34659 13.2242L9.19639 13.137V13.3106H9.29639ZM9.19639 11.439V12.642H9.39639V11.439H9.19639ZM9.70815 11.9786C9.70815 11.7223 9.57439 11.4849 9.34665 11.3525L9.24612 11.5254C9.41194 11.6218 9.50815 11.7932 9.50815 11.9786H9.70815ZM9.92017 12.1905C9.80301 12.1905 9.70815 12.0956 9.70815 11.9786H9.50815C9.50815 12.2061 9.6926 12.3905 9.92017 12.3905V12.1905ZM10.1319 11.9786C10.1319 12.0956 10.037 12.1905 9.92017 12.1905V12.3905C10.1475 12.3905 10.3319 12.2061 10.3319 11.9786H10.1319ZM9.27154 10.8672C9.75288 10.9907 10.1319 11.4309 10.1319 11.9786H10.3319C10.3319 11.3348 9.88628 10.8184 9.32124 10.6735L9.27154 10.8672ZM9.19639 10.4191V10.7703H9.39639V10.4191H9.19639ZM8.98438 10.2072C9.10154 10.2072 9.19639 10.3021 9.19639 10.4191H9.39639C9.39639 10.1916 9.21194 10.0072 8.98438 10.0072V10.2072ZM8.77261 10.4191C8.77261 10.302 8.86731 10.2072 8.98438 10.2072V10.0072C8.75671 10.0072 8.57261 10.1917 8.57261 10.4191H8.77261ZM8.77261 10.7703V10.4191H8.57261V10.7703H8.77261ZM7.83682 11.9786C7.83682 11.431 8.21586 10.9907 8.69745 10.8672L8.64777 10.6735C8.08248 10.8184 7.63682 11.3349 7.63682 11.9786H7.83682ZM8.69745 13.09C8.21586 12.9665 7.83682 12.5262 7.83682 11.9786H7.63682C7.63682 12.6224 8.08248 13.1387 8.64777 13.2837L8.69745 13.09ZM8.77261 14.3901V13.1868H8.57261V14.3901H8.77261ZM8.2606 13.8502C8.2606 14.1013 8.38944 14.3416 8.62249 14.4766L8.72273 14.3035C8.55343 14.2055 8.4606 14.0323 8.4606 13.8502H8.2606ZM8.04883 13.6383C8.1657 13.6383 8.2606 13.7332 8.2606 13.8502H8.4606C8.4606 13.6228 8.2762 13.4383 8.04883 13.4383V13.6383ZM7.83682 13.8502C7.83682 13.7332 7.93166 13.6383 8.04883 13.6383V13.4383C7.82127 13.4383 7.63682 13.6227 7.63682 13.8502H7.83682ZM8.69742 14.9617C8.21365 14.8378 7.83682 14.3962 7.83682 13.8502H7.63682C7.63682 14.4919 8.07981 15.01 8.6478 15.1555L8.69742 14.9617ZM8.77261 15.4094V15.0586H8.57261V15.4094H8.77261ZM8.98438 15.6213C8.86731 15.6213 8.77261 15.5265 8.77261 15.4094H8.57261C8.57261 15.6368 8.75671 15.8213 8.98438 15.8213V15.6213ZM9.19639 15.4094C9.19639 15.5264 9.10154 15.6213 8.98438 15.6213V15.8213C9.21194 15.8213 9.39639 15.6369 9.39639 15.4094H9.19639ZM9.19639 15.0586V15.4094H9.39639V15.0586H9.19639ZM10.1319 13.8502C10.1319 14.3961 9.75554 14.8378 9.27158 14.9617L9.3212 15.1555C9.88948 15.0099 10.3319 14.4917 10.3319 13.8502H10.1319ZM9.27154 12.7388C9.75288 12.8623 10.1319 13.3026 10.1319 13.8502H10.3319C10.3319 13.2065 9.88628 12.6901 9.32124 12.5451L9.27154 12.7388ZM8.2606 11.9786C8.2606 12.2348 8.39438 12.4723 8.62239 12.6047L8.72282 12.4317C8.55679 12.3353 8.4606 12.164 8.4606 11.9786H8.2606ZM8.62242 11.3525C8.39409 11.485 8.2606 11.7225 8.2606 11.9786H8.4606C8.4606 11.7933 8.5566 11.6219 8.7228 11.5255L8.62242 11.3525ZM8.77261 12.5182V11.439H8.57261V12.5182H8.77261ZM9.39639 14.39V13.3106H9.19639V14.39H9.39639ZM9.5084 13.8502C9.5084 14.0324 9.41536 14.2055 9.24626 14.3035L9.34651 14.4766C9.57927 14.3417 9.7084 14.1015 9.7084 13.8502H9.5084ZM9.24618 13.3971C9.4122 13.4935 9.5084 13.6648 9.5084 13.8502H9.7084C9.7084 13.594 9.57462 13.3565 9.34659 13.2242L9.24618 13.3971Z" fill="white"/>
</g>
<g id="Shape_5">
<path fill-rule="evenodd" clip-rule="evenodd" d="M14.9089 8.85968H16.657C16.8291 8.85968 16.9688 8.99933 16.9688 9.17159V16.657C16.9688 16.8292 16.8291 16.9688 16.657 16.9688H1.31201C1.13965 16.9688 1 16.8292 1 16.657V9.17159C1 9.11386 1.0166 9.05617 1.04761 9.00623C1.06836 8.97282 1.0957 8.9429 1.12915 8.91876L12.0071 1.05911C12.1453 0.959213 12.3381 0.988907 12.4399 1.12576L16.9072 7.13219C16.9231 7.1535 16.936 7.17657 16.9458 7.20076C16.9524 7.21727 16.9578 7.23431 16.9617 7.25169L16.9656 7.27231C16.9668 7.28065 16.9678 7.28906 16.9683 7.29752C16.97 7.32205 16.9685 7.34689 16.9641 7.37154C16.9497 7.45578 16.9011 7.53032 16.8301 7.57776L14.9089 8.85968ZM16.3452 10.6997V9.48347H15.1289C15.2532 10.0936 15.7349 10.5753 16.3452 10.6997ZM16.2109 7.24104L15.2126 7.90718C14.9868 7.3566 15.0969 6.72165 15.4949 6.27814L16.2109 7.24104ZM12.8516 2.72432L12.123 1.74489L11.1338 2.45969C11.3623 2.67084 11.6484 2.80865 11.9631 2.85484C12.2703 2.89998 12.5769 2.85376 12.8516 2.72432ZM10.6211 2.83012C10.9543 3.17586 11.3894 3.40111 11.8723 3.47203C12.3452 3.54146 12.8169 3.45662 13.2295 3.23218L15.1169 5.77019C14.4592 6.42267 14.2861 7.42381 14.6863 8.25833L13.7852 8.8597H12.1655C12.1528 8.04036 11.8901 7.23651 11.4111 6.5657C10.782 5.68439 9.84692 5.101 8.77856 4.92294C8.4458 4.86749 8.11279 4.85345 7.78491 4.87941L10.6211 2.83012ZM8.67603 5.53815C7.77222 5.38747 6.86353 5.59787 6.11792 6.13049C5.22339 6.76918 4.69995 7.77365 4.6814 8.85963H6.61621L6.6001 8.84111L6.57861 8.81564C6.56812 8.80275 6.55762 8.78958 6.54761 8.77605C6.19238 8.29881 6.23657 7.66924 6.57715 7.24803L6.36768 6.96611C6.26489 6.82791 6.29346 6.63251 6.43164 6.52971C6.56982 6.42694 6.76538 6.45561 6.86816 6.59381L7.07764 6.87572C7.58765 6.66695 8.2002 6.81674 8.54956 7.28702C8.65234 7.42531 8.62354 7.62067 8.48511 7.72337C8.34692 7.82611 8.15161 7.7973 8.04883 7.65901C7.91699 7.48148 7.70239 7.38626 7.47656 7.41217L8.55322 8.8597H11.5417C11.5291 8.16982 11.3071 7.4933 10.9036 6.92812C10.3711 6.18245 9.58008 5.68883 8.67603 5.53815ZM7.62012 8.65033C7.40625 8.67459 7.1853 8.58832 7.0481 8.40364C6.9165 8.22693 6.88599 7.99463 6.97632 7.78461L7.62012 8.65033ZM4.05762 8.85968C4.06519 8.33044 4.17407 7.81747 4.37354 7.34415L2.27612 8.85968H4.05762ZM1.62378 9.48035H2.84009C2.71558 10.0905 2.23389 10.5753 1.62378 10.6996V9.48035ZM1.62378 15.1289V16.3451H2.84009C2.71558 15.7349 2.23389 15.2532 1.62378 15.1289ZM3.47241 16.3451C3.33521 15.3904 2.57837 14.6335 1.62378 14.4963V11.3322C2.57837 11.195 3.33521 10.435 3.47241 9.48035H6.82788C5.68579 10.2029 4.96338 11.4471 4.93677 12.8356C4.9082 14.3108 5.66675 15.6104 6.82764 16.3451H3.47241ZM5.56055 12.8476C5.52393 14.7438 7.02856 16.3073 8.92432 16.3439C8.94824 16.3445 8.97021 16.3445 8.99194 16.3445C10.8469 16.3445 12.385 14.8353 12.4207 12.9803C12.4573 11.0843 10.9524 9.52065 9.05664 9.48404L8.99561 9.48347H8.98926C7.13428 9.48347 5.59619 10.9926 5.56055 12.8476ZM14.4963 16.345H11.1523C12.2903 15.6254 13.0173 14.3863 13.0442 12.9923C13.0728 11.5203 12.3171 10.2199 11.1541 9.48344L14.4963 9.48347C14.6335 10.4381 15.3904 11.195 16.345 11.3322V14.4963C15.3904 14.6335 14.6335 15.3904 14.4963 16.345ZM15.1289 16.3451H16.3452V15.1289C15.7349 15.2532 15.2532 15.7349 15.1289 16.3451Z" fill="white"/>
<path d="M14.9089 8.85968L14.8534 8.7765L14.5789 8.95968H14.9089V8.85968ZM1.04761 9.00623L0.962666 8.95345L0.962649 8.95348L1.04761 9.00623ZM1.12915 8.91876L1.18767 8.99985L1.18772 8.99982L1.12915 8.91876ZM12.0071 1.05911L12.0656 1.14017L12.0657 1.14015L12.0071 1.05911ZM12.4399 1.12576L12.5202 1.06608L12.5202 1.06608L12.4399 1.12576ZM16.9072 7.13219L16.827 7.19187L16.827 7.1919L16.9072 7.13219ZM16.9458 7.20076L17.0387 7.16368L17.0385 7.16332L16.9458 7.20076ZM16.9617 7.25169L17.06 7.23307L17.0592 7.22976L16.9617 7.25169ZM16.9656 7.27231L17.0646 7.25782L17.0638 7.25369L16.9656 7.27231ZM16.9683 7.29752L16.8684 7.30328L16.8685 7.30446L16.9683 7.29752ZM16.9641 7.37154L16.8657 7.35398L16.8655 7.35468L16.9641 7.37154ZM16.8301 7.57776L16.8856 7.66094L16.8856 7.66092L16.8301 7.57776ZM16.3452 9.48347H16.4452V9.38347H16.3452V9.48347ZM16.3452 10.6997L16.3253 10.7976L16.4452 10.8221V10.6997H16.3452ZM15.1289 9.48347V9.38347H15.0065L15.0309 9.50343L15.1289 9.48347ZM15.2126 7.90718L15.1201 7.94513L15.1665 8.05819L15.2682 7.99036L15.2126 7.90718ZM16.2109 7.24104L16.2664 7.32422L16.354 7.26581L16.2912 7.18137L16.2109 7.24104ZM15.4949 6.27814L15.5751 6.21846L15.5021 6.12031L15.4204 6.21135L15.4949 6.27814ZM12.123 1.74489L12.2033 1.68521L12.1444 1.60607L12.0645 1.66383L12.123 1.74489ZM12.8516 2.72432L12.8942 2.81478L13.0047 2.76268L12.9318 2.66464L12.8516 2.72432ZM11.1338 2.45969L11.0752 2.37863L10.9762 2.4502L11.0659 2.53313L11.1338 2.45969ZM11.9631 2.85484L11.9777 2.75591L11.9777 2.7559L11.9631 2.85484ZM11.8723 3.47203L11.8578 3.57097L11.8578 3.57097L11.8723 3.47203ZM10.6211 2.83012L10.6931 2.76072L10.6329 2.69824L10.5625 2.74907L10.6211 2.83012ZM13.2295 3.23218L13.3097 3.1725L13.2579 3.10286L13.1817 3.14433L13.2295 3.23218ZM15.1169 5.77019L15.1874 5.84118L15.2489 5.7801L15.1972 5.71051L15.1169 5.77019ZM14.6863 8.25833L14.7418 8.34151L14.814 8.29334L14.7764 8.2151L14.6863 8.25833ZM13.7852 8.8597V8.9597H13.8155L13.8407 8.94287L13.7852 8.8597ZM12.1655 8.8597L12.0655 8.86124L12.0671 8.9597H12.1655V8.8597ZM11.4111 6.5657L11.3297 6.62381L11.3298 6.62382L11.4111 6.5657ZM8.77856 4.92294L8.795 4.8243L8.795 4.8243L8.77856 4.92294ZM7.78491 4.87941L7.72635 4.79835L7.43725 5.00724L7.7928 4.9791L7.78491 4.87941ZM6.11792 6.13049L6.17603 6.21188L6.17605 6.21186L6.11792 6.13049ZM8.67603 5.53815L8.65958 5.63679L8.65958 5.63679L8.67603 5.53815ZM4.6814 8.85963L4.58141 8.85793L4.57967 8.95963H4.6814V8.85963ZM6.61621 8.85963V8.95963H6.83573L6.69166 8.794L6.61621 8.85963ZM6.6001 8.84111L6.52365 8.9056L6.52465 8.90674L6.6001 8.84111ZM6.57861 8.81564L6.50105 8.87879L6.50218 8.88012L6.57861 8.81564ZM6.54761 8.77605L6.62801 8.71658L6.62782 8.71634L6.54761 8.77605ZM6.57715 7.24803L6.65491 7.31091L6.70365 7.25062L6.65742 7.18839L6.57715 7.24803ZM6.36768 6.96611L6.44794 6.90647L6.44792 6.90643L6.36768 6.96611ZM6.43164 6.52971L6.37196 6.44947L6.37195 6.44948L6.43164 6.52971ZM6.86816 6.59381L6.94843 6.53417L6.9484 6.53413L6.86816 6.59381ZM7.07764 6.87572L6.99737 6.93536L7.04367 6.99767L7.11552 6.96826L7.07764 6.87572ZM8.54956 7.28702L8.46929 7.34665L8.4693 7.34667L8.54956 7.28702ZM8.48511 7.72337L8.42552 7.64306L8.42544 7.64312L8.48511 7.72337ZM8.04883 7.65901L7.96854 7.71863L7.96857 7.71866L8.04883 7.65901ZM7.47656 7.41217L7.46516 7.31282L7.29275 7.3326L7.39632 7.47185L7.47656 7.41217ZM8.55322 8.8597L8.47298 8.91938L8.50297 8.9597H8.55322V8.8597ZM11.5417 8.8597V8.9597H11.6436L11.6417 8.85786L11.5417 8.8597ZM10.9036 6.92812L10.9849 6.87001L10.9849 6.87L10.9036 6.92812ZM7.0481 8.40364L7.12837 8.344L7.1283 8.34391L7.0481 8.40364ZM7.62012 8.65033L7.63139 8.74969L7.80406 8.7301L7.70036 8.59066L7.62012 8.65033ZM6.97632 7.78461L7.05656 7.72493L6.95302 7.58569L6.88446 7.7451L6.97632 7.78461ZM4.37354 7.34415L4.46569 7.38298L4.60431 7.05402L4.31497 7.26309L4.37354 7.34415ZM4.05762 8.85968V8.95968H4.1562L4.15761 8.86111L4.05762 8.85968ZM2.27612 8.85968L2.21756 8.77863L1.96699 8.95968H2.27612V8.85968ZM2.84009 9.48035L2.93807 9.50034L2.96256 9.38035H2.84009V9.48035ZM1.62378 9.48035V9.38035H1.52378V9.48035H1.62378ZM1.62378 10.6996H1.52378V10.8221L1.64375 10.7976L1.62378 10.6996ZM1.62378 16.3451H1.52378V16.4451H1.62378V16.3451ZM1.62378 15.1289L1.64375 15.0309L1.52378 15.0064V15.1289H1.62378ZM2.84009 16.3451V16.4451H2.96256L2.93807 16.3251L2.84009 16.3451ZM1.62378 14.4963H1.52378V14.583L1.60955 14.5953L1.62378 14.4963ZM3.47241 16.3451L3.37343 16.3593L3.38576 16.4451H3.47241V16.3451ZM1.62378 11.3322L1.60955 11.2332L1.52378 11.2455V11.3322H1.62378ZM3.47241 9.48035V9.38035H3.38576L3.37343 9.46612L3.47241 9.48035ZM6.82788 9.48035L6.88135 9.56485L7.17297 9.38035H6.82788V9.48035ZM4.93677 12.8356L5.03675 12.8375L5.03675 12.8375L4.93677 12.8356ZM6.82764 16.3451V16.4451H7.17264L6.88111 16.2606L6.82764 16.3451ZM8.92432 16.3439L8.9268 16.2439L8.92625 16.2439L8.92432 16.3439ZM5.56055 12.8476L5.66053 12.8495V12.8495L5.56055 12.8476ZM8.99194 16.3445V16.2445L8.99166 16.2445L8.99194 16.3445ZM12.4207 12.9803L12.3207 12.9784V12.9784L12.4207 12.9803ZM9.05664 9.48404L9.05857 9.38405L9.05757 9.38404L9.05664 9.48404ZM8.99561 9.48347L8.99653 9.38347H8.99561V9.48347ZM11.1523 16.345L11.0989 16.2605L10.8071 16.445H11.1523V16.345ZM14.4963 16.345V16.445H14.583L14.5953 16.3593L14.4963 16.345ZM13.0442 12.9923L12.9442 12.9904V12.9904L13.0442 12.9923ZM11.1541 9.48344L11.1541 9.38344L10.8092 9.38344L11.1006 9.56793L11.1541 9.48344ZM14.4963 9.48347L14.5953 9.46925L14.583 9.38348L14.4963 9.38347L14.4963 9.48347ZM16.345 11.3322H16.445V11.2455L16.3592 11.2332L16.345 11.3322ZM16.345 14.4963L16.3592 14.5953L16.445 14.583V14.4963H16.345ZM16.3452 16.3451V16.4451H16.4452V16.3451H16.3452ZM15.1289 16.3451L15.0309 16.3251L15.0065 16.4451H15.1289V16.3451ZM16.3452 15.1289H16.4452V15.0064L16.3253 15.0309L16.3452 15.1289ZM16.657 8.75968H14.9089V8.95968H16.657V8.75968ZM17.0688 9.17159C17.0688 8.94413 16.8844 8.75968 16.657 8.75968V8.95968C16.7738 8.95968 16.8687 9.05453 16.8687 9.17159H17.0688ZM17.0688 16.657V9.17159H16.8687V16.657H17.0688ZM16.657 17.0688C16.8844 17.0688 17.0688 16.8844 17.0688 16.657H16.8687C16.8687 16.774 16.7739 16.8688 16.657 16.8688V17.0688ZM1.31201 17.0688H16.657V16.8688H1.31201V17.0688ZM0.9 16.657C0.9 16.8845 1.08445 17.0688 1.31201 17.0688V16.8688C1.19485 16.8688 1.1 16.774 1.1 16.657H0.9ZM0.9 9.17159V16.657H1.1V9.17159H0.9ZM0.962649 8.95348C0.921994 9.01896 0.9 9.09488 0.9 9.17159H1.1C1.1 9.13284 1.11121 9.09337 1.13257 9.05897L0.962649 8.95348ZM1.07063 8.83767C1.02629 8.86967 0.990084 8.90932 0.962666 8.95345L1.13255 9.059C1.14664 9.03633 1.16511 9.01613 1.18767 8.99985L1.07063 8.83767ZM11.9485 0.978057L1.07058 8.83771L1.18772 8.99982L12.0656 1.14017L11.9485 0.978057ZM12.5202 1.06608C12.3857 0.885356 12.131 0.846112 11.9485 0.978072L12.0657 1.14015C12.1595 1.07231 12.2905 1.09246 12.3597 1.18545L12.5202 1.06608ZM16.9875 7.07251L12.5202 1.06608L12.3597 1.18544L16.827 7.19187L16.9875 7.07251ZM17.0385 7.16332C17.0255 7.13118 17.0084 7.10062 16.9874 7.07247L16.827 7.1919C16.8378 7.20638 16.8465 7.22197 16.8531 7.2382L17.0385 7.16332ZM17.0592 7.22976C17.0541 7.20691 17.0471 7.18481 17.0387 7.16368L16.8529 7.23784C16.8577 7.24973 16.8614 7.26171 16.8641 7.27362L17.0592 7.22976ZM17.0638 7.25369L17.0599 7.23308L16.8634 7.27031L16.8673 7.29093L17.0638 7.25369ZM17.0681 7.29175C17.0674 7.27952 17.066 7.26806 17.0645 7.25784L16.8666 7.28678C16.8676 7.29325 16.8682 7.29861 16.8684 7.30328L17.0681 7.29175ZM17.0626 7.38909C17.0683 7.3568 17.0703 7.32373 17.068 7.29057L16.8685 7.30446C16.8696 7.32038 16.8687 7.33698 16.8657 7.35398L17.0626 7.38909ZM16.8856 7.66092C16.9794 7.59831 17.0436 7.49985 17.0627 7.38839L16.8655 7.35468C16.8558 7.41171 16.8229 7.46233 16.7745 7.4946L16.8856 7.66092ZM14.9644 8.94286L16.8856 7.66094L16.7746 7.49458L14.8534 8.7765L14.9644 8.94286ZM16.2452 9.48347V10.6997H16.4452V9.48347H16.2452ZM15.1289 9.58348H16.3452V9.38347H15.1289V9.58348ZM16.3652 10.6017C15.7941 10.4853 15.3432 10.0344 15.2269 9.46352L15.0309 9.50343C15.1632 10.1529 15.6756 10.6653 16.3253 10.7976L16.3652 10.6017ZM15.2682 7.99036L16.2664 7.32422L16.1554 7.15786L15.1571 7.824L15.2682 7.99036ZM15.4204 6.21135C14.9969 6.68335 14.8797 7.35897 15.1201 7.94513L15.3052 7.86923C15.0939 7.35422 15.1969 6.75995 15.5693 6.34492L15.4204 6.21135ZM16.2912 7.18137L15.5751 6.21846L15.4146 6.33781L16.1307 7.30072L16.2912 7.18137ZM12.0428 1.80457L12.7713 2.784L12.9318 2.66464L12.2033 1.68521L12.0428 1.80457ZM11.1924 2.54074L12.1816 1.82594L12.0645 1.66383L11.0752 2.37863L11.1924 2.54074ZM11.9777 2.7559C11.6829 2.71264 11.4154 2.5837 11.2017 2.38624L11.0659 2.53313C11.3093 2.75797 11.614 2.90467 11.9486 2.95378L11.9777 2.7559ZM12.8089 2.63386C12.5521 2.75489 12.2654 2.79819 11.9777 2.75591L11.9486 2.95378C12.2751 3.00177 12.6017 2.95263 12.8942 2.81478L12.8089 2.63386ZM11.8868 3.37309C11.4259 3.30539 11.011 3.09054 10.6931 2.76072L10.5491 2.89952C10.8977 3.26117 11.353 3.49683 11.8578 3.57097L11.8868 3.37309ZM13.1817 3.14433C12.7882 3.35839 12.3384 3.43938 11.8868 3.37309L11.8578 3.57097C12.352 3.64353 12.8456 3.55484 13.2773 3.32002L13.1817 3.14433ZM15.1972 5.71051L13.3097 3.1725L13.1492 3.29185L15.0367 5.82986L15.1972 5.71051ZM14.7764 8.2151C14.3947 7.419 14.5599 6.46369 15.1874 5.84118L15.0465 5.69919C14.3586 6.38164 14.1775 7.42862 14.5961 8.30157L14.7764 8.2151ZM13.8407 8.94287L14.7418 8.34151L14.6308 8.17515L13.7296 8.77652L13.8407 8.94287ZM12.1655 8.9597H13.7852V8.7597H12.1655V8.9597ZM11.3298 6.62382C11.7969 7.27803 12.0532 8.06214 12.0655 8.86124L12.2655 8.85815C12.2525 8.01858 11.9834 7.19499 11.4925 6.50759L11.3298 6.62382ZM8.76213 5.02158C9.80433 5.19528 10.716 5.7641 11.3297 6.62381L11.4925 6.5076C10.8479 5.60468 9.88952 5.00672 8.795 4.8243L8.76213 5.02158ZM7.7928 4.9791C8.11252 4.95379 8.43736 4.96746 8.76213 5.02158L8.795 4.8243C8.45424 4.76752 8.11306 4.75312 7.77702 4.77972L7.7928 4.9791ZM10.5625 2.74907L7.72635 4.79835L7.84348 4.96046L10.6797 2.91118L10.5625 2.74907ZM6.17605 6.21186C6.90007 5.69466 7.78194 5.49047 8.65958 5.63679L8.69247 5.43951C7.7625 5.28447 6.82698 5.50108 6.05979 6.04912L6.17605 6.21186ZM4.78138 8.86134C4.7994 7.80698 5.30736 6.8321 6.17603 6.21188L6.05981 6.04911C5.13942 6.70626 4.60051 7.74032 4.58141 8.85793L4.78138 8.86134ZM6.61621 8.75963H4.6814V8.95963H6.61621V8.75963ZM6.52465 8.90674L6.54076 8.92526L6.69166 8.794L6.67555 8.77548L6.52465 8.90674ZM6.50218 8.88012L6.52366 8.90559L6.67653 8.77663L6.65505 8.75116L6.50218 8.88012ZM6.46721 8.83551C6.47858 8.85089 6.49021 8.86544 6.50107 8.87878L6.65616 8.7525C6.64602 8.74006 6.63666 8.72828 6.62801 8.71658L6.46721 8.83551ZM6.49939 7.18516C6.13161 7.64 6.08349 8.32 6.46739 8.83576L6.62782 8.71634C6.30128 8.27763 6.34153 7.69847 6.65491 7.31091L6.49939 7.18516ZM6.28741 7.02575L6.49688 7.30767L6.65742 7.18839L6.44794 6.90647L6.28741 7.02575ZM6.37195 6.44948C6.1894 6.58529 6.15174 6.84334 6.28744 7.02579L6.44792 6.90643C6.37804 6.81248 6.39752 6.67973 6.49133 6.60994L6.37195 6.44948ZM6.9484 6.53413C6.81264 6.35159 6.55443 6.31376 6.37196 6.44947L6.49132 6.60995C6.58521 6.54012 6.71812 6.55963 6.78792 6.65349L6.9484 6.53413ZM7.1579 6.81607L6.94843 6.53417L6.7879 6.65345L6.99737 6.93536L7.1579 6.81607ZM8.62983 7.22738C8.25235 6.71926 7.59067 6.55765 7.03975 6.78317L7.11552 6.96826C7.58462 6.77624 8.14804 6.91422 8.46929 7.34665L8.62983 7.22738ZM8.54469 7.80368C8.72751 7.66804 8.76556 7.41 8.62982 7.22737L8.4693 7.34667C8.53913 7.44062 8.51956 7.57329 8.42552 7.64306L8.54469 7.80368ZM7.96857 7.71866C8.10427 7.90124 8.36222 7.93935 8.54477 7.80362L8.42544 7.64312C8.33163 7.71287 8.19896 7.69336 8.12909 7.59936L7.96857 7.71866ZM7.48796 7.51152C7.67815 7.4897 7.85788 7.56961 7.96854 7.71863L8.12911 7.59939C7.9761 7.39334 7.72663 7.28282 7.46516 7.31282L7.48796 7.51152ZM8.63346 8.80001L7.5568 7.35249L7.39632 7.47185L8.47298 8.91938L8.63346 8.80001ZM11.5417 8.7597H8.55322V8.9597H11.5417V8.7597ZM10.8222 6.98623C11.2139 7.53489 11.4294 8.19176 11.4418 8.86154L11.6417 8.85786C11.6287 8.14787 11.4003 7.45172 10.9849 6.87001L10.8222 6.98623ZM8.65958 5.63679C9.53748 5.78311 10.3051 6.26215 10.8222 6.98623L10.9849 6.87C10.4371 6.10275 9.62268 5.59455 8.69247 5.43951L8.65958 5.63679ZM6.96782 8.46328C7.12737 8.67802 7.38395 8.77776 7.63139 8.74969L7.60885 8.55097C7.42855 8.57142 7.24324 8.49862 7.12837 8.344L6.96782 8.46328ZM6.88446 7.7451C6.77986 7.98828 6.81522 8.25835 6.96789 8.46337L7.1283 8.34391C7.01778 8.1955 6.99211 8.00098 7.06818 7.82412L6.88446 7.7451ZM7.70036 8.59066L7.05656 7.72493L6.89607 7.84428L7.53987 8.71L7.70036 8.59066ZM4.28138 7.30531C4.07692 7.7905 3.96538 8.31618 3.95763 8.85825L4.15761 8.86111C4.16499 8.34471 4.27122 7.84444 4.46569 7.38298L4.28138 7.30531ZM2.33469 8.94073L4.4321 7.4252L4.31497 7.26309L2.21756 8.77863L2.33469 8.94073ZM4.05762 8.75968H2.27612V8.95968H4.05762V8.75968ZM2.84009 9.38035H1.62378V9.58035H2.84009V9.38035ZM1.64375 10.7976C2.29345 10.6652 2.8056 10.1494 2.93807 9.50034L2.74211 9.46035C2.62555 10.0315 2.17433 10.4854 1.60381 10.6017L1.64375 10.7976ZM1.52378 9.48035V10.6996H1.72378V9.48035H1.52378ZM1.72378 16.3451V15.1289H1.52378V16.3451H1.72378ZM2.84009 16.2451H1.62378V16.4451H2.84009V16.2451ZM1.60381 15.2269C2.17462 15.3432 2.62561 15.7942 2.74211 16.3651L2.93807 16.3251C2.80554 15.6756 2.29316 15.1632 1.64375 15.0309L1.60381 15.2269ZM1.60955 14.5953C2.52021 14.7262 3.24254 15.4485 3.37343 16.3593L3.57139 16.3308C3.42787 15.3322 2.63653 14.5409 1.638 14.3974L1.60955 14.5953ZM1.52378 11.3322V14.4963H1.72378V11.3322H1.52378ZM3.37343 9.46612C3.24251 10.377 2.52001 11.1023 1.60955 11.2332L1.63801 11.4312C2.63673 11.2876 3.4279 10.4929 3.57139 9.49457L3.37343 9.46612ZM6.82788 9.38035H3.47241V9.58035H6.82788V9.38035ZM5.03675 12.8375C5.06271 11.4832 5.76716 10.2698 6.88135 9.56485L6.77441 9.39584C5.60442 10.1361 4.86405 11.411 4.83679 12.8337L5.03675 12.8375ZM6.88111 16.2606C5.74847 15.5437 5.00889 14.2763 5.03675 12.8375L4.83679 12.8336C4.80752 14.3454 5.58502 15.677 6.77416 16.4296L6.88111 16.2606ZM3.47241 16.4451H6.82764V16.2451H3.47241V16.4451ZM8.92625 16.2439C7.08571 16.2084 5.62497 14.6905 5.66053 12.8495L5.46057 12.8457C5.42288 14.7971 6.97142 16.4062 8.92239 16.4439L8.92625 16.2439ZM8.99166 16.2445C8.97018 16.2445 8.94931 16.2445 8.9268 16.2439L8.92183 16.4439C8.94717 16.4445 8.97025 16.4445 8.99222 16.4445L8.99166 16.2445ZM12.3207 12.9784C12.2861 14.779 10.7924 16.2445 8.99194 16.2445V16.4445C10.9014 16.4445 12.4839 14.8917 12.5206 12.9823L12.3207 12.9784ZM9.05471 9.58402C10.8953 9.61956 12.3562 11.1376 12.3207 12.9784L12.5206 12.9823C12.5583 11.031 11.0095 9.42173 9.05857 9.38406L9.05471 9.58402ZM8.99468 9.58347L9.05572 9.58403L9.05757 9.38404L8.99653 9.38348L8.99468 9.58347ZM8.98926 9.58348H8.99561V9.38347H8.98926V9.58348ZM5.66053 12.8495C5.69513 11.049 7.18878 9.58348 8.98926 9.58348V9.38347C7.07978 9.38347 5.49726 10.9362 5.46057 12.8457L5.66053 12.8495ZM11.1523 16.445H14.4963V16.245H11.1523V16.445ZM12.9442 12.9904C12.918 14.35 12.2091 15.5584 11.0989 16.2605L11.2058 16.4296C12.3715 15.6924 13.1167 14.4226 13.1442 12.9942L12.9442 12.9904ZM11.1006 9.56793C12.2353 10.2865 12.9721 11.5548 12.9442 12.9904L13.1442 12.9942C13.1734 11.4859 12.3989 10.1533 11.2076 9.39896L11.1006 9.56793ZM14.4963 9.38347L11.1541 9.38344L11.1541 9.58344L14.4963 9.58348L14.4963 9.38347ZM16.3592 11.2332C15.4485 11.1023 14.7262 10.38 14.5953 9.46925L14.3974 9.4977C14.5409 10.4963 15.3322 11.2876 16.3307 11.4312L16.3592 11.2332ZM16.445 14.4963V11.3322H16.245V14.4963H16.445ZM14.5953 16.3593C14.7262 15.4486 15.4485 14.7262 16.3592 14.5953L16.3307 14.3974C15.3322 14.5409 14.5409 15.3323 14.3974 16.3308L14.5953 16.3593ZM16.3452 16.2451H15.1289V16.4451H16.3452V16.2451ZM16.2452 15.1289V16.3451H16.4452V15.1289H16.2452ZM15.2269 16.365C15.3432 15.7942 15.7941 15.3432 16.3652 15.2269L16.3253 15.0309C15.6756 15.1632 15.1632 15.6756 15.0309 16.3251L15.2269 16.365Z" fill="white"/>
</g>
</g>
</g>
</svg>
