<svg width="21" height="24" viewBox="0 0 21 24" fill="none" xmlns="http://www.w3.org/2000/svg">
<path d="M11.1617 15.0636H9.78959C9.29063 15.0636 8.88647 14.6595 8.88647 14.1605C8.88647 13.6615 9.29063 13.2574 9.78959 13.2574H12.2046C12.5339 13.2574 12.8033 12.988 12.8033 12.6586C12.8033 12.3293 12.5339 12.0599 12.2046 12.0599H11.0719V11.2266C11.0719 10.8973 10.8025 10.6279 10.4732 10.6279C10.1439 10.6279 9.87441 10.8973 9.87441 11.2266V12.0599H9.78959C8.632 12.0599 7.68896 13.0029 7.68896 14.1605C7.68896 15.3181 8.632 16.2611 9.78959 16.2611H11.1617C11.6607 16.2611 12.0648 16.6653 12.0648 17.1643C12.0648 17.6632 11.6607 18.0674 11.1617 18.0674H8.70185C8.37254 18.0674 8.1031 18.3368 8.1031 18.6661C8.1031 18.9954 8.37254 19.2649 8.70185 19.2649H9.8794V20.1181C9.8794 20.4474 10.1488 20.7169 10.4782 20.7169C10.8075 20.7169 11.0769 20.4474 11.0769 20.1181V19.2649H11.1767C11.1817 19.2649 11.1867 19.2649 11.1917 19.2649C12.3393 19.2499 13.2624 18.3119 13.2624 17.1643C13.2624 16.0067 12.3193 15.0636 11.1617 15.0636Z" fill="#0C49CD"/>
<path fill-rule="evenodd" clip-rule="evenodd" d="M19.4745 13.7064C18.8457 12.2595 17.9775 10.8574 16.8799 9.5451C15.5526 7.94843 14.2303 6.88068 13.5568 6.38672L16.1014 1.6665C16.2262 1.43201 16.1863 1.14264 15.9917 0.958008C15.3331 0.314331 14.6345 0 13.8562 0C13.1426 0 12.489 0.269409 11.9202 0.508911C11.4711 0.693542 11.047 0.873169 10.7028 0.873169C10.6577 0.873169 10.6155 0.870422 10.5748 0.864502C10.5336 0.858459 10.4939 0.849243 10.4546 0.836304C10.4425 0.832336 10.4304 0.828003 10.4183 0.823303C9.23083 0.38916 8.31763 0.119751 7.43457 0.119751C6.31689 0.119751 5.36389 0.568787 4.43079 1.52679C4.23621 1.72638 4.2063 2.04077 4.36096 2.27527L7.10522 6.42163C6.42664 6.9256 5.12927 7.9834 3.82703 9.5451C2.73438 10.8574 1.86108 12.2595 1.23242 13.7064C0.444092 15.5276 0.0449219 17.4287 0.0449219 19.3547C0.0449219 21.9144 2.13062 24 4.69019 24H16.0166C18.5763 24 20.662 21.9144 20.662 19.3547C20.662 17.4287 20.2628 15.5276 19.4745 13.7064ZM5.63831 2.02576C6.21704 1.52679 6.771 1.30725 7.43457 1.30725C8.14307 1.30725 8.94141 1.54675 10.0042 1.94092C10.2238 2.02075 10.4583 2.06067 10.6978 2.06067C11.2815 2.06067 11.8403 1.83118 12.3743 1.60663C12.8882 1.39209 13.3772 1.1875 13.8512 1.1875C14.0807 1.1875 14.405 1.22742 14.8142 1.51678L12.4192 5.96753H8.24792L5.63831 2.02576ZM4.69031 22.8026H16.0166C17.9177 22.8026 19.4645 21.2557 19.4545 19.3547C19.4545 16.1514 18.2869 13.1227 15.9767 10.3385C14.5198 8.57715 13.0428 7.47943 12.5887 7.1651H8.10815C7.65906 7.48444 6.17712 8.57715 4.72021 10.3385C2.41504 13.1227 1.24243 16.1564 1.24243 19.3547C1.24243 21.2557 2.78918 22.8026 4.69031 22.8026Z" fill="#0C49CD"/>
</svg>
