<svg width="18" height="18" viewBox="0 0 18 18" fill="none" xmlns="http://www.w3.org/2000/svg">
<g id="Money">
<rect id="Rectangle 4 Copy 31" width="18" height="18" fill="#F4F7FB" fill-opacity="0.01"/>
<g id="money">
<path id="Shape" d="M13.9747 12.6027C13.8022 12.6027 13.6631 12.7415 13.6631 12.9143C13.6631 13.1126 13.8439 13.2585 14.037 13.2195C14.1814 13.1904 14.2862 13.0638 14.2862 12.9143C14.2862 12.7418 14.1474 12.6027 13.9747 12.6027Z" fill="#0C49CD" stroke="#0C49CD" stroke-width="0.2"/>
<path id="Shape_2" d="M12.8466 5.34779C12.6741 5.34779 12.535 5.48674 12.535 5.65937C12.535 5.83416 12.6773 5.97376 12.8519 5.97083C13.0235 5.96796 13.1582 5.82892 13.1582 5.65937C13.1582 5.4869 13.0192 5.34779 12.8466 5.34779Z" fill="#0C49CD" stroke="#0C49CD" stroke-width="0.2"/>
<path id="Shape_3" d="M3.9942 12.6027C3.82172 12.6027 3.68262 12.7415 3.68262 12.9143C3.68262 13.0869 3.82153 13.2257 3.9942 13.2257C4.16683 13.2257 4.30578 13.0869 4.30578 12.9143C4.30578 12.7418 4.16692 12.6027 3.9942 12.6027Z" fill="#0C49CD" stroke="#0C49CD" stroke-width="0.2"/>
<g id="Shape_4">
<path fill-rule="evenodd" clip-rule="evenodd" d="M9.29626 12.642V11.439C9.49329 11.5534 9.60815 11.7578 9.60815 11.9786C9.60815 12.1508 9.7478 12.2905 9.92004 12.2905C10.0923 12.2905 10.2319 12.1508 10.2319 11.9786C10.2319 11.3829 9.81958 10.9046 9.29626 10.7703V10.4191C9.29626 10.2469 9.15662 10.1072 8.98438 10.1072C8.81213 10.1072 8.67249 10.2469 8.67249 10.4191V10.7703C8.14905 10.9046 7.73682 11.3829 7.73682 11.9786C7.73682 12.5743 8.14917 13.0526 8.67249 13.1868V14.3901C8.47144 14.2735 8.3606 14.0668 8.3606 13.8502C8.3606 13.678 8.22095 13.5383 8.04871 13.5383C7.87646 13.5383 7.73682 13.678 7.73682 13.8502C7.73682 14.4441 8.14661 14.9239 8.67249 15.0586V15.4094C8.67249 15.5816 8.81213 15.7213 8.98438 15.7213C9.15662 15.7213 9.29626 15.5816 9.29626 15.4094V15.0586C9.82239 14.9239 10.2319 14.4439 10.2319 13.8502C10.2319 13.2546 9.81958 12.7762 9.29626 12.642ZM8.67249 12.5182C8.47546 12.4038 8.3606 12.1994 8.3606 11.9786C8.3606 11.7579 8.47534 11.5535 8.67249 11.439V12.5182ZM9.29626 13.3106V14.39C9.49707 14.2736 9.60815 14.067 9.60815 13.8502C9.60815 13.6294 9.49329 13.425 9.29626 13.3106Z" fill="#0C49CD"/>
<path d="M9.29626 11.439L9.34648 11.3525L9.19626 11.2653V11.439H9.29626ZM9.29626 12.642H9.19626V12.7196L9.27142 12.7388L9.29626 12.642ZM9.29626 10.7703H9.19626V10.8479L9.27142 10.8672L9.29626 10.7703ZM8.67249 10.7703L8.69733 10.8672L8.77249 10.8479V10.7703H8.67249ZM8.67249 13.1868H8.77249V13.1093L8.69733 13.09L8.67249 13.1868ZM8.67249 14.3901L8.62234 14.4766L8.77249 14.5636V14.3901H8.67249ZM8.67249 15.0586H8.77249V14.981L8.69729 14.9617L8.67249 15.0586ZM9.29626 15.0586L9.27146 14.9617L9.19626 14.981V15.0586H9.29626ZM8.67249 12.5182L8.62227 12.6047L8.77249 12.6919V12.5182H8.67249ZM8.67249 11.439H8.77249V11.2653L8.62227 11.3525L8.67249 11.439ZM9.29626 14.39H9.19626V14.5636L9.34641 14.4765L9.29626 14.39ZM9.29626 13.3106L9.34647 13.2242L9.19626 13.137V13.3106H9.29626ZM9.19626 11.439V12.642H9.39626V11.439H9.19626ZM9.70815 11.9786C9.70815 11.7224 9.57453 11.4849 9.34648 11.3525L9.24605 11.5255C9.41205 11.6219 9.50815 11.7932 9.50815 11.9786H9.70815ZM9.92004 12.1905C9.80303 12.1905 9.70815 12.0956 9.70815 11.9786H9.50815C9.50815 12.2061 9.69257 12.3905 9.92004 12.3905V12.1905ZM10.1319 11.9786C10.1319 12.0956 10.0371 12.1905 9.92004 12.1905V12.3905C10.1475 12.3905 10.3319 12.2061 10.3319 11.9786H10.1319ZM9.27142 10.8672C9.75289 10.9907 10.1319 11.4309 10.1319 11.9786H10.3319C10.3319 11.3348 9.88627 10.8184 9.32111 10.6735L9.27142 10.8672ZM9.19626 10.4191V10.7703H9.39626V10.4191H9.19626ZM8.98438 10.2072C9.10139 10.2072 9.19626 10.3021 9.19626 10.4191H9.39626C9.39626 10.1916 9.21184 10.0072 8.98438 10.0072V10.2072ZM8.77249 10.4191C8.77249 10.3021 8.86736 10.2072 8.98438 10.2072V10.0072C8.75691 10.0072 8.57249 10.1916 8.57249 10.4191H8.77249ZM8.77249 10.7703V10.4191H8.57249V10.7703H8.77249ZM7.83682 11.9786C7.83682 11.431 8.21575 10.9907 8.69733 10.8672L8.64764 10.6735C8.08235 10.8184 7.63682 11.3349 7.63682 11.9786H7.83682ZM8.69733 13.09C8.21586 12.9665 7.83682 12.5262 7.83682 11.9786H7.63682C7.63682 12.6224 8.08248 13.1387 8.64764 13.2837L8.69733 13.09ZM8.77249 14.3901V13.1868H8.57249V14.3901H8.77249ZM8.2606 13.8502C8.2606 14.1013 8.38943 14.3416 8.62234 14.4766L8.72263 14.3035C8.55344 14.2055 8.4606 14.0323 8.4606 13.8502H8.2606ZM8.04871 13.6383C8.16572 13.6383 8.2606 13.7332 8.2606 13.8502H8.4606C8.4606 13.6227 8.27617 13.4383 8.04871 13.4383V13.6383ZM7.83682 13.8502C7.83682 13.7332 7.93169 13.6383 8.04871 13.6383V13.4383C7.82124 13.4383 7.63682 13.6227 7.63682 13.8502H7.83682ZM8.69729 14.9617C8.21354 14.8378 7.83682 14.3963 7.83682 13.8502H7.63682C7.63682 14.4919 8.07967 15.01 8.64768 15.1555L8.69729 14.9617ZM8.77249 15.4094V15.0586H8.57249V15.4094H8.77249ZM8.98438 15.6213C8.86736 15.6213 8.77249 15.5264 8.77249 15.4094H8.57249C8.57249 15.6369 8.75691 15.8213 8.98438 15.8213V15.6213ZM9.19626 15.4094C9.19626 15.5264 9.10139 15.6213 8.98438 15.6213V15.8213C9.21184 15.8213 9.39626 15.6369 9.39626 15.4094H9.19626ZM9.19626 15.0586V15.4094H9.39626V15.0586H9.19626ZM10.1319 13.8502C10.1319 14.3961 9.75543 14.8378 9.27146 14.9617L9.32107 15.1555C9.88935 15.0099 10.3319 14.4917 10.3319 13.8502H10.1319ZM9.27142 12.7388C9.75289 12.8623 10.1319 13.3026 10.1319 13.8502H10.3319C10.3319 13.2065 9.88627 12.6901 9.32111 12.5451L9.27142 12.7388ZM8.2606 11.9786C8.2606 12.2348 8.39422 12.4722 8.62227 12.6047L8.7227 12.4317C8.55671 12.3353 8.4606 12.164 8.4606 11.9786H8.2606ZM8.62227 11.3525C8.39408 11.485 8.2606 11.7225 8.2606 11.9786H8.4606C8.4606 11.7933 8.55661 11.6219 8.7227 11.5255L8.62227 11.3525ZM8.77249 12.5182V11.439H8.57249V12.5182H8.77249ZM9.39626 14.39V13.3106H9.19626V14.39H9.39626ZM9.50815 13.8502C9.50815 14.0324 9.41511 14.2056 9.24612 14.3035L9.34641 14.4765C9.57903 14.3417 9.70815 14.1015 9.70815 13.8502H9.50815ZM9.24606 13.3971C9.41204 13.4935 9.50815 13.6648 9.50815 13.8502H9.70815C9.70815 13.594 9.57453 13.3565 9.34647 13.2242L9.24606 13.3971Z" fill="#0C49CD"/>
</g>
<g id="Shape_5">
<path fill-rule="evenodd" clip-rule="evenodd" d="M14.9088 8.85968H16.6569C16.8292 8.85968 16.9688 8.99933 16.9688 9.17159V16.657C16.9688 16.8292 16.8292 16.9688 16.6569 16.9688H1.31189C1.13965 16.9688 1 16.8292 1 16.657V9.17159C1 9.07524 1.0459 8.97899 1.12927 8.91876L12.0071 1.05911C12.1453 0.959213 12.3381 0.988907 12.4399 1.12576L12.6257 1.37543L16.9071 7.13219C16.9581 7.20078 16.9788 7.28729 16.9642 7.37154C16.9496 7.45578 16.9011 7.53032 16.8301 7.57776L14.9088 8.85968ZM16.345 10.6997V9.48347H15.1288C15.2532 10.0936 15.7349 10.5753 16.345 10.6997ZM16.2108 7.24104L15.2125 7.90718C14.9868 7.3566 15.0968 6.72165 15.4946 6.27814L16.2108 7.24104ZM12.8517 2.72432L12.123 1.74489L11.1338 2.45969C11.3623 2.67084 11.6484 2.80865 11.963 2.85484C12.2704 2.89998 12.577 2.85376 12.8517 2.72432ZM10.6211 2.83012C10.9543 3.17586 11.3894 3.40111 11.8723 3.47203C12.3452 3.54146 12.817 3.45662 13.2294 3.23218L15.1169 5.77019C14.4592 6.42267 14.2863 7.42381 14.6863 8.25833L13.785 8.8597H12.1656C12.1527 8.04036 11.8903 7.23651 11.4111 6.5657C10.7819 5.68439 9.84692 5.101 8.77856 4.92294C8.44592 4.86749 8.11267 4.85345 7.78491 4.87941L10.6211 2.83012ZM8.67603 5.53815C7.77209 5.38747 6.86365 5.59787 6.11792 6.13049C5.22339 6.76918 4.69995 7.77365 4.6814 8.85963H6.61621C6.59253 8.83287 6.56934 8.8053 6.54761 8.77605C6.19226 8.29881 6.23645 7.66924 6.57727 7.24803L6.36755 6.96611C6.26477 6.82791 6.29346 6.63251 6.43164 6.52971C6.56982 6.42694 6.76526 6.45561 6.86804 6.59381L7.07764 6.87572C7.58765 6.66695 8.2002 6.81674 8.54956 7.28702C8.65222 7.42531 8.62341 7.62067 8.48523 7.72337C8.34692 7.82611 8.15149 7.7973 8.04883 7.65901C7.91699 7.48148 7.70239 7.38626 7.47656 7.41217L8.5531 8.8597H11.5419C11.5292 8.16982 11.3071 7.4933 10.9036 6.92812C10.3711 6.18245 9.57996 5.68883 8.67603 5.53815ZM7.61987 8.65033C7.40613 8.67459 7.1853 8.58832 7.04785 8.40364C6.91638 8.22693 6.88586 7.99463 6.97607 7.78461L7.61987 8.65033ZM4.0575 8.85968C4.06506 8.33044 4.17407 7.81747 4.37366 7.34415L2.27612 8.85968H4.0575ZM1.62378 9.48035H2.83997C2.71558 10.0905 2.23389 10.5753 1.62378 10.6996V9.48035ZM1.62378 15.1289V16.3451H2.83997C2.71558 15.7349 2.23389 15.2532 1.62378 15.1289ZM3.47253 16.3451C3.33533 15.3904 2.57849 14.6335 1.62378 14.4963V11.3322C2.57849 11.195 3.33533 10.435 3.47253 9.48035H6.82776C5.68591 10.2029 4.9635 11.4471 4.93677 12.8356C4.9082 14.3108 5.66687 15.6104 6.82764 16.3451H3.47253ZM5.56042 12.8476C5.5238 14.7438 7.02856 16.3073 8.92432 16.3439C8.94824 16.3445 8.97009 16.3445 8.99194 16.3445C10.8468 16.3445 12.3849 14.8353 12.4207 12.9803C12.4573 11.0843 10.9524 9.52065 9.05676 9.48404C9.03516 9.48351 9.01526 9.48347 8.99561 9.48347H8.98914C7.13428 9.48347 5.59619 10.9926 5.56042 12.8476ZM14.4963 16.345H11.1523C12.2903 15.6254 13.0175 14.3863 13.0442 12.9923C13.0726 11.5203 12.317 10.2199 11.1542 9.48344L14.4963 9.48347C14.6335 10.4381 15.3904 11.195 16.345 11.3322V14.4963C15.3904 14.6335 14.6335 15.3904 14.4963 16.345ZM15.1289 16.3451H16.3451V15.1289C15.735 15.2532 15.2533 15.7349 15.1289 16.3451Z" fill="#0C49CD"/>
<path d="M14.9088 8.85968L14.8533 8.7765L14.5788 8.95968H14.9088V8.85968ZM1.12927 8.91876L1.18783 8.99982L1.18784 8.99982L1.12927 8.91876ZM12.0071 1.05911L12.0656 1.14017L12.0657 1.14015L12.0071 1.05911ZM12.4399 1.12576L12.3597 1.18545L12.3597 1.18546L12.4399 1.12576ZM12.6257 1.37543L12.706 1.31575L12.706 1.31573L12.6257 1.37543ZM16.9071 7.13219L16.8269 7.19186L16.8269 7.19187L16.9071 7.13219ZM16.9642 7.37154L17.0628 7.38867L17.0628 7.38853L16.9642 7.37154ZM16.8301 7.57776L16.8856 7.66094L16.8856 7.66092L16.8301 7.57776ZM16.345 9.48347H16.445V9.38347H16.345V9.48347ZM16.345 10.6997L16.325 10.7976L16.445 10.8221V10.6997H16.345ZM15.1288 9.48347V9.38347H15.0063L15.0308 9.50345L15.1288 9.48347ZM15.2125 7.90718L15.12 7.94511L15.1664 8.0582L15.268 7.99036L15.2125 7.90718ZM16.2108 7.24104L16.2663 7.32422L16.3539 7.26581L16.2911 7.18136L16.2108 7.24104ZM15.4946 6.27814L15.5749 6.21846L15.5019 6.12031L15.4202 6.21136L15.4946 6.27814ZM12.123 1.74489L12.2033 1.6852L12.1444 1.60608L12.0645 1.66383L12.123 1.74489ZM12.8517 2.72432L12.8943 2.81478L13.0049 2.76268L12.9319 2.66463L12.8517 2.72432ZM11.1338 2.45969L11.0752 2.37863L10.9762 2.4502L11.0659 2.53313L11.1338 2.45969ZM11.963 2.85484L11.9775 2.7559L11.9775 2.7559L11.963 2.85484ZM11.8723 3.47203L11.8578 3.57097L11.8578 3.57097L11.8723 3.47203ZM10.6211 2.83012L10.6931 2.76072L10.6329 2.69824L10.5625 2.74907L10.6211 2.83012ZM13.2294 3.23218L13.3096 3.1725L13.2578 3.10285L13.1816 3.14435L13.2294 3.23218ZM15.1169 5.77019L15.1874 5.84118L15.2489 5.7801L15.1972 5.71051L15.1169 5.77019ZM14.6863 8.25833L14.7418 8.34151L14.814 8.29335L14.7765 8.21511L14.6863 8.25833ZM13.785 8.8597V8.9597H13.8153L13.8405 8.94288L13.785 8.8597ZM12.1656 8.8597L12.0657 8.86127L12.0672 8.9597H12.1656V8.8597ZM11.4111 6.5657L11.3297 6.62381L11.3298 6.62383L11.4111 6.5657ZM8.77856 4.92294L8.76212 5.02158L8.76213 5.02158L8.77856 4.92294ZM7.78491 4.87941L7.72635 4.79835L7.43723 5.00726L7.79281 4.9791L7.78491 4.87941ZM6.11792 6.13049L6.17603 6.21188L6.17604 6.21187L6.11792 6.13049ZM4.6814 8.85963L4.58141 8.85793L4.57967 8.95963H4.6814V8.85963ZM6.61621 8.85963V8.95963H6.83822L6.6911 8.79337L6.61621 8.85963ZM6.54761 8.77605L6.62788 8.71642L6.62781 8.71632L6.54761 8.77605ZM6.57727 7.24803L6.65501 7.31093L6.70382 7.25061L6.65751 7.18835L6.57727 7.24803ZM6.36755 6.96611L6.28731 7.02579L6.28732 7.0258L6.36755 6.96611ZM6.43164 6.52971L6.37196 6.44947L6.37195 6.44948L6.43164 6.52971ZM6.86804 6.59381L6.94829 6.53415L6.94828 6.53413L6.86804 6.59381ZM7.07764 6.87572L6.99739 6.93538L7.04369 6.99767L7.11552 6.96826L7.07764 6.87572ZM8.54956 7.28702L8.62985 7.22741L8.62983 7.22738L8.54956 7.28702ZM8.48523 7.72337L8.54486 7.80365L8.54488 7.80363L8.48523 7.72337ZM8.04883 7.65901L8.12912 7.59941L8.12911 7.59939L8.04883 7.65901ZM7.47656 7.41217L7.46516 7.31282L7.29276 7.3326L7.39632 7.47185L7.47656 7.41217ZM8.5531 8.8597L8.47286 8.91937L8.50285 8.9597H8.5531V8.8597ZM11.5419 8.8597V8.9597H11.6437L11.6419 8.85786L11.5419 8.8597ZM10.9036 6.92812L10.9849 6.87001L10.9849 6.87L10.9036 6.92812ZM7.04785 8.40364L6.96762 8.46333L6.96763 8.46335L7.04785 8.40364ZM7.61987 8.65033L7.63115 8.74969L7.80381 8.73009L7.70012 8.59066L7.61987 8.65033ZM6.97607 7.78461L7.05632 7.72493L6.95271 7.58561L6.88419 7.74514L6.97607 7.78461ZM4.37366 7.34415L4.4658 7.383L4.60455 7.05395L4.31509 7.26309L4.37366 7.34415ZM4.0575 8.85968V8.95968H4.15608L4.15749 8.86111L4.0575 8.85968ZM2.27612 8.85968L2.21756 8.77862L1.96697 8.95968H2.27612V8.85968ZM2.83997 9.48035L2.93795 9.50032L2.96241 9.38035H2.83997V9.48035ZM1.62378 9.48035V9.38035H1.52378V9.48035H1.62378ZM1.62378 10.6996H1.52378V10.8221L1.64375 10.7976L1.62378 10.6996ZM1.62378 16.3451H1.52378V16.4451H1.62378V16.3451ZM1.62378 15.1289L1.64375 15.0309L1.52378 15.0064V15.1289H1.62378ZM2.83997 16.3451V16.4451H2.96241L2.93795 16.3251L2.83997 16.3451ZM1.62378 14.4963H1.52378V14.583L1.60956 14.5953L1.62378 14.4963ZM3.47253 16.3451L3.37355 16.3593L3.38588 16.4451H3.47253V16.3451ZM1.62378 11.3322L1.60955 11.2332L1.52378 11.2455V11.3322H1.62378ZM3.47253 9.48035V9.38035H3.38588L3.37355 9.46612L3.47253 9.48035ZM6.82776 9.48035L6.88123 9.56485L7.17278 9.38035H6.82776V9.48035ZM4.93677 12.8356L5.03675 12.8375V12.8375L4.93677 12.8356ZM6.82764 16.3451V16.4451H7.17261L6.88112 16.2606L6.82764 16.3451ZM8.92432 16.3439L8.9268 16.2439L8.92625 16.2439L8.92432 16.3439ZM5.56042 12.8476L5.66041 12.8495V12.8495L5.56042 12.8476ZM8.99194 16.3445V16.2445L8.99166 16.2445L8.99194 16.3445ZM12.4207 12.9803L12.3207 12.9784V12.9784L12.4207 12.9803ZM9.05676 9.48404L9.05429 9.58401L9.05483 9.58402L9.05676 9.48404ZM11.1523 16.345L11.0989 16.2605L10.8071 16.445H11.1523V16.345ZM14.4963 16.345V16.445H14.583L14.5953 16.3593L14.4963 16.345ZM13.0442 12.9923L12.9442 12.9904V12.9904L13.0442 12.9923ZM11.1542 9.48344L11.1542 9.38344L10.8094 9.38344L11.1007 9.56793L11.1542 9.48344ZM14.4963 9.48347L14.5953 9.46925L14.583 9.38348L14.4963 9.38347L14.4963 9.48347ZM16.345 11.3322H16.445V11.2455L16.3592 11.2332L16.345 11.3322ZM16.345 14.4963L16.3592 14.5953L16.445 14.583V14.4963H16.345ZM16.3451 16.3451V16.4451H16.4451V16.3451H16.3451ZM15.1289 16.3451L15.0309 16.3251L15.0065 16.4451H15.1289V16.3451ZM16.3451 15.1289H16.4451V15.0064L16.3251 15.0309L16.3451 15.1289ZM16.6569 8.75968H14.9088V8.95968H16.6569V8.75968ZM17.0688 9.17159C17.0688 8.94413 16.8845 8.75968 16.6569 8.75968V8.95968C16.774 8.95968 16.8687 9.05453 16.8687 9.17159H17.0688ZM17.0688 16.657V9.17159H16.8687V16.657H17.0688ZM16.6569 17.0688C16.8845 17.0688 17.0688 16.8844 17.0688 16.657H16.8687C16.8687 16.774 16.774 16.8688 16.6569 16.8688V17.0688ZM1.31189 17.0688H16.6569V16.8688H1.31189V17.0688ZM0.9 16.657C0.9 16.8844 1.08442 17.0688 1.31189 17.0688V16.8688C1.19487 16.8688 1.1 16.774 1.1 16.657H0.9ZM0.9 9.17159V16.657H1.1V9.17159H0.9ZM1.07072 8.8377C0.96041 8.91738 0.9 9.04427 0.9 9.17159H1.1C1.1 9.10622 1.13139 9.0406 1.18783 8.99982L1.07072 8.8377ZM11.9485 0.978057L1.07071 8.83771L1.18784 8.99982L12.0656 1.14017L11.9485 0.978057ZM12.5202 1.06608C12.3857 0.885356 12.131 0.846112 11.9485 0.978072L12.0657 1.14015C12.1595 1.07231 12.2905 1.09246 12.3597 1.18545L12.5202 1.06608ZM12.706 1.31573L12.5202 1.06606L12.3597 1.18546L12.5455 1.43513L12.706 1.31573ZM16.9873 7.07251L12.706 1.31575L12.5455 1.4351L16.8269 7.19186L16.9873 7.07251ZM17.0628 7.38853C17.082 7.27732 17.0547 7.16308 16.9873 7.0725L16.8269 7.19187C16.8615 7.23847 16.8756 7.29726 16.8657 7.35454L17.0628 7.38853ZM16.8856 7.66092C16.9795 7.59825 17.0434 7.49982 17.0628 7.38867L16.8657 7.3544C16.8557 7.41174 16.8228 7.46239 16.7745 7.4946L16.8856 7.66092ZM14.9643 8.94286L16.8856 7.66094L16.7746 7.49458L14.8533 8.7765L14.9643 8.94286ZM16.245 9.48347V10.6997H16.445V9.48347H16.245ZM15.1288 9.58348H16.345V9.38347H15.1288V9.58348ZM16.3649 10.6017C15.7941 10.4853 15.3431 10.0344 15.2268 9.4635L15.0308 9.50345C15.1632 10.1529 15.6756 10.6653 16.325 10.7976L16.3649 10.6017ZM15.268 7.99036L16.2663 7.32422L16.1553 7.15786L15.157 7.824L15.268 7.99036ZM15.4202 6.21136C14.9968 6.68337 14.8797 7.35898 15.12 7.94511L15.3051 7.86925C15.0939 7.35421 15.1968 6.75993 15.5691 6.34491L15.4202 6.21136ZM16.2911 7.18136L15.5749 6.21846L15.4144 6.33782L16.1306 7.30072L16.2911 7.18136ZM12.0428 1.80458L12.7715 2.78401L12.9319 2.66463L12.2033 1.6852L12.0428 1.80458ZM11.1924 2.54074L12.1816 1.82594L12.0645 1.66383L11.0752 2.37863L11.1924 2.54074ZM11.9775 2.7559C11.6829 2.71264 11.4154 2.5837 11.2017 2.38624L11.0659 2.53313C11.3093 2.75797 11.614 2.90467 11.9485 2.95378L11.9775 2.7559ZM12.8091 2.63386C12.5523 2.75488 12.2655 2.79819 11.9775 2.7559L11.9485 2.95378C12.2753 3.00177 12.6018 2.95264 12.8943 2.81478L12.8091 2.63386ZM11.8868 3.37309C11.4259 3.30539 11.011 3.09054 10.6931 2.76072L10.5491 2.89952C10.8977 3.26117 11.353 3.49683 11.8578 3.57097L11.8868 3.37309ZM13.1816 3.14435C12.7883 3.35839 12.3384 3.43939 11.8868 3.37309L11.8578 3.57097C12.352 3.64353 12.8457 3.55485 13.2772 3.32001L13.1816 3.14435ZM15.1972 5.71051L13.3096 3.1725L13.1491 3.29185L15.0367 5.82986L15.1972 5.71051ZM14.7765 8.21511C14.3948 7.419 14.5599 6.46369 15.1874 5.84118L15.0465 5.69919C14.3586 6.38165 14.1777 7.42863 14.5961 8.30156L14.7765 8.21511ZM13.8405 8.94288L14.7418 8.34151L14.6308 8.17515L13.7295 8.77651L13.8405 8.94288ZM12.1656 8.9597H13.785V8.7597H12.1656V8.9597ZM11.3298 6.62383C11.797 7.27802 12.053 8.06213 12.0657 8.86127L12.2656 8.85812C12.2524 8.01859 11.9835 7.195 11.4925 6.50758L11.3298 6.62383ZM8.76213 5.02158C9.80432 5.19528 10.7159 5.76409 11.3297 6.62381L11.4925 6.5076C10.8478 5.60468 9.88952 5.00672 8.795 4.8243L8.76213 5.02158ZM7.79281 4.9791C8.1124 4.95379 8.43748 4.96747 8.76212 5.02158L8.79501 4.8243C8.45436 4.76752 8.11294 4.75312 7.77702 4.77972L7.79281 4.9791ZM10.5625 2.74907L7.72635 4.79835L7.84348 4.96046L10.6797 2.91118L10.5625 2.74907ZM6.17604 6.21187C6.90019 5.69466 7.78182 5.49047 8.65958 5.63679L8.69247 5.43951C7.76237 5.28447 6.8271 5.50108 6.0598 6.04912L6.17604 6.21187ZM4.78138 8.86134C4.7994 7.80698 5.30736 6.8321 6.17603 6.21188L6.05981 6.04911C5.13942 6.70626 4.60051 7.74032 4.58141 8.85793L4.78138 8.86134ZM6.61621 8.75963H4.6814V8.95963H6.61621V8.75963ZM6.46733 8.83568C6.49138 8.86805 6.51659 8.89795 6.54132 8.9259L6.6911 8.79337C6.66847 8.76779 6.64729 8.74255 6.62788 8.71642L6.46733 8.83568ZM6.49953 7.18513C6.13148 7.63998 6.08336 8.32 6.4674 8.83577L6.62781 8.71632C6.30116 8.27762 6.34142 7.69849 6.65501 7.31093L6.49953 7.18513ZM6.28732 7.0258L6.49704 7.30772L6.65751 7.18835L6.44779 6.90642L6.28732 7.0258ZM6.37195 6.44948C6.18945 6.58524 6.15158 6.84329 6.28731 7.02579L6.44779 6.90643C6.37796 6.81254 6.39746 6.67977 6.49133 6.60994L6.37195 6.44948ZM6.94828 6.53413C6.81253 6.3516 6.55444 6.31376 6.37196 6.44947L6.49132 6.60995C6.58521 6.54012 6.71799 6.55963 6.7878 6.65349L6.94828 6.53413ZM7.15789 6.81605L6.94829 6.53415L6.78779 6.65348L6.99739 6.93538L7.15789 6.81605ZM8.62983 7.22738C8.25235 6.71926 7.59067 6.55765 7.03975 6.78317L7.11552 6.96826C7.58462 6.77624 8.14804 6.91422 8.46929 7.34665L8.62983 7.22738ZM8.54488 7.80363C8.72739 7.66798 8.76541 7.41001 8.62985 7.22741L8.46927 7.34662C8.53904 7.44061 8.51943 7.57335 8.42558 7.64311L8.54488 7.80363ZM7.96853 7.71862C8.10415 7.9013 8.36225 7.9393 8.54486 7.80365L8.4256 7.6431C8.3316 7.71292 8.19883 7.6933 8.12912 7.59941L7.96853 7.71862ZM7.48796 7.51152C7.67815 7.4897 7.85788 7.56961 7.96854 7.71863L8.12911 7.59939C7.9761 7.39334 7.72663 7.28282 7.46516 7.31282L7.48796 7.51152ZM8.63334 8.80002L7.5568 7.35249L7.39632 7.47185L8.47286 8.91937L8.63334 8.80002ZM11.5419 8.7597H8.5531V8.9597H11.5419V8.7597ZM10.8222 6.98623C11.214 7.5349 11.4296 8.19178 11.4419 8.86154L11.6419 8.85786C11.6288 8.14785 11.4003 7.45171 10.9849 6.87001L10.8222 6.98623ZM8.65958 5.63679C9.53736 5.78311 10.3051 6.26216 10.8222 6.98623L10.9849 6.87C10.4371 6.10274 9.62255 5.59455 8.69247 5.43951L8.65958 5.63679ZM6.96763 8.46335C7.12738 8.67798 7.38378 8.77777 7.63115 8.74969L7.60859 8.55097C7.42848 8.57141 7.24323 8.49865 7.12807 8.34394L6.96763 8.46335ZM6.88419 7.74514C6.77975 7.9883 6.81511 8.25833 6.96762 8.46333L7.12808 8.34395C7.01766 8.19553 6.99198 8.00096 7.06796 7.82407L6.88419 7.74514ZM7.70012 8.59066L7.05632 7.72493L6.89583 7.84428L7.53963 8.71L7.70012 8.59066ZM4.28151 7.30529C4.07693 7.79048 3.96526 8.31616 3.95751 8.85825L4.15749 8.86111C4.16487 8.34473 4.27122 7.84447 4.4658 7.383L4.28151 7.30529ZM2.33469 8.94074L4.43222 7.4252L4.31509 7.26309L2.21756 8.77862L2.33469 8.94074ZM4.0575 8.75968H2.27612V8.95968H4.0575V8.75968ZM2.83997 9.38035H1.62378V9.58035H2.83997V9.38035ZM1.64375 10.7976C2.29344 10.6652 2.80561 10.1494 2.93795 9.50032L2.74198 9.46037C2.62554 10.0315 2.17433 10.4854 1.60381 10.6017L1.64375 10.7976ZM1.52378 9.48035V10.6996H1.72378V9.48035H1.52378ZM1.72378 16.3451V15.1289H1.52378V16.3451H1.72378ZM2.83997 16.2451H1.62378V16.4451H2.83997V16.2451ZM1.60381 15.2269C2.17462 15.3432 2.6256 15.7942 2.74198 16.365L2.93795 16.3251C2.80555 15.6756 2.29316 15.1632 1.64375 15.0309L1.60381 15.2269ZM1.60956 14.5953C2.52033 14.7262 3.24266 15.4486 3.37355 16.3593L3.57152 16.3308C3.428 15.3322 2.63665 14.5409 1.638 14.3974L1.60956 14.5953ZM1.52378 11.3322V14.4963H1.72378V11.3322H1.52378ZM3.37355 9.46612C3.24263 10.377 2.52014 11.1023 1.60955 11.2332L1.638 11.4312C2.63684 11.2876 3.42802 10.4929 3.57152 9.49457L3.37355 9.46612ZM6.82776 9.38035H3.47253V9.58035H6.82776V9.38035ZM5.03675 12.8375C5.06282 11.4832 5.76729 10.2698 6.88123 9.56485L6.77428 9.39585C5.60454 10.1361 4.86418 11.411 4.83679 12.8336L5.03675 12.8375ZM6.88112 16.2606C5.74859 15.5437 5.00889 14.2763 5.03675 12.8375L4.83679 12.8336C4.80752 14.3454 5.58515 15.677 6.77416 16.4296L6.88112 16.2606ZM3.47253 16.4451H6.82764V16.2451H3.47253V16.4451ZM8.92625 16.2439C7.0857 16.2084 5.62485 14.6905 5.66041 12.8495L5.46044 12.8457C5.42276 14.7971 6.97143 16.4062 8.92239 16.4439L8.92625 16.2439ZM8.99166 16.2445C8.97006 16.2445 8.94932 16.2445 8.9268 16.2439L8.92183 16.4439C8.94717 16.4445 8.97013 16.4445 8.99222 16.4445L8.99166 16.2445ZM12.3207 12.9784C12.286 14.779 10.7923 16.2445 8.99194 16.2445V16.4445C10.9013 16.4445 12.4838 14.8917 12.5206 12.9823L12.3207 12.9784ZM9.05483 9.58402C10.8953 9.61956 12.3562 11.1376 12.3207 12.9784L12.5206 12.9823C12.5583 11.031 11.0095 9.42173 9.05869 9.38406L9.05483 9.58402ZM8.99561 9.58348C9.01524 9.58348 9.03404 9.58351 9.05429 9.58401L9.05923 9.38407C9.03627 9.3835 9.01528 9.38347 8.99561 9.38347V9.58348ZM8.98914 9.58348H8.99561V9.38347H8.98914V9.58348ZM5.66041 12.8495C5.69512 11.049 7.18878 9.58348 8.98914 9.58348V9.38347C7.07978 9.38347 5.49726 10.9362 5.46044 12.8457L5.66041 12.8495ZM11.1523 16.445H14.4963V16.245H11.1523V16.445ZM12.9442 12.9904C12.9181 14.35 12.2091 15.5584 11.0989 16.2605L11.2058 16.4296C12.3715 15.6924 13.1168 14.4226 13.1442 12.9942L12.9442 12.9904ZM11.1007 9.56793C12.2352 10.2865 12.9719 11.5548 12.9442 12.9904L13.1442 12.9942C13.1733 11.4859 12.3988 10.1533 11.2077 9.39896L11.1007 9.56793ZM14.4963 9.38347L11.1542 9.38344L11.1542 9.58344L14.4963 9.58348L14.4963 9.38347ZM16.3592 11.2332C15.4485 11.1023 14.7262 10.38 14.5953 9.46925L14.3974 9.4977C14.5409 10.4963 15.3322 11.2876 16.3307 11.4312L16.3592 11.2332ZM16.445 14.4963V11.3322H16.245V14.4963H16.445ZM14.5953 16.3593C14.7262 15.4486 15.4485 14.7262 16.3592 14.5953L16.3307 14.3974C15.3322 14.5409 14.5409 15.3323 14.3974 16.3308L14.5953 16.3593ZM16.3451 16.2451H15.1289V16.4451H16.3451V16.2451ZM16.2451 15.1289V16.3451H16.4451V15.1289H16.2451ZM15.2269 16.365C15.3433 15.7942 15.7943 15.3432 16.3651 15.2269L16.3251 15.0309C15.6757 15.1632 15.1633 15.6756 15.0309 16.3251L15.2269 16.365Z" fill="#0C49CD"/>
</g>
</g>
</g>
</svg>
