<svg width="24" height="24" viewBox="0 0 24 24" fill="none" xmlns="http://www.w3.org/2000/svg">
<path fill-rule="evenodd" clip-rule="evenodd" d="M5 14C6.10461 14 7 13.1045 7 12C7 10.8955 6.10461 10 5 10C3.89539 10 3 10.8955 3 12C3 13.1045 3.89539 14 5 14ZM12 14C13.1046 14 14 13.1045 14 12C14 10.8955 13.1046 10 12 10C10.8954 10 10 10.8955 10 12C10 13.1045 10.8954 14 12 14ZM21 12C21 13.1045 20.1046 14 19 14C17.8954 14 17 13.1045 17 12C17 10.8955 17.8954 10 19 10C20.1046 10 21 10.8955 21 12Z" fill="white"/>
<mask id="mask0" mask-type="alpha" maskUnits="userSpaceOnUse" x="3" y="10" width="18" height="4">
<path fill-rule="evenodd" clip-rule="evenodd" d="M5 14C6.10461 14 7 13.1045 7 12C7 10.8955 6.10461 10 5 10C3.89539 10 3 10.8955 3 12C3 13.1045 3.89539 14 5 14ZM12 14C13.1046 14 14 13.1045 14 12C14 10.8955 13.1046 10 12 10C10.8954 10 10 10.8955 10 12C10 13.1045 10.8954 14 12 14ZM21 12C21 13.1045 20.1046 14 19 14C17.8954 14 17 13.1045 17 12C17 10.8955 17.8954 10 19 10C20.1046 10 21 10.8955 21 12Z" fill="white"/>
</mask>
<g mask="url(#mask0)">
<rect width="24" height="24" rx="4" fill="#848E99"/>
</g>
</svg>
