<svg width="18" height="18" viewBox="0 0 18 18" fill="none" xmlns="http://www.w3.org/2000/svg">
<g id="Music White">
<rect id="Rectangle 4 Copy 17" width="18" height="18" fill="#F4F7FB" fill-opacity="0.01"/>
<g id="music">
<g id="Shape">
<path fill-rule="evenodd" clip-rule="evenodd" d="M15.9543 11.2478V4.49973V1.3815C15.9543 1.27386 15.9036 1.17245 15.8174 1.10809C15.7417 1.0517 15.647 1.02933 15.5552 1.0452C15.542 1.04749 15.5291 1.05054 15.5161 1.05435L6.9082 3.60727C6.76343 3.65024 6.66406 3.78333 6.66406 3.93439V7.05273V12.2844C6.28662 11.976 5.79565 11.8091 5.24438 11.8091C4.5437 11.8091 3.82764 12.0771 3.22803 12.5635C2.64111 13.0397 2.23438 13.6714 2.08276 14.3423C1.92456 15.0431 2.06006 15.7035 2.46436 16.2018C2.86035 16.6899 3.46436 16.9587 4.16553 16.9587C4.86621 16.9587 5.58228 16.6908 6.18188 16.2043C6.7688 15.7281 7.17554 15.0964 7.32715 14.4255C7.40674 14.0734 7.41211 13.7315 7.34644 13.4153V7.30743L9.00537 6.81537C9.18604 6.76178 9.28906 6.57193 9.2356 6.39127C9.18188 6.21063 8.99219 6.1077 8.81152 6.16119L7.34644 6.5957V4.18918L15.272 1.83859V4.24512L9.82324 5.86118C9.64258 5.91473 9.53979 6.10464 9.59326 6.28528C9.64673 6.46588 9.83667 6.56879 10.0173 6.51535L15.272 4.95685V9.7865C14.8894 9.45474 14.3813 9.27515 13.8086 9.27515C13.1082 9.27515 12.3921 9.54315 11.7925 10.0296C11.2056 10.5058 10.7988 11.1375 10.647 11.8084C10.4888 12.5091 10.624 13.1695 11.0286 13.668C11.4246 14.1559 12.0288 14.4247 12.73 14.4247C13.4304 14.4247 14.1465 14.1567 14.7461 13.6703C15.333 13.1941 15.7397 12.5623 15.8914 11.8915C15.9412 11.6717 15.9617 11.4559 15.9543 11.2478ZM6.66162 14.275C6.54346 14.7972 6.22046 15.2942 5.75195 15.6744C5.27344 16.0626 4.71021 16.2763 4.16553 16.2763C3.67407 16.2763 3.25806 16.0972 2.99414 15.7719C2.72437 15.4394 2.63696 14.9851 2.74829 14.4928C2.86646 13.9706 3.18921 13.4737 3.65796 13.0935C4.13647 12.7053 4.69971 12.4916 5.24438 12.4916C5.73584 12.4916 6.15186 12.6707 6.41577 12.9959C6.53979 13.1488 6.62476 13.3278 6.67017 13.524L6.67358 13.5396C6.72314 13.766 6.72046 14.015 6.66162 14.275ZM14.3162 13.1403C14.7847 12.7601 15.1077 12.2632 15.2258 11.741C15.2542 11.6157 15.2693 11.493 15.2722 11.374L15.272 11.3685V11.2849C15.2627 10.9716 15.1638 10.6885 14.9797 10.4619C14.7161 10.1366 14.3 9.95746 13.8086 9.95746C13.2639 9.95746 12.7007 10.1712 12.2222 10.5594C11.7537 10.9396 11.4307 11.4366 11.3125 11.9587C11.2012 12.451 11.2886 12.9054 11.5583 13.2379C11.8223 13.5631 12.2383 13.7423 12.7297 13.7423C13.2744 13.7423 13.8376 13.5285 14.3162 13.1403Z" fill="white"/>
<path d="M15.9543 11.2478H15.8543L15.8544 11.2514L15.9543 11.2478ZM15.8174 1.10809L15.8772 1.02797L15.8771 1.02791L15.8174 1.10809ZM15.5552 1.0452L15.5381 0.946658L15.5381 0.94667L15.5552 1.0452ZM15.5161 1.05435L15.4878 0.958433L15.4877 0.958479L15.5161 1.05435ZM6.9082 3.60727L6.87977 3.5114L6.87975 3.5114L6.9082 3.60727ZM6.66406 12.2844L6.60079 12.3618L6.76406 12.4952V12.2844H6.66406ZM3.22803 12.5635L3.16503 12.4859L3.16502 12.4859L3.22803 12.5635ZM2.08276 14.3423L1.98522 14.3203L1.98522 14.3203L2.08276 14.3423ZM2.46436 16.2018L2.3867 16.2648L2.3867 16.2648L2.46436 16.2018ZM6.18188 16.2043L6.24489 16.282L6.24489 16.282L6.18188 16.2043ZM7.32715 14.4255L7.22961 14.4035L7.22961 14.4035L7.32715 14.4255ZM7.34644 13.4153H7.24644V13.4256L7.24852 13.4356L7.34644 13.4153ZM7.34644 7.30743L7.318 7.21156L7.24644 7.23279V7.30743H7.34644ZM9.00537 6.81537L9.03381 6.91124H9.03381L9.00537 6.81537ZM9.2356 6.39127L9.33148 6.36289L9.33145 6.36276L9.2356 6.39127ZM8.81152 6.16119L8.78313 6.06531L8.78309 6.06532L8.81152 6.16119ZM7.34644 6.5957H7.24644V6.72967L7.37487 6.69158L7.34644 6.5957ZM7.34644 4.18918L7.318 4.09331L7.24644 4.11453V4.18918H7.34644ZM15.272 1.83859H15.372V1.70463L15.2435 1.74272L15.272 1.83859ZM15.272 4.24512L15.3004 4.34099L15.372 4.31976V4.24512H15.272ZM9.82324 5.86118L9.85167 5.95705L9.85168 5.95705L9.82324 5.86118ZM9.59326 6.28528L9.49737 6.31366L9.49738 6.31366L9.59326 6.28528ZM10.0173 6.51535L10.0457 6.61124L10.0458 6.61122L10.0173 6.51535ZM15.272 4.95685H15.372V4.82288L15.2435 4.86098L15.272 4.95685ZM15.272 9.7865L15.2065 9.86205L15.372 10.0056V9.7865H15.272ZM11.7925 10.0296L11.7295 9.95194L11.7295 9.95195L11.7925 10.0296ZM10.647 11.8084L10.5494 11.7863L10.5494 11.7864L10.647 11.8084ZM11.0286 13.668L11.1062 13.605L11.1062 13.605L11.0286 13.668ZM14.7461 13.6703L14.8091 13.7479L14.8091 13.7479L14.7461 13.6703ZM15.8914 11.8915L15.7938 11.8694L15.7938 11.8695L15.8914 11.8915ZM5.75195 15.6744L5.81495 15.752L5.81497 15.752L5.75195 15.6744ZM6.66162 14.275L6.56409 14.253L6.56409 14.253L6.66162 14.275ZM2.99414 15.7719L2.91648 15.8349L2.91649 15.835L2.99414 15.7719ZM2.74829 14.4928L2.65076 14.4708L2.65075 14.4708L2.74829 14.4928ZM3.65796 13.0935L3.72095 13.1712L3.72096 13.1712L3.65796 13.0935ZM6.41577 12.9959L6.49343 12.9329L6.49342 12.9329L6.41577 12.9959ZM6.67017 13.524L6.76785 13.5025L6.76759 13.5014L6.67017 13.524ZM6.67358 13.5396L6.77127 13.5182L6.77127 13.5181L6.67358 13.5396ZM15.2258 11.741L15.3234 11.7631L15.3234 11.7631L15.2258 11.741ZM14.3162 13.1403L14.3792 13.2179L14.3792 13.2179L14.3162 13.1403ZM15.2722 11.374L15.3724 11.3764L15.3721 11.3695L15.2722 11.374ZM15.272 11.3685H15.1719L15.1721 11.3729L15.272 11.3685ZM15.272 11.2849H15.372L15.3719 11.2819L15.272 11.2849ZM14.9797 10.4619L14.9021 10.5248L14.9021 10.5249L14.9797 10.4619ZM12.2222 10.5594L12.1592 10.4818L12.1592 10.4818L12.2222 10.5594ZM11.3125 11.9587L11.215 11.9367L11.215 11.9367L11.3125 11.9587ZM11.5583 13.2379L11.4807 13.3009L11.4807 13.3009L11.5583 13.2379ZM15.8543 4.49973V11.2478H16.0543V4.49973H15.8543ZM15.8543 1.3815V4.49973H16.0543V1.3815H15.8543ZM15.7575 1.18822C15.8184 1.23367 15.8543 1.30537 15.8543 1.3815H16.0543C16.0543 1.24236 15.9887 1.11124 15.8772 1.02797L15.7575 1.18822ZM15.5722 1.14373C15.637 1.13254 15.704 1.14828 15.7576 1.18828L15.8771 1.02791C15.7794 0.955111 15.6569 0.926119 15.5381 0.946658L15.5722 1.14373ZM15.5444 1.15027C15.5538 1.14749 15.563 1.14533 15.5723 1.14372L15.5381 0.94667C15.521 0.949643 15.5043 0.953585 15.4878 0.958433L15.5444 1.15027ZM6.93664 3.70314L15.5445 1.15022L15.4877 0.958479L6.87977 3.5114L6.93664 3.70314ZM6.76406 3.93439C6.76406 3.82761 6.83431 3.73351 6.93666 3.70314L6.87975 3.5114C6.69255 3.56696 6.56406 3.73904 6.56406 3.93439H6.76406ZM6.76406 7.05273V3.93439H6.56406V7.05273H6.76406ZM6.76406 12.2844V7.05273H6.56406V12.2844H6.76406ZM5.24438 11.9091C5.77525 11.9091 6.24316 12.0696 6.60079 12.3618L6.72733 12.207C6.33008 11.8824 5.81606 11.7091 5.24438 11.7091V11.9091ZM3.29103 12.6412C3.87476 12.1676 4.56902 11.9091 5.24438 11.9091V11.7091C4.51838 11.7091 3.78051 11.9865 3.16503 12.4859L3.29103 12.6412ZM2.1803 14.3644C2.32647 13.7176 2.71971 13.1047 3.29103 12.6412L3.16502 12.4859C2.56251 12.9747 2.14228 13.6253 1.98522 14.3203L2.1803 14.3644ZM2.54201 16.1388C2.15951 15.6673 2.02794 15.0393 2.18031 14.3644L1.98522 14.3203C1.82119 15.0469 1.96061 15.7396 2.3867 16.2648L2.54201 16.1388ZM4.16553 16.8587C3.49056 16.8587 2.91667 16.6006 2.54201 16.1388L2.3867 16.2648C2.80403 16.7792 3.43815 17.0587 4.16553 17.0587V16.8587ZM6.11888 16.1267C5.53515 16.6002 4.84089 16.8587 4.16553 16.8587V17.0587C4.89153 17.0587 5.6294 16.7813 6.24489 16.282L6.11888 16.1267ZM7.22961 14.4035C7.08344 15.0503 6.6902 15.6631 6.11888 16.1267L6.24489 16.282C6.8474 15.7931 7.26764 15.1425 7.42469 14.4475L7.22961 14.4035ZM7.24852 13.4356C7.31104 13.7366 7.30634 14.064 7.22961 14.4035L7.42469 14.4476C7.50714 14.0828 7.51318 13.7264 7.44435 13.395L7.24852 13.4356ZM7.24644 7.30743V13.4153H7.44644V7.30743H7.24644ZM8.97693 6.7195L7.318 7.21156L7.37487 7.40331L9.03381 6.91124L8.97693 6.7195ZM9.13971 6.41964C9.17751 6.54738 9.10466 6.68161 8.97693 6.7195L9.03381 6.91124C9.26741 6.84195 9.40061 6.59648 9.33148 6.36289L9.13971 6.41964ZM8.83992 6.25708C8.96764 6.21926 9.10175 6.292 9.13974 6.41977L9.33145 6.36276C9.26202 6.12927 9.01674 5.99613 8.78313 6.06531L8.83992 6.25708ZM7.37487 6.69158L8.83996 6.25707L8.78309 6.06532L7.318 6.49983L7.37487 6.69158ZM7.24644 4.18918V6.5957H7.44644V4.18918H7.24644ZM15.2435 1.74272L7.318 4.09331L7.37487 4.28505L15.3004 1.93446L15.2435 1.74272ZM15.372 4.24512V1.83859H15.172V4.24512H15.372ZM9.85168 5.95705L15.3004 4.34099L15.2435 4.14925L9.79481 5.7653L9.85168 5.95705ZM9.68915 6.2569C9.65131 6.12907 9.72407 5.99488 9.85167 5.95705L9.79482 5.7653C9.56108 5.83459 9.42828 6.08022 9.49737 6.31366L9.68915 6.2569ZM9.98897 6.41946C9.86112 6.45727 9.7269 6.38441 9.68915 6.25689L9.49738 6.31366C9.56656 6.54736 9.81222 6.6803 10.0457 6.61124L9.98897 6.41946ZM15.2435 4.86098L9.9889 6.41948L10.0458 6.61122L15.3004 5.05272L15.2435 4.86098ZM15.372 9.7865V4.95685H15.172V9.7865H15.372ZM13.8086 9.37515C14.3602 9.37515 14.8442 9.54788 15.2065 9.86205L15.3375 9.71095C14.9346 9.3616 14.4025 9.17515 13.8086 9.17515V9.37515ZM11.8555 10.1073C12.4392 9.63368 13.1335 9.37515 13.8086 9.37515V9.17515C13.0828 9.17515 12.345 9.45262 11.7295 9.95194L11.8555 10.1073ZM10.7445 11.8305C10.8909 11.1836 11.2842 10.5708 11.8555 10.1073L11.7295 9.95195C11.127 10.4408 10.7067 11.0914 10.5494 11.7863L10.7445 11.8305ZM11.1062 13.605C10.7235 13.1334 10.5921 12.5053 10.7445 11.8304L10.5494 11.7864C10.3854 12.5129 10.5246 13.2057 10.9509 13.731L11.1062 13.605ZM12.73 14.3247C12.055 14.3247 11.4809 14.0666 11.1062 13.605L10.9509 13.731C11.3683 14.2453 12.0026 14.5247 12.73 14.5247V14.3247ZM14.6831 13.5926C14.0994 14.0662 13.4051 14.3247 12.73 14.3247V14.5247C13.4557 14.5247 14.1936 14.2473 14.8091 13.7479L14.6831 13.5926ZM15.7938 11.8695C15.6476 12.5162 15.2544 13.1291 14.6831 13.5926L14.8091 13.7479C15.4116 13.2591 15.8318 12.6085 15.9889 11.9136L15.7938 11.8695ZM15.8544 11.2514C15.8614 11.4504 15.8418 11.6576 15.7938 11.8694L15.9889 11.9136C16.0405 11.6858 16.0619 11.4614 16.0543 11.2443L15.8544 11.2514ZM5.81497 15.752C6.29856 15.3596 6.63542 14.8439 6.75915 14.2971L6.56409 14.253C6.45149 14.7505 6.14235 15.2288 5.68894 15.5967L5.81497 15.752ZM4.16553 16.3763C4.73615 16.3763 5.3211 16.1527 5.81495 15.752L5.68895 15.5967C5.22577 15.9725 4.68426 16.1763 4.16553 16.1763V16.3763ZM2.91649 15.835C3.20278 16.1878 3.64977 16.3763 4.16553 16.3763V16.1763C3.69838 16.1763 3.31333 16.0066 3.07179 15.7089L2.91649 15.835ZM2.65075 14.4708C2.53401 14.987 2.62384 15.4742 2.91648 15.8349L3.0718 15.7089C2.82489 15.4046 2.73991 14.9833 2.84583 14.5149L2.65075 14.4708ZM3.59497 13.0158C3.11109 13.4083 2.77449 13.924 2.65076 14.4708L2.84583 14.5149C2.95842 14.0173 3.26733 13.5391 3.72095 13.1712L3.59497 13.0158ZM5.24438 12.3916C4.67377 12.3916 4.08881 12.6152 3.59496 13.0158L3.72096 13.1712C4.18414 12.7954 4.72565 12.5916 5.24438 12.5916V12.3916ZM6.49342 12.9329C6.20713 12.5801 5.76015 12.3916 5.24438 12.3916V12.5916C5.71153 12.5916 6.09658 12.7613 6.33812 13.059L6.49342 12.9329ZM6.76759 13.5014C6.71897 13.2913 6.62762 13.0983 6.49343 12.9329L6.33812 13.0589C6.45197 13.1993 6.53054 13.3642 6.57274 13.5465L6.76759 13.5014ZM6.77127 13.5181L6.76785 13.5025L6.57248 13.5454L6.5759 13.561L6.77127 13.5181ZM6.75915 14.2971C6.82088 14.0244 6.82429 13.7604 6.77127 13.5182L6.5759 13.5609C6.622 13.7715 6.62004 14.0057 6.56409 14.253L6.75915 14.2971ZM15.1283 11.719C15.0157 12.2165 14.7066 12.6947 14.2532 13.0626L14.3792 13.2179C14.8628 12.8255 15.1996 12.3098 15.3234 11.7631L15.1283 11.719ZM15.1722 11.3715C15.1695 11.4837 15.1552 11.5999 15.1283 11.719L15.3234 11.7631C15.3531 11.6315 15.3691 11.5022 15.3722 11.3764L15.1722 11.3715ZM15.1721 11.3729L15.1723 11.3784L15.3721 11.3695L15.3719 11.364L15.1721 11.3729ZM15.172 11.2849V11.3685H15.372V11.2849H15.172ZM14.9021 10.5249C15.071 10.7328 15.1633 10.9942 15.172 11.2878L15.3719 11.2819C15.3621 10.9491 15.2567 10.6442 15.0574 10.3988L14.9021 10.5249ZM13.8086 10.0575C14.2758 10.0575 14.6608 10.2272 14.9021 10.5248L15.0574 10.3989C14.7714 10.046 14.3243 9.85746 13.8086 9.85746V10.0575ZM12.2852 10.6371C12.7483 10.2613 13.2899 10.0575 13.8086 10.0575V9.85746C13.238 9.85746 12.653 10.0811 12.1592 10.4818L12.2852 10.6371ZM11.41 11.9808C11.5226 11.4833 11.8318 11.005 12.2852 10.6371L12.1592 10.4818C11.6756 10.8742 11.3387 11.3899 11.215 11.9367L11.41 11.9808ZM11.636 13.1749C11.3891 12.8706 11.3041 12.4492 11.41 11.9808L11.215 11.9367C11.0982 12.4529 11.188 12.9402 11.4807 13.3009L11.636 13.1749ZM12.7297 13.6423C12.2626 13.6423 11.8775 13.4725 11.636 13.1749L11.4807 13.3009C11.767 13.6537 12.214 13.8423 12.7297 13.8423V13.6423ZM14.2532 13.0626C13.79 13.4384 13.2485 13.6423 12.7297 13.6423V13.8423C13.3004 13.8423 13.8853 13.6186 14.3792 13.2179L14.2532 13.0626Z" fill="white"/>
</g>
</g>
</g>
</svg>
