<svg width="18" height="18" viewBox="0 0 18 18" fill="none" xmlns="http://www.w3.org/2000/svg">
<g id="Music">
<rect id="Rectangle 4 Copy 17" width="18" height="18" fill="#F4F7FB" fill-opacity="0.01"/>
<g id="music">
<g id="Shape">
<path fill-rule="evenodd" clip-rule="evenodd" d="M15.9543 11.2478V4.49973V1.3815C15.9543 1.27386 15.9036 1.17245 15.8173 1.10809C15.7418 1.0517 15.647 1.02933 15.5552 1.0452C15.5421 1.04749 15.5291 1.05054 15.5161 1.05435L6.9082 3.60727C6.76331 3.65024 6.66406 3.78333 6.66406 3.93439V7.05273V12.2844C6.28662 11.976 5.79578 11.8091 5.24438 11.8091C4.5437 11.8091 3.82764 12.0771 3.22803 12.5635C2.64124 13.0397 2.23438 13.6714 2.08276 14.3423C1.92444 15.0431 2.05994 15.7035 2.46436 16.2018C2.86023 16.6899 3.46448 16.9587 4.16553 16.9587C4.86621 16.9587 5.58228 16.6908 6.18188 16.2043C6.7688 15.7281 7.17554 15.0964 7.32715 14.4255C7.40674 14.0734 7.41199 13.7315 7.34631 13.4153V7.30743L9.00549 6.81537C9.18604 6.76178 9.28906 6.57193 9.23547 6.39127C9.18188 6.21063 8.99207 6.1077 8.8114 6.16119L7.34644 6.5957V4.18918L15.2721 1.83859V4.24512L9.82324 5.86118C9.6427 5.91473 9.53967 6.10464 9.59326 6.28528C9.64685 6.46588 9.83655 6.56879 10.0173 6.51535L15.2721 4.95685V9.7865C14.8893 9.45474 14.3813 9.27515 13.8087 9.27515C13.108 9.27515 12.392 9.54315 11.7925 10.0296C11.2054 10.5058 10.7987 11.1375 10.6471 11.8084C10.4886 12.5091 10.6241 13.1695 11.0286 13.668C11.4246 14.1559 12.0287 14.4247 12.7299 14.4247C13.4305 14.4247 14.1466 14.1567 14.7462 13.6703C15.3331 13.1941 15.7399 12.5623 15.8915 11.8915C15.9121 11.7998 15.9277 11.7089 15.9385 11.6188C15.9481 11.5381 15.9537 11.4581 15.9553 11.3791C15.9563 11.335 15.9559 11.2913 15.9543 11.2478ZM6.66162 14.275C6.54358 14.7972 6.22058 15.2942 5.75195 15.6744C5.27356 16.0626 4.71021 16.2763 4.16553 16.2763C3.67395 16.2763 3.25806 16.0972 2.99414 15.7719C2.72424 15.4394 2.63696 14.9851 2.74829 14.4928C2.86633 13.9706 3.18933 13.4737 3.65796 13.0935C4.13635 12.7053 4.69971 12.4916 5.24426 12.4916C5.73584 12.4916 6.15186 12.6707 6.41565 12.9959C6.53979 13.1488 6.62476 13.3278 6.67004 13.524L6.67358 13.5396C6.72314 13.766 6.72034 14.015 6.66162 14.275ZM14.3163 13.1403C14.7848 12.7601 15.1078 12.2632 15.2258 11.741C15.2542 11.6157 15.2694 11.493 15.2723 11.374L15.2721 11.3685V11.2849C15.2628 10.9716 15.1638 10.6885 14.98 10.4619C14.7161 10.1366 14.3002 9.95746 13.8087 9.95746C13.2642 9.95746 12.7008 10.1712 12.2224 10.5594C11.7538 10.9396 11.4307 11.4366 11.3126 11.9587C11.2014 12.451 11.2886 12.9054 11.5585 13.2379C11.8224 13.5631 12.2383 13.7423 12.7299 13.7423C13.2744 13.7423 13.8378 13.5285 14.3163 13.1403Z" fill="#0C49CD"/>
<path d="M15.9543 11.2478H15.8543L15.8544 11.2515L15.9543 11.2478ZM15.8173 1.10809L15.7574 1.18819L15.7575 1.18826L15.8173 1.10809ZM15.5552 1.0452L15.5381 0.946658L15.5379 0.946697L15.5552 1.0452ZM15.5161 1.05435L15.4878 0.958433L15.4877 0.958479L15.5161 1.05435ZM6.9082 3.60727L6.93663 3.70314L6.93664 3.70314L6.9082 3.60727ZM6.66406 12.2844L6.60079 12.3618L6.76406 12.4952V12.2844H6.66406ZM3.22803 12.5635L3.16503 12.4859L3.16501 12.4859L3.22803 12.5635ZM2.08276 14.3423L1.98522 14.3203L1.98522 14.3203L2.08276 14.3423ZM2.46436 16.2018L2.54202 16.1388L2.542 16.1388L2.46436 16.2018ZM6.18188 16.2043L6.24489 16.282L6.24489 16.282L6.18188 16.2043ZM7.32715 14.4255L7.22961 14.4035L7.22961 14.4035L7.32715 14.4255ZM7.34631 13.4153H7.24631V13.4256L7.2484 13.4356L7.34631 13.4153ZM7.34631 7.30743L7.31788 7.21156L7.24631 7.23279V7.30743H7.34631ZM9.00549 6.81537L9.03393 6.91124L9.03395 6.91123L9.00549 6.81537ZM9.23547 6.39127L9.33135 6.36283L9.33134 6.36282L9.23547 6.39127ZM8.8114 6.16119L8.78301 6.06531L8.78297 6.06532L8.8114 6.16119ZM7.34644 6.5957H7.24644V6.72967L7.37487 6.69158L7.34644 6.5957ZM7.34644 4.18918L7.318 4.09331L7.24644 4.11453V4.18918H7.34644ZM15.2721 1.83859H15.3721V1.70463L15.2437 1.74272L15.2721 1.83859ZM15.2721 4.24512L15.3005 4.34099L15.3721 4.31976V4.24512H15.2721ZM9.82324 5.86118L9.79481 5.7653L9.7948 5.76531L9.82324 5.86118ZM9.59326 6.28528L9.49739 6.31372L9.49739 6.31372L9.59326 6.28528ZM10.0173 6.51535L10.0457 6.61125L10.0458 6.61122L10.0173 6.51535ZM15.2721 4.95685H15.3721V4.82288L15.2437 4.86098L15.2721 4.95685ZM15.2721 9.7865L15.2066 9.86207L15.3721 10.0055V9.7865H15.2721ZM11.7925 10.0296L11.8555 10.1073L11.8555 10.1073L11.7925 10.0296ZM10.6471 11.8084L10.7446 11.8304L10.7446 11.8304L10.6471 11.8084ZM11.0286 13.668L10.9509 13.731L10.9509 13.731L11.0286 13.668ZM14.7462 13.6703L14.8092 13.7479L14.8092 13.7479L14.7462 13.6703ZM15.8915 11.8915L15.989 11.9136L15.989 11.9135L15.8915 11.8915ZM15.9385 11.6188L15.8392 11.607L15.8392 11.607L15.9385 11.6188ZM15.9553 11.3791L15.8553 11.3769L15.8553 11.3771L15.9553 11.3791ZM5.75195 15.6744L5.68895 15.5967L5.68894 15.5967L5.75195 15.6744ZM6.66162 14.275L6.75916 14.2971L6.75916 14.2971L6.66162 14.275ZM2.99414 15.7719L3.07179 15.7089L3.07178 15.7089L2.99414 15.7719ZM2.74829 14.4928L2.84583 14.5149L2.84583 14.5149L2.74829 14.4928ZM3.65796 13.0935L3.72096 13.1712L3.72097 13.1712L3.65796 13.0935ZM6.41565 12.9959L6.33799 13.0589L6.33802 13.059L6.41565 12.9959ZM6.67004 13.524L6.76756 13.5018L6.76748 13.5015L6.67004 13.524ZM6.67358 13.5396L6.77127 13.5182L6.7711 13.5174L6.67358 13.5396ZM15.2258 11.741L15.3234 11.7631L15.3234 11.7631L15.2258 11.741ZM14.3163 13.1403L14.3793 13.2179L14.3793 13.2179L14.3163 13.1403ZM15.2723 11.374L15.3725 11.3764L15.3722 11.3695L15.2723 11.374ZM15.2721 11.3685H15.172L15.1722 11.3729L15.2721 11.3685ZM15.2721 11.2849H15.3721L15.3721 11.2819L15.2721 11.2849ZM14.98 10.4619L15.0576 10.3989L15.0576 10.3988L14.98 10.4619ZM12.2224 10.5594L12.2854 10.6371L12.2854 10.6371L12.2224 10.5594ZM11.3126 11.9587L11.2151 11.9367L11.2151 11.9367L11.3126 11.9587ZM11.5585 13.2379L11.6361 13.1749L11.6361 13.1749L11.5585 13.2379ZM15.8543 4.49973V11.2478H16.0543V4.49973H15.8543ZM15.8543 1.3815V4.49973H16.0543V1.3815H15.8543ZM15.7575 1.18826C15.8184 1.23371 15.8543 1.30538 15.8543 1.3815H16.0543C16.0543 1.24235 15.9887 1.1112 15.877 1.02793L15.7575 1.18826ZM15.5722 1.14373C15.6371 1.13253 15.7041 1.14832 15.7574 1.18819L15.8771 1.028C15.7796 0.95507 15.6569 0.926129 15.5381 0.946658L15.5722 1.14373ZM15.5444 1.15027C15.5537 1.14752 15.5631 1.14533 15.5724 1.1437L15.5379 0.946697C15.5211 0.949637 15.5044 0.95355 15.4878 0.958433L15.5444 1.15027ZM6.93664 3.70314L15.5445 1.15022L15.4877 0.958479L6.87977 3.5114L6.93664 3.70314ZM6.76406 3.93439C6.76406 3.82757 6.83422 3.73351 6.93663 3.70314L6.87977 3.5114C6.69239 3.56696 6.56406 3.73908 6.56406 3.93439H6.76406ZM6.76406 7.05273V3.93439H6.56406V7.05273H6.76406ZM6.76406 12.2844V7.05273H6.56406V12.2844H6.76406ZM5.24438 11.9091C5.77537 11.9091 6.24316 12.0696 6.60079 12.3618L6.72733 12.207C6.33008 11.8824 5.81618 11.7091 5.24438 11.7091V11.9091ZM3.29103 12.6412C3.87476 12.1676 4.56902 11.9091 5.24438 11.9091V11.7091C4.51838 11.7091 3.78051 11.9865 3.16503 12.4859L3.29103 12.6412ZM2.1803 14.3644C2.32647 13.7176 2.71983 13.1047 3.29104 12.6412L3.16501 12.4859C2.56264 12.9747 2.14228 13.6253 1.98522 14.3203L2.1803 14.3644ZM2.542 16.1388C2.15939 15.6673 2.02782 15.0393 2.1803 14.3644L1.98522 14.3203C1.82106 15.0469 1.96049 15.7396 2.38671 16.2649L2.542 16.1388ZM4.16553 16.8587C3.49067 16.8587 2.91655 16.6006 2.54202 16.1388L2.38669 16.2648C2.80391 16.7792 3.43829 17.0587 4.16553 17.0587V16.8587ZM6.11888 16.1267C5.53515 16.6002 4.84089 16.8587 4.16553 16.8587V17.0587C4.89153 17.0587 5.6294 16.7813 6.24489 16.282L6.11888 16.1267ZM7.22961 14.4035C7.08344 15.0503 6.6902 15.6631 6.11888 16.1267L6.24489 16.282C6.8474 15.7931 7.26764 15.1425 7.42469 14.4475L7.22961 14.4035ZM7.2484 13.4356C7.31092 13.7367 7.30633 14.0641 7.22961 14.4035L7.42469 14.4476C7.50714 14.0828 7.51306 13.7264 7.44422 13.395L7.2484 13.4356ZM7.24631 7.30743V13.4153H7.44631V7.30743H7.24631ZM8.97706 6.7195L7.31788 7.21156L7.37475 7.40331L9.03393 6.91124L8.97706 6.7195ZM9.1396 6.4197C9.17749 6.54742 9.10465 6.68162 8.97704 6.7195L9.03395 6.91123C9.26742 6.84193 9.40064 6.59644 9.33135 6.36283L9.1396 6.4197ZM8.83979 6.25708C8.96756 6.21924 9.10173 6.29204 9.1396 6.41971L9.33134 6.36282C9.26204 6.12922 9.01657 5.99615 8.78301 6.06531L8.83979 6.25708ZM7.37487 6.69158L8.83984 6.25707L8.78297 6.06532L7.318 6.49983L7.37487 6.69158ZM7.24644 4.18918V6.5957H7.44644V4.18918H7.24644ZM15.2437 1.74272L7.318 4.09331L7.37487 4.28505L15.3005 1.93446L15.2437 1.74272ZM15.3721 4.24512V1.83859H15.1721V4.24512H15.3721ZM9.85168 5.95705L15.3005 4.34099L15.2437 4.14925L9.79481 5.7653L9.85168 5.95705ZM9.68913 6.25684C9.65125 6.12914 9.7241 5.99489 9.85168 5.95705L9.7948 5.76531C9.5613 5.83457 9.4281 6.08015 9.49739 6.31372L9.68913 6.25684ZM9.98899 6.41945C9.86105 6.45727 9.727 6.38446 9.68913 6.25683L9.49739 6.31372C9.5667 6.54731 9.81204 6.68031 10.0457 6.61125L9.98899 6.41945ZM15.2437 4.86098L9.9889 6.41948L10.0458 6.61122L15.3005 5.05272L15.2437 4.86098ZM15.3721 9.7865V4.95685H15.1721V9.7865H15.3721ZM13.8087 9.37515C14.3602 9.37515 14.8441 9.54788 15.2066 9.86207L15.3376 9.71093C14.9345 9.36161 14.4025 9.17515 13.8087 9.17515V9.37515ZM11.8555 10.1073C12.4391 9.63369 13.1334 9.37515 13.8087 9.37515V9.17515C13.0827 9.17515 12.3448 9.45262 11.7295 9.95195L11.8555 10.1073ZM10.7446 11.8304C10.8908 11.1836 11.284 10.5708 11.8555 10.1073L11.7295 9.95194C11.1268 10.4408 10.7066 11.0914 10.5496 11.7863L10.7446 11.8304ZM11.1062 13.605C10.7236 13.1334 10.592 12.5053 10.7446 11.8304L10.5496 11.7863C10.3853 12.5129 10.5247 13.2057 10.9509 13.731L11.1062 13.605ZM12.7299 14.3247C12.0549 14.3247 11.4809 14.0666 11.1062 13.605L10.9509 13.731C11.3683 14.2453 12.0025 14.5247 12.7299 14.5247V14.3247ZM14.6832 13.5926C14.0995 14.0662 13.4052 14.3247 12.7299 14.3247V14.5247C13.4559 14.5247 14.1937 14.2473 14.8092 13.7479L14.6832 13.5926ZM15.7939 11.8695C15.6478 12.5162 15.2545 13.1291 14.6832 13.5926L14.8092 13.7479C15.4117 13.2591 15.832 12.6085 15.989 11.9136L15.7939 11.8695ZM15.8392 11.607C15.8289 11.6936 15.8138 11.7812 15.7939 11.8696L15.989 11.9135C16.0104 11.8185 16.0266 11.7242 16.0378 11.6307L15.8392 11.607ZM15.8553 11.3771C15.8538 11.4527 15.8484 11.5294 15.8392 11.607L16.0378 11.6307C16.0478 11.5468 16.0536 11.4635 16.0553 11.3811L15.8553 11.3771ZM15.8544 11.2515C15.8559 11.293 15.8563 11.3348 15.8553 11.3769L16.0553 11.3813C16.0563 11.3352 16.0559 11.2895 16.0543 11.2442L15.8544 11.2515ZM5.81496 15.752C6.29868 15.3596 6.63555 14.8439 6.75916 14.2971L6.56408 14.253C6.45161 14.7505 6.14248 15.2288 5.68895 15.5967L5.81496 15.752ZM4.16553 16.3763C4.73614 16.3763 5.32122 16.1527 5.81496 15.752L5.68894 15.5967C5.2259 15.9725 4.68427 16.1763 4.16553 16.1763V16.3763ZM2.91649 15.835C3.20278 16.1878 3.64964 16.3763 4.16553 16.3763V16.1763C3.69826 16.1763 3.31333 16.0066 3.07179 15.7089L2.91649 15.835ZM2.65075 14.4708C2.53402 14.987 2.62371 15.4742 2.9165 15.835L3.07178 15.7089C2.82478 15.4046 2.73991 14.9833 2.84583 14.5149L2.65075 14.4708ZM3.59496 13.0158C3.11123 13.4083 2.77436 13.924 2.65075 14.4708L2.84583 14.5149C2.9583 14.0173 3.26743 13.5391 3.72096 13.1712L3.59496 13.0158ZM5.24426 12.3916C4.67377 12.3916 4.08869 12.6152 3.59495 13.0159L3.72097 13.1712C4.18402 12.7954 4.72564 12.5916 5.24426 12.5916V12.3916ZM6.49331 12.9329C6.20713 12.5801 5.76014 12.3916 5.24426 12.3916V12.5916C5.71154 12.5916 6.09658 12.7613 6.33799 13.0589L6.49331 12.9329ZM6.76748 13.5015C6.71898 13.2914 6.62762 13.0983 6.49327 12.9329L6.33802 13.059C6.45197 13.1993 6.53053 13.3642 6.57261 13.5464L6.76748 13.5015ZM6.7711 13.5174L6.76756 13.5018L6.57253 13.5461L6.57607 13.5617L6.7711 13.5174ZM6.75916 14.2971C6.82075 14.0244 6.8243 13.7604 6.77127 13.5182L6.5759 13.5609C6.62199 13.7715 6.61993 14.0057 6.56408 14.253L6.75916 14.2971ZM15.1283 11.719C15.0158 12.2165 14.7067 12.6947 14.2533 13.0626L14.3793 13.2179C14.8629 12.8255 15.1998 12.3098 15.3234 11.7631L15.1283 11.719ZM15.1724 11.3715C15.1696 11.4836 15.1552 11.5998 15.1283 11.719L15.3234 11.7631C15.3531 11.6316 15.3692 11.5023 15.3723 11.3764L15.1724 11.3715ZM15.1722 11.3729L15.1724 11.3784L15.3722 11.3695L15.372 11.364L15.1722 11.3729ZM15.1721 11.2849V11.3685H15.3721V11.2849H15.1721ZM14.9023 10.5248C15.071 10.7328 15.1634 10.9943 15.1721 11.2878L15.3721 11.2819C15.3622 10.949 15.2567 10.6442 15.0576 10.3989L14.9023 10.5248ZM13.8087 10.0575C14.2759 10.0575 14.6608 10.2272 14.9023 10.5249L15.0576 10.3988C14.7713 10.046 14.3245 9.85746 13.8087 9.85746V10.0575ZM12.2854 10.6371C12.7485 10.2613 13.2901 10.0575 13.8087 10.0575V9.85746C13.2382 9.85746 12.6531 10.0811 12.1594 10.4818L12.2854 10.6371ZM11.4102 11.9808C11.5226 11.4833 11.8319 11.005 12.2854 10.6371L12.1594 10.4818C11.6757 10.8742 11.3387 11.3899 11.2151 11.9367L11.4102 11.9808ZM11.6361 13.1749C11.3891 12.8706 11.3044 12.4492 11.4102 11.9808L11.2151 11.9367C11.0985 12.4529 11.188 12.9402 11.4808 13.3009L11.6361 13.1749ZM12.7299 13.6423C12.2626 13.6423 11.8777 13.4725 11.6361 13.1749L11.4808 13.3009C11.7671 13.6537 12.214 13.8423 12.7299 13.8423V13.6423ZM14.2533 13.0626C13.7901 13.4384 13.2485 13.6423 12.7299 13.6423V13.8423C13.3004 13.8423 13.8854 13.6186 14.3793 13.2179L14.2533 13.0626Z" fill="#0C49CD"/>
</g>
</g>
</g>
</svg>
