<svg width="18" height="18" viewBox="0 0 18 18" fill="none" xmlns="http://www.w3.org/2000/svg">
<g id="Oil Chemestry">
<rect id="Rectangle 4 Copy 9" width="18" height="18" fill="#F4F7FB" fill-opacity="0.01"/>
<g id="oil-barrel">
<g id="Shape">
<path fill-rule="evenodd" clip-rule="evenodd" d="M3.80005 2.59998H15C15.441 2.59998 15.8 2.24109 15.8 1.80005C15.8 1.35889 15.441 1 15 1H3.80005C3.35889 1 3 1.35889 3 1.80005C3 2.24109 3.35889 2.59998 3.80005 2.59998ZM3.58423 1.64337C3.63269 1.57672 3.7113 1.53333 3.80005 1.53333H15C15.147 1.53333 15.2667 1.65283 15.2667 1.80005C15.2667 1.94714 15.147 2.06665 15 2.06665H3.80005C3.65283 2.06665 3.53333 1.94714 3.53333 1.80005C3.53333 1.74152 3.55225 1.68738 3.58423 1.64337Z" fill="#0C49CD"/>
<path d="M3.58423 1.64337L3.50335 1.58456L3.50334 1.58458L3.58423 1.64337ZM15 2.49998H3.80005V2.69998H15V2.49998ZM15.7 1.80005C15.7 2.18584 15.3858 2.49998 15 2.49998V2.69998C15.4962 2.69998 15.9 2.29634 15.9 1.80005H15.7ZM15 1.1C15.3858 1.1 15.7 1.41413 15.7 1.80005H15.9C15.9 1.30365 15.4963 0.9 15 0.9V1.1ZM3.80005 1.1H15V0.9H3.80005V1.1ZM3.1 1.80005C3.1 1.41412 3.41412 1.1 3.80005 1.1V0.9C3.30366 0.9 2.9 1.30366 2.9 1.80005H3.1ZM3.80005 2.49998C3.41411 2.49998 3.1 2.18585 3.1 1.80005H2.9C2.9 2.29633 3.30367 2.69998 3.80005 2.69998V2.49998ZM3.80005 1.43333C3.67792 1.43333 3.5698 1.49318 3.50335 1.58456L3.66511 1.70218C3.69558 1.66027 3.74469 1.63333 3.80005 1.63333V1.43333ZM15 1.43333H3.80005V1.63333H15V1.43333ZM15.3667 1.80005C15.3667 1.59754 15.2021 1.43333 15 1.43333V1.63333C15.0918 1.63333 15.1667 1.70812 15.1667 1.80005H15.3667ZM15 2.16665C15.2021 2.16665 15.3667 2.00246 15.3667 1.80005H15.1667C15.1667 1.89183 15.0918 1.96665 15 1.96665V2.16665ZM3.80005 2.16665H15V1.96665H3.80005V2.16665ZM3.43333 1.80005C3.43333 2.0024 3.59763 2.16665 3.80005 2.16665V1.96665C3.70803 1.96665 3.63333 1.89189 3.63333 1.80005H3.43333ZM3.50334 1.58458C3.4594 1.64503 3.43333 1.71961 3.43333 1.80005H3.63333C3.63333 1.76342 3.64509 1.72972 3.66512 1.70216L3.50334 1.58458Z" fill="#0C49CD"/>
</g>
<g id="Shape_2">
<path fill-rule="evenodd" clip-rule="evenodd" d="M3.80005 17H15C15.441 17 15.8 16.6411 15.8 16.2C15.8 15.7589 15.441 15.4 15 15.4H3.80005C3.35889 15.4 3 15.7589 3 16.2C3 16.6411 3.35889 17 3.80005 17ZM3.53333 16.2C3.53333 16.0529 3.65283 15.9333 3.80005 15.9333H15C15.147 15.9333 15.2667 16.0529 15.2667 16.2C15.2667 16.3472 15.147 16.4667 15 16.4667H3.80005C3.65283 16.4667 3.53333 16.3472 3.53333 16.2Z" fill="#0C49CD"/>
<path d="M15 16.9H3.80005V17.1H15V16.9ZM15.7 16.2C15.7 16.5859 15.3858 16.9 15 16.9V17.1C15.4963 17.1 15.9 16.6964 15.9 16.2H15.7ZM15 15.5C15.3858 15.5 15.7 15.8142 15.7 16.2H15.9C15.9 15.7037 15.4962 15.3 15 15.3V15.5ZM3.80005 15.5H15V15.3H3.80005V15.5ZM3.1 16.2C3.1 15.8141 3.41411 15.5 3.80005 15.5V15.3C3.30367 15.3 2.9 15.7037 2.9 16.2H3.1ZM3.80005 16.9C3.41412 16.9 3.1 16.5859 3.1 16.2H2.9C2.9 16.6963 3.30366 17.1 3.80005 17.1V16.9ZM3.80005 15.8333C3.59763 15.8333 3.43333 15.9976 3.43333 16.2H3.63333C3.63333 16.1081 3.70803 16.0333 3.80005 16.0333V15.8333ZM15 15.8333H3.80005V16.0333H15V15.8333ZM15.3667 16.2C15.3667 15.9975 15.2021 15.8333 15 15.8333V16.0333C15.0918 16.0333 15.1667 16.1082 15.1667 16.2H15.3667ZM15 16.5667C15.2021 16.5667 15.3667 16.4025 15.3667 16.2H15.1667C15.1667 16.2919 15.0918 16.3667 15 16.3667V16.5667ZM3.80005 16.5667H15V16.3667H3.80005V16.5667ZM3.43333 16.2C3.43333 16.4024 3.5976 16.5667 3.80005 16.5667V16.3667C3.70806 16.3667 3.63333 16.2919 3.63333 16.2H3.43333Z" fill="#0C49CD"/>
</g>
<g id="Shape_3">
<path fill-rule="evenodd" clip-rule="evenodd" d="M5.66663 10.4896C5.66663 12.4619 7.34131 14.0667 9.40002 14.0667C11.4586 14.0667 13.1333 12.4619 13.1333 10.4896C13.1333 7.43152 9.72913 4.14563 9.58398 4.00696C9.48108 3.90857 9.31897 3.90857 9.2157 4.00696C9.07092 4.14563 5.66663 7.43152 5.66663 10.4896ZM6.19995 10.4896C6.19995 8.04883 8.6936 5.30554 9.40002 4.57788C10.1067 5.3053 12.6 8.04614 12.6 10.4896C12.6 12.168 11.1646 13.5333 9.40002 13.5333C7.6355 13.5333 6.19995 12.168 6.19995 10.4896Z" fill="#0C49CD"/>
<path d="M9.58398 4.00696L9.51488 4.07924L9.5149 4.07926L9.58398 4.00696ZM9.2157 4.00696L9.14672 3.93456L9.14653 3.93474L9.2157 4.00696ZM9.40002 4.57788L9.47175 4.5082L9.4 4.43434L9.32827 4.50823L9.40002 4.57788ZM9.40002 13.9667C7.39247 13.9667 5.76663 12.4027 5.76663 10.4896H5.56663C5.56663 12.5211 7.29015 14.1667 9.40002 14.1667V13.9667ZM13.0333 10.4896C13.0333 12.4027 11.4075 13.9667 9.40002 13.9667V14.1667C11.5098 14.1667 13.2333 12.5211 13.2333 10.4896H13.0333ZM9.5149 4.07926C9.58528 4.1465 10.4676 4.9977 11.3316 6.21149C12.1981 7.42884 13.0333 8.99317 13.0333 10.4896H13.2333C13.2333 8.92797 12.3664 7.3203 11.4945 6.09551C10.6202 4.86717 9.72783 4.00609 9.65307 3.93465L9.5149 4.07926ZM9.28468 4.07936C9.34939 4.0177 9.4507 4.01788 9.51488 4.07924L9.65309 3.93468C9.51146 3.79926 9.28855 3.79944 9.14672 3.93456L9.28468 4.07936ZM5.76663 10.4896C5.76663 8.99317 6.60182 7.42884 7.46834 6.21149C8.33233 4.99771 9.21458 4.1465 9.28487 4.07917L9.14653 3.93474C9.07204 4.00608 8.17976 4.86716 7.3054 6.09551C6.43358 7.3203 5.56663 8.92797 5.56663 10.4896H5.76663ZM9.32827 4.50823C8.97287 4.87432 8.16809 5.74713 7.45154 6.83637C6.73697 7.92259 6.09995 9.23909 6.09995 10.4896H6.29995C6.29995 9.29936 6.90976 8.02382 7.61862 6.94629C8.3255 5.87176 9.12076 5.0091 9.47177 4.64754L9.32827 4.50823ZM12.7 10.4896C12.7 9.23776 12.0631 7.9212 11.3485 6.83526C10.632 5.74632 9.82728 4.87417 9.47175 4.5082L9.3283 4.64756C9.67943 5.00901 10.4747 5.87099 11.1815 6.94519C11.8902 8.0224 12.5 9.298 12.5 10.4896H12.7ZM9.40002 13.6333C11.215 13.6333 12.7 12.2279 12.7 10.4896H12.5C12.5 12.1081 11.1141 13.4333 9.40002 13.4333V13.6333ZM6.09995 10.4896C6.09995 12.2279 7.58505 13.6333 9.40002 13.6333V13.4333C7.68595 13.4333 6.29995 12.1081 6.29995 10.4896H6.09995Z" fill="#0C49CD"/>
</g>
<path id="Shape_4" d="M7.26856 11.7864C7.17444 11.7864 7.0835 11.7366 7.03491 11.6486C6.83814 11.292 6.73389 10.8912 6.73328 10.4896C6.73303 10.3424 6.85254 10.2229 6.99976 10.2227H7C7.14722 10.2227 7.26636 10.3419 7.26672 10.489C7.26697 10.801 7.34827 11.1128 7.50183 11.3906C7.57312 11.5194 7.52612 11.6819 7.39734 11.7531C7.35632 11.7758 7.31201 11.7864 7.26856 11.7864Z" fill="#0C49CD" stroke="#0C49CD" stroke-width="0.2"/>
<path id="Shape_5" d="M9.40005 13C9.00698 12.9998 8.63125 12.9064 8.21731 12.7067C8.08486 12.6427 8.02908 12.4832 8.09304 12.3507C8.15713 12.2179 8.31655 12.1624 8.44912 12.2265C8.78799 12.3899 9.09011 12.4662 9.40005 12.4664C9.54726 12.4664 9.66665 12.5858 9.66665 12.7333C9.66665 12.8809 9.54726 13 9.40005 13Z" fill="#0C49CD" stroke="#0C49CD" stroke-width="0.2"/>
<g id="Shape_6">
<path fill-rule="evenodd" clip-rule="evenodd" d="M12.4167 8.73328H14.7333C14.8805 8.73328 15 8.61414 15 8.46667V2.33337C15 2.18591 14.8805 2.06665 14.7333 2.06665H4.06665C3.91943 2.06665 3.80005 2.18591 3.80005 2.33337V8.46667C3.80005 8.61414 3.91943 8.73328 4.06665 8.73328H6.38318C6.45654 8.73328 6.5249 8.70325 6.5741 8.65277C6.59753 8.62878 6.61658 8.60016 6.62988 8.56799C7.37329 6.76025 8.87683 5.11682 9.40002 4.57788C9.92322 5.11682 11.4269 6.76025 12.1702 8.56799C12.2112 8.66797 12.3088 8.73328 12.4167 8.73328ZM14.4667 8.19995H12.5934C11.6182 5.96582 9.66882 4.08801 9.58423 4.0072C9.48108 3.90881 9.31873 3.90881 9.2157 4.0072C9.13147 4.08801 7.18164 5.96582 6.20667 8.19995H4.33337V2.59998H14.4667V8.19995Z" fill="#0C49CD"/>
<path d="M6.5741 8.65277L6.50257 8.58288L6.50248 8.58298L6.5741 8.65277ZM6.62988 8.56799L6.72229 8.60622L6.72237 8.60603L6.62988 8.56799ZM9.40002 4.57788L9.47178 4.50823L9.40002 4.43432L9.32827 4.50823L9.40002 4.57788ZM12.1702 8.56799L12.2627 8.53004L12.2627 8.52997L12.1702 8.56799ZM12.5934 8.19995L12.5017 8.23996L12.5279 8.29995H12.5934V8.19995ZM14.4667 8.19995V8.29995H14.5667V8.19995H14.4667ZM9.58423 4.0072L9.6533 3.93489L9.65325 3.93484L9.58423 4.0072ZM9.2157 4.0072L9.14663 3.93488L9.14647 3.93504L9.2157 4.0072ZM6.20667 8.19995V8.29995H6.27213L6.29832 8.23995L6.20667 8.19995ZM4.33337 8.19995H4.23337V8.29995H4.33337V8.19995ZM4.33337 2.59998V2.49998H4.23337V2.59998H4.33337ZM14.4667 2.59998H14.5667V2.49998H14.4667V2.59998ZM14.7333 8.63328H12.4167V8.83328H14.7333V8.63328ZM14.9 8.46667C14.9 8.55879 14.8254 8.63328 14.7333 8.63328V8.83328C14.9356 8.83328 15.1 8.66948 15.1 8.46667H14.9ZM14.9 2.33337V8.46667H15.1V2.33337H14.9ZM14.7333 2.16665C14.8253 2.16665 14.9 2.2412 14.9 2.33337H15.1C15.1 2.13063 14.9357 1.96665 14.7333 1.96665V2.16665ZM4.06665 2.16665H14.7333V1.96665H4.06665V2.16665ZM3.90005 2.33337C3.90005 2.24114 3.97466 2.16665 4.06665 2.16665V1.96665C3.86421 1.96665 3.70005 2.13068 3.70005 2.33337H3.90005ZM3.90005 8.46667V2.33337H3.70005V8.46667H3.90005ZM4.06665 8.63328C3.9746 8.63328 3.90005 8.55885 3.90005 8.46667H3.70005C3.70005 8.66942 3.86426 8.83328 4.06665 8.83328V8.63328ZM6.38318 8.63328H4.06665V8.83328H6.38318V8.63328ZM6.50248 8.58298C6.47172 8.61454 6.42902 8.63328 6.38318 8.63328V8.83328C6.48407 8.83328 6.57809 8.79195 6.64571 8.72257L6.50248 8.58298ZM6.53748 8.52977C6.52906 8.55011 6.51712 8.568 6.50257 8.58288L6.64562 8.72266C6.67795 8.68957 6.70409 8.6502 6.72229 8.60622L6.53748 8.52977ZM9.32827 4.50823C8.80386 5.04842 7.28855 6.70338 6.5374 8.52996L6.72237 8.60603C7.45803 6.81713 8.9498 5.18522 9.47178 4.64754L9.32827 4.50823ZM12.2627 8.52997C11.5116 6.70338 9.99618 5.04842 9.47178 4.50823L9.32827 4.64754C9.85025 5.18523 11.3421 6.81713 12.0777 8.60602L12.2627 8.52997ZM12.4167 8.63328C12.3493 8.63328 12.2883 8.5924 12.2627 8.53004L12.0776 8.60595C12.1341 8.74354 12.2684 8.83328 12.4167 8.83328V8.63328ZM12.5934 8.29995H14.4667V8.09995H12.5934V8.29995ZM9.51515 4.07951C9.5989 4.15951 11.5351 6.02558 12.5017 8.23996L12.685 8.15995C11.7012 5.90606 9.73875 4.01652 9.6533 3.93489L9.51515 4.07951ZM9.28476 4.07952C9.34912 4.01806 9.45067 4.018 9.51521 4.07956L9.65325 3.93484C9.51149 3.79962 9.28833 3.79956 9.14663 3.93488L9.28476 4.07952ZM6.29832 8.23995C7.26467 6.02559 9.20134 4.15956 9.28493 4.07936L9.14647 3.93504C9.0616 4.01646 7.09862 5.90605 6.11501 8.15995L6.29832 8.23995ZM4.33337 8.29995H6.20667V8.09995H4.33337V8.29995ZM4.23337 2.59998V8.19995H4.43337V2.59998H4.23337ZM14.4667 2.49998H4.33337V2.69998H14.4667V2.49998ZM14.5667 8.19995V2.59998H14.3667V8.19995H14.5667Z" fill="#0C49CD"/>
</g>
<g id="Shape_7">
<path fill-rule="evenodd" clip-rule="evenodd" d="M3.80005 9.80005H6.04431C6.11877 9.80005 6.18726 9.76923 6.23621 9.71851C6.26965 9.6839 6.29395 9.64008 6.30481 9.59045C6.37683 9.2616 6.48608 8.9176 6.62988 8.56799C6.6637 8.4856 6.65442 8.39197 6.60486 8.31812C6.55518 8.24426 6.47205 8.19995 6.38318 8.19995H3.80005C3.35889 8.19995 3 8.55896 3 9C3 9.44104 3.35889 9.80005 3.80005 9.80005ZM3.61511 8.8078C3.66309 8.76166 3.72827 8.73328 3.80005 8.73328H5.99622C5.96777 8.8147 5.94104 8.89575 5.91614 8.97632C5.88599 9.07385 5.85852 9.17072 5.83386 9.26672H3.80005C3.65283 9.26672 3.53333 9.14722 3.53333 9C3.53333 8.9245 3.5647 8.85632 3.61511 8.8078Z" fill="#0C49CD"/>
<path d="M6.23621 9.71851L6.1643 9.64901L6.16425 9.64906L6.23621 9.71851ZM6.30481 9.59045L6.20712 9.56906L6.20712 9.56907L6.30481 9.59045ZM6.62988 8.56799L6.72237 8.60603L6.7224 8.60596L6.62988 8.56799ZM6.60486 8.31812L6.68789 8.26239L6.68783 8.2623L6.60486 8.31812ZM3.61511 8.8078L3.54579 8.73573L3.54577 8.73575L3.61511 8.8078ZM5.99622 8.73328L6.09062 8.76625L6.13707 8.63328H5.99622V8.73328ZM5.91614 8.97632L6.01168 9.00585L6.01168 9.00585L5.91614 8.97632ZM5.83386 9.26672V9.36672H5.91142L5.93072 9.2916L5.83386 9.26672ZM6.04431 9.70005H3.80005V9.90005H6.04431V9.70005ZM6.16425 9.64906C6.13356 9.68087 6.0908 9.70005 6.04431 9.70005V9.90005C6.14675 9.90005 6.24096 9.85759 6.30816 9.78795L6.16425 9.64906ZM6.20712 9.56907C6.20033 9.60009 6.1852 9.62738 6.1643 9.64901L6.30811 9.788C6.3541 9.74042 6.38756 9.68006 6.4025 9.61184L6.20712 9.56907ZM6.5374 8.52995C6.39164 8.88433 6.28053 9.2339 6.20712 9.56906L6.40249 9.61185C6.47313 9.28929 6.58053 8.95087 6.72237 8.60603L6.5374 8.52995ZM6.52182 8.37384C6.55269 8.41983 6.55859 8.47831 6.53737 8.53003L6.7224 8.60596C6.7688 8.49289 6.75615 8.3641 6.68789 8.26239L6.52182 8.37384ZM6.38318 8.29995C6.43869 8.29995 6.49075 8.32765 6.52189 8.37393L6.68783 8.2623C6.6196 8.16088 6.5054 8.09995 6.38318 8.09995V8.29995ZM3.80005 8.29995H6.38318V8.09995H3.80005V8.29995ZM3.1 9C3.1 8.61418 3.41413 8.29995 3.80005 8.29995V8.09995C3.30365 8.09995 2.9 8.50374 2.9 9H3.1ZM3.80005 9.70005C3.41413 9.70005 3.1 9.38582 3.1 9H2.9C2.9 9.49626 3.30365 9.90005 3.80005 9.90005V9.70005ZM3.80005 8.63328C3.70138 8.63328 3.61163 8.6724 3.54579 8.73573L3.68443 8.87987C3.71455 8.85091 3.75517 8.83328 3.80005 8.83328V8.63328ZM5.99622 8.63328H3.80005V8.83328H5.99622V8.63328ZM6.01168 9.00585C6.03621 8.92649 6.06256 8.84659 6.09062 8.76625L5.90181 8.7003C5.87299 8.78281 5.84587 8.86501 5.8206 8.94679L6.01168 9.00585ZM5.93072 9.2916C5.95496 9.19722 5.98198 9.10191 6.01168 9.00585L5.8206 8.94678C5.78999 9.04579 5.76208 9.14421 5.73701 9.24185L5.93072 9.2916ZM3.80005 9.36672H5.83386V9.16672H3.80005V9.36672ZM3.43333 9C3.43333 9.20245 3.5976 9.36672 3.80005 9.36672V9.16672C3.70806 9.16672 3.63333 9.09199 3.63333 9H3.43333ZM3.54577 8.73575C3.47658 8.80234 3.43333 8.89621 3.43333 9H3.63333C3.63333 8.95279 3.65282 8.9103 3.68446 8.87985L3.54577 8.73575Z" fill="#0C49CD"/>
</g>
<g id="Shape_8">
<path fill-rule="evenodd" clip-rule="evenodd" d="M12.7557 9.80005H15C15.441 9.80005 15.8 9.44104 15.8 9C15.8 8.55896 15.441 8.19995 15 8.19995H12.4167C12.3278 8.19995 12.2448 8.24426 12.1952 8.31812C12.1456 8.39221 12.1362 8.48584 12.1702 8.56799C12.2485 8.75879 12.3167 8.94794 12.3741 9.13391C12.422 9.28851 12.4624 9.44098 12.4952 9.59045C12.5221 9.71277 12.6304 9.80005 12.7557 9.80005ZM15 9.26672H12.9662C12.921 9.09143 12.8667 8.91309 12.8037 8.73328H15C15.09 8.73328 15.1698 8.77808 15.2181 8.84662C15.2488 8.89001 15.2667 8.94293 15.2667 9C15.2667 9.14722 15.147 9.26672 15 9.26672Z" fill="#0C49CD"/>
<path d="M12.1952 8.31812L12.1122 8.26239L12.1121 8.26252L12.1952 8.31812ZM12.1702 8.56799L12.2627 8.53L12.2626 8.52981L12.1702 8.56799ZM12.3741 9.13391L12.2786 9.16345L12.2786 9.16348L12.3741 9.13391ZM12.4952 9.59045L12.5929 9.56901L12.5929 9.569L12.4952 9.59045ZM12.9662 9.26672L12.8693 9.29167L12.8887 9.36672H12.9662V9.26672ZM12.8037 8.73328V8.63328H12.6627L12.7093 8.76634L12.8037 8.73328ZM15.2181 8.84662L15.1364 8.90425L15.1364 8.9043L15.2181 8.84662ZM15 9.70005H12.7557V9.90005H15V9.70005ZM15.7 9C15.7 9.38581 15.3858 9.70005 15 9.70005V9.90005C15.4963 9.90005 15.9 9.49627 15.9 9H15.7ZM15 8.29995C15.3858 8.29995 15.7 8.61419 15.7 9H15.9C15.9 8.50373 15.4963 8.09995 15 8.09995V8.29995ZM12.4167 8.29995H15V8.09995H12.4167V8.29995ZM12.2782 8.37384C12.3092 8.32764 12.3611 8.29995 12.4167 8.29995V8.09995C12.2944 8.09995 12.1803 8.16089 12.1122 8.26239L12.2782 8.37384ZM12.2626 8.52981C12.2415 8.47865 12.2472 8.42019 12.2783 8.37371L12.1121 8.26252C12.044 8.36424 12.031 8.49303 12.0777 8.60617L12.2626 8.52981ZM12.4697 9.10437C12.4113 8.9154 12.3421 8.72343 12.2627 8.53L12.0777 8.60599C12.155 8.79415 12.222 8.98047 12.2786 9.16345L12.4697 9.10437ZM12.5929 9.569C12.5594 9.41666 12.5183 9.26149 12.4697 9.10434L12.2786 9.16348C12.3257 9.31554 12.3654 9.4653 12.3976 9.61191L12.5929 9.569ZM12.7557 9.70005C12.6774 9.70005 12.6097 9.64553 12.5929 9.56901L12.3976 9.6119C12.4345 9.78001 12.5833 9.90005 12.7557 9.90005V9.70005ZM12.9662 9.36672H15V9.16672H12.9662V9.36672ZM12.7093 8.76634C12.7714 8.94362 12.8249 9.11926 12.8693 9.29167L13.063 9.24177C13.0171 9.0636 12.962 8.88255 12.8981 8.70022L12.7093 8.76634ZM15 8.63328H12.8037V8.83328H15V8.63328ZM15.2999 8.78898C15.2336 8.69507 15.1239 8.63328 15 8.63328V8.83328C15.056 8.83328 15.106 8.86108 15.1364 8.90425L15.2999 8.78898ZM15.3667 9C15.3667 8.92164 15.342 8.84868 15.2998 8.78894L15.1364 8.9043C15.1555 8.93134 15.1667 8.96422 15.1667 9H15.3667ZM15 9.36672C15.2021 9.36672 15.3667 9.2025 15.3667 9H15.1667C15.1667 9.09193 15.0918 9.16672 15 9.16672V9.36672Z" fill="#0C49CD"/>
</g>
<g id="Shape_9">
<path fill-rule="evenodd" clip-rule="evenodd" d="M4.06665 15.9333H14.7333C14.822 15.9333 14.9006 15.89 14.9492 15.8232C14.9812 15.7793 15 15.7252 15 15.6666V9.53333C15 9.38586 14.8805 9.26672 14.7333 9.26672H12.7557C12.6749 9.26672 12.5986 9.30322 12.548 9.36609C12.4973 9.42908 12.4781 9.51147 12.4952 9.59045C12.5648 9.90796 12.6 10.2107 12.6 10.4896C12.6 12.168 11.1646 13.5333 9.40002 13.5333C7.6355 13.5333 6.19995 12.168 6.19995 10.4896C6.19995 10.2107 6.23523 9.90833 6.30481 9.59045C6.3219 9.51147 6.30261 9.42883 6.25195 9.36609C6.20129 9.30322 6.12512 9.26672 6.04431 9.26672H4.06665C3.91943 9.26672 3.80005 9.38586 3.80005 9.53333V15.6666C3.80005 15.8141 3.91943 15.9333 4.06665 15.9333ZM14.4667 15.4H4.33337V9.80005H5.7229C5.68555 10.0394 5.66663 10.2701 5.66663 10.4896C5.66663 12.4619 7.34131 14.0667 9.40002 14.0667C11.4586 14.0667 13.1333 12.4619 13.1333 10.4896C13.1333 10.2701 13.1144 10.0389 13.077 9.80005H14.4667V15.4Z" fill="#0C49CD"/>
<path d="M14.9492 15.8232L14.8684 15.7644L14.8684 15.7644L14.9492 15.8232ZM12.548 9.36609L12.4701 9.30334L12.47 9.30342L12.548 9.36609ZM12.4952 9.59045L12.3975 9.6116L12.3976 9.61186L12.4952 9.59045ZM6.30481 9.59045L6.4025 9.61184L6.40255 9.6116L6.30481 9.59045ZM6.25195 9.36609L6.17409 9.42883L6.17415 9.42891L6.25195 9.36609ZM4.33337 15.4H4.23337V15.5H4.33337V15.4ZM14.4667 15.4V15.5H14.5667V15.4H14.4667ZM4.33337 9.80005V9.70005H4.23337V9.80005H4.33337ZM5.7229 9.80005L5.8217 9.81547L5.83971 9.70005H5.7229V9.80005ZM13.077 9.80005V9.70005H12.9602L12.9782 9.8155L13.077 9.80005ZM14.4667 9.80005H14.5667V9.70005H14.4667V9.80005ZM14.7333 15.8333H4.06665V16.0333H14.7333V15.8333ZM14.8684 15.7644C14.8378 15.8065 14.7886 15.8333 14.7333 15.8333V16.0333C14.8554 16.0333 14.9635 15.9736 15.0301 15.8821L14.8684 15.7644ZM14.9 15.6666C14.9 15.7034 14.8883 15.7371 14.8684 15.7644L15.0301 15.8821C15.0741 15.8215 15.1 15.7469 15.1 15.6666H14.9ZM14.9 9.53333V15.6666H15.1V9.53333H14.9ZM14.7333 9.36672C14.8254 9.36672 14.9 9.44121 14.9 9.53333H15.1C15.1 9.33052 14.9356 9.16672 14.7333 9.16672V9.36672ZM12.7557 9.36672H14.7333V9.16672H12.7557V9.36672ZM12.6258 9.42883C12.6575 9.38954 12.7052 9.36672 12.7557 9.36672V9.16672C12.6447 9.16672 12.5398 9.21691 12.4701 9.30334L12.6258 9.42883ZM12.593 9.56931C12.5822 9.51955 12.5943 9.46801 12.6259 9.42876L12.47 9.30342C12.4003 9.39014 12.3741 9.5034 12.3975 9.6116L12.593 9.56931ZM12.7 10.4896C12.7 10.2025 12.6638 9.8925 12.5929 9.56905L12.3976 9.61186C12.4658 9.92342 12.5 10.2189 12.5 10.4896H12.7ZM9.40002 13.6333C11.215 13.6333 12.7 12.2279 12.7 10.4896H12.5C12.5 12.1081 11.1141 13.4333 9.40002 13.4333V13.6333ZM6.09995 10.4896C6.09995 12.2279 7.58505 13.6333 9.40002 13.6333V13.4333C7.68595 13.4333 6.29995 12.1081 6.29995 10.4896H6.09995ZM6.20712 9.56907C6.13625 9.89283 6.09995 10.2024 6.09995 10.4896H6.29995C6.29995 10.219 6.33421 9.92382 6.4025 9.61184L6.20712 9.56907ZM6.17415 9.42891C6.2056 9.46786 6.21784 9.51956 6.20707 9.56931L6.40255 9.6116C6.42596 9.50339 6.39963 9.38981 6.32976 9.30327L6.17415 9.42891ZM6.04431 9.36672C6.09484 9.36672 6.14239 9.3895 6.17409 9.42883L6.32982 9.30334C6.2602 9.21694 6.15541 9.16672 6.04431 9.16672V9.36672ZM4.06665 9.36672H6.04431V9.16672H4.06665V9.36672ZM3.90005 9.53333C3.90005 9.44115 3.9746 9.36672 4.06665 9.36672V9.16672C3.86426 9.16672 3.70005 9.33058 3.70005 9.53333H3.90005ZM3.90005 15.6666V9.53333H3.70005V15.6666H3.90005ZM4.06665 15.8333C3.97466 15.8333 3.90005 15.7589 3.90005 15.6666H3.70005C3.70005 15.8693 3.86421 16.0333 4.06665 16.0333V15.8333ZM4.33337 15.5H14.4667V15.3H4.33337V15.5ZM4.23337 9.80005V15.4H4.43337V9.80005H4.23337ZM5.7229 9.70005H4.33337V9.90005H5.7229V9.70005ZM5.76663 10.4896C5.76663 10.2758 5.78506 10.0503 5.8217 9.81547L5.6241 9.78463C5.58603 10.0286 5.56663 10.2644 5.56663 10.4896H5.76663ZM9.40002 13.9667C7.39247 13.9667 5.76663 12.4027 5.76663 10.4896H5.56663C5.56663 12.5211 7.29015 14.1667 9.40002 14.1667V13.9667ZM13.0333 10.4896C13.0333 12.4027 11.4075 13.9667 9.40002 13.9667V14.1667C11.5098 14.1667 13.2333 12.5211 13.2333 10.4896H13.0333ZM12.9782 9.8155C13.0149 10.0498 13.0333 10.2758 13.0333 10.4896H13.2333C13.2333 10.2645 13.2139 10.0281 13.1758 9.7846L12.9782 9.8155ZM14.4667 9.70005H13.077V9.90005H14.4667V9.70005ZM14.5667 15.4V9.80005H14.3667V15.4H14.5667Z" fill="#0C49CD"/>
</g>
</g>
</g>
</svg>
