<svg width="18" height="18" viewBox="0 0 18 18" fill="none" xmlns="http://www.w3.org/2000/svg">
<g id="Oil Chemestry White">
<rect id="Rectangle 4 Copy 9" width="18" height="18" fill="#F4F7FB" fill-opacity="0.01"/>
<g id="oil-barrel">
<g id="Shape">
<path fill-rule="evenodd" clip-rule="evenodd" d="M3.80005 2.59998H15C15.4409 2.59998 15.8 2.24109 15.8 1.80005C15.8 1.35889 15.4409 1 15 1H3.80005C3.35889 1 3 1.35889 3 1.80005C3 2.24109 3.35889 2.59998 3.80005 2.59998ZM3.61816 1.60498C3.66577 1.56055 3.72974 1.53333 3.7998 1.53333H15C15.147 1.53333 15.2666 1.65283 15.2666 1.80005C15.2666 1.94714 15.147 2.06665 15 2.06665H3.7998C3.7334 2.06665 3.67236 2.04218 3.62573 2.00177C3.56909 1.95288 3.5332 1.88062 3.5332 1.80005C3.5332 1.72308 3.56592 1.65369 3.61816 1.60498Z" fill="white"/>
<path d="M3.61816 1.60498L3.68635 1.67813L3.6864 1.67809L3.61816 1.60498ZM3.62573 2.00177L3.69122 1.92619L3.69107 1.92607L3.62573 2.00177ZM15 2.49998H3.80005V2.69998H15V2.49998ZM15.7 1.80005C15.7 2.18583 15.3857 2.49998 15 2.49998V2.69998C15.4961 2.69998 15.9 2.29635 15.9 1.80005H15.7ZM15 1.1C15.3857 1.1 15.7 1.41414 15.7 1.80005H15.9C15.9 1.30364 15.4961 0.9 15 0.9V1.1ZM3.80005 1.1H15V0.9H3.80005V1.1ZM3.1 1.80005C3.1 1.41412 3.41412 1.1 3.80005 1.1V0.9C3.30366 0.9 2.9 1.30366 2.9 1.80005H3.1ZM3.80005 2.49998C3.41411 2.49998 3.1 2.18585 3.1 1.80005H2.9C2.9 2.29633 3.30367 2.69998 3.80005 2.69998V2.49998ZM3.7998 1.43333C3.70338 1.43333 3.61529 1.47088 3.54993 1.53187L3.6864 1.67809C3.71625 1.65022 3.7561 1.63333 3.7998 1.63333V1.43333ZM15 1.43333H3.7998V1.63333H15V1.43333ZM15.3666 1.80005C15.3666 1.5976 15.2022 1.43333 15 1.43333V1.63333C15.0917 1.63333 15.1666 1.70806 15.1666 1.80005H15.3666ZM15 2.16665C15.2022 2.16665 15.3666 2.0024 15.3666 1.80005H15.1666C15.1666 1.89189 15.0918 1.96665 15 1.96665V2.16665ZM3.7998 2.16665H15V1.96665H3.7998V2.16665ZM3.56025 2.07735C3.62438 2.13292 3.70847 2.16665 3.7998 2.16665V1.96665C3.75833 1.96665 3.72034 1.95143 3.69122 1.92619L3.56025 2.07735ZM3.4332 1.80005C3.4332 1.91098 3.48275 2.01045 3.56039 2.07747L3.69107 1.92607C3.65544 1.89531 3.6332 1.85025 3.6332 1.80005H3.4332ZM3.54997 1.53184C3.47834 1.59861 3.4332 1.69413 3.4332 1.80005H3.6332C3.6332 1.75204 3.65349 1.70876 3.68635 1.67813L3.54997 1.53184Z" fill="white"/>
</g>
<g id="Shape_2">
<path fill-rule="evenodd" clip-rule="evenodd" d="M3.80005 17H15C15.4409 17 15.8 16.6411 15.8 16.2C15.8 15.7589 15.4409 15.4 15 15.4H3.80005C3.35889 15.4 3 15.7589 3 16.2C3 16.6411 3.35889 17 3.80005 17ZM3.5332 16.2C3.5332 16.0529 3.65283 15.9333 3.7998 15.9333H15C15.147 15.9333 15.2666 16.0529 15.2666 16.2C15.2666 16.3472 15.147 16.4667 15 16.4667H3.7998C3.65283 16.4667 3.5332 16.3472 3.5332 16.2Z" fill="white"/>
<path d="M15 16.9H3.80005V17.1H15V16.9ZM15.7 16.2C15.7 16.5859 15.3857 16.9 15 16.9V17.1C15.4961 17.1 15.9 16.6964 15.9 16.2H15.7ZM15 15.5C15.3857 15.5 15.7 15.8142 15.7 16.2H15.9C15.9 15.7037 15.4961 15.3 15 15.3V15.5ZM3.80005 15.5H15V15.3H3.80005V15.5ZM3.1 16.2C3.1 15.8141 3.41411 15.5 3.80005 15.5V15.3C3.30367 15.3 2.9 15.7037 2.9 16.2H3.1ZM3.80005 16.9C3.41412 16.9 3.1 16.5859 3.1 16.2H2.9C2.9 16.6963 3.30366 17.1 3.80005 17.1V16.9ZM3.7998 15.8333C3.59763 15.8333 3.4332 15.9976 3.4332 16.2H3.6332C3.6332 16.1081 3.70803 16.0333 3.7998 16.0333V15.8333ZM15 15.8333H3.7998V16.0333H15V15.8333ZM15.3666 16.2C15.3666 15.9976 15.2022 15.8333 15 15.8333V16.0333C15.0918 16.0333 15.1666 16.1081 15.1666 16.2H15.3666ZM15 16.5667C15.2022 16.5667 15.3666 16.4024 15.3666 16.2H15.1666C15.1666 16.2919 15.0917 16.3667 15 16.3667V16.5667ZM3.7998 16.5667H15V16.3667H3.7998V16.5667ZM3.4332 16.2C3.4332 16.4024 3.5976 16.5667 3.7998 16.5667V16.3667C3.70806 16.3667 3.6332 16.2919 3.6332 16.2H3.4332Z" fill="white"/>
</g>
<g id="Shape_3">
<path fill-rule="evenodd" clip-rule="evenodd" d="M5.6665 10.4896C5.6665 12.4619 7.34131 14.0667 9.3999 14.0667C11.4585 14.0667 13.1333 12.4619 13.1333 10.4896C13.1333 7.43152 9.729 4.14563 9.58398 4.00696C9.48096 3.90857 9.31885 3.90857 9.21558 4.00696C9.0708 4.14563 5.6665 7.43152 5.6665 10.4896ZM6.19971 10.4896C6.19971 8.04883 8.69336 5.30554 9.3999 4.57788C10.1064 5.3053 12.5996 8.04614 12.5996 10.4896C12.5996 12.168 11.1643 13.5333 9.3999 13.5333C7.63525 13.5333 6.19971 12.168 6.19971 10.4896Z" fill="#0C49CD"/>
<path d="M9.58398 4.00696L9.6531 3.93468L9.65305 3.93464L9.58398 4.00696ZM9.21558 4.00696L9.1466 3.93456L9.1464 3.93474L9.21558 4.00696ZM9.3999 4.57788L9.47163 4.50821L9.39989 4.43434L9.32816 4.50822L9.3999 4.57788ZM9.3999 13.9667C7.39246 13.9667 5.7665 12.4027 5.7665 10.4896H5.5665C5.5665 12.5211 7.29015 14.1667 9.3999 14.1667V13.9667ZM13.0333 10.4896C13.0333 12.4027 11.4073 13.9667 9.3999 13.9667V14.1667C11.5097 14.1667 13.2333 12.5211 13.2333 10.4896H13.0333ZM9.51487 4.07923C9.58522 4.1465 10.4675 4.9977 11.3316 6.21149C12.1981 7.42884 13.0333 8.99317 13.0333 10.4896H13.2333C13.2333 8.92797 12.3663 7.3203 11.4945 6.09551C10.6201 4.86717 9.72777 4.00609 9.6531 3.93468L9.51487 4.07923ZM9.28455 4.07936C9.34925 4.01773 9.45059 4.01784 9.51492 4.07928L9.65305 3.93464C9.51133 3.7993 9.28845 3.79941 9.1466 3.93456L9.28455 4.07936ZM5.7665 10.4896C5.7665 8.99317 6.60169 7.42884 7.46822 6.21149C8.3322 4.99771 9.21446 4.1465 9.28475 4.07917L9.1464 3.93474C9.07192 4.00608 8.17964 4.86716 7.30528 6.09551C6.43346 7.3203 5.5665 8.92797 5.5665 10.4896H5.7665ZM9.32816 4.50822C8.97268 4.87432 8.16788 5.74713 7.45131 6.83637C6.73672 7.92259 6.09971 9.23909 6.09971 10.4896H6.29971C6.29971 9.29936 6.90952 8.02382 7.61839 6.94629C8.32529 5.87176 9.12058 5.0091 9.47165 4.64754L9.32816 4.50822ZM12.6996 10.4896C12.6996 9.23776 12.0627 7.92121 11.3482 6.83526C10.6318 5.74632 9.8271 4.87417 9.47163 4.50821L9.32817 4.64755C9.67925 5.009 10.4744 5.87099 11.1812 6.94519C11.8899 8.0224 12.4996 9.298 12.4996 10.4896H12.6996ZM9.3999 13.6333C11.2148 13.6333 12.6996 12.2278 12.6996 10.4896H12.4996C12.4996 12.1081 11.1138 13.4333 9.3999 13.4333V13.6333ZM6.09971 10.4896C6.09971 12.2279 7.58481 13.6333 9.3999 13.6333V13.4333C7.6857 13.4333 6.29971 12.1081 6.29971 10.4896H6.09971Z" fill="#0C49CD"/>
</g>
<path id="Shape_4" d="M7.26843 11.7864C7.17432 11.7864 7.08337 11.7366 7.03479 11.6486C6.83801 11.292 6.73377 10.8912 6.73315 10.4896C6.73291 10.3424 6.85242 10.2229 6.99963 10.2227H6.99988C7.1471 10.2227 7.26624 10.3419 7.2666 10.489C7.26685 10.801 7.34814 11.1128 7.50171 11.3906C7.573 11.5194 7.526 11.6819 7.39722 11.7531C7.3562 11.7758 7.31189 11.7864 7.26843 11.7864Z" fill="white" stroke="white" stroke-width="0.2"/>
<path id="Shape_5" d="M9.39992 13C9.00686 12.9998 8.63113 12.9064 8.21719 12.7067C8.08474 12.6427 8.02895 12.4832 8.09292 12.3507C8.157 12.2179 8.31643 12.1624 8.449 12.2265C8.78786 12.3899 9.08999 12.4662 9.39992 12.4664C9.54714 12.4664 9.66653 12.5858 9.66653 12.7333C9.66653 12.8809 9.54714 13 9.39992 13Z" fill="white" stroke="white" stroke-width="0.2"/>
<g id="Shape_6">
<path fill-rule="evenodd" clip-rule="evenodd" d="M12.4167 8.73328H14.7334C14.8228 8.73328 14.9019 8.68927 14.9504 8.62164C14.9817 8.578 15 8.52454 15 8.46667V2.33337C15 2.24823 14.9602 2.17255 14.8982 2.12372C14.8528 2.08795 14.7957 2.06665 14.7334 2.06665H4.06665C3.91943 2.06665 3.80005 2.18591 3.80005 2.33337V8.46667C3.80005 8.61414 3.91943 8.73328 4.06665 8.73328H6.3833C6.49146 8.73328 6.58887 8.66797 6.62988 8.56799C7.37329 6.76025 8.87695 5.11682 9.3999 4.57788C9.92334 5.11682 11.4268 6.76025 12.1702 8.56799C12.2112 8.66797 12.3088 8.73328 12.4167 8.73328ZM14.4668 8.19995H12.5935C11.6182 5.96582 9.66895 4.08801 9.58447 4.0072C9.4812 3.90881 9.31885 3.90881 9.21582 4.0072C9.13159 4.08801 7.18164 5.96582 6.20679 8.19995H4.3335V2.59998H14.4668V8.19995Z" fill="white"/>
<path d="M14.9504 8.62164L15.0317 8.67999L15.0317 8.67986L14.9504 8.62164ZM14.8982 2.12372L14.8363 2.20228L14.8363 2.20229L14.8982 2.12372ZM6.62988 8.56799L6.5374 8.52996L6.53737 8.53004L6.62988 8.56799ZM9.3999 4.57788L9.47164 4.50821L9.39987 4.43432L9.32814 4.50824L9.3999 4.57788ZM12.1702 8.56799L12.2627 8.53004L12.2627 8.52996L12.1702 8.56799ZM12.5935 8.19995L12.5019 8.23996L12.528 8.29995H12.5935V8.19995ZM14.4668 8.19995V8.29995H14.5668V8.19995H14.4668ZM9.58447 4.0072L9.6536 3.93494L9.65345 3.9348L9.58447 4.0072ZM9.21582 4.0072L9.14676 3.93488L9.14659 3.93504L9.21582 4.0072ZM6.20679 8.19995V8.29995H6.27226L6.29844 8.23994L6.20679 8.19995ZM4.3335 8.19995H4.2335V8.29995H4.3335V8.19995ZM4.3335 2.59998V2.49998H4.2335V2.59998H4.3335ZM14.4668 2.59998H14.5668V2.49998H14.4668V2.59998ZM14.7334 8.63328H12.4167V8.83328H14.7334V8.63328ZM14.8692 8.5633C14.8385 8.606 14.7891 8.63328 14.7334 8.63328V8.83328C14.8564 8.83328 14.9652 8.77254 15.0317 8.67999L14.8692 8.5633ZM14.9 8.46667C14.9 8.50309 14.8886 8.53629 14.8691 8.56342L15.0317 8.67986C15.0748 8.61971 15.1 8.54599 15.1 8.46667H14.9ZM14.9 2.33337V8.46667H15.1V2.33337H14.9ZM14.8363 2.20229C14.8753 2.23296 14.9 2.28017 14.9 2.33337H15.1C15.1 2.21629 15.0451 2.11213 14.9601 2.04515L14.8363 2.20229ZM14.7334 2.16665C14.7724 2.16665 14.8079 2.17988 14.8363 2.20228L14.9601 2.04516C14.8977 1.99602 14.8189 1.96665 14.7334 1.96665V2.16665ZM4.06665 2.16665H14.7334V1.96665H4.06665V2.16665ZM3.90005 2.33337C3.90005 2.24114 3.97466 2.16665 4.06665 2.16665V1.96665C3.86421 1.96665 3.70005 2.13068 3.70005 2.33337H3.90005ZM3.90005 8.46667V2.33337H3.70005V8.46667H3.90005ZM4.06665 8.63328C3.9746 8.63328 3.90005 8.55885 3.90005 8.46667H3.70005C3.70005 8.66942 3.86426 8.83328 4.06665 8.83328V8.63328ZM6.3833 8.63328H4.06665V8.83328H6.3833V8.63328ZM6.53737 8.53004C6.51176 8.59245 6.45092 8.63328 6.3833 8.63328V8.83328C6.53199 8.83328 6.66597 8.74349 6.7224 8.60595L6.53737 8.53004ZM9.32814 4.50824C8.80399 5.04842 7.28855 6.70338 6.5374 8.52996L6.72237 8.60603C7.45803 6.81713 8.94992 5.18523 9.47167 4.64752L9.32814 4.50824ZM12.2627 8.52996C11.5115 6.70338 9.99631 5.04843 9.47164 4.50821L9.32817 4.64755C9.85037 5.18522 11.342 6.81713 12.0777 8.60603L12.2627 8.52996ZM12.4167 8.63328C12.3493 8.63328 12.2883 8.5924 12.2627 8.53004L12.0776 8.60595C12.1341 8.74354 12.2684 8.83328 12.4167 8.83328V8.63328ZM12.5935 8.29995H14.4668V8.09995H12.5935V8.29995ZM9.51535 4.07946C9.59903 4.15952 11.5351 6.02558 12.5019 8.23996L12.6852 8.15994C11.7012 5.90606 9.73886 4.01651 9.6536 3.93494L9.51535 4.07946ZM9.28488 4.07952C9.34922 4.01808 9.4508 4.01797 9.51549 4.0796L9.65345 3.9348C9.5116 3.79966 9.28848 3.79954 9.14676 3.93488L9.28488 4.07952ZM6.29844 8.23994C7.26467 6.02559 9.20146 4.15957 9.28505 4.07936L9.14659 3.93504C9.06173 4.01646 7.09861 5.90605 6.11513 8.15996L6.29844 8.23994ZM4.3335 8.29995H6.20679V8.09995H4.3335V8.29995ZM4.2335 2.59998V8.19995H4.4335V2.59998H4.2335ZM14.4668 2.49998H4.3335V2.69998H14.4668V2.49998ZM14.5668 8.19995V2.59998H14.3668V8.19995H14.5668Z" fill="white"/>
</g>
<g id="Shape_7">
<path fill-rule="evenodd" clip-rule="evenodd" d="M3.80005 9.80005H6.04443C6.16943 9.80005 6.27808 9.71277 6.30469 9.59045C6.37695 9.2616 6.48608 8.9176 6.62988 8.56799C6.66357 8.4856 6.6543 8.39197 6.60498 8.31812C6.55518 8.24426 6.47217 8.19995 6.3833 8.19995H3.80005C3.35889 8.19995 3 8.55896 3 9C3 9.44104 3.35889 9.80005 3.80005 9.80005ZM3.5332 9C3.5332 8.85278 3.65283 8.73328 3.7998 8.73328H5.99609C5.97827 8.78473 5.96094 8.836 5.94434 8.88708C5.90283 9.01483 5.86572 9.14148 5.83374 9.26672H3.7998C3.65283 9.26672 3.5332 9.14722 3.5332 9Z" fill="white"/>
<path d="M6.30469 9.59045L6.20702 9.56899L6.20697 9.56919L6.30469 9.59045ZM6.62988 8.56799L6.72237 8.60603L6.72244 8.60584L6.62988 8.56799ZM6.60498 8.31812L6.68814 8.26258L6.68789 8.2622L6.60498 8.31812ZM5.99609 8.73328L6.09059 8.76601L6.13656 8.63328H5.99609V8.73328ZM5.94434 8.88708L5.84923 8.85618L5.84923 8.85619L5.94434 8.88708ZM5.83374 9.26672V9.36672H5.91141L5.93063 9.29147L5.83374 9.26672ZM6.04443 9.70005H3.80005V9.90005H6.04443V9.70005ZM6.20697 9.56919C6.19039 9.64544 6.12251 9.70005 6.04443 9.70005V9.90005C6.21636 9.90005 6.36577 9.7801 6.4024 9.61171L6.20697 9.56919ZM6.5374 8.52995C6.39163 8.88436 6.28065 9.2339 6.20702 9.56899L6.40236 9.61192C6.47325 9.2893 6.58054 8.95085 6.72237 8.60603L6.5374 8.52995ZM6.52182 8.37365C6.55259 8.41973 6.5585 8.47835 6.53732 8.53015L6.72244 8.60584C6.76865 8.49285 6.75601 8.36421 6.68814 8.26258L6.52182 8.37365ZM6.3833 8.29995C6.43875 8.29995 6.49076 8.32759 6.52207 8.37403L6.68789 8.2622C6.61959 8.16093 6.50559 8.09995 6.3833 8.09995V8.29995ZM3.80005 8.29995H6.3833V8.09995H3.80005V8.29995ZM3.1 9C3.1 8.61418 3.41413 8.29995 3.80005 8.29995V8.09995C3.30365 8.09995 2.9 8.50374 2.9 9H3.1ZM3.80005 9.70005C3.41413 9.70005 3.1 9.38582 3.1 9H2.9C2.9 9.49626 3.30365 9.90005 3.80005 9.90005V9.70005ZM3.7998 8.63328C3.5976 8.63328 3.4332 8.79755 3.4332 9H3.6332C3.6332 8.90801 3.70806 8.83328 3.7998 8.83328V8.63328ZM5.99609 8.63328H3.7998V8.83328H5.99609V8.63328ZM6.03944 8.91799C6.0558 8.86765 6.07292 8.817 6.09059 8.76601L5.9016 8.70055C5.88362 8.75245 5.86608 8.80435 5.84923 8.85618L6.03944 8.91799ZM5.93063 9.29147C5.96203 9.16852 5.99852 9.04393 6.03944 8.91798L5.84923 8.85619C5.80714 8.98573 5.76942 9.11444 5.73685 9.24198L5.93063 9.29147ZM3.7998 9.36672H5.83374V9.16672H3.7998V9.36672ZM3.4332 9C3.4332 9.20245 3.5976 9.36672 3.7998 9.36672V9.16672C3.70806 9.16672 3.6332 9.09199 3.6332 9H3.4332Z" fill="white"/>
</g>
<g id="Shape_8">
<path fill-rule="evenodd" clip-rule="evenodd" d="M12.7559 9.80005H15C15.4412 9.80005 15.8 9.44104 15.8 9C15.8 8.55896 15.4412 8.19995 15 8.19995H12.4167C12.3279 8.19995 12.2449 8.24426 12.1953 8.31812C12.1904 8.32556 12.1858 8.33319 12.1816 8.341C12.1443 8.41089 12.1396 8.49408 12.1702 8.56799C12.24 8.73773 12.3018 8.90613 12.355 9.0722C12.4114 9.24799 12.4583 9.42114 12.4954 9.59045C12.5222 9.71277 12.6304 9.80005 12.7559 9.80005ZM15 9.26672H12.9663C12.9209 9.09143 12.8667 8.91309 12.8037 8.73328H15C15.147 8.73328 15.2666 8.85278 15.2666 9C15.2666 9.07233 15.2378 9.13794 15.1909 9.18604C15.1423 9.23578 15.0747 9.26672 15 9.26672Z" fill="white"/>
<path d="M12.1953 8.31812L12.1123 8.26239L12.1117 8.26328L12.1953 8.31812ZM12.1816 8.341L12.2698 8.38814L12.27 8.38792L12.1816 8.341ZM12.1702 8.56799L12.2626 8.52995L12.2626 8.52983L12.1702 8.56799ZM12.355 9.0722L12.2598 9.10272L12.2598 9.10275L12.355 9.0722ZM12.4954 9.59045L12.3977 9.61186L12.3977 9.6119L12.4954 9.59045ZM12.9663 9.26672L12.8695 9.2918L12.8889 9.36672H12.9663V9.26672ZM12.8037 8.73328V8.63328H12.6627L12.7093 8.76634L12.8037 8.73328ZM15.1909 9.18604L15.2625 9.25591L15.2625 9.25583L15.1909 9.18604ZM15 9.70005H12.7559V9.90005H15V9.70005ZM15.7 9C15.7 9.38582 15.3859 9.70005 15 9.70005V9.90005C15.4964 9.90005 15.9 9.49626 15.9 9H15.7ZM15 8.29995C15.3859 8.29995 15.7 8.61418 15.7 9H15.9C15.9 8.50374 15.4964 8.09995 15 8.09995V8.29995ZM12.4167 8.29995H15V8.09995H12.4167V8.29995ZM12.2783 8.37384C12.3094 8.32762 12.3613 8.29995 12.4167 8.29995V8.09995C12.2945 8.09995 12.1804 8.16091 12.1123 8.26239L12.2783 8.37384ZM12.27 8.38792C12.2723 8.38348 12.2753 8.37855 12.2789 8.37295L12.1117 8.26328C12.1056 8.27257 12.0993 8.2829 12.0933 8.29409L12.27 8.38792ZM12.2626 8.52983C12.2436 8.48386 12.2464 8.43195 12.2698 8.38814L12.0934 8.29386C12.0422 8.38983 12.0357 8.5043 12.0777 8.60616L12.2626 8.52983ZM12.4502 9.04169C12.3961 8.87292 12.3334 8.70201 12.2626 8.52995L12.0777 8.60604C12.1466 8.77345 12.2074 8.93934 12.2598 9.10272L12.4502 9.04169ZM12.593 9.56904C12.5552 9.39647 12.5075 9.22026 12.4502 9.04166L12.2598 9.10275C12.3153 9.27571 12.3613 9.44581 12.3977 9.61186L12.593 9.56904ZM12.7559 9.70005C12.6774 9.70005 12.6098 9.64556 12.593 9.56901L12.3977 9.6119C12.4346 9.77998 12.5833 9.90005 12.7559 9.90005V9.70005ZM12.9663 9.36672H15V9.16672H12.9663V9.36672ZM12.7093 8.76634C12.7714 8.94358 12.8248 9.11926 12.8695 9.2918L13.0631 9.24165C13.017 9.0636 12.962 8.8826 12.8981 8.70022L12.7093 8.76634ZM15 8.63328H12.8037V8.83328H15V8.63328ZM15.3666 9C15.3666 8.79755 15.2022 8.63328 15 8.63328V8.83328C15.0917 8.83328 15.1666 8.90801 15.1666 9H15.3666ZM15.2625 9.25583C15.3269 9.18982 15.3666 9.09944 15.3666 9H15.1666C15.1666 9.04521 15.1487 9.08606 15.1193 9.11624L15.2625 9.25583ZM15 9.36672C15.1029 9.36672 15.196 9.32398 15.2625 9.25591L15.1194 9.11616C15.0887 9.14758 15.0465 9.16672 15 9.16672V9.36672Z" fill="white"/>
</g>
<g id="Shape_9">
<path fill-rule="evenodd" clip-rule="evenodd" d="M3.80005 15.6666C3.80005 15.8141 3.91943 15.9333 4.06665 15.9333H14.7334C14.8804 15.9333 15 15.8141 15 15.6666V9.53333C15 9.38586 14.8804 9.26672 14.7334 9.26672H12.7559C12.6748 9.26672 12.5986 9.30322 12.5479 9.36609C12.533 9.38477 12.5208 9.40521 12.5115 9.42676C12.4893 9.47772 12.4832 9.53491 12.4951 9.59045C12.5649 9.90796 12.6001 10.2107 12.6001 10.4896C12.6001 12.168 11.1646 13.5333 9.3999 13.5333C7.6355 13.5333 6.19995 12.168 6.19995 10.4896C6.19995 10.2107 6.23535 9.90833 6.30469 9.59045C6.32178 9.51147 6.30273 9.42883 6.25195 9.36609C6.20117 9.30322 6.125 9.26672 6.04443 9.26672H4.06665C3.91943 9.26672 3.80005 9.38586 3.80005 9.53333V15.6666ZM14.4668 9.80005V15.4H4.3335V9.80005H5.72314C5.68579 10.0394 5.66675 10.2701 5.66675 10.4896C5.66675 12.4619 7.34131 14.0667 9.40015 14.0667C11.4587 14.0667 13.1333 12.4619 13.1333 10.4896C13.1333 10.2701 13.1145 10.0389 13.0771 9.80005H14.4668Z" fill="white"/>
<path d="M12.5479 9.36609L12.4701 9.30325L12.4697 9.30374L12.5479 9.36609ZM12.5115 9.42676L12.6031 9.46672L12.6033 9.46631L12.5115 9.42676ZM12.4951 9.59045L12.3974 9.61151L12.3975 9.61193L12.4951 9.59045ZM6.30469 9.59045L6.40239 9.61177L6.40243 9.6116L6.30469 9.59045ZM6.25195 9.36609L6.17416 9.42893L6.17422 9.429L6.25195 9.36609ZM14.4668 15.4V15.5H14.5668V15.4H14.4668ZM14.4668 9.80005H14.5668V9.70005H14.4668V9.80005ZM4.3335 15.4H4.2335V15.5H4.3335V15.4ZM4.3335 9.80005V9.70005H4.2335V9.80005H4.3335ZM5.72314 9.80005L5.82195 9.81547L5.83996 9.70005H5.72314V9.80005ZM13.0771 9.80005V9.70005H12.9603L12.9783 9.8155L13.0771 9.80005ZM4.06665 15.8333C3.97466 15.8333 3.90005 15.7589 3.90005 15.6666H3.70005C3.70005 15.8693 3.86421 16.0333 4.06665 16.0333V15.8333ZM14.7334 15.8333H4.06665V16.0333H14.7334V15.8333ZM14.9 15.6666C14.9 15.7588 14.8252 15.8333 14.7334 15.8333V16.0333C14.9355 16.0333 15.1 15.8694 15.1 15.6666H14.9ZM14.9 9.53333V15.6666H15.1V9.53333H14.9ZM14.7334 9.36672C14.8253 9.36672 14.9 9.44121 14.9 9.53333H15.1C15.1 9.33052 14.9355 9.16672 14.7334 9.16672V9.36672ZM12.7559 9.36672H14.7334V9.16672H12.7559V9.36672ZM12.6256 9.42893C12.6575 9.38953 12.7051 9.36672 12.7559 9.36672V9.16672C12.6445 9.16672 12.5398 9.21692 12.4701 9.30325L12.6256 9.42893ZM12.6033 9.46631C12.6091 9.45291 12.6167 9.44013 12.626 9.42843L12.4697 9.30374C12.4492 9.3294 12.4324 9.35752 12.4196 9.38721L12.6033 9.46631ZM12.5929 9.5694C12.5854 9.53459 12.5892 9.49872 12.6031 9.46672L12.4198 9.3868C12.3893 9.45672 12.3809 9.53524 12.3974 9.61151L12.5929 9.5694ZM12.7001 10.4896C12.7001 10.2025 12.6639 9.89247 12.5928 9.56898L12.3975 9.61193C12.466 9.92345 12.5001 10.2189 12.5001 10.4896H12.7001ZM9.3999 13.6333C11.215 13.6333 12.7001 12.2279 12.7001 10.4896H12.5001C12.5001 12.1081 11.1141 13.4333 9.3999 13.4333V13.6333ZM6.09995 10.4896C6.09995 12.2279 7.58505 13.6333 9.3999 13.6333V13.4333C7.68595 13.4333 6.29995 12.1081 6.29995 10.4896H6.09995ZM6.20698 9.56914C6.13638 9.89283 6.09995 10.2024 6.09995 10.4896H6.29995C6.29995 10.219 6.33432 9.92383 6.40239 9.61177L6.20698 9.56914ZM6.17422 9.429C6.20558 9.46774 6.21776 9.51935 6.20695 9.56931L6.40243 9.6116C6.4258 9.5036 6.39989 9.38992 6.32968 9.30318L6.17422 9.429ZM6.04443 9.36672C6.09464 9.36672 6.14228 9.38945 6.17416 9.42893L6.32974 9.30325C6.26007 9.21699 6.15536 9.16672 6.04443 9.16672V9.36672ZM4.06665 9.36672H6.04443V9.16672H4.06665V9.36672ZM3.90005 9.53333C3.90005 9.44115 3.9746 9.36672 4.06665 9.36672V9.16672C3.86426 9.16672 3.70005 9.33058 3.70005 9.53333H3.90005ZM3.90005 15.6666V9.53333H3.70005V15.6666H3.90005ZM14.5668 15.4V9.80005H14.3668V15.4H14.5668ZM4.3335 15.5H14.4668V15.3H4.3335V15.5ZM4.2335 9.80005V15.4H4.4335V9.80005H4.2335ZM5.72314 9.70005H4.3335V9.90005H5.72314V9.70005ZM5.76675 10.4896C5.76675 10.2759 5.7853 10.0503 5.82195 9.81547L5.62434 9.78463C5.58628 10.0285 5.56675 10.2644 5.56675 10.4896H5.76675ZM9.40015 13.9667C7.39247 13.9667 5.76675 12.4027 5.76675 10.4896H5.56675C5.56675 12.5211 7.29015 14.1667 9.40015 14.1667V13.9667ZM13.0333 10.4896C13.0333 12.4027 11.4076 13.9667 9.40015 13.9667V14.1667C11.5099 14.1667 13.2333 12.5211 13.2333 10.4896H13.0333ZM12.9783 9.8155C13.015 10.0498 13.0333 10.2758 13.0333 10.4896H13.2333C13.2333 10.2645 13.214 10.0281 13.1759 9.7846L12.9783 9.8155ZM14.4668 9.70005H13.0771V9.90005H14.4668V9.70005Z" fill="white"/>
</g>
</g>
</g>
</svg>
