<?xml version="1.0" encoding="UTF-8" standalone="no"?>
<svg width="24px" height="24px" viewBox="0 0 24 24" version="1.1" xmlns="http://www.w3.org/2000/svg" xmlns:xlink="http://www.w3.org/1999/xlink">
    <!-- Generator: Sketch 50.2 (55047) - http://www.bohemiancoding.com/sketch -->
    <title>OK</title>
    <desc>Created with Sketch.</desc>
    <defs>
        <path d="M11.9864166,5.02471675 C13.207181,5.02471675 14.2001719,5.98292972 14.2001719,7.16131861 C14.2001719,8.33878108 13.207181,9.29761166 11.9864166,9.29761166 C10.7666118,9.29761166 9.77266128,8.33878108 9.77266128,7.16131861 C9.77266128,5.98292972 10.7666118,5.02471675 11.9864166,5.02471675 L11.9864166,5.02471675 Z M11.9864166,12.3210932 C9.03783529,12.3210932 6.63981367,10.0066213 6.63981367,7.16131861 C6.63981367,4.31508948 9.03783529,2 11.9864166,2 C14.9356377,2 17.3330195,4.31508948 17.3330195,7.16131861 C17.3330195,10.0066213 14.9356377,12.3210932 11.9864166,12.3210932 Z M14.1633019,16.5335849 L17.1521914,19.4190319 C17.7644931,20.0088439 17.7644931,20.9667481 17.1521914,21.5571778 C16.5405296,22.1476074 15.5491383,22.1476074 14.9381163,21.5571778 L11.9994521,18.7217567 L9.06334717,21.5571778 C8.75719633,21.8520838 8.35603316,21.9996912 7.95486999,21.9996912 C7.55434663,21.9996912 7.15382328,21.8520838 6.84767244,21.5571778 C6.23601057,20.9667481 6.23601057,20.0094615 6.84703262,19.4190319 L9.83624207,16.5335849 C8.74791903,16.2942633 7.69830471,15.877998 6.73154626,15.2925092 C5.99991933,14.8472165 5.78014334,13.9143253 6.24112908,13.2074773 C6.7008352,12.4997028 7.66759365,12.2866294 8.40050021,12.731922 C10.5893028,14.0610063 13.4089616,14.0613151 15.5990438,12.731922 C16.3319503,12.2866294 17.2983889,12.4997028 17.7590547,13.2074773 C18.2200405,13.9137077 17.9996246,14.8472165 17.2679977,15.2925092 C16.3012393,15.8786156 15.2516249,16.2942633 14.1633019,16.5335849 Z" id="path-1"></path>
    </defs>
    <g id="OK" stroke="none" stroke-width="1" fill="none" fill-rule="evenodd">
        <mask id="mask-2" fill="white">
            <use xlink:href="#path-1"></use>
        </mask>
        <use id="Mask" fill="#C7CCD1" xlink:href="#path-1"></use>
    </g>
</svg>