<svg width="18" height="18" viewBox="0 0 18 18" fill="none" xmlns="http://www.w3.org/2000/svg">
<g id="Pharma">
<rect id="Rectangle 4 Copy 15" width="18" height="18" fill="#F4F7FB" fill-opacity="0.01"/>
<g id="drug">
<g id="Shape">
<path fill-rule="evenodd" clip-rule="evenodd" d="M12.2559 4.50684H11.4888V4.22504H11.7549C12.1606 4.22504 12.4907 3.89496 12.4907 3.4892V1.73578C12.4907 1.33008 12.1606 1 11.7549 1H6.74512C6.33936 1 6.00928 1.33008 6.00928 1.73584V3.48926C6.00928 3.89496 6.33936 4.22504 6.74512 4.22504H7.01123V4.5069H6.24414C5.00964 4.5069 4.00537 5.51117 4.00537 6.74561V12.5069C4.00537 12.5536 4.01904 12.5972 4.0426 12.6338C4.08447 12.6987 4.15723 12.7417 4.24023 12.7417C4.36987 12.7417 4.4751 12.6365 4.4751 12.5069V7.48138H11.2539C11.3837 7.48138 11.4888 7.37622 11.4888 7.24658C11.4888 7.11688 11.3837 7.01172 11.2539 7.01172H4.4751V6.74554C4.4751 5.77008 5.26868 4.97644 6.24414 4.97644H7.24609C7.37585 4.97644 7.48096 4.87134 7.48096 4.74164V4.22498H11.0192V4.74164C11.0192 4.87134 11.1243 4.97644 11.2539 4.97644H12.256C13.2314 4.97644 14.025 5.77008 14.025 6.74554V7.01172H12.256C12.1262 7.01172 12.0211 7.11688 12.0211 7.24658C12.0211 7.37622 12.1262 7.48138 12.256 7.48138H14.025V14.0255H4.4751V13.5088C4.4751 13.3792 4.36987 13.274 4.24023 13.274C4.16516 13.274 4.09839 13.3092 4.05542 13.364C4.02405 13.4039 4.00537 13.4542 4.00537 13.5088V14.7612C4.00537 15.9957 5.00964 17 6.24414 17H12.2559C13.4904 17 14.4946 15.9957 14.4946 14.7612V6.74561C14.4946 5.51117 13.4904 4.50684 12.2559 4.50684ZM6.745 3.75537C6.59827 3.75537 6.47888 3.63599 6.47888 3.4892V1.73578C6.47888 1.58899 6.59827 1.4696 6.745 1.4696H11.7548C11.9016 1.4696 12.021 1.58899 12.021 1.73578V3.4892C12.021 3.63593 11.9016 3.75537 11.7548 3.75537H6.745ZM12.2557 16.5304C13.2312 16.5304 14.0249 15.7368 14.0249 14.7613V14.4951H4.47498V14.7613C4.47498 15.7368 5.26855 16.5304 6.24402 16.5304H12.2557Z" fill="#0C49CD"/>
<path d="M11.4888 4.50684H11.3888V4.60684H11.4888V4.50684ZM11.4888 4.22504V4.12504H11.3888V4.22504H11.4888ZM7.01123 4.22504H7.11123V4.12504H7.01123V4.22504ZM7.01123 4.5069V4.6069H7.11123V4.5069H7.01123ZM4.0426 12.6338L3.95854 12.688L3.95858 12.688L4.0426 12.6338ZM4.4751 7.48138V7.38138H4.3751V7.48138H4.4751ZM4.4751 7.01172H4.3751V7.11172H4.4751V7.01172ZM7.48096 4.22498V4.12498H7.38096V4.22498H7.48096ZM11.0192 4.22498H11.1192V4.12498H11.0192V4.22498ZM14.025 7.01172V7.11172H14.125V7.01172H14.025ZM14.025 7.48138H14.125V7.38138H14.025V7.48138ZM14.025 14.0255V14.1255H14.125V14.0255H14.025ZM4.4751 14.0255H4.3751V14.1255H4.4751V14.0255ZM4.05542 13.364L4.13404 13.4257L4.13409 13.4257L4.05542 13.364ZM14.0249 14.4951H14.1249V14.3951H14.0249V14.4951ZM4.47498 14.4951V14.3951H4.37498V14.4951H4.47498ZM11.4888 4.60684H12.2559V4.40684H11.4888V4.60684ZM11.3888 4.22504V4.50684H11.5888V4.22504H11.3888ZM11.7549 4.12504H11.4888V4.32504H11.7549V4.12504ZM12.3907 3.4892C12.3907 3.83973 12.1054 4.12504 11.7549 4.12504V4.32504C12.2159 4.32504 12.5907 3.95019 12.5907 3.4892H12.3907ZM12.3907 1.73578V3.4892H12.5907V1.73578H12.3907ZM11.7549 1.1C12.1054 1.1 12.3907 1.38531 12.3907 1.73578H12.5907C12.5907 1.27484 12.2159 0.9 11.7549 0.9V1.1ZM6.74512 1.1H11.7549V0.9H6.74512V1.1ZM6.10928 1.73584C6.10928 1.38531 6.39458 1.1 6.74512 1.1V0.9C6.28413 0.9 5.90928 1.27485 5.90928 1.73584H6.10928ZM6.10928 3.48926V1.73584H5.90928V3.48926H6.10928ZM6.74512 4.12504C6.39458 4.12504 6.10928 3.83972 6.10928 3.48926H5.90928C5.90928 3.95019 6.28413 4.32504 6.74512 4.32504V4.12504ZM7.01123 4.12504H6.74512V4.32504H7.01123V4.12504ZM7.11123 4.5069V4.22504H6.91123V4.5069H7.11123ZM6.24414 4.6069H7.01123V4.4069H6.24414V4.6069ZM4.10537 6.74561C4.10537 5.5664 5.06487 4.6069 6.24414 4.6069V4.4069C4.95442 4.4069 3.90537 5.45594 3.90537 6.74561H4.10537ZM4.10537 12.5069V6.74561H3.90537V12.5069H4.10537ZM4.12666 12.5796C4.11321 12.5587 4.10537 12.5339 4.10537 12.5069H3.90537C3.90537 12.5734 3.92488 12.6357 3.95854 12.688L4.12666 12.5796ZM4.24023 12.6417C4.19274 12.6417 4.15093 12.6172 4.12663 12.5796L3.95858 12.688C4.01801 12.7801 4.12171 12.8417 4.24023 12.8417V12.6417ZM4.3751 12.5069C4.3751 12.5813 4.31468 12.6417 4.24023 12.6417V12.8417C4.42507 12.8417 4.5751 12.6918 4.5751 12.5069H4.3751ZM4.3751 7.48138V12.5069H4.5751V7.48138H4.3751ZM11.2539 7.38138H4.4751V7.58138H11.2539V7.38138ZM11.3888 7.24658C11.3888 7.32099 11.3284 7.38138 11.2539 7.38138V7.58138C11.4389 7.58138 11.5888 7.43145 11.5888 7.24658H11.3888ZM11.2539 7.11172C11.3284 7.11172 11.3888 7.17209 11.3888 7.24658H11.5888C11.5888 7.06167 11.4389 6.91172 11.2539 6.91172V7.11172ZM4.4751 7.11172H11.2539V6.91172H4.4751V7.11172ZM4.3751 6.74554V7.01172H4.5751V6.74554H4.3751ZM6.24414 4.87644C5.21344 4.87644 4.3751 5.71486 4.3751 6.74554H4.5751C4.5751 5.8253 5.32391 5.07644 6.24414 5.07644V4.87644ZM7.24609 4.87644H6.24414V5.07644H7.24609V4.87644ZM7.38096 4.74164C7.38096 4.81609 7.32064 4.87644 7.24609 4.87644V5.07644C7.43107 5.07644 7.58096 4.92658 7.58096 4.74164H7.38096ZM7.38096 4.22498V4.74164H7.58096V4.22498H7.38096ZM11.0192 4.12498H7.48096V4.32498H11.0192V4.12498ZM11.1192 4.74164V4.22498H10.9192V4.74164H11.1192ZM11.2539 4.87644C11.1795 4.87644 11.1192 4.81613 11.1192 4.74164H10.9192C10.9192 4.92655 11.069 5.07644 11.2539 5.07644V4.87644ZM12.256 4.87644H11.2539V5.07644H12.256V4.87644ZM14.125 6.74554C14.125 5.71486 13.2867 4.87644 12.256 4.87644V5.07644C13.1762 5.07644 13.925 5.8253 13.925 6.74554H14.125ZM14.125 7.01172V6.74554H13.925V7.01172H14.125ZM12.256 7.11172H14.025V6.91172H12.256V7.11172ZM12.1211 7.24658C12.1211 7.17209 12.1815 7.11172 12.256 7.11172V6.91172C12.071 6.91172 11.9211 7.06167 11.9211 7.24658H12.1211ZM12.256 7.38138C12.1814 7.38138 12.1211 7.32099 12.1211 7.24658H11.9211C11.9211 7.43145 12.071 7.58138 12.256 7.58138V7.38138ZM14.025 7.38138H12.256V7.58138H14.025V7.38138ZM14.125 14.0255V7.48138H13.925V14.0255H14.125ZM4.4751 14.1255H14.025V13.9255H4.4751V14.1255ZM4.3751 13.5088V14.0255H4.5751V13.5088H4.3751ZM4.24023 13.374C4.31468 13.374 4.3751 13.4344 4.3751 13.5088H4.5751C4.5751 13.3239 4.42507 13.174 4.24023 13.174V13.374ZM4.13409 13.4257C4.15893 13.394 4.19719 13.374 4.24023 13.374V13.174C4.13313 13.174 4.03785 13.2244 3.97675 13.3022L4.13409 13.4257ZM4.10537 13.5088C4.10537 13.4774 4.11603 13.4487 4.13404 13.4257L3.9768 13.3022C3.93207 13.3591 3.90537 13.431 3.90537 13.5088H4.10537ZM4.10537 14.7612V13.5088H3.90537V14.7612H4.10537ZM6.24414 16.9C5.06487 16.9 4.10537 15.9404 4.10537 14.7612H3.90537C3.90537 16.0509 4.95441 17.1 6.24414 17.1V16.9ZM12.2559 16.9H6.24414V17.1H12.2559V16.9ZM14.3946 14.7612C14.3946 15.9404 13.4351 16.9 12.2559 16.9V17.1C13.5456 17.1 14.5946 16.0509 14.5946 14.7612H14.3946ZM14.3946 6.74561V14.7612H14.5946V6.74561H14.3946ZM12.2559 4.60684C13.4351 4.60684 14.3946 5.5664 14.3946 6.74561H14.5946C14.5946 5.45594 13.5456 4.40684 12.2559 4.40684V4.60684ZM6.37888 3.4892C6.37888 3.6912 6.54302 3.85537 6.745 3.85537V3.65537C6.65351 3.65537 6.57888 3.58077 6.57888 3.4892H6.37888ZM6.37888 1.73578V3.4892H6.57888V1.73578H6.37888ZM6.745 1.3696C6.54302 1.3696 6.37888 1.53378 6.37888 1.73578H6.57888C6.57888 1.6442 6.65351 1.5696 6.745 1.5696V1.3696ZM11.7548 1.3696H6.745V1.5696H11.7548V1.3696ZM12.121 1.73578C12.121 1.53375 11.9568 1.3696 11.7548 1.3696V1.5696C11.8464 1.5696 11.921 1.64423 11.921 1.73578H12.121ZM12.121 3.4892V1.73578H11.921V3.4892H12.121ZM11.7548 3.85537C11.9568 3.85537 12.121 3.69115 12.121 3.4892H11.921C11.921 3.5807 11.8464 3.65537 11.7548 3.65537V3.85537ZM6.745 3.85537H11.7548V3.65537H6.745V3.85537ZM13.9249 14.7613C13.9249 15.6815 13.176 16.4304 12.2557 16.4304V16.6304C13.2864 16.6304 14.1249 15.792 14.1249 14.7613H13.9249ZM13.9249 14.4951V14.7613H14.1249V14.4951H13.9249ZM4.47498 14.5951H14.0249V14.3951H4.47498V14.5951ZM4.57498 14.7613V14.4951H4.37498V14.7613H4.57498ZM6.24402 16.4304C5.32379 16.4304 4.57498 15.6815 4.57498 14.7613H4.37498C4.37498 15.792 5.21332 16.6304 6.24402 16.6304V16.4304ZM12.2557 16.4304H6.24402V16.6304H12.2557V16.4304Z" fill="#0C49CD"/>
</g>
<path id="Shape_2" d="M9.26514 1.75146C9.12708 1.75146 9.01514 1.85662 9.01514 1.98631V3.23875C9.01514 3.36843 9.12708 3.47359 9.26514 3.47359C9.40319 3.47359 9.51514 3.36843 9.51514 3.23875V1.98631C9.51514 1.85662 9.40319 1.75146 9.26514 1.75146Z" fill="#0C49CD" stroke="#0C49CD" stroke-width="0.2"/>
<path id="Shape_3" d="M10.2671 1.75146C10.129 1.75146 10.0171 1.85662 10.0171 1.98631V3.23875C10.0171 3.36843 10.129 3.47359 10.2671 3.47359C10.4051 3.47359 10.5171 3.36843 10.5171 3.23875V1.98631C10.5171 1.85662 10.4051 1.75146 10.2671 1.75146Z" fill="#0C49CD" stroke="#0C49CD" stroke-width="0.2"/>
<path id="Shape_4" d="M11.269 1.75146C11.131 1.75146 11.019 1.85662 11.019 1.98631V3.23875C11.019 3.36843 11.131 3.47359 11.269 3.47359C11.4071 3.47359 11.519 3.36843 11.519 3.23875V1.98631C11.519 1.85662 11.4071 1.75146 11.269 1.75146Z" fill="#0C49CD" stroke="#0C49CD" stroke-width="0.2"/>
<path id="Shape_5" d="M8.26318 1.75146C8.12513 1.75146 8.01318 1.85662 8.01318 1.98631V3.23875C8.01318 3.36843 8.12513 3.47359 8.26318 3.47359C8.40124 3.47359 8.51318 3.36843 8.51318 3.23875V1.98631C8.51318 1.85662 8.40124 1.75146 8.26318 1.75146Z" fill="#0C49CD" stroke="#0C49CD" stroke-width="0.2"/>
<path id="Shape_6" d="M7.26123 1.75146C7.12317 1.75146 7.01123 1.85662 7.01123 1.98631V3.23875C7.01123 3.36843 7.12317 3.47359 7.26123 3.47359C7.39929 3.47359 7.51123 3.36843 7.51123 3.23875V1.98631C7.5112 1.85662 7.39929 1.75146 7.26123 1.75146Z" fill="#0C49CD" stroke="#0C49CD" stroke-width="0.2"/>
<path id="Shape_7" d="M11.0034 10.0176H9.98581V8.99998C9.98581 8.87029 9.88066 8.76514 9.75097 8.76514H8.749C8.61931 8.76514 8.51416 8.87029 8.51416 8.99998V10.0176H7.49656C7.36687 10.0176 7.26172 10.1228 7.26172 10.2524V11.2544C7.26172 11.3841 7.36687 11.4893 7.49656 11.4893H8.51419V12.5069C8.51419 12.6366 8.61934 12.7417 8.74903 12.7417H9.751C9.88069 12.7417 9.98584 12.6366 9.98584 12.5069V11.4893H11.0035C11.1332 11.4893 11.2383 11.3841 11.2383 11.2544V10.2524C11.2383 10.1227 11.1331 10.0176 11.0034 10.0176Z" fill="#0C49CD" stroke="#0C49CD" stroke-width="0.2"/>
</g>
</g>
</svg>
