<svg width="18" height="18" viewBox="0 0 18 18" fill="none" xmlns="http://www.w3.org/2000/svg">
<g id="Rest White">
<rect id="Rectangle 4 Copy 28" width="18" height="18" fill="#F4F7FB" fill-opacity="0.01"/>
<g id="armchair">
<g id="Shape">
<path fill-rule="evenodd" clip-rule="evenodd" d="M16.9788 7.58C16.8396 6.62019 15.9993 5.89522 15.0232 5.89288H15.0137C14.9397 5.89306 14.866 5.89775 14.793 5.90678V4.35728C14.793 3.61944 14.1926 3.01909 13.4548 3.01909H4.54517C3.80737 3.01909 3.20703 3.6194 3.20703 4.35728V5.90678C3.17114 5.90231 3.13501 5.89891 3.09863 5.8966C3.06128 5.89421 3.02393 5.89297 2.98633 5.89288H2.97681C2.00073 5.89522 1.1604 6.62022 1.02124 7.58C0.947266 8.09106 1.06836 8.60162 1.36279 9.01759C1.6001 9.35278 1.93091 9.60319 2.31152 9.73953V14.5009C2.31152 14.6735 2.45142 14.8134 2.62402 14.8134H3.19556V16.2309C3.19556 16.4035 3.33545 16.5434 3.50806 16.5434H4.57397C4.69922 16.5434 4.8125 16.4686 4.86157 16.3533L5.51685 14.8134H12.4832L13.1384 16.3533C13.1875 16.4686 13.3005 16.5434 13.426 16.5434H14.4919C14.6646 16.5434 14.8044 16.4035 14.8044 16.2309V14.8134H15.376C15.5486 14.8134 15.6885 14.6735 15.6885 14.5009V9.73953C16.0691 9.60319 16.3999 9.35275 16.6372 9.01759C16.9316 8.60159 17.0527 8.09106 16.9788 7.58ZM4.54517 3.64409H13.4548C13.8481 3.64409 14.168 3.964 14.168 4.35725V6.10138L14.1653 6.10284L14.1555 6.10794L14.1477 6.11225L14.1428 6.11484L14.1333 6.12009L14.1301 6.12184L14.1172 6.12894C13.543 6.45225 13.186 7.07368 13.186 7.75078V9.40869C12.2053 8.99544 10.6689 8.74794 9 8.74794C7.33105 8.74794 5.79468 8.99544 4.81396 9.40869V7.75081L4.81372 7.72573C4.81348 7.70241 4.81274 7.67917 4.81177 7.656L4.80981 7.62459C4.80566 7.56187 4.79858 7.49975 4.78833 7.43847L4.78296 7.40791C4.77759 7.3774 4.77124 7.34712 4.76416 7.31706L4.75317 7.27216L4.74927 7.25728C4.74292 7.23368 4.73608 7.21025 4.729 7.18697L4.72681 7.18C4.58789 6.73744 4.29004 6.35831 3.88281 6.12903L3.87036 6.12197L3.86426 6.11872L3.85742 6.11491L3.85425 6.11322L3.84424 6.10794L3.83203 6.1015V4.35728C3.83203 3.964 4.15186 3.64409 4.54517 3.64409ZM4.81396 10.0976V10.3971H13.186V10.0976C12.3369 9.65447 10.7273 9.37294 9 9.37294C7.27246 9.37294 5.66309 9.65444 4.81396 10.0976ZM13.186 11.0221V11.7977H4.81396V11.0221H13.186ZM3.82056 15.9184H4.36743L4.83765 14.8134H3.82056V15.9184ZM14.1794 15.9184H13.6326L13.1624 14.8134H14.1794V15.9184ZM15.0635 9.50475C15.0635 9.35781 15.1658 9.23075 15.3093 9.19944C16.0125 9.04594 16.4644 8.38828 16.3601 7.66959C16.2651 7.01387 15.6892 6.51872 15.0205 6.51778H15.0164C14.8264 6.51806 14.6384 6.56334 14.4692 6.64912L14.4658 6.65091L14.4614 6.65316L14.4558 6.65615L14.4524 6.65788L14.4456 6.66159L14.4431 6.66287L14.4336 6.668L14.4238 6.6735C14.1226 6.84306 13.9124 7.13959 13.8394 7.48162L13.8352 7.50178L13.8279 7.54243C13.8223 7.57579 13.8181 7.60954 13.8154 7.64359C13.8125 7.67899 13.811 7.71472 13.811 7.75069V12.1101C13.811 12.2827 13.6711 12.4226 13.4985 12.4226H4.50146C4.32886 12.4226 4.18896 12.2827 4.18896 12.1101V7.75066L4.18799 7.69791L4.18677 7.67694L4.18457 7.64375L4.17944 7.59375L4.17383 7.55265L4.17041 7.53225C4.10986 7.17919 3.90405 6.86925 3.60254 6.68884L3.57617 6.67356L3.56763 6.66878L3.56079 6.66512L3.55859 6.66384L3.55151 6.66006L3.5498 6.65922L3.54199 6.65509C3.37012 6.56547 3.17773 6.51812 2.9834 6.51784H2.97949C2.31055 6.51881 1.73462 7.01397 1.63965 7.66965C1.5354 8.38831 1.9873 9.04597 2.69067 9.19947C2.83423 9.23078 2.93652 9.35788 2.93652 9.50478V12.9969H12.438C12.6106 12.9969 12.7505 13.1369 12.7505 13.3094C12.7505 13.482 12.6106 13.6219 12.438 13.6219H2.93652V14.1884H15.0635V9.50475Z" fill="white"/>
<path d="M15.0232 5.89288L15.0234 5.79288H15.0232V5.89288ZM16.9788 7.58L17.0777 7.56567L17.0777 7.56565L16.9788 7.58ZM15.0137 5.89288V5.79288L15.0134 5.79288L15.0137 5.89288ZM14.793 5.90678H14.693V6.01992L14.8052 6.00602L14.793 5.90678ZM3.20703 5.90678L3.19468 6.00601L3.30703 6.02V5.90678H3.20703ZM3.09863 5.8966L3.09226 5.99639L3.09227 5.99639L3.09863 5.8966ZM2.98633 5.89288L2.98658 5.79288H2.98633V5.89288ZM2.97681 5.89288V5.79288L2.97657 5.79288L2.97681 5.89288ZM1.02124 7.58L0.922275 7.56565L0.922272 7.56567L1.02124 7.58ZM1.36279 9.01759L1.28117 9.07537L1.28118 9.07538L1.36279 9.01759ZM2.31152 9.73953H2.41152V9.66913L2.34525 9.64539L2.31152 9.73953ZM3.19556 14.8134H3.29556V14.7134H3.19556V14.8134ZM4.86157 16.3533L4.95358 16.3924L4.95359 16.3924L4.86157 16.3533ZM5.51685 14.8134V14.7134H5.45072L5.42483 14.7743L5.51685 14.8134ZM12.4832 14.8134L12.5752 14.7743L12.5493 14.7134H12.4832V14.8134ZM13.1384 16.3533L13.0464 16.3924L13.0464 16.3924L13.1384 16.3533ZM14.8044 14.8134V14.7134H14.7044V14.8134H14.8044ZM15.6885 9.73953L15.6548 9.64539L15.5885 9.66913V9.73953H15.6885ZM16.6372 9.01759L16.7188 9.07538L16.7188 9.07536L16.6372 9.01759ZM14.168 6.10138L14.216 6.18911L14.268 6.16067V6.10138H14.168ZM14.1653 6.10284L14.2115 6.19153L14.2133 6.19058L14.1653 6.10284ZM14.1555 6.10794L14.1093 6.01924L14.1072 6.02038L14.1555 6.10794ZM14.1477 6.11225L14.1946 6.20057L14.196 6.1998L14.1477 6.11225ZM14.1428 6.11484L14.0959 6.02652L14.0945 6.02728L14.1428 6.11484ZM14.1333 6.12009L14.1815 6.2077L14.1816 6.20765L14.1333 6.12009ZM14.1301 6.12184L14.1782 6.20952L14.1784 6.20945L14.1301 6.12184ZM14.1172 6.12894L14.0691 6.04125L14.0681 6.0418L14.1172 6.12894ZM13.186 9.40869L13.1472 9.50084L13.286 9.55934V9.40869H13.186ZM4.81396 9.40869H4.71396V9.55934L4.8528 9.50084L4.81396 9.40869ZM4.81396 7.75081H4.91397L4.91396 7.74984L4.81396 7.75081ZM4.81372 7.72573L4.91372 7.72475L4.91372 7.72468L4.81372 7.72573ZM4.81177 7.656L4.9117 7.65179L4.91157 7.64979L4.81177 7.656ZM4.80981 7.62459L4.90962 7.61838L4.9096 7.61799L4.80981 7.62459ZM4.78833 7.43847L4.88696 7.42196L4.88682 7.42116L4.78833 7.43847ZM4.78296 7.40791L4.88145 7.3906L4.88144 7.39056L4.78296 7.40791ZM4.76416 7.31706L4.8615 7.29414L4.8613 7.2933L4.76416 7.31706ZM4.75317 7.27216L4.85032 7.24839L4.8499 7.24676L4.75317 7.27216ZM4.74927 7.25728L4.84599 7.23188L4.84583 7.2313L4.74927 7.25728ZM4.729 7.18697L4.82468 7.15787L4.82437 7.15688L4.729 7.18697ZM4.72681 7.18L4.6314 7.20995L4.63144 7.21008L4.72681 7.18ZM3.88281 6.12903L3.83348 6.21601L3.83375 6.21617L3.88281 6.12903ZM3.87036 6.12197L3.91971 6.03495L3.91736 6.0337L3.87036 6.12197ZM3.86426 6.11872L3.81556 6.20608L3.81726 6.20698L3.86426 6.11872ZM3.85742 6.11491L3.90612 6.02755L3.90442 6.02664L3.85742 6.11491ZM3.85425 6.11322L3.90125 6.02495L3.9009 6.02477L3.85425 6.11322ZM3.84424 6.10794L3.79758 6.19639L3.79759 6.19639L3.84424 6.10794ZM3.83203 6.1015H3.73203V6.16181L3.78537 6.18995L3.83203 6.1015ZM4.81396 10.3971H4.71396V10.4971H4.81396V10.3971ZM4.81396 10.0976L4.7677 10.0089L4.71396 10.037V10.0976H4.81396ZM13.186 10.3971V10.4971H13.286V10.3971H13.186ZM13.186 10.0976H13.286V10.037L13.2323 10.0089L13.186 10.0976ZM13.186 11.7977V11.8977H13.286V11.7977H13.186ZM13.186 11.0221H13.286V10.9221H13.186V11.0221ZM4.81396 11.7977H4.71396V11.8977H4.81396V11.7977ZM4.81396 11.0221V10.9221H4.71396V11.0221H4.81396ZM4.36743 15.9184V16.0184H4.43355L4.45945 15.9576L4.36743 15.9184ZM3.82056 15.9184H3.72056V16.0184H3.82056V15.9184ZM4.83765 14.8134L4.92966 14.8526L4.98888 14.7134H4.83765V14.8134ZM3.82056 14.8134V14.7134H3.72056V14.8134H3.82056ZM13.6326 15.9184L13.5406 15.9576L13.5664 16.0184H13.6326V15.9184ZM14.1794 15.9184V16.0184H14.2794V15.9184H14.1794ZM13.1624 14.8134V14.7134H13.0111L13.0703 14.8526L13.1624 14.8134ZM14.1794 14.8134H14.2794V14.7134H14.1794V14.8134ZM15.3093 9.19944L15.3306 9.29714L15.3307 9.29714L15.3093 9.19944ZM16.3601 7.66959L16.2611 7.68393L16.2611 7.68395L16.3601 7.66959ZM15.0205 6.51778L15.0206 6.41778H15.0205V6.51778ZM15.0164 6.51778V6.41778L15.0162 6.41778L15.0164 6.51778ZM14.4692 6.64912L14.424 6.55993L14.423 6.56045L14.4692 6.64912ZM14.4658 6.65091L14.5114 6.73991L14.512 6.73958L14.4658 6.65091ZM14.4614 6.65316L14.4158 6.56414L14.4143 6.56494L14.4614 6.65316ZM14.4558 6.65615L14.5008 6.7455L14.5029 6.74437L14.4558 6.65615ZM14.4524 6.65788L14.4074 6.56851L14.4046 6.57003L14.4524 6.65788ZM14.4456 6.66159L14.4919 6.7502L14.4933 6.74943L14.4456 6.66159ZM14.4431 6.66287L14.3967 6.57427L14.3957 6.57483L14.4431 6.66287ZM14.4336 6.668L14.3862 6.57994L14.3845 6.58087L14.4336 6.668ZM14.4238 6.6735L14.4729 6.76065L14.4729 6.76063L14.4238 6.6735ZM13.8394 7.48162L13.7416 7.46075L13.7414 7.46146L13.8394 7.48162ZM13.8352 7.50178L13.7372 7.48161L13.7368 7.48405L13.8352 7.50178ZM13.8279 7.54243L13.7295 7.5247L13.7293 7.52583L13.8279 7.54243ZM13.8154 7.64359L13.9151 7.65184L13.9151 7.65145L13.8154 7.64359ZM4.18896 7.75066H4.28898L4.28895 7.74881L4.18896 7.75066ZM4.18799 7.69791L4.28805 7.69605L4.28782 7.69209L4.18799 7.69791ZM4.18677 7.67694L4.2866 7.67113L4.28655 7.67033L4.18677 7.67694ZM4.18457 7.64375L4.28442 7.63714L4.28405 7.63354L4.18457 7.64375ZM4.17944 7.59375L4.27898 7.58354L4.27852 7.58021L4.17944 7.59375ZM4.17383 7.55265L4.27295 7.53911L4.27245 7.53613L4.17383 7.55265ZM4.17041 7.53225L4.26904 7.51573L4.26897 7.51535L4.17041 7.53225ZM3.60254 6.68884L3.65389 6.60302L3.65268 6.60232L3.60254 6.68884ZM3.57617 6.67356L3.62632 6.58703L3.62499 6.58629L3.57617 6.67356ZM3.56763 6.66878L3.61645 6.58149L3.61481 6.58061L3.56763 6.66878ZM3.56079 6.66512L3.51037 6.75156L3.51361 6.75329L3.56079 6.66512ZM3.55859 6.66384L3.60902 6.5774L3.60569 6.57563L3.55859 6.66384ZM3.55151 6.66006L3.59864 6.5718L3.59575 6.57038L3.55151 6.66006ZM3.5498 6.65922L3.50311 6.74769L3.50556 6.7489L3.5498 6.65922ZM3.54199 6.65509L3.58867 6.56666L3.58823 6.56643L3.54199 6.65509ZM2.9834 6.51784L2.98354 6.41784H2.9834V6.51784ZM2.97949 6.51784V6.41784L2.97935 6.41784L2.97949 6.51784ZM1.63965 7.66965L1.73861 7.68401L1.73862 7.68399L1.63965 7.66965ZM2.69067 9.19947L2.66935 9.29717L2.66936 9.29717L2.69067 9.19947ZM2.93652 12.9969H2.83652V13.0969H2.93652V12.9969ZM2.93652 13.6219V13.5219H2.83652V13.6219H2.93652ZM2.93652 14.1884H2.83652V14.2884H2.93652V14.1884ZM15.0635 14.1884V14.2884H15.1635V14.1884H15.0635ZM15.023 5.99288C15.9499 5.9951 16.7478 6.6841 16.8798 7.59435L17.0777 7.56565C16.9314 6.55627 16.0486 5.79534 15.0234 5.79288L15.023 5.99288ZM15.0137 5.99288H15.0232V5.79288H15.0137V5.99288ZM14.8052 6.00602C14.8743 5.99748 14.944 5.99305 15.0139 5.99288L15.0134 5.79288C14.9354 5.79307 14.8576 5.79801 14.7807 5.80754L14.8052 6.00602ZM14.693 4.35728V5.90678H14.893V4.35728H14.693ZM13.4548 3.11909C14.1374 3.11909 14.693 3.67466 14.693 4.35728H14.893C14.893 3.56421 14.2479 2.91909 13.4548 2.91909V3.11909ZM4.54517 3.11909H13.4548V2.91909H4.54517V3.11909ZM3.30703 4.35728C3.30703 3.67463 3.8626 3.11909 4.54517 3.11909V2.91909C3.75214 2.91909 3.10703 3.56418 3.10703 4.35728H3.30703ZM3.30703 5.90678V4.35728H3.10703V5.90678H3.30703ZM3.09227 5.99639C3.12665 5.99858 3.16079 6.0018 3.19468 6.00601L3.21938 5.80755C3.1815 5.80283 3.14337 5.79924 3.105 5.7968L3.09227 5.99639ZM2.98607 5.99288C3.02163 5.99297 3.05695 5.99414 3.09226 5.99639L3.105 5.7968C3.06561 5.79428 3.02622 5.79298 2.98658 5.79288L2.98607 5.99288ZM2.97681 5.99288H2.98633V5.79288H2.97681V5.99288ZM1.12021 7.59435C1.25218 6.68413 2.05008 5.9951 2.97705 5.99288L2.97657 5.79288C1.95139 5.79534 1.06862 6.55631 0.922275 7.56565L1.12021 7.59435ZM1.44442 8.95982C1.16503 8.56511 1.04985 8.08044 1.12021 7.59432L0.922272 7.56567C0.844686 8.10168 0.971685 8.63813 1.28117 9.07537L1.44442 8.95982ZM2.34525 9.64539C1.98401 9.51599 1.6699 9.2783 1.44441 8.95981L1.28118 9.07538C1.5303 9.42726 1.87781 9.69039 2.2778 9.83367L2.34525 9.64539ZM2.41152 14.5009V9.73953H2.21152V14.5009H2.41152ZM2.62402 14.7134C2.50665 14.7134 2.41152 14.6183 2.41152 14.5009H2.21152C2.21152 14.7287 2.39618 14.9134 2.62402 14.9134V14.7134ZM3.19556 14.7134H2.62402V14.9134H3.19556V14.7134ZM3.29556 16.2309V14.8134H3.09556V16.2309H3.29556ZM3.50806 16.4434C3.39069 16.4434 3.29556 16.3482 3.29556 16.2309H3.09556C3.09556 16.4587 3.28021 16.6434 3.50806 16.6434V16.4434ZM4.57397 16.4434H3.50806V16.6434H4.57397V16.4434ZM4.76956 16.3141C4.7362 16.3925 4.65915 16.4434 4.57397 16.4434V16.6434C4.73929 16.6434 4.8888 16.5446 4.95358 16.3924L4.76956 16.3141ZM5.42483 14.7743L4.76956 16.3141L4.95359 16.3924L5.60886 14.8526L5.42483 14.7743ZM12.4832 14.7134H5.51685V14.9134H12.4832V14.7134ZM13.2304 16.3141L12.5752 14.7743L12.3911 14.8526L13.0464 16.3924L13.2304 16.3141ZM13.426 16.4434C13.3407 16.4434 13.2638 16.3925 13.2304 16.3141L13.0464 16.3924C13.1112 16.5446 13.2604 16.6434 13.426 16.6434V16.4434ZM14.4919 16.4434H13.426V16.6434H14.4919V16.4434ZM14.7044 16.2309C14.7044 16.3482 14.6093 16.4434 14.4919 16.4434V16.6434C14.7198 16.6434 14.9044 16.4587 14.9044 16.2309H14.7044ZM14.7044 14.8134V16.2309H14.9044V14.8134H14.7044ZM15.376 14.7134H14.8044V14.9134H15.376V14.7134ZM15.5885 14.5009C15.5885 14.6183 15.4933 14.7134 15.376 14.7134V14.9134C15.6038 14.9134 15.7885 14.7287 15.7885 14.5009H15.5885ZM15.5885 9.73953V14.5009H15.7885V9.73953H15.5885ZM16.5556 8.95981C16.3301 9.27828 16.016 9.51599 15.6548 9.64539L15.7222 9.83367C16.1222 9.69039 16.4697 9.42722 16.7188 9.07538L16.5556 8.95981ZM16.8798 7.59432C16.9502 8.08044 16.835 8.56508 16.5556 8.95982L16.7188 9.07536C17.0283 8.6381 17.1553 8.10169 17.0777 7.56567L16.8798 7.59432ZM13.4548 3.54409H4.54517V3.74409H13.4548V3.54409ZM14.268 4.35725C14.268 3.90878 13.9034 3.54409 13.4548 3.54409V3.74409C13.7929 3.74409 14.068 4.01922 14.068 4.35725H14.268ZM14.268 6.10138V4.35725H14.068V6.10138H14.268ZM14.2133 6.19058L14.216 6.18911L14.12 6.01364L14.1173 6.01511L14.2133 6.19058ZM14.2018 6.1966L14.2115 6.19151L14.119 6.01418L14.1093 6.01927L14.2018 6.1966ZM14.196 6.1998L14.2038 6.19549L14.1072 6.02038L14.0994 6.02469L14.196 6.1998ZM14.1897 6.20315L14.1946 6.20056L14.1008 6.02394L14.0959 6.02653L14.1897 6.20315ZM14.1816 6.20765L14.1911 6.2024L14.0945 6.02728L14.085 6.03254L14.1816 6.20765ZM14.1784 6.20945L14.1815 6.2077L14.0851 6.03249L14.0819 6.03424L14.1784 6.20945ZM14.1653 6.21662L14.1782 6.20952L14.082 6.03416L14.0691 6.04125L14.1653 6.21662ZM13.286 7.75078C13.286 7.10859 13.6245 6.52108 14.1662 6.21607L14.0681 6.0418C13.4614 6.38341 13.086 7.03878 13.086 7.75078H13.286ZM13.286 9.40869V7.75078H13.086V9.40869H13.286ZM9 8.84794C10.6619 8.84794 12.1835 9.09476 13.1472 9.50084L13.2249 9.31653C12.2271 8.89612 10.676 8.64794 9 8.64794V8.84794ZM4.8528 9.50084C5.8165 9.09476 7.33809 8.84794 9 8.84794V8.64794C7.32402 8.64794 5.77285 8.89612 4.77513 9.31653L4.8528 9.50084ZM4.71396 7.75081V9.40869H4.91396V7.75081H4.71396ZM4.71373 7.7267L4.71397 7.75179L4.91396 7.74984L4.91372 7.72475L4.71373 7.7267ZM4.71186 7.66021C4.7128 7.6827 4.7135 7.70483 4.71373 7.72677L4.91372 7.72468C4.91346 7.69999 4.91268 7.67564 4.91168 7.65179L4.71186 7.66021ZM4.71001 7.6308L4.71196 7.66221L4.91157 7.64979L4.90962 7.61838L4.71001 7.6308ZM4.6897 7.45497C4.69938 7.51279 4.70609 7.57161 4.71003 7.6312L4.9096 7.61799C4.90524 7.55214 4.89779 7.4867 4.88696 7.42197L4.6897 7.45497ZM4.68447 7.42521L4.68984 7.45578L4.88682 7.42116L4.88145 7.3906L4.68447 7.42521ZM4.66682 7.33999C4.67353 7.36845 4.67948 7.39686 4.68447 7.42525L4.88144 7.39056C4.8757 7.35795 4.86895 7.32579 4.8615 7.29414L4.66682 7.33999ZM4.65604 7.29592L4.66702 7.34083L4.8613 7.2933L4.85031 7.24839L4.65604 7.29592ZM4.65255 7.28267L4.65645 7.29755L4.8499 7.24676L4.84599 7.23188L4.65255 7.28267ZM4.63333 7.21606C4.64019 7.23863 4.64671 7.26099 4.6527 7.28326L4.84583 7.2313C4.83913 7.20638 4.83197 7.18186 4.82468 7.15787L4.63333 7.21606ZM4.63144 7.21008L4.63364 7.21705L4.82437 7.15688L4.82217 7.14992L4.63144 7.21008ZM3.83375 6.21617C4.21792 6.43246 4.49978 6.79064 4.6314 7.20995L4.82222 7.15005C4.676 6.68423 4.36216 6.28416 3.93187 6.04189L3.83375 6.21617ZM3.82103 6.20895L3.83348 6.21601L3.93214 6.04204L3.91969 6.03498L3.82103 6.20895ZM3.81726 6.20698L3.82336 6.21023L3.91736 6.0337L3.91126 6.03045L3.81726 6.20698ZM3.80873 6.20225L3.81557 6.20606L3.91295 6.03137L3.90611 6.02756L3.80873 6.20225ZM3.80725 6.20148L3.81042 6.20317L3.90442 6.02664L3.90125 6.02495L3.80725 6.20148ZM3.79759 6.19639L3.8076 6.20167L3.9009 6.02477L3.89089 6.01949L3.79759 6.19639ZM3.78537 6.18995L3.79758 6.19639L3.89089 6.01949L3.87869 6.01305L3.78537 6.18995ZM3.73203 4.35728V6.1015H3.93203V4.35728H3.73203ZM4.54517 3.54409C4.09661 3.54409 3.73203 3.90878 3.73203 4.35728H3.93203C3.93203 4.01922 4.2071 3.74409 4.54517 3.74409V3.54409ZM4.91396 10.3971V10.0976H4.71396V10.3971H4.91396ZM13.186 10.2971H4.81396V10.4971H13.186V10.2971ZM13.086 10.0976V10.3971H13.286V10.0976H13.086ZM9 9.47294C10.7219 9.47294 12.3121 9.75432 13.1398 10.1862L13.2323 10.0089C12.3617 9.55462 10.7327 9.27294 9 9.27294V9.47294ZM4.86023 10.1862C5.68789 9.75429 7.27784 9.47294 9 9.47294V9.27294C7.26708 9.27294 5.63828 9.55459 4.7677 10.0089L4.86023 10.1862ZM13.286 11.7977V11.0221H13.086V11.7977H13.286ZM4.81396 11.8977H13.186V11.6977H4.81396V11.8977ZM4.71396 11.0221V11.7977H4.91396V11.0221H4.71396ZM13.186 10.9221H4.81396V11.1221H13.186V10.9221ZM4.36743 15.8184H3.82056V16.0184H4.36743V15.8184ZM4.74563 14.7743L4.27542 15.8793L4.45945 15.9576L4.92966 14.8526L4.74563 14.7743ZM3.82056 14.9134H4.83765V14.7134H3.82056V14.9134ZM3.92056 15.9184V14.8134H3.72056V15.9184H3.92056ZM13.6326 16.0184H14.1794V15.8184H13.6326V16.0184ZM13.0703 14.8526L13.5406 15.9576L13.7246 15.8793L13.2544 14.7743L13.0703 14.8526ZM14.1794 14.7134H13.1624V14.9134H14.1794V14.7134ZM14.2794 15.9184V14.8134H14.0794V15.9184H14.2794ZM15.288 9.10173C15.0985 9.14307 14.9635 9.31081 14.9635 9.50475H15.1635C15.1635 9.40481 15.233 9.31843 15.3306 9.29714L15.288 9.10173ZM16.2611 7.68395C16.358 8.35142 15.9391 8.95959 15.288 9.10174L15.3307 9.29714C16.0858 9.13229 16.5707 8.42514 16.4591 7.65524L16.2611 7.68395ZM15.0204 6.61778C15.6401 6.61865 16.1734 7.07803 16.2611 7.68393L16.4591 7.65526C16.3569 6.94971 15.7383 6.41879 15.0206 6.41778L15.0204 6.61778ZM15.0164 6.61778H15.0205V6.41778H15.0164V6.61778ZM14.5145 6.73832C14.6697 6.65959 14.8423 6.61804 15.0165 6.61778L15.0162 6.41778C14.8105 6.41809 14.6071 6.4671 14.424 6.55993L14.5145 6.73832ZM14.512 6.73958L14.5155 6.7378L14.423 6.56045L14.4196 6.56223L14.512 6.73958ZM14.507 6.74216L14.5114 6.73991L14.4202 6.5619L14.4158 6.56415L14.507 6.74216ZM14.5029 6.74437L14.5085 6.74137L14.4143 6.56494L14.4087 6.56794L14.5029 6.74437ZM14.4974 6.7472L14.5008 6.74548L14.4109 6.56683L14.4074 6.56855L14.4974 6.7472ZM14.4933 6.74943L14.5002 6.74572L14.4046 6.57003L14.3978 6.57375L14.4933 6.74943ZM14.4895 6.75147L14.4919 6.75019L14.3992 6.573L14.3967 6.57428L14.4895 6.75147ZM14.481 6.75605L14.4905 6.75092L14.3957 6.57483L14.3862 6.57995L14.481 6.75605ZM14.4729 6.76063L14.4827 6.75513L14.3845 6.58087L14.3748 6.58637L14.4729 6.76063ZM13.9372 7.5025C14.0045 7.18699 14.1979 6.91538 14.4729 6.76065L14.3748 6.58635C14.0472 6.77074 13.8202 7.09219 13.7416 7.46075L13.9372 7.5025ZM13.9332 7.52195L13.9373 7.50179L13.7414 7.46146L13.7373 7.48161L13.9332 7.52195ZM13.9263 7.56017L13.9336 7.51951L13.7368 7.48405L13.7295 7.5247L13.9263 7.56017ZM13.9151 7.65145C13.9176 7.62029 13.9214 7.58946 13.9265 7.55904L13.7293 7.52583C13.7232 7.56212 13.7187 7.59879 13.7157 7.63573L13.9151 7.65145ZM13.911 7.75069C13.911 7.71744 13.9124 7.68446 13.9151 7.65184L13.7158 7.63534C13.7126 7.67352 13.711 7.71201 13.711 7.75069H13.911ZM13.911 12.1101V7.75069H13.711V12.1101H13.911ZM13.4985 12.5226C13.7264 12.5226 13.911 12.3379 13.911 12.1101H13.711C13.711 12.2275 13.6159 12.3226 13.4985 12.3226V12.5226ZM4.50146 12.5226H13.4985V12.3226H4.50146V12.5226ZM4.08896 12.1101C4.08896 12.3379 4.27363 12.5226 4.50146 12.5226V12.3226C4.38409 12.3226 4.28896 12.2275 4.28896 12.1101H4.08896ZM4.08896 7.75066V12.1101H4.28896V7.75066H4.08896ZM4.08801 7.69976L4.08898 7.75251L4.28895 7.74881L4.28797 7.69606L4.08801 7.69976ZM4.08694 7.68275L4.08816 7.70372L4.28782 7.69209L4.2866 7.67113L4.08694 7.68275ZM4.08479 7.65035L4.08699 7.68354L4.28655 7.67033L4.28435 7.63714L4.08479 7.65035ZM4.07997 7.60395L4.08509 7.65395L4.28405 7.63354L4.27892 7.58355L4.07997 7.60395ZM4.07475 7.56619L4.08036 7.60729L4.27852 7.58021L4.27291 7.53912L4.07475 7.56619ZM4.07178 7.54877L4.0752 7.56917L4.27245 7.53613L4.26904 7.51573L4.07178 7.54877ZM3.55119 6.77466C3.82644 6.93934 4.01599 7.22341 4.07185 7.54915L4.26897 7.51535C4.20374 7.13497 3.98166 6.79915 3.65388 6.60303L3.55119 6.77466ZM3.52603 6.76008L3.55239 6.77536L3.65268 6.60232L3.62632 6.58704L3.52603 6.76008ZM3.51881 6.75606L3.52735 6.76083L3.62499 6.58629L3.61645 6.58151L3.51881 6.75606ZM3.51361 6.75329L3.52044 6.75695L3.61481 6.58061L3.60798 6.57695L3.51361 6.75329ZM3.50821 6.75022L3.5104 6.7515L3.61118 6.57875L3.60898 6.57746L3.50821 6.75022ZM3.50441 6.74827L3.51149 6.75205L3.60569 6.57563L3.59861 6.57185L3.50441 6.74827ZM3.50556 6.7489L3.50727 6.74974L3.59575 6.57038L3.59404 6.56954L3.50556 6.7489ZM3.49531 6.74353L3.50313 6.74765L3.59648 6.57078L3.58867 6.56666L3.49531 6.74353ZM2.98325 6.61784C3.16154 6.6181 3.33812 6.66156 3.49575 6.74376L3.58823 6.56643C3.40212 6.46938 3.19393 6.41815 2.98354 6.41784L2.98325 6.61784ZM2.97949 6.61784H2.9834V6.41784H2.97949V6.61784ZM1.73862 7.68399C1.82637 7.07814 2.3596 6.61874 2.97964 6.61784L2.97935 6.41784C2.26149 6.41888 1.64287 6.9498 1.54068 7.65532L1.73862 7.68399ZM2.712 9.10177C2.0606 8.95961 1.6418 8.35144 1.73861 7.68401L1.54068 7.6553C1.42901 8.42518 1.91401 9.13232 2.66935 9.29717L2.712 9.10177ZM3.03652 9.50478C3.03652 9.31089 2.9015 9.14311 2.71199 9.10176L2.66936 9.29717C2.76696 9.31846 2.83652 9.40487 2.83652 9.50478H3.03652ZM3.03652 12.9969V9.50478H2.83652V12.9969H3.03652ZM12.438 12.8969H2.93652V13.0969H12.438V12.8969ZM12.8505 13.3094C12.8505 13.0817 12.6658 12.8969 12.438 12.8969V13.0969C12.5554 13.0969 12.6505 13.1921 12.6505 13.3094H12.8505ZM12.438 13.7219C12.6658 13.7219 12.8505 13.5372 12.8505 13.3094H12.6505C12.6505 13.4268 12.5554 13.5219 12.438 13.5219V13.7219ZM2.93652 13.7219H12.438V13.5219H2.93652V13.7219ZM3.03652 14.1884V13.6219H2.83652V14.1884H3.03652ZM15.0635 14.0884H2.93652V14.2884H15.0635V14.0884ZM14.9635 9.50475V14.1884H15.1635V9.50475H14.9635Z" fill="white"/>
</g>
<path id="Shape_2" d="M13.9206 13.2485C13.9165 13.2285 13.9106 13.2088 13.9028 13.1897C13.895 13.171 13.8853 13.1529 13.874 13.136C13.8625 13.1188 13.8493 13.1029 13.835 13.0885C13.8206 13.0741 13.8046 13.061 13.7875 13.0494C13.7706 13.0382 13.7525 13.0285 13.7337 13.021C13.7146 13.0132 13.6952 13.0069 13.6752 13.0032C13.6346 12.9951 13.5934 12.9951 13.5531 13.0032C13.533 13.0069 13.5134 13.0132 13.4946 13.021C13.4759 13.0285 13.4575 13.0382 13.4406 13.0494C13.4234 13.061 13.4075 13.0741 13.3931 13.0885C13.3787 13.1029 13.3656 13.1188 13.3543 13.136C13.3431 13.1529 13.3334 13.171 13.3256 13.1897C13.3178 13.2088 13.3118 13.2285 13.3078 13.2485C13.3037 13.2685 13.3015 13.2892 13.3015 13.3094C13.3015 13.3917 13.335 13.4722 13.3931 13.5304C13.4075 13.5447 13.4234 13.5579 13.4406 13.5691C13.4575 13.5803 13.4759 13.5901 13.4947 13.5979C13.5134 13.6057 13.5331 13.6119 13.5531 13.6157C13.5731 13.6197 13.5937 13.6219 13.614 13.6219C13.6346 13.6219 13.655 13.6197 13.6753 13.6157C13.6953 13.6119 13.7147 13.6057 13.7337 13.5979C13.7525 13.5901 13.7706 13.5803 13.7875 13.5691C13.8047 13.5579 13.8206 13.5447 13.835 13.5304C13.8934 13.4722 13.9265 13.3917 13.9265 13.3094C13.9265 13.2892 13.9247 13.2685 13.9206 13.2485Z" fill="white" stroke="white" stroke-width="0.2"/>
</g>
</g>
</svg>
