<svg width="18" height="18" viewBox="0 0 18 18" fill="none" xmlns="http://www.w3.org/2000/svg">
<g id="Rest">
<rect id="Rectangle 4 Copy 28" width="18" height="18" fill="#F4F7FB" fill-opacity="0.01"/>
<g id="armchair">
<g id="Shape">
<path fill-rule="evenodd" clip-rule="evenodd" d="M16.9788 7.58C16.8397 6.62019 15.9991 5.89522 15.0233 5.89288H15.0137C14.9398 5.89306 14.8661 5.89775 14.793 5.90678V4.35728C14.793 3.61944 14.1927 3.01909 13.4548 3.01909H4.54517C3.80725 3.01909 3.20691 3.6194 3.20691 4.35728V5.90678C3.13391 5.89772 3.0603 5.89306 2.98633 5.89288H2.97668C2.00085 5.89522 1.16028 6.62022 1.02124 7.58C0.947144 8.09106 1.06848 8.60162 1.36279 9.01759C1.59998 9.35278 1.93091 9.60319 2.31152 9.73953V14.5009C2.31152 14.6735 2.45142 14.8134 2.62402 14.8134H3.19556V16.2309C3.19556 16.4035 3.33545 16.5434 3.50806 16.5434H4.57397C4.69934 16.5434 4.8125 16.4686 4.86157 16.3533L5.51685 14.8134H12.4832L13.1384 16.3533C13.1875 16.4686 13.3007 16.5434 13.4259 16.5434H14.4919C14.6644 16.5434 14.8044 16.4035 14.8044 16.2309V14.8134H15.376C15.5485 14.8134 15.6885 14.6735 15.6885 14.5009V9.73953C16.069 9.60319 16.3999 9.35275 16.6372 9.01759C16.9315 8.60159 17.0529 8.09106 16.9788 7.58ZM4.54517 3.64409H13.455C13.8481 3.64409 14.1681 3.964 14.1681 4.35725V6.10138L14.1653 6.10284L14.1556 6.10794L14.1476 6.11225L14.1428 6.11484L14.1332 6.12009L14.13 6.12184L14.1173 6.12894C13.5428 6.45225 13.186 7.07368 13.186 7.75078V9.40869C12.2053 8.99544 10.6689 8.74794 9 8.74794C7.33105 8.74794 5.7948 8.99544 4.81396 9.40869V7.75081C4.81396 7.73268 4.81372 7.7146 4.81323 7.69656L4.8125 7.6761L4.81165 7.656L4.80981 7.62459C4.80566 7.56187 4.79858 7.49975 4.78833 7.43847L4.78308 7.40791C4.77747 7.3774 4.77124 7.34712 4.76416 7.31706C4.76074 7.30203 4.75708 7.28706 4.75317 7.27216L4.74927 7.25728C4.74292 7.23368 4.73621 7.21025 4.729 7.18697L4.72681 7.18C4.58801 6.73744 4.29016 6.35831 3.88293 6.12903L3.87024 6.12197L3.86426 6.11872L3.8573 6.11491L3.85413 6.11322L3.84436 6.10794L3.83203 6.1015V4.35728C3.83203 3.964 4.15198 3.64409 4.54517 3.64409ZM4.81396 10.0976V10.3971H13.186V10.0976C12.337 9.65447 10.7274 9.37294 9 9.37294C7.27258 9.37294 5.66296 9.65444 4.81396 10.0976ZM13.186 11.0221V11.7977H4.81396V11.0221H13.186ZM3.82056 15.9184H4.36731L4.83752 14.8134H3.82056V15.9184ZM14.1794 15.9184H13.6327L13.1625 14.8134H14.1794V15.9184ZM15.0635 9.50475C15.0635 9.35781 15.1658 9.23075 15.3093 9.19944C16.0126 9.04594 16.4644 8.38828 16.3602 7.66959C16.2653 7.01387 15.6893 6.51872 15.0205 6.51778H15.0165C14.8265 6.51806 14.6384 6.56334 14.4695 6.64912L14.4659 6.65091L14.4615 6.65316L14.4558 6.65615L14.4526 6.65788L14.4456 6.66159L14.4432 6.66287L14.4347 6.66753L14.4338 6.668L14.424 6.6735C14.1227 6.84306 13.9125 7.13959 13.8395 7.48162L13.8353 7.50178C13.8326 7.51528 13.8302 7.52881 13.828 7.54243C13.8169 7.61047 13.8112 7.68012 13.8112 7.75069V12.1101C13.8112 12.2827 13.6713 12.4226 13.4987 12.4226H4.50159C4.32898 12.4226 4.18909 12.2827 4.18909 12.1101V7.75066C4.18909 7.733 4.18872 7.71544 4.18799 7.69791L4.18701 7.67694C4.18604 7.65981 4.18469 7.64276 4.18311 7.62579L4.17957 7.59375C4.17786 7.58 4.1759 7.56631 4.17383 7.55265L4.17053 7.53225C4.10986 7.17919 3.90417 6.86925 3.60266 6.68884L3.57629 6.67356L3.56934 6.66969L3.56763 6.66878L3.56104 6.66512L3.55859 6.66384L3.55164 6.66006L3.55005 6.65922L3.54211 6.65509C3.37012 6.56547 3.17786 6.51812 2.98364 6.51784H2.97961C2.31079 6.51881 1.73486 7.01397 1.63977 7.66965C1.53564 8.38831 1.98743 9.04597 2.69067 9.19947C2.83423 9.23078 2.93652 9.35788 2.93652 9.50478V12.9969H12.4381C12.6107 12.9969 12.7506 13.1369 12.7506 13.3094C12.7506 13.482 12.6107 13.6219 12.4381 13.6219H2.93652V14.1884H15.0635V9.50475Z" fill="#0C49CD"/>
<path d="M15.0233 5.89288L15.0236 5.79288H15.0233V5.89288ZM16.9788 7.58L16.8798 7.59433L16.8798 7.59435L16.9788 7.58ZM15.0137 5.89288V5.79288L15.0134 5.79288L15.0137 5.89288ZM14.793 5.90678H14.693V6.01989L14.8052 6.00603L14.793 5.90678ZM3.20691 5.90678L3.19459 6.00602L3.30691 6.01996V5.90678H3.20691ZM2.98633 5.89288L2.98658 5.79288H2.98633V5.89288ZM2.97668 5.89288V5.79288L2.97644 5.79288L2.97668 5.89288ZM1.02124 7.58L1.12021 7.59435L1.12021 7.59433L1.02124 7.58ZM1.36279 9.01759L1.28116 9.07535L1.28116 9.07536L1.36279 9.01759ZM2.31152 9.73953H2.41152V9.66913L2.34525 9.64539L2.31152 9.73953ZM3.19556 14.8134H3.29556V14.7134H3.19556V14.8134ZM4.86157 16.3533L4.95358 16.3924L4.95359 16.3924L4.86157 16.3533ZM5.51685 14.8134V14.7134H5.45072L5.42483 14.7743L5.51685 14.8134ZM12.4832 14.8134L12.5752 14.7743L12.5493 14.7134H12.4832V14.8134ZM13.1384 16.3533L13.0464 16.3924L13.0464 16.3924L13.1384 16.3533ZM14.8044 14.8134V14.7134H14.7044V14.8134H14.8044ZM15.6885 9.73953L15.6547 9.64539L15.5885 9.66914V9.73953H15.6885ZM16.6372 9.01759L16.7188 9.07538L16.7188 9.07535L16.6372 9.01759ZM14.1681 6.10138L14.2144 6.18998L14.2681 6.16192V6.10138H14.1681ZM14.1653 6.10284L14.1189 6.01423L14.1186 6.01442L14.1653 6.10284ZM14.1556 6.10794L14.1089 6.01951L14.1085 6.01976L14.1556 6.10794ZM14.1476 6.11225L14.1004 6.02407L14.0997 6.02444L14.1476 6.11225ZM14.1428 6.11484L14.1907 6.20266L14.1907 6.20265L14.1428 6.11484ZM14.1332 6.12009L14.0853 6.03228L14.085 6.03249L14.1332 6.12009ZM14.13 6.12184L14.0818 6.03424L14.0812 6.03455L14.13 6.12184ZM14.1173 6.12894L14.0685 6.04164L14.0683 6.04179L14.1173 6.12894ZM13.186 9.40869L13.1472 9.50084L13.286 9.55934V9.40869H13.186ZM4.81396 9.40869H4.71396V9.55933L4.85279 9.50084L4.81396 9.40869ZM4.81323 7.69656L4.9132 7.69385L4.91317 7.69298L4.81323 7.69656ZM4.8125 7.6761L4.91244 7.67252L4.91241 7.67185L4.8125 7.6761ZM4.81165 7.656L4.91157 7.65175L4.91148 7.65018L4.81165 7.656ZM4.80981 7.62459L4.90965 7.61877L4.9096 7.61799L4.80981 7.62459ZM4.78833 7.43847L4.88696 7.42197L4.88689 7.42154L4.78833 7.43847ZM4.78308 7.40791L4.88165 7.39098L4.88143 7.3898L4.78308 7.40791ZM4.76416 7.31706L4.66665 7.33923L4.66682 7.33999L4.76416 7.31706ZM4.75317 7.27216L4.84991 7.2468L4.8499 7.24676L4.75317 7.27216ZM4.74927 7.25728L4.84599 7.23188L4.84583 7.2313L4.74927 7.25728ZM4.729 7.18697L4.82454 7.15741L4.82437 7.15688L4.729 7.18697ZM4.72681 7.18L4.63139 7.20992L4.63144 7.21008L4.72681 7.18ZM3.88293 6.12903L3.932 6.04189L3.93154 6.04164L3.88293 6.12903ZM3.87024 6.12197L3.91885 6.03457L3.91798 6.0341L3.87024 6.12197ZM3.86426 6.11872L3.81622 6.20642L3.81651 6.20658L3.86426 6.11872ZM3.8573 6.11491L3.90534 6.02719L3.9043 6.02664L3.8573 6.11491ZM3.85413 6.11322L3.80657 6.20119L3.80713 6.20148L3.85413 6.11322ZM3.84436 6.10794L3.89192 6.01996L3.89065 6.0193L3.84436 6.10794ZM3.83203 6.1015H3.73203V6.16209L3.78574 6.19014L3.83203 6.1015ZM4.81396 10.3971H4.71396V10.4971H4.81396V10.3971ZM4.81396 10.0976L4.76769 10.0089L4.71396 10.037V10.0976H4.81396ZM13.186 10.3971V10.4971H13.286V10.3971H13.186ZM13.186 10.0976H13.286V10.037L13.2323 10.0089L13.186 10.0976ZM13.186 11.7977V11.8977H13.286V11.7977H13.186ZM13.186 11.0221H13.286V10.9221H13.186V11.0221ZM4.81396 11.7977H4.71396V11.8977H4.81396V11.7977ZM4.81396 11.0221V10.9221H4.71396V11.0221H4.81396ZM4.36731 15.9184V16.0184H4.43343L4.45932 15.9576L4.36731 15.9184ZM3.82056 15.9184H3.72056V16.0184H3.82056V15.9184ZM4.83752 14.8134L4.92954 14.8526L4.98876 14.7134H4.83752V14.8134ZM3.82056 14.8134V14.7134H3.72056V14.8134H3.82056ZM13.6327 15.9184L13.5407 15.9576L13.5666 16.0184H13.6327V15.9184ZM14.1794 15.9184V16.0184H14.2794V15.9184H14.1794ZM13.1625 14.8134V14.7134H13.0112L13.0705 14.8526L13.1625 14.8134ZM14.1794 14.8134H14.2794V14.7134H14.1794V14.8134ZM15.3093 9.19944L15.3306 9.29714L15.3307 9.29714L15.3093 9.19944ZM16.3602 7.66959L16.2613 7.68393L16.2613 7.68393L16.3602 7.66959ZM15.0205 6.51778L15.0206 6.41778H15.0205V6.51778ZM15.0165 6.51778V6.41778L15.0163 6.41778L15.0165 6.51778ZM14.4695 6.64912L14.5144 6.73845L14.5148 6.73829L14.4695 6.64912ZM14.4659 6.65091L14.421 6.56158L14.4204 6.5619L14.4659 6.65091ZM14.4615 6.65316L14.416 6.56415L14.4152 6.56453L14.4615 6.65316ZM14.4558 6.65615L14.4095 6.56752L14.4082 6.56824L14.4558 6.65615ZM14.4526 6.65788L14.4991 6.74641L14.5003 6.74579L14.4526 6.65788ZM14.4456 6.66159L14.399 6.57305L14.3973 6.57401L14.4456 6.66159ZM14.4432 6.66287L14.4911 6.75068L14.4915 6.75046L14.4432 6.66287ZM14.4347 6.66753L14.3868 6.57973L14.3866 6.57988L14.4347 6.66753ZM14.4338 6.668L14.3857 6.58034L14.3852 6.58061L14.4338 6.668ZM14.424 6.6735L14.3753 6.58611L14.3749 6.58635L14.424 6.6735ZM13.8395 7.48162L13.7417 7.46075L13.7415 7.46146L13.8395 7.48162ZM13.8353 7.50178L13.7374 7.48161L13.7372 7.48227L13.8353 7.50178ZM13.828 7.54243L13.9267 7.55855L13.9267 7.55836L13.828 7.54243ZM4.18799 7.69791L4.2879 7.69373L4.28788 7.69325L4.18799 7.69791ZM4.18701 7.67694L4.28691 7.67228L4.28685 7.67124L4.18701 7.67694ZM4.18311 7.62579L4.28269 7.61648L4.2825 7.61481L4.18311 7.62579ZM4.17957 7.59375L4.27897 7.58277L4.2788 7.58142L4.17957 7.59375ZM4.17383 7.55265L4.2727 7.53763L4.27255 7.53671L4.17383 7.55265ZM4.17053 7.53225L4.26926 7.5163L4.26909 7.51531L4.17053 7.53225ZM3.60266 6.68884L3.65401 6.60302L3.65281 6.60232L3.60266 6.68884ZM3.57629 6.67356L3.62645 6.58703L3.62496 6.5862L3.57629 6.67356ZM3.56934 6.66969L3.61801 6.5823L3.6161 6.58129L3.56934 6.66969ZM3.56763 6.66878L3.51909 6.75624L3.52087 6.75717L3.56763 6.66878ZM3.56104 6.66512L3.60957 6.57766L3.60752 6.57658L3.56104 6.66512ZM3.55859 6.66384L3.51085 6.75172L3.51211 6.75238L3.55859 6.66384ZM3.55164 6.66006L3.59938 6.57219L3.59855 6.57175L3.55164 6.66006ZM3.55005 6.65922L3.59697 6.5709L3.59616 6.57049L3.55005 6.65922ZM3.54211 6.65509L3.4959 6.74378L3.496 6.74383L3.54211 6.65509ZM2.98364 6.51784L2.98379 6.41784H2.98364V6.51784ZM2.97961 6.51784V6.41784L2.97947 6.41784L2.97961 6.51784ZM1.63977 7.66965L1.54081 7.6553L1.5408 7.65532L1.63977 7.66965ZM2.69067 9.19947L2.66935 9.29717L2.66936 9.29717L2.69067 9.19947ZM2.93652 12.9969H2.83652V13.0969H2.93652V12.9969ZM2.93652 13.6219V13.5219H2.83652V13.6219H2.93652ZM2.93652 14.1884H2.83652V14.2884H2.93652V14.1884ZM15.0635 14.1884V14.2884H15.1635V14.1884H15.0635ZM15.0231 5.99288C15.9498 5.9951 16.7479 6.68411 16.8798 7.59433L17.0777 7.56566C16.9315 6.55627 16.0485 5.79534 15.0236 5.79288L15.0231 5.99288ZM15.0137 5.99288H15.0233V5.79288H15.0137V5.99288ZM14.8052 6.00603C14.8744 5.99748 14.9441 5.99305 15.0139 5.99288L15.0134 5.79288C14.9355 5.79307 14.8578 5.79801 14.7807 5.80753L14.8052 6.00603ZM14.693 4.35728V5.90678H14.893V4.35728H14.693ZM13.4548 3.11909C14.1375 3.11909 14.693 3.67466 14.693 4.35728H14.893C14.893 3.56422 14.248 2.91909 13.4548 2.91909V3.11909ZM4.54517 3.11909H13.4548V2.91909H4.54517V3.11909ZM3.30691 4.35728C3.30691 3.67464 3.86247 3.11909 4.54517 3.11909V2.91909C3.75203 2.91909 3.10691 3.56417 3.10691 4.35728H3.30691ZM3.30691 5.90678V4.35728H3.10691V5.90678H3.30691ZM2.98608 5.99288C3.05602 5.99305 3.1256 5.99745 3.19459 6.00602L3.21923 5.80754C3.14223 5.79798 3.06459 5.79307 2.98658 5.79288L2.98608 5.99288ZM2.97668 5.99288H2.98633V5.79288H2.97668V5.99288ZM1.12021 7.59433C1.25206 6.68414 2.05019 5.9951 2.97692 5.99288L2.97644 5.79288C1.95152 5.79534 1.06849 6.5563 0.922273 7.56566L1.12021 7.59433ZM1.44443 8.95984C1.16514 8.5651 1.04973 8.08041 1.12021 7.59435L0.922275 7.56565C0.844554 8.10171 0.971827 8.63815 1.28116 9.07535L1.44443 8.95984ZM2.34525 9.64539C1.98399 9.51598 1.66977 9.27829 1.44442 8.95983L1.28116 9.07536C1.53018 9.42726 1.87782 9.69039 2.2778 9.83367L2.34525 9.64539ZM2.41152 14.5009V9.73953H2.21152V14.5009H2.41152ZM2.62402 14.7134C2.50665 14.7134 2.41152 14.6183 2.41152 14.5009H2.21152C2.21152 14.7287 2.39618 14.9134 2.62402 14.9134V14.7134ZM3.19556 14.7134H2.62402V14.9134H3.19556V14.7134ZM3.29556 16.2309V14.8134H3.09556V16.2309H3.29556ZM3.50806 16.4434C3.39069 16.4434 3.29556 16.3482 3.29556 16.2309H3.09556C3.09556 16.4587 3.28021 16.6434 3.50806 16.6434V16.4434ZM4.57397 16.4434H3.50806V16.6434H4.57397V16.4434ZM4.76956 16.3141C4.73619 16.3925 4.65925 16.4434 4.57397 16.4434V16.6434C4.73943 16.6434 4.88881 16.5446 4.95358 16.3924L4.76956 16.3141ZM5.42483 14.7743L4.76956 16.3141L4.95359 16.3924L5.60886 14.8526L5.42483 14.7743ZM12.4832 14.7134H5.51685V14.9134H12.4832V14.7134ZM13.2304 16.3141L12.5752 14.7743L12.3911 14.8526L13.0464 16.3924L13.2304 16.3141ZM13.4259 16.4434C13.3408 16.4434 13.2638 16.3925 13.2304 16.3141L13.0464 16.3924C13.1112 16.5446 13.2605 16.6434 13.4259 16.6434V16.4434ZM14.4919 16.4434H13.4259V16.6434H14.4919V16.4434ZM14.7044 16.2309C14.7044 16.3482 14.6092 16.4434 14.4919 16.4434V16.6434C14.7196 16.6434 14.9044 16.4587 14.9044 16.2309H14.7044ZM14.7044 14.8134V16.2309H14.9044V14.8134H14.7044ZM15.376 14.7134H14.8044V14.9134H15.376V14.7134ZM15.5885 14.5009C15.5885 14.6183 15.4932 14.7134 15.376 14.7134V14.9134C15.6037 14.9134 15.7885 14.7287 15.7885 14.5009H15.5885ZM15.5885 9.73953V14.5009H15.7885V9.73953H15.5885ZM16.5556 8.95981C16.3301 9.27827 16.0159 9.51599 15.6547 9.64539L15.7222 9.83367C16.1221 9.69039 16.4697 9.42723 16.7188 9.07538L16.5556 8.95981ZM16.8798 7.59435C16.9503 8.08041 16.8349 8.56507 16.5556 8.95984L16.7188 9.07535C17.0282 8.63812 17.1554 8.10171 17.0777 7.56565L16.8798 7.59435ZM13.455 3.54409H4.54517V3.74409H13.455V3.54409ZM14.2681 4.35725C14.2681 3.90877 13.9034 3.54409 13.455 3.54409V3.74409C13.7929 3.74409 14.0681 4.01923 14.0681 4.35725H14.2681ZM14.2681 6.10138V4.35725H14.0681V6.10138H14.2681ZM14.2116 6.19145L14.2144 6.18998L14.1217 6.01277L14.1189 6.01424L14.2116 6.19145ZM14.2023 6.19636L14.212 6.19127L14.1186 6.01442L14.1089 6.01951L14.2023 6.19636ZM14.1948 6.20042L14.2028 6.19611L14.1085 6.01976L14.1004 6.02407L14.1948 6.20042ZM14.1907 6.20265L14.1954 6.20006L14.0997 6.02444L14.095 6.02703L14.1907 6.20265ZM14.181 6.20791L14.1907 6.20266L14.095 6.02702L14.0853 6.03228L14.181 6.20791ZM14.1782 6.20945L14.1814 6.2077L14.085 6.03249L14.0818 6.03424L14.1782 6.20945ZM14.1661 6.21623L14.1788 6.20913L14.0812 6.03455L14.0685 6.04165L14.1661 6.21623ZM13.286 7.75078C13.286 7.10858 13.6244 6.52109 14.1664 6.21608L14.0683 6.04179C13.4613 6.38341 13.086 7.03879 13.086 7.75078H13.286ZM13.286 9.40869V7.75078H13.086V9.40869H13.286ZM9 8.84794C10.6619 8.84794 12.1835 9.09476 13.1472 9.50084L13.2249 9.31653C12.2271 8.89612 10.676 8.64794 9 8.64794V8.84794ZM4.85279 9.50084C5.81662 9.09476 7.33809 8.84794 9 8.84794V8.64794C7.32402 8.64794 5.77298 8.89612 4.77514 9.31653L4.85279 9.50084ZM4.71396 7.75081V9.40869H4.91396V7.75081H4.71396ZM4.71327 7.69927C4.71373 7.7164 4.71396 7.73358 4.71396 7.75081H4.91396C4.91396 7.73178 4.91371 7.7128 4.9132 7.69385L4.71327 7.69927ZM4.71256 7.67968L4.7133 7.70014L4.91317 7.69298L4.91244 7.67252L4.71256 7.67968ZM4.71174 7.66024L4.71259 7.68035L4.91241 7.67185L4.91156 7.65175L4.71174 7.66024ZM4.70998 7.63041L4.71182 7.66182L4.91148 7.65018L4.90964 7.61877L4.70998 7.63041ZM4.6897 7.45497C4.69938 7.51279 4.70609 7.57161 4.71003 7.6312L4.9096 7.61799C4.90524 7.55214 4.89779 7.4867 4.88696 7.42197L4.6897 7.45497ZM4.68452 7.42483L4.68977 7.4554L4.88689 7.42154L4.88164 7.39098L4.68452 7.42483ZM4.66682 7.33999C4.67347 7.3682 4.67937 7.39685 4.68473 7.42601L4.88143 7.3898C4.87557 7.35795 4.86901 7.32604 4.8615 7.29414L4.66682 7.33999ZM4.65644 7.29751C4.66007 7.31136 4.66347 7.32526 4.66665 7.33923L4.86167 7.29489C4.85801 7.27879 4.85409 7.26276 4.84991 7.2468L4.65644 7.29751ZM4.65255 7.28267L4.65645 7.29755L4.8499 7.24676L4.84599 7.23188L4.65255 7.28267ZM4.63347 7.21652C4.64026 7.23846 4.64663 7.2607 4.6527 7.28326L4.84583 7.2313C4.83921 7.20667 4.83215 7.18203 4.82454 7.15741L4.63347 7.21652ZM4.63144 7.21008L4.63364 7.21705L4.82437 7.15688L4.82217 7.14992L4.63144 7.21008ZM3.83387 6.21617C4.21804 6.43246 4.4999 6.79064 4.63139 7.20992L4.82222 7.15008C4.67613 6.68424 4.36228 6.28416 3.932 6.04189L3.83387 6.21617ZM3.82163 6.20936L3.83433 6.21642L3.93154 6.04164L3.91885 6.03458L3.82163 6.20936ZM3.81651 6.20658L3.8225 6.20983L3.91798 6.0341L3.912 6.03085L3.81651 6.20658ZM3.80926 6.20261L3.81622 6.20642L3.91229 6.03101L3.90534 6.0272L3.80926 6.20261ZM3.80713 6.20148L3.8103 6.20317L3.9043 6.02664L3.90112 6.02495L3.80713 6.20148ZM3.7968 6.1959L3.80657 6.20118L3.90168 6.02525L3.89192 6.01997L3.7968 6.1959ZM3.78574 6.19014L3.79807 6.19658L3.89065 6.0193L3.87833 6.01286L3.78574 6.19014ZM3.73203 4.35728V6.1015H3.93203V4.35728H3.73203ZM4.54517 3.54409C4.09675 3.54409 3.73203 3.90877 3.73203 4.35728H3.93203C3.93203 4.01923 4.20721 3.74409 4.54517 3.74409V3.54409ZM4.91396 10.3971V10.0976H4.71396V10.3971H4.91396ZM13.186 10.2971H4.81396V10.4971H13.186V10.2971ZM13.086 10.0976V10.3971H13.286V10.0976H13.086ZM9 9.47294C10.722 9.47294 12.3122 9.75432 13.1398 10.1862L13.2323 10.0089C12.3618 9.55462 10.7328 9.27294 9 9.27294V9.47294ZM4.86024 10.1862C5.68777 9.75429 7.27796 9.47294 9 9.47294V9.27294C7.2672 9.27294 5.63815 9.55458 4.76769 10.0089L4.86024 10.1862ZM13.286 11.7977V11.0221H13.086V11.7977H13.286ZM4.81396 11.8977H13.186V11.6977H4.81396V11.8977ZM4.71396 11.0221V11.7977H4.91396V11.0221H4.71396ZM13.186 10.9221H4.81396V11.1221H13.186V10.9221ZM4.36731 15.8184H3.82056V16.0184H4.36731V15.8184ZM4.74551 14.7743L4.27529 15.8793L4.45932 15.9576L4.92954 14.8526L4.74551 14.7743ZM3.82056 14.9134H4.83752V14.7134H3.82056V14.9134ZM3.92056 15.9184V14.8134H3.72056V15.9184H3.92056ZM13.6327 16.0184H14.1794V15.8184H13.6327V16.0184ZM13.0705 14.8526L13.5407 15.9576L13.7247 15.8793L13.2545 14.7743L13.0705 14.8526ZM14.1794 14.7134H13.1625V14.9134H14.1794V14.7134ZM14.2794 15.9184V14.8134H14.0794V15.9184H14.2794ZM15.288 9.10173C15.0985 9.14307 14.9635 9.31081 14.9635 9.50475H15.1635C15.1635 9.40481 15.233 9.31843 15.3306 9.29714L15.288 9.10173ZM16.2613 7.68393C16.358 8.35143 15.9393 8.95959 15.288 9.10174L15.3307 9.29714C16.0859 9.13229 16.5707 8.42513 16.4592 7.65526L16.2613 7.68393ZM15.0204 6.61778C15.6403 6.61865 16.1735 7.07804 16.2613 7.68393L16.4592 7.65526C16.357 6.94971 15.7384 6.41879 15.0206 6.41778L15.0204 6.61778ZM15.0165 6.61778H15.0205V6.41778H15.0165V6.61778ZM14.5148 6.73829C14.6697 6.6596 14.8424 6.61804 15.0166 6.61778L15.0163 6.41778C14.8107 6.41809 14.6071 6.46709 14.4242 6.55996L14.5148 6.73829ZM14.5109 6.74023L14.5144 6.73845L14.4245 6.5598L14.421 6.56158L14.5109 6.74023ZM14.5071 6.74216L14.5115 6.73991L14.4204 6.5619L14.416 6.56415L14.5071 6.74216ZM14.5021 6.74478L14.5079 6.74178L14.4152 6.56453L14.4095 6.56753L14.5021 6.74478ZM14.5003 6.74579L14.5035 6.74407L14.4082 6.56824L14.405 6.56996L14.5003 6.74579ZM14.4921 6.75012L14.4991 6.7464L14.4061 6.56935L14.3991 6.57307L14.4921 6.75012ZM14.4915 6.75046L14.4938 6.74918L14.3973 6.57401L14.395 6.57529L14.4915 6.75046ZM14.4826 6.75533L14.4911 6.75068L14.3954 6.57507L14.3868 6.57973L14.4826 6.75533ZM14.482 6.75565L14.4828 6.75518L14.3866 6.57988L14.3857 6.58034L14.482 6.75565ZM14.4726 6.76089L14.4825 6.75539L14.3852 6.58061L14.3753 6.58611L14.4726 6.76089ZM13.9373 7.5025C14.0046 7.18699 14.1981 6.91538 14.473 6.76065L14.3749 6.58635C14.0473 6.77074 13.8203 7.09219 13.7417 7.46075L13.9373 7.5025ZM13.9333 7.52195L13.9374 7.50179L13.7415 7.46146L13.7374 7.48161L13.9333 7.52195ZM13.9267 7.55836C13.9287 7.54596 13.931 7.53362 13.9334 7.52129L13.7372 7.48227C13.7343 7.49694 13.7317 7.51167 13.7293 7.52651L13.9267 7.55836ZM13.9112 7.75069C13.9112 7.68554 13.9165 7.62127 13.9267 7.55855L13.7293 7.52632C13.7173 7.59966 13.7112 7.6747 13.7112 7.75069H13.9112ZM13.9112 12.1101V7.75069H13.7112V12.1101H13.9112ZM13.4987 12.5226C13.7265 12.5226 13.9112 12.3379 13.9112 12.1101H13.7112C13.7112 12.2275 13.616 12.3226 13.4987 12.3226V12.5226ZM4.50159 12.5226H13.4987V12.3226H4.50159V12.5226ZM4.08909 12.1101C4.08909 12.3379 4.27375 12.5226 4.50159 12.5226V12.3226C4.38421 12.3226 4.28909 12.2275 4.28909 12.1101H4.08909ZM4.08909 7.75066V12.1101H4.28909V7.75066H4.08909ZM4.08808 7.70208C4.08875 7.71821 4.08909 7.73438 4.08909 7.75066H4.28909C4.28909 7.73161 4.28869 7.71266 4.2879 7.69373L4.08808 7.70208ZM4.08712 7.68159L4.0881 7.70256L4.28788 7.69325L4.2869 7.67229L4.08712 7.68159ZM4.08354 7.63511C4.08504 7.65111 4.08628 7.66693 4.08717 7.68263L4.28685 7.67124C4.28579 7.65269 4.28435 7.63442 4.28267 7.61648L4.08354 7.63511ZM4.08017 7.60473L4.08371 7.63677L4.2825 7.61481L4.27896 7.58277L4.08017 7.60473ZM4.07496 7.56768C4.07695 7.58076 4.07877 7.5935 4.08033 7.60608L4.2788 7.58142C4.27695 7.56649 4.27486 7.55186 4.27269 7.53763L4.07496 7.56768ZM4.07181 7.5482L4.07511 7.5686L4.27255 7.53671L4.26925 7.5163L4.07181 7.5482ZM3.55132 6.77466C3.82655 6.93933 4.01599 7.22339 4.07198 7.54918L4.26909 7.51531C4.20373 7.13498 3.9818 6.79916 3.65401 6.60303L3.55132 6.77466ZM3.52615 6.76008L3.55252 6.77536L3.65281 6.60232L3.62644 6.58704L3.52615 6.76008ZM3.52067 6.75705L3.52763 6.76092L3.62496 6.5862L3.618 6.58232L3.52067 6.75705ZM3.52087 6.75717L3.52257 6.75808L3.6161 6.58129L3.61439 6.58039L3.52087 6.75717ZM3.51251 6.75256L3.5191 6.75622L3.61615 6.58134L3.60956 6.57769L3.51251 6.75256ZM3.51211 6.75238L3.51455 6.75366L3.60752 6.57658L3.60508 6.5753L3.51211 6.75238ZM3.5039 6.74793L3.51085 6.75171L3.60633 6.57597L3.59938 6.57219L3.5039 6.74793ZM3.50313 6.74753L3.50472 6.74837L3.59855 6.57175L3.59696 6.57091L3.50313 6.74753ZM3.496 6.74383L3.50393 6.74795L3.59616 6.57049L3.58823 6.56636L3.496 6.74383ZM2.9835 6.61784C3.16164 6.6181 3.33811 6.66155 3.4959 6.74378L3.58833 6.56641C3.40213 6.46939 3.19407 6.41815 2.98379 6.41784L2.9835 6.61784ZM2.97961 6.61784H2.98364V6.41784H2.97961V6.61784ZM1.73874 7.68401C1.8266 7.07814 2.35986 6.61874 2.97976 6.61784L2.97947 6.41784C2.26173 6.41888 1.64312 6.9498 1.54081 7.6553L1.73874 7.68401ZM2.712 9.10177C2.06075 8.95962 1.64203 8.35146 1.73874 7.68399L1.5408 7.65532C1.42926 8.42517 1.91411 9.13232 2.66935 9.29717L2.712 9.10177ZM3.03652 9.50478C3.03652 9.31089 2.9015 9.14311 2.71199 9.10176L2.66936 9.29717C2.76696 9.31846 2.83652 9.40487 2.83652 9.50478H3.03652ZM3.03652 12.9969V9.50478H2.83652V12.9969H3.03652ZM12.4381 12.8969H2.93652V13.0969H12.4381V12.8969ZM12.8506 13.3094C12.8506 13.0817 12.666 12.8969 12.4381 12.8969V13.0969C12.5555 13.0969 12.6506 13.1921 12.6506 13.3094H12.8506ZM12.4381 13.7219C12.666 13.7219 12.8506 13.5372 12.8506 13.3094H12.6506C12.6506 13.4268 12.5555 13.5219 12.4381 13.5219V13.7219ZM2.93652 13.7219H12.4381V13.5219H2.93652V13.7219ZM3.03652 14.1884V13.6219H2.83652V14.1884H3.03652ZM15.0635 14.0884H2.93652V14.2884H15.0635V14.0884ZM14.9635 9.50475V14.1884H15.1635V9.50475H14.9635Z" fill="#0C49CD"/>
</g>
<path id="Shape_2" d="M13.9208 13.2485C13.9167 13.2285 13.9107 13.2088 13.9029 13.1897C13.8951 13.171 13.8854 13.1529 13.8741 13.136C13.8626 13.1188 13.8494 13.1029 13.8351 13.0885C13.8207 13.0741 13.8048 13.061 13.7876 13.0494C13.7707 13.0382 13.7526 13.0285 13.7338 13.021C13.7148 13.0132 13.6954 13.0069 13.6754 13.0032C13.6347 12.9951 13.5935 12.9951 13.5532 13.0032C13.5332 13.0069 13.5135 13.0132 13.4948 13.021C13.476 13.0285 13.4576 13.0382 13.4407 13.0494C13.4235 13.061 13.4076 13.0741 13.3932 13.0885C13.3788 13.1029 13.3657 13.1188 13.3544 13.136C13.3432 13.1529 13.3335 13.171 13.3257 13.1897C13.3179 13.2088 13.3119 13.2285 13.3079 13.2485C13.3038 13.2685 13.3016 13.2892 13.3016 13.3094C13.3016 13.3917 13.3351 13.4722 13.3932 13.5304C13.4076 13.5447 13.4235 13.5579 13.4407 13.5691C13.4576 13.5803 13.476 13.5901 13.4948 13.5979C13.5135 13.6057 13.5332 13.6119 13.5532 13.6157C13.5732 13.6197 13.5939 13.6219 13.6141 13.6219C13.6348 13.6219 13.6551 13.6197 13.6754 13.6157C13.6954 13.6119 13.7148 13.6057 13.7338 13.5979C13.7526 13.5901 13.7707 13.5803 13.7876 13.5691C13.8048 13.5579 13.8207 13.5447 13.8351 13.5304C13.8935 13.4722 13.9267 13.3917 13.9267 13.3094C13.9267 13.2892 13.9248 13.2685 13.9208 13.2485Z" fill="#0C49CD" stroke="#0C49CD" stroke-width="0.2"/>
</g>
</g>
</svg>
