<svg width="30" height="30" viewBox="0 0 30 30" fill="none" xmlns="http://www.w3.org/2000/svg">
<path fill-rule="evenodd" clip-rule="evenodd" d="M18.3875 17.9688H19.375L25.6125 24.2188L23.75 26.0813L17.5 19.8438V18.8562L17.1625 18.5063C15.7375 19.7312 13.8875 20.4688 11.875 20.4688C7.38751 20.4688 3.75 16.8313 3.75 12.3438C3.75 7.85625 7.38751 4.21875 11.875 4.21875C16.3625 4.21875 20 7.85625 20 12.3438C20 14.3562 19.2625 16.2063 18.0375 17.6313L18.3875 17.9688ZM6.25 12.3438C6.25 15.4563 8.76251 17.9688 11.875 17.9688C14.9875 17.9688 17.5 15.4563 17.5 12.3438C17.5 9.23125 14.9875 6.71875 11.875 6.71875C8.76251 6.71875 6.25 9.23125 6.25 12.3438Z" fill="white"/>
<mask id="mask0" mask-type="alpha" maskUnits="userSpaceOnUse" x="3" y="4" width="23" height="23">
<path fill-rule="evenodd" clip-rule="evenodd" d="M18.3875 17.9688H19.375L25.6125 24.2188L23.75 26.0813L17.5 19.8438V18.8562L17.1625 18.5063C15.7375 19.7312 13.8875 20.4688 11.875 20.4688C7.38751 20.4688 3.75 16.8313 3.75 12.3438C3.75 7.85625 7.38751 4.21875 11.875 4.21875C16.3625 4.21875 20 7.85625 20 12.3438C20 14.3562 19.2625 16.2063 18.0375 17.6313L18.3875 17.9688ZM6.25 12.3438C6.25 15.4563 8.76251 17.9688 11.875 17.9688C14.9875 17.9688 17.5 15.4563 17.5 12.3438C17.5 9.23125 14.9875 6.71875 11.875 6.71875C8.76251 6.71875 6.25 9.23125 6.25 12.3438Z" fill="white"/>
</mask>
<g mask="url(#mask0)">
<rect y="0.46875" width="30" height="30" rx="4" fill="#C7CCD1"/>
</g>
</svg>
