<svg width="18" height="18" viewBox="0 0 18 18" fill="none" xmlns="http://www.w3.org/2000/svg">
<g id="Sertification">
<rect id="Rectangle 4 Copy 39" width="18" height="18" fill="#F4F7FB" fill-opacity="0.01"/>
<g id="medal">
<g id="Shape">
<path fill-rule="evenodd" clip-rule="evenodd" d="M11.5167 5.90112C11.5511 5.93542 11.5778 5.97791 11.5934 6.02588C11.6302 6.13904 11.5996 6.26318 11.5145 6.34625L10.5311 7.30536L10.7637 8.65918C10.7782 8.74371 10.7572 8.82892 10.7083 8.89606C10.6893 8.92206 10.6663 8.94531 10.6394 8.96484C10.5432 9.03485 10.4155 9.04407 10.3103 8.98871L9.09424 8.34985L7.87854 8.98938C7.85364 9.00244 7.82764 9.0119 7.80103 9.01782C7.77856 9.02283 7.75574 9.02533 7.73303 9.02533C7.66833 9.02533 7.60388 9.00525 7.54944 8.9657C7.45312 8.89581 7.40491 8.77734 7.42505 8.6601L7.65686 7.30609L6.67297 6.34753C6.58777 6.26453 6.55701 6.14032 6.59375 6.02722C6.63049 5.91406 6.72827 5.8316 6.84595 5.81445L8.20532 5.61658L8.81287 4.38452C8.8656 4.27783 8.97412 4.21033 9.09314 4.21027C9.21204 4.21027 9.32068 4.27777 9.37341 4.3844L9.98169 5.61609L11.3411 5.81329C11.4088 5.82312 11.47 5.85461 11.5167 5.90112ZM9.88733 7.24927C9.86987 7.14789 9.90344 7.04449 9.97705 6.97266L10.6248 6.34094L9.72937 6.21106C9.62756 6.19629 9.53967 6.13239 9.49402 6.04022L9.09338 5.22894L8.69324 6.04041C8.64771 6.13263 8.55969 6.19659 8.45801 6.21136L7.56262 6.34174L8.21069 6.97308C8.2843 7.04486 8.31799 7.14832 8.30066 7.24969L8.14795 8.14148L8.94861 7.72028C9.03967 7.67236 9.14844 7.67236 9.2395 7.72021L10.0404 8.14099L9.88733 7.24927Z" fill="#0C49CD"/>
<path d="M11.5934 6.02588L11.4983 6.05685L11.4983 6.05685L11.5934 6.02588ZM11.5167 5.90112L11.5873 5.83029L11.5872 5.83023L11.5167 5.90112ZM11.5145 6.34625L11.5843 6.41784L11.5844 6.4178L11.5145 6.34625ZM10.5311 7.30536L10.4613 7.23377L10.4237 7.27048L10.4326 7.32229L10.5311 7.30536ZM10.7637 8.65918L10.6651 8.67611L10.6651 8.67612L10.7637 8.65918ZM10.7083 8.89606L10.6274 8.83714L10.6274 8.83722L10.7083 8.89606ZM10.6394 8.96484L10.5806 8.88397L10.5806 8.88399L10.6394 8.96484ZM10.3103 8.98871L10.3569 8.90021L10.3568 8.90018L10.3103 8.98871ZM9.09424 8.34985L9.14075 8.26133L9.09421 8.23688L9.04768 8.26135L9.09424 8.34985ZM7.87854 8.98938L7.92499 9.07794L7.9251 9.07788L7.87854 8.98938ZM7.80103 9.01782L7.77931 8.92021L7.77928 8.92022L7.80103 9.01782ZM7.54944 8.9657L7.60821 8.88479L7.60817 8.88476L7.54944 8.9657ZM7.42505 8.6601L7.52361 8.67703L7.52361 8.67697L7.42505 8.6601ZM7.65686 7.30609L7.75543 7.32297L7.7643 7.27115L7.72664 7.23446L7.65686 7.30609ZM6.67297 6.34753L6.74276 6.27591L6.74275 6.27591L6.67297 6.34753ZM6.59375 6.02722L6.68886 6.05812L6.68886 6.0581L6.59375 6.02722ZM6.84595 5.81445L6.83154 5.7155L6.83152 5.7155L6.84595 5.81445ZM8.20532 5.61658L8.21973 5.71553L8.27176 5.70796L8.29501 5.6608L8.20532 5.61658ZM8.81287 4.38452L8.72322 4.34021L8.72318 4.34029L8.81287 4.38452ZM9.09314 4.21027V4.11027L9.09309 4.11027L9.09314 4.21027ZM9.37341 4.3844L9.46308 4.34012L9.46305 4.34007L9.37341 4.3844ZM9.98169 5.61609L9.89203 5.66037L9.91531 5.70751L9.96733 5.71505L9.98169 5.61609ZM11.3411 5.81329L11.3267 5.91226L11.3267 5.91226L11.3411 5.81329ZM9.97705 6.97266L9.90723 6.90107L9.90721 6.90109L9.97705 6.97266ZM9.88733 7.24927L9.98589 7.23235L9.98588 7.2323L9.88733 7.24927ZM10.6248 6.34094L10.6946 6.41253L10.8396 6.27106L10.6391 6.24198L10.6248 6.34094ZM9.72937 6.21106L9.71501 6.31002L9.71501 6.31002L9.72937 6.21106ZM9.49402 6.04022L9.40436 6.0845L9.40441 6.08461L9.49402 6.04022ZM9.09338 5.22894L9.18305 5.18466L9.09332 5.00297L9.0037 5.18472L9.09338 5.22894ZM8.69324 6.04041L8.7829 6.08468L8.78293 6.08463L8.69324 6.04041ZM8.45801 6.21136L8.44363 6.1124L8.4436 6.11241L8.45801 6.21136ZM7.56262 6.34174L7.54821 6.24278L7.34771 6.27197L7.49284 6.41336L7.56262 6.34174ZM8.21069 6.97308L8.28051 6.90149L8.28047 6.90145L8.21069 6.97308ZM8.30066 7.24969L8.39922 7.26657L8.39923 7.26655L8.30066 7.24969ZM8.14795 8.14148L8.04938 8.1246L8.01518 8.32432L8.19451 8.22998L8.14795 8.14148ZM8.94861 7.72028L8.99517 7.80878L8.99517 7.80877L8.94861 7.72028ZM9.2395 7.72021L9.19299 7.80874L9.19299 7.80874L9.2395 7.72021ZM10.0404 8.14099L9.9939 8.22952L10.1732 8.32374L10.139 8.12407L10.0404 8.14099ZM11.6885 5.99491C11.6679 5.93161 11.6327 5.87554 11.5873 5.83029L11.4461 5.97196C11.4696 5.99531 11.4877 6.0242 11.4983 6.05685L11.6885 5.99491ZM11.5844 6.4178C11.6967 6.30818 11.7371 6.1443 11.6885 5.9949L11.4983 6.05685C11.5234 6.13378 11.5025 6.21819 11.4447 6.2747L11.5844 6.4178ZM10.6009 7.37695L11.5843 6.41784L11.4447 6.27466L10.4613 7.23377L10.6009 7.37695ZM10.8622 8.64225L10.6297 7.28843L10.4326 7.32229L10.6651 8.67611L10.8622 8.64225ZM10.7891 8.95497C10.8537 8.86634 10.8814 8.75385 10.8622 8.64224L10.6651 8.67612C10.675 8.73357 10.6607 8.79149 10.6274 8.83714L10.7891 8.95497ZM10.6982 9.04572C10.7336 9.01997 10.7641 8.98926 10.7891 8.9549L10.6274 8.83722C10.6146 8.85486 10.5989 8.87065 10.5806 8.88397L10.6982 9.04572ZM10.2637 9.07721C10.4027 9.1503 10.5712 9.13814 10.6982 9.0457L10.5806 8.88399C10.5152 8.93156 10.4284 8.93784 10.3569 8.90021L10.2637 9.07721ZM9.04773 8.43838L10.2638 9.07724L10.3568 8.90018L9.14075 8.26133L9.04773 8.43838ZM7.9251 9.07788L9.14079 8.43835L9.04768 8.26135L7.83198 8.90088L7.9251 9.07788ZM7.82274 9.11544C7.85796 9.1076 7.89228 9.09509 7.92499 9.07794L7.83209 8.90082C7.815 8.90979 7.79731 8.9162 7.77931 8.92021L7.82274 9.11544ZM7.73303 9.12533C7.76307 9.12533 7.79319 9.12202 7.82277 9.11543L7.77928 8.92022C7.76394 8.92363 7.7484 8.92533 7.73303 8.92533V9.12533ZM7.49066 9.0466C7.56255 9.09883 7.64767 9.12533 7.73303 9.12533V8.92533C7.689 8.92533 7.64521 8.91167 7.60821 8.88479L7.49066 9.0466ZM7.32649 8.64316C7.2999 8.79797 7.36357 8.95438 7.49071 9.04664L7.60817 8.88476C7.54268 8.83724 7.50992 8.75672 7.52361 8.67703L7.32649 8.64316ZM7.55829 7.28922L7.32648 8.64322L7.52361 8.67697L7.75543 7.32297L7.55829 7.28922ZM6.60319 6.41916L7.58708 7.37772L7.72664 7.23446L6.74276 6.27591L6.60319 6.41916ZM6.49864 5.99632C6.45012 6.14569 6.49076 6.30963 6.60319 6.41916L6.74275 6.27591C6.68478 6.21942 6.6639 6.13495 6.68886 6.05812L6.49864 5.99632ZM6.83152 5.7155C6.6762 5.73814 6.54714 5.84698 6.49864 5.99634L6.68886 6.0581C6.71385 5.98115 6.78035 5.92507 6.86037 5.91341L6.83152 5.7155ZM8.19092 5.51762L6.83154 5.7155L6.86035 5.91341L8.21973 5.71553L8.19092 5.51762ZM8.72318 4.34029L8.11563 5.57235L8.29501 5.6608L8.90255 4.42875L8.72318 4.34029ZM9.09309 4.11027C8.93602 4.11035 8.79279 4.19946 8.72322 4.34021L8.90251 4.42883C8.93841 4.3562 9.01223 4.31031 9.09319 4.31027L9.09309 4.11027ZM9.46305 4.34007C9.39347 4.19937 9.2501 4.11027 9.09314 4.11027V4.31027C9.17397 4.31027 9.24789 4.35617 9.28378 4.42873L9.46305 4.34007ZM10.0714 5.57181L9.46308 4.34012L9.28375 4.42868L9.89203 5.66037L10.0714 5.57181ZM11.3554 5.71433L9.99605 5.51712L9.96733 5.71505L11.3267 5.91226L11.3554 5.71433ZM11.5872 5.83023C11.5256 5.7689 11.4449 5.7273 11.3554 5.71433L11.3267 5.91226C11.3727 5.91894 11.4143 5.94032 11.4462 5.97202L11.5872 5.83023ZM9.90721 6.90109C9.81006 6.9959 9.76573 7.13239 9.78878 7.26624L9.98588 7.2323C9.97401 7.16339 9.99682 7.09309 10.0469 7.04422L9.90721 6.90109ZM10.5549 6.26935L9.90723 6.90107L10.0469 7.04425L10.6946 6.41253L10.5549 6.26935ZM9.71501 6.31002L10.6104 6.43991L10.6391 6.24198L9.74373 6.1121L9.71501 6.31002ZM9.40441 6.08461C9.46461 6.20614 9.58058 6.29052 9.71501 6.31002L9.74373 6.1121C9.67454 6.10206 9.61473 6.05863 9.58363 5.99583L9.40441 6.08461ZM9.00372 5.27322L9.40436 6.0845L9.58368 5.99594L9.18305 5.18466L9.00372 5.27322ZM8.78293 6.08463L9.18307 5.27317L9.0037 5.18472L8.60355 5.99618L8.78293 6.08463ZM8.47238 6.31033C8.60667 6.29082 8.72282 6.20637 8.7829 6.08468L8.60357 5.99614C8.57259 6.05888 8.51271 6.10237 8.44363 6.1124L8.47238 6.31033ZM7.57703 6.44069L8.47242 6.31032L8.4436 6.11241L7.54821 6.24278L7.57703 6.44069ZM8.28047 6.90145L7.6324 6.27011L7.49284 6.41336L8.14091 7.04471L8.28047 6.90145ZM8.39923 7.26655C8.42211 7.13272 8.37764 6.9962 8.28051 6.90149L8.14088 7.04468C8.19097 7.09352 8.21387 7.16391 8.20209 7.23284L8.39923 7.26655ZM8.24651 8.15836L8.39922 7.26657L8.20209 7.23282L8.04938 8.1246L8.24651 8.15836ZM8.90205 7.63178L8.10139 8.05298L8.19451 8.22998L8.99517 7.80878L8.90205 7.63178ZM9.28602 7.63169C9.16583 7.56854 9.02226 7.56853 8.90205 7.63178L8.99517 7.80877C9.05709 7.7762 9.13105 7.77619 9.19299 7.80874L9.28602 7.63169ZM10.0869 8.05247L9.28601 7.63169L9.19299 7.80874L9.9939 8.22952L10.0869 8.05247ZM9.78877 7.26619L9.94185 8.15791L10.139 8.12407L9.98589 7.23235L9.78877 7.26619Z" fill="#0C49CD"/>
</g>
<g id="Shape_2">
<path fill-rule="evenodd" clip-rule="evenodd" d="M13.5338 10.2374L16.1167 14.7302C16.176 14.8334 16.1716 14.9614 16.1055 15.0602C16.0391 15.159 15.9225 15.2115 15.8044 15.1957L13.7883 14.925L13.0148 16.8063C12.9695 16.9164 12.8655 16.9913 12.7466 16.9992L12.7334 16.9998L12.7257 16.9999C12.6146 16.9999 12.5112 16.9407 12.4551 16.8436L9.84753 12.3272L9.84644 12.3251L9.79126 12.3321C9.75989 12.336 9.72839 12.3396 9.6969 12.343C9.60071 12.3532 9.50378 12.361 9.40625 12.3664C9.34045 12.37 9.27441 12.3725 9.20813 12.3738C9.17004 12.3746 9.13196 12.3749 9.09375 12.3749C8.8385 12.3749 8.58728 12.3578 8.34094 12.3251L8.33984 12.3272L5.7323 16.8436C5.70374 16.8929 5.66309 16.9325 5.61536 16.9595C5.56909 16.9855 5.51636 16.9999 5.46167 16.9999C5.45471 16.9999 5.44775 16.9997 5.4408 16.9992C5.3219 16.9913 5.2179 16.9164 5.17261 16.8063L4.39905 14.925L2.38306 15.1957C2.31091 15.2054 2.23914 15.1895 2.17908 15.153C2.14111 15.1299 2.10779 15.0985 2.08203 15.0602C2.01562 14.9614 2.01123 14.8334 2.07056 14.7302L4.65356 10.2374C3.87341 9.26373 3.40613 8.02924 3.40613 6.6875C3.40613 3.55139 5.95752 1 9.09363 1C12.2297 1 14.7811 3.55139 14.7811 6.6875C14.7811 8.02924 14.3138 9.26373 13.5338 10.2374ZM4.94568 14.6111L5.50879 15.9806L7.69165 12.2C6.69482 11.9463 5.80249 11.4287 5.09338 10.7263L2.92847 14.4918L4.40747 14.2932L4.91821 13.4599C5.0083 13.3127 5.20081 13.2666 5.3479 13.3568C5.49512 13.4469 5.54126 13.6393 5.45105 13.7865L4.94568 14.6111ZM9.09363 11.75C6.30212 11.75 4.03113 9.47894 4.03113 6.6875C4.03113 3.89606 6.30212 1.625 9.09363 1.625C11.8851 1.625 14.1561 3.89606 14.1561 6.6875C14.1561 9.47894 11.8851 11.75 9.09363 11.75ZM13.269 13.4599L13.7797 14.2932L15.2588 14.4918L13.0939 10.7263C12.3848 11.4287 11.4923 11.9463 10.4956 12.2L12.6783 15.9806L13.2415 14.6111L12.7361 13.7865C12.646 13.6393 12.6921 13.447 12.8392 13.3568C12.9865 13.2665 13.1788 13.3127 13.269 13.4599Z" fill="#0C49CD"/>
<path d="M16.1167 14.7302L16.2034 14.6804L16.2034 14.6804L16.1167 14.7302ZM13.5338 10.2374L13.4558 10.1749L13.4131 10.2281L13.4471 10.2873L13.5338 10.2374ZM16.1055 15.0602L16.1885 15.116L16.1886 15.1158L16.1055 15.0602ZM15.8044 15.1957L15.7911 15.2949L15.7912 15.2949L15.8044 15.1957ZM13.7883 14.925L13.8016 14.8259L13.7252 14.8156L13.6958 14.887L13.7883 14.925ZM13.0148 16.8063L12.9223 16.7682L12.9223 16.7683L13.0148 16.8063ZM12.7466 16.9992L12.7512 17.0991L12.7532 17.099L12.7466 16.9992ZM12.7334 16.9998L12.7342 17.0999L12.738 17.0997L12.7334 16.9998ZM12.7257 16.9999V17.0999L12.7265 17.0999L12.7257 16.9999ZM12.4551 16.8436L12.3685 16.8936L12.3685 16.8937L12.4551 16.8436ZM9.84753 12.3272L9.7585 12.373L9.76093 12.3772L9.84753 12.3272ZM9.84644 12.3251L9.93536 12.2793L9.90332 12.217L9.83382 12.2259L9.84644 12.3251ZM9.79126 12.3321L9.80362 12.4313L9.80388 12.4313L9.79126 12.3321ZM9.6969 12.343L9.6863 12.2435H9.6863L9.6969 12.343ZM9.40625 12.3664L9.41172 12.4662L9.41175 12.4662L9.40625 12.3664ZM9.20813 12.3738L9.21005 12.4738L9.21016 12.4738L9.20813 12.3738ZM8.34094 12.3251L8.35411 12.2259L8.28425 12.2167L8.25201 12.2793L8.34094 12.3251ZM8.33984 12.3272L8.42655 12.3773L8.42877 12.3729L8.33984 12.3272ZM5.7323 16.8436L5.81883 16.8937L5.8189 16.8936L5.7323 16.8436ZM5.61536 16.9595L5.66444 17.0466L5.66456 17.0465L5.61536 16.9595ZM5.4408 16.9992L5.4478 16.8995L5.44745 16.8994L5.4408 16.9992ZM5.17261 16.8063L5.2651 16.7683L5.26509 16.7682L5.17261 16.8063ZM4.39905 14.925L4.49153 14.887L4.4622 14.8156L4.38574 14.8259L4.39905 14.925ZM2.38306 15.1957L2.36975 15.0966L2.36972 15.0966L2.38306 15.1957ZM2.17908 15.153L2.12704 15.2384L2.12714 15.2385L2.17908 15.153ZM2.08203 15.0602L2.16503 15.0044L2.16503 15.0044L2.08203 15.0602ZM2.07056 14.7302L1.98386 14.6804L1.98386 14.6804L2.07056 14.7302ZM4.65356 10.2374L4.74026 10.2873L4.77426 10.2281L4.7316 10.1749L4.65356 10.2374ZM5.50879 15.9806L5.4163 16.0186L5.49367 16.2068L5.59539 16.0306L5.50879 15.9806ZM4.94568 14.6111L4.86042 14.5589L4.83388 14.6022L4.85319 14.6492L4.94568 14.6111ZM7.69165 12.2L7.77825 12.25L7.84428 12.1356L7.71631 12.103L7.69165 12.2ZM5.09338 10.7263L5.16376 10.6553L5.07145 10.5638L5.00669 10.6765L5.09338 10.7263ZM2.92847 14.4918L2.84177 14.442L2.7406 14.6179L2.94178 14.5909L2.92847 14.4918ZM4.40747 14.2932L4.42078 14.3923L4.46789 14.386L4.49273 14.3455L4.40747 14.2932ZM4.91821 13.4599L5.00347 13.5122L5.0035 13.5121L4.91821 13.4599ZM5.3479 13.3568L5.29565 13.442L5.29568 13.442L5.3479 13.3568ZM5.45105 13.7865L5.36579 13.7342L5.36579 13.7342L5.45105 13.7865ZM13.7797 14.2932L13.6944 14.3455L13.7192 14.386L13.7664 14.3923L13.7797 14.2932ZM13.269 13.4599L13.3543 13.4077L13.3543 13.4076L13.269 13.4599ZM15.2588 14.4918L15.2455 14.5909L15.4467 14.6179L15.3455 14.442L15.2588 14.4918ZM13.0939 10.7263L13.1806 10.6765L13.1158 10.5638L13.0235 10.6553L13.0939 10.7263ZM10.4956 12.2L10.4709 12.103L10.343 12.1356L10.409 12.25L10.4956 12.2ZM12.6783 15.9806L12.5917 16.0306L12.6935 16.2068L12.7708 16.0186L12.6783 15.9806ZM13.2415 14.6111L13.3339 14.6492L13.3533 14.6022L13.3267 14.5589L13.2415 14.6111ZM12.7361 13.7865L12.6508 13.8387L12.6508 13.8388L12.7361 13.7865ZM12.8392 13.3568L12.787 13.2715L12.787 13.2715L12.8392 13.3568ZM16.2034 14.6804L13.6205 10.1876L13.4471 10.2873L16.03 14.7801L16.2034 14.6804ZM16.1886 15.1158C16.2759 14.9854 16.2817 14.8166 16.2034 14.6804L16.03 14.7801C16.0704 14.8503 16.0674 14.9373 16.0224 15.0045L16.1886 15.1158ZM15.7912 15.2949C15.947 15.3157 16.1009 15.2463 16.1885 15.116L16.0225 15.0044C15.9773 15.0717 15.898 15.1074 15.8177 15.0966L15.7912 15.2949ZM13.775 15.0241L15.7911 15.2949L15.8178 15.0966L13.8016 14.8259L13.775 15.0241ZM13.1073 16.8443L13.8808 14.963L13.6958 14.887L12.9223 16.7682L13.1073 16.8443ZM12.7532 17.099C12.9102 17.0885 13.0475 16.9897 13.1073 16.8443L12.9223 16.7683C12.8915 16.8431 12.8208 16.894 12.7399 16.8994L12.7532 17.099ZM12.738 17.0997L12.7512 17.0991L12.742 16.8993L12.7288 16.8999L12.738 17.0997ZM12.7265 17.0999L12.7342 17.0998L12.7326 16.8998L12.7249 16.8999L12.7265 17.0999ZM12.3685 16.8937C12.4426 17.0218 12.579 17.0999 12.7257 17.0999V16.8999C12.6502 16.8999 12.5799 16.8597 12.5416 16.7936L12.3685 16.8937ZM9.76093 12.3772L12.3685 16.8936L12.5417 16.7936L9.93414 12.2772L9.76093 12.3772ZM9.75751 12.3708L9.75861 12.3729L9.93646 12.2815L9.93536 12.2793L9.75751 12.3708ZM9.80388 12.4313L9.85906 12.4243L9.83382 12.2259L9.77864 12.2329L9.80388 12.4313ZM9.7075 12.4424C9.7395 12.439 9.77158 12.4353 9.80362 12.4313L9.7789 12.2329C9.74819 12.2367 9.71729 12.2402 9.6863 12.2435L9.7075 12.4424ZM9.41175 12.4662C9.51097 12.4608 9.60959 12.4528 9.7075 12.4424L9.6863 12.2435C9.59182 12.2536 9.4966 12.2613 9.40075 12.2665L9.41175 12.4662ZM9.21016 12.4738C9.27761 12.4725 9.3448 12.4699 9.41172 12.4662L9.40078 12.2665C9.33611 12.2701 9.27122 12.2725 9.2061 12.2739L9.21016 12.4738ZM9.09375 12.4749C9.1326 12.4749 9.17132 12.4746 9.21005 12.4738L9.20621 12.2739C9.16876 12.2746 9.13132 12.2749 9.09375 12.2749V12.4749ZM8.32778 12.4242C8.5784 12.4575 8.83401 12.4749 9.09375 12.4749V12.2749C8.84299 12.2749 8.59617 12.2581 8.35411 12.2259L8.32778 12.4242ZM8.42877 12.3729L8.42987 12.3708L8.25201 12.2793L8.25092 12.2815L8.42877 12.3729ZM5.8189 16.8936L8.42645 12.3772L8.25324 12.2772L5.6457 16.7936L5.8189 16.8936ZM5.66456 17.0465C5.72759 17.0109 5.78122 16.9587 5.81883 16.8937L5.64577 16.7935C5.62625 16.8272 5.59858 16.8541 5.56615 16.8724L5.66456 17.0465ZM5.46167 17.0999C5.53393 17.0999 5.60352 17.0809 5.66444 17.0466L5.56628 16.8723C5.53466 16.8902 5.49879 16.8999 5.46167 16.8999V17.0999ZM5.4338 17.099C5.44362 17.0997 5.45299 17.0999 5.46167 17.0999V16.8999C5.45643 16.8999 5.45188 16.8997 5.4478 16.8995L5.4338 17.099ZM5.08012 16.8443C5.13991 16.9897 5.27721 17.0885 5.43414 17.099L5.44745 16.8994C5.36659 16.894 5.29588 16.8431 5.2651 16.7683L5.08012 16.8443ZM4.30656 14.963L5.08012 16.8443L5.26509 16.7682L4.49153 14.887L4.30656 14.963ZM2.39637 15.2949L4.41236 15.0241L4.38574 14.8259L2.36975 15.0966L2.39637 15.2949ZM2.12714 15.2385C2.20634 15.2866 2.30109 15.3077 2.39639 15.2948L2.36972 15.0966C2.32073 15.1032 2.27193 15.0924 2.23101 15.0676L2.12714 15.2385ZM1.99903 15.116C2.033 15.1665 2.07697 15.2079 2.12704 15.2384L2.23111 15.0676C2.20525 15.0519 2.18258 15.0305 2.16503 15.0044L1.99903 15.116ZM1.98386 14.6804C1.90557 14.8166 1.91134 14.9855 1.99903 15.116L2.16503 15.0044C2.11991 14.9373 2.11689 14.8503 2.15725 14.7801L1.98386 14.6804ZM4.56687 10.1876L1.98386 14.6804L2.15725 14.7801L4.74026 10.2873L4.56687 10.1876ZM3.30613 6.6875C3.30613 8.05286 3.78173 9.30923 4.57552 10.3L4.7316 10.1749C3.9651 9.21823 3.50613 8.00561 3.50613 6.6875H3.30613ZM9.09363 0.9C5.90229 0.9 3.30613 3.49616 3.30613 6.6875H3.50613C3.50613 3.60662 6.01275 1.1 9.09363 1.1V0.9ZM14.8811 6.6875C14.8811 3.49616 12.285 0.9 9.09363 0.9V1.1C12.1745 1.1 14.6811 3.60662 14.6811 6.6875H14.8811ZM13.6119 10.2999C14.4055 9.30923 14.8811 8.05286 14.8811 6.6875H14.6811C14.6811 8.00561 14.2222 9.21824 13.4558 10.1749L13.6119 10.2999ZM5.60128 15.9426L5.03817 14.5731L4.85319 14.6492L5.4163 16.0186L5.60128 15.9426ZM7.60505 12.1499L5.42219 15.9306L5.59539 16.0306L7.77825 12.25L7.60505 12.1499ZM5.02301 10.7974C5.74443 11.512 6.65243 12.0387 7.66699 12.2969L7.71631 12.103C6.73722 11.8539 5.86055 11.3455 5.16376 10.6553L5.02301 10.7974ZM3.01516 14.5417L5.18008 10.7762L5.00669 10.6765L2.84177 14.442L3.01516 14.5417ZM4.39416 14.1941L2.91516 14.3927L2.94178 14.5909L4.42078 14.3923L4.39416 14.1941ZM4.83295 13.4076L4.32221 14.241L4.49273 14.3455L5.00347 13.5122L4.83295 13.4076ZM5.40015 13.2715C5.20601 13.1525 4.95189 13.2134 4.83293 13.4077L5.0035 13.5121C5.06471 13.4121 5.1956 13.3807 5.29565 13.442L5.40015 13.2715ZM5.53631 13.8388C5.65537 13.6445 5.59449 13.3905 5.40012 13.2715L5.29568 13.442C5.39575 13.5033 5.42715 13.6341 5.36579 13.7342L5.53631 13.8388ZM5.03094 14.6634L5.53631 13.8388L5.36579 13.7342L4.86042 14.5589L5.03094 14.6634ZM3.93113 6.6875C3.93113 9.53417 6.24689 11.85 9.09363 11.85V11.65C6.35735 11.65 4.13113 9.42372 4.13113 6.6875H3.93113ZM9.09363 1.525C6.24689 1.525 3.93113 3.84083 3.93113 6.6875H4.13113C4.13113 3.95128 6.35735 1.725 9.09363 1.725V1.525ZM14.2561 6.6875C14.2561 3.84083 11.9404 1.525 9.09363 1.525V1.725C11.8299 1.725 14.0561 3.95128 14.0561 6.6875H14.2561ZM9.09363 11.85C11.9404 11.85 14.2561 9.53417 14.2561 6.6875H14.0561C14.0561 9.42372 11.8299 11.65 9.09363 11.65V11.85ZM13.8649 14.241L13.3543 13.4077L13.1838 13.5121L13.6944 14.3455L13.8649 14.241ZM15.2721 14.3927L13.793 14.1941L13.7664 14.3923L15.2455 14.5909L15.2721 14.3927ZM13.0072 10.7762L15.1721 14.5417L15.3455 14.442L13.1806 10.6765L13.0072 10.7762ZM10.5203 12.2969C11.5347 12.0387 12.4428 11.512 13.1642 10.7974L13.0235 10.6553C12.3267 11.3455 11.4499 11.8539 10.4709 12.103L10.5203 12.2969ZM12.7649 15.9306L10.5822 12.15L10.409 12.25L12.5917 16.0306L12.7649 15.9306ZM13.149 14.5731L12.5859 15.9426L12.7708 16.0186L13.3339 14.6492L13.149 14.5731ZM12.6508 13.8388L13.1562 14.6634L13.3267 14.5589L12.8213 13.7342L12.6508 13.8388ZM12.787 13.2715C12.5928 13.3906 12.5319 13.6445 12.6508 13.8387L12.8214 13.7343C12.7601 13.6342 12.7915 13.5033 12.8915 13.442L12.787 13.2715ZM13.3543 13.4076C13.2352 13.2134 12.9813 13.1524 12.787 13.2715L12.8915 13.442C12.9916 13.3807 13.1224 13.4121 13.1838 13.5122L13.3543 13.4076Z" fill="#0C49CD"/>
</g>
<path id="Shape_3" d="M9.09363 2.625C8.39625 2.625 7.70822 2.80475 7.10388 3.14487C6.95347 3.2295 6.90016 3.42006 6.98479 3.57047C7.06941 3.72088 7.25997 3.77425 7.41038 3.68956C7.92135 3.402 8.50341 3.25 9.09363 3.25C10.9891 3.25 12.5311 4.79206 12.5311 6.6875C12.5311 7.20544 12.4189 7.70309 12.1976 8.16663C12.1233 8.32237 12.1892 8.50891 12.345 8.58328C12.3884 8.60403 12.4343 8.61384 12.4794 8.61384C12.596 8.61384 12.708 8.54819 12.7616 8.43591C13.0234 7.88763 13.1561 7.29938 13.1561 6.6875C13.1561 4.44744 11.3337 2.625 9.09363 2.625Z" fill="#0C49CD" stroke="#0C49CD" stroke-width="0.2"/>
<path id="Shape_4" d="M12.0016 9.07566C11.8777 8.95547 11.6799 8.95844 11.5597 9.08229L11.5528 9.08941C11.4322 9.21288 11.4346 9.41076 11.558 9.53132C11.6188 9.59066 11.6976 9.62022 11.7763 9.62022C11.8575 9.62022 11.9387 9.58876 11.9999 9.52604L12.0082 9.51757C12.1284 9.39372 12.1254 9.19588 12.0016 9.07566Z" fill="#0C49CD" stroke="#0C49CD" stroke-width="0.2"/>
<path id="Shape_5" d="M11.1746 9.8233C11.0913 9.67214 10.9012 9.61711 10.7501 9.70042C10.246 9.97821 9.67319 10.125 9.09366 10.125C7.19822 10.125 5.65616 8.58296 5.65616 6.68752C5.65616 6.19099 5.75963 5.71211 5.96366 5.26421C6.03522 5.10714 5.96588 4.92183 5.80882 4.85027C5.65175 4.77874 5.46644 4.84805 5.39488 5.00511C5.1535 5.53492 5.03113 6.10096 5.03113 6.68752C5.03113 8.92758 6.85357 10.75 9.09363 10.75C9.77835 10.75 10.4554 10.5764 11.0517 10.2478C11.2028 10.1645 11.2579 9.97446 11.1746 9.8233Z" fill="#0C49CD" stroke="#0C49CD" stroke-width="0.2"/>
<path id="Shape_6" d="M6.56247 3.90311C6.43619 3.78545 6.23844 3.79252 6.12081 3.91877L6.11387 3.92623C5.99669 4.05292 6.00434 4.25064 6.13103 4.36783C6.19112 4.42345 6.26722 4.45095 6.34315 4.45095C6.42722 4.45095 6.51103 4.41723 6.57262 4.35067L6.57812 4.34477C6.69575 4.21848 6.68875 4.02073 6.56247 3.90311Z" fill="#0C49CD" stroke="#0C49CD" stroke-width="0.2"/>
</g>
</g>
</svg>
