<svg width="18" height="18" viewBox="0 0 18 18" fill="none" xmlns="http://www.w3.org/2000/svg">
<g id="Sertification White">
<rect id="Rectangle 4 Copy 39" width="18" height="18" fill="#F4F7FB" fill-opacity="0.01"/>
<g id="medal">
<g id="Shape">
<path fill-rule="evenodd" clip-rule="evenodd" d="M11.3413 5.81329C11.459 5.83038 11.5566 5.91278 11.5935 6.02588C11.6304 6.13904 11.5996 6.26318 11.5146 6.34625L10.5312 7.30536L10.7637 8.65918C10.7839 8.77643 10.7358 8.8949 10.6394 8.96484C10.5432 9.03485 10.4158 9.04407 10.3103 8.98871L9.09424 8.34985L7.87866 8.98938C7.83301 9.01343 7.78296 9.02533 7.73315 9.02533C7.66846 9.02533 7.604 9.00525 7.54956 8.9657C7.45337 8.89581 7.40503 8.77734 7.42505 8.6601L7.65698 7.30609L6.6731 6.34753C6.58789 6.26453 6.55713 6.14032 6.59399 6.02722C6.63062 5.91406 6.72827 5.8316 6.84619 5.81445L8.20557 5.61658L8.81299 4.38452C8.86572 4.27783 8.97437 4.21033 9.09326 4.21027C9.21216 4.21027 9.3208 4.27777 9.37354 4.3844L9.98169 5.61609L11.3413 5.81329ZM9.88745 7.24927C9.86987 7.14789 9.90356 7.04449 9.97729 6.97266L10.625 6.34094L9.72949 6.21106C9.62769 6.19629 9.53979 6.13239 9.49414 6.04022L9.09351 5.22894L8.69336 6.04041C8.6748 6.078 8.64917 6.1109 8.61841 6.13763C8.57397 6.17657 8.51831 6.20264 8.45801 6.21136L7.56274 6.34174L8.21069 6.97308C8.28442 7.04486 8.31812 7.14832 8.30078 7.24969L8.14795 8.14148L8.94873 7.72028C9.03979 7.67236 9.14868 7.67236 9.2395 7.72021L10.0405 8.14099L9.88745 7.24927Z" fill="white"/>
<path d="M11.5935 6.02588L11.6886 5.9949L11.6886 5.99489L11.5935 6.02588ZM11.3413 5.81329L11.3557 5.71433L11.3557 5.71433L11.3413 5.81329ZM11.5146 6.34625L11.5845 6.41784L11.5846 6.41775L11.5146 6.34625ZM10.5312 7.30536L10.4614 7.23377L10.4238 7.27047L10.4327 7.32228L10.5312 7.30536ZM10.7637 8.65918L10.6651 8.6761L10.6651 8.67621L10.7637 8.65918ZM10.6394 8.96484L10.5807 8.88389L10.5806 8.88399L10.6394 8.96484ZM10.3103 8.98871L10.2638 9.07724L10.2638 9.07725L10.3103 8.98871ZM9.09424 8.34985L9.14075 8.26133L9.0942 8.23688L9.04768 8.26135L9.09424 8.34985ZM7.87866 8.98938L7.8321 8.90088L7.83206 8.9009L7.87866 8.98938ZM7.54956 8.9657L7.49078 9.0466L7.49079 9.0466L7.54956 8.9657ZM7.42505 8.6601L7.32648 8.64321L7.32648 8.64326L7.42505 8.6601ZM7.65698 7.30609L7.75555 7.32297L7.76442 7.27115L7.72677 7.23446L7.65698 7.30609ZM6.6731 6.34753L6.74288 6.27591L6.74288 6.27591L6.6731 6.34753ZM6.59399 6.02722L6.68907 6.05821L6.68914 6.05801L6.59399 6.02722ZM6.84619 5.81445L6.86058 5.91341L6.8606 5.91341L6.84619 5.81445ZM8.20557 5.61658L8.21997 5.71553L8.27201 5.70796L8.29526 5.6608L8.20557 5.61658ZM8.81299 4.38452L8.72334 4.34021L8.7233 4.3403L8.81299 4.38452ZM9.09326 4.21027V4.11027L9.09321 4.11027L9.09326 4.21027ZM9.37354 4.3844L9.4632 4.34013L9.46317 4.34007L9.37354 4.3844ZM9.98169 5.61609L9.89202 5.66036L9.9153 5.70751L9.96734 5.71505L9.98169 5.61609ZM9.97729 6.97266L10.0471 7.04428L10.0471 7.04425L9.97729 6.97266ZM9.88745 7.24927L9.98601 7.23235L9.98598 7.23218L9.88745 7.24927ZM10.625 6.34094L10.6948 6.41253L10.8399 6.27106L10.6394 6.24198L10.625 6.34094ZM9.72949 6.21106L9.71513 6.31002L9.71514 6.31002L9.72949 6.21106ZM9.49414 6.04022L9.40448 6.0845L9.40453 6.08461L9.49414 6.04022ZM9.09351 5.22894L9.18317 5.18466L9.09344 5.00297L9.00382 5.18472L9.09351 5.22894ZM8.69336 6.04041L8.78303 6.08466L8.78305 6.08463L8.69336 6.04041ZM8.61841 6.13763L8.55281 6.06215L8.5525 6.06243L8.61841 6.13763ZM8.45801 6.21136L8.44368 6.1124L8.4436 6.11241L8.45801 6.21136ZM7.56274 6.34174L7.54833 6.24278L7.34786 6.27197L7.49296 6.41336L7.56274 6.34174ZM8.21069 6.97308L8.14091 7.04471L8.14094 7.04474L8.21069 6.97308ZM8.30078 7.24969L8.39934 7.26659L8.39935 7.26655L8.30078 7.24969ZM8.14795 8.14148L8.04939 8.12459L8.01516 8.32432L8.1945 8.22998L8.14795 8.14148ZM8.94873 7.72028L8.99528 7.80878L8.99529 7.80877L8.94873 7.72028ZM9.2395 7.72021L9.19289 7.80869L9.193 7.80874L9.2395 7.72021ZM10.0405 8.14099L9.99402 8.22952L10.1734 8.32372L10.1391 8.12407L10.0405 8.14099ZM11.6886 5.99489C11.64 5.84571 11.5111 5.7369 11.3557 5.71433L11.3269 5.91226C11.4069 5.92387 11.4733 5.97985 11.4984 6.05687L11.6886 5.99489ZM11.5846 6.41775C11.6966 6.30819 11.7373 6.14437 11.6886 5.9949L11.4984 6.05685C11.5235 6.13371 11.5026 6.21817 11.4447 6.27475L11.5846 6.41775ZM10.6011 7.37695L11.5845 6.41784L11.4448 6.27466L10.4614 7.23377L10.6011 7.37695ZM10.8622 8.64226L10.6298 7.28844L10.4327 7.32228L10.6651 8.6761L10.8622 8.64226ZM10.6981 9.04579C10.8254 8.95345 10.889 8.79697 10.8622 8.64215L10.6651 8.67621C10.6789 8.75589 10.6462 8.83635 10.5807 8.88389L10.6981 9.04579ZM10.2638 9.07725C10.4029 9.15026 10.5712 9.13816 10.6982 9.0457L10.5806 8.88399C10.5152 8.93154 10.4286 8.93787 10.3568 8.90016L10.2638 9.07725ZM9.04773 8.43838L10.2638 9.07724L10.3568 8.90018L9.14075 8.26133L9.04773 8.43838ZM7.92522 9.07788L9.1408 8.43835L9.04768 8.26135L7.8321 8.90088L7.92522 9.07788ZM7.73315 9.12533C7.79886 9.12533 7.86495 9.10963 7.92527 9.07786L7.83206 8.9009C7.80107 8.91723 7.76705 8.92533 7.73315 8.92533V9.12533ZM7.49079 9.0466C7.56267 9.09883 7.64779 9.12533 7.73315 9.12533V8.92533C7.68912 8.92533 7.64533 8.91167 7.60833 8.88479L7.49079 9.0466ZM7.32648 8.64326C7.30004 8.79806 7.36386 8.95439 7.49078 9.0466L7.60834 8.8848C7.54288 8.83724 7.51001 8.75663 7.52362 8.67693L7.32648 8.64326ZM7.55842 7.28921L7.32648 8.64321L7.52361 8.67698L7.75555 7.32297L7.55842 7.28921ZM6.60331 6.41916L7.5872 7.37772L7.72677 7.23446L6.74288 6.27591L6.60331 6.41916ZM6.49892 5.99623C6.45021 6.14565 6.49088 6.30963 6.60331 6.41916L6.74288 6.27591C6.6849 6.21942 6.66405 6.13499 6.68907 6.05821L6.49892 5.99623ZM6.8318 5.71549C6.6762 5.73812 6.54721 5.84699 6.49885 5.99643L6.68914 6.05801C6.71402 5.98113 6.78034 5.92508 6.86058 5.91341L6.8318 5.71549ZM8.19116 5.51762L6.83179 5.7155L6.8606 5.91341L8.21997 5.71553L8.19116 5.51762ZM8.7233 4.3403L8.11587 5.57236L8.29526 5.6608L8.90268 4.42874L8.7233 4.3403ZM9.09321 4.11027C8.93628 4.11035 8.79292 4.19944 8.72334 4.34021L8.90264 4.42883C8.93852 4.35622 9.01245 4.31031 9.09331 4.31027L9.09321 4.11027ZM9.46317 4.34007C9.39359 4.19937 9.25022 4.11027 9.09326 4.11027V4.31027C9.17409 4.31027 9.24801 4.35617 9.2839 4.42873L9.46317 4.34007ZM10.0714 5.57182L9.4632 4.34013L9.28387 4.42867L9.89202 5.66036L10.0714 5.57182ZM11.3557 5.71433L9.99604 5.51712L9.96734 5.71505L11.327 5.91226L11.3557 5.71433ZM9.90751 6.90103C9.81026 6.99579 9.76568 7.13233 9.78892 7.26635L9.98598 7.23218C9.97406 7.16345 9.99687 7.0932 10.0471 7.04428L9.90751 6.90103ZM10.5552 6.26935L9.90747 6.90107L10.0471 7.04425L10.6948 6.41253L10.5552 6.26935ZM9.71514 6.31002L10.6106 6.43991L10.6394 6.24198L9.74385 6.1121L9.71514 6.31002ZM9.40453 6.08461C9.46473 6.20614 9.58071 6.29052 9.71513 6.31002L9.74385 6.1121C9.67467 6.10206 9.61486 6.05863 9.58375 5.99583L9.40453 6.08461ZM9.00384 5.27322L9.40448 6.0845L9.5838 5.99594L9.18317 5.18466L9.00384 5.27322ZM8.78305 6.08463L9.18319 5.27317L9.00382 5.18472L8.60367 5.99618L8.78305 6.08463ZM8.684 6.21311C8.72467 6.17778 8.75854 6.1343 8.78303 6.08466L8.60368 5.99615C8.59107 6.0217 8.57367 6.04402 8.55281 6.06215L8.684 6.21311ZM8.47233 6.31033C8.5519 6.29882 8.62545 6.26443 8.68432 6.21284L8.5525 6.06243C8.5225 6.08872 8.48472 6.10646 8.44368 6.1124L8.47233 6.31033ZM7.57715 6.44069L8.47242 6.31032L8.4436 6.11241L7.54833 6.24278L7.57715 6.44069ZM8.28048 6.90146L7.63253 6.27011L7.49296 6.41336L8.14091 7.04471L8.28048 6.90146ZM8.39935 7.26655C8.42224 7.13271 8.37775 6.99616 8.28045 6.90143L8.14094 7.04474C8.19109 7.09356 8.214 7.16392 8.20221 7.23284L8.39935 7.26655ZM8.24651 8.15837L8.39934 7.26659L8.20222 7.2328L8.04939 8.12459L8.24651 8.15837ZM8.90218 7.63177L8.1014 8.05298L8.1945 8.22998L8.99528 7.80878L8.90218 7.63177ZM9.28612 7.63174C9.16608 7.5685 9.02234 7.56855 8.90217 7.63178L8.99529 7.80877C9.05725 7.77618 9.13128 7.77623 9.19289 7.80869L9.28612 7.63174ZM10.087 8.05246L9.28601 7.63169L9.193 7.80874L9.99402 8.22952L10.087 8.05246ZM9.78889 7.26619L9.94197 8.15791L10.1391 8.12407L9.98601 7.23235L9.78889 7.26619Z" fill="white"/>
</g>
<g id="Shape_2">
<path fill-rule="evenodd" clip-rule="evenodd" d="M13.5339 10.2374L16.1169 14.7302C16.1763 14.8334 16.1716 14.9614 16.1055 15.0602C16.0393 15.159 15.9226 15.2115 15.8044 15.1957L13.7886 14.925L13.0149 16.8063C12.9695 16.9164 12.8655 16.9913 12.7468 16.9992L12.7258 16.9999C12.6147 16.9999 12.5112 16.9407 12.4553 16.8436L9.84766 12.3272L9.84668 12.3251C9.75635 12.337 9.66553 12.3469 9.57397 12.3547C9.53027 12.3584 9.48633 12.3616 9.44214 12.3643C9.3269 12.3713 9.21094 12.3749 9.09375 12.3749C8.83862 12.3749 8.5874 12.3578 8.34106 12.3251L8.34009 12.3272L5.73242 16.8436C5.67627 16.9407 5.573 16.9999 5.46191 16.9999L5.44092 16.9992C5.32202 16.9913 5.21802 16.9164 5.17261 16.8063L4.39917 14.925L2.38306 15.1957C2.26538 15.2115 2.14844 15.159 2.08203 15.0602C2.01587 14.9614 2.01123 14.8334 2.07056 14.7302L4.65356 10.2374C3.87354 9.26373 3.40625 8.02924 3.40625 6.6875C3.40625 3.55139 5.95776 1 9.09375 1C12.2297 1 14.7812 3.55139 14.7812 6.6875C14.7812 8.02924 14.314 9.26373 13.5339 10.2374ZM4.9458 14.6111L5.50879 15.9806L7.69165 12.2C6.69482 11.9463 5.80249 11.4287 5.09326 10.7263L2.92847 14.4918L4.40747 14.2932L4.91821 13.4599C5.0083 13.3127 5.20068 13.2666 5.3479 13.3568C5.44116 13.4138 5.4939 13.5118 5.49707 13.6133C5.49902 13.6723 5.48438 13.7324 5.45117 13.7865L4.9458 14.6111ZM9.09375 11.75C6.30225 11.75 4.03125 9.47894 4.03125 6.6875C4.03125 3.89606 6.30225 1.625 9.09375 1.625C11.8853 1.625 14.1562 3.89606 14.1562 6.6875C14.1562 9.47894 11.8853 11.75 9.09375 11.75ZM13.2693 13.4599L13.78 14.2932L15.259 14.4918L13.094 10.7263C12.385 11.4287 11.4927 11.9463 10.4958 12.2L12.6787 15.9806L13.2417 14.6111L12.7363 13.7865C12.6462 13.6393 12.6924 13.447 12.8396 13.3568C12.9866 13.2665 13.1792 13.3127 13.2693 13.4599Z" fill="white"/>
<path d="M16.1169 14.7302L16.2036 14.6804L16.2036 14.6804L16.1169 14.7302ZM13.5339 10.2374L13.4559 10.1749L13.4132 10.2281L13.4472 10.2873L13.5339 10.2374ZM15.8044 15.1957L15.7911 15.2948L15.7912 15.2949L15.8044 15.1957ZM13.7886 14.925L13.8019 14.8259L13.7254 14.8156L13.6961 14.887L13.7886 14.925ZM13.0149 16.8063L13.1073 16.8444L13.1074 16.8443L13.0149 16.8063ZM12.7468 16.9992L12.75 17.0992L12.7535 17.099L12.7468 16.9992ZM12.7258 16.9999V17.0999L12.729 17.0998L12.7258 16.9999ZM12.4553 16.8436L12.542 16.7937L12.5419 16.7936L12.4553 16.8436ZM9.84766 12.3272L9.7563 12.369L9.76105 12.3772L9.84766 12.3272ZM9.84668 12.3251L9.93763 12.2835L9.90688 12.2162L9.83355 12.2259L9.84668 12.3251ZM9.57397 12.3547L9.56554 12.255L9.56549 12.255L9.57397 12.3547ZM9.44214 12.3643L9.43607 12.2644L9.43601 12.2644L9.44214 12.3643ZM8.34106 12.3251L8.35423 12.2259L8.28088 12.2162L8.25012 12.2835L8.34106 12.3251ZM8.34009 12.3272L8.42708 12.3774L8.43104 12.3688L8.34009 12.3272ZM5.73242 16.8436L5.81899 16.8937L5.81902 16.8936L5.73242 16.8436ZM5.46191 16.9999L5.45872 17.0999H5.46191V16.9999ZM5.44092 16.9992L5.43426 17.099L5.43772 17.0992L5.44092 16.9992ZM5.17261 16.8063L5.08012 16.8443L5.08015 16.8444L5.17261 16.8063ZM4.39917 14.925L4.49166 14.887L4.46232 14.8156L4.38586 14.8259L4.39917 14.925ZM2.38306 15.1957L2.36975 15.0966L2.36974 15.0966L2.38306 15.1957ZM2.08203 15.0602L1.99894 15.1158L1.99903 15.116L2.08203 15.0602ZM2.07056 14.7302L1.98386 14.6804L1.98386 14.6804L2.07056 14.7302ZM4.65356 10.2374L4.74026 10.2873L4.77425 10.2281L4.73161 10.1749L4.65356 10.2374ZM5.50879 15.9806L5.4163 16.0186L5.49366 16.2068L5.59539 16.0306L5.50879 15.9806ZM4.9458 14.6111L4.86054 14.5589L4.834 14.6022L4.85331 14.6492L4.9458 14.6111ZM7.69165 12.2L7.77825 12.25L7.84428 12.1356L7.71631 12.103L7.69165 12.2ZM5.09326 10.7263L5.16363 10.6553L5.07132 10.5638L5.00657 10.6765L5.09326 10.7263ZM2.92847 14.4918L2.84177 14.442L2.74061 14.6179L2.94178 14.5909L2.92847 14.4918ZM4.40747 14.2932L4.42078 14.3923L4.46789 14.386L4.49273 14.3455L4.40747 14.2932ZM4.91821 13.4599L5.00347 13.5122L5.0035 13.5121L4.91821 13.4599ZM5.3479 13.3568L5.29568 13.442L5.29571 13.442L5.3479 13.3568ZM5.49707 13.6133L5.39712 13.6165L5.39713 13.6167L5.49707 13.6133ZM5.45117 13.7865L5.36595 13.7342L5.36591 13.7342L5.45117 13.7865ZM13.78 14.2932L13.6948 14.3455L13.7196 14.386L13.7667 14.3923L13.78 14.2932ZM13.2693 13.4599L13.184 13.5121L13.184 13.5122L13.2693 13.4599ZM15.259 14.4918L15.2457 14.5909L15.4469 14.6179L15.3457 14.442L15.259 14.4918ZM13.094 10.7263L13.1807 10.6765L13.1159 10.5638L13.0236 10.6553L13.094 10.7263ZM10.4958 12.2L10.4712 12.103L10.3432 12.1356L10.4092 12.25L10.4958 12.2ZM12.6787 15.9806L12.5921 16.0306L12.6938 16.2068L12.7712 16.0186L12.6787 15.9806ZM13.2417 14.6111L13.3342 14.6492L13.3535 14.6022L13.327 14.5589L13.2417 14.6111ZM12.7363 13.7865L12.651 13.8387L12.6511 13.8388L12.7363 13.7865ZM12.8396 13.3568L12.8918 13.442L12.8919 13.442L12.8396 13.3568ZM16.2036 14.6804L13.6206 10.1876L13.4472 10.2873L16.0302 14.7801L16.2036 14.6804ZM16.1886 15.1158C16.2758 14.9855 16.282 14.8167 16.2036 14.6804L16.0302 14.7801C16.0705 14.8502 16.0675 14.9372 16.0224 15.0045L16.1886 15.1158ZM15.7912 15.2949C15.947 15.3157 16.1011 15.2464 16.1886 15.1158L16.0224 15.0045C15.9775 15.0716 15.8982 15.1074 15.8177 15.0966L15.7912 15.2949ZM13.7753 15.0241L15.7911 15.2948L15.8178 15.0966L13.8019 14.8259L13.7753 15.0241ZM13.1074 16.8443L13.8811 14.963L13.6961 14.887L12.9224 16.7682L13.1074 16.8443ZM12.7535 17.099C12.9102 17.0885 13.0475 16.9897 13.1073 16.8444L12.9224 16.7682C12.8915 16.8432 12.8207 16.894 12.7402 16.8994L12.7535 17.099ZM12.729 17.0998L12.75 17.0992L12.7436 16.8993L12.7226 16.8999L12.729 17.0998ZM12.3687 16.8935C12.4425 17.0219 12.5792 17.0999 12.7258 17.0999V16.8999C12.6503 16.8999 12.5799 16.8596 12.542 16.7937L12.3687 16.8935ZM9.76105 12.3772L12.3687 16.8936L12.5419 16.7936L9.93426 12.2772L9.76105 12.3772ZM9.75573 12.3666L9.75671 12.3688L9.9386 12.2856L9.93763 12.2835L9.75573 12.3666ZM9.58241 12.4543C9.67555 12.4464 9.76793 12.4364 9.85981 12.4242L9.83355 12.2259C9.74476 12.2377 9.6555 12.2474 9.56554 12.255L9.58241 12.4543ZM9.4482 12.4641C9.49315 12.4613 9.5379 12.4581 9.58246 12.4543L9.56549 12.255C9.52264 12.2587 9.47951 12.2618 9.43607 12.2644L9.4482 12.4641ZM9.09375 12.4749C9.21299 12.4749 9.331 12.4713 9.44827 12.4641L9.43601 12.2644C9.3228 12.2714 9.20888 12.2749 9.09375 12.2749V12.4749ZM8.3279 12.4242C8.57852 12.4575 8.83414 12.4749 9.09375 12.4749V12.2749C8.84311 12.2749 8.59629 12.2581 8.35423 12.2259L8.3279 12.4242ZM8.43104 12.3688L8.43201 12.3666L8.25012 12.2835L8.24914 12.2856L8.43104 12.3688ZM5.81902 16.8936L8.42669 12.3772L8.25349 12.2772L5.64582 16.7936L5.81902 16.8936ZM5.46191 17.0999C5.60863 17.0999 5.74493 17.0218 5.81899 16.8937L5.64585 16.7936C5.60761 16.8597 5.53737 16.8999 5.46191 16.8999V17.0999ZM5.43772 17.0992L5.45872 17.0998L5.46511 16.8999L5.44411 16.8993L5.43772 17.0992ZM5.08015 16.8444C5.14007 16.9897 5.27731 17.0885 5.43426 17.099L5.44758 16.8994C5.36673 16.894 5.29597 16.8432 5.26506 16.7682L5.08015 16.8444ZM4.30668 14.963L5.08012 16.8443L5.2651 16.7683L4.49166 14.887L4.30668 14.963ZM2.39637 15.2949L4.41248 15.0241L4.38586 14.8259L2.36975 15.0966L2.39637 15.2949ZM1.99903 15.116C2.08666 15.2464 2.24094 15.3157 2.39637 15.2948L2.36974 15.0966C2.28982 15.1074 2.21021 15.0716 2.16503 15.0044L1.99903 15.116ZM1.98386 14.6804C1.9055 14.8167 1.9117 14.9855 1.99894 15.1158L2.16513 15.0045C2.12004 14.9372 2.11697 14.8502 2.15725 14.7801L1.98386 14.6804ZM4.56687 10.1876L1.98386 14.6804L2.15725 14.7801L4.74026 10.2873L4.56687 10.1876ZM3.30625 6.6875C3.30625 8.05286 3.78185 9.30923 4.57552 10.2999L4.73161 10.1749C3.96522 9.21824 3.50625 8.00561 3.50625 6.6875H3.30625ZM9.09375 0.9C5.90254 0.9 3.30625 3.49616 3.30625 6.6875H3.50625C3.50625 3.60662 6.01299 1.1 9.09375 1.1V0.9ZM14.8813 6.6875C14.8813 3.49616 12.285 0.9 9.09375 0.9V1.1C12.1745 1.1 14.6812 3.60662 14.6812 6.6875H14.8813ZM13.612 10.2999C14.4057 9.30923 14.8813 8.05286 14.8813 6.6875H14.6812C14.6812 8.00561 14.2223 9.21824 13.4559 10.1749L13.612 10.2999ZM5.60128 15.9426L5.03829 14.5731L4.85331 14.6492L5.4163 16.0186L5.60128 15.9426ZM7.60505 12.1499L5.42219 15.9306L5.59539 16.0306L7.77825 12.25L7.60505 12.1499ZM5.02289 10.7974C5.74443 11.512 6.65243 12.0387 7.66699 12.2969L7.71631 12.103C6.73722 11.8539 5.86055 11.3455 5.16363 10.6553L5.02289 10.7974ZM3.01516 14.5417L5.17996 10.7762L5.00657 10.6765L2.84177 14.442L3.01516 14.5417ZM4.39416 14.1941L2.91516 14.3927L2.94178 14.5909L4.42078 14.3923L4.39416 14.1941ZM4.83295 13.4076L4.32221 14.241L4.49273 14.3455L5.00347 13.5122L4.83295 13.4076ZM5.40012 13.2715C5.20588 13.1525 4.9519 13.2134 4.83293 13.4077L5.0035 13.5121C5.0647 13.4121 5.19549 13.3807 5.29568 13.442L5.40012 13.2715ZM5.59702 13.6102C5.59284 13.4763 5.52323 13.3468 5.40009 13.2715L5.29571 13.442C5.35909 13.4808 5.39496 13.5473 5.39712 13.6165L5.59702 13.6102ZM5.53639 13.8388C5.5802 13.7675 5.5996 13.6879 5.59702 13.61L5.39713 13.6167C5.39845 13.6567 5.38855 13.6974 5.36595 13.7342L5.53639 13.8388ZM5.03106 14.6634L5.53643 13.8388L5.36591 13.7342L4.86054 14.5589L5.03106 14.6634ZM3.93125 6.6875C3.93125 9.53417 6.24702 11.85 9.09375 11.85V11.65C6.35748 11.65 4.13125 9.42372 4.13125 6.6875H3.93125ZM9.09375 1.525C6.24702 1.525 3.93125 3.84083 3.93125 6.6875H4.13125C4.13125 3.95128 6.35748 1.725 9.09375 1.725V1.525ZM14.2563 6.6875C14.2563 3.84083 11.9405 1.525 9.09375 1.525V1.725C11.83 1.725 14.0562 3.95128 14.0562 6.6875H14.2563ZM9.09375 11.85C11.9405 11.85 14.2563 9.53417 14.2563 6.6875H14.0562C14.0562 9.42372 11.83 11.65 9.09375 11.65V11.85ZM13.8653 14.241L13.3545 13.4076L13.184 13.5122L13.6948 14.3455L13.8653 14.241ZM15.2723 14.3927L13.7933 14.1941L13.7667 14.3923L15.2457 14.5909L15.2723 14.3927ZM13.0073 10.7762L15.1723 14.5417L15.3457 14.442L13.1807 10.6765L13.0073 10.7762ZM10.5205 12.2969C11.5351 12.0387 12.4431 11.512 13.1644 10.7974L13.0236 10.6553C12.3269 11.3455 11.4503 11.8539 10.4712 12.103L10.5205 12.2969ZM12.7653 15.9306L10.5825 12.1499L10.4092 12.25L12.5921 16.0306L12.7653 15.9306ZM13.1492 14.5731L12.5862 15.9426L12.7712 16.0186L13.3342 14.6492L13.1492 14.5731ZM12.6511 13.8388L13.1564 14.6634L13.327 14.5589L12.8216 13.7342L12.6511 13.8388ZM12.7874 13.2715C12.593 13.3906 12.5321 13.6445 12.651 13.8387L12.8216 13.7343C12.7603 13.6342 12.7917 13.5034 12.8918 13.442L12.7874 13.2715ZM13.3546 13.4077C13.2356 13.2134 12.9814 13.1524 12.7873 13.2715L12.8919 13.442C12.9918 13.3807 13.1228 13.4121 13.184 13.5121L13.3546 13.4077Z" fill="white"/>
</g>
<path id="Shape_3" d="M9.09363 2.625C8.39625 2.625 7.70822 2.80475 7.10388 3.14487C6.95347 3.2295 6.90016 3.42006 6.98479 3.57047C7.06941 3.72088 7.25997 3.77425 7.41038 3.68956C7.92135 3.402 8.50341 3.25 9.09363 3.25C10.9891 3.25 12.5311 4.79206 12.5311 6.6875C12.5311 7.20544 12.4189 7.70309 12.1976 8.16663C12.1233 8.32237 12.1892 8.50891 12.345 8.58328C12.3884 8.60403 12.4343 8.61384 12.4794 8.61384C12.596 8.61384 12.708 8.54819 12.7616 8.43591C13.0234 7.88763 13.1561 7.29938 13.1561 6.6875C13.1561 4.44744 11.3337 2.625 9.09363 2.625Z" fill="white" stroke="white" stroke-width="0.2"/>
<path id="Shape_4" d="M12.0016 9.07566C11.8777 8.95547 11.6799 8.95844 11.5597 9.08229L11.5528 9.08941C11.4322 9.21288 11.4346 9.41076 11.558 9.53132C11.6188 9.59066 11.6976 9.62022 11.7763 9.62022C11.8575 9.62022 11.9387 9.58876 11.9999 9.52604L12.0082 9.51757C12.1284 9.39372 12.1254 9.19588 12.0016 9.07566Z" fill="white" stroke="white" stroke-width="0.2"/>
<path id="Shape_5" d="M11.1744 9.8233C11.0912 9.67214 10.9011 9.61711 10.7499 9.70042C10.2458 9.97821 9.67307 10.125 9.09354 10.125C7.1981 10.125 5.65604 8.58296 5.65604 6.68752C5.65604 6.19099 5.75951 5.71211 5.96354 5.26421C6.0351 5.10714 5.96576 4.92183 5.80869 4.85027C5.65163 4.77874 5.46632 4.84805 5.39476 5.00511C5.15338 5.53492 5.03101 6.10096 5.03101 6.68752C5.03101 8.92758 6.85344 10.75 9.09351 10.75C9.77822 10.75 10.4553 10.5764 11.0516 10.2478C11.2027 10.1645 11.2578 9.97446 11.1744 9.8233Z" fill="white" stroke="white" stroke-width="0.2"/>
<path id="Shape_6" d="M6.56247 3.90311C6.43619 3.78545 6.23844 3.79252 6.12081 3.91877L6.11387 3.92623C5.99669 4.05292 6.00434 4.25064 6.13103 4.36783C6.19112 4.42345 6.26722 4.45095 6.34315 4.45095C6.42722 4.45095 6.51103 4.41723 6.57262 4.35067L6.57812 4.34477C6.69575 4.21848 6.68875 4.02073 6.56247 3.90311Z" fill="white" stroke="white" stroke-width="0.2"/>
</g>
</g>
</svg>
