<svg width="18" height="18" viewBox="0 0 18 18" fill="none" xmlns="http://www.w3.org/2000/svg">
<g id="Services">
<rect id="Rectangle 4 Copy 21" width="18" height="18" fill="#F4F7FB" fill-opacity="0.01"/>
<g id="Info">
<path id="Shape" d="M13.875 5.25C13.875 5.42249 14.015 5.5625 14.1875 5.5625C14.36 5.5625 14.5 5.42249 14.5 5.25C14.5 5.07751 14.36 4.9375 14.1875 4.9375C14.015 4.9375 13.875 5.07751 13.875 5.25Z" fill="#0C49CD" stroke="#0C49CD" stroke-width="0.2"/>
<path id="Shape_2" d="M15.1249 8.99999C15.1249 9.40025 15.0848 9.79979 15.0057 10.1875C14.9711 10.3566 15.0803 10.5216 15.2493 10.5561C15.2705 10.5605 15.2914 10.5626 15.3122 10.5626C15.4576 10.5626 15.5878 10.4604 15.6181 10.3125C15.7056 9.88365 15.7499 9.44212 15.7499 8.99999C15.7499 8.01598 15.5366 7.06908 15.1155 6.18553C15.0413 6.02977 14.8549 5.96361 14.699 6.03783C14.5432 6.11205 14.4771 6.29857 14.5513 6.45445C14.932 7.25328 15.1249 8.10973 15.1249 8.99999Z" fill="#0C49CD" stroke="#0C49CD" stroke-width="0.2"/>
<g id="Shape_3">
<path fill-rule="evenodd" clip-rule="evenodd" d="M10.25 11.8125H10.5625C10.7351 11.8125 10.875 11.9524 10.875 12.125V13.375C10.875 13.5476 10.7351 13.6875 10.5625 13.6875H7.4375C7.26489 13.6875 7.125 13.5476 7.125 13.375V12.125C7.125 11.9524 7.26489 11.8125 7.4375 11.8125H7.75V9.3125H7.4375C7.26489 9.3125 7.125 9.17261 7.125 9V7.75C7.125 7.57739 7.26489 7.4375 7.4375 7.4375H9.9375C10.1101 7.4375 10.25 7.57739 10.25 7.75V11.8125ZM7.75 13.0625H10.25V12.4375H9.9375C9.76501 12.4375 9.625 12.2976 9.625 12.125V8.0625H7.75V8.6875H8.0625C8.23511 8.6875 8.375 8.82739 8.375 9V12.125C8.375 12.2976 8.23511 12.4375 8.0625 12.4375H7.75V13.0625Z" fill="#0C49CD"/>
<path d="M10.25 11.8125H10.15V11.9125H10.25V11.8125ZM7.75 11.8125V11.9125H7.85V11.8125H7.75ZM7.75 9.3125H7.85V9.2125H7.75V9.3125ZM10.25 13.0625V13.1625H10.35V13.0625H10.25ZM7.75 13.0625H7.65V13.1625H7.75V13.0625ZM10.25 12.4375H10.35V12.3375H10.25V12.4375ZM9.625 8.0625H9.725V7.9625H9.625V8.0625ZM7.75 8.0625V7.9625H7.65V8.0625H7.75ZM7.75 8.6875H7.65V8.7875H7.75V8.6875ZM7.75 12.4375V12.3375H7.65V12.4375H7.75ZM10.5625 11.7125H10.25V11.9125H10.5625V11.7125ZM10.975 12.125C10.975 11.8972 10.7903 11.7125 10.5625 11.7125V11.9125C10.6799 11.9125 10.775 12.0076 10.775 12.125H10.975ZM10.975 13.375V12.125H10.775V13.375H10.975ZM10.5625 13.7875C10.7903 13.7875 10.975 13.6028 10.975 13.375H10.775C10.775 13.4924 10.6799 13.5875 10.5625 13.5875V13.7875ZM7.4375 13.7875H10.5625V13.5875H7.4375V13.7875ZM7.025 13.375C7.025 13.6028 7.20966 13.7875 7.4375 13.7875V13.5875C7.32012 13.5875 7.225 13.4924 7.225 13.375H7.025ZM7.025 12.125V13.375H7.225V12.125H7.025ZM7.4375 11.7125C7.20966 11.7125 7.025 11.8972 7.025 12.125H7.225C7.225 12.0076 7.32012 11.9125 7.4375 11.9125V11.7125ZM7.75 11.7125H7.4375V11.9125H7.75V11.7125ZM7.65 9.3125V11.8125H7.85V9.3125H7.65ZM7.4375 9.4125H7.75V9.2125H7.4375V9.4125ZM7.025 9C7.025 9.22784 7.20966 9.4125 7.4375 9.4125V9.2125C7.32012 9.2125 7.225 9.11738 7.225 9H7.025ZM7.025 7.75V9H7.225V7.75H7.025ZM7.4375 7.3375C7.20966 7.3375 7.025 7.52216 7.025 7.75H7.225C7.225 7.63262 7.32012 7.5375 7.4375 7.5375V7.3375ZM9.9375 7.3375H7.4375V7.5375H9.9375V7.3375ZM10.35 7.75C10.35 7.52216 10.1653 7.3375 9.9375 7.3375V7.5375C10.0549 7.5375 10.15 7.63262 10.15 7.75H10.35ZM10.35 11.8125V7.75H10.15V11.8125H10.35ZM10.25 12.9625H7.75V13.1625H10.25V12.9625ZM10.15 12.4375V13.0625H10.35V12.4375H10.15ZM9.9375 12.5375H10.25V12.3375H9.9375V12.5375ZM9.525 12.125C9.525 12.3529 9.70981 12.5375 9.9375 12.5375V12.3375C9.82022 12.3375 9.725 12.2424 9.725 12.125H9.525ZM9.525 8.0625V12.125H9.725V8.0625H9.525ZM7.75 8.1625H9.625V7.9625H7.75V8.1625ZM7.85 8.6875V8.0625H7.65V8.6875H7.85ZM8.0625 8.5875H7.75V8.7875H8.0625V8.5875ZM8.475 9C8.475 8.77216 8.29034 8.5875 8.0625 8.5875V8.7875C8.17988 8.7875 8.275 8.88262 8.275 9H8.475ZM8.475 12.125V9H8.275V12.125H8.475ZM8.0625 12.5375C8.29034 12.5375 8.475 12.3528 8.475 12.125H8.275C8.275 12.2424 8.17988 12.3375 8.0625 12.3375V12.5375ZM7.75 12.5375H8.0625V12.3375H7.75V12.5375ZM7.85 13.0625V12.4375H7.65V13.0625H7.85Z" fill="#0C49CD"/>
</g>
<g id="Shape_4">
<path fill-rule="evenodd" clip-rule="evenodd" d="M10.25 5.5625C10.25 6.25171 9.68921 6.8125 9 6.8125C8.31079 6.8125 7.75 6.25171 7.75 5.5625C7.75 4.87329 8.31079 4.3125 9 4.3125C9.68921 4.3125 10.25 4.87329 10.25 5.5625ZM9.625 5.5625C9.625 5.2179 9.3446 4.9375 9 4.9375C8.6554 4.9375 8.375 5.2179 8.375 5.5625C8.375 5.9071 8.6554 6.1875 9 6.1875C9.3446 6.1875 9.625 5.9071 9.625 5.5625Z" fill="#0C49CD"/>
<path d="M9 6.9125C9.74444 6.9125 10.35 6.30694 10.35 5.5625H10.15C10.15 6.19648 9.63398 6.7125 9 6.7125V6.9125ZM7.65 5.5625C7.65 6.30694 8.25556 6.9125 9 6.9125V6.7125C8.36602 6.7125 7.85 6.19648 7.85 5.5625H7.65ZM9 4.2125C8.25556 4.2125 7.65 4.81806 7.65 5.5625H7.85C7.85 4.92852 8.36602 4.4125 9 4.4125V4.2125ZM10.35 5.5625C10.35 4.81806 9.74444 4.2125 9 4.2125V4.4125C9.63398 4.4125 10.15 4.92852 10.15 5.5625H10.35ZM9 5.0375C9.28938 5.0375 9.525 5.27312 9.525 5.5625H9.725C9.725 5.16267 9.39983 4.8375 9 4.8375V5.0375ZM8.475 5.5625C8.475 5.27312 8.71062 5.0375 9 5.0375V4.8375C8.60017 4.8375 8.275 5.16267 8.275 5.5625H8.475ZM9 6.0875C8.71062 6.0875 8.475 5.85188 8.475 5.5625H8.275C8.275 5.96233 8.60017 6.2875 9 6.2875V6.0875ZM9.525 5.5625C9.525 5.85188 9.28938 6.0875 9 6.0875V6.2875C9.39983 6.2875 9.725 5.96233 9.725 5.5625H9.525Z" fill="#0C49CD"/>
</g>
<g id="Shape_5">
<path fill-rule="evenodd" clip-rule="evenodd" d="M1 9C1 4.68127 4.68823 1 9 1C13.3184 1 17 4.68713 17 9C17 13.3182 13.3129 17 9 17C7.52478 17 5.95593 16.5774 4.76941 15.8645L1.41138 16.9839C1.29968 17.0212 1.17566 16.9926 1.09155 16.9084C1.00781 16.8248 0.978638 16.7009 1.01599 16.5887L2.1355 13.2307C1.42273 12.0441 1 10.4752 1 9ZM4.97632 15.2579C6.08069 15.9574 7.58484 16.375 9 16.375C12.9977 16.375 16.375 12.9977 16.375 9C16.375 5.00232 12.9977 1.625 9 1.625C5.00232 1.625 1.625 5.00232 1.625 9C1.625 10.4152 2.0426 11.9194 2.74207 13.0237C2.79236 13.103 2.80432 13.2007 2.77454 13.2898L1.80664 16.1934L4.71021 15.2255C4.80054 15.1953 4.89807 15.2084 4.97632 15.2579Z" fill="#0C49CD"/>
<path d="M4.76941 15.8645L4.82091 15.7788L4.78145 15.7551L4.73779 15.7696L4.76941 15.8645ZM1.41138 16.9839L1.37975 16.889L1.37966 16.889L1.41138 16.9839ZM1.09155 16.9084L1.16226 16.8377L1.16221 16.8377L1.09155 16.9084ZM1.01599 16.5887L0.921124 16.5571L0.921113 16.5572L1.01599 16.5887ZM2.1355 13.2307L2.23037 13.2623L2.24492 13.2187L2.22122 13.1792L2.1355 13.2307ZM4.97632 15.2579L4.92281 15.3424L4.92281 15.3424L4.97632 15.2579ZM2.74207 13.0237L2.65759 13.0772L2.6576 13.0772L2.74207 13.0237ZM2.77454 13.2898L2.67969 13.2581L2.67967 13.2582L2.77454 13.2898ZM1.80664 16.1934L1.71177 16.1617L1.64852 16.3515L1.83826 16.2882L1.80664 16.1934ZM4.71021 15.2255L4.74183 15.3203L4.74187 15.3203L4.71021 15.2255ZM9 0.9C4.63306 0.9 0.9 4.62599 0.9 9H1.1C1.1 4.73656 4.7434 1.1 9 1.1V0.9ZM17.1 9C17.1 4.63195 13.3736 0.9 9 0.9V1.1C13.2631 1.1 16.9 4.74232 16.9 9H17.1ZM9 17.1C13.3681 17.1 17.1 13.3735 17.1 9H16.9C16.9 13.263 13.2577 16.9 9 16.9V17.1ZM4.71791 15.9502C5.92093 16.673 7.50776 17.1 9 17.1V16.9C7.5418 16.9 5.99094 16.4818 4.82091 15.7788L4.71791 15.9502ZM1.443 17.0788L4.80103 15.9594L4.73779 15.7696L1.37975 16.889L1.443 17.0788ZM1.02084 16.9792C1.13186 17.0902 1.29558 17.1281 1.44309 17.0787L1.37966 16.889C1.30379 16.9144 1.21946 16.8949 1.16226 16.8377L1.02084 16.9792ZM0.921113 16.5572C0.871813 16.7052 0.910286 16.8688 1.02089 16.9792L1.16221 16.8377C1.10534 16.7809 1.08546 16.6966 1.11087 16.6203L0.921113 16.5572ZM2.04063 13.1991L0.921124 16.5571L1.11086 16.6204L2.23037 13.2623L2.04063 13.1991ZM0.9 9C0.9 10.4922 1.3271 12.0791 2.04977 13.2822L2.22122 13.1792C1.51835 12.0091 1.1 10.4582 1.1 9H0.9ZM9 16.275C7.60216 16.275 6.11687 15.8619 5.02983 15.1735L4.92281 15.3424C6.04451 16.0529 7.56752 16.475 9 16.475V16.275ZM16.275 9C16.275 12.9425 12.9425 16.275 9 16.275V16.475C13.0529 16.475 16.475 13.0529 16.475 9H16.275ZM9 1.725C12.9425 1.725 16.275 5.05755 16.275 9H16.475C16.475 4.94709 13.0529 1.525 9 1.525V1.725ZM1.725 9C1.725 5.05755 5.05755 1.725 9 1.725V1.525C4.94709 1.525 1.525 4.94709 1.525 9H1.725ZM2.82654 12.9702C2.13806 11.8833 1.725 10.3978 1.725 9H1.525C1.525 10.4325 1.94715 11.9556 2.65759 13.0772L2.82654 12.9702ZM2.86938 13.3215C2.90872 13.2038 2.89289 13.0749 2.82653 12.9701L2.6576 13.0772C2.69182 13.1312 2.69993 13.1976 2.67969 13.2581L2.86938 13.3215ZM1.90151 16.225L2.8694 13.3214L2.67967 13.2582L1.71177 16.1617L1.90151 16.225ZM4.67858 15.1306L1.77502 16.0985L1.83826 16.2882L4.74183 15.3203L4.67858 15.1306ZM5.02983 15.1735C4.92661 15.1081 4.79785 15.0908 4.67854 15.1306L4.74187 15.3203C4.80323 15.2998 4.86953 15.3087 4.92281 15.3424L5.02983 15.1735Z" fill="#0C49CD"/>
</g>
</g>
</g>
</svg>
