<svg width="16" height="13" viewBox="0 0 16 13" fill="none" xmlns="http://www.w3.org/2000/svg">
<path fill-rule="evenodd" clip-rule="evenodd" d="M6.38816 5.25393L3.60399 4.57087C3.13161 4.4601 2.39194 4.26939 2.39194 3.36532C2.39194 2.33294 3.47728 1.9845 4.39023 1.9845C6.46742 1.9845 6.65634 3.2067 6.71872 3.72954H8.04377V5.87797C7.55821 5.59103 6.9832 5.40529 6.38816 5.25393ZM4.87684 12.1246C5.47434 12.1246 6.94419 12.018 8.04307 11.209V11.8238H10.2617L10.2619 9.12541L11.1905 8.15718L13.2041 11.8238H15.864L12.8116 6.58654L15.7854 3.28503H13.0628L10.2619 6.52344V0.301297H8.04377V1.2853C7.36648 0.555805 6.27095 0 4.56332 0C0.865673 0 0.172748 2.26983 0.172748 3.539C0.172748 5.28511 1.10133 6.25387 2.7225 6.65034L5.01971 7.22086C6.23123 7.52215 7.09708 7.74458 7.09708 8.64989C7.09708 9.8565 5.83758 10.1415 4.70479 10.1415C2.62777 10.1415 2.28122 8.91946 2.28122 8.26831H0C0 9.69663 0.723328 12.1246 4.87684 12.1246Z" fill="white"/>
</svg>
