<svg width="24" height="19" viewBox="0 0 24 19" fill="none" xmlns="http://www.w3.org/2000/svg">
<path fill-rule="evenodd" clip-rule="evenodd" d="M9.66438 7.94844L5.45231 6.91506C4.73767 6.74748 3.61865 6.45897 3.61865 5.09125C3.61865 3.52939 5.26062 3.00225 6.64178 3.00225C9.78428 3.00225 10.0701 4.85127 10.1645 5.64225H12.1691V8.89252C11.4345 8.45842 10.5646 8.17742 9.66438 7.94844ZM7.37797 18.3428C8.2819 18.3428 10.5056 18.1816 12.168 16.9576V17.8877H15.5245L15.5248 13.8055L16.9296 12.3407L19.9759 17.8877H24L19.3822 9.9645L23.8812 4.96978H19.7621L15.5248 9.86905V0.45582H12.1691V1.94448C11.1445 0.840855 9.48706 0 6.90367 0C1.30964 0 0.261344 3.43394 0.261344 5.35401C0.261344 7.99563 1.66616 9.46122 4.11875 10.061L7.59412 10.9241C9.42698 11.38 10.7369 11.7165 10.7369 13.0861C10.7369 14.9115 8.83144 15.3426 7.11769 15.3426C3.97545 15.3426 3.45117 13.4939 3.45117 12.5088H0C0 14.6696 1.09429 18.3428 7.37797 18.3428Z" fill="#F5A623"/>
</svg>
