<?xml version="1.0" encoding="UTF-8" standalone="no"?>
<svg width="18px" height="13px" viewBox="0 0 18 13" version="1.1" xmlns="http://www.w3.org/2000/svg" xmlns:xlink="http://www.w3.org/1999/xlink">
    <!-- Generator: Sketch 50.2 (55047) - http://www.bohemiancoding.com/sketch -->
    <title>Social business White</title>
    <desc>Created with Sketch.</desc>
    <defs></defs>
    <g id="sk-0.9-Icons,-Language,-Error" stroke="none" stroke-width="1" fill="none" fill-rule="evenodd">
        <g id="Icons-White" transform="translate(-103.000000, -1638.000000)">
            <g id="Social-business-White" transform="translate(103.000000, 1636.000000)">
                <g>
                    <rect id="Rectangle-4-Copy-23" fill-opacity="0" fill="#F4F7FB" x="0" y="0" width="18" height="18"></rect>
                    <path d="M6.1282372,6.27637736 C7.0237628,6.27637736 7.75230189,5.54779515 7.75230189,4.65226954 C7.75230189,3.75670081 7.0237628,3.02807547 6.1282372,3.02807547 C5.23258221,3.02807547 4.50391375,3.75670081 4.50391375,4.65226954 C4.50395687,5.54779515 5.23262534,6.27637736 6.1282372,6.27637736 Z M6.1282372,3.8043558 C6.59568733,3.8043558 6.97602156,4.18473315 6.97602156,4.65226954 C6.97602156,5.1197628 6.59573046,5.50009704 6.1282372,5.50009704 C5.66065768,5.50009704 5.28019407,5.1197628 5.28019407,4.65226954 C5.2802372,4.18473315 5.66065768,3.8043558 6.1282372,3.8043558 Z M11.4557628,6.27637736 C12.3513315,6.27637736 13.0799137,5.54779515 13.0799137,4.65226954 C13.0799137,3.75670081 12.3513315,3.02807547 11.4557628,3.02807547 C10.5601941,3.02807547 9.83161186,3.75670081 9.83161186,4.65226954 C9.83161186,5.54779515 10.5601941,6.27637736 11.4557628,6.27637736 Z M11.4557628,3.8043558 C11.9232561,3.8043558 12.3036334,4.18473315 12.3036334,4.65226954 C12.3036334,5.1197628 11.9232992,5.50009704 11.4557628,5.50009704 C10.9882264,5.50009704 10.6078922,5.1197628 10.6078922,4.65226954 C10.6078922,4.18473315 10.9882695,3.8043558 11.4557628,3.8043558 Z M8.53656065,9.82911051 L9.12907817,8.45647439 C9.41060916,7.8045283 9.91730458,6.93785445 11.0627925,6.93785445 L11.8488625,6.93785445 C12.9943935,6.93785445 13.5010458,7.80457143 13.7824474,8.45647439 L14.3750081,9.82911051 C14.4599677,10.0258976 14.3693154,10.2543396 14.1725283,10.3392992 C13.975655,10.4243019 13.7472992,10.3336065 13.6623396,10.1368194 L13.069779,8.76418329 C12.7477951,8.01839353 12.3940701,7.7141779 11.8488625,7.7141779 L11.0627925,7.7141779 C10.5175849,7.7141779 10.1638167,8.01839353 9.84178976,8.76422642 L9.24931536,10.1368194 C9.18600539,10.2834933 9.0429973,10.3712561 8.89274394,10.3712561 C8.84142318,10.3712561 8.78923989,10.3609919 8.73908356,10.3393854 C8.5422965,10.2543396 8.45160108,10.0258976 8.53656065,9.82911051 Z M16.9759353,11.1521078 C16.9513531,11.3118491 16.8625121,11.5447763 16.5789973,11.7464367 C16.0430189,12.1276334 14.9590728,12.2840108 13.6400431,12.2840539 C12.1469973,12.2840539 10.3527116,12.0837305 8.71031806,11.7822749 C6.66637197,11.407159 4.76853908,10.874372 3.36631806,10.2820701 C1.74199461,9.59592453 1.00288949,8.93518059 1.10665229,8.26192992 C1.21714286,7.54330997 2.20612399,7.34785984 2.53112668,7.2836442 C2.74149865,7.24202695 2.94557412,7.37886792 2.98714825,7.58915364 C3.02872237,7.79943935 2.89192453,8.0036442 2.68163881,8.0451752 C1.95982749,8.18783827 1.8741779,8.37824259 1.87391914,8.38005391 C1.86223181,8.45591375 2.1149973,8.87592453 3.44390296,9.46926146 L3.88112129,8.45647439 C4.16265229,7.8045283 4.66939084,6.93785445 5.81483558,6.93785445 L6.60090566,6.93785445 C7.18402156,6.93785445 7.6707062,7.16828032 8.04746092,7.62274933 C8.18425876,7.78779515 8.16140162,8.03245283 7.9963558,8.16925067 C7.83139623,8.30609164 7.58665229,8.2832345 7.44985445,8.11814555 C7.22136927,7.84252291 6.95161186,7.71413477 6.60094879,7.71413477 L5.81487871,7.71413477 C5.26967116,7.71413477 4.91590296,8.0183504 4.59383288,8.76418329 L4.16191914,9.76459299 C5.45244205,10.2562803 7.09298113,10.6961725 8.85047978,11.018717 C12.6774124,11.7211213 15.4567978,11.5919569 16.1290566,11.1138544 C16.1912453,11.0696496 16.2079353,11.0390296 16.2087547,11.0338544 C16.2090566,11.0318706 16.1987925,10.8267601 15.5869973,10.4393962 C15.4058652,10.3247224 15.352,10.084938 15.4666739,9.90384906 C15.5813477,9.72271698 15.8211752,9.66889488 16.002221,9.78352561 C16.7286038,10.2433854 17.0470943,10.6910836 16.9759353,11.1521078 Z M16.4643235,12.8025229 C16.6206577,12.9491968 16.6284205,13.1948464 16.4817035,13.3511375 C16.0214555,13.841531 14.8427601,14.0411644 13.3614447,14.0411644 C11.8848302,14.0411644 10.1075795,13.8429542 8.43995687,13.5368841 C4.84288949,12.8767008 1.88784906,11.7694232 1.08668464,10.7815633 C0.951654987,10.6150943 0.977185984,10.3706523 1.14365499,10.2356226 C1.31016712,10.1006361 1.55456604,10.1260809 1.68959569,10.292593 C2.26542318,11.0025876 4.81714286,12.0826954 8.58007547,12.773283 C12.8742857,13.5614663 15.4959569,13.2670404 15.9156658,12.8198598 C16.0623827,12.6635687 16.3079892,12.6557197 16.4643235,12.8025229 Z" id="Shape" stroke="#FFFFFF" stroke-width="0.2" fill="#FFFFFF" fill-rule="nonzero"></path>
                </g>
                <g id="social-relations" transform="translate(1.000000, 3.000000)"></g>
            </g>
        </g>
    </g>
</svg>