<svg width="18" height="18" viewBox="0 0 18 18" fill="none" xmlns="http://www.w3.org/2000/svg">
<g id="Sport">
<rect id="Rectangle 4 Copy 26" width="18" height="18" fill="#F4F7FB" fill-opacity="0.01"/>
<g id="football">
<g id="Football-ball">
<path fill-rule="evenodd" clip-rule="evenodd" d="M1 9C1 4.58875 4.58875 1 9 1C13.4113 1 17 4.58875 17 9C17 13.4113 13.4113 17 9 17C4.58875 17 1 13.4113 1 9ZM15.4347 8.573L16.4059 10.1828C16.4672 9.79725 16.5 9.4025 16.5 9C16.5 8.16175 16.3597 7.35625 16.105 6.603L15.4347 8.573ZM14.5165 14.0745C14.4843 14.0662 14.4497 14.0638 14.4146 14.0695L11.995 14.4575C11.9897 14.428 11.9807 14.3985 11.9642 14.3713L10.5887 12.0788L12.8127 8.65375H14.9198C14.9255 8.68075 14.9315 8.7075 14.946 8.73175L16.255 10.9013C15.9402 12.1025 15.3337 13.187 14.5165 14.0745ZM13.9172 14.6558L11.9952 14.9637L10.9907 16.2298C12.0869 15.9275 13.0828 15.3823 13.9172 14.6558ZM4.1626 3.275C5.42651 2.20525 7.04785 1.54675 8.81958 1.5045C8.83252 1.539 8.85107 1.5715 8.87952 1.5985L10.2607 2.902L9.7146 4.941L6.15527 6.30725C6.15076 6.3036 6.14661 6.29964 6.14246 6.2957L6.13098 6.28537C6.12671 6.28178 6.12207 6.27847 6.11682 6.27575L3.89929 5.1005L4.1626 3.275ZM9.52576 1.5205L10.5966 2.531L12.2729 2.25325C11.4327 1.84375 10.5048 1.58875 9.52576 1.5205ZM6.48242 10.6842L6.27844 6.79575L9.9137 5.4L12.3645 8.4265L10.2437 11.6923L6.48242 10.6842ZM15.8174 5.91257L15.8196 5.90915L15.8225 5.90469L15.8262 5.899C15.2057 4.539 14.192 3.39525 12.9294 2.61525C12.897 2.64125 12.8602 2.6625 12.8162 2.66975L10.7487 3.0125L10.2205 4.98425L12.7872 8.15375H15.0492L15.803 5.93875C15.8064 5.92885 15.8119 5.92073 15.8174 5.91257ZM3.57776 3.82675L3.37732 5.217L2.04004 6.21075C2.3988 5.3185 2.92407 4.51125 3.57776 3.82675ZM1.79675 7.01475C1.7865 7.0225 1.77502 7.026 1.76404 7.03175C1.59302 7.6595 1.5 8.31875 1.5 9C1.5 10.0957 1.73828 11.1362 2.16223 12.0755C2.16919 12.0778 2.17651 12.077 2.18347 12.08L4.03174 12.8727L4.03687 12.8636C4.04138 12.8556 4.0459 12.8475 4.05103 12.8397C4.05615 12.8318 4.06189 12.8242 4.06897 12.8172L5.99646 10.91C5.99609 10.9071 5.99536 10.9043 5.99463 10.9015C5.99377 10.8983 5.9928 10.8951 5.99255 10.8918L5.77051 6.65775L3.73096 5.577L1.79675 7.01475ZM2.51953 12.768L3.87329 13.3485L4.90857 15.2807C3.93005 14.641 3.10999 13.7797 2.51953 12.768ZM5.6947 15.6898C5.703 15.705 5.70447 15.7217 5.70923 15.7378C6.70349 16.2253 7.81995 16.5 9 16.5C9.41467 16.5 9.82129 16.4647 10.218 16.3997L11.5802 14.683C11.5703 14.6738 11.561 14.664 11.5526 14.6533C11.5466 14.6456 11.541 14.6374 11.5358 14.6287L10.054 12.159L6.42725 11.187L4.42053 13.1725C4.40417 13.1888 4.38452 13.198 4.36548 13.2088L5.6947 15.6898Z" fill="#0C49CD"/>
<path d="M16.4059 10.1828L16.3203 10.2344L16.4617 10.4688L16.5046 10.1984L16.4059 10.1828ZM15.4347 8.573L15.34 8.54079L15.325 8.58483L15.3491 8.62466L15.4347 8.573ZM16.105 6.603L16.1997 6.57096L16.1053 6.29172L16.0103 6.57079L16.105 6.603ZM14.4146 14.0695L14.4304 14.1682L14.4307 14.1682L14.4146 14.0695ZM14.5165 14.0745L14.4917 14.1714L14.5496 14.1862L14.59 14.1422L14.5165 14.0745ZM11.995 14.4575L11.8965 14.475L11.9138 14.5718L12.0108 14.5562L11.995 14.4575ZM11.9642 14.3713L11.8785 14.4227L11.8787 14.423L11.9642 14.3713ZM10.5887 12.0788L10.5049 12.0243L10.4709 12.0767L10.503 12.1302L10.5887 12.0788ZM12.8127 8.65375V8.55375H12.7584L12.7289 8.59929L12.8127 8.65375ZM14.9198 8.65375L15.0176 8.63297L15.0008 8.55375H14.9198V8.65375ZM14.946 8.73175L14.8603 8.78314L14.8604 8.78341L14.946 8.73175ZM16.255 10.9013L16.3517 10.9266L16.3624 10.8858L16.3406 10.8496L16.255 10.9013ZM11.9952 14.9637L11.9794 14.865L11.9411 14.8712L11.9169 14.9016L11.9952 14.9637ZM13.9172 14.6558L13.9829 14.7312L14.2465 14.5017L13.9014 14.557L13.9172 14.6558ZM10.9907 16.2298L10.9124 16.1676L10.722 16.4076L11.0173 16.3262L10.9907 16.2298ZM8.81958 1.5045L8.91321 1.46938L8.88825 1.40284L8.8172 1.40453L8.81958 1.5045ZM4.1626 3.275L4.09799 3.19867L4.06904 3.22318L4.06362 3.26073L4.1626 3.275ZM8.87952 1.5985L8.81067 1.67103L8.81088 1.67123L8.87952 1.5985ZM10.2607 2.902L10.3573 2.92787L10.3728 2.87023L10.3294 2.82927L10.2607 2.902ZM9.7146 4.941L9.75043 5.03436L9.79801 5.0161L9.81119 4.96687L9.7146 4.941ZM6.15527 6.30725L6.09241 6.38502L6.13727 6.42128L6.19111 6.40061L6.15527 6.30725ZM6.14246 6.2957L6.21133 6.22316L6.20939 6.22141L6.14246 6.2957ZM6.13098 6.28537L6.19796 6.21103L6.19527 6.20877L6.13098 6.28537ZM6.11682 6.27575L6.06999 6.36411L6.07076 6.36451L6.11682 6.27575ZM3.89929 5.1005L3.80032 5.08623L3.79027 5.1559L3.85246 5.18886L3.89929 5.1005ZM10.5966 2.531L10.5279 2.60373L10.564 2.63776L10.6129 2.62965L10.5966 2.531ZM9.52576 1.5205L9.53271 1.42074L9.25373 1.40129L9.45712 1.59323L9.52576 1.5205ZM12.2729 2.25325L12.2893 2.35191L12.5985 2.30067L12.3168 2.16336L12.2729 2.25325ZM6.27844 6.79575L6.2426 6.7024L6.17477 6.72844L6.17858 6.80099L6.27844 6.79575ZM6.48242 10.6842L6.38256 10.6895L6.38636 10.762L6.45654 10.7808L6.48242 10.6842ZM9.9137 5.4L9.99141 5.33707L9.94568 5.2806L9.87785 5.30665L9.9137 5.4ZM12.3645 8.4265L12.4484 8.48097L12.4879 8.42003L12.4422 8.36357L12.3645 8.4265ZM10.2437 11.6923L10.2178 11.7888L10.2879 11.8077L10.3275 11.7467L10.2437 11.6923ZM15.8196 5.90915L15.736 5.85424L15.7355 5.85503L15.8196 5.90915ZM15.8174 5.91257L15.9004 5.96839L15.9015 5.96669L15.8174 5.91257ZM15.8225 5.90469L15.9061 5.9596L15.9066 5.95878L15.8225 5.90469ZM15.8262 5.899L15.9103 5.95308L15.9398 5.90716L15.9172 5.85749L15.8262 5.899ZM12.9294 2.61525L12.982 2.53018L12.922 2.4931L12.8669 2.53719L12.9294 2.61525ZM12.8162 2.66975L12.7999 2.57108L12.7998 2.5711L12.8162 2.66975ZM10.7487 3.0125L10.7323 2.91385L10.6687 2.92439L10.6521 2.98662L10.7487 3.0125ZM10.2205 4.98425L10.1239 4.95837L10.1107 5.00759L10.1427 5.04718L10.2205 4.98425ZM12.7872 8.15375L12.7095 8.21668L12.7395 8.25375H12.7872V8.15375ZM15.0492 8.15375V8.25375H15.1208L15.1439 8.18596L15.0492 8.15375ZM15.803 5.93875L15.7084 5.90613L15.7083 5.90653L15.803 5.93875ZM3.37732 5.217L3.43696 5.29727L3.47036 5.27245L3.4763 5.23127L3.37732 5.217ZM3.57776 3.82675L3.67674 3.84102L3.72135 3.5316L3.50544 3.75769L3.57776 3.82675ZM2.04004 6.21075L1.94726 6.17344L1.81489 6.50265L2.09968 6.29102L2.04004 6.21075ZM1.76404 7.03175L1.71768 6.94315L1.67902 6.96337L1.66755 7.00546L1.76404 7.03175ZM1.79675 7.01475L1.73709 6.93449L1.73647 6.93497L1.79675 7.01475ZM2.16223 12.0755L2.07109 12.1166L2.08931 12.157L2.13145 12.1706L2.16223 12.0755ZM2.18347 12.08L2.1439 12.1718L2.14405 12.1719L2.18347 12.08ZM4.03174 12.8727L3.99232 12.9647L4.07481 13L4.11887 12.9218L4.03174 12.8727ZM4.03687 12.8636L4.12399 12.9127L4.12413 12.9125L4.03687 12.8636ZM4.05103 12.8397L4.13447 12.8948L4.13505 12.8939L4.05103 12.8397ZM4.06897 12.8172L4.13891 12.8887L4.13931 12.8883L4.06897 12.8172ZM5.99646 10.91L6.0668 10.9811L6.10186 10.9464L6.09567 10.8975L5.99646 10.91ZM5.99463 10.9015L6.09134 10.8761L6.09128 10.8759L5.99463 10.9015ZM5.99255 10.8918L5.89267 10.897L5.89282 10.899L5.99255 10.8918ZM5.77051 6.65775L5.87037 6.65251L5.8674 6.59592L5.81733 6.56939L5.77051 6.65775ZM3.73096 5.577L3.77778 5.48864L3.72198 5.45907L3.6713 5.49674L3.73096 5.577ZM3.87329 13.3485L3.96144 13.3013L3.94489 13.2704L3.9127 13.2566L3.87329 13.3485ZM2.51953 12.768L2.55894 12.6761L2.28041 12.5567L2.43316 12.8184L2.51953 12.768ZM4.90857 15.2807L4.85385 15.3644L4.99671 15.2335L4.90857 15.2807ZM5.70923 15.7378L5.61338 15.7663L5.62587 15.8083L5.6652 15.8275L5.70923 15.7378ZM5.6947 15.6898L5.60655 15.737L5.60687 15.7376L5.6947 15.6898ZM10.218 16.3997L10.2342 16.4984L10.2723 16.4922L10.2964 16.4619L10.218 16.3997ZM11.5802 14.683L11.6585 14.7452L11.7161 14.6726L11.6482 14.6097L11.5802 14.683ZM11.5526 14.6533L11.4737 14.7146L11.474 14.715L11.5526 14.6533ZM11.5358 14.6287L11.45 14.6802L11.4502 14.6806L11.5358 14.6287ZM10.054 12.159L10.1397 12.1076L10.1189 12.0729L10.0798 12.0624L10.054 12.159ZM6.42725 11.187L6.45313 11.0904L6.3977 11.0756L6.35691 11.1159L6.42725 11.187ZM4.42053 13.1725L4.3502 13.1014L4.35005 13.1016L4.42053 13.1725ZM4.36548 13.2088L4.31632 13.1217L4.23114 13.1698L4.27733 13.256L4.36548 13.2088ZM9 0.9C4.53352 0.9 0.9 4.53352 0.9 9H1.1C1.1 4.64398 4.64397 1.1 9 1.1V0.9ZM17.1 9C17.1 4.53352 13.4665 0.9 9 0.9V1.1C13.356 1.1 16.9 4.64398 16.9 9H17.1ZM9 17.1C13.4665 17.1 17.1 13.4665 17.1 9H16.9C16.9 13.356 13.356 16.9 9 16.9V17.1ZM0.9 9C0.9 13.4665 4.53352 17.1 9 17.1V16.9C4.64397 16.9 1.1 13.356 1.1 9H0.9ZM16.4915 10.1311L15.5203 8.52134L15.3491 8.62466L16.3203 10.2344L16.4915 10.1311ZM16.4 9C16.4 9.39705 16.3676 9.78654 16.3071 10.1671L16.5046 10.1984C16.5667 9.80795 16.6 9.40795 16.6 9H16.4ZM16.0103 6.63504C16.2616 7.3783 16.4 8.17299 16.4 9H16.6C16.6 8.15051 16.4578 7.33421 16.1997 6.57096L16.0103 6.63504ZM15.5294 8.60521L16.1997 6.63521L16.0103 6.57079L15.34 8.54079L15.5294 8.60521ZM14.4307 14.1682C14.4508 14.1649 14.4714 14.1662 14.4917 14.1714L14.5413 13.9776C14.4971 13.9663 14.4486 13.9626 14.3984 13.9708L14.4307 14.1682ZM12.0108 14.5562L14.4304 14.1682L14.3987 13.9708L11.9792 14.3588L12.0108 14.5562ZM11.8787 14.423C11.8869 14.4366 11.8927 14.4535 11.8965 14.475L12.0934 14.44C12.0868 14.4025 12.0745 14.3604 12.0498 14.3195L11.8787 14.423ZM10.503 12.1302L11.8785 14.4227L12.05 14.3198L10.6745 12.0273L10.503 12.1302ZM12.7289 8.59929L10.5049 12.0243L10.6726 12.1332L12.8966 8.70821L12.7289 8.59929ZM14.9198 8.55375H12.8127V8.75375H14.9198V8.55375ZM15.0318 8.68036C15.0271 8.67238 15.0237 8.66151 15.0176 8.63297L14.822 8.67454C14.8274 8.69999 14.836 8.74262 14.8603 8.78314L15.0318 8.68036ZM16.3406 10.8496L15.0317 8.68009L14.8604 8.78341L16.1694 10.9529L16.3406 10.8496ZM14.59 14.1422C15.4181 13.243 16.0327 12.1441 16.3517 10.9266L16.1583 10.8759C15.8477 12.0609 15.2494 13.131 14.4429 14.0068L14.59 14.1422ZM12.0111 15.0625L13.9331 14.7545L13.9014 14.557L11.9794 14.865L12.0111 15.0625ZM11.0691 16.2919L12.0736 15.0259L11.9169 14.9016L10.9124 16.1676L11.0691 16.2919ZM13.8516 14.5803C13.0281 15.2972 12.0455 15.8352 10.9641 16.1333L11.0173 16.3262C12.1283 16.0198 13.1374 15.4673 13.9829 14.7312L13.8516 14.5803ZM8.8172 1.40453C7.02179 1.44735 5.37868 2.11472 4.09799 3.19867L4.2272 3.35133C5.47434 2.29578 7.07391 1.64616 8.82196 1.60447L8.8172 1.40453ZM8.94836 1.52598C8.93367 1.51203 8.92235 1.49376 8.91321 1.46938L8.72595 1.53962C8.74269 1.58424 8.76847 1.63097 8.81067 1.67103L8.94836 1.52598ZM10.3294 2.82927L8.94815 1.52578L8.81088 1.67123L10.1921 2.97473L10.3294 2.82927ZM9.81119 4.96687L10.3573 2.92787L10.1641 2.87613L9.618 4.91513L9.81119 4.96687ZM6.19111 6.40061L9.75043 5.03436L9.67876 4.84764L6.11944 6.21389L6.19111 6.40061ZM6.0736 6.36822C6.07716 6.3716 6.08424 6.37842 6.09241 6.38502L6.21813 6.22948C6.21727 6.22878 6.21606 6.22769 6.21131 6.22318L6.0736 6.36822ZM6.06405 6.35966L6.07552 6.37L6.20939 6.22141L6.19792 6.21107L6.06405 6.35966ZM6.07076 6.36451C6.06796 6.36306 6.06652 6.36182 6.06669 6.36196L6.19527 6.20877C6.1869 6.20174 6.17618 6.19389 6.16288 6.18699L6.07076 6.36451ZM3.85246 5.18886L6.06999 6.36411L6.16365 6.18739L3.94612 5.01214L3.85246 5.18886ZM4.06362 3.26073L3.80032 5.08623L3.99827 5.11478L4.26157 3.28928L4.06362 3.26073ZM10.6652 2.45827L9.59439 1.44777L9.45712 1.59323L10.5279 2.60373L10.6652 2.45827ZM12.2566 2.1546L10.5802 2.43234L10.6129 2.62965L12.2893 2.35191L12.2566 2.1546ZM9.5188 1.62026C10.4849 1.6876 11.4003 1.93921 12.2291 2.34314L12.3168 2.16336C11.4651 1.74829 10.5247 1.48989 9.53271 1.42074L9.5188 1.62026ZM6.17858 6.80099L6.38256 10.6895L6.58228 10.679L6.3783 6.79051L6.17858 6.80099ZM9.87785 5.30665L6.2426 6.7024L6.31429 6.88911L9.94954 5.49336L9.87785 5.30665ZM12.4422 8.36357L9.99141 5.33707L9.83598 5.46293L12.2868 8.48943L12.4422 8.36357ZM10.3275 11.7467L12.4484 8.48097L12.2806 8.37204L10.1598 11.6378L10.3275 11.7467ZM6.45654 10.7808L10.2178 11.7888L10.2695 11.5957L6.50831 10.5877L6.45654 10.7808ZM15.7355 5.85503L15.7333 5.85845L15.9015 5.96669L15.9037 5.96327L15.7355 5.85503ZM15.7389 5.84979L15.736 5.85425L15.9032 5.96406L15.9061 5.9596L15.7389 5.84979ZM15.7421 5.84491L15.7384 5.85061L15.9066 5.95878L15.9103 5.95308L15.7421 5.84491ZM12.8769 2.70032C14.1227 3.46998 15.123 4.59861 15.7352 5.94051L15.9172 5.85749C15.2884 4.4794 14.2613 3.32052 12.982 2.53018L12.8769 2.70032ZM12.8324 2.76842C12.8994 2.7574 12.9518 2.72548 12.9919 2.69331L12.8669 2.53719C12.8422 2.55702 12.8211 2.5676 12.7999 2.57108L12.8324 2.76842ZM10.765 3.11115L12.8325 2.7684L12.7998 2.5711L10.7323 2.91385L10.765 3.11115ZM10.3171 5.01013L10.8453 3.03838L10.6521 2.98662L10.1239 4.95837L10.3171 5.01013ZM12.8649 8.09081L10.2982 4.92131L10.1427 5.04718L12.7095 8.21668L12.8649 8.09081ZM15.0492 8.05375H12.7872V8.25375H15.0492V8.05375ZM15.7083 5.90653L14.9545 8.12153L15.1439 8.18596L15.8976 5.97097L15.7083 5.90653ZM15.7344 5.85676C15.73 5.86332 15.7168 5.88192 15.7085 5.90613L15.8975 5.97138C15.8966 5.97414 15.8957 5.9756 15.8959 5.97519C15.8964 5.97429 15.8972 5.97303 15.9004 5.96838L15.7344 5.85676ZM3.4763 5.23127L3.67674 3.84102L3.47878 3.81248L3.27834 5.20273L3.4763 5.23127ZM2.09968 6.29102L3.43696 5.29727L3.31767 5.13674L1.98039 6.13049L2.09968 6.29102ZM3.50544 3.75769C2.84312 4.45123 2.31084 5.26921 1.94726 6.17344L2.13282 6.24806C2.48677 5.36779 3.00502 4.57128 3.65008 3.89582L3.50544 3.75769ZM1.8104 7.12035C1.81063 7.12023 1.81138 7.11985 1.81355 7.11887C1.81468 7.11836 1.81958 7.11619 1.82275 7.11471C1.83059 7.11108 1.84351 7.10476 1.85704 7.09454L1.73647 6.93497C1.73974 6.93249 1.7418 6.9318 1.73859 6.93329C1.73782 6.93364 1.73692 6.93405 1.73564 6.93462C1.73455 6.93511 1.73274 6.93591 1.73113 6.93664C1.72774 6.93818 1.72294 6.94039 1.71768 6.94315L1.8104 7.12035ZM1.6 9C1.6 8.3279 1.69176 7.67749 1.86052 7.05803L1.66755 7.00546C1.49427 7.64151 1.4 8.30959 1.4 9H1.6ZM2.25338 12.0344C1.83507 11.1076 1.6 10.0811 1.6 9H1.4C1.4 10.1104 1.64149 11.1649 2.07109 12.1166L2.25338 12.0344ZM2.22305 11.9882C2.2057 11.9807 2.18994 11.9789 2.18585 11.9783C2.18235 11.9779 2.1834 11.978 2.1838 11.9781C2.18492 11.9783 2.1884 11.9789 2.19301 11.9804L2.13145 12.1706C2.13954 12.1733 2.14654 12.1746 2.15122 12.1754C2.15356 12.1758 2.1556 12.1761 2.15699 12.1762C2.15768 12.1763 2.15833 12.1764 2.15878 12.1765C2.1593 12.1765 2.15957 12.1766 2.15985 12.1766C2.1611 12.1768 2.15944 12.1766 2.15691 12.1761C2.15409 12.1754 2.14944 12.1742 2.1439 12.1718L2.22305 11.9882ZM4.07116 12.7808L2.22289 11.9881L2.14405 12.1719L3.99232 12.9647L4.07116 12.7808ZM3.94974 12.8146L3.94461 12.8237L4.11887 12.9218L4.12399 12.9127L3.94974 12.8146ZM3.96758 12.7846C3.96008 12.796 3.9538 12.8073 3.9496 12.8148L4.12413 12.9125C4.12896 12.9038 4.13171 12.899 4.13447 12.8948L3.96758 12.7846ZM3.99903 12.7458C3.98505 12.7595 3.97476 12.7735 3.967 12.7855L4.13505 12.8939C4.13755 12.8901 4.13873 12.8889 4.13891 12.8887L3.99903 12.7458ZM5.92612 10.8389L3.99863 12.7462L4.13931 12.8883L6.0668 10.9811L5.92612 10.8389ZM5.89792 10.927C5.89835 10.9286 5.89829 10.9284 5.89818 10.9279C5.89803 10.9273 5.8976 10.9253 5.89725 10.9225L6.09567 10.8975C6.09434 10.887 6.09181 10.8779 6.09134 10.8761L5.89792 10.927ZM5.89282 10.899C5.89346 10.9079 5.89496 10.9151 5.89601 10.9196C5.89654 10.9218 5.89705 10.9238 5.89737 10.925C5.89801 10.9273 5.89762 10.9258 5.89797 10.9272L6.09128 10.8759C6.09111 10.8752 6.09094 10.8746 6.09083 10.8742C6.0907 10.8737 6.09064 10.8735 6.09058 10.8733C6.09047 10.8729 6.09056 10.8732 6.09071 10.8738C6.091 10.875 6.09189 10.879 6.09229 10.8845L5.89282 10.899ZM5.67065 6.66299L5.89269 10.897L6.09242 10.8865L5.87037 6.65251L5.67065 6.66299ZM3.68413 5.66536L5.72369 6.74611L5.81733 6.56939L3.77778 5.48864L3.68413 5.66536ZM1.85641 7.09501L3.79061 5.65726L3.6713 5.49674L1.7371 6.9345L1.85641 7.09501ZM3.9127 13.2566L2.55894 12.6761L2.48012 12.8599L3.83388 13.4404L3.9127 13.2566ZM4.99671 15.2335L3.96144 13.3013L3.78515 13.3957L4.82042 15.328L4.99671 15.2335ZM2.43316 12.8184C3.03146 13.8436 3.86238 14.7162 4.85385 15.3644L4.96329 15.197C3.99773 14.5658 3.18851 13.7159 2.6059 12.7176L2.43316 12.8184ZM5.80508 15.7092C5.8034 15.7036 5.80427 15.7053 5.80038 15.6895C5.79763 15.6784 5.79274 15.6607 5.78254 15.6419L5.60687 15.7376C5.60496 15.734 5.60496 15.7324 5.60621 15.7374C5.60697 15.7405 5.60738 15.7425 5.60868 15.7481C5.60975 15.7528 5.61129 15.7592 5.61338 15.7663L5.80508 15.7092ZM9 16.4C7.83564 16.4 6.7342 16.1289 5.75325 15.648L5.6652 15.8275C6.67278 16.3216 7.80426 16.6 9 16.6V16.4ZM10.2018 16.3011C9.8102 16.3652 9.40899 16.4 9 16.4V16.6C9.42035 16.6 9.83238 16.5643 10.2342 16.4984L10.2018 16.3011ZM11.5019 14.6208L10.1397 16.3376L10.2964 16.4619L11.6585 14.7452L11.5019 14.6208ZM11.474 14.715C11.4861 14.7304 11.499 14.7441 11.5122 14.7563L11.6482 14.6097C11.6416 14.6036 11.636 14.5975 11.6313 14.5915L11.474 14.715ZM11.4502 14.6806C11.4575 14.6925 11.4653 14.7039 11.4737 14.7146L11.6316 14.5919C11.628 14.5873 11.6246 14.5823 11.6213 14.5769L11.4502 14.6806ZM9.96821 12.2104L11.45 14.6802L11.6215 14.5773L10.1397 12.1076L9.96821 12.2104ZM6.40136 11.2836L10.0281 12.2556L10.0798 12.0624L6.45313 11.0904L6.40136 11.2836ZM4.49087 13.2436L6.49758 11.2581L6.35691 11.1159L4.3502 13.1014L4.49087 13.2436ZM4.41464 13.2958C4.42525 13.2898 4.46228 13.272 4.49101 13.2434L4.35005 13.1016C4.34938 13.1022 4.34746 13.104 4.34199 13.1073C4.3392 13.109 4.33595 13.1108 4.33154 13.1133C4.32776 13.1153 4.32164 13.1187 4.31632 13.1217L4.41464 13.2958ZM5.78285 15.6425L4.45362 13.1615L4.27733 13.256L5.60656 15.737L5.78285 15.6425Z" fill="#0C49CD"/>
</g>
</g>
</g>
</svg>
