<svg width="18" height="18" viewBox="0 0 18 18" fill="none" xmlns="http://www.w3.org/2000/svg">
<g id="Sport White">
<rect id="Rectangle 4 Copy 26" width="18" height="18" fill="#F4F7FB" fill-opacity="0.01"/>
<g id="football">
<g id="Football-ball">
<path fill-rule="evenodd" clip-rule="evenodd" d="M1 9C1 4.58875 4.58887 1 9 1C13.4111 1 17 4.58875 17 9C17 13.4113 13.4111 17 9 17C4.58887 17 1 13.4113 1 9ZM15.4348 8.573L16.406 10.1828C16.4673 9.79725 16.5 9.4025 16.5 9C16.5 8.16175 16.3599 7.35625 16.105 6.603L15.4348 8.573ZM14.5166 14.0745C14.4844 14.0662 14.45 14.0638 14.4146 14.0695L11.9951 14.4575C11.9897 14.428 11.981 14.3985 11.9644 14.3713L10.5889 12.0788L12.813 8.65375H14.9199C14.9255 8.68075 14.9316 8.7075 14.946 8.73175L16.2551 10.9013C15.9404 12.1025 15.334 13.187 14.5166 14.0745ZM13.9172 14.6558L11.9951 14.9637L10.9907 16.2298C12.0869 15.9275 13.0828 15.3823 13.9172 14.6558ZM4.16235 3.275C5.42651 2.20525 7.04761 1.54675 8.81934 1.5045C8.83252 1.539 8.85083 1.5715 8.87939 1.5985L10.2607 2.902L9.71436 4.941L6.15527 6.30725L6.14233 6.29575L6.13745 6.29128L6.12646 6.28209L6.1167 6.27575L3.89917 5.1005L4.16235 3.275ZM9.52563 1.5205L10.5964 2.531L12.2729 2.25325C11.4326 1.84375 10.5046 1.58875 9.52563 1.5205ZM6.48267 10.6842L6.27856 6.79575L9.91382 5.4L12.3645 8.4265L10.2439 11.6923L6.48267 10.6842ZM15.8176 5.91219L15.8262 5.899C15.2058 4.539 14.1919 3.39525 12.9294 2.61525C12.9138 2.62777 12.8972 2.63919 12.8792 2.64848C12.8599 2.65847 12.8389 2.66599 12.8162 2.66975L10.7488 3.0125L10.2205 4.98425L12.7871 8.15375H15.0493L15.803 5.93875C15.8049 5.93281 15.8079 5.92751 15.811 5.92246L15.8176 5.91219ZM3.57788 3.82675L3.3772 5.217L2.04004 6.21075C2.39868 5.3185 2.92407 4.51125 3.57788 3.82675ZM1.77539 7.02642L1.76392 7.03175C1.59302 7.6595 1.5 8.31875 1.5 9C1.5 10.0957 1.73828 11.1362 2.16235 12.0755C2.16553 12.0765 2.1687 12.0769 2.17188 12.0773C2.17554 12.0778 2.17969 12.0783 2.18359 12.08L4.03174 12.8727L4.03687 12.8638C4.0459 12.8474 4.05518 12.831 4.06909 12.8172L5.99658 10.91C5.99634 10.907 5.99536 10.9042 5.99463 10.9013C5.99365 10.8982 5.99268 10.895 5.99243 10.8918L5.77051 6.65775L3.73096 5.577L1.79663 7.01475C1.79004 7.01987 1.78271 7.02313 1.77539 7.02642ZM2.51953 12.768L3.87329 13.3485L4.90845 15.2807C3.92993 14.641 3.11011 13.7797 2.51953 12.768ZM5.69482 15.6898C5.70288 15.705 5.70459 15.7217 5.70923 15.7378C6.70337 16.2253 7.82007 16.5 9 16.5C9.41479 16.5 9.82129 16.4647 10.218 16.3997L11.5803 14.683C11.5713 14.6746 11.563 14.6657 11.5552 14.6561C11.5481 14.6476 11.5415 14.6385 11.5356 14.6287L10.054 12.159L6.42725 11.187L4.42041 13.1725C4.41187 13.181 4.40259 13.1876 4.39282 13.1935L4.36548 13.2088L5.69482 15.6898Z" fill="white"/>
<path d="M16.406 10.1828L16.3204 10.2344L16.4618 10.4688L16.5048 10.1984L16.406 10.1828ZM15.4348 8.573L15.3401 8.5408L15.3252 8.58483L15.3492 8.62466L15.4348 8.573ZM16.105 6.603L16.1997 6.57095L16.1052 6.29176L16.0103 6.57079L16.105 6.603ZM14.4146 14.0695L14.4304 14.1682L14.4306 14.1682L14.4146 14.0695ZM14.5166 14.0745L14.4918 14.1714L14.5497 14.1862L14.5902 14.1422L14.5166 14.0745ZM11.9951 14.4575L11.8967 14.4754L11.9143 14.5717L12.011 14.5562L11.9951 14.4575ZM11.9644 14.3713L11.8786 14.4227L11.879 14.4233L11.9644 14.3713ZM10.5889 12.0788L10.505 12.0243L10.471 12.0767L10.5031 12.1302L10.5889 12.0788ZM12.813 8.65375V8.55375H12.7587L12.7291 8.59929L12.813 8.65375ZM14.9199 8.65375L15.0178 8.63339L15.0013 8.55375H14.9199V8.65375ZM14.946 8.73175L14.8601 8.78282L14.8604 8.78341L14.946 8.73175ZM16.2551 10.9013L16.3519 10.9266L16.3626 10.8857L16.3407 10.8496L16.2551 10.9013ZM11.9951 14.9637L11.9793 14.865L11.9409 14.8712L11.9168 14.9016L11.9951 14.9637ZM13.9172 14.6558L13.9829 14.7312L14.2464 14.5017L13.9014 14.557L13.9172 14.6558ZM10.9907 16.2298L10.9124 16.1676L10.722 16.4076L11.0173 16.3262L10.9907 16.2298ZM8.81934 1.5045L8.91275 1.46881L8.88754 1.40285L8.81695 1.40453L8.81934 1.5045ZM4.16235 3.275L4.09776 3.19867L4.06879 3.22318L4.06338 3.26073L4.16235 3.275ZM8.87939 1.5985L8.8107 1.67118L8.81076 1.67123L8.87939 1.5985ZM10.2607 2.902L10.3573 2.92788L10.3728 2.87023L10.3294 2.82927L10.2607 2.902ZM9.71436 4.941L9.75019 5.03436L9.79776 5.0161L9.81095 4.96689L9.71436 4.941ZM6.15527 6.30725L6.08884 6.38199L6.13431 6.42241L6.19111 6.40061L6.15527 6.30725ZM6.14233 6.29575L6.07476 6.36948L6.0759 6.37049L6.14233 6.29575ZM6.13745 6.29128L6.20508 6.21747L6.2016 6.21456L6.13745 6.29128ZM6.12646 6.28209L6.19108 6.20481L6.18092 6.19822L6.12646 6.28209ZM6.1167 6.27575L6.17137 6.19155L6.16353 6.18739L6.1167 6.27575ZM3.89917 5.1005L3.80019 5.08623L3.79015 5.1559L3.85234 5.18886L3.89917 5.1005ZM10.5964 2.531L10.5278 2.60373L10.5639 2.63776L10.6128 2.62965L10.5964 2.531ZM9.52563 1.5205L9.53259 1.42074L9.25361 1.40129L9.457 1.59323L9.52563 1.5205ZM12.2729 2.25325L12.2893 2.35191L12.5985 2.30067L12.3168 2.16336L12.2729 2.25325ZM6.27856 6.79575L6.24272 6.7024L6.17489 6.72844L6.1787 6.801L6.27856 6.79575ZM6.48267 10.6842L6.3828 10.6895L6.38661 10.762L6.45678 10.7808L6.48267 10.6842ZM9.91382 5.4L9.99153 5.33707L9.94581 5.2806L9.87797 5.30665L9.91382 5.4ZM12.3645 8.4265L12.4484 8.48096L12.4879 8.42003L12.4422 8.36357L12.3645 8.4265ZM10.2439 11.6923L10.218 11.7888L10.2882 11.8077L10.3278 11.7467L10.2439 11.6923ZM15.8262 5.899L15.9101 5.95337L15.9399 5.90736L15.9172 5.8575L15.8262 5.899ZM15.8176 5.91219L15.7337 5.85782L15.7335 5.85817L15.8176 5.91219ZM12.9294 2.61525L12.982 2.53018L12.922 2.49308L12.8669 2.53722L12.9294 2.61525ZM12.8792 2.64848L12.8334 2.55954L12.8331 2.55969L12.8792 2.64848ZM12.8162 2.66975L12.7998 2.57109L12.7998 2.5711L12.8162 2.66975ZM10.7488 3.0125L10.7324 2.91385L10.6689 2.92439L10.6522 2.98662L10.7488 3.0125ZM10.2205 4.98425L10.1239 4.95837L10.1107 5.00758L10.1427 5.04718L10.2205 4.98425ZM12.7871 8.15375L12.7094 8.21668L12.7394 8.25375H12.7871V8.15375ZM15.0493 8.15375V8.25375H15.1209L15.144 8.18596L15.0493 8.15375ZM15.803 5.93875L15.8977 5.97096L15.898 5.96997L15.803 5.93875ZM15.811 5.92246L15.7269 5.86844L15.7264 5.86925L15.811 5.92246ZM3.3772 5.217L3.43685 5.29727L3.47023 5.27246L3.47617 5.23129L3.3772 5.217ZM3.57788 3.82675L3.67686 3.84104L3.72152 3.53159L3.50557 3.75768L3.57788 3.82675ZM2.04004 6.21075L1.94725 6.17346L1.81494 6.50263L2.09969 6.29101L2.04004 6.21075ZM1.76392 7.03175L1.72177 6.94107L1.67963 6.96065L1.66743 7.00548L1.76392 7.03175ZM1.77539 7.02642L1.73447 6.93516L1.73324 6.93573L1.77539 7.02642ZM2.16235 12.0755L2.07121 12.1167L2.08958 12.1573L2.13211 12.1708L2.16235 12.0755ZM2.17188 12.0773L2.1856 11.9783L2.18463 11.9781L2.17188 12.0773ZM2.18359 12.08L2.22301 11.9881L2.22262 11.9879L2.18359 12.08ZM4.03174 12.8727L3.99232 12.9647L4.07441 12.9999L4.11863 12.9223L4.03174 12.8727ZM4.03687 12.8638L4.12376 12.9133L4.12442 12.9121L4.03687 12.8638ZM4.06909 12.8172L4.13932 12.8884L4.13943 12.8883L4.06909 12.8172ZM5.99658 10.91L6.06692 10.9811L6.10007 10.9483L6.09625 10.9018L5.99658 10.91ZM5.99463 10.9013L6.09161 10.8764L6.09015 10.8717L5.99463 10.9013ZM5.99243 10.8918L5.89254 10.897L5.89271 10.8992L5.99243 10.8918ZM5.77051 6.65775L5.87037 6.65251L5.8674 6.59592L5.81733 6.56939L5.77051 6.65775ZM3.73096 5.577L3.77778 5.48864L3.72198 5.45907L3.6713 5.49674L3.73096 5.577ZM1.79663 7.01475L1.73696 6.93448L1.73529 6.93577L1.79663 7.01475ZM3.87329 13.3485L3.96144 13.3013L3.9449 13.2704L3.9127 13.2566L3.87329 13.3485ZM2.51953 12.768L2.55894 12.6761L2.28037 12.5566L2.43317 12.8184L2.51953 12.768ZM4.90845 15.2807L4.85373 15.3644L4.99659 15.2335L4.90845 15.2807ZM5.70923 15.7378L5.61318 15.7656L5.62549 15.8081L5.6652 15.8275L5.70923 15.7378ZM5.69482 15.6898L5.78325 15.643L5.78297 15.6425L5.69482 15.6898ZM10.218 16.3997L10.2342 16.4984L10.2723 16.4922L10.2964 16.4619L10.218 16.3997ZM11.5803 14.683L11.6587 14.7452L11.7163 14.6725L11.6482 14.6096L11.5803 14.683ZM11.5552 14.6561L11.6329 14.5931L11.6321 14.5922L11.5552 14.6561ZM11.5356 14.6287L11.4499 14.6802L11.45 14.6803L11.5356 14.6287ZM10.054 12.159L10.1397 12.1076L10.1189 12.0729L10.0798 12.0624L10.054 12.159ZM6.42725 11.187L6.45313 11.0904L6.39771 11.0756L6.35691 11.1159L6.42725 11.187ZM4.42041 13.1725L4.35008 13.1014L4.34991 13.1016L4.42041 13.1725ZM4.39282 13.1935L4.44165 13.2808L4.44442 13.2791L4.39282 13.1935ZM4.36548 13.2088L4.31667 13.1215L4.23095 13.1694L4.27733 13.256L4.36548 13.2088ZM9 0.9C4.53364 0.9 0.9 4.53352 0.9 9H1.1C1.1 4.64398 4.64409 1.1 9 1.1V0.9ZM17.1 9C17.1 4.53352 13.4664 0.9 9 0.9V1.1C13.3559 1.1 16.9 4.64398 16.9 9H17.1ZM9 17.1C13.4664 17.1 17.1 13.4665 17.1 9H16.9C16.9 13.356 13.3559 16.9 9 16.9V17.1ZM0.9 9C0.9 13.4665 4.53364 17.1 9 17.1V16.9C4.64409 16.9 1.1 13.356 1.1 9H0.9ZM16.4916 10.1311L15.5204 8.52134L15.3492 8.62466L16.3204 10.2344L16.4916 10.1311ZM16.4 9C16.4 9.39707 16.3677 9.78656 16.3072 10.1671L16.5048 10.1984C16.5668 9.80793 16.6 9.40793 16.6 9H16.4ZM16.0103 6.63505C16.2618 7.37829 16.4 8.17298 16.4 9H16.6C16.6 8.15052 16.458 7.33421 16.1997 6.57095L16.0103 6.63505ZM15.5295 8.60521L16.1997 6.63521L16.0103 6.57079L15.3401 8.5408L15.5295 8.60521ZM14.4306 14.1682C14.4511 14.1649 14.4716 14.1662 14.4918 14.1714L14.5414 13.9776C14.4972 13.9663 14.4488 13.9626 14.3985 13.9708L14.4306 14.1682ZM12.011 14.5562L14.4304 14.1682L14.3987 13.9708L11.9793 14.3588L12.011 14.5562ZM11.879 14.4233C11.887 14.4364 11.8926 14.453 11.8967 14.4754L12.0935 14.4396C12.0868 14.403 12.0749 14.3606 12.0498 14.3192L11.879 14.4233ZM10.5031 12.1302L11.8786 14.4227L12.0501 14.3198L10.6746 12.0273L10.5031 12.1302ZM12.7291 8.59929L10.505 12.0243L10.6727 12.1332L12.8969 8.70821L12.7291 8.59929ZM14.9199 8.55375H12.813V8.75375H14.9199V8.55375ZM15.032 8.68068C15.0272 8.6725 15.0236 8.66115 15.0178 8.63339L14.822 8.67411C14.8275 8.70035 14.8361 8.7425 14.8601 8.78282L15.032 8.68068ZM16.3407 10.8496L15.0317 8.68009L14.8604 8.78341L16.1695 10.9529L16.3407 10.8496ZM14.5902 14.1422C15.4183 13.243 16.0329 12.1441 16.3519 10.9266L16.1584 10.8759C15.8479 12.0609 15.2496 13.131 14.443 14.0068L14.5902 14.1422ZM12.0109 15.0625L13.9331 14.7545L13.9014 14.557L11.9793 14.865L12.0109 15.0625ZM11.0691 16.2919L12.0735 15.0259L11.9168 14.9016L10.9124 16.1676L11.0691 16.2919ZM13.8516 14.5803C13.0281 15.2972 12.0455 15.8352 10.9641 16.1333L11.0173 16.3262C12.1283 16.0198 13.1374 15.4673 13.9829 14.7312L13.8516 14.5803ZM8.81695 1.40453C7.02154 1.44735 5.37868 2.11472 4.09776 3.19867L4.22695 3.35134C5.47434 2.29577 7.07367 1.64616 8.82172 1.60447L8.81695 1.40453ZM8.94809 1.52583C8.93361 1.51215 8.92239 1.49404 8.91275 1.46881L8.72592 1.5402C8.74265 1.58396 8.76805 1.63086 8.8107 1.67118L8.94809 1.52583ZM10.3294 2.82927L8.94803 1.52577L8.81076 1.67123L10.1921 2.97473L10.3294 2.82927ZM9.81095 4.96689L10.3573 2.92788L10.1642 2.87612L9.61776 4.91512L9.81095 4.96689ZM6.19111 6.40061L9.75019 5.03436L9.67852 4.84764L6.11944 6.21389L6.19111 6.40061ZM6.0759 6.37049L6.08884 6.38199L6.22171 6.23251L6.20877 6.22101L6.0759 6.37049ZM6.06989 6.365L6.07477 6.36947L6.2099 6.22202L6.20501 6.21755L6.06989 6.365ZM6.06232 6.35881L6.07331 6.36799L6.2016 6.21456L6.19061 6.20537L6.06232 6.35881ZM6.06225 6.35962L6.07201 6.36596L6.18092 6.19822L6.17115 6.19187L6.06225 6.35962ZM3.85234 5.18886L6.06987 6.36411L6.16353 6.18739L3.946 5.01214L3.85234 5.18886ZM4.06338 3.26073L3.80019 5.08623L3.99815 5.11477L4.26133 3.28927L4.06338 3.26073ZM10.6651 2.45827L9.59427 1.44777L9.457 1.59323L10.5278 2.60373L10.6651 2.45827ZM12.2566 2.15459L10.5801 2.43234L10.6128 2.62965L12.2893 2.35191L12.2566 2.15459ZM9.51868 1.62026C10.4847 1.6876 11.4002 1.93921 12.2291 2.34314L12.3168 2.16336C11.465 1.74829 10.5245 1.48989 9.53259 1.42074L9.51868 1.62026ZM6.1787 6.801L6.3828 10.6895L6.58253 10.679L6.37843 6.79051L6.1787 6.801ZM9.87797 5.30665L6.24272 6.7024L6.31441 6.88911L9.94966 5.49336L9.87797 5.30665ZM12.4422 8.36357L9.99153 5.33707L9.8361 5.46293L12.2868 8.48943L12.4422 8.36357ZM10.3278 11.7467L12.4484 8.48096L12.2806 8.37204L10.16 11.6378L10.3278 11.7467ZM6.45678 10.7808L10.218 11.7888L10.2698 11.5957L6.50855 10.5877L6.45678 10.7808ZM15.7422 5.84463L15.7337 5.85782L15.9016 5.96656L15.9101 5.95337L15.7422 5.84463ZM12.8769 2.70032C14.1226 3.46998 15.1231 4.59861 15.7352 5.9405L15.9172 5.8575C15.2885 4.47939 14.2612 3.32052 12.982 2.53018L12.8769 2.70032ZM12.9249 2.73742C12.9504 2.72431 12.9726 2.7088 12.992 2.69328L12.8669 2.53722C12.855 2.54675 12.8441 2.55408 12.8334 2.55954L12.9249 2.73742ZM12.8325 2.76841C12.8667 2.76274 12.8977 2.7515 12.9252 2.73727L12.8331 2.55969C12.822 2.56545 12.811 2.56924 12.7998 2.57109L12.8325 2.76841ZM10.7651 3.11115L12.8325 2.7684L12.7998 2.5711L10.7324 2.91385L10.7651 3.11115ZM10.3171 5.01013L10.8454 3.03838L10.6522 2.98662L10.1239 4.95837L10.3171 5.01013ZM12.8648 8.09082L10.2982 4.92132L10.1427 5.04718L12.7094 8.21668L12.8648 8.09082ZM15.0493 8.05375H12.7871V8.25375H15.0493V8.05375ZM15.7083 5.90654L14.9546 8.12154L15.144 8.18596L15.8976 5.97096L15.7083 5.90654ZM15.7264 5.86925C15.7214 5.87715 15.7136 5.89037 15.708 5.90753L15.898 5.96997C15.8962 5.97524 15.8943 5.97787 15.8957 5.97567L15.7264 5.86925ZM15.7335 5.85817L15.7269 5.86844L15.8952 5.97648L15.9018 5.96621L15.7335 5.85817ZM3.47617 5.23129L3.67686 3.84104L3.47891 3.81246L3.27822 5.20272L3.47617 5.23129ZM2.09969 6.29101L3.43685 5.29727L3.31755 5.13674L1.98039 6.13049L2.09969 6.29101ZM3.50557 3.75768C2.84313 4.45122 2.31072 5.26921 1.94725 6.17346L2.13282 6.24805C2.48664 5.36779 3.00502 4.57129 3.65019 3.89582L3.50557 3.75768ZM1.80606 7.12243L1.81754 7.1171L1.73324 6.93573L1.72177 6.94107L1.80606 7.12243ZM1.6 9C1.6 8.3279 1.69176 7.67748 1.8604 7.05802L1.66743 7.00548C1.49427 7.64152 1.4 8.30959 1.4 9H1.6ZM2.25349 12.0344C1.83507 11.1076 1.6 10.0811 1.6 9H1.4C1.4 10.1104 1.64149 11.1649 2.07121 12.1167L2.25349 12.0344ZM2.18463 11.9781C2.18267 11.9779 2.18337 11.978 2.18443 11.9781C2.18579 11.9784 2.18877 11.979 2.1926 11.9802L2.13211 12.1708C2.1452 12.175 2.1572 12.1763 2.15912 12.1765L2.18463 11.9781ZM2.22262 11.9879C2.20418 11.9801 2.18594 11.9783 2.1856 11.9783L2.15815 12.1764C2.1612 12.1768 2.15964 12.1766 2.15796 12.1763C2.15578 12.1758 2.1508 12.1747 2.14457 12.1721L2.22262 11.9879ZM4.07116 12.7808L2.22301 11.9881L2.14417 12.1719L3.99232 12.9647L4.07116 12.7808ZM3.94998 12.8142L3.94485 12.8232L4.11863 12.9223L4.12375 12.9133L3.94998 12.8142ZM3.99886 12.7461C3.97327 12.7713 3.95782 12.8 3.94931 12.8154L4.12442 12.9121C4.129 12.9038 4.13186 12.8988 4.13462 12.8946C4.13714 12.8908 4.13864 12.8891 4.13932 12.8884L3.99886 12.7461ZM5.92625 10.8389L3.99876 12.7462L4.13943 12.8883L6.06692 10.9811L5.92625 10.8389ZM5.89777 10.9262C5.89824 10.928 5.89871 10.9297 5.89884 10.9302C5.89907 10.931 5.89899 10.9307 5.89887 10.9302C5.89863 10.9293 5.89745 10.9247 5.89692 10.9182L6.09625 10.9018C6.09547 10.8924 6.09368 10.8848 6.09271 10.881C6.09222 10.8791 6.09174 10.8774 6.09157 10.8767C6.09131 10.8758 6.09139 10.8761 6.09149 10.8765L5.89777 10.9262ZM5.89271 10.8992C5.89394 10.9157 5.89875 10.9298 5.89911 10.9309L6.09015 10.8717C6.0895 10.8696 6.08988 10.8708 6.09028 10.8724C6.09076 10.8743 6.09173 10.8786 6.09216 10.8843L5.89271 10.8992ZM5.67064 6.66298L5.89257 10.897L6.09229 10.8865L5.87037 6.65251L5.67064 6.66298ZM3.68413 5.66536L5.72369 6.74611L5.81733 6.56939L3.77778 5.48864L3.68413 5.66536ZM1.85629 7.09501L3.79061 5.65726L3.6713 5.49674L1.73698 6.93449L1.85629 7.09501ZM1.81631 7.11766C1.82183 7.11519 1.84035 7.10742 1.85797 7.09373L1.73529 6.93577C1.73667 6.9347 1.73784 6.93392 1.73867 6.9334C1.73948 6.9329 1.73997 6.93264 1.73997 6.93264C1.73998 6.93264 1.73988 6.93269 1.73966 6.9328C1.73943 6.93291 1.73911 6.93307 1.73865 6.93328C1.73761 6.93377 1.73647 6.93427 1.73447 6.93517L1.81631 7.11766ZM3.9127 13.2566L2.55894 12.6761L2.48012 12.8599L3.83388 13.4404L3.9127 13.2566ZM4.99659 15.2335L3.96144 13.3013L3.78514 13.3957L4.8203 15.328L4.99659 15.2335ZM2.43317 12.8184C3.03158 13.8436 3.86225 14.7162 4.85373 15.3644L4.96317 15.197C3.99761 14.5658 3.18863 13.7159 2.60589 12.7176L2.43317 12.8184ZM5.80527 15.7099C5.80339 15.7034 5.80429 15.7051 5.80035 15.6893C5.79761 15.6783 5.79285 15.6612 5.78325 15.643L5.6064 15.7365C5.60486 15.7335 5.60498 15.7324 5.60627 15.7376C5.60701 15.7406 5.6075 15.7429 5.60872 15.7482C5.60976 15.7527 5.61123 15.7589 5.61318 15.7656L5.80527 15.7099ZM9 16.4C7.83576 16.4 6.73408 16.1289 5.75326 15.648L5.6652 15.8275C6.67266 16.3216 7.80438 16.6 9 16.6V16.4ZM10.2018 16.3011C9.8102 16.3652 9.40911 16.4 9 16.4V16.6C9.42048 16.6 9.83238 16.5643 10.2342 16.4984L10.2018 16.3011ZM11.502 14.6208L10.1397 16.3376L10.2964 16.4619L11.6587 14.7452L11.502 14.6208ZM11.4775 14.7191C11.4882 14.7322 11.4997 14.7446 11.5124 14.7564L11.6482 14.6096C11.6429 14.6046 11.6378 14.5992 11.6329 14.5931L11.4775 14.7191ZM11.45 14.6803C11.4587 14.6949 11.4684 14.7081 11.4783 14.72L11.6321 14.5922C11.6278 14.587 11.6243 14.5821 11.6213 14.5772L11.45 14.6803ZM9.9682 12.2104L11.4499 14.6802L11.6214 14.5773L10.1397 12.1076L9.9682 12.2104ZM6.40136 11.2836L10.0281 12.2556L10.0798 12.0624L6.45313 11.0904L6.40136 11.2836ZM4.49074 13.2436L6.49758 11.2581L6.35691 11.1159L4.35008 13.1014L4.49074 13.2436ZM4.44442 13.2791C4.45848 13.2707 4.47489 13.2594 4.49091 13.2434L4.34991 13.1016C4.34884 13.1026 4.34669 13.1045 4.34123 13.1078L4.44442 13.2791ZM4.41428 13.296L4.44163 13.2807L4.34402 13.1062L4.31667 13.1215L4.41428 13.296ZM5.78297 15.6425L4.45362 13.1615L4.27733 13.256L5.60668 15.737L5.78297 15.6425Z" fill="white"/>
</g>
</g>
</g>
</svg>
