<?xml version="1.0" encoding="UTF-8" standalone="no"?>
<svg width="72px" height="72px" viewBox="0 0 72 72" version="1.1" xmlns="http://www.w3.org/2000/svg" xmlns:xlink="http://www.w3.org/1999/xlink">
    <!-- Generator: Sketch 50.2 (55047) - http://www.bohemiancoding.com/sketch -->
    <title>4_1</title>
    <desc>Created with Sketch.</desc>
    <defs>
        <path d="M36,66.5454545 C52.8697887,66.5454545 66.5454545,52.8697887 66.5454545,36 C66.5454545,19.1302113 52.8697887,5.45454545 36,5.45454545 C19.1302113,5.45454545 5.45454545,19.1302113 5.45454545,36 C5.45454545,52.8697887 19.1302113,66.5454545 36,66.5454545 Z M36,72 C16.117749,72 0,55.882251 0,36 C0,16.117749 16.117749,0 36,0 C55.882251,0 72,16.117749 72,36 C72,55.882251 55.882251,72 36,72 Z" id="path-1"></path>
    </defs>
    <g id="4_1" stroke="none" stroke-width="1" fill="none" fill-rule="evenodd">
        <mask id="mask-2" fill="white">
            <use xlink:href="#path-1"></use>
        </mask>
        <use id="Mask" fill="#F4F7FB" fill-rule="nonzero" xlink:href="#path-1"></use>
        <polygon id="Combined-Shape" fill="#7CBF04" mask="url(#mask-2)" points="37.8947368 -3.78947368 87.1578947 -3.78947368 87.1578947 77.6842105 -8.57470703 77.6842105 -8.57470703 -3.78947368 37.8947368 38.8421053"></polygon>
    </g>
</svg>