<svg width="18" height="18" viewBox="0 0 18 18" fill="none" xmlns="http://www.w3.org/2000/svg">
<g id="Transport White">
<rect id="Rectangle 4 Copy 27" width="18" height="18" fill="#F4F7FB" fill-opacity="0.01"/>
<g id="car">
<g id="Shape">
<path fill-rule="evenodd" clip-rule="evenodd" d="M16.6562 10.4349C16.6562 10.5347 16.6926 10.6278 16.7559 10.6904C16.9111 10.8436 17 11.0565 17 11.2745V11.7346C17 12.3809 16.4744 12.9065 15.8281 12.9065H15.4692C15.3535 13.8301 14.564 14.5471 13.6094 14.5471C12.655 14.5471 11.8652 13.8301 11.7495 12.9065H5.67236C5.55664 13.8301 4.76709 14.5471 3.8125 14.5471C2.85059 14.5471 2.05615 13.8191 1.94995 12.8851C1.40967 12.7811 1 12.3049 1 11.7346V10.0668C1 9.1698 1.56738 8.28284 2.65283 8.00635L2.65308 8.00623L3.53467 7.78174L5.12988 5.04651C5.50635 4.401 6.20459 4 6.95215 4H11.5C12.1604 4 12.7913 4.31543 13.1875 4.84387L15.3672 7.75024H16.3489C16.572 7.75024 16.7769 7.86243 16.897 8.05042C17.0171 8.2384 17.0332 8.47156 16.9395 8.67407L16.6562 9.28613V10.4349ZM2.47656 9.12927V8.55334C1.94458 8.77527 1.56787 9.2616 1.48584 9.8324H1.77344C2.16113 9.8324 2.47656 9.51709 2.47656 9.12927ZM3.8125 14.0784C3.03711 14.0784 2.40625 13.4475 2.40625 12.6721C2.40625 11.8967 3.03711 11.2659 3.8125 11.2659C4.58789 11.2659 5.21875 11.8967 5.21875 12.6721C5.21875 13.4475 4.58789 14.0784 3.8125 14.0784ZM12.2031 12.6721C12.2031 13.4475 12.834 14.0784 13.6094 14.0784C14.3848 14.0784 15.0156 13.4475 15.0156 12.6721C15.0156 11.8967 14.3848 11.2659 13.6094 11.2659C12.834 11.2659 12.2031 11.8967 12.2031 12.6721ZM16.5312 11.7346C16.5312 12.1223 16.2158 12.4377 15.8281 12.4377H15.4692C15.3535 11.5142 14.564 10.7971 13.6094 10.7971C12.6548 10.7971 11.8652 11.5142 11.7495 12.4377H5.67236C5.55664 11.5142 4.76709 10.7971 3.8125 10.7971C2.86963 10.7971 2.0874 11.4967 1.95703 12.4041C1.67407 12.313 1.46875 12.0474 1.46875 11.7346V10.3011H1.77344C2.41968 10.3011 2.94531 9.77551 2.94531 9.12927V8.41553L3.74536 8.21179C3.8064 8.19617 3.8584 8.15698 3.89014 8.10266L5.53467 5.28271C5.82764 4.78064 6.37061 4.46875 6.95215 4.46875H11.5C12.0137 4.46875 12.5044 4.71411 12.8125 5.125L15.0625 8.12524C15.1069 8.1842 15.1763 8.21899 15.25 8.21899H16.3489C16.4817 8.21899 16.5698 8.35669 16.5139 8.47717L16.4165 8.68774H15.4844C15.355 8.68774 15.25 8.7926 15.25 8.92212V9.85962C15.25 9.98901 15.355 10.094 15.4844 10.094H16.1875V10.4349C16.1875 10.6591 16.2747 10.8738 16.4265 11.0238C16.4929 11.0896 16.5312 11.1809 16.5312 11.2745V11.7346ZM16.1875 9.62524V9.15649H15.7188V9.62524H16.1875Z" fill="white"/>
<path d="M16.7559 10.6904L16.6855 10.7615L16.6856 10.7616L16.7559 10.6904ZM15.4692 12.9065V12.8065H15.381L15.37 12.8941L15.4692 12.9065ZM11.7495 12.9065L11.8487 12.8941L11.8378 12.8065H11.7495V12.9065ZM5.67236 12.9065V12.8065H5.58411L5.57314 12.8941L5.67236 12.9065ZM1.94995 12.8851L2.04931 12.8738L2.04101 12.8008L1.96885 12.7869L1.94995 12.8851ZM2.65283 8.00635L2.67752 8.10325L2.68794 8.1006L2.69755 8.09579L2.65283 8.00635ZM2.65308 8.00623L2.6284 7.90932L2.61798 7.91197L2.60835 7.91678L2.65308 8.00623ZM3.53467 7.78174L3.55934 7.87865L3.59994 7.86831L3.62105 7.83212L3.53467 7.78174ZM5.12988 5.04651L5.21627 5.09689L5.21627 5.09689L5.12988 5.04651ZM13.1875 4.84387L13.1075 4.90386L13.1075 4.90387L13.1875 4.84387ZM15.3672 7.75024L15.2872 7.81024L15.3172 7.85024H15.3672V7.75024ZM16.9395 8.67407L16.8487 8.63206L16.8487 8.63208L16.9395 8.67407ZM16.6562 9.28613L16.5655 9.24414L16.5562 9.26412V9.28613H16.6562ZM2.47656 8.55334H2.57656V8.40328L2.43806 8.46105L2.47656 8.55334ZM1.48584 9.8324L1.38686 9.81817L1.37044 9.9324H1.48584V9.8324ZM15.4692 12.4377L15.37 12.4502L15.381 12.5377H15.4692V12.4377ZM11.7495 12.4377V12.5377H11.8378L11.8487 12.4502L11.7495 12.4377ZM5.67236 12.4377L5.57314 12.4502L5.58411 12.5377H5.67236V12.4377ZM1.95703 12.4041L1.9264 12.4992L2.03917 12.5355L2.05601 12.4183L1.95703 12.4041ZM1.46875 10.3011V10.2011H1.36875V10.3011H1.46875ZM2.94531 8.41553L2.92063 8.31862L2.84531 8.3378V8.41553H2.94531ZM3.74536 8.21179L3.77004 8.3087L3.77016 8.30867L3.74536 8.21179ZM3.89014 8.10266L3.97648 8.15311L3.97652 8.15304L3.89014 8.10266ZM5.53467 5.28271L5.4483 5.23232L5.44828 5.23234L5.53467 5.28271ZM12.8125 5.125L12.7325 5.18499L12.7325 5.185L12.8125 5.125ZM15.0625 8.12524L14.9825 8.18524L14.9826 8.18543L15.0625 8.12524ZM16.5139 8.47717L16.4232 8.43508L16.4232 8.43519L16.5139 8.47717ZM16.4165 8.68774V8.78774H16.4804L16.5073 8.72973L16.4165 8.68774ZM16.1875 10.094H16.2875V9.99399H16.1875V10.094ZM16.4265 11.0238L16.4969 10.9528L16.4968 10.9527L16.4265 11.0238ZM16.1875 9.15649H16.2875V9.05649H16.1875V9.15649ZM16.1875 9.62524V9.72524H16.2875V9.62524H16.1875ZM15.7188 9.15649V9.05649H15.6187V9.15649H15.7188ZM15.7188 9.62524H15.6187V9.72524H15.7188V9.62524ZM16.8262 10.6194C16.7843 10.5778 16.7563 10.5114 16.7563 10.4349H16.5562C16.5562 10.5579 16.601 10.6778 16.6855 10.7615L16.8262 10.6194ZM17.1 11.2745C17.1 11.0298 17.0004 10.7913 16.8261 10.6192L16.6856 10.7616C16.8218 10.896 16.9 11.0832 16.9 11.2745H17.1ZM17.1 11.7346V11.2745H16.9V11.7346H17.1ZM15.8281 13.0065C16.5296 13.0065 17.1 12.4361 17.1 11.7346H16.9C16.9 12.3256 16.4191 12.8065 15.8281 12.8065V13.0065ZM15.4692 13.0065H15.8281V12.8065H15.4692V13.0065ZM13.6094 14.6471C14.6151 14.6471 15.4466 13.8918 15.5685 12.9189L15.37 12.8941C15.2605 13.7683 14.5128 14.4471 13.6094 14.4471V14.6471ZM11.6503 12.9189C11.7722 13.8918 12.6039 14.6471 13.6094 14.6471V14.4471C12.7062 14.4471 11.9583 13.7683 11.8487 12.8941L11.6503 12.9189ZM5.67236 13.0065H11.7495V12.8065H5.67236V13.0065ZM3.8125 14.6471C4.81824 14.6471 5.64969 13.8918 5.77159 12.9189L5.57314 12.8941C5.46359 13.7683 4.71594 14.4471 3.8125 14.4471V14.6471ZM1.85059 12.8964C1.96246 13.8803 2.79906 14.6471 3.8125 14.6471V14.4471C2.90211 14.4471 2.14984 13.7579 2.04931 12.8738L1.85059 12.8964ZM0.9 11.7346C0.9 12.3539 1.34469 12.8705 1.93105 12.9833L1.96885 12.7869C1.47464 12.6918 1.1 12.256 1.1 11.7346H0.9ZM0.9 10.0668V11.7346H1.1V10.0668H0.9ZM2.62815 7.90944C1.49595 8.19784 0.9 9.12665 0.9 10.0668H1.1C1.1 9.21295 1.63882 8.36783 2.67752 8.10325L2.62815 7.90944ZM2.60835 7.91678L2.60811 7.9169L2.69755 8.09579L2.6978 8.09567L2.60835 7.91678ZM3.50999 7.68483L2.6284 7.90932L2.67775 8.10313L3.55934 7.87865L3.50999 7.68483ZM5.0435 4.99613L3.44829 7.73136L3.62105 7.83212L5.21627 5.09689L5.0435 4.99613ZM6.95215 3.9C6.16904 3.9 5.43789 4.31988 5.0435 4.99613L5.21627 5.09689C5.5748 4.48212 6.24014 4.1 6.95215 4.1V3.9ZM11.5 3.9H6.95215V4.1H11.5V3.9ZM13.2675 4.78388C12.8524 4.23025 12.1919 3.9 11.5 3.9V4.1C12.1289 4.1 12.7301 4.40061 13.1075 4.90386L13.2675 4.78388ZM15.4472 7.69025L13.2675 4.78387L13.1075 4.90387L15.2872 7.81024L15.4472 7.69025ZM16.3489 7.65024H15.3672V7.85024H16.3489V7.65024ZM16.9812 7.99657C16.8427 7.77982 16.6061 7.65024 16.3489 7.65024V7.85024C16.5379 7.85024 16.711 7.94503 16.8127 8.10426L16.9812 7.99657ZM17.0302 8.71608C17.1383 8.4825 17.1197 8.21321 16.9812 7.99657L16.8127 8.10426C16.9145 8.26359 16.9281 8.46062 16.8487 8.63206L17.0302 8.71608ZM16.747 9.32813L17.0302 8.71607L16.8487 8.63208L16.5655 9.24414L16.747 9.32813ZM16.7563 10.4349V9.28613H16.5562V10.4349H16.7563ZM2.37656 8.55334V9.12927H2.57656V8.55334H2.37656ZM1.58482 9.84662C1.66185 9.31066 2.0156 8.854 2.51506 8.64564L2.43806 8.46105C1.87356 8.69654 1.47389 9.21253 1.38686 9.81817L1.58482 9.84662ZM1.77344 9.7324H1.48584V9.9324H1.77344V9.7324ZM2.37656 9.12927C2.37656 9.46185 2.10592 9.7324 1.77344 9.7324V9.9324C2.21635 9.9324 2.57656 9.57233 2.57656 9.12927H2.37656ZM2.30625 12.6721C2.30625 13.5027 2.98188 14.1784 3.8125 14.1784V13.9784C3.09234 13.9784 2.50625 13.3923 2.50625 12.6721H2.30625ZM3.8125 11.1659C2.98188 11.1659 2.30625 11.8415 2.30625 12.6721H2.50625C2.50625 11.952 3.09234 11.3659 3.8125 11.3659V11.1659ZM5.31875 12.6721C5.31875 11.8415 4.64312 11.1659 3.8125 11.1659V11.3659C4.53266 11.3659 5.11875 11.952 5.11875 12.6721H5.31875ZM3.8125 14.1784C4.64312 14.1784 5.31875 13.5027 5.31875 12.6721H5.11875C5.11875 13.3923 4.53266 13.9784 3.8125 13.9784V14.1784ZM13.6094 13.9784C12.8892 13.9784 12.3031 13.3923 12.3031 12.6721H12.1031C12.1031 13.5027 12.7788 14.1784 13.6094 14.1784V13.9784ZM14.9156 12.6721C14.9156 13.3923 14.3295 13.9784 13.6094 13.9784V14.1784C14.44 14.1784 15.1156 13.5027 15.1156 12.6721H14.9156ZM13.6094 11.3659C14.3295 11.3659 14.9156 11.952 14.9156 12.6721H15.1156C15.1156 11.8415 14.44 11.1659 13.6094 11.1659V11.3659ZM12.3031 12.6721C12.3031 11.952 12.8892 11.3659 13.6094 11.3659V11.1659C12.7788 11.1659 12.1031 11.8415 12.1031 12.6721H12.3031ZM15.8281 12.5377C16.271 12.5377 16.6313 12.1775 16.6313 11.7346H16.4312C16.4312 12.0671 16.1606 12.3377 15.8281 12.3377V12.5377ZM15.4692 12.5377H15.8281V12.3377H15.4692V12.5377ZM13.6094 10.8971C14.5128 10.8971 15.2605 11.5759 15.37 12.4502L15.5685 12.4253C15.4466 11.4524 14.6151 10.6971 13.6094 10.6971V10.8971ZM11.8487 12.4502C11.9583 11.5759 12.7059 10.8971 13.6094 10.8971V10.6971C12.6036 10.6971 11.7722 11.4524 11.6503 12.4253L11.8487 12.4502ZM5.67236 12.5377H11.7495V12.3377H5.67236V12.5377ZM3.8125 10.8971C4.71594 10.8971 5.46359 11.5759 5.57314 12.4502L5.77159 12.4253C5.64969 11.4524 4.81824 10.6971 3.8125 10.6971V10.8971ZM2.05601 12.4183C2.17942 11.5594 2.92015 10.8971 3.8125 10.8971V10.6971C2.81911 10.6971 1.99538 11.434 1.85805 12.3898L2.05601 12.4183ZM1.36875 11.7346C1.36875 12.0922 1.60344 12.3953 1.9264 12.4992L1.98767 12.3089C1.7447 12.2307 1.56875 12.0025 1.56875 11.7346H1.36875ZM1.36875 10.3011V11.7346H1.56875V10.3011H1.36875ZM1.77344 10.2011H1.46875V10.4011H1.77344V10.2011ZM2.84531 9.12927C2.84531 9.72028 2.36445 10.2011 1.77344 10.2011V10.4011C2.47491 10.4011 3.04531 9.83074 3.04531 9.12927H2.84531ZM2.84531 8.41553V9.12927H3.04531V8.41553H2.84531ZM3.72068 8.11488L2.92063 8.31862L2.96999 8.51243L3.77004 8.3087L3.72068 8.11488ZM3.80379 8.05221C3.78557 8.0834 3.75576 8.1059 3.72056 8.11492L3.77016 8.30867C3.85703 8.28643 3.93122 8.23056 3.97648 8.15311L3.80379 8.05221ZM5.44828 5.23234L3.80375 8.05228L3.97652 8.15304L5.62105 5.33309L5.44828 5.23234ZM6.95215 4.36875C6.33504 4.36875 5.75919 4.69953 5.4483 5.23232L5.62104 5.33311C5.89609 4.86175 6.40617 4.56875 6.95215 4.56875V4.36875ZM11.5 4.36875H6.95215V4.56875H11.5V4.36875ZM12.8925 5.06501C12.5655 4.62893 12.0451 4.36875 11.5 4.36875V4.56875C11.9822 4.56875 12.4433 4.79929 12.7325 5.18499L12.8925 5.06501ZM15.1425 8.06525L12.8925 5.065L12.7325 5.185L14.9825 8.18524L15.1425 8.06525ZM15.25 8.11899C15.2079 8.11899 15.168 8.09913 15.1424 8.06506L14.9826 8.18543C15.0458 8.26928 15.1446 8.31899 15.25 8.31899V8.11899ZM16.3489 8.11899H15.25V8.31899H16.3489V8.11899ZM16.6046 8.51927C16.6914 8.33232 16.5546 8.11899 16.3489 8.11899V8.31899C16.4088 8.31899 16.4483 8.38106 16.4232 8.43508L16.6046 8.51927ZM16.5073 8.72973L16.6047 8.51916L16.4232 8.43519L16.3257 8.64576L16.5073 8.72973ZM15.4844 8.78774H16.4165V8.58774H15.4844V8.78774ZM15.35 8.92212C15.35 8.84787 15.4102 8.78774 15.4844 8.78774V8.58774C15.2998 8.58774 15.15 8.73734 15.15 8.92212H15.35ZM15.35 9.85962V8.92212H15.15V9.85962H15.35ZM15.4844 9.99399C15.4102 9.99399 15.35 9.93378 15.35 9.85962H15.15C15.15 10.0442 15.2998 10.194 15.4844 10.194V9.99399ZM16.1875 9.99399H15.4844V10.194H16.1875V9.99399ZM16.2875 10.4349V10.094H16.0875V10.4349H16.2875ZM16.4968 10.9527C16.365 10.8224 16.2875 10.6338 16.2875 10.4349H16.0875C16.0875 10.6843 16.1843 10.9251 16.3562 11.0949L16.4968 10.9527ZM16.6313 11.2745C16.6313 11.1541 16.5821 11.0372 16.4969 10.9528L16.3561 11.0948C16.4037 11.142 16.4312 11.2078 16.4312 11.2745H16.6313ZM16.6313 11.7346V11.2745H16.4312V11.7346H16.6313ZM16.0875 9.15649V9.62524H16.2875V9.15649H16.0875ZM15.7188 9.25649H16.1875V9.05649H15.7188V9.25649ZM15.8188 9.62524V9.15649H15.6187V9.62524H15.8188ZM16.1875 9.52524H15.7188V9.72524H16.1875V9.52524Z" fill="white"/>
</g>
<path id="Shape_2" d="M4.44092 12.2784C4.31299 12.3093 4.23816 12.4375 4.26807 12.5613C4.27686 12.5975 4.28125 12.6346 4.28125 12.6722C4.28064 12.9301 4.07068 13.1403 3.8125 13.141C3.55432 13.1403 3.34436 12.9301 3.34375 12.6722C3.34436 12.4141 3.55432 12.2037 3.8125 12.2035C3.94189 12.2035 4.04688 12.0981 4.04688 11.9691C4.04688 11.84 3.94189 11.735 3.81287 11.7347C3.81067 11.734 3.80847 11.7347 3.80627 11.7347C3.55688 11.7362 3.32312 11.8347 3.14746 12.0112C2.97192 12.1881 2.875 12.4229 2.875 12.6722C2.875 13.1968 3.30139 13.6097 3.8125 13.6097C4.32837 13.6097 4.75 13.1923 4.75 12.6722C4.75 12.5975 4.74121 12.5231 4.72375 12.4513C4.69312 12.3247 4.56702 12.248 4.44092 12.2784Z" fill="white" stroke="white" stroke-width="0.2"/>
<path id="Shape_3" d="M14.2378 12.2784C14.1122 12.3087 14.0347 12.4357 14.0649 12.5613V12.5619C14.0737 12.5975 14.0781 12.6346 14.0781 12.6722C14.0778 12.9301 13.8676 13.1403 13.6094 13.141C13.3512 13.1403 13.1412 12.9301 13.1406 12.6722C13.1412 12.4141 13.3512 12.2037 13.6094 12.2035C13.7388 12.2035 13.8438 12.0981 13.8438 11.9691C13.8438 11.8397 13.7388 11.7347 13.6094 11.7347C13.359 11.7347 13.1234 11.8322 12.9465 12.0094C12.7694 12.1863 12.6719 12.4215 12.6719 12.6722C12.6719 13.1923 13.0935 13.6097 13.6094 13.6097C14.121 13.6097 14.5469 13.1962 14.5469 12.6722C14.5469 12.5975 14.5381 12.5231 14.5206 12.4513C14.4902 12.3247 14.3638 12.248 14.2378 12.2784Z" fill="white" stroke="white" stroke-width="0.2"/>
<path id="Shape_4" d="M15.2974 10.4241C14.8071 10.0548 14.2234 9.85962 13.6094 9.85962C13.0333 9.85962 12.4791 10.0334 12.0068 10.3622C11.5458 10.6831 11.1942 11.1282 10.9901 11.6492C10.9429 11.7697 11.0023 11.9056 11.1228 11.9529C11.2433 12.0001 11.3794 11.9407 11.4266 11.8201C11.7762 10.9279 12.6534 10.3284 13.6095 10.3284C14.1208 10.3284 14.607 10.491 15.0154 10.7986C15.1188 10.8765 15.2657 10.8558 15.3436 10.7523C15.4214 10.6489 15.4007 10.502 15.2974 10.4241Z" fill="white" stroke="white" stroke-width="0.2"/>
<g id="Shape_5">
<path fill-rule="evenodd" clip-rule="evenodd" d="M6.95215 4.9375H8.53125C8.66064 4.9375 8.76562 5.04248 8.76562 5.17188V11.7346C8.76562 11.864 8.66064 11.969 8.53125 11.969C8.40186 11.969 8.29688 11.864 8.29688 11.7346V8.21899H4.90747L4.71802 8.54358C4.67456 8.61829 4.59619 8.65991 4.51538 8.65991C4.47534 8.65991 4.43481 8.64966 4.39771 8.62805C4.28589 8.56274 4.24805 8.41931 4.31323 8.3075L5.9397 5.51892C6.14893 5.16028 6.53687 4.9375 6.95215 4.9375ZM5.18091 7.75024H8.29688V5.40625H6.95215C6.70288 5.40625 6.47021 5.53992 6.34473 5.75513L5.18091 7.75024Z" fill="white"/>
<path d="M8.29688 8.21899H8.39687V8.11899H8.29688V8.21899ZM4.90747 8.21899V8.11899H4.85005L4.82111 8.16858L4.90747 8.21899ZM4.71802 8.54358L4.63165 8.49317L4.63158 8.4933L4.71802 8.54358ZM4.39771 8.62805L4.34727 8.7144L4.34739 8.71447L4.39771 8.62805ZM4.31323 8.3075L4.22685 8.25711L4.22684 8.25713L4.31323 8.3075ZM5.9397 5.51892L5.85332 5.46853L5.85332 5.46854L5.9397 5.51892ZM8.29688 7.75024V7.85024H8.39687V7.75024H8.29688ZM5.18091 7.75024L5.09453 7.69986L5.0068 7.85024H5.18091V7.75024ZM8.29688 5.40625H8.39687V5.30625H8.29688V5.40625ZM6.34473 5.75513L6.4311 5.80551L6.43111 5.8055L6.34473 5.75513ZM8.53125 4.8375H6.95215V5.0375H8.53125V4.8375ZM8.86562 5.17188C8.86562 4.98725 8.71587 4.8375 8.53125 4.8375V5.0375C8.60542 5.0375 8.66563 5.09771 8.66563 5.17188H8.86562ZM8.86562 11.7346V5.17188H8.66563V11.7346H8.86562ZM8.53125 12.069C8.71587 12.069 8.86562 11.9192 8.86562 11.7346H8.66563C8.66563 11.8088 8.60542 11.869 8.53125 11.869V12.069ZM8.19688 11.7346C8.19688 11.9192 8.34663 12.069 8.53125 12.069V11.869C8.45708 11.869 8.39687 11.8088 8.39687 11.7346H8.19688ZM8.19688 8.21899V11.7346H8.39687V8.21899H8.19688ZM4.90747 8.31899H8.29688V8.11899H4.90747V8.31899ZM4.80438 8.59399L4.99384 8.2694L4.82111 8.16858L4.63165 8.49317L4.80438 8.59399ZM4.51538 8.75991C4.63027 8.75991 4.74234 8.70065 4.80446 8.59386L4.63158 8.4933C4.60678 8.53592 4.56211 8.55991 4.51538 8.55991V8.75991ZM4.34739 8.71447C4.40019 8.74521 4.45814 8.75991 4.51538 8.75991V8.55991C4.49254 8.55991 4.46944 8.55411 4.44802 8.54163L4.34739 8.71447ZM4.22684 8.25713C4.1338 8.41672 4.18788 8.62131 4.34727 8.7144L4.44814 8.5417C4.38389 8.50418 4.36229 8.4219 4.39962 8.35786L4.22684 8.25713ZM5.85332 5.46854L4.22685 8.25711L4.39961 8.35788L6.02608 5.5693L5.85332 5.46854ZM6.95215 4.8375C6.50131 4.8375 6.08048 5.07916 5.85332 5.46853L6.02607 5.56931C6.21738 5.2414 6.57242 5.0375 6.95215 5.0375V4.8375ZM8.29688 7.65024H5.18091V7.85024H8.29688V7.65024ZM8.19688 5.40625V7.75024H8.39687V5.40625H8.19688ZM6.95215 5.50625H8.29688V5.30625H6.95215V5.50625ZM6.43111 5.8055C6.53868 5.62103 6.73844 5.50625 6.95215 5.50625V5.30625C6.66732 5.30625 6.40175 5.45881 6.25834 5.70476L6.43111 5.8055ZM5.26729 7.80063L6.4311 5.80551L6.25835 5.70474L5.09453 7.69986L5.26729 7.80063Z" fill="white"/>
</g>
<path id="Shape_6" d="M12.0625 5.6875L13.0469 7.00012C13.1073 7.08069 13.1406 7.18054 13.1406 7.28137C13.1406 7.53992 12.9303 7.75024 12.6718 7.75024H10.4062C10.2769 7.75024 10.1719 7.85522 10.1719 7.98462C10.1719 8.11401 10.2769 8.21899 10.4062 8.21899H12.6718C13.1887 8.21899 13.6094 7.79846 13.6094 7.28137C13.6094 7.07983 13.5427 6.88 13.4219 6.71887L12.4375 5.40637C12.2174 5.11279 11.8669 4.9375 11.5 4.9375H9.46875C9.33923 4.9375 9.23438 5.04248 9.23438 5.17188V8.42554C9.23438 8.55505 9.33923 8.65991 9.46875 8.65991C9.59827 8.65991 9.70312 8.55505 9.70312 8.42554V5.40625H11.5C11.7202 5.40625 11.9304 5.51135 12.0625 5.6875Z" fill="white" stroke="white" stroke-width="0.2"/>
<path id="Shape_7" d="M7.59375 8.68774H6.65625C6.52686 8.68774 6.42188 8.79972 6.42188 8.93774C6.42188 9.07577 6.52686 9.18774 6.65625 9.18774H7.59375C7.72314 9.18774 7.82812 9.07577 7.82812 8.93774C7.82812 8.79972 7.72314 8.68774 7.59375 8.68774Z" fill="#0C49CD" stroke="#0C49CD" stroke-width="0.2"/>
<path id="Shape_8" d="M11.5781 8.93774C11.5781 8.79972 11.4731 8.68774 11.3438 8.68774H10.4062C10.2769 8.68774 10.1719 8.79972 10.1719 8.93774C10.1719 9.07577 10.2769 9.18774 10.4062 9.18774H11.3438C11.4731 9.18774 11.5781 9.07577 11.5781 8.93774Z" fill="#0C49CD" stroke="#0C49CD" stroke-width="0.2"/>
</g>
</g>
</svg>
