<?xml version="1.0" encoding="UTF-8"?>
<svg width="24px" height="24px" viewBox="0 0 24 24" version="1.1" xmlns="http://www.w3.org/2000/svg" xmlns:xlink="http://www.w3.org/1999/xlink">
    <!-- Generator: Sketch 49.1 (51147) - http://www.bohemiancoding.com/sketch -->
    <title>Twi Hover</title>
    <desc>Created with Sketch.</desc>
    <defs>
        <path d="M19.4969185,6.68763542 C20.3374225,6.15722952 20.9823521,5.3161924 21.2850267,4.3143146 C20.4980728,4.80665896 19.6284655,5.16271847 18.7006515,5.35548173 C17.960263,4.52058356 16.9020661,4 15.7309483,4 C13.4841717,4 11.6634677,5.92149357 11.6634677,8.29113101 C11.6634677,8.62754586 11.6972276,8.95536617 11.7670756,9.26845298 C8.38643345,9.08919544 5.38879106,7.38256536 3.3806617,4.78455872 C3.03025767,5.42055467 2.8300268,6.15722952 2.8300268,6.94301603 C2.8300268,8.43109923 3.54829684,9.74483605 4.64025357,10.5158891 C3.97320538,10.4937888 3.34573771,10.29857 2.79626695,9.97934421 L2.79626695,10.0321392 C2.79626695,12.1120179 4.19788304,13.8468872 6.06165992,14.2397804 C5.71940482,14.3404593 5.36085187,14.3907988 4.98832932,14.3907988 C4.72639941,14.3907988 4.47029015,14.3650152 4.22349396,14.3146757 C4.740369,16.0188502 6.24326466,17.2613751 8.0243881,17.2945255 C6.63092094,18.4461938 4.87657256,19.1313015 2.97088689,19.1313015 C2.6426014,19.1313015 2.3178083,19.1128846 2,19.0723675 C3.8009137,20.2891088 5.93942596,21 8.23742443,21 C15.7227994,21 19.8135626,14.4607829 19.8135626,8.78961433 C19.8135626,8.60299003 19.8112344,8.41759353 19.8030854,8.23465261 C20.5981883,7.62935144 21.2896832,6.87303192 21.8333333,6.01235014 C21.103422,6.35367615 20.3187963,6.58450094 19.4969185,6.68763542 Z" id="path-1"></path>
    </defs>
    <g id="Twi-Hover" stroke="none" stroke-width="1" fill="none" fill-rule="evenodd">
        <mask id="mask-2" fill="white">
            <use xlink:href="#path-1"></use>
        </mask>
        <use id="Mask" fill="#0C49CD" xlink:href="#path-1"></use>
    </g>
</svg>