<svg width="18" height="18" viewBox="0 0 18 18" fill="none" xmlns="http://www.w3.org/2000/svg">
<g id="Video creation">
<rect id="Rectangle 4 Copy 19" width="18" height="18" fill="#F4F7FB" fill-opacity="0.01"/>
<g id="play-button">
<g id="Shape">
<path fill-rule="evenodd" clip-rule="evenodd" d="M7.28345 4.77972L13.1501 8.77972C13.2023 8.81522 13.2395 8.86749 13.2565 8.92673C13.2632 8.95026 13.2667 8.97488 13.2667 9C13.2667 9.08826 13.223 9.17065 13.1501 9.22025L7.28345 13.2202C7.25439 13.24 7.22229 13.2536 7.18909 13.2607C7.17078 13.2647 7.1521 13.2667 7.13342 13.2667C7.0907 13.2667 7.04773 13.2565 7.00879 13.2357C6.92139 13.1896 6.8667 13.0989 6.8667 13V5C6.8667 4.94858 6.88147 4.89938 6.90796 4.85751C6.93237 4.81885 6.96667 4.78641 7.00854 4.76425C7.09607 4.71811 7.20166 4.72424 7.28345 4.77972ZM12.5267 9L7.40002 5.50479V12.4952L12.5267 9Z" fill="#0C49CD"/>
<path d="M13.1501 8.77972L13.0938 8.86235L13.0939 8.86238L13.1501 8.77972ZM7.28345 4.77972L7.33978 4.6971L7.33959 4.69697L7.28345 4.77972ZM13.2565 8.92673L13.3526 8.89929L13.3526 8.89919L13.2565 8.92673ZM13.1501 9.22025L13.0939 9.13757L13.0938 9.13762L13.1501 9.22025ZM7.28345 13.2202L7.33972 13.3029L7.33978 13.3029L7.28345 13.2202ZM7.18909 13.2607L7.21011 13.3585L7.21011 13.3585L7.18909 13.2607ZM7.00879 13.2357L7.05593 13.1475L7.05548 13.1473L7.00879 13.2357ZM6.90796 4.85751L6.99247 4.91098L6.99251 4.9109L6.90796 4.85751ZM7.00854 4.76425L6.96191 4.67579L6.96177 4.67586L7.00854 4.76425ZM7.40002 5.50479L7.45636 5.42217L7.30002 5.31559V5.50479H7.40002ZM12.5267 9L12.5831 9.08262L12.7043 9L12.5831 8.91738L12.5267 9ZM7.40002 12.4952H7.30002V12.6844L7.45635 12.5778L7.40002 12.4952ZM13.2065 8.6971L7.33978 4.6971L7.22711 4.86235L13.0938 8.86235L13.2065 8.6971ZM13.3526 8.89919C13.3293 8.81773 13.2781 8.74585 13.2064 8.69707L13.0939 8.86238C13.1265 8.88458 13.1497 8.91726 13.1603 8.95426L13.3526 8.89919ZM13.3667 9C13.3667 8.96547 13.3619 8.93161 13.3526 8.89929L13.1603 8.95417C13.1645 8.9689 13.1667 8.9843 13.1667 9H13.3667ZM13.2064 9.30292C13.3066 9.23474 13.3667 9.12142 13.3667 9H13.1667C13.1667 9.0551 13.1394 9.10657 13.0939 9.13757L13.2064 9.30292ZM7.33978 13.3029L13.2065 9.30287L13.0938 9.13762L7.22711 13.1376L7.33978 13.3029ZM7.21011 13.3585C7.25584 13.3487 7.29993 13.33 7.33972 13.3029L7.22718 13.1376C7.20886 13.15 7.18874 13.1585 7.16806 13.163L7.21011 13.3585ZM7.13342 13.3667C7.15917 13.3667 7.18489 13.3639 7.21011 13.3585L7.16807 13.163C7.15666 13.1654 7.14503 13.1667 7.13342 13.1667V13.3667ZM6.96165 13.3239C7.0157 13.3528 7.07496 13.3667 7.13342 13.3667V13.1667C7.10644 13.1667 7.07975 13.1603 7.05593 13.1475L6.96165 13.3239ZM6.7667 13C6.7667 13.136 6.84192 13.2607 6.9621 13.3242L7.05548 13.1473C7.00086 13.1185 6.9667 13.0618 6.9667 13H6.7667ZM6.7667 5V13H6.9667V5H6.7667ZM6.82345 4.80405C6.78702 4.86164 6.7667 4.92933 6.7667 5H6.9667C6.9667 4.96783 6.97592 4.93713 6.99247 4.91098L6.82345 4.80405ZM6.96177 4.67586C6.9041 4.70638 6.85692 4.75105 6.8234 4.80412L6.99251 4.9109C7.00783 4.88665 7.02925 4.86644 7.05532 4.85264L6.96177 4.67586ZM7.33959 4.69697C7.22739 4.62086 7.08229 4.61233 6.96191 4.67579L7.05518 4.85271C7.10985 4.82389 7.17593 4.82763 7.22731 4.86248L7.33959 4.69697ZM7.34369 5.58742L12.4704 9.08262L12.5831 8.91738L7.45636 5.42217L7.34369 5.58742ZM7.50002 12.4952V5.50479H7.30002V12.4952H7.50002ZM12.4704 8.91738L7.34369 12.4126L7.45635 12.5778L12.5831 9.08262L12.4704 8.91738Z" fill="#0C49CD"/>
</g>
<g id="Shape_2">
<path fill-rule="evenodd" clip-rule="evenodd" d="M1 9C1 4.58881 4.58875 1 9 1C13.4113 1 17 4.58881 17 9C17 13.4112 13.4113 17 9 17C4.58875 17 1 13.4112 1 9ZM1.53333 9C1.53333 13.1171 4.88293 16.4666 9 16.4666C13.1171 16.4666 16.4667 13.1171 16.4667 9C16.4667 4.88293 13.1171 1.53333 9 1.53333C4.88293 1.53333 1.53333 4.88293 1.53333 9Z" fill="#0C49CD"/>
<path d="M9 0.9C4.53352 0.9 0.9 4.53358 0.9 9H1.1C1.1 4.64403 4.64397 1.1 9 1.1V0.9ZM17.1 9C17.1 4.53358 13.4665 0.9 9 0.9V1.1C13.356 1.1 16.9 4.64403 16.9 9H17.1ZM9 17.1C13.4665 17.1 17.1 13.4664 17.1 9H16.9C16.9 13.356 13.356 16.9 9 16.9V17.1ZM0.9 9C0.9 13.4664 4.53352 17.1 9 17.1V16.9C4.64397 16.9 1.1 13.356 1.1 9H0.9ZM9 16.3666C4.93816 16.3666 1.63333 13.0618 1.63333 9H1.43333C1.43333 13.1723 4.82771 16.5666 9 16.5666V16.3666ZM16.3667 9C16.3667 13.0618 13.0618 16.3666 9 16.3666V16.5666C13.1723 16.5666 16.5667 13.1723 16.5667 9H16.3667ZM9 1.63333C13.0618 1.63333 16.3667 4.93816 16.3667 9H16.5667C16.5667 4.82771 13.1723 1.43333 9 1.43333V1.63333ZM1.63333 9C1.63333 4.93816 4.93816 1.63333 9 1.63333V1.43333C4.82771 1.43333 1.43333 4.82771 1.43333 9H1.63333Z" fill="#0C49CD"/>
</g>
</g>
</g>
</svg>
