<svg width="18" height="18" viewBox="0 0 18 18" fill="none" xmlns="http://www.w3.org/2000/svg">
<g id="Video creation White">
<rect id="Rectangle 4 Copy 19" width="18" height="18" fill="#F4F7FB" fill-opacity="0.01"/>
<g id="play-button">
<g id="Shape">
<path fill-rule="evenodd" clip-rule="evenodd" d="M7.28345 4.77972L13.1501 8.77972C13.2229 8.82932 13.2666 8.91171 13.2666 9C13.2666 9.08826 13.2229 9.17065 13.1501 9.22025L7.28345 13.2202C7.23853 13.2509 7.18579 13.2667 7.1333 13.2667C7.09082 13.2667 7.04785 13.2565 7.00879 13.2357C6.92139 13.1896 6.8667 13.0989 6.8667 13V5C6.8667 4.90106 6.92139 4.81039 7.00854 4.76425C7.09595 4.71811 7.20166 4.72424 7.28345 4.77972ZM12.5269 9L7.40015 5.50479V12.4952L12.5269 9Z" fill="white"/>
<path d="M13.1501 8.77972L13.0938 8.86235L13.0938 8.86235L13.1501 8.77972ZM7.28345 4.77972L7.33978 4.6971L7.33959 4.69697L7.28345 4.77972ZM13.1501 9.22025L13.0938 9.13762L13.0938 9.13762L13.1501 9.22025ZM7.28345 13.2202L7.22711 13.1376L7.22706 13.1377L7.28345 13.2202ZM7.00879 13.2357L7.05581 13.1475L7.05548 13.1473L7.00879 13.2357ZM7.00854 4.76425L6.96186 4.67582L6.96176 4.67587L7.00854 4.76425ZM7.40015 5.50479L7.45648 5.42217L7.30015 5.31559V5.50479H7.40015ZM12.5269 9L12.5832 9.08262L12.7044 9L12.5832 8.91738L12.5269 9ZM7.40015 12.4952H7.30015V12.6844L7.45648 12.5778L7.40015 12.4952ZM13.2065 8.6971L7.33978 4.6971L7.22711 4.86235L13.0938 8.86235L13.2065 8.6971ZM13.3666 9C13.3666 8.87858 13.3065 8.76528 13.2065 8.69709L13.0938 8.86235C13.1393 8.89336 13.1666 8.94485 13.1666 9H13.3666ZM13.2065 9.30288C13.3065 9.2347 13.3666 9.1214 13.3666 9H13.1666C13.1666 9.05511 13.1393 9.10661 13.0938 9.13762L13.2065 9.30288ZM7.33978 13.3029L13.2065 9.30287L13.0938 9.13762L7.22711 13.1376L7.33978 13.3029ZM7.1333 13.3667C7.2056 13.3667 7.27804 13.345 7.33983 13.3028L7.22706 13.1377C7.19901 13.1568 7.16598 13.1667 7.1333 13.1667V13.3667ZM6.96177 13.324C7.01581 13.3528 7.07501 13.3667 7.1333 13.3667V13.1667C7.10663 13.1667 7.07989 13.1603 7.05581 13.1475L6.96177 13.324ZM6.7667 13C6.7667 13.136 6.84192 13.2607 6.9621 13.3242L7.05548 13.1473C7.00086 13.1185 6.9667 13.0618 6.9667 13H6.7667ZM6.7667 5V13H6.9667V5H6.7667ZM6.96176 4.67587C6.84186 4.73935 6.7667 4.86402 6.7667 5H6.9667C6.9667 4.9381 7.00091 4.88144 7.05533 4.85263L6.96176 4.67587ZM7.33959 4.69697C7.22741 4.62087 7.08216 4.61231 6.96186 4.67582L7.05523 4.85268C7.10973 4.82391 7.17591 4.82762 7.22731 4.86248L7.33959 4.69697ZM7.34382 5.58742L12.4705 9.08262L12.5832 8.91738L7.45648 5.42217L7.34382 5.58742ZM7.50015 12.4952V5.50479H7.30015V12.4952H7.50015ZM12.4705 8.91738L7.34382 12.4126L7.45648 12.5778L12.5832 9.08262L12.4705 8.91738Z" fill="white"/>
</g>
<g id="Shape_2">
<path fill-rule="evenodd" clip-rule="evenodd" d="M1 9C1 4.58881 4.58887 1 9 1C13.4111 1 17 4.58881 17 9C17 13.4112 13.4111 17 9 17C4.58887 17 1 13.4112 1 9ZM1.53345 9C1.53345 13.1171 4.88306 16.4666 9 16.4666C13.1172 16.4666 16.4668 13.1171 16.4668 9C16.4668 4.88293 13.1172 1.53333 9 1.53333C4.88306 1.53333 1.53345 4.88293 1.53345 9Z" fill="white"/>
<path d="M9 0.9C4.53364 0.9 0.9 4.53358 0.9 9H1.1C1.1 4.64404 4.6441 1.1 9 1.1V0.9ZM17.1 9C17.1 4.53358 13.4664 0.9 9 0.9V1.1C13.3559 1.1 16.9 4.64404 16.9 9H17.1ZM9 17.1C13.4664 17.1 17.1 13.4664 17.1 9H16.9C16.9 13.356 13.3559 16.9 9 16.9V17.1ZM0.9 9C0.9 13.4664 4.53364 17.1 9 17.1V16.9C4.6441 16.9 1.1 13.356 1.1 9H0.9ZM9 16.3666C4.93829 16.3666 1.63345 13.0618 1.63345 9H1.43345C1.43345 13.1723 4.82783 16.5666 9 16.5666V16.3666ZM16.3668 9C16.3668 13.0618 13.062 16.3666 9 16.3666V16.5666C13.1724 16.5666 16.5668 13.1723 16.5668 9H16.3668ZM9 1.63333C13.062 1.63333 16.3668 4.93816 16.3668 9H16.5668C16.5668 4.82771 13.1724 1.43333 9 1.43333V1.63333ZM1.63345 9C1.63345 4.93816 4.93829 1.63333 9 1.63333V1.43333C4.82783 1.43333 1.43345 4.82771 1.43345 9H1.63345Z" fill="white"/>
</g>
</g>
</g>
</svg>
