<svg width="18" height="18" viewBox="0 0 18 18" fill="none" xmlns="http://www.w3.org/2000/svg">
<g id="Virtual reality">
<rect id="Rectangle 4 Copy 29" width="18" height="18" fill="#F4F7FB" fill-opacity="0.01"/>
<g id="field-of-view">
<g id="Shape">
<path fill-rule="evenodd" clip-rule="evenodd" d="M10.0094 11.0487C10.1063 11.0967 10.1715 11.1912 10.1819 11.2987C10.1857 11.3376 10.1875 11.3764 10.1875 11.4142C10.1875 12.069 9.65479 12.6017 9 12.6017C8.34521 12.6017 7.8125 12.069 7.8125 11.4142C7.8125 10.7594 8.34521 10.2268 9 10.2268C9.02148 10.2268 9.04309 10.2274 9.06482 10.2286C9.08179 10.2295 9.09888 10.2308 9.11584 10.2324C9.22327 10.2429 9.31775 10.3082 9.3656 10.405C9.41345 10.5018 9.40796 10.6165 9.35095 10.7083C9.32581 10.7488 9.3125 10.7956 9.3125 10.8437C9.3125 10.986 9.42822 11.1017 9.57056 11.1017C9.61853 11.1017 9.66541 11.0884 9.70605 11.0632C9.79785 11.0063 9.91248 11.0007 10.0094 11.0487ZM8.4375 11.4142C8.4375 11.7244 8.68982 11.9767 9 11.9767C9.19702 11.9767 9.37061 11.8749 9.47119 11.7212C9.06348 11.6754 8.73889 11.3508 8.69312 10.9431C8.53931 11.0436 8.4375 11.2172 8.4375 11.4142Z" fill="#0C49CD"/>
<path d="M10.1819 11.2987L10.0823 11.3083L10.0824 11.3084L10.1819 11.2987ZM10.0094 11.0487L9.96502 11.1383L9.96507 11.1384L10.0094 11.0487ZM9.06482 10.2286L9.07034 10.1287L9.07032 10.1287L9.06482 10.2286ZM9.11584 10.2324L9.12555 10.1329L9.12551 10.1329L9.11584 10.2324ZM9.3656 10.405L9.27595 10.4493L9.27595 10.4493L9.3656 10.405ZM9.35095 10.7083L9.266 10.6555L9.26596 10.6556L9.35095 10.7083ZM9.70605 11.0632L9.75872 11.1482L9.75879 11.1482L9.70605 11.0632ZM9.47119 11.7212L9.55488 11.7759L9.64383 11.6399L9.48236 11.6218L9.47119 11.7212ZM8.69312 10.9431L8.79249 10.9319L8.77437 10.7705L8.63842 10.8594L8.69312 10.9431ZM10.2814 11.2891C10.2677 11.1472 10.1817 11.0224 10.0537 10.9591L9.96507 11.1384C10.031 11.171 10.0753 11.2352 10.0823 11.3083L10.2814 11.2891ZM10.2875 11.4142C10.2875 11.3732 10.2855 11.3312 10.2814 11.289L10.0824 11.3084C10.0858 11.344 10.0875 11.3796 10.0875 11.4142H10.2875ZM9 12.7017C9.71001 12.7017 10.2875 12.1243 10.2875 11.4142H10.0875C10.0875 12.0138 9.59956 12.5017 9 12.5017V12.7017ZM7.7125 11.4142C7.7125 12.1242 8.28999 12.7017 9 12.7017V12.5017C8.40044 12.5017 7.9125 12.0138 7.9125 11.4142H7.7125ZM9 10.1268C8.28999 10.1268 7.7125 10.7042 7.7125 11.4142H7.9125C7.9125 10.8147 8.40044 10.3268 9 10.3268V10.1268ZM9.07032 10.1287C9.04682 10.1274 9.02338 10.1268 9 10.1268V10.3268C9.01959 10.3268 9.03936 10.3273 9.05932 10.3284L9.07032 10.1287ZM9.12551 10.1329C9.10712 10.1311 9.08865 10.1297 9.07034 10.1287L9.0593 10.3284C9.07493 10.3293 9.09064 10.3305 9.10618 10.332L9.12551 10.1329ZM9.45525 10.3607C9.39209 10.2329 9.26738 10.1467 9.12555 10.1329L9.10614 10.332C9.17916 10.3391 9.24341 10.3834 9.27595 10.4493L9.45525 10.3607ZM9.4359 10.761C9.51117 10.6398 9.5184 10.4885 9.45525 10.3607L9.27595 10.4493C9.3085 10.5152 9.30475 10.5931 9.266 10.6555L9.4359 10.761ZM9.4125 10.8437C9.4125 10.8141 9.42066 10.7856 9.43595 10.7609L9.26596 10.6556C9.23095 10.712 9.2125 10.7771 9.2125 10.8437H9.4125ZM9.57056 11.0017C9.48345 11.0017 9.4125 10.9307 9.4125 10.8437H9.2125C9.2125 11.0412 9.37299 11.2017 9.57056 11.2017V11.0017ZM9.65339 10.9782C9.62862 10.9936 9.6 11.0017 9.57056 11.0017V11.2017C9.63706 11.2017 9.70219 11.1833 9.75872 11.1482L9.65339 10.9782ZM10.0538 10.9591C9.92585 10.8958 9.7745 10.9031 9.65332 10.9783L9.75879 11.1482C9.82121 11.1095 9.8991 11.1057 9.96502 11.1383L10.0538 10.9591ZM9 11.8767C8.74505 11.8767 8.5375 11.6692 8.5375 11.4142H8.3375C8.3375 11.7796 8.63459 12.0767 9 12.0767V11.8767ZM9.38751 11.6664C9.30453 11.7933 9.16172 11.8767 9 11.8767V12.0767C9.23232 12.0767 9.43668 11.9566 9.55488 11.7759L9.38751 11.6664ZM8.59374 10.9542C8.64473 11.4083 9.00593 11.7695 9.46003 11.8205L9.48236 11.6218C9.12103 11.5812 8.83306 11.2932 8.79249 10.9319L8.59374 10.9542ZM8.5375 11.4142C8.5375 11.2525 8.62097 11.1097 8.74782 11.0268L8.63842 10.8594C8.45764 10.9775 8.3375 11.1819 8.3375 11.4142H8.5375Z" fill="#0C49CD"/>
</g>
<g id="Shape_2">
<path fill-rule="evenodd" clip-rule="evenodd" d="M12.4323 9.72694C12.8799 10.1139 13.2296 10.4954 13.4442 10.7473C13.8776 11.256 13.8776 11.3259 13.8776 11.4143C13.8776 11.4987 13.8776 11.5784 13.4446 12.0884C13.2314 12.3394 12.8827 12.7201 12.432 13.1086C11.6416 13.7898 10.4047 14.6018 9.00012 14.6018C7.59741 14.6018 6.35938 13.7859 5.56787 13.1016C5.12024 12.7146 4.77051 12.3331 4.55591 12.0812C4.12256 11.5724 4.12256 11.5026 4.12256 11.4143C4.12256 11.3298 4.12256 11.2501 4.55566 10.7401C4.7688 10.4891 5.11743 10.1084 5.56824 9.71988C6.35852 9.03872 7.59546 8.22675 9 8.22675C10.4027 8.22675 11.6407 9.04256 12.4323 9.72694ZM9.00012 13.9767C10.1757 13.9767 11.2452 13.2881 11.9353 12.7104C12.5549 12.1918 12.9926 11.6687 13.1838 11.4174C12.9865 11.1623 12.5424 10.6357 11.9431 10.131C11.25 9.54744 10.1769 8.85175 9.00012 8.85175C7.82446 8.85175 6.75488 9.54037 6.06482 10.1181C5.44531 10.6366 5.00769 11.1598 4.81628 11.411C5.01379 11.6662 5.45776 12.1928 6.05701 12.6974C6.75012 13.281 7.82324 13.9767 9.00012 13.9767Z" fill="#0C49CD"/>
<path d="M13.4442 10.7473L13.5203 10.6824L13.5203 10.6824L13.4442 10.7473ZM12.4323 9.72694L12.3668 9.80259L12.3668 9.80259L12.4323 9.72694ZM13.4446 12.0884L13.5208 12.1532L13.5208 12.1532L13.4446 12.0884ZM12.432 13.1086L12.4973 13.1844L12.4973 13.1844L12.432 13.1086ZM5.56787 13.1016L5.63328 13.0259L5.63327 13.0259L5.56787 13.1016ZM4.55591 12.0812L4.47978 12.1461L4.47979 12.1461L4.55591 12.0812ZM4.55566 10.7401L4.47944 10.6753L4.47944 10.6753L4.55566 10.7401ZM5.56824 9.71988L5.63352 9.79563L5.63352 9.79563L5.56824 9.71988ZM11.9353 12.7104L11.8711 12.6337L11.8711 12.6337L11.9353 12.7104ZM13.1838 11.4174L13.2634 11.478L13.3099 11.4169L13.2629 11.3562L13.1838 11.4174ZM11.9431 10.131L12.0075 10.0545L12.0075 10.0545L11.9431 10.131ZM6.06482 10.1181L6.12901 10.1947L6.12901 10.1947L6.06482 10.1181ZM4.81628 11.411L4.73674 11.3504L4.6902 11.4115L4.73721 11.4722L4.81628 11.411ZM6.05701 12.6974L5.9926 12.7739L5.9926 12.7739L6.05701 12.6974ZM13.5203 10.6824C13.3035 10.4279 12.9501 10.0425 12.4977 9.6513L12.3668 9.80259C12.8096 10.1854 13.1558 10.5629 13.3681 10.8121L13.5203 10.6824ZM13.9776 11.4143C13.9776 11.3918 13.9778 11.3599 13.9678 11.3199C13.9579 11.2808 13.9397 11.2389 13.9096 11.1877C13.8506 11.0873 13.7371 10.9369 13.5203 10.6824L13.3681 10.8121C13.5847 11.0665 13.6879 11.2053 13.7372 11.2891C13.7613 11.3301 13.7701 11.354 13.7738 11.3687C13.7773 11.3825 13.7776 11.3925 13.7776 11.4143H13.9776ZM13.5208 12.1532C13.7376 11.8978 13.8511 11.7444 13.9102 11.6416C13.9402 11.5893 13.9582 11.5466 13.9679 11.5075C13.9778 11.4675 13.9776 11.436 13.9776 11.4143H13.7776C13.7776 11.4347 13.7773 11.4449 13.7737 11.4595C13.7699 11.475 13.7608 11.5 13.7367 11.542C13.6875 11.6276 13.5845 11.7691 13.3683 12.0237L13.5208 12.1532ZM12.4973 13.1844C12.9529 12.7916 13.3053 12.4069 13.5208 12.1532L13.3684 12.0237C13.1576 12.2719 12.8125 12.6486 12.3667 13.0329L12.4973 13.1844ZM9.00012 14.7018C10.4412 14.7018 11.7013 13.8703 12.4973 13.1844L12.3667 13.0329C11.5819 13.7093 10.3681 14.5018 9.00012 14.5018V14.7018ZM5.50246 13.1772C6.29942 13.8663 7.5607 14.7018 9.00012 14.7018V14.5018C7.63413 14.5018 6.41933 13.7056 5.63328 13.0259L5.50246 13.1772ZM4.47979 12.1461C4.69667 12.4006 5.04997 12.786 5.50247 13.1772L5.63327 13.0259C5.19051 12.6431 4.84435 12.2656 4.63203 12.0164L4.47979 12.1461ZM4.02256 11.4143C4.02256 11.4367 4.02229 11.4686 4.03235 11.5086C4.04219 11.5477 4.06045 11.5896 4.09053 11.6408C4.14956 11.7411 4.26306 11.8916 4.47978 12.1461L4.63204 12.0164C4.4154 11.762 4.31223 11.6232 4.26292 11.5394C4.23884 11.4984 4.23002 11.4745 4.22631 11.4598C4.22283 11.446 4.22256 11.436 4.22256 11.4143H4.02256ZM4.47944 10.6753C4.26254 10.9307 4.14904 11.0841 4.08999 11.1869C4.05994 11.2392 4.04194 11.2819 4.03226 11.321C4.02233 11.361 4.02256 11.3925 4.02256 11.4143H4.22256C4.22256 11.3938 4.22279 11.3836 4.22639 11.3691C4.23024 11.3535 4.23932 11.3285 4.26341 11.2866C4.31263 11.2009 4.41568 11.0594 4.63189 10.8048L4.47944 10.6753ZM5.50295 9.64413C5.04721 10.0369 4.69494 10.4216 4.47944 10.6753L4.63189 10.8048C4.84266 10.5566 5.18765 10.1799 5.63352 9.79563L5.50295 9.64413ZM9 8.12675C7.5589 8.12675 6.29878 8.95819 5.50295 9.64413L5.63352 9.79563C6.41826 9.11925 7.63201 8.32675 9 8.32675V8.12675ZM12.4977 9.6513C11.7007 8.96221 10.4394 8.12675 9 8.12675V8.32675C10.366 8.32675 11.5808 9.12292 12.3668 9.80259L12.4977 9.6513ZM11.8711 12.6337C11.1859 13.2073 10.1394 13.8767 9.00012 13.8767V14.0767C10.2119 14.0767 11.3046 13.3688 11.9995 12.7871L11.8711 12.6337ZM13.1043 11.3568C12.9163 11.6038 12.4837 12.1211 11.8711 12.6337L11.9995 12.7871C12.6262 12.2626 13.0688 11.7336 13.2634 11.478L13.1043 11.3568ZM11.8787 10.2075C12.471 10.7063 12.9103 11.2273 13.1047 11.4786L13.2629 11.3562C13.0626 11.0973 12.6137 10.565 12.0075 10.0545L11.8787 10.2075ZM9.00012 8.95175C10.1404 8.95175 11.1903 9.62791 11.8787 10.2075L12.0075 10.0545C11.3097 9.46697 10.2134 8.75175 9.00012 8.75175V8.95175ZM6.12901 10.1947C6.81421 9.62112 7.86071 8.95175 9.00012 8.95175V8.75175C7.78821 8.75175 6.69555 9.45963 6.00063 10.0414L6.12901 10.1947ZM4.89583 11.4716C5.08395 11.2247 5.51656 10.7074 6.12901 10.1947L6.00063 10.0414C5.37406 10.5659 4.93143 11.0949 4.73674 11.3504L4.89583 11.4716ZM6.12142 12.6209C5.52912 12.1222 5.08996 11.6012 4.89536 11.3498L4.73721 11.4722C4.93763 11.7311 5.38641 12.2635 5.9926 12.7739L6.12142 12.6209ZM9.00012 13.8767C7.85976 13.8767 6.80982 13.2005 6.12142 12.6209L5.9926 12.7739C6.69043 13.3615 7.78673 14.0767 9.00012 14.0767V13.8767Z" fill="#0C49CD"/>
</g>
<path id="Shape_3" d="M10.5916 9.82259C9.71442 8.94541 8.28695 8.94534 7.40964 9.82259C6.8572 10.3751 6.63249 11.1599 6.80858 11.922C6.84739 12.0901 7.01514 12.1949 7.18339 12.1561C7.35158 12.1173 7.45636 11.9494 7.41752 11.7813C7.2903 11.2306 7.45255 10.6636 7.85161 10.2645C8.4852 9.63091 9.5162 9.63097 10.1497 10.2645C10.7833 10.8981 10.7833 11.9291 10.1497 12.5626C9.74052 12.9718 9.13867 13.133 8.57886 12.9832C8.41224 12.9386 8.24083 13.0376 8.19624 13.2043C8.15161 13.3711 8.25061 13.5424 8.41736 13.587C8.60864 13.6382 8.80342 13.6631 8.99699 13.6631C9.58714 13.6631 10.165 13.4312 10.5916 13.0046C11.0166 12.5796 11.2506 12.0146 11.2506 11.4136C11.2506 10.8126 11.0166 10.2476 10.5916 9.82259Z" fill="#0C49CD" stroke="#0C49CD" stroke-width="0.2"/>
<path id="Shape_4" d="M7.85107 12.5631C7.72913 12.441 7.53063 12.4417 7.40854 12.5637C7.28651 12.6857 7.28651 12.8836 7.40854 13.0057C7.46957 13.0667 7.54954 13.0972 7.62951 13.0972C7.70948 13.0972 7.78945 13.0667 7.85048 13.0057L7.85173 13.0044C7.97376 12.8824 7.97313 12.6851 7.85107 12.5631Z" fill="#0C49CD" stroke="#0C49CD" stroke-width="0.2"/>
<path id="Shape_5" d="M9.01028 7.09712H9C8.82744 7.09712 8.6875 7.23706 8.6875 7.40962C8.6875 7.58218 8.82744 7.72212 9 7.72212H9.01028C9.18284 7.72212 9.32278 7.58218 9.32278 7.40962C9.32278 7.23706 9.18288 7.09712 9.01028 7.09712Z" fill="#0C49CD" stroke="#0C49CD" stroke-width="0.2"/>
<path id="Shape_6" d="M16.9943 3.97734C16.8545 3.25365 16.2221 2.58803 15.1654 2.05237C15.0685 2.00334 14.9531 2.008 14.8605 2.06484C14.768 2.12165 14.7116 2.2225 14.7116 2.33112V5.0559C14.7116 5.22847 14.8515 5.3684 15.0241 5.3684C15.1966 5.3684 15.3366 5.22847 15.3366 5.0559V2.86715C15.9209 3.23931 16.2834 3.65597 16.375 4.06856V4.28462C16.375 4.90143 15.7841 5.52206 14.7111 6.03218C13.5708 6.57431 11.9872 6.93762 10.2521 7.05515C10.0799 7.06684 9.94975 7.2159 9.96141 7.38806C9.97309 7.56025 10.1218 7.69025 10.2943 7.67875C12.106 7.55597 13.7698 7.17168 14.9794 6.59662C15.5677 6.31693 16.0367 5.99934 16.375 5.65175V12.2938C16.375 12.9828 15.6253 13.6827 14.3182 14.214C12.9027 14.7894 11.014 15.1063 9 15.1063C6.986 15.1063 5.09728 14.7894 3.68178 14.214C2.37466 13.6827 1.625 12.9828 1.625 12.2938V5.65175C1.96356 5.99968 2.43319 6.31759 3.02225 6.59743C4.23297 7.17265 5.89809 7.55678 7.71094 7.67909C7.88322 7.69078 8.03212 7.56053 8.04375 7.38831C8.05534 7.21612 7.92519 7.06712 7.75297 7.0555C6.01669 6.93837 4.43187 6.57522 3.29044 6.0329C2.21647 5.52265 1.625 4.90178 1.625 4.28462V4.06856C1.71666 3.65597 2.07909 3.23931 2.66341 2.86715V5.04378C2.66341 5.21634 2.80334 5.35628 2.97591 5.35628C3.14847 5.35628 3.28841 5.21634 3.28841 5.04378V2.33112C3.28841 2.2225 3.232 2.12168 3.13947 2.06484C3.04688 2.008 2.9315 2.00331 2.83459 2.05237C1.77794 2.58803 1.14547 3.25365 1.00569 3.97734C1.00191 3.99687 1 4.01672 1 4.03662V12.2938C1 13.2642 1.86884 14.1517 3.44644 14.7931C4.93491 15.3981 6.90719 15.7313 9 15.7313C11.0928 15.7313 13.0651 15.3981 14.5536 14.7931C16.1312 14.1517 17 13.2642 17 12.2938V4.03662C17 4.01672 16.9981 3.99687 16.9943 3.97734Z" fill="#0C49CD" stroke="#0C49CD" stroke-width="0.2"/>
</g>
</g>
</svg>
