<svg width="18" height="18" viewBox="0 0 18 18" fill="none" xmlns="http://www.w3.org/2000/svg">
<g id="Virtual reality White">
<rect id="Rectangle 4 Copy 29" width="18" height="18" fill="#F4F7FB" fill-opacity="0.01"/>
<g id="field-of-view">
<g id="Shape">
<path fill-rule="evenodd" clip-rule="evenodd" d="M10.0095 11.0487C10.1062 11.0967 10.1714 11.1912 10.1819 11.2987C10.1855 11.3376 10.1875 11.3764 10.1875 11.4142C10.1875 12.069 9.65479 12.6017 9 12.6017C8.34521 12.6017 7.8125 12.069 7.8125 11.4142C7.8125 10.7594 8.34521 10.2268 9 10.2268C9.03809 10.2268 9.07715 10.2287 9.11572 10.2324C9.22339 10.2429 9.31787 10.3082 9.36548 10.405C9.41333 10.5018 9.40796 10.6165 9.35083 10.7083C9.32593 10.7488 9.3125 10.7956 9.3125 10.8437C9.3125 10.986 9.42822 11.1017 9.57056 11.1017C9.61865 11.1017 9.66553 11.0884 9.70605 11.0632C9.79785 11.0063 9.9126 11.0007 10.0095 11.0487ZM8.4375 11.4142C8.4375 11.7244 8.68994 11.9767 9 11.9767C9.19702 11.9767 9.37061 11.8749 9.47119 11.7212C9.06348 11.6754 8.73901 11.3508 8.69312 10.9431C8.53931 11.0436 8.4375 11.2172 8.4375 11.4142Z" fill="white"/>
<path d="M10.1819 11.2987L10.2814 11.2893L10.2814 11.289L10.1819 11.2987ZM10.0095 11.0487L10.0539 10.9591L10.0539 10.9591L10.0095 11.0487ZM9.11572 10.2324L9.12541 10.1329L9.12539 10.1329L9.11572 10.2324ZM9.36548 10.405L9.27574 10.4491L9.27583 10.4493L9.36548 10.405ZM9.35083 10.7083L9.26593 10.6554L9.26561 10.6559L9.35083 10.7083ZM9.70605 11.0632L9.65332 10.9783L9.65327 10.9783L9.70605 11.0632ZM9.47119 11.7212L9.55488 11.7759L9.64383 11.6399L9.48236 11.6218L9.47119 11.7212ZM8.69312 10.9431L8.79249 10.9319L8.77432 10.7706L8.63842 10.8594L8.69312 10.9431ZM10.2814 11.289C10.2676 11.1472 10.1816 11.0224 10.0539 10.9591L9.9651 11.1383C10.0308 11.1709 10.0752 11.2352 10.0824 11.3084L10.2814 11.289ZM10.2875 11.4142C10.2875 11.373 10.2854 11.3311 10.2814 11.2893L10.0823 11.3081C10.0857 11.3441 10.0875 11.3798 10.0875 11.4142H10.2875ZM9 12.7017C9.71001 12.7017 10.2875 12.1243 10.2875 11.4142H10.0875C10.0875 12.0138 9.59956 12.5017 9 12.5017V12.7017ZM7.7125 11.4142C7.7125 12.1242 8.28999 12.7017 9 12.7017V12.5017C8.40044 12.5017 7.9125 12.0138 7.9125 11.4142H7.7125ZM9 10.1268C8.28999 10.1268 7.7125 10.7042 7.7125 11.4142H7.9125C7.9125 10.8147 8.40044 10.3268 9 10.3268V10.1268ZM9.12539 10.1329C9.08371 10.1289 9.04142 10.1268 9 10.1268V10.3268C9.03475 10.3268 9.07059 10.3285 9.10606 10.332L9.12539 10.1329ZM9.45522 10.3609C9.39227 10.2328 9.26742 10.1467 9.12541 10.1329L9.10604 10.332C9.17936 10.3391 9.24347 10.3835 9.27574 10.4491L9.45522 10.3609ZM9.43573 10.7611C9.51123 10.6398 9.51824 10.4884 9.45513 10.3607L9.27583 10.4493C9.30842 10.5153 9.30469 10.5931 9.26593 10.6554L9.43573 10.7611ZM9.4125 10.8437C9.4125 10.8143 9.42071 10.7856 9.43605 10.7606L9.26561 10.6559C9.23115 10.7121 9.2125 10.777 9.2125 10.8437H9.4125ZM9.57056 11.0017C9.48345 11.0017 9.4125 10.9307 9.4125 10.8437H9.2125C9.2125 11.0412 9.37299 11.2017 9.57056 11.2017V11.0017ZM9.65327 10.9783C9.62873 10.9935 9.60017 11.0017 9.57056 11.0017V11.2017C9.63714 11.2017 9.70232 11.1833 9.75884 11.1482L9.65327 10.9783ZM10.0539 10.9591C9.92597 10.8958 9.7745 10.9031 9.65332 10.9783L9.75879 11.1482C9.8212 11.1095 9.89922 11.1057 9.96514 11.1383L10.0539 10.9591ZM9 11.8767C8.74516 11.8767 8.5375 11.6691 8.5375 11.4142H8.3375C8.3375 11.7796 8.63472 12.0767 9 12.0767V11.8767ZM9.38751 11.6664C9.30453 11.7933 9.16172 11.8767 9 11.8767V12.0767C9.23232 12.0767 9.43668 11.9566 9.55488 11.7759L9.38751 11.6664ZM8.59374 10.9543C8.64486 11.4083 9.0059 11.7695 9.46003 11.8205L9.48236 11.6218C9.12105 11.5812 8.83317 11.2932 8.79249 10.9319L8.59374 10.9543ZM8.5375 11.4142C8.5375 11.2525 8.62097 11.1097 8.74782 11.0268L8.63842 10.8594C8.45764 10.9775 8.3375 11.1819 8.3375 11.4142H8.5375Z" fill="white"/>
</g>
<g id="Shape_2">
<path fill-rule="evenodd" clip-rule="evenodd" d="M12.4324 9.72694C12.8799 10.1139 13.2297 10.4954 13.4443 10.7473C13.8777 11.256 13.8777 11.3259 13.8777 11.4143C13.8777 11.4987 13.8777 11.5784 13.4446 12.0884C13.2314 12.3394 12.8828 12.7201 12.4319 13.1086C11.6416 13.7898 10.4048 14.6018 9 14.6018C7.59741 14.6018 6.35938 13.7859 5.56787 13.1016C5.12012 12.7146 4.77051 12.3331 4.55591 12.0812C4.12256 11.5724 4.12256 11.5026 4.12256 11.4143C4.12256 11.3298 4.12256 11.2501 4.55566 10.7401C4.7688 10.4891 5.11743 10.1084 5.56812 9.71988C6.35864 9.03872 7.59546 8.22675 9 8.22675C10.4028 8.22675 11.6406 9.04256 12.4324 9.72694ZM9 13.9767C10.1755 13.9767 11.2451 13.2881 11.9353 12.7104C12.5547 12.1918 12.9924 11.6687 13.1838 11.4174C12.9863 11.1623 12.5422 10.6357 11.9429 10.131C11.25 9.54744 10.1768 8.85175 9 8.85175C7.82422 8.85175 6.75488 9.54037 6.0647 10.1181C5.44507 10.6366 5.00757 11.1598 4.81616 11.411C5.01367 11.6662 5.45776 12.1928 6.05688 12.6974C6.75 13.281 7.82324 13.9767 9 13.9767Z" fill="white"/>
<path d="M13.4443 10.7473L13.5205 10.6824L13.5205 10.6824L13.4443 10.7473ZM12.4324 9.72694L12.4978 9.6513L12.4978 9.65129L12.4324 9.72694ZM13.4446 12.0884L13.5208 12.1532L13.5208 12.1532L13.4446 12.0884ZM12.4319 13.1086L12.3666 13.0329L12.3666 13.0329L12.4319 13.1086ZM5.56787 13.1016L5.63328 13.0259L5.63326 13.0259L5.56787 13.1016ZM4.55591 12.0812L4.47978 12.1461L4.47979 12.1461L4.55591 12.0812ZM4.55566 10.7401L4.47944 10.6753L4.47944 10.6753L4.55566 10.7401ZM5.56812 9.71988L5.50284 9.64412L5.50282 9.64414L5.56812 9.71988ZM11.9353 12.7104L11.9995 12.7871L11.9995 12.7871L11.9353 12.7104ZM13.1838 11.4174L13.2634 11.478L13.3099 11.4169L13.2629 11.3562L13.1838 11.4174ZM11.9429 10.131L11.8784 10.2075L11.8785 10.2075L11.9429 10.131ZM6.0647 10.1181L6.12888 10.1948L6.12888 10.1947L6.0647 10.1181ZM4.81616 11.411L4.73662 11.3504L4.69008 11.4115L4.73709 11.4722L4.81616 11.411ZM6.05688 12.6974L5.99247 12.7739L5.99248 12.7739L6.05688 12.6974ZM13.5205 10.6824C13.3036 10.4279 12.9501 10.0425 12.4978 9.6513L12.367 9.80258C12.8096 10.1854 13.1559 10.5629 13.3682 10.8121L13.5205 10.6824ZM13.9777 11.4143C13.9777 11.3918 13.978 11.3599 13.9679 11.3199C13.9581 11.2808 13.9398 11.2389 13.9097 11.1877C13.8507 11.0873 13.7372 10.9369 13.5205 10.6824L13.3682 10.8121C13.5848 11.0665 13.688 11.2053 13.7373 11.2891C13.7614 11.3301 13.7702 11.354 13.7739 11.3687C13.7774 11.3825 13.7777 11.3925 13.7777 11.4143H13.9777ZM13.5208 12.1532C13.7377 11.8978 13.8512 11.7444 13.9103 11.6416C13.9403 11.5893 13.9583 11.5466 13.968 11.5075C13.9779 11.4675 13.9777 11.436 13.9777 11.4143H13.7777C13.7777 11.4347 13.7775 11.4449 13.7739 11.4595C13.77 11.475 13.7609 11.5 13.7368 11.5419C13.6876 11.6276 13.5846 11.7691 13.3684 12.0237L13.5208 12.1532ZM12.4972 13.1844C12.953 12.7916 13.3053 12.4069 13.5208 12.1532L13.3684 12.0237C13.1576 12.2719 12.8126 12.6486 12.3666 13.0329L12.4972 13.1844ZM9 14.7018C10.4413 14.7018 11.7013 13.8703 12.4972 13.1844L12.3666 13.0329C11.5819 13.7093 10.3682 14.5018 9 14.5018V14.7018ZM5.50246 13.1772C6.29942 13.8663 7.5607 14.7018 9 14.7018V14.5018C7.63413 14.5018 6.41933 13.7056 5.63328 13.0259L5.50246 13.1772ZM4.47979 12.1461C4.69666 12.4006 5.04985 12.786 5.50248 13.1772L5.63326 13.0259C5.19039 12.6431 4.84435 12.2656 4.63203 12.0164L4.47979 12.1461ZM4.02256 11.4143C4.02256 11.4367 4.02229 11.4686 4.03235 11.5086C4.04219 11.5477 4.06045 11.5896 4.09053 11.6408C4.14956 11.7411 4.26306 11.8916 4.47978 12.1461L4.63204 12.0164C4.4154 11.762 4.31223 11.6232 4.26292 11.5394C4.23884 11.4984 4.23002 11.4745 4.22631 11.4598C4.22283 11.446 4.22256 11.436 4.22256 11.4143H4.02256ZM4.47944 10.6753C4.26254 10.9307 4.14904 11.0841 4.08999 11.1869C4.05994 11.2392 4.04194 11.2819 4.03226 11.321C4.02233 11.361 4.02256 11.3925 4.02256 11.4143H4.22256C4.22256 11.3938 4.22279 11.3836 4.22639 11.3691C4.23024 11.3535 4.23932 11.3285 4.26341 11.2866C4.31263 11.2009 4.41568 11.0594 4.63189 10.8048L4.47944 10.6753ZM5.50282 9.64414C5.04721 10.0369 4.69494 10.4216 4.47944 10.6753L4.63189 10.8048C4.84266 10.5566 5.18766 10.1799 5.63341 9.79562L5.50282 9.64414ZM9 8.12675C7.5589 8.12675 6.2989 8.95819 5.50284 9.64412L5.63339 9.79564C6.41838 9.11924 7.63201 8.32675 9 8.32675V8.12675ZM12.4978 9.65129C11.7006 8.96221 10.4395 8.12675 9 8.12675V8.32675C10.3661 8.32675 11.5807 9.12292 12.367 9.8026L12.4978 9.65129ZM11.8711 12.6337C11.1858 13.2073 10.1393 13.8767 9 13.8767V14.0767C10.2118 14.0767 11.3044 13.3688 11.9995 12.7871L11.8711 12.6337ZM13.1043 11.3568C12.9162 11.6038 12.4834 12.1211 11.8711 12.6337L11.9995 12.7871C12.6259 12.2626 13.0687 11.7336 13.2634 11.478L13.1043 11.3568ZM11.8785 10.2075C12.4709 10.7063 12.9102 11.2273 13.1048 11.4786L13.2629 11.3562C13.0625 11.0973 12.6136 10.565 12.0073 10.0545L11.8785 10.2075ZM9 8.95175C10.1402 8.95175 11.1903 9.62791 11.8784 10.2075L12.0073 10.0546C11.3097 9.46697 10.2133 8.75175 9 8.75175V8.95175ZM6.12888 10.1947C6.81422 9.62112 7.86047 8.95175 9 8.95175V8.75175C7.78797 8.75175 6.69555 9.45963 6.00051 10.0414L6.12888 10.1947ZM4.89571 11.4716C5.08384 11.2247 5.51632 10.7074 6.12888 10.1948L6.00052 10.0414C5.37381 10.5659 4.9313 11.0949 4.73662 11.3504L4.89571 11.4716ZM6.1213 12.6209C5.52912 12.1222 5.08983 11.6012 4.89524 11.3498L4.73709 11.4722C4.93751 11.7311 5.38641 12.2635 5.99247 12.7739L6.1213 12.6209ZM9 13.8767C7.85976 13.8767 6.80969 13.2005 6.12129 12.6209L5.99248 12.7739C6.69031 13.3615 7.78673 14.0767 9 14.0767V13.8767Z" fill="white"/>
</g>
<path id="Shape_3" d="M10.5916 9.82259C9.71442 8.94541 8.28695 8.94534 7.40964 9.82259C6.8572 10.3751 6.63249 11.1599 6.80858 11.922C6.84739 12.0901 7.01514 12.1949 7.18339 12.1561C7.35158 12.1173 7.45636 11.9494 7.41752 11.7813C7.2903 11.2306 7.45255 10.6636 7.85161 10.2645C8.4852 9.63091 9.5162 9.63097 10.1497 10.2645C10.7833 10.8981 10.7833 11.9291 10.1497 12.5626C9.74052 12.9718 9.13867 13.133 8.57886 12.9832C8.41224 12.9386 8.24083 13.0376 8.19624 13.2043C8.15161 13.3711 8.25061 13.5424 8.41736 13.587C8.60864 13.6382 8.80342 13.6631 8.99699 13.6631C9.58714 13.6631 10.165 13.4312 10.5916 13.0046C11.0166 12.5796 11.2506 12.0146 11.2506 11.4136C11.2506 10.8126 11.0166 10.2476 10.5916 9.82259Z" fill="white" stroke="white" stroke-width="0.2"/>
<path id="Shape_4" d="M7.85095 12.5631C7.72901 12.441 7.53051 12.4417 7.40842 12.5637C7.28639 12.6857 7.28639 12.8836 7.40842 13.0057C7.46945 13.0667 7.54942 13.0972 7.62939 13.0972C7.70936 13.0972 7.78932 13.0667 7.85036 13.0057L7.85161 13.0044C7.97364 12.8824 7.97301 12.6851 7.85095 12.5631Z" fill="white" stroke="white" stroke-width="0.2"/>
<path id="Shape_5" d="M9.01028 7.09712H9C8.82744 7.09712 8.6875 7.23706 8.6875 7.40962C8.6875 7.58218 8.82744 7.72212 9 7.72212H9.01028C9.18284 7.72212 9.32278 7.58218 9.32278 7.40962C9.32278 7.23706 9.18288 7.09712 9.01028 7.09712Z" fill="white" stroke="white" stroke-width="0.2"/>
<path id="Shape_6" d="M16.9943 3.97734C16.8545 3.25365 16.2221 2.58803 15.1654 2.05237C15.0685 2.00334 14.9531 2.008 14.8605 2.06484C14.768 2.12165 14.7116 2.2225 14.7116 2.33112V5.0559C14.7116 5.22847 14.8515 5.3684 15.0241 5.3684C15.1966 5.3684 15.3366 5.22847 15.3366 5.0559V2.86715C15.9209 3.23931 16.2834 3.65597 16.375 4.06856V4.28462C16.375 4.90143 15.7841 5.52206 14.7111 6.03218C13.5708 6.57431 11.9872 6.93762 10.2521 7.05515C10.0799 7.06684 9.94975 7.2159 9.96141 7.38806C9.97309 7.56025 10.1218 7.69025 10.2943 7.67875C12.106 7.55597 13.7698 7.17168 14.9794 6.59662C15.5677 6.31693 16.0367 5.99934 16.375 5.65175V12.2938C16.375 12.9828 15.6253 13.6827 14.3182 14.214C12.9027 14.7894 11.014 15.1063 9 15.1063C6.986 15.1063 5.09728 14.7894 3.68178 14.214C2.37466 13.6827 1.625 12.9828 1.625 12.2938V5.65175C1.96356 5.99968 2.43319 6.31759 3.02225 6.59743C4.23297 7.17265 5.89809 7.55678 7.71094 7.67909C7.88322 7.69078 8.03212 7.56053 8.04375 7.38831C8.05534 7.21612 7.92519 7.06712 7.75297 7.0555C6.01669 6.93837 4.43187 6.57522 3.29044 6.0329C2.21647 5.52265 1.625 4.90178 1.625 4.28462V4.06856C1.71666 3.65597 2.07909 3.23931 2.66341 2.86715V5.04378C2.66341 5.21634 2.80334 5.35628 2.97591 5.35628C3.14847 5.35628 3.28841 5.21634 3.28841 5.04378V2.33112C3.28841 2.2225 3.232 2.12168 3.13947 2.06484C3.04688 2.008 2.9315 2.00331 2.83459 2.05237C1.77794 2.58803 1.14547 3.25365 1.00569 3.97734C1.00191 3.99687 1 4.01672 1 4.03662V12.2938C1 13.2642 1.86884 14.1517 3.44644 14.7931C4.93491 15.3981 6.90719 15.7313 9 15.7313C11.0928 15.7313 13.0651 15.3981 14.5536 14.7931C16.1312 14.1517 17 13.2642 17 12.2938V4.03662C17 4.01672 16.9981 3.99687 16.9943 3.97734Z" fill="white" stroke="white" stroke-width="0.2"/>
</g>
</g>
</svg>
