<svg width="18" height="18" viewBox="0 0 18 18" fill="none" xmlns="http://www.w3.org/2000/svg">
<g id="Visa White">
<rect id="Rectangle 4 Copy 34" width="18" height="18" fill="#F4F7FB" fill-opacity="0.01"/>
<g id="passport">
<path id="Shape" fill-rule="evenodd" clip-rule="evenodd" d="M12.9832 3.02179V1L3.01611 3.11066V17H13.9214V3.02179H12.9832ZM12.0457 2.15686V3.02176H7.96143L12.0457 2.15686ZM3.95361 16.0624H12.9839V3.95935H3.95361V16.0624Z" fill="white"/>
<path id="Shape_2" fill-rule="evenodd" clip-rule="evenodd" d="M8.46875 5.49649C6.49683 5.49649 4.89258 7.10071 4.89258 9.07254C4.89258 11.0444 6.49683 12.6487 8.46851 12.6487C10.4404 12.6487 12.0447 11.0444 12.0447 9.07257C12.0447 7.10074 10.4404 5.49649 8.46875 5.49649ZM11.0647 8.60379H10.0469C9.98853 7.77661 9.78027 7.13754 9.54761 6.66571C10.3286 7.01718 10.9084 7.73749 11.0647 8.60379ZM6.89038 9.54135H5.8728C6.02881 10.4076 6.60889 11.1279 7.38989 11.4794C7.15723 11.0076 6.94897 10.3685 6.89038 9.54135ZM6.89038 8.60379H5.8728C6.02881 7.73752 6.60889 7.01721 7.38989 6.66574C7.15723 7.13754 6.94897 7.77661 6.89038 8.60379ZM7.83081 9.54135C7.9104 10.5097 8.22583 11.1312 8.46875 11.4757C8.71167 11.1312 9.0271 10.5097 9.10669 9.54135H7.83081ZM7.83081 8.60382C7.9104 7.6355 8.22583 7.01395 8.46875 6.6694C8.71167 7.01395 9.0271 7.63547 9.10669 8.60382H7.83081ZM10.0469 9.54129C9.98853 10.3685 9.78027 11.0076 9.54761 11.4794C10.3286 11.1279 10.9087 10.4076 11.0647 9.54129H10.0469Z" fill="white"/>
<rect id="Rectangle-path" x="5.36157" y="13.5878" width="6.2145" height="0.937563" fill="white"/>
</g>
</g>
</svg>
