<svg width="18" height="18" viewBox="0 0 18 18" fill="none" xmlns="http://www.w3.org/2000/svg">
<g id="Visa">
<rect id="Rectangle 4 Copy 34" width="18" height="18" fill="#F4F7FB" fill-opacity="0.01"/>
<g id="passport">
<path id="Shape" fill-rule="evenodd" clip-rule="evenodd" d="M12.9832 3.02179V1L3.01611 3.11066V17H13.9215V3.02179H12.9832ZM12.0455 2.15686V3.02176H7.9613L12.0455 2.15686ZM3.95374 16.0624H12.984V3.95935H3.95374V16.0624Z" fill="#0C49CD"/>
<path id="Shape_2" fill-rule="evenodd" clip-rule="evenodd" d="M8.46875 5.49649C6.49695 5.49649 4.8927 7.10071 4.8927 9.07254C4.8927 11.0444 6.49695 12.6487 8.46875 12.6487C10.4406 12.6487 12.0448 11.0444 12.0448 9.07257C12.0448 7.10074 10.4406 5.49649 8.46875 5.49649ZM11.0648 8.60379H10.0471C9.98865 7.77661 9.7804 7.13754 9.54773 6.66571C10.3287 7.01718 10.9087 7.73749 11.0648 8.60379ZM6.89038 9.54135H5.8728C6.02881 10.4076 6.60876 11.1279 7.38977 11.4794C7.15723 11.0076 6.94897 10.3685 6.89038 9.54135ZM6.89038 8.60379H5.8728C6.02881 7.73752 6.60889 7.01721 7.38977 6.66574C7.15723 7.13754 6.94897 7.77661 6.89038 8.60379ZM7.83081 9.54135C7.91052 10.5097 8.22595 11.1312 8.46875 11.4757C8.71155 11.1312 9.02698 10.5097 9.10657 9.54135H7.83081ZM7.83081 8.60382C7.91052 7.6355 8.22595 7.01395 8.46875 6.6694C8.71155 7.01395 9.02698 7.63547 9.10657 8.60382H7.83081ZM10.0471 9.54129C9.98853 10.3685 9.7804 11.0076 9.54773 11.4794C10.3287 11.1279 10.9087 10.4076 11.0648 9.54129H10.0471Z" fill="#0C49CD"/>
<rect id="Rectangle-path" x="5.36157" y="13.5878" width="6.2145" height="0.937563" fill="#0C49CD"/>
</g>
</g>
</svg>
