<?xml version="1.0" encoding="UTF-8"?>
<svg width="24px" height="24px" viewBox="0 0 24 24" version="1.1" xmlns="http://www.w3.org/2000/svg" xmlns:xlink="http://www.w3.org/1999/xlink">
    <!-- Generator: Sketch 49.1 (51147) - http://www.bohemiancoding.com/sketch -->
    <title>VK Hover</title>
    <desc>Created with Sketch.</desc>
    <defs>
        <path d="M13.176996,18.9414845 C13.176996,18.9414845 13.6101433,18.8922743 13.8319992,18.6486239 C14.0350737,18.4253778 14.0280307,18.0040907 14.0280307,18.0040907 C14.0280307,18.0040907 14.0010323,16.036884 14.8943253,15.746424 C15.7747059,15.4607649 16.9051147,17.6488172 18.1047801,18.4901912 C19.0109853,19.1263227 19.698856,18.9870939 19.698856,18.9870939 L22.9046155,18.9414845 C22.9046155,18.9414845 24.5808603,18.8358626 23.7861701,17.487984 C23.720435,17.3775612 23.3225029,16.4905778 21.403273,14.6686012 C19.3924836,12.7614069 19.662467,13.0698707 22.0829269,9.77038859 C23.5572711,7.76117324 24.1465392,6.53451966 23.9622462,6.01001123 C23.7873439,5.50830752 22.7027149,5.64153506 22.7027149,5.64153506 L19.094328,5.66433978 C19.094328,5.66433978 18.8266923,5.62713208 18.6283131,5.74835714 C18.4346294,5.86718171 18.3090284,6.14443902 18.3090284,6.14443902 C18.3090284,6.14443902 17.7385417,7.69876034 16.976719,9.02143377 C15.3697308,11.8108104 14.7276398,11.9584409 14.4646995,11.7856052 C13.8531284,11.3811216 14.0057277,10.1628697 14.0057277,9.29749083 C14.0057277,6.59333182 14.4071813,5.46629884 13.2251235,5.17463854 C12.8330606,5.07741845 12.5442958,5.0138053 11.5406618,5.00300306 C10.2529583,4.98980033 9.16363399,5.00780405 8.54619367,5.31626782 C8.13534936,5.52151025 7.81841232,5.98000503 8.01209607,6.00641049 C8.25038577,6.03881719 8.79035258,6.15524126 9.07676976,6.55372363 C9.44652964,7.06863008 9.43361739,8.22326877 9.43361739,8.22326877 C9.43361739,8.22326877 9.6460826,11.4063268 8.93708269,11.8012084 C8.45111256,12.0724645 7.78437093,11.5191501 6.35111119,8.98782682 C5.61746063,7.69155885 5.06340773,6.2584626 5.06340773,6.2584626 C5.06340773,6.2584626 4.95658821,5.99080726 4.76525214,5.84677749 C4.53400548,5.67274151 4.21119924,5.61873035 4.21119924,5.61873035 L0.782409974,5.64153506 C0.782409974,5.64153506 0.26709382,5.65593804 0.0781054355,5.88518543 C-0.0897538129,6.08802736 0.0651931857,6.50931445 0.0651931857,6.50931445 C0.0651931857,6.50931445 2.74976732,12.9318421 5.79001525,16.1689113 C8.57788738,19.1359247 11.7425624,18.9414845 11.7425624,18.9414845 L13.176996,18.9414845 Z" id="path-1"></path>
    </defs>
    <g id="VK-Hover" stroke="none" stroke-width="1" fill="none" fill-rule="evenodd">
        <mask id="mask-2" fill="white">
            <use xlink:href="#path-1"></use>
        </mask>
        <use id="Mask" fill="#0C49CD" xlink:href="#path-1"></use>
    </g>
</svg>