<svg width="18" height="18" viewBox="0 0 18 18" fill="none" xmlns="http://www.w3.org/2000/svg">
<g id="Wearing devices White">
<rect id="Rectangle 4 Copy 30" width="18" height="18" fill="#F4F7FB" fill-opacity="0.01"/>
<g id="virtual-reality">
<g id="Shape">
<path fill-rule="evenodd" clip-rule="evenodd" d="M5.35034 2.44096V4.92647H3.14209C3.61157 3.88925 4.37695 3.02818 5.35034 2.44096ZM11.8638 5.55396H2.90137C2.74951 6.03386 2.6626 6.53148 2.64209 7.03929H11.8638V5.55396ZM13.2297 10.9569C13.0566 10.9569 12.916 11.0974 12.916 11.2707V12.2631H11.3464C11.1731 12.2631 11.0325 12.4036 11.0325 12.5769C11.0325 12.7501 11.1731 12.8906 11.3464 12.8906H12.916V13.0648C12.916 13.7122 12.3894 14.2389 11.7419 14.2389H9.82739C9.65405 14.2389 9.51367 14.3794 9.51367 14.5526V16.3724H5.21167V12.2362C5.21167 12.1322 5.16016 12.035 5.07422 11.9767C3.65723 11.0139 2.7666 9.42003 2.65039 7.6669H5.35034V8.09796C5.35034 9.31197 6.15454 10.2997 7.14331 10.2997C7.31665 10.2997 7.45728 10.1591 7.45728 9.9859C7.45728 9.81265 7.31665 9.67215 7.14331 9.67215C6.50073 9.67215 5.97778 8.96596 5.97778 8.09796V7.6669H11.8635V8.11868C11.8635 8.80067 12.4185 9.35553 13.1006 9.35553H14.4915C14.6174 10.0179 14.7231 10.6006 14.7869 10.9569H13.2297ZM14.7532 8.728H14.7561H15.4487L14.8953 4.04262L13.0933 4.04265L13.0889 4.04283L13.0862 4.04297L13.0825 4.04312C12.751 4.05252 12.4912 4.31993 12.4912 4.65193V5.24025V7.35312V8.11868C12.4912 8.45465 12.7646 8.728 13.1006 8.728H14.7532Z" fill="white"/>
<path d="M5.35034 4.92647V5.02647H5.45034V4.92647H5.35034ZM5.35034 2.44096H5.45034V2.26385L5.29869 2.35534L5.35034 2.44096ZM3.14209 4.92647L3.05099 4.88523L2.98706 5.02647H3.14209V4.92647ZM2.90137 5.55396V5.45396H2.82812L2.80603 5.52379L2.90137 5.55396ZM11.8638 5.55396H11.9638V5.45396H11.8638V5.55396ZM2.64209 7.03929L2.54217 7.03526L2.53797 7.13929H2.64209V7.03929ZM11.8638 7.03929V7.13929H11.9638V7.03929H11.8638ZM12.916 12.2631V12.3631H13.016V12.2631H12.916ZM12.916 12.8906H13.016V12.7906H12.916V12.8906ZM9.51367 16.3724V16.4724H9.61367V16.3724H9.51367ZM5.21167 16.3724H5.11167V16.4724H5.21167V16.3724ZM5.07422 11.9767L5.01802 12.0594L5.01804 12.0594L5.07422 11.9767ZM2.65039 7.6669V7.5669H2.54354L2.55061 7.67351L2.65039 7.6669ZM5.35034 7.6669H5.45034V7.5669H5.35034V7.6669ZM5.97778 7.6669V7.5669H5.87778V7.6669H5.97778ZM11.8635 7.6669H11.9635V7.5669H11.8635V7.6669ZM14.4915 9.35553L14.5897 9.33684L14.5742 9.25553H14.4915V9.35553ZM14.7869 10.9569V11.0569H14.9063L14.8853 10.9393L14.7869 10.9569ZM15.4487 8.728V8.828H15.5612L15.548 8.71627L15.4487 8.728ZM14.8953 4.04262L14.9946 4.03089L14.9841 3.94262L14.8953 3.94262L14.8953 4.04262ZM13.0933 4.04265L13.0933 3.94256L13.0891 3.94273L13.0933 4.04265ZM13.0889 4.04283L13.0847 3.94291L13.0838 3.94296L13.0889 4.04283ZM13.0862 4.04297L13.0903 4.14289L13.0913 4.14284L13.0862 4.04297ZM13.0825 4.04312L13.0854 4.14309L13.0867 4.14303L13.0825 4.04312ZM5.45034 4.92647V2.44096H5.25034V4.92647H5.45034ZM3.14209 5.02647H5.35034V4.82647H3.14209V5.02647ZM5.29869 2.35534C4.30795 2.95302 3.52882 3.82957 3.05099 4.88523L3.23319 4.9677C3.69433 3.94893 4.44595 3.10334 5.402 2.52659L5.29869 2.35534ZM2.90137 5.65395H11.8638V5.45396H2.90137V5.65395ZM2.74201 7.04333C2.76216 6.54431 2.84756 6.05549 2.99671 5.58412L2.80603 5.52379C2.65147 6.01223 2.56303 6.51864 2.54217 7.03526L2.74201 7.04333ZM11.8638 6.93929H2.64209V7.13929H11.8638V6.93929ZM11.7638 5.55396V7.03929H11.9638V5.55396H11.7638ZM13.016 11.2707C13.016 11.1527 13.1118 11.0569 13.2297 11.0569V10.8569C13.0014 10.8569 12.816 11.0422 12.816 11.2707H13.016ZM13.016 12.2631V11.2707H12.816V12.2631H13.016ZM11.3464 12.3631H12.916V12.1631H11.3464V12.3631ZM11.1325 12.5769C11.1325 12.4589 11.2283 12.3631 11.3464 12.3631V12.1631C11.1179 12.1631 10.9325 12.3483 10.9325 12.5769H11.1325ZM11.3464 12.7906C11.2283 12.7906 11.1325 12.6948 11.1325 12.5769H10.9325C10.9325 12.8054 11.1179 12.9906 11.3464 12.9906V12.7906ZM12.916 12.7906H11.3464V12.9906H12.916V12.7906ZM13.016 13.0648V12.8906H12.816V13.0648H13.016ZM11.7419 14.3389C12.4446 14.3389 13.016 13.7674 13.016 13.0648H12.816C12.816 13.657 12.3342 14.1389 11.7419 14.1389V14.3389ZM9.82739 14.3389H11.7419V14.1389H9.82739V14.3389ZM9.61367 14.5526C9.61367 14.4346 9.70931 14.3389 9.82739 14.3389V14.1389C9.5988 14.1389 9.41367 14.3242 9.41367 14.5526H9.61367ZM9.61367 16.3724V14.5526H9.41367V16.3724H9.61367ZM5.21167 16.4724H9.51367V16.2724H5.21167V16.4724ZM5.11167 12.2362V16.3724H5.31167V12.2362H5.11167ZM5.01804 12.0594C5.07658 12.0992 5.11167 12.1654 5.11167 12.2362H5.31167C5.31167 12.0991 5.24374 11.9709 5.1304 11.894L5.01804 12.0594ZM2.55061 7.67351C2.66877 9.45609 3.57452 11.0786 5.01802 12.0594L5.13042 11.894C3.73993 10.9492 2.86443 9.38396 2.75017 7.66029L2.55061 7.67351ZM5.35034 7.5669H2.65039V7.7669H5.35034V7.5669ZM5.45034 8.09796V7.6669H5.25034V8.09796H5.45034ZM7.14331 10.1997C6.22799 10.1997 5.45034 9.27691 5.45034 8.09796H5.25034C5.25034 9.34702 6.08109 10.3997 7.14331 10.3997V10.1997ZM7.35728 9.9859C7.35728 10.1039 7.26149 10.1997 7.14331 10.1997V10.3997C7.37181 10.3997 7.55728 10.2144 7.55728 9.9859H7.35728ZM7.14331 9.77215C7.26149 9.77215 7.35728 9.86795 7.35728 9.9859H7.55728C7.55728 9.75735 7.37181 9.57215 7.14331 9.57215V9.77215ZM5.87778 8.09796C5.87778 8.55128 6.0142 8.96618 6.23921 9.27006C6.46417 9.57388 6.78283 9.77215 7.14331 9.77215V9.57215C6.86121 9.57215 6.59711 9.41732 6.39995 9.15105C6.20284 8.88484 6.07778 8.51264 6.07778 8.09796H5.87778ZM5.87778 7.6669V8.09796H6.07778V7.6669H5.87778ZM11.8635 7.5669H5.97778V7.7669H11.8635V7.5669ZM11.9635 8.11868V7.6669H11.7635V8.11868H11.9635ZM13.1006 9.25553C12.4737 9.25553 11.9635 8.74543 11.9635 8.11868H11.7635C11.7635 8.85592 12.3632 9.45553 13.1006 9.45553V9.25553ZM14.4915 9.25553H13.1006V9.45553H14.4915V9.25553ZM14.8853 10.9393C14.8215 10.5828 14.7158 9.99964 14.5897 9.33684L14.3932 9.37422C14.5191 10.0361 14.6248 10.6185 14.6884 10.9745L14.8853 10.9393ZM13.2297 11.0569H14.7869V10.8569H13.2297V11.0569ZM14.7561 8.628H14.7532V8.828H14.7561V8.628ZM15.4487 8.628H14.7561V8.828H15.4487V8.628ZM14.796 4.05435L15.3494 8.73973L15.548 8.71627L14.9946 4.03089L14.796 4.05435ZM13.0933 4.14265L14.8953 4.14262L14.8953 3.94262L13.0933 3.94265L13.0933 4.14265ZM13.093 4.14274L13.0974 4.14256L13.0891 3.94273L13.0847 3.94292L13.093 4.14274ZM13.0913 4.14284L13.094 4.1427L13.0838 3.94296L13.0811 3.9431L13.0913 4.14284ZM13.0867 4.14303L13.0903 4.14288L13.082 3.94306L13.0784 3.94321L13.0867 4.14303ZM12.5912 4.65193C12.5912 4.37398 12.808 4.15094 13.0854 4.14308L13.0797 3.94316C12.694 3.9541 12.3912 4.26588 12.3912 4.65193H12.5912ZM12.5912 5.24025V4.65193H12.3912V5.24025H12.5912ZM12.5912 7.35312V5.24025H12.3912V7.35312H12.5912ZM12.5912 8.11868V7.35312H12.3912V8.11868H12.5912ZM13.1006 8.628C12.8199 8.628 12.5912 8.39941 12.5912 8.11868H12.3912C12.3912 8.5099 12.7094 8.828 13.1006 8.828V8.628ZM14.7532 8.628H13.1006V8.828H14.7532V8.628Z" fill="white"/>
</g>
<g id="Shape_2">
<path fill-rule="evenodd" clip-rule="evenodd" d="M13.0901 7.35275C13.0901 6.85672 13.4934 6.45319 13.9893 6.45319C14.4854 6.45319 14.8889 6.85672 14.8889 7.35275C14.8889 7.84882 14.4854 8.25235 13.9893 8.25235C13.4934 8.25235 13.0901 7.84882 13.0901 7.35275ZM13.7175 7.35278C13.7175 7.50278 13.8394 7.62485 13.9893 7.62485C14.1392 7.62485 14.2612 7.50278 14.2612 7.35278C14.2612 7.2028 14.1392 7.08075 13.9893 7.08075C13.8394 7.08075 13.7175 7.20277 13.7175 7.35278Z" fill="white"/>
<path d="M13.9893 6.35319C13.4381 6.35319 12.9901 6.80154 12.9901 7.35275H13.1901C13.1901 6.9119 13.5487 6.55319 13.9893 6.55319V6.35319ZM14.9889 7.35275C14.9889 6.80148 14.5406 6.35319 13.9893 6.35319V6.55319C14.4301 6.55319 14.7889 6.91196 14.7889 7.35275H14.9889ZM13.9893 8.35235C14.5406 8.35235 14.9889 7.90405 14.9889 7.35275H14.7889C14.7889 7.79358 14.4301 8.15235 13.9893 8.15235V8.35235ZM12.9901 7.35275C12.9901 7.904 13.4381 8.35235 13.9893 8.35235V8.15235C13.5487 8.15235 13.1901 7.79363 13.1901 7.35275H12.9901ZM13.9893 7.52485C13.8947 7.52485 13.8175 7.44769 13.8175 7.35278H13.6175C13.6175 7.55787 13.784 7.72485 13.9893 7.72485V7.52485ZM14.1612 7.35278C14.1612 7.44757 14.0839 7.52485 13.9893 7.52485V7.72485C14.1944 7.72485 14.3612 7.55798 14.3612 7.35278H14.1612ZM13.9893 7.18075C14.0839 7.18075 14.1612 7.25802 14.1612 7.35278H14.3612C14.3612 7.14759 14.1944 6.98075 13.9893 6.98075V7.18075ZM13.8175 7.35278C13.8175 7.25788 13.8947 7.18075 13.9893 7.18075V6.98075C13.784 6.98075 13.6175 7.14767 13.6175 7.35278H13.8175Z" fill="white"/>
</g>
<path id="Shape_3" d="M13.9896 4.51846C13.5858 4.51846 13.5852 5.14599 13.9896 5.14599C14.3934 5.14599 14.394 4.51846 13.9896 4.51846Z" fill="white" stroke="white" stroke-width="0.2"/>
<path id="Shape_4" d="M13.9896 5.50159C13.5858 5.50159 13.5852 6.12912 13.9896 6.12912C14.3934 6.12912 14.394 5.50159 13.9896 5.50159Z" fill="white" stroke="white" stroke-width="0.2"/>
<path id="Shape_5" d="M7.86517 15.4152H6.47732C6.30404 15.4152 6.16357 15.5557 6.16357 15.7289C6.16357 15.9022 6.30404 16.0427 6.47732 16.0427H7.86517C8.03845 16.0427 8.17892 15.9022 8.17892 15.7289C8.17892 15.5557 8.03848 15.4152 7.86517 15.4152Z" fill="white" stroke="white" stroke-width="0.2"/>
<path id="Shape_6" d="M8.90318 15.4152C8.4994 15.4152 8.49874 16.0427 8.90318 16.0427C9.30696 16.0427 9.30765 15.4152 8.90318 15.4152Z" fill="white" stroke="white" stroke-width="0.2"/>
</g>
</g>
</svg>
