<?xml version="1.0" encoding="UTF-8"?>
<svg width="24px" height="24px" viewBox="0 0 24 24" version="1.1" xmlns="http://www.w3.org/2000/svg" xmlns:xlink="http://www.w3.org/1999/xlink">
    <!-- Generator: Sketch 49.1 (51147) - http://www.bohemiancoding.com/sketch -->
    <title>Web</title>
    <desc>Created with Sketch.</desc>
    <defs></defs>
    <g id="Web" stroke="none" stroke-width="1" fill="none" fill-rule="evenodd">
        <g id="worldwide-copy" transform="translate(2.000000, 2.000000)" fill="#C7CCD1" fill-rule="nonzero">
            <g id="Group-17">
                <path d="M10.5859375,10.5859375 L10.5859375,13.7681641 C11.630625,13.8098828 12.6485937,13.9716016 13.6352734,14.2394531 C13.8902734,13.0717969 14.0483984,11.8235938 14.0873828,10.5859375 L10.5859375,10.5859375 Z" id="Shape"></path>
                <path d="M10.5859375,14.9380469 L10.5859375,20 C11.7146094,19.5353125 12.7096875,17.6133203 13.3503906,15.3752734 C12.4560547,15.1307422 11.5335937,14.9796875 10.5859375,14.9380469 Z" id="Shape"></path>
                <path d="M13.6824219,5.99019531 C12.6851953,6.2634375 11.6476562,6.4209375 10.5859375,6.46554688 L10.5859375,9.4140625 L14.0873828,9.4140625 C14.0509766,8.25679687 13.9091406,7.09167969 13.6824219,5.99019531 Z" id="Shape"></path>
                <path d="M10.5859375,0 L10.5859375,5.29070313 C11.5553125,5.24621094 12.503125,5.10128906 13.4135547,4.84824219 C12.7762109,2.50382812 11.7521484,0.48015625 10.5859375,0 Z" id="Shape"></path>
                <path d="M6.59117188,4.82957031 C7.50410156,5.08363281 8.44769531,5.23617188 9.4140625,5.27996094 L9.4140625,0 C8.25089844,0.478867188 7.22886719,2.49382813 6.59117188,4.82957031 Z" id="Shape"></path>
                <path d="M17.9228906,3.98742187 C16.9551563,4.66621094 15.9048828,5.20472656 14.7989453,5.61296875 C15.0619531,6.82140625 15.2209375,8.10976563 15.2584375,9.4140625 L20,9.4140625 C19.8808203,7.38136719 19.084375,5.51421875 17.9228906,3.98742187 Z" id="Shape"></path>
                <path d="M6.65167969,15.3822266 C7.29246094,17.6169141 8.28652344,19.5357812 9.4140625,20 L9.4140625,14.9254688 C8.58800781,14.9647266 7.79785156,15.0673047 6.65167969,15.3822266 Z" id="Shape"></path>
                <path d="M5.91261719,10.5859375 C5.95167969,11.8264062 6.1103125,13.0775391 6.36628906,14.2474219 C7.65367188,13.8967187 8.49347656,13.7961719 9.4140625,13.7559766 L9.4140625,10.5859375 L5.91261719,10.5859375 Z" id="Shape"></path>
                <path d="M14.4576953,15.7198438 C13.9919141,17.2876953 13.3497656,18.8195703 12.5820703,19.7827734 C14.2888281,19.3234375 15.8201172,18.2583984 17.0357422,17.0441797 C16.2285937,16.5018359 15.3637109,16.0607813 14.4576953,15.7198438 Z" id="Shape"></path>
                <path d="M6.32074219,5.97496094 C6.09214844,7.08097656 5.94925781,8.25148438 5.91261719,9.4140625 L9.4140625,9.4140625 L9.4140625,6.45269531 C8.35441406,6.40949219 7.32007813,6.24871094 6.32074219,5.97496094 Z" id="Shape"></path>
                <path d="M2.84957031,3.08105469 C3.67554688,3.64902344 4.55882812,4.11316406 5.48902344,4.46773438 C5.95835938,2.82121094 6.62,1.21847656 7.41792969,0.217226562 C5.65496094,0.691640625 4.08390625,1.80574219 2.84957031,3.08105469 Z" id="Shape"></path>
                <path d="M15.2583984,10.5859375 C15.2189844,11.9580859 15.0439453,13.3122656 14.7561328,14.5742578 C15.8369531,14.9699219 16.8675,15.4935156 17.8204297,16.149375 C19.0426172,14.5985156 19.8773437,12.6789844 20,10.5859375 L15.2583984,10.5859375 Z" id="Shape"></path>
                <path d="M12.5820703,0.217226562 C13.3809375,1.21957031 14.0432031,2.82449219 14.5126172,4.47335938 C15.4455469,4.11800781 16.3308594,3.654375 17.1557031,3.08691406 C15.9205469,1.80875 14.3476953,0.692382813 12.5820703,0.217226562 Z" id="Shape"></path>
                <path d="M5.54730469,15.7376172 C4.64144531,16.0796484 3.77289062,16.5080859 2.96859375,17.0481641 C4.18359375,18.2603516 5.713125,19.3240234 7.41792969,19.7827734 C6.65316406,18.8232031 6.01273437,17.2980469 5.54730469,15.7376172 Z" id="Shape"></path>
                <path d="M2.08335938,3.97914062 C0.918164062,5.50742187 0.119375,7.37773437 0,9.4140625 L4.74160156,9.4140625 C4.77894531,8.11480469 4.93671875,6.83121094 5.19800781,5.62671875 C4.09394531,5.21917969 3.05324219,4.66003906 2.08335938,3.97914062 Z" id="Shape"></path>
                <path d="M4.7415625,10.5859375 L0,10.5859375 C0.123164062,12.6869141 0.962734375,14.6134766 2.19296875,16.1675 C3.14183594,15.5151172 4.16742188,14.9921875 5.24867187,14.5955078 C4.95792969,13.3274219 4.78117188,11.9657813 4.7415625,10.5859375 Z" id="Shape"></path>
            </g>
        </g>
    </g>
</svg>